<svg xmlns="http://www.w3.org/2000/svg" xmlns:xlink="http://www.w3.org/1999/xlink" viewBox="0 0 285.57 326.8"><defs><style>.cls-1,.cls-8{fill:none;}.cls-2{clip-path:url(#clip-path);}.cls-3,.cls-5,.cls-8{stroke:#676d66;}.cls-10,.cls-11,.cls-12,.cls-13,.cls-14,.cls-3,.cls-5,.cls-8,.cls-9{stroke-miterlimit:10;}.cls-13,.cls-3,.cls-5,.cls-8{stroke-width:0.79px;}.cls-3{fill:url(#무제_그라디언트_4);}.cls-4{fill:#e6dcd2;}.cls-5{fill:#f1e4e3;}.cls-6{fill:#e3a7a1;}.cls-7{fill:#edccc9;}.cls-10,.cls-13,.cls-9{stroke:#231815;}.cls-9{fill:url(#무제_그라디언트_16);}.cls-10,.cls-14{fill:#f4efc3;}.cls-11,.cls-12{fill:#f3da82;}.cls-11,.cls-14{stroke:#eecbb2;}.cls-12{stroke:#726455;stroke-width:0.75px;}.cls-13{fill:url(#무제_그라디언트_43);}.cls-14{stroke-width:2px;}.cls-15{fill:#424944;}</style><clipPath id="clip-path" transform="translate(15.23 36.47)"><rect id="SVGID" class="cls-1" width="239.98" height="252.69"/></clipPath><linearGradient id="무제_그라디언트_4" x1="135.86" y1="166.28" x2="135.86" y2="313.21" gradientUnits="userSpaceOnUse"><stop offset="0.48" stop-color="#ebe3d9"/><stop offset="0.61" stop-color="#f1eadd"/><stop offset="0.77" stop-color="#f3f1f0"/></linearGradient><radialGradient id="무제_그라디언트_16" cx="149.03" cy="193.25" r="42.09" gradientTransform="translate(41.36 338.52) rotate(-87.95) scale(1 0.53)" gradientUnits="userSpaceOnUse"><stop offset="0.25" stop-color="#e2d5c3"/><stop offset="1" stop-color="#fff"/></radialGradient><linearGradient id="무제_그라디언트_43" x1="48.25" y1="56.1" x2="84.05" y2="56.1" gradientUnits="userSpaceOnUse"><stop offset="0.48" stop-color="#ced0d6"/><stop offset="0.61" stop-color="#fff"/><stop offset="0.71" stop-color="#c9ccd0"/><stop offset="0.77" stop-color="#b1b6bb"/></linearGradient></defs><g id="레이어_2" data-name="레이어 2"><g id="레이어_1-2" data-name="레이어 1"><g class="cls-2"><rect class="cls-3" x="13.53" y="201.58" width="244.66" height="97.27"/><path class="cls-4" d="M172.6,226.45c-.88,1.42-.84,3.2-.78,4.87,0,.52.1,1.13.55,1.37s.89,0,1.35,0a2,2,0,0,1,2,1.87,3.27,3.27,0,0,0,0,1c.24.7,1.19.8,1.92.68a2.66,2.66,0,0,0,1.64-.75,3.07,3.07,0,0,0,.48-2v-2.8a1.43,1.43,0,0,0-.2-.9,1.3,1.3,0,0,0-.6-.4,5.34,5.34,0,0,0-2.45-.63,6.86,6.86,0,0,1-1.49.16c-.5-.07-1-.55-.83-1,.08-.2.26-.35.3-.56s-.2-.6-.48-.75a3,3,0,0,1-.83-.45" transform="translate(15.23 36.47)"/><path class="cls-4" d="M189.14,226.44a1,1,0,0,0-.58-1.26,2.89,2.89,0,0,0-1.52-.1,1.35,1.35,0,0,0-.63.17,1.36,1.36,0,0,0-.4.46,24.75,24.75,0,0,0-1.52,2.88,3,3,0,0,0-.32,2.37c.33.8,1.23,1.17,2,1.61a7.73,7.73,0,0,1,2.19,1.88c.17.21.38.46.65.45s.51-.32.61-.61a3.71,3.71,0,0,0-.13-2.74,11,11,0,0,1-1.09-2.13,4.46,4.46,0,0,1,1-3.2" transform="translate(15.23 36.47)"/><path class="cls-4" d="M168.1,245.16c-1.19-.12-2.21.74-3.19,1.42a12.91,12.91,0,0,1-5.59,2.19c-.11.29.3.49.6.52a11.89,11.89,0,0,0,3.81-.18,2.6,2.6,0,0,1,1.76,0c.7.38.82,1.35,1.36,1.94a3.44,3.44,0,0,0,2.69.76,3.59,3.59,0,0,0,2.4-.59c.87-.77.78-2.13.54-3.26a1.62,1.62,0,0,0-.71-1.22,4.11,4.11,0,0,0-.93-.16c-1-.22-1.61-1.49-2.59-1.34" transform="translate(15.23 36.47)"/><path class="cls-4" d="M177.3,241.3a5.24,5.24,0,0,0-2.17,1.3c-.34.35-.65.87-.42,1.29a1.21,1.21,0,0,0,1.06.48c.88,0,1.77-.08,2.64,0a2.8,2.8,0,0,1,2.21,1.25,2.19,2.19,0,0,0,.51.81c.45.32,1.08,0,1.47-.39a4.19,4.19,0,0,0,1.16-3.53,1.14,1.14,0,0,0-.2-.55,1,1,0,0,0-.6-.31,7.56,7.56,0,0,0-2.83.45c-.94.18-2.16,0-2.44-1" transform="translate(15.23 36.47)"/><path class="cls-4" d="M166,229.29a5.42,5.42,0,0,0-5.51,1.06,3.09,3.09,0,0,1-.75.61,7.49,7.49,0,0,1-.81.23,1.92,1.92,0,0,0-.76,3c.22.23.5.41.72.64a2.76,2.76,0,0,1,.52,2.17c-.08.67-.2,1.48.35,1.86a1.08,1.08,0,0,0,1.17,0,2.77,2.77,0,0,0,.8-.93,14,14,0,0,0,1.43-3.06,5.27,5.27,0,0,1,1.4-2.72,8.68,8.68,0,0,1,1.31-.71,1.74,1.74,0,0,0,.94-1.09c.09-.49-.32-1.07-.81-1" transform="translate(15.23 36.47)"/><path class="cls-4" d="M200.62,223.35a5.4,5.4,0,0,0-5.51,1.07,3,3,0,0,1-.75.6,5.74,5.74,0,0,1-.81.23,1.92,1.92,0,0,0-.76,3c.22.24.5.41.72.65A2.74,2.74,0,0,1,194,231c-.08.66-.2,1.48.35,1.86a1.1,1.1,0,0,0,1.17-.05,2.81,2.81,0,0,0,.81-.93,14.42,14.42,0,0,0,1.42-3.06,5.27,5.27,0,0,1,1.4-2.72,9.68,9.68,0,0,1,1.31-.71,1.72,1.72,0,0,0,.94-1.09c.09-.49-.32-1.07-.81-1" transform="translate(15.23 36.47)"/><path class="cls-4" d="M225.39,237.6a2.48,2.48,0,0,1-.82,2.57,5.53,5.53,0,0,1-2.61,1.09,5.53,5.53,0,0,0-2.92,1,4.67,4.67,0,0,0-1.07,2.92l-.18,1.55a.88.88,0,0,0,.08.64.82.82,0,0,0,.48.24,4,4,0,0,0,3.76-1.15c.66-.71,1.07-1.67,1.91-2.15.47-.27,1-.36,1.5-.63,1.27-.72,1.48-2.43,1.54-3.89l.07-1.57a2,2,0,0,0-.31-1.46c-.34-.38-1.14-.32-1.2.19" transform="translate(15.23 36.47)"/><path class="cls-4" d="M232.23,244.08a5.66,5.66,0,0,1-2.09.64,4.36,4.36,0,0,0-2.73,2.18c-.42.83-.48,2,.3,2.51a2.45,2.45,0,0,0,2.22-.17,5.3,5.3,0,0,0,1.22-.65,5.57,5.57,0,0,0,.81-.87l1.26-1.56a2.32,2.32,0,0,0,.69-1.5c0-.57-.76-1.06-1.18-.68" transform="translate(15.23 36.47)"/><path class="cls-4" d="M217.78,220.59c-.2.2-.55.06-.75-.14-.86-.86-.72-2.5-1.76-3.12a2.8,2.8,0,0,0-1-.3q-3.21-.5-6.45-.88c-.7-.08-1.64,0-1.83.66s.29,1.05.71,1.42a43.22,43.22,0,0,0,4.8,3.74,4.85,4.85,0,0,1,1.14.92,7.51,7.51,0,0,0,1,1.31,2,2,0,0,0,1.83.19,3.32,3.32,0,0,0,2.1-3.8" transform="translate(15.23 36.47)"/><path class="cls-4" d="M225.06,217.34l-1.4.67a3,3,0,0,0-1,.67,1,1,0,0,0-.14,1.13,1.2,1.2,0,0,0,.83.42,4,4,0,0,0,3.83-1.61,1.6,1.6,0,0,0,.35-1.25,1.27,1.27,0,0,0-1.33-.87,2.19,2.19,0,0,0-1.46.85" transform="translate(15.23 36.47)"/><path class="cls-4" d="M225.73,225.1a4.28,4.28,0,0,0-3.16-.27,2.83,2.83,0,0,0-1.95,2.37,3.14,3.14,0,0,1-.14,1.19c-.39.75-1.62.71-2,1.45a1.31,1.31,0,0,0,.87,1.72,3.58,3.58,0,0,0,2.16-.19c.81-.26,1.62-.53,2.41-.84a5.32,5.32,0,0,0,1.77-.95,5.69,5.69,0,0,0,1.37-3.14,2.37,2.37,0,0,0,0-1.49.84.84,0,0,0-1.23-.4" transform="translate(15.23 36.47)"/><path class="cls-4" d="M196.75,238c-.5.7-1.54.67-2.4.61s-1.93,0-2.27.84a1.64,1.64,0,0,0,0,1.07,2.87,2.87,0,0,0,1.25,1.59c.38.23.83.39,1,.77s0,1.18.32,1.69,1.4.53,1.89,0a3.52,3.52,0,0,0,.66-2.07,3.52,3.52,0,0,1,.69-2.06,6.2,6.2,0,0,1,2.13-1c.72-.32,1.42-1.11,1.1-1.83s-1.35-.75-2.12-.53a7.58,7.58,0,0,0-2.37,1.16" transform="translate(15.23 36.47)"/><path class="cls-4" d="M207.07,230.37c-.54,0-1.08-.07-1.62,0a1.69,1.69,0,0,0-1.35.78.91.91,0,0,0,.51,1.3c.19,0,.4,0,.59,0,.55.07.87.66,1,1.2a3.35,3.35,0,0,0,.54,1.56,1.52,1.52,0,0,0,2,0,2.3,2.3,0,0,0,.69-2.06,2.68,2.68,0,0,0-2.85-2.37" transform="translate(15.23 36.47)"/><path class="cls-4" d="M218.1,236.11a2.31,2.31,0,0,0-2.34.55,2.64,2.64,0,0,0-.38.5l-.06.1s-.13.13,0,.06l-.05,0,.07-.06c-.08,0-.07,0,0,0s-.17,0-.22,0,0,0,0,0a.38.38,0,0,1-.15,0,2.74,2.74,0,0,0-.81.19,1.41,1.41,0,0,0-.84,1.2,1.28,1.28,0,0,0,1,1.2,3,3,0,0,0,2.53-.33,3,3,0,0,0,1.36-2.49.79.79,0,0,0-1.58,0,1.34,1.34,0,0,0,0,.2c0,.11,0-.16,0-.05s0,.06,0,.08a.79.79,0,0,1-.06.22s0,0,0,.08.08-.17,0,0a3.79,3.79,0,0,1-.2.34c-.06.09,0,0,0,0l-.06.06-.16.16-.08.07,0,0-.2.13-.12.06c.09-.05,0,0,0,0l-.14,0-.2,0c-.12,0,0,0,0,0s-.07,0-.08,0h-.33c-.13,0,0,0,0,0a1.55,1.55,0,0,0-.23-.05s-.23-.09-.13,0,0,0,0,0l0,0c-.1-.06-.05,0,.15.16a.61.61,0,0,1,.05.18c0,.05-.05.27,0,.15s-.09.17,0,.07-.11.12,0,.06l.07-.07-.06.05.09-.05s-.16,0-.08,0l.11,0c.1,0-.2,0,0,0a2.7,2.7,0,0,0,1.09-.27,2.48,2.48,0,0,0,.76-.85s0,0,0-.07c0,.13-.07.09,0,0l0-.05c.12-.12-.1.06,0,0l.2-.12h0l.05,0a1.46,1.46,0,0,0,.2-.05.55.55,0,1,0-.06,0h.2c.15,0-.12,0,0,0l.22.06a.81.81,0,0,0,1-.55.82.82,0,0,0-.56-1Z" transform="translate(15.23 36.47)"/><path class="cls-4" d="M209.33,241.21a23.67,23.67,0,0,0-7.14.8,1.94,1.94,0,0,0-2,2.11,5.25,5.25,0,0,0,.29,2.79,1.79,1.79,0,0,0,2.36.91,5.1,5.1,0,0,0,.65-.59c1.39-1.26,3.66-.83,5.25-1.83a3.43,3.43,0,0,0,1.22-4.23" transform="translate(15.23 36.47)"/><path class="cls-4" d="M214.3,248.07a9.6,9.6,0,0,0-3.09.66,1.16,1.16,0,0,1-.65.14c-.57-.09-.83-1-1.4-.91s-.65.72-.64,1.23c0,.74.09,1.61.74,2a1.56,1.56,0,0,0,.77.18,6.22,6.22,0,0,0,3-1.05,3.38,3.38,0,0,0,1.11-.87,1.15,1.15,0,0,0,.09-1.32" transform="translate(15.23 36.47)"/><path class="cls-4" d="M190.48,245a.73.73,0,0,0-1.07.09,2.15,2.15,0,0,0-.37,1.15l-.24,2.07a1.07,1.07,0,0,0,0,.64,1,1,0,0,0,.55.39c1.55.54,3.27-.07,4.74-.81a.58.58,0,0,0,.28-.23c.12-.24-.13-.5-.38-.63a3.48,3.48,0,0,0-1.31-.38,1.8,1.8,0,0,1-1-.22,1.67,1.67,0,0,1-.42-1.14c-.06-.42-.25-.9-.66-1" transform="translate(15.23 36.47)"/><path class="cls-4" d="M244.56,243.31c-.39.3-.95.08-1.45.09-.85,0-1.5.74-2.25,1.15s-1.49.48-2.19.84a1.71,1.71,0,0,0-1,1.89c.3.85,1.42,1,2.32,1h3.71a1.84,1.84,0,0,0,2.2-2.13,5.84,5.84,0,0,0,0-1.77,1.94,1.94,0,0,0-1-1.4" transform="translate(15.23 36.47)"/><path class="cls-4" d="M237.66,257a1.34,1.34,0,0,0,.05-1.66,2.73,2.73,0,0,0-1.5-.94,6.06,6.06,0,0,0-6.32,2,1.2,1.2,0,0,0-.31,1.21,1.18,1.18,0,0,0,1.14.44c2-.08,4-1.18,6-.74" transform="translate(15.23 36.47)"/><path class="cls-4" d="M223.63,251c-.74-.46-1.69,0-2.43.44l-1.8,1.07c-.46.28-1,.74-.79,1.24s.7.49,1.14.51l4,.12a1.72,1.72,0,0,0,.93-.15c.63-.39.45-1.34.19-2s-.49-1.22-1.07-1.41" transform="translate(15.23 36.47)"/><path class="cls-4" d="M199.19,256.1a1.31,1.31,0,0,0,.47-1.82,2.13,2.13,0,0,0-1.83-.89,6.4,6.4,0,0,0-2.06.49l-1.41.51c-.72.26-1.54.63-1.69,1.38s.59,1.5,1.34,1.82a4.74,4.74,0,0,0,5-.95" transform="translate(15.23 36.47)"/><path class="cls-4" d="M206.81,257.59a5.26,5.26,0,0,1,.08-2.13,1.81,1.81,0,0,1,1.52-1.34,2.39,2.39,0,0,1,1.07.27q1.25.51,2.46,1.11c.66.32,1.41.87,1.25,1.58s-1.1.9-1.85.91l-4.42.09" transform="translate(15.23 36.47)"/><path class="cls-4" d="M249.8,194.21a2.47,2.47,0,0,1-.83,2.57,5.43,5.43,0,0,1-2.61,1.09,5.54,5.54,0,0,0-2.92,1,4.55,4.55,0,0,0-1.06,2.91l-.19,1.55a.83.83,0,0,0,.09.64.79.79,0,0,0,.47.24,4,4,0,0,0,3.76-1.15c.66-.7,1.08-1.67,1.91-2.15.47-.27,1-.35,1.5-.62,1.27-.73,1.48-2.44,1.54-3.9l.07-1.57a2,2,0,0,0-.31-1.46c-.33-.38-1.13-.31-1.2.19" transform="translate(15.23 36.47)"/><path class="cls-4" d="M256.63,200.69a5.56,5.56,0,0,1-2.09.65,4.33,4.33,0,0,0-2.73,2.18,2,2,0,0,0,.31,2.51,2.46,2.46,0,0,0,2.21-.18,4.92,4.92,0,0,0,1.22-.65,5.21,5.21,0,0,0,.82-.87l1.25-1.56a2.25,2.25,0,0,0,.69-1.5c0-.56-.76-1.06-1.18-.68" transform="translate(15.23 36.47)"/><path class="cls-4" d="M221.15,194.59c-.5.71-1.53.67-2.4.61s-1.93.05-2.27.84a1.64,1.64,0,0,0,0,1.07,2.81,2.81,0,0,0,1.24,1.59c.38.23.84.39,1.05.77s0,1.19.32,1.69,1.4.54,1.89,0a3.62,3.62,0,0,0,.67-2.07,3.34,3.34,0,0,1,.69-2.06,6.09,6.09,0,0,1,2.12-1c.72-.32,1.42-1.1,1.1-1.83s-1.35-.75-2.11-.53a7.47,7.47,0,0,0-2.37,1.16" transform="translate(15.23 36.47)"/><path class="cls-4" d="M231.47,187c-.54,0-1.08-.07-1.62,0a1.69,1.69,0,0,0-1.35.78.93.93,0,0,0,.51,1.31c.19,0,.4,0,.6,0,.55.07.86.67,1,1.21a3.42,3.42,0,0,0,.54,1.55,1.53,1.53,0,0,0,2.05,0,2.32,2.32,0,0,0,.68-2.06,2.68,2.68,0,0,0-2.85-2.37" transform="translate(15.23 36.47)"/><path class="cls-4" d="M242.5,192.72a2.33,2.33,0,0,0-2.34.55,2.71,2.71,0,0,0-.38.51l-.06.09s-.13.14,0,.06l-.05,0,.07-.05c-.08,0-.06,0,0,0s-.17.05-.22.06h0a.77.77,0,0,1-.15,0,2.51,2.51,0,0,0-.81.18,1.44,1.44,0,0,0-.84,1.2,1.28,1.28,0,0,0,1,1.2,3,3,0,0,0,2.54-.33,3.07,3.07,0,0,0,1.36-2.48.8.8,0,0,0-.8-.8.81.81,0,0,0-.79.8c0,.06,0,.13,0,.19s0-.15,0-.05,0,.06,0,.09l-.06.21,0,.08c0,.1.08-.17,0,0a3.72,3.72,0,0,1-.19.34c-.07.09,0,0,0,0s0,.06-.06.06l-.15.16-.09.07c-.07.06,0,0,0,0a1.51,1.51,0,0,0-.2.12l-.11.06c.09,0,0,0,0,0l-.14.05-.2,0c-.12,0,0,0,0,0s-.08,0-.09,0h-.33c-.12,0,0,0,0,0a1.32,1.32,0,0,0-.23-.05s-.23-.08-.13,0,0,0,0,0l0,0c-.09-.05,0,0,.15.16a.61.61,0,0,1,.05.18s0,.27,0,.15-.1.17,0,.07-.11.12-.05.06l.07-.07-.06,0,.09,0s-.15,0-.08,0l.11,0c.11,0-.2,0,0,0a2.62,2.62,0,0,0,1.1-.27,2.53,2.53,0,0,0,.75-.84l.05-.07c-.05.12-.07.08,0,0l.06,0c.11-.12-.1.06,0,0l.2-.12h0l.05,0,.2,0s-.2,0-.06,0h.2c.15,0-.12,0,0,0l.22.06a.79.79,0,0,0,1-.55.82.82,0,0,0-.56-1Z" transform="translate(15.23 36.47)"/><path class="cls-4" d="M233.73,197.82a23.67,23.67,0,0,0-7.14.8,2.62,2.62,0,0,0-1.71.86,2.49,2.49,0,0,0-.32,1.26,5.13,5.13,0,0,0,.28,2.78,1.79,1.79,0,0,0,2.36.91,4.49,4.49,0,0,0,.65-.58c1.39-1.26,3.67-.84,5.25-1.84a3.43,3.43,0,0,0,1.22-4.23" transform="translate(15.23 36.47)"/><path class="cls-4" d="M238.7,204.68a9.61,9.61,0,0,0-3.09.67,1.25,1.25,0,0,1-.65.13c-.56-.09-.82-.94-1.39-.91s-.65.72-.65,1.23c0,.74.1,1.61.74,2a1.58,1.58,0,0,0,.77.17,6.12,6.12,0,0,0,3-1,3.53,3.53,0,0,0,1.12-.86,1.16,1.16,0,0,0,.08-1.33" transform="translate(15.23 36.47)"/><path class="cls-4" d="M214.88,201.59a.72.72,0,0,0-1.06.09,2.07,2.07,0,0,0-.38,1.14l-.24,2.07a1.1,1.1,0,0,0,.05.65.91.91,0,0,0,.55.38c1.56.55,3.27-.07,4.75-.81a.56.56,0,0,0,.27-.23c.13-.24-.13-.5-.37-.63a3.59,3.59,0,0,0-1.31-.38,1.73,1.73,0,0,1-1-.22,1.67,1.67,0,0,1-.42-1.14c-.06-.42-.25-.9-.66-1" transform="translate(15.23 36.47)"/><path class="cls-4" d="M269,199.92c-.39.3-.95.08-1.44.1-.86,0-1.5.74-2.25,1.14s-1.5.48-2.2.84a1.71,1.71,0,0,0-1,1.9c.3.84,1.41,1,2.31,1h3.71a2.42,2.42,0,0,0,1.48-.32,2.45,2.45,0,0,0,.72-1.8,5.59,5.59,0,0,0,0-1.78,1.93,1.93,0,0,0-1-1.4" transform="translate(15.23 36.47)"/><path class="cls-4" d="M262.07,213.65a1.34,1.34,0,0,0,0-1.66,2.7,2.7,0,0,0-1.49-.94,6.08,6.08,0,0,0-6.33,2,1.2,1.2,0,0,0-.31,1.21,1.18,1.18,0,0,0,1.14.44c2-.08,4-1.18,6-.74" transform="translate(15.23 36.47)"/><path class="cls-4" d="M248,207.6c-.75-.45-1.69,0-2.44.45l-1.79,1.07c-.46.27-1,.73-.8,1.23s.7.49,1.15.51l4,.12a1.59,1.59,0,0,0,.92-.15c.63-.39.45-1.33.2-2s-.5-1.22-1.08-1.41" transform="translate(15.23 36.47)"/><path class="cls-4" d="M239.48,219.13a2.45,2.45,0,0,1-.83,2.56,5.3,5.3,0,0,1-2.6,1.09,5.57,5.57,0,0,0-2.93,1,4.72,4.72,0,0,0-1.06,2.92l-.19,1.54a.93.93,0,0,0,.09.64.78.78,0,0,0,.47.25,4,4,0,0,0,3.76-1.15c.66-.71,1.08-1.67,1.92-2.15.47-.27,1-.36,1.5-.63,1.26-.73,1.47-2.43,1.54-3.89l.07-1.58a2,2,0,0,0-.31-1.46c-.34-.38-1.14-.31-1.2.2" transform="translate(15.23 36.47)"/><path class="cls-4" d="M246.32,225.61a5.86,5.86,0,0,1-2.09.64,4.33,4.33,0,0,0-2.73,2.18,2,2,0,0,0,.3,2.51,2.48,2.48,0,0,0,2.22-.17,5.42,5.42,0,0,0,1.21-.65,4.89,4.89,0,0,0,.82-.88l1.25-1.55a2.34,2.34,0,0,0,.7-1.51c0-.56-.76-1.05-1.19-.68" transform="translate(15.23 36.47)"/><path class="cls-4" d="M258.65,224.83c-.39.3-.95.09-1.45.1-.85,0-1.5.74-2.25,1.14s-1.5.48-2.19.85a1.7,1.7,0,0,0-1,1.89c.3.85,1.41,1,2.31,1h3.71a2.45,2.45,0,0,0,1.49-.32,2.48,2.48,0,0,0,.71-1.8,5.6,5.6,0,0,0,0-1.78,2,2,0,0,0-1-1.39" transform="translate(15.23 36.47)"/><path class="cls-4" d="M251.75,238.56a1.32,1.32,0,0,0,.05-1.65,2.69,2.69,0,0,0-1.5-.95,6,6,0,0,0-6.32,2c-.27.34-.52.81-.31,1.2a1.18,1.18,0,0,0,1.14.44c2-.07,4-1.17,6-.74" transform="translate(15.23 36.47)"/><path class="cls-4" d="M189.72,185.35c-.39.3-.95.09-1.45.1-.85,0-1.5.74-2.25,1.14s-1.5.48-2.19.84a1.71,1.71,0,0,0-1,1.9c.3.84,1.42,1,2.31,1h3.71a2.45,2.45,0,0,0,1.49-.32,2.49,2.49,0,0,0,.72-1.8,5.9,5.9,0,0,0,0-1.78,2,2,0,0,0-1-1.39" transform="translate(15.23 36.47)"/><path class="cls-4" d="M200.82,182.8a1.32,1.32,0,0,0,.05-1.65,2.8,2.8,0,0,0-1.5-1,6.08,6.08,0,0,0-6.32,2,1.19,1.19,0,0,0-.31,1.2c.2.39.71.46,1.14.45,2-.08,4-1.18,6-.75" transform="translate(15.23 36.47)"/><path class="cls-4" d="M237.72,232.51c-.74-.45-1.69,0-2.44.45L233.49,234c-.46.27-1,.74-.79,1.24s.7.49,1.14.5l4,.13a1.72,1.72,0,0,0,.93-.16c.62-.39.44-1.33.19-2s-.49-1.22-1.08-1.41" transform="translate(15.23 36.47)"/><path class="cls-4" d="M223.59,212.71a1.29,1.29,0,0,0,.47-1.81,2.09,2.09,0,0,0-1.83-.89,6.19,6.19,0,0,0-2.06.48l-1.41.51c-.71.26-1.54.64-1.68,1.39s.58,1.5,1.33,1.81a4.75,4.75,0,0,0,5-.95" transform="translate(15.23 36.47)"/><path class="cls-4" d="M231.21,214.2a5.26,5.26,0,0,1,.08-2.13,1.81,1.81,0,0,1,1.52-1.34,2.78,2.78,0,0,1,1.08.27c.83.34,1.65.71,2.45,1.11s1.41.87,1.25,1.59-1.1.89-1.84.9l-4.42.09" transform="translate(15.23 36.47)"/><path class="cls-4" d="M180.45,258.21l0-4.08a1.32,1.32,0,0,0-.11-.65,1.24,1.24,0,0,0-.61-.49,7.2,7.2,0,0,0-1.42-.48.66.66,0,0,0-.5,0,.68.68,0,0,0-.25.37,11.12,11.12,0,0,0-.48,3.59,2.66,2.66,0,0,0,.58,2.13,2.09,2.09,0,0,0,2.66-.4" transform="translate(15.23 36.47)"/><path class="cls-4" d="M207.23,201.18a7.92,7.92,0,0,0-3.63,1.75,18.72,18.72,0,0,1-4.93,2.33c-1.15.35-2.5.73-2.94,1.84a1.09,1.09,0,0,0,0,1,1.12,1.12,0,0,0,.57.43,6,6,0,0,0,2.56.35l4.6,0c1.86,0,4-.18,5.06-1.7a5.76,5.76,0,0,0,.71-3.31,4.35,4.35,0,0,0-.27-2,1.52,1.52,0,0,0-1.62-.95" transform="translate(15.23 36.47)"/><path class="cls-4" d="M207.47,183c-.5.71-1.54.67-2.4.61s-1.93,0-2.27.85a1.61,1.61,0,0,0,0,1.06,2.83,2.83,0,0,0,1.25,1.59c.38.23.83.39,1,.77s0,1.19.32,1.69,1.4.54,1.89,0a3.54,3.54,0,0,0,.66-2.07,3.49,3.49,0,0,1,.69-2.06,6.26,6.26,0,0,1,2.12-1c.73-.32,1.43-1.1,1.11-1.83s-1.35-.75-2.12-.53a7.58,7.58,0,0,0-2.37,1.16" transform="translate(15.23 36.47)"/><path class="cls-4" d="M220.05,186.25a23.35,23.35,0,0,0-7.14.79,2.64,2.64,0,0,0-1.72.86,2.71,2.71,0,0,0-.32,1.26,5.27,5.27,0,0,0,.29,2.79,1.8,1.8,0,0,0,2.35.91,5.25,5.25,0,0,0,.66-.59c1.39-1.26,3.66-.84,5.25-1.84a3.43,3.43,0,0,0,1.22-4.23" transform="translate(15.23 36.47)"/><path class="cls-4" d="M205.91,194.68a7.78,7.78,0,0,0-3.85-1.21,19.06,19.06,0,0,1-5.18-1.69c-1.07-.54-2.32-1.19-3.41-.68a1.06,1.06,0,0,0-.64.73,1.22,1.22,0,0,0,.11.7,6.25,6.25,0,0,0,1.64,2l3.37,3.12c1.36,1.26,3,2.62,4.84,2.24a5.87,5.87,0,0,0,2.79-1.92,4.49,4.49,0,0,0,1.18-1.64,1.55,1.55,0,0,0-.53-1.81" transform="translate(15.23 36.47)"/><path class="cls-4" d="M190.82,210.1a13.16,13.16,0,0,1,.19,8.41c-.16.52-.32,1.19.12,1.52a.85.85,0,0,0,.44.17,2.39,2.39,0,0,0,2-.87,7.12,7.12,0,0,0,1.13-2c.44-1,.88-2.19.38-3.17s-1.7-1.32-2.39-2.15-.8-1.88-1.59-2.45" transform="translate(15.23 36.47)"/><path class="cls-4" d="M171.32,201.27a5.4,5.4,0,0,0-5.51,1.07,3,3,0,0,1-.75.6,5.74,5.74,0,0,1-.81.23,1.92,1.92,0,0,0-.76,3c.22.24.5.41.72.65a2.73,2.73,0,0,1,.52,2.16c-.08.67-.2,1.49.35,1.87a1.1,1.1,0,0,0,1.17,0,2.81,2.81,0,0,0,.81-.93,14.42,14.42,0,0,0,1.42-3.06,5.27,5.27,0,0,1,1.4-2.72,9.68,9.68,0,0,1,1.31-.71,1.72,1.72,0,0,0,.94-1.09c.09-.49-.32-1.07-.81-1" transform="translate(15.23 36.47)"/><path class="cls-4" d="M188.48,198.51c-.2.2-.55.06-.75-.14-.86-.87-.72-2.5-1.76-3.12a2.8,2.8,0,0,0-1-.3q-3.21-.49-6.45-.88c-.7-.08-1.64,0-1.83.66s.29,1.05.71,1.42a43.22,43.22,0,0,0,4.8,3.74,4.85,4.85,0,0,1,1.14.92,7.51,7.51,0,0,0,1,1.31,2,2,0,0,0,1.83.19,3.32,3.32,0,0,0,2.1-3.8" transform="translate(15.23 36.47)"/><path class="cls-4" d="M167.45,215.9c-.5.7-1.54.67-2.4.61s-1.93,0-2.27.84a1.61,1.61,0,0,0,0,1.06A2.86,2.86,0,0,0,164,220a2.57,2.57,0,0,1,1.05.77c.29.5,0,1.18.32,1.69s1.4.53,1.89,0a3.52,3.52,0,0,0,.66-2.07,3.52,3.52,0,0,1,.69-2.06,6,6,0,0,1,2.13-1c.72-.32,1.42-1.11,1.1-1.83s-1.35-.75-2.12-.53a7.58,7.58,0,0,0-2.37,1.16" transform="translate(15.23 36.47)"/><path class="cls-4" d="M177.77,208.29c-.54,0-1.08-.07-1.62,0a1.69,1.69,0,0,0-1.35.78.91.91,0,0,0,.51,1.3c.19,0,.4,0,.59,0,.55.07.87.66,1,1.2a3.35,3.35,0,0,0,.54,1.56,1.52,1.52,0,0,0,2,0,2.3,2.3,0,0,0,.69-2.06,2.68,2.68,0,0,0-2.85-2.37" transform="translate(15.23 36.47)"/><path class="cls-4" d="M185.58,179.51a.72.72,0,0,0-1.06.09,2.07,2.07,0,0,0-.38,1.14l-.24,2.07a1.1,1.1,0,0,0,0,.65.91.91,0,0,0,.55.38c1.56.55,3.27-.07,4.75-.81a.56.56,0,0,0,.27-.23c.13-.24-.13-.5-.37-.63a3.59,3.59,0,0,0-1.31-.38,1.73,1.73,0,0,1-1-.22,1.67,1.67,0,0,1-.42-1.14c-.06-.42-.25-.9-.66-1" transform="translate(15.23 36.47)"/><path class="cls-4" d="M177.93,179.1a7.92,7.92,0,0,0-3.63,1.75,18.72,18.72,0,0,1-4.93,2.33c-1.15.35-2.5.73-2.94,1.84a1.09,1.09,0,0,0,0,1,1.18,1.18,0,0,0,.57.43,6.12,6.12,0,0,0,2.56.35l4.6,0c1.86,0,4-.18,5.06-1.7a5.76,5.76,0,0,0,.71-3.31,4.35,4.35,0,0,0-.27-2,1.54,1.54,0,0,0-1.62-1" transform="translate(15.23 36.47)"/><path class="cls-4" d="M161.52,188a13.16,13.16,0,0,1,.19,8.41c-.16.52-.32,1.19.12,1.52a.85.85,0,0,0,.44.17,2.39,2.39,0,0,0,2-.87,7.12,7.12,0,0,0,1.13-2c.44-1,.88-2.19.38-3.17s-1.7-1.32-2.39-2.16-.8-1.87-1.59-2.44" transform="translate(15.23 36.47)"/><path class="cls-4" d="M181.12,218.43a1,1,0,0,0-.6-1.41,2.66,2.66,0,0,0-1.71.11,20.61,20.61,0,0,0-2.15.81c-.49.23-1.06.76-.75,1.2s.72.25,1.12.2a3.62,3.62,0,0,1,3.3,1.38,2,2,0,0,0,.68.7,1.58,1.58,0,0,0,1.29-.2,7.2,7.2,0,0,0,1.84-1.12,2.41,2.41,0,0,0,.82-1.92.78.78,0,0,0-.26-.56,1,1,0,0,0-.62-.17c-1,0-2-.06-3.05,0" transform="translate(15.23 36.47)"/><path class="cls-4" d="M112.14,271.78c1.15,1.21,2.89,1.63,4.52,2,.5.11,1.11.19,1.46-.19s.25-.86.34-1.3a2,2,0,0,1,2.32-1.5,3.25,3.25,0,0,0,1,.22c.74-.06,1.07-.95,1.14-1.69a2.62,2.62,0,0,0-.31-1.77,3.14,3.14,0,0,0-1.84-1l-2.71-.71a1.46,1.46,0,0,0-.92,0,1.38,1.38,0,0,0-.54.48,5.2,5.2,0,0,0-1.22,2.21,7.46,7.46,0,0,1-.23,1.49c-.2.46-.79.83-1.2.53-.18-.12-.28-.33-.47-.43a.77.77,0,0,0-.84.28,2.85,2.85,0,0,1-.65.69" transform="translate(15.23 36.47)"/><path class="cls-4" d="M116.33,255.77A1,1,0,0,0,115,256a2.79,2.79,0,0,0-.49,1.44,1.34,1.34,0,0,0,0,.66,1.56,1.56,0,0,0,.35.5,26.17,26.17,0,0,0,2.39,2.2,3,3,0,0,0,2.22.91c.86-.12,1.45-.89,2.06-1.51a7.75,7.75,0,0,1,2.37-1.64c.25-.11.54-.25.61-.51s-.19-.58-.44-.75a3.71,3.71,0,0,0-2.69-.57,10.71,10.71,0,0,1-2.33.52,4.45,4.45,0,0,1-2.84-1.81" transform="translate(15.23 36.47)"/><path class="cls-4" d="M129.1,280.87c-.41,1.12.16,2.33.57,3.45a13,13,0,0,1,.7,6c.25.18.55-.16.66-.45a11.61,11.61,0,0,0,.78-3.73,2.6,2.6,0,0,1,.45-1.7c.54-.58,1.5-.46,2.22-.82a3.52,3.52,0,0,0,1.41-2.42,3.56,3.56,0,0,0,0-2.47c-.52-1-1.86-1.29-3-1.35a1.61,1.61,0,0,0-1.36.38,4.19,4.19,0,0,0-.39.86c-.46.89-1.85,1.18-1.95,2.17" transform="translate(15.23 36.47)"/><path class="cls-4" d="M127.7,271a5.16,5.16,0,0,0,.71,2.42c.25.42.67.85,1.14.74a1.21,1.21,0,0,0,.73-.91c.27-.84.38-1.72.7-2.55a2.8,2.8,0,0,1,1.77-1.81,2.32,2.32,0,0,0,.91-.29c.43-.35.28-1.05,0-1.52a4.22,4.22,0,0,0-3.12-2,1.07,1.07,0,0,0-.59.06,1,1,0,0,0-.45.5,7.46,7.46,0,0,0-.28,2.84c-.06,1-.6,2.08-1.56,2.12" transform="translate(15.23 36.47)"/><path class="cls-4" d="M113.21,278.91a5.41,5.41,0,0,0-.37,5.6,3.15,3.15,0,0,1,.4.88,7.85,7.85,0,0,1,0,.84,1.91,1.91,0,0,0,2.68,1.49c.28-.16.52-.38.8-.53a2.71,2.71,0,0,1,2.23.05c.62.24,1.38.56,1.89.13a1.06,1.06,0,0,0,.25-1.14,2.6,2.6,0,0,0-.69-1,14.09,14.09,0,0,0-2.6-2.15,5.42,5.42,0,0,1-2.28-2.05,10.08,10.08,0,0,1-.35-1.44,1.7,1.7,0,0,0-.82-1.19.81.81,0,0,0-1.15.54" transform="translate(15.23 36.47)"/><path class="cls-4" d="M116.25,243.89a5.38,5.38,0,0,0-.37,5.6,2.92,2.92,0,0,1,.4.88,7.85,7.85,0,0,1,0,.84,1.9,1.9,0,0,0,2.68,1.48c.28-.15.52-.38.8-.53a2.79,2.79,0,0,1,2.23.05c.62.24,1.38.57,1.89.14a1.09,1.09,0,0,0,.25-1.15,2.76,2.76,0,0,0-.69-1,14.15,14.15,0,0,0-2.6-2.16,5.28,5.28,0,0,1-2.28-2,10.21,10.21,0,0,1-.35-1.45,1.73,1.73,0,0,0-.82-1.18c-.45-.21-1.12,0-1.16.53" transform="translate(15.23 36.47)"/><path class="cls-4" d="M136.31,223.53a2.46,2.46,0,0,1,2.27,1.45,5.35,5.35,0,0,1,.4,2.8,5.55,5.55,0,0,0,.26,3.09,4.65,4.65,0,0,0,2.55,1.77l1.45.57a.85.85,0,0,0,.64.08.81.81,0,0,0,.36-.39,4,4,0,0,0-.16-3.93c-.52-.82-1.35-1.47-1.6-2.4-.14-.52-.08-1.09-.22-1.61-.39-1.41-2-2-3.38-2.48l-1.5-.46a2,2,0,0,0-1.49-.07c-.46.23-.6,1-.12,1.21" transform="translate(15.23 36.47)"/><path class="cls-4" d="M144.31,218.56a5.53,5.53,0,0,1,.09,2.19,4.35,4.35,0,0,0,1.42,3.19,2,2,0,0,0,2.51.34,2.46,2.46,0,0,0,.39-2.18,5.46,5.46,0,0,0-.32-1.34,5.14,5.14,0,0,0-.64-1l-1.19-1.61a2.27,2.27,0,0,0-1.27-1c-.56-.11-1.22.46-1,1" transform="translate(15.23 36.47)"/><path class="cls-4" d="M117.92,226.59c.15.24-.08.54-.32.68-1,.62-2.6.07-3.47.92a2.78,2.78,0,0,0-.54.91c-.87,2-1.69,4-2.49,6-.26.67-.44,1.58.17,1.95s1.09,0,1.56-.33a44.44,44.44,0,0,0,4.83-3.7,5.17,5.17,0,0,1,1.18-.86,7.84,7.84,0,0,0,1.52-.63,2,2,0,0,0,.64-1.72,3.32,3.32,0,0,0-3.14-3" transform="translate(15.23 36.47)"/><path class="cls-4" d="M116.63,218.72l.29,1.53a2.88,2.88,0,0,0,.4,1.14,1,1,0,0,0,1.05.41,1.21,1.21,0,0,0,.62-.69,4,4,0,0,0-.59-4.12,1.67,1.67,0,0,0-1.11-.65,1.28,1.28,0,0,0-1.19,1.07,2.26,2.26,0,0,0,.45,1.63" transform="translate(15.23 36.47)"/><path class="cls-4" d="M124.3,220a4.3,4.3,0,0,0-1.06,3,2.85,2.85,0,0,0,1.8,2.49,3,3,0,0,1,1.11.44c.64.56.28,1.74.89,2.34a1.31,1.31,0,0,0,1.88-.41,3.64,3.64,0,0,0,.37-2.14c0-.85-.11-1.7-.2-2.54a5.18,5.18,0,0,0-.48-2,5.66,5.66,0,0,0-2.69-2.13,2.41,2.41,0,0,0-1.43-.38c-.5.09-.94.64-.7,1.09" transform="translate(15.23 36.47)"/><path class="cls-4" d="M129.42,251.34c.55.66.26,1.65,0,2.47s-.45,1.89.24,2.41a1.62,1.62,0,0,0,1,.27,2.89,2.89,0,0,0,1.86-.8c.31-.31.58-.71,1-.82s1.15.27,1.71.12a1.22,1.22,0,0,0,.47-1.83,3.58,3.58,0,0,0-1.84-1.17,3.45,3.45,0,0,1-1.81-1.19,5.93,5.93,0,0,1-.47-2.32c-.12-.78-.71-1.65-1.49-1.53s-1.07,1.12-1.05,1.91a7.39,7.39,0,0,0,.53,2.59" transform="translate(15.23 36.47)"/><path class="cls-4" d="M124.67,239.43c-.12.52-.34,1-.42,1.56a1.73,1.73,0,0,0,.41,1.51.92.92,0,0,0,1.39-.16c.09-.18.09-.39.17-.58a1.41,1.41,0,0,1,1.42-.65,3.48,3.48,0,0,0,1.64-.13,1.52,1.52,0,0,0,.56-2,2.34,2.34,0,0,0-1.82-1.19,2.69,2.69,0,0,0-3,2.16" transform="translate(15.23 36.47)"/><path class="cls-4" d="M133,230.21a2.32,2.32,0,0,0,0,2.48,4.63,4.63,0,0,0,.4.48l.09.09c-.11-.11,0,0,0,0s0,0,0,0,0,.09,0,0,0,0,0,0,0,.29,0,.13a2.7,2.7,0,0,0-.06.41,1.61,1.61,0,0,0,.05.69,1.25,1.25,0,0,0,2.4.16,3,3,0,0,0,.22-2.49,3.06,3.06,0,0,0-2-1.87.8.8,0,1,0-.42,1.54l.16,0c.13,0,0,0,0,0l.08,0,.15.08.08,0c.09.06,0,0,0,0s.23.21.28.26l.05.07s-.11-.16,0,0a1.63,1.63,0,0,0,.11.17l.08.16c0,.08,0-.05,0-.05s0,.1,0,.11,0,.13,0,.19a.29.29,0,0,1,0,.09c0,.11,0-.13,0,0s.05.33,0,.42,0-.14,0-.05a.29.29,0,0,1,0,.09,1,1,0,0,1-.07.25c0,.15.05-.08,0,.05a2,2,0,0,1-.11.2l-.05.08s.1-.11,0-.05l-.06.06c0-.07.26-.13.33-.13a.44.44,0,0,1,.23.06s.12.11.07,0,0,.07,0,.07S135,234,135,234s0,.07,0,.06a.41.41,0,0,0,0-.08c0-.09,0,.15,0,.06a.57.57,0,0,0,0-.13c0-.09,0,0,0,0s0-.07,0-.11l.06-.38a1.87,1.87,0,0,0,0-.58,1.92,1.92,0,0,0-.58-.95l-.06-.07c-.08-.07.06.1,0,0a.35.35,0,0,0,0-.08l0-.06c0,.08,0,0,0,0a.56.56,0,0,1,0-.12s0-.06,0-.08,0,.14,0,0a1.92,1.92,0,0,0,0-.24c0-.09,0,.06,0,.07a.43.43,0,0,0,0-.12l0-.08c.05-.17,0,0,0,0s.12-.19.12-.2a.8.8,0,0,0-.28-1.09.82.82,0,0,0-1.09.29Z" transform="translate(15.23 36.47)"/><path class="cls-4" d="M135.73,240a24,24,0,0,0-1,7.11,2.64,2.64,0,0,0,.4,1.88,2.61,2.61,0,0,0,1.13.62A5.07,5.07,0,0,0,139,250a1.78,1.78,0,0,0,1.48-2,5.32,5.32,0,0,0-.4-.79c-.87-1.66.12-3.75-.45-5.54a3.43,3.43,0,0,0-3.78-2.25" transform="translate(15.23 36.47)"/><path class="cls-4" d="M143.63,236.92a9.87,9.87,0,0,0-.15,3.16,1.23,1.23,0,0,1,0,.66c-.23.52-1.12.56-1.23,1.12s.53.81,1,.93c.72.18,1.59.32,2.1-.21a1.51,1.51,0,0,0,.36-.7,6.1,6.1,0,0,0-.26-3.13,3.34,3.34,0,0,0-.55-1.3,1.16,1.16,0,0,0-1.26-.42" transform="translate(15.23 36.47)"/><path class="cls-4" d="M134.59,259.18a.73.73,0,0,0-.18,1.05,2.09,2.09,0,0,0,1,.65l2,.76a1,1,0,0,0,.63.11.9.9,0,0,0,.51-.43c.93-1.37.77-3.18.42-4.8a.56.56,0,0,0-.15-.32c-.2-.18-.52,0-.7.21a3.23,3.23,0,0,0-.7,1.17,1.67,1.67,0,0,1-.47.89,1.61,1.61,0,0,1-1.21.12c-.41,0-.93,0-1.09.4" transform="translate(15.23 36.47)"/><path class="cls-4" d="M146.69,206.44c.19.45-.16.94-.28,1.42-.19.83.34,1.64.54,2.47s.08,1.57.26,2.33.79,1.55,1.57,1.48,1.32-1.12,1.55-2l.94-3.59a1.84,1.84,0,0,0-1.5-2.66,5.69,5.69,0,0,0-1.72-.46,1.94,1.94,0,0,0-1.6.63" transform="translate(15.23 36.47)"/><path class="cls-4" d="M158.22,216.59a1.33,1.33,0,0,0-1.59-.46,2.73,2.73,0,0,0-1.29,1.2,6.05,6.05,0,0,0,.34,6.63c.26.35.66.7,1.08.6s.63-.57.72-1c.44-2-.12-4.18.8-6" transform="translate(15.23 36.47)"/><path class="cls-4" d="M148.81,228.63c-.62.6-.43,1.63-.18,2.47l.58,2c.15.51.46,1.14,1,1.08s.66-.56.78-1l1.14-3.85a1.6,1.6,0,0,0,.08-.94c-.21-.7-1.17-.76-1.9-.69a2.07,2.07,0,0,0-1.64.68" transform="translate(15.23 36.47)"/><path class="cls-4" d="M147.56,253.57a1.29,1.29,0,0,0-1.63-.91,2.12,2.12,0,0,0-1.33,1.54,6.28,6.28,0,0,0,0,2.12l.14,1.49c.06.76.22,1.65.91,2s1.6-.18,2.09-.83a4.74,4.74,0,0,0,.36-5.1" transform="translate(15.23 36.47)"/><path class="cls-4" d="M150.94,246.58a5.56,5.56,0,0,1-2.05-.62,1.82,1.82,0,0,1-.91-1.81,2.71,2.71,0,0,1,.53-1c.55-.72,1.11-1.42,1.7-2.1s1.21-1.14,1.86-.8.58,1.29.4,2l-1,4.3" transform="translate(15.23 36.47)"/><path class="cls-4" d="M100.52,188.93a2.45,2.45,0,0,1,2.27,1.45,5.35,5.35,0,0,1,.4,2.8,5.55,5.55,0,0,0,.26,3.09A4.65,4.65,0,0,0,106,198l1.45.57a.91.91,0,0,0,.64.08.76.76,0,0,0,.36-.39,4,4,0,0,0-.16-3.93c-.52-.82-1.34-1.47-1.59-2.4-.15-.53-.09-1.09-.23-1.61-.38-1.41-2-2.05-3.37-2.48l-1.51-.46a2,2,0,0,0-1.49-.07c-.46.22-.59,1-.12,1.2" transform="translate(15.23 36.47)"/><path class="cls-4" d="M108.52,184a5.68,5.68,0,0,1,.1,2.18,4.32,4.32,0,0,0,1.41,3.2,2,2,0,0,0,2.51.34,2.43,2.43,0,0,0,.39-2.18,4.83,4.83,0,0,0-.32-1.35,5.88,5.88,0,0,0-.63-1l-1.19-1.61a2.38,2.38,0,0,0-1.28-1.05c-.56-.1-1.22.47-1,1" transform="translate(15.23 36.47)"/><path class="cls-4" d="M93.63,216.74c.56.66.26,1.65,0,2.47s-.44,1.89.24,2.41a1.62,1.62,0,0,0,1,.27,2.87,2.87,0,0,0,1.86-.8c.31-.31.59-.71,1-.82s1.15.27,1.71.12c.72-.19.88-1.22.47-1.84a3.59,3.59,0,0,0-1.83-1.16,3.53,3.53,0,0,1-1.82-1.19,6.11,6.11,0,0,1-.46-2.32c-.13-.78-.71-1.65-1.5-1.53s-1.07,1.12-1,1.91a7.39,7.39,0,0,0,.53,2.59" transform="translate(15.23 36.47)"/><path class="cls-4" d="M88.88,204.82c-.12.53-.34,1-.41,1.57a1.67,1.67,0,0,0,.41,1.5.91.91,0,0,0,1.39-.16c.08-.18.09-.38.16-.57a1.44,1.44,0,0,1,1.42-.66,3.35,3.35,0,0,0,1.64-.13,1.51,1.51,0,0,0,.56-2,2.34,2.34,0,0,0-1.82-1.19,2.67,2.67,0,0,0-3,2.16" transform="translate(15.23 36.47)"/><path class="cls-4" d="M97.24,195.61a2.26,2.26,0,0,0,0,2.47,3.72,3.72,0,0,0,.4.49l.08.09c-.1-.11,0,0,0,0s0,0,0,0,0,.09,0,0,0-.06,0,0,0,.3,0,.13l-.06.42a1.43,1.43,0,0,0,.06.68,1.35,1.35,0,0,0,1.17,1,1.39,1.39,0,0,0,1.22-.83,3,3,0,0,0,.22-2.49,3.06,3.06,0,0,0-2-1.87.79.79,0,1,0-.42,1.53l.17.06c.12,0,0,0,0,0l.08,0,.15.09.08.05c.1.06,0,0,0,0s.23.21.28.26l.06.07s-.11-.16,0,0a1.63,1.63,0,0,1,.11.17s.05.11.08.16,0-.05,0-.05,0,.1,0,.11,0,.13,0,.19a.29.29,0,0,0,0,.09c0,.11,0-.13,0,0s0,.33,0,.42v-.05s0,.06,0,.09,0,.17-.07.25,0-.09,0,0l-.11.19s0,.08-.06.08.11-.1,0,0-.06,0-.06.06.26-.13.33-.13a.54.54,0,0,1,.22,0s.13.12.07.05,0,.06,0,.06,0-.06,0-.06,0,.07,0,.06l0-.08c0-.09,0,.15,0,.05a.49.49,0,0,0,0-.12c0-.1,0,0,0,0s0-.07,0-.1,0-.25.05-.38a1.87,1.87,0,0,0,0-.58,1.93,1.93,0,0,0-.57-.95l-.07-.07c-.07-.07.07.1,0,0s0-.05,0-.08-.11-.16,0-.06,0,0,0,0l0-.11a.29.29,0,0,1,0-.09c0-.1,0,.14,0,0v-.24c0-.09,0,.06,0,.07s0-.11,0-.12,0-.06,0-.09h0a1.51,1.51,0,0,1,.12-.2.79.79,0,1,0-1.37-.8Z" transform="translate(15.23 36.47)"/><path class="cls-4" d="M100,205.39a23.64,23.64,0,0,0-1,7.11,2.62,2.62,0,0,0,.41,1.87,2.48,2.48,0,0,0,1.13.63,5.13,5.13,0,0,0,2.77.43,1.79,1.79,0,0,0,1.47-2.05,4.11,4.11,0,0,0-.4-.78c-.87-1.66.12-3.76-.45-5.54a3.41,3.41,0,0,0-3.78-2.25" transform="translate(15.23 36.47)"/><path class="cls-4" d="M107.84,202.32a9.59,9.59,0,0,0-.14,3.16,1.23,1.23,0,0,1,0,.66c-.23.52-1.12.56-1.23,1.12s.53.81,1,.93a2.18,2.18,0,0,0,2.1-.21,1.67,1.67,0,0,0,.36-.7,6.21,6.21,0,0,0-.27-3.13,3.34,3.34,0,0,0-.55-1.3,1.14,1.14,0,0,0-1.26-.42" transform="translate(15.23 36.47)"/><path class="cls-4" d="M98.81,224.58a.71.71,0,0,0-.18,1,2.11,2.11,0,0,0,1,.65l1.94.76a1.09,1.09,0,0,0,.64.11.93.93,0,0,0,.51-.43c.92-1.37.76-3.18.41-4.8a.52.52,0,0,0-.14-.32c-.21-.18-.53,0-.71.2a3.41,3.41,0,0,0-.7,1.17,1.76,1.76,0,0,1-.46.9,1.69,1.69,0,0,1-1.22.12c-.41-.05-.93,0-1.09.4" transform="translate(15.23 36.47)"/><path class="cls-4" d="M110.9,171.84c.19.45-.16.94-.27,1.42-.2.83.33,1.64.53,2.47s.09,1.57.26,2.33.79,1.54,1.58,1.48,1.31-1.12,1.54-2l.94-3.59a2.45,2.45,0,0,0,.07-1.51,2.49,2.49,0,0,0-1.56-1.16,5.83,5.83,0,0,0-1.72-.45,1.93,1.93,0,0,0-1.61.63" transform="translate(15.23 36.47)"/><path class="cls-4" d="M122.43,182a1.32,1.32,0,0,0-1.59-.46,2.68,2.68,0,0,0-1.29,1.2,6.09,6.09,0,0,0,.34,6.63c.26.35.66.7,1.09.6s.62-.57.71-1c.44-2-.12-4.18.8-6" transform="translate(15.23 36.47)"/><path class="cls-4" d="M113,194c-.63.6-.43,1.63-.19,2.47l.58,2c.15.52.47,1.15,1,1.09s.65-.56.78-1l1.13-3.85a1.69,1.69,0,0,0,.09-.94c-.22-.7-1.18-.77-1.91-.69a2.05,2.05,0,0,0-1.64.68" transform="translate(15.23 36.47)"/><path class="cls-4" d="M122,205.23a2.44,2.44,0,0,1,2.27,1.45,5.4,5.4,0,0,1,.4,2.79,5.46,5.46,0,0,0,.26,3.09,4.65,4.65,0,0,0,2.55,1.77l1.45.57a.64.64,0,0,0,1-.31,4,4,0,0,0-.17-3.93c-.51-.82-1.34-1.47-1.59-2.4-.14-.52-.08-1.09-.23-1.61-.38-1.41-2-2-3.37-2.48l-1.5-.46a2,2,0,0,0-1.49-.07c-.46.23-.6,1-.12,1.21" transform="translate(15.23 36.47)"/><path class="cls-4" d="M130,200.26a5.66,5.66,0,0,1,.09,2.18,4.35,4.35,0,0,0,1.42,3.19,2,2,0,0,0,2.5.35,2.46,2.46,0,0,0,.4-2.19,4,4,0,0,0-1-2.36l-1.19-1.6a2.23,2.23,0,0,0-1.28-1.05c-.55-.11-1.21.46-1,1" transform="translate(15.23 36.47)"/><path class="cls-4" d="M132.39,188.13c.19.46-.16.94-.28,1.43-.19.83.34,1.63.54,2.46s.08,1.57.26,2.34.79,1.54,1.57,1.47,1.32-1.12,1.55-2l.94-3.58a1.85,1.85,0,0,0-1.5-2.67,5.4,5.4,0,0,0-1.72-.45,1.9,1.9,0,0,0-1.6.62" transform="translate(15.23 36.47)"/><path class="cls-4" d="M143.92,198.28a1.33,1.33,0,0,0-1.59-.46A2.7,2.7,0,0,0,141,199a6.06,6.06,0,0,0,.33,6.62c.27.35.66.7,1.09.6s.63-.57.72-1c.44-2-.12-4.18.8-6" transform="translate(15.23 36.47)"/><path class="cls-4" d="M76.72,244.8c.2.46-.15.94-.27,1.43-.19.83.34,1.63.54,2.46s.08,1.57.26,2.34.79,1.54,1.57,1.47,1.32-1.12,1.54-2l1-3.59a1.85,1.85,0,0,0-1.5-2.67,5.75,5.75,0,0,0-1.72-.45,1.93,1.93,0,0,0-1.6.62" transform="translate(15.23 36.47)"/><path class="cls-4" d="M77.07,233.41a1.32,1.32,0,0,0-1.59-.46,2.7,2.7,0,0,0-1.29,1.21,6.07,6.07,0,0,0,.34,6.62c.27.35.66.71,1.09.61s.62-.57.71-1c.44-2-.12-4.18.8-6" transform="translate(15.23 36.47)"/><path class="cls-4" d="M134.51,210.32c-.62.6-.43,1.64-.18,2.47l.58,2c.15.51.46,1.14,1,1.08s.66-.56.78-1l1.14-3.85a1.57,1.57,0,0,0,.08-.93c-.22-.71-1.17-.77-1.9-.7a2.1,2.1,0,0,0-1.64.68" transform="translate(15.23 36.47)"/><path class="cls-4" d="M111.78,219a1.3,1.3,0,0,0-1.64-.91,2.11,2.11,0,0,0-1.33,1.54,6.55,6.55,0,0,0,0,2.12l.14,1.49c.07.76.22,1.65.91,2s1.6-.19,2.1-.83a4.74,4.74,0,0,0,.35-5.1" transform="translate(15.23 36.47)"/><path class="cls-4" d="M115.15,212a5.26,5.26,0,0,1-2-.61,1.82,1.82,0,0,1-.91-1.81,2.57,2.57,0,0,1,.53-1c.54-.72,1.11-1.42,1.7-2.1s1.2-1.14,1.85-.81.58,1.3.41,2l-1,4.3" transform="translate(15.23 36.47)"/><path class="cls-4" d="M144.85,272.24l-3.94-1a1.36,1.36,0,0,0-.66-.06,1.22,1.22,0,0,0-.63.47,6.88,6.88,0,0,0-.83,1.24.69.69,0,0,0-.1.5.66.66,0,0,0,.29.33,11.23,11.23,0,0,0,3.35,1.38,2.66,2.66,0,0,0,2.21,0,2.06,2.06,0,0,0,.28-2.66" transform="translate(15.23 36.47)"/><path class="cls-4" d="M96.48,231.88c-.27,1.33.33,2.66.77,4a18.75,18.75,0,0,1,1,5.36c0,1.2.07,2.6,1,3.31a1.1,1.1,0,0,0,.95.22,1.23,1.23,0,0,0,.57-.44,6.13,6.13,0,0,0,1-2.4l1.13-4.45c.45-1.8.84-3.92-.37-5.33a5.85,5.85,0,0,0-3-1.53,4.56,4.56,0,0,0-2-.24,1.54,1.54,0,0,0-1.33,1.33" transform="translate(15.23 36.47)"/><path class="cls-4" d="M79,227c.56.66.26,1.65,0,2.47s-.44,1.89.24,2.41a1.62,1.62,0,0,0,1,.27,2.87,2.87,0,0,0,1.86-.8c.32-.31.59-.71,1-.82s1.16.27,1.71.12c.72-.19.88-1.22.47-1.83a3.51,3.51,0,0,0-1.83-1.17,3.47,3.47,0,0,1-1.82-1.19,6.11,6.11,0,0,1-.46-2.32c-.13-.78-.71-1.65-1.5-1.53s-1.07,1.12-1.05,1.91a7.39,7.39,0,0,0,.53,2.59" transform="translate(15.23 36.47)"/><path class="cls-4" d="M85.28,215.69a23.63,23.63,0,0,0-1,7.11,1.93,1.93,0,0,0,1.53,2.5,5,5,0,0,0,2.77.43,1.8,1.8,0,0,0,1.48-2,4.55,4.55,0,0,0-.41-.79c-.86-1.66.12-3.75-.45-5.54a3.42,3.42,0,0,0-3.78-2.25" transform="translate(15.23 36.47)"/><path class="cls-4" d="M89.85,231.51c-1.1.79-1.59,2.17-2.15,3.41a18.54,18.54,0,0,1-2.94,4.58c-.8.9-1.74,1.94-1.52,3.13a1.08,1.08,0,0,0,.54.81,1.22,1.22,0,0,0,.71.06,6.21,6.21,0,0,0,2.36-1.06L90.73,240c1.56-1,3.3-2.28,3.39-4.13A5.85,5.85,0,0,0,93,232.66a4.52,4.52,0,0,0-1.29-1.55,1.54,1.54,0,0,0-1.88,0" transform="translate(15.23 36.47)"/><path class="cls-4" d="M100.94,250a13.18,13.18,0,0,1,8.19,2c.46.29,1.07.61,1.5.27a.89.89,0,0,0,.27-.39,2.42,2.42,0,0,0-.32-2.17,7,7,0,0,0-1.62-1.59c-.87-.69-1.9-1.41-3-1.17s-1.71,1.31-2.69,1.76-2,.3-2.77.92" transform="translate(15.23 36.47)"/><path class="cls-4" d="M87.47,266.63a5.4,5.4,0,0,0-.37,5.61,3.15,3.15,0,0,1,.39.88,7.79,7.79,0,0,1,0,.84,1.91,1.91,0,0,0,2.68,1.48c.28-.15.52-.38.81-.53a2.73,2.73,0,0,1,2.22,0c.63.24,1.39.57,1.89.13a1.05,1.05,0,0,0,.25-1.14,2.68,2.68,0,0,0-.69-1,14.16,14.16,0,0,0-2.6-2.15,5.31,5.31,0,0,1-2.27-2,10.24,10.24,0,0,1-.36-1.45,1.72,1.72,0,0,0-.82-1.19.81.81,0,0,0-1.15.54" transform="translate(15.23 36.47)"/><path class="cls-4" d="M89.14,249.34c.14.24-.08.54-.33.68-1,.61-2.6.06-3.46.92a2.64,2.64,0,0,0-.55.91q-1.29,3-2.48,6c-.26.66-.44,1.58.17,1.95s1.09,0,1.55-.33a43.6,43.6,0,0,0,4.84-3.7,5,5,0,0,1,1.17-.87,7.05,7.05,0,0,0,1.52-.63,2,2,0,0,0,.65-1.72,3.31,3.31,0,0,0-3.14-3" transform="translate(15.23 36.47)"/><path class="cls-4" d="M100.63,274.09c.56.66.26,1.65,0,2.47s-.44,1.88.24,2.41a1.62,1.62,0,0,0,1,.27,2.83,2.83,0,0,0,1.86-.81c.32-.3.59-.7,1-.82s1.16.28,1.71.13c.72-.19.88-1.22.47-1.84a3.59,3.59,0,0,0-1.83-1.16,3.53,3.53,0,0,1-1.82-1.19,6.15,6.15,0,0,1-.46-2.32c-.13-.78-.71-1.65-1.5-1.53s-1.07,1.12-1,1.91a7.39,7.39,0,0,0,.53,2.59" transform="translate(15.23 36.47)"/><path class="cls-4" d="M95.88,262.17c-.12.53-.34,1-.41,1.57a1.67,1.67,0,0,0,.41,1.5.91.91,0,0,0,1.39-.16c.08-.18.09-.39.16-.57a1.44,1.44,0,0,1,1.42-.66,3.34,3.34,0,0,0,1.64-.13,1.51,1.51,0,0,0,.56-2,2.31,2.31,0,0,0-1.82-1.19,2.67,2.67,0,0,0-3,2.16" transform="translate(15.23 36.47)"/><path class="cls-4" d="M70,247.32a.74.74,0,0,0-.18,1.06,2.11,2.11,0,0,0,1,.65l2,.76a1.07,1.07,0,0,0,.63.11.93.93,0,0,0,.51-.43c.92-1.37.76-3.18.42-4.8a.6.6,0,0,0-.15-.32c-.2-.18-.52,0-.7.2a3.41,3.41,0,0,0-.7,1.17,1.86,1.86,0,0,1-.47.9,1.66,1.66,0,0,1-1.21.11c-.42,0-.93,0-1.09.4" transform="translate(15.23 36.47)"/><path class="cls-4" d="M67.69,254.62a7.82,7.82,0,0,0,.78,4,18.75,18.75,0,0,1,1,5.35c0,1.21.07,2.61,1,3.32a1.1,1.1,0,0,0,.95.22A1.2,1.2,0,0,0,72,267a6.13,6.13,0,0,0,1-2.4l1.13-4.46c.46-1.79.84-3.91-.36-5.32a5.93,5.93,0,0,0-3-1.53,4.48,4.48,0,0,0-2-.24,1.55,1.55,0,0,0-1.33,1.32" transform="translate(15.23 36.47)"/><path class="cls-4" d="M72.16,272.75a13.22,13.22,0,0,1,8.18,2c.47.29,1.08.6,1.51.27a1,1,0,0,0,.27-.39,2.39,2.39,0,0,0-.33-2.17,6.8,6.8,0,0,0-1.62-1.59c-.86-.69-1.89-1.41-3-1.17s-1.71,1.3-2.69,1.76-2,.3-2.77.92" transform="translate(15.23 36.47)"/><path class="cls-4" d="M106.54,261.5a1,1,0,0,0-1.51.22,2.72,2.72,0,0,0-.33,1.69,17.62,17.62,0,0,0,.25,2.29c.09.53.45,1.21,1,1s.43-.64.48-1a3.61,3.61,0,0,1,2.17-2.84,2,2,0,0,0,.85-.48,1.58,1.58,0,0,0,.13-1.3,6.64,6.64,0,0,0-.62-2.06,2.37,2.37,0,0,0-1.65-1.29.86.86,0,0,0-.61.11,1,1,0,0,0-.31.56c-.31,1-.58,1.95-.8,2.95" transform="translate(15.23 36.47)"/><path class="cls-4" d="M16.44,245.27c.12,1.66,1.2,3.08,2.24,4.39.32.41.74.86,1.25.78s.74-.5,1.08-.8a2,2,0,0,1,2.75.31,3.4,3.4,0,0,0,.61.79c.61.42,1.43-.06,1.95-.59a2.64,2.64,0,0,0,.89-1.57,3.11,3.11,0,0,0-.81-1.93l-1.65-2.27a1.46,1.46,0,0,0-.69-.61,1.36,1.36,0,0,0-.72,0,5.18,5.18,0,0,0-2.34.93,7.1,7.1,0,0,1-1.12,1c-.44.24-1.13.15-1.27-.34a3.42,3.42,0,0,0-.09-.63.74.74,0,0,0-.82-.31,3.42,3.42,0,0,1-.94.12" transform="translate(15.23 36.47)"/><path class="cls-4" d="M29.79,235.51a1,1,0,0,0-1.2-.67,2.81,2.81,0,0,0-1.29.81,1,1,0,0,0-.46,1.12A23.33,23.33,0,0,0,27.3,240a3.06,3.06,0,0,0,1.14,2.1,4.08,4.08,0,0,0,2.55.14,7.78,7.78,0,0,1,2.88.22.91.91,0,0,0,.79,0,.78.78,0,0,0,.13-.86,3.65,3.65,0,0,0-1.72-2.13,11.21,11.21,0,0,1-2.13-1.08,4.39,4.39,0,0,1-1.06-3.19" transform="translate(15.23 36.47)"/><path class="cls-4" d="M23.83,263c-1,.61-1.35,1.91-1.74,3a12.84,12.84,0,0,1-3.23,5.06c.09.3.53.22.8.07a12.09,12.09,0,0,0,3-2.4,2.56,2.56,0,0,1,1.42-1c.79-.1,1.45.6,2.24.77a3.54,3.54,0,0,0,2.62-1,3.56,3.56,0,0,0,1.59-1.89c.25-1.13-.63-2.18-1.49-3a1.61,1.61,0,0,0-1.29-.57,4.2,4.2,0,0,0-.85.42c-.91.4-2.17-.26-2.87.45" transform="translate(15.23 36.47)"/><path class="cls-4" d="M29,254.5a5.22,5.22,0,0,0-1,2.32c-.07.48,0,1.08.43,1.3a1.22,1.22,0,0,0,1.13-.24c.74-.48,1.38-1.11,2.15-1.54a2.86,2.86,0,0,1,2.53-.29,2,2,0,0,0,.88.35c.55,0,.88-.63,1-1.18a4.18,4.18,0,0,0-1.14-3.53,1.15,1.15,0,0,0-.49-.33,1,1,0,0,0-.67.11c-.87.4-1.36,1.32-2,2s-1.77,1.24-2.54.66" transform="translate(15.23 36.47)"/><path class="cls-4" d="M12.76,251.47a5.4,5.4,0,0,0-3.83,4.11,2.91,2.91,0,0,1-.25.93,5.52,5.52,0,0,1-.51.66A1.91,1.91,0,0,0,9.3,260c.32.06.65,0,1,.1a2.75,2.75,0,0,1,1.7,1.44c.33.58.71,1.32,1.38,1.3a1.1,1.1,0,0,0,.92-.73,2.64,2.64,0,0,0,.1-1.22,14,14,0,0,0-.65-3.32,5.25,5.25,0,0,1-.47-3,9.11,9.11,0,0,1,.64-1.34,1.7,1.7,0,0,0,.11-1.44.81.81,0,0,0-1.23-.31" transform="translate(15.23 36.47)"/><path class="cls-4" d="M37.25,226.25a5.4,5.4,0,0,0-3.83,4.11,2.91,2.91,0,0,1-.25.93,5.52,5.52,0,0,1-.51.66,1.91,1.91,0,0,0,1.14,2.85c.31.06.64,0,1,.1a2.73,2.73,0,0,1,1.7,1.44c.33.58.71,1.32,1.38,1.3a1.09,1.09,0,0,0,.92-.73,2.78,2.78,0,0,0,.11-1.22,14.48,14.48,0,0,0-.66-3.32,5.25,5.25,0,0,1-.47-3,10.25,10.25,0,0,1,.64-1.34,1.7,1.7,0,0,0,.11-1.44.81.81,0,0,0-1.23-.31" transform="translate(15.23 36.47)"/><path class="cls-4" d="M65.66,223.16a2.46,2.46,0,0,1,.84,2.56A5.47,5.47,0,0,1,65,228.14a5.51,5.51,0,0,0-1.75,2.55,4.64,4.64,0,0,0,.86,3l.76,1.36a.88.88,0,0,0,.45.46.69.69,0,0,0,.52-.08,4,4,0,0,0,2.36-3.14,10.07,10.07,0,0,1,.28-2.87c.22-.49.62-.89.85-1.39.59-1.33-.25-2.83-1.05-4.05l-.87-1.31a2.05,2.05,0,0,0-1.12-1c-.49-.11-1.1.42-.85.86" transform="translate(15.23 36.47)"/><path class="cls-4" d="M75,224.36a5.51,5.51,0,0,1-1.31,1.75,4.36,4.36,0,0,0-.92,3.37c.14.92.8,1.91,1.73,1.85.77-.05,1.29-.78,1.68-1.44a5.07,5.07,0,0,0,.6-1.24,5.31,5.31,0,0,0,.15-1.19l.1-2a2.36,2.36,0,0,0-.33-1.62c-.37-.43-1.24-.41-1.36.15" transform="translate(15.23 36.47)"/><path class="cls-4" d="M49.48,213.91c0,.27-.41.36-.69.32-1.2-.19-2-1.59-3.26-1.48a2.8,2.8,0,0,0-1,.36q-2.88,1.5-5.72,3.09c-.62.35-1.34,1-1.1,1.61s.85.68,1.41.73a42.7,42.7,0,0,0,6.09.19,5.12,5.12,0,0,1,1.46.07,7.47,7.47,0,0,0,1.57.48,2,2,0,0,0,1.59-.93,3.32,3.32,0,0,0-.54-4.3" transform="translate(15.23 36.47)"/><path class="cls-4" d="M53.45,207l-.74,1.36a2.8,2.8,0,0,0-.41,1.14,1,1,0,0,0,.55,1,1.21,1.21,0,0,0,.92-.15,4,4,0,0,0,2.14-3.56,1.59,1.59,0,0,0-.45-1.21,1.27,1.27,0,0,0-1.59.08,2.2,2.2,0,0,0-.68,1.54" transform="translate(15.23 36.47)"/><path class="cls-4" d="M58.56,212.86a4.3,4.3,0,0,0-2.71,1.65,2.84,2.84,0,0,0-.18,3.06,3.07,3.07,0,0,1,.58,1c.14.85-.89,1.53-.79,2.38a1.3,1.3,0,0,0,1.72.87,3.54,3.54,0,0,0,1.64-1.43c.5-.68,1-1.38,1.45-2.09a5.2,5.2,0,0,0,.86-1.81,5.65,5.65,0,0,0-.74-3.35,2.37,2.37,0,0,0-.87-1.2c-.44-.25-1.13-.09-1.23.4" transform="translate(15.23 36.47)"/><path class="cls-4" d="M42.74,240.35c0,.86-.84,1.44-1.58,1.9s-1.53,1.18-1.33,2a1.58,1.58,0,0,0,.63.86,2.77,2.77,0,0,0,1.94.55,2.53,2.53,0,0,1,1.31,0c.52.24.72.94,1.24,1.17.68.31,1.45-.39,1.53-1.12a3.62,3.62,0,0,0-.69-2.07,3.41,3.41,0,0,1-.65-2.07,6.06,6.06,0,0,1,1.1-2.08c.4-.69.5-1.73-.19-2.13s-1.53.19-2,.81a7.72,7.72,0,0,0-1.23,2.34" transform="translate(15.23 36.47)"/><path class="cls-4" d="M46.59,228.11c-.42.34-.91.59-1.31,1a1.68,1.68,0,0,0-.63,1.42.91.91,0,0,0,1.18.75c.18-.08.31-.24.49-.33a1.4,1.4,0,0,1,1.51.38,3.45,3.45,0,0,0,1.35.94,1.52,1.52,0,0,0,1.68-1.17A2.31,2.31,0,0,0,50.2,229a2.69,2.69,0,0,0-3.7-.24" transform="translate(15.23 36.47)"/><path class="cls-4" d="M59,226.23a2.33,2.33,0,0,0-1.65,2,4.69,4.69,0,0,0,0,.53.33.33,0,0,1,0,.17s.06-.16,0,0c.08-.18,0-.07,0,0a.25.25,0,0,1,0,.07l0-.06s-.14.15-.17.18l-.19.17a2,2,0,0,0-.38.48,1.49,1.49,0,0,0,0,1.39,1.22,1.22,0,0,0,1.48.47,3,3,0,0,0,1.61-4.52.79.79,0,1,0-1.37.8s.23.3.21.36-.06-.18,0,0l0,.09a2,2,0,0,1,0,.24c0,.2,0-.09,0,.05s0,.15,0,.22a.49.49,0,0,0,0,.12c0,.09,0-.06,0-.06s0,.21-.05.23-.08.19-.07.23.06-.14,0-.06a.25.25,0,0,1,0,.07,1.18,1.18,0,0,1-.11.19l-.05.07c-.06.09.13-.14,0,0l-.13.14a.64.64,0,0,0-.15.13s.13-.09.05,0l-.09.06-.19.11-.08,0c0-.05.14-.05,0,0l-.19.06-.09,0a.42.42,0,0,1,.32.06l.09.07.07.09.05.12s0-.08,0-.08a.66.66,0,0,0,0,.11s0-.14,0,0,0,0,0,0a.47.47,0,0,0,0-.09s-.07.17,0,.09.08-.1,0,0,0,0,0,0a7.07,7.07,0,0,0,.65-.69,1.76,1.76,0,0,0,.25-1.17v-.25s0-.12,0,0,0,0,0-.05l0-.1c0-.12,0,0,0,0s.08-.15.1-.19l.06-.09s-.1.12,0,0l.08-.08s.14-.1,0,0l.13-.07.07,0c-.1,0-.12.06-.07,0l.08,0a.79.79,0,1,0-.42-1.53Z" transform="translate(15.23 36.47)"/><path class="cls-4" d="M54.81,235.55a23.46,23.46,0,0,0-5.3,4.85,2.62,2.62,0,0,0-.88,1.7,2.75,2.75,0,0,0,.48,1.21A5.26,5.26,0,0,0,51,245.39a1.8,1.8,0,0,0,2.44-.65,5.17,5.17,0,0,0,.18-.87C54,242,56.08,241,56.77,239.3a3.44,3.44,0,0,0-1.51-4.14" transform="translate(15.23 36.47)"/><path class="cls-4" d="M62.87,238.16a9.64,9.64,0,0,0-2.11,2.35,1.26,1.26,0,0,1-.44.5c-.51.25-1.23-.28-1.67.08s-.1,1,.21,1.37c.44.6,1,1.25,1.76,1.17a1.51,1.51,0,0,0,.72-.32,6.1,6.1,0,0,0,1.77-2.59,3.29,3.29,0,0,0,.4-1.36,1.16,1.16,0,0,0-.71-1.12" transform="translate(15.23 36.47)"/><path class="cls-4" d="M41.8,249.7c-.39-.11-.78.29-.81.7a2.13,2.13,0,0,0,.38,1.14l1,1.82a1.19,1.19,0,0,0,.42.49,1,1,0,0,0,.67,0c1.58-.47,2.6-2,3.36-3.45a.62.62,0,0,0,.09-.34c0-.27-.41-.33-.68-.29a3.29,3.29,0,0,0-1.28.46,1.72,1.72,0,0,1-.93.4c-.41,0-.72-.37-1-.67s-.73-.58-1.1-.38" transform="translate(15.23 36.47)"/><path class="cls-4" d="M84.51,216.47c-.14.47-.72.63-1.12.93-.67.52-.77,1.48-1.14,2.25s-.93,1.27-1.27,2a1.7,1.7,0,0,0,.28,2.14c.74.51,1.73,0,2.45-.56l3-2.19a2.4,2.4,0,0,0,1-1.13,2.47,2.47,0,0,0-.48-1.88,5.55,5.55,0,0,0-1-1.44,1.92,1.92,0,0,0-1.63-.53" transform="translate(15.23 36.47)"/><path class="cls-4" d="M87,231.62a1.34,1.34,0,0,0-.94-1.36,2.77,2.77,0,0,0-1.77.12,6.06,6.06,0,0,0-3.92,5.35c0,.44.06,1,.46,1.15a1.17,1.17,0,0,0,1.18-.31c1.59-1.26,2.55-3.32,4.4-4.14" transform="translate(15.23 36.47)"/><path class="cls-4" d="M72.13,235c-.87.07-1.37,1-1.71,1.8l-.82,1.92c-.2.49-.36,1.18.09,1.47s.86,0,1.22-.27l3.32-2.27a1.5,1.5,0,0,0,.65-.67c.28-.68-.42-1.33-1-1.74a2.09,2.09,0,0,0-1.7-.51" transform="translate(15.23 36.47)"/><path class="cls-4" d="M55.39,253.55a1.28,1.28,0,0,0-.69-1.74,2.09,2.09,0,0,0-2,.35,6.3,6.3,0,0,0-1.38,1.61L50.49,255c-.43.63-.87,1.42-.55,2.11a1.85,1.85,0,0,0,2.15.68,4.73,4.73,0,0,0,3.5-3.72" transform="translate(15.23 36.47)"/><path class="cls-4" d="M62.43,250.26a5.12,5.12,0,0,1-1.19-1.77,1.82,1.82,0,0,1,.43-2,2.51,2.51,0,0,1,1-.41c.87-.22,1.75-.4,2.64-.56.72-.12,1.66-.12,2,.55s-.37,1.37-1,1.82l-3.52,2.68" transform="translate(15.23 36.47)"/><path class="cls-4" d="M59.8,173.73a2.45,2.45,0,0,1,.84,2.55,5.41,5.41,0,0,1-1.46,2.42,5.59,5.59,0,0,0-1.75,2.56,4.66,4.66,0,0,0,.86,3l.76,1.35c.11.2.23.41.45.47A.79.79,0,0,0,60,186a4,4,0,0,0,2.36-3.15,10,10,0,0,1,.28-2.86c.22-.5.62-.9.84-1.39.6-1.34-.24-2.84-1-4.05l-.87-1.32a2,2,0,0,0-1.11-1c-.5-.11-1.1.41-.85.86" transform="translate(15.23 36.47)"/><path class="cls-4" d="M69.14,174.93a5.62,5.62,0,0,1-1.31,1.75,4.35,4.35,0,0,0-.92,3.37c.14.92.8,1.91,1.72,1.85s1.29-.78,1.69-1.45a4.74,4.74,0,0,0,.6-1.24,5.15,5.15,0,0,0,.15-1.18l.09-2a2.29,2.29,0,0,0-.32-1.62c-.37-.44-1.24-.41-1.36.14" transform="translate(15.23 36.47)"/><path class="cls-4" d="M36.88,190.91c0,.87-.84,1.45-1.58,1.91s-1.53,1.18-1.33,2a1.62,1.62,0,0,0,.62.86,2.91,2.91,0,0,0,1.95.55,2.6,2.6,0,0,1,1.3,0c.53.24.73.94,1.25,1.18.68.3,1.45-.39,1.53-1.12a3.62,3.62,0,0,0-.69-2.07,3.47,3.47,0,0,1-.66-2.07,5.91,5.91,0,0,1,1.11-2.08c.4-.69.49-1.74-.19-2.14s-1.53.19-2,.82a7.5,7.5,0,0,0-1.23,2.34" transform="translate(15.23 36.47)"/><path class="cls-4" d="M40.73,178.68c-.43.33-.91.59-1.31.95a1.7,1.7,0,0,0-.63,1.43.91.91,0,0,0,1.17.75c.18-.08.32-.24.5-.34a1.43,1.43,0,0,1,1.51.39,3.45,3.45,0,0,0,1.35.94A1.53,1.53,0,0,0,45,181.63a2.33,2.33,0,0,0-.66-2.08,2.69,2.69,0,0,0-3.7-.23" transform="translate(15.23 36.47)"/><path class="cls-4" d="M53.1,176.8a2.31,2.31,0,0,0-1.66,2c0,.18,0,.36,0,.54a.49.49,0,0,1,0,.17s.06-.16,0,0c.08-.18,0-.08,0,0a.21.21,0,0,1,0,.06c0,.05,0,0,0,0s-.14.15-.17.17l-.19.17a1.66,1.66,0,0,0-.38.49,1.49,1.49,0,0,0,0,1.39,1.24,1.24,0,0,0,1.49.47A3,3,0,0,0,54,180.58a3,3,0,0,0-.22-3,.81.81,0,0,0-1.09-.28.79.79,0,0,0-.28,1.08c0,.06.23.3.21.37s-.07-.18,0,0l0,.09a.86.86,0,0,1,.06.23c0,.2,0-.08,0,.06a1.47,1.47,0,0,1,0,.21v.12c0,.1,0,0,0-.06s0,.22,0,.24a2.09,2.09,0,0,0-.08.23l0-.06,0,.07a1.18,1.18,0,0,1-.11.19l0,.07c-.06.09.12-.14,0,0l-.13.14s-.14.11-.15.13l.05,0-.09.06-.19.11s-.07,0-.08,0,.14,0,0,0l-.19.06-.1,0a.39.39,0,0,1,.33.06s.14.12.09.07l.07.08,0,.12s0-.07,0-.07,0,.19,0,.11,0-.14,0,0,0,0,0,0a.26.26,0,0,0,0-.08s-.07.17,0,.09.08-.11,0,0,0,0,0,0a7,7,0,0,0,.65-.68,1.78,1.78,0,0,0,.25-1.17,2.26,2.26,0,0,0,0-.26s0-.11,0,0,0,0,0,0a.45.45,0,0,1,0-.11c0-.11,0,0,0,0s.08-.15.11-.19,0-.08.06-.09-.1.11,0,0l.08-.08s.14-.11,0,0l.12-.07a.3.3,0,0,0,.08,0l-.07,0,.08,0a.79.79,0,0,0-.42-1.53Z" transform="translate(15.23 36.47)"/><path class="cls-4" d="M49,186.11a23.93,23.93,0,0,0-5.3,4.85,2.65,2.65,0,0,0-.88,1.71,2.56,2.56,0,0,0,.48,1.2A5.22,5.22,0,0,0,45.13,196a1.8,1.8,0,0,0,2.44-.66,4.86,4.86,0,0,0,.18-.86c.38-1.83,2.46-2.84,3.16-4.58a3.43,3.43,0,0,0-1.51-4.13" transform="translate(15.23 36.47)"/><path class="cls-4" d="M57,188.72a9.83,9.83,0,0,0-2.1,2.36,1.25,1.25,0,0,1-.45.49c-.51.26-1.22-.27-1.66.09s-.1,1,.21,1.37c.44.59,1,1.25,1.76,1.16a1.6,1.6,0,0,0,.72-.31,6.19,6.19,0,0,0,1.77-2.59,3.32,3.32,0,0,0,.39-1.36,1.14,1.14,0,0,0-.71-1.12" transform="translate(15.23 36.47)"/><path class="cls-4" d="M35.94,200.26c-.39-.11-.78.3-.81.7a2.13,2.13,0,0,0,.38,1.15l1,1.82a1,1,0,0,0,.42.48.91.91,0,0,0,.67,0c1.58-.48,2.6-2,3.36-3.45a.63.63,0,0,0,.09-.35c0-.27-.41-.32-.68-.29a3.47,3.47,0,0,0-1.28.47,1.79,1.79,0,0,1-.93.4c-.42,0-.72-.38-1-.68s-.73-.57-1.1-.38" transform="translate(15.23 36.47)"/><path class="cls-4" d="M78.64,167c-.13.48-.72.64-1.11.94-.67.52-.77,1.48-1.14,2.25s-.93,1.27-1.28,2a1.72,1.72,0,0,0,.29,2.14c.74.5,1.73,0,2.45-.57l3-2.18a2.4,2.4,0,0,0,1-1.13,2.46,2.46,0,0,0-.48-1.88,5.79,5.79,0,0,0-1-1.44,1.9,1.9,0,0,0-1.64-.53" transform="translate(15.23 36.47)"/><path class="cls-4" d="M81.16,182.19a1.32,1.32,0,0,0-.94-1.36,2.68,2.68,0,0,0-1.76.12,6,6,0,0,0-3.92,5.34c0,.44.06,1,.46,1.16a1.2,1.2,0,0,0,1.18-.31c1.59-1.26,2.54-3.32,4.4-4.14" transform="translate(15.23 36.47)"/><path class="cls-4" d="M66.27,185.58c-.87.07-1.37,1-1.71,1.79l-.82,1.93c-.21.49-.36,1.18.09,1.46s.86,0,1.22-.27l3.32-2.26a1.61,1.61,0,0,0,.65-.67c.28-.68-.42-1.34-1-1.74a2.09,2.09,0,0,0-1.7-.51" transform="translate(15.23 36.47)"/><path class="cls-4" d="M66.15,199.93a2.46,2.46,0,0,1,.84,2.56,5.47,5.47,0,0,1-1.46,2.42,5.49,5.49,0,0,0-1.75,2.56,4.61,4.61,0,0,0,.86,3l.76,1.36a.9.9,0,0,0,.45.47.79.79,0,0,0,.52-.08,4,4,0,0,0,2.36-3.15,10.11,10.11,0,0,1,.28-2.87c.22-.49.62-.89.84-1.39.6-1.33-.24-2.83-1-4l-.88-1.31a2,2,0,0,0-1.11-1c-.5-.11-1.1.42-.85.87" transform="translate(15.23 36.47)"/><path class="cls-4" d="M75.49,201.14a5.62,5.62,0,0,1-1.31,1.75,4.34,4.34,0,0,0-.92,3.37c.14.91.8,1.9,1.72,1.85s1.29-.79,1.69-1.45a5.07,5.07,0,0,0,.6-1.24,5.31,5.31,0,0,0,.15-1.19l.09-2a2.31,2.31,0,0,0-.32-1.62c-.37-.43-1.24-.4-1.36.15" transform="translate(15.23 36.47)"/><path class="cls-4" d="M85,193.24c-.13.48-.71.63-1.11.93-.67.52-.77,1.48-1.14,2.25s-.93,1.27-1.27,2a1.69,1.69,0,0,0,.28,2.13c.74.51,1.73,0,2.45-.56l3-2.19a2.4,2.4,0,0,0,1-1.13,2.48,2.48,0,0,0-.48-1.88,5.74,5.74,0,0,0-1-1.43,1.93,1.93,0,0,0-1.63-.54" transform="translate(15.23 36.47)"/><path class="cls-4" d="M87.52,208.4a1.36,1.36,0,0,0-.94-1.37,2.77,2.77,0,0,0-1.77.12,6.06,6.06,0,0,0-3.92,5.35.93.93,0,0,0,1.64.84c1.59-1.26,2.55-3.32,4.4-4.13" transform="translate(15.23 36.47)"/><path class="cls-4" d="M6,202c-.14.47-.72.63-1.11.93-.68.52-.78,1.48-1.14,2.25s-.93,1.27-1.28,2a1.72,1.72,0,0,0,.29,2.14c.74.51,1.73,0,2.45-.56l3-2.19a2.45,2.45,0,0,0,1-1.13,2.47,2.47,0,0,0-.48-1.88,5.79,5.79,0,0,0-1-1.44,1.93,1.93,0,0,0-1.64-.53" transform="translate(15.23 36.47)"/><path class="cls-4" d="M13.51,193.37a1.32,1.32,0,0,0-.94-1.36,2.73,2.73,0,0,0-1.76.12,6.07,6.07,0,0,0-3.93,5.35,1.17,1.17,0,0,0,.46,1.15,1.18,1.18,0,0,0,1.18-.31c1.59-1.26,2.55-3.32,4.41-4.14" transform="translate(15.23 36.47)"/><path class="cls-4" d="M72.62,211.78c-.87.07-1.37,1-1.71,1.8l-.82,1.92c-.21.49-.36,1.18.09,1.47s.86,0,1.22-.27l3.32-2.26a1.61,1.61,0,0,0,.65-.67c.28-.69-.42-1.34-1-1.75a2.12,2.12,0,0,0-1.7-.51" transform="translate(15.23 36.47)"/><path class="cls-4" d="M49.53,204.12a1.3,1.3,0,0,0-.69-1.75,2.12,2.12,0,0,0-2,.36,6.3,6.3,0,0,0-1.38,1.61l-.84,1.24c-.42.63-.87,1.42-.54,2.11a1.84,1.84,0,0,0,2.15.68,4.73,4.73,0,0,0,3.49-3.73" transform="translate(15.23 36.47)"/><path class="cls-4" d="M56.57,200.83a5.39,5.39,0,0,1-1.2-1.77,1.84,1.84,0,0,1,.44-2,2.61,2.61,0,0,1,1-.42c.87-.21,1.75-.39,2.64-.55.72-.12,1.65-.12,1.94.55s-.36,1.37-1,1.82L57,201.15" transform="translate(15.23 36.47)"/><path class="cls-4" d="M41.5,266.3,39.08,263a1.38,1.38,0,0,0-.47-.46,1.28,1.28,0,0,0-.8,0,6.49,6.49,0,0,0-1.42.44.71.71,0,0,0-.4.32.74.74,0,0,0,0,.44,11.06,11.06,0,0,0,1.73,3.18c.44.63,1,1.32,1.73,1.38,1,.09,1.72-.92,1.9-1.89" transform="translate(15.23 36.47)"/><path class="cls-4" d="M29.52,204.44c-1.05.87-1.43,2.28-1.9,3.56A18.51,18.51,0,0,1,25,212.78c-.72,1-1.59,2.07-1.29,3.23a1.06,1.06,0,0,0,.6.77,1.23,1.23,0,0,0,.71,0,6.28,6.28,0,0,0,2.28-1.24L31,212.82c1.49-1.11,3.13-2.51,3.09-4.36a5.86,5.86,0,0,0-1.38-3.09,4.45,4.45,0,0,0-1.4-1.46,1.56,1.56,0,0,0-1.87.19" transform="translate(15.23 36.47)"/><path class="cls-4" d="M19,189.63c0,.86-.84,1.44-1.58,1.9s-1.53,1.18-1.33,2a1.58,1.58,0,0,0,.63.86,2.82,2.82,0,0,0,1.94.55,2.6,2.6,0,0,1,1.3,0c.53.24.73.95,1.25,1.18.68.31,1.45-.39,1.53-1.12a3.62,3.62,0,0,0-.69-2.07,3.45,3.45,0,0,1-.65-2.07,5.81,5.81,0,0,1,1.1-2.08c.4-.69.5-1.74-.19-2.14s-1.53.19-2,.82a7.72,7.72,0,0,0-1.23,2.34" transform="translate(15.23 36.47)"/><path class="cls-4" d="M31.07,184.83a23.46,23.46,0,0,0-5.3,4.85,2.62,2.62,0,0,0-.88,1.7,2.75,2.75,0,0,0,.48,1.21,5.26,5.26,0,0,0,1.88,2.08,1.79,1.79,0,0,0,2.44-.66,4.86,4.86,0,0,0,.18-.86c.38-1.83,2.47-2.83,3.16-4.58a3.43,3.43,0,0,0-1.51-4.13" transform="translate(15.23 36.47)"/><path class="cls-4" d="M24.62,200a7.89,7.89,0,0,0-3.82,1.29,18.59,18.59,0,0,1-5.18,1.68c-1.19.21-2.58.41-3.16,1.47a1.11,1.11,0,0,0-.09,1,1.23,1.23,0,0,0,.51.5,6.11,6.11,0,0,0,2.5.66l4.57.54c1.84.22,4,.33,5.23-1.05a5.84,5.84,0,0,0,1.13-3.19,4.58,4.58,0,0,0,0-2,1.55,1.55,0,0,0-1.49-1.15" transform="translate(15.23 36.47)"/><path class="cls-4" d="M21.52,221.32A13.18,13.18,0,0,1,26.63,228c.17.51.45,1.15,1,1.16a1.06,1.06,0,0,0,.46-.13,2.41,2.41,0,0,0,1.12-1.89,7.2,7.2,0,0,0-.25-2.26c-.24-1.08-.58-2.29-1.56-2.79s-2.16-.06-3.2-.33-1.75-1-2.73-1" transform="translate(15.23 36.47)"/><path class="cls-4" d="M.57,225.69a5.37,5.37,0,0,0-3.83,4.1,3.35,3.35,0,0,1-.25.94,7.91,7.91,0,0,1-.52.66,1.91,1.91,0,0,0,1.14,2.84c.32.06.65,0,1,.1a2.74,2.74,0,0,1,1.7,1.45c.32.58.71,1.31,1.38,1.3a1.09,1.09,0,0,0,.91-.73,2.83,2.83,0,0,0,.11-1.23,13.88,13.88,0,0,0-.66-3.31,5.27,5.27,0,0,1-.46-3,8.7,8.7,0,0,1,.63-1.35A1.74,1.74,0,0,0,1.8,226a.82.82,0,0,0-1.23-.31" transform="translate(15.23 36.47)"/><path class="cls-4" d="M12.79,213.34c0,.28-.4.37-.68.32-1.2-.19-2-1.59-3.27-1.48a3,3,0,0,0-1,.36Q5,214,2.12,215.63c-.62.35-1.34,1-1.09,1.62s.85.67,1.41.73a44.07,44.07,0,0,0,6.08.18,5.08,5.08,0,0,1,1.46.08,6.9,6.9,0,0,0,1.57.47,2,2,0,0,0,1.59-.92,3.31,3.31,0,0,0-.54-4.31" transform="translate(15.23 36.47)"/><path class="cls-4" d="M6.06,239.78c0,.87-.85,1.45-1.58,1.91s-1.54,1.17-1.34,2a1.57,1.57,0,0,0,.63.85,2.84,2.84,0,0,0,1.95.56,2.6,2.6,0,0,1,1.3,0c.53.24.72.94,1.25,1.18s1.45-.39,1.52-1.13a3.53,3.53,0,0,0-.68-2.06A3.47,3.47,0,0,1,8.45,241,6,6,0,0,1,9.56,239c.39-.69.49-1.73-.19-2.13s-1.54.19-2,.82A7.25,7.25,0,0,0,6.12,240" transform="translate(15.23 36.47)"/><path class="cls-4" d="M9.91,227.55a15.63,15.63,0,0,0-1.31.95A1.7,1.7,0,0,0,8,229.93a.91.91,0,0,0,1.17.75c.18-.09.32-.25.49-.34a1.41,1.41,0,0,1,1.52.39,3.42,3.42,0,0,0,1.35.93,1.52,1.52,0,0,0,1.68-1.17,2.34,2.34,0,0,0-.66-2.07,2.69,2.69,0,0,0-3.7-.23" transform="translate(15.23 36.47)"/><path class="cls-4" d="M-.75,199.7c-.39-.11-.77.29-.8.7a2.11,2.11,0,0,0,.37,1.14l1,1.82a1.14,1.14,0,0,0,.43.49,1,1,0,0,0,.66,0c1.59-.48,2.61-2,3.36-3.46a.53.53,0,0,0,.09-.34c0-.27-.4-.33-.67-.29a3.44,3.44,0,0,0-1.29.46,1.78,1.78,0,0,1-.92.41c-.42,0-.73-.38-1-.68s-.73-.58-1.1-.38" transform="translate(15.23 36.47)"/><path class="cls-4" d="M-7.17,203.88c-1,.87-1.42,2.28-1.9,3.55a19,19,0,0,1-2.6,4.79c-.73,1-1.6,2.06-1.3,3.22a1.11,1.11,0,0,0,.6.77,1.26,1.26,0,0,0,.72,0A6.28,6.28,0,0,0-9.37,215l3.69-2.74c1.49-1.1,3.13-2.5,3.08-4.35A5.91,5.91,0,0,0-4,204.8a4.62,4.62,0,0,0-1.4-1.45,1.54,1.54,0,0,0-1.87.18" transform="translate(15.23 36.47)"/><path class="cls-4" d="M-15.16,220.75A13.24,13.24,0,0,1-10,227.44c.17.52.44,1.15,1,1.16a.9.9,0,0,0,.45-.13,2.39,2.39,0,0,0,1.12-1.89,7.16,7.16,0,0,0-.24-2.25c-.24-1.08-.58-2.3-1.57-2.79s-2.15-.07-3.2-.34-1.75-1-2.73-1" transform="translate(15.23 36.47)"/><path class="cls-4" d="M18.59,233.76a1,1,0,0,0-1.31-.78,2.71,2.71,0,0,0-1.32,1.1A18.79,18.79,0,0,0,14.7,236c-.26.47-.41,1.23.1,1.41s.73-.23,1-.51a3.66,3.66,0,0,1,3.49-.83,1.9,1.9,0,0,0,1,.17c.44-.09.7-.53.92-.92a7,7,0,0,0,.82-2,2.35,2.35,0,0,0-.46-2A.82.82,0,0,0,21,231a1,1,0,0,0-.6.23c-.85.56-1.68,1.15-2.48,1.78" transform="translate(15.23 36.47)"/><path class="cls-5" d="M136.27,240.08l1.61-10.64s2.61-6,3.81-9.44,6-31.51,6-31.51.4-17.06,6.83-25.69c0,0-3.62-20.87,16.25-21.27a34.48,34.48,0,0,1,18.07,8,25.78,25.78,0,0,0,10.83,5.62c4.9,1,9.13,1.69,12.91,3.86a14.21,14.21,0,0,0,7,1.79l23.08.17v30.71s-15.66-9.84-33.52-10a139.13,139.13,0,0,1-26.63-3,16.69,16.69,0,0,1-8.81-5.09c-5.7-6.17-9.12-3.94-9.12-3.94-7.2,3.5-6.55,16.62-6.55,16.62-.67,55.37-15,63.85-15,63.85s-2.14,3.37-12.37,2-8.71-15.95-8.71-15.95l1.32-16.77c.57-38.84-5.3-41.13-9.66-40.35s-10.8,24.23-8.59,40.35a85.38,85.38,0,0,1,.72,19.56,12.82,12.82,0,0,1-12.91,12c-8.28,0-8.63-5.58-8.63-5.58s.42-9.49-7.35-26.93-4.19-39.35-4.19-39.35c0-.6,1.6-7.22-3.61-9-3.66-1.27-7.7.81-9.8,2.18a20.56,20.56,0,0,1-5.14,2.33c-16.54,5-55.91,8.74-55.91,8.74V162.4H10.34a10.3,10.3,0,0,0,4-.82c9.51-4.09,51.62-22,51.41-24.85,0,0,14.7,10.62,14.29,25.67V204l20.11-31.18,12.38-4H129l8.27,16.91Z" transform="translate(15.23 36.47)"/><path class="cls-6" d="M26.76,161.38c17.41-7.23,30.05-21.89,51.86-7.07-3.58-10.51-12.5-16.58-12.5-16.58.21,2.84-41.42,20.06-51.07,24.15a10.5,10.5,0,0,1-4.1.83H-1.38l-.11,4.64S9.35,168.61,26.76,161.38Z" transform="translate(15.23 36.47)"/><path class="cls-6" d="M219.68,162.26a13.16,13.16,0,0,1-6.54-1.64c-3.81-2.19-8.09-3.11-13-4.09A26.28,26.28,0,0,1,189.2,151a32.22,32.22,0,0,0-17.6-7.65c-16.19-.83-15.54,15.76-15.54,15.76l54.84,8.14,32.2,1.53v-6.32Z" transform="translate(15.23 36.47)"/><path class="cls-7" d="M79.71,201.34,79.9,163a26.38,26.38,0,0,0-1.28-8.72c-21.49-14.82-35.23.08-52.39,7.31s-27.72,5.73-27.72,5.73V177.6s11,1.09,43.07-11.76c1.51-.6,33.72-13.86,35.22,3" transform="translate(15.23 36.47)"/><path class="cls-7" d="M211.06,164a46.74,46.74,0,0,0-16.89-4.83,11,11,0,0,1-3.35-.85L185.47,156A26.2,26.2,0,0,0,175,153.8H166.8a11.42,11.42,0,0,0-6.18,1.83l-4.69,3.29a31.77,31.77,0,0,0,.06,5.27c-6.26,8.54-6.42,25.13-6.42,25.13s-4.88,28.17-6,31.54-3.58,8.78-3.58,8.78l-1.83,11.22,4.78,0,8.22-48,3.89-20.5a5.33,5.33,0,0,1,2.13-3.36l5.61-4a9.24,9.24,0,0,1,6.75-1.64l6.22.91a50.78,50.78,0,0,1,11.57,3.17c10.06,4.08,32.38,12.41,49.57,13.53h4.66V168.52l-20.22-1.47A25.39,25.39,0,0,1,211.06,164Z" transform="translate(15.23 36.47)"/><path class="cls-8" d="M155.12,162.17s5.42-8.43,19.47-7.43c10.54.75,16,3.77,18.07,5.22a10.39,10.39,0,0,0,2.55,1.35L217,169a14.89,14.89,0,0,0,5,.85H244" transform="translate(15.23 36.47)"/><rect id="SVGID-2" data-name="SVGID" class="cls-1" x="15.01" y="24.23" width="239.01" height="250.96"/><path class="cls-9" d="M167.25,119a20.64,20.64,0,0,0-1.15-5.32c-5.21-14.26-16-12.82-21.35-11.1a9,9,0,0,1-5.83-.14,8.54,8.54,0,0,0-4.6-.44,8.9,8.9,0,0,1-4.38-.21,13.3,13.3,0,0,0-4-.42,10.42,10.42,0,0,1-4.64-.89,15.14,15.14,0,0,0-6-1.42,20.46,20.46,0,0,0-7.15,1.54,9.19,9.19,0,0,1-5.11.47l-10.21-2C78.75,98.32,74.31,108,74.31,108c-8.87,8.6-8.87,18.58-8.87,18.58-.56,23,14.41,34.41,14.41,34.41,0,1-.14,2-.28,3-4,29.68-1.1,38.28-1.1,38.28l7.07,27.27a22.66,22.66,0,0,1,.71,5c.35,14,6.37,13,6.37,13,4.57-.56,6.79-4.16,7.87-7.63a19.81,19.81,0,0,0,.48-9.4c-2.88-15.8-1.14-33.72-1.14-33.72,3.88-28.57,16.62-26.63,16.62-26.63,18.57,1.45,12.8,53.37,11,66.77a15.81,15.81,0,0,0,1.25,8.77c.87,1.87,2.12,3.55,3.85,3.78,4.16.55,9.71-6.38,9.71-6.38,11.92-15.81,8.87-76.82,8.87-76.82C168.15,149.48,167.91,126.76,167.25,119Z" transform="translate(15.23 36.47)"/><circle class="cls-10" cx="69.92" cy="163.24" r="4.42"/><circle class="cls-10" cx="77.54" cy="166.45" r="3.91"/><circle class="cls-10" cx="71.97" cy="170.11" r="3.56"/><circle class="cls-10" cx="84.37" cy="170.66" r="4.82"/><circle class="cls-10" cx="85.42" cy="179.14" r="3.76"/><circle class="cls-11" cx="79.85" cy="171.89" r="3.54"/><circle class="cls-12" cx="75.13" cy="173.72" r="3.16"/><circle class="cls-11" cx="80.15" cy="177.39" r="3.24"/><circle class="cls-10" cx="90.55" cy="191.48" r="3.76"/><circle class="cls-12" cx="97.19" cy="199.07" r="3.94"/><circle class="cls-12" cx="151.3" cy="191.51" r="3.82"/><circle class="cls-12" cx="148.69" cy="199.18" r="3.82"/><circle class="cls-10" cx="143.67" cy="193.25" r="3.82"/><circle class="cls-10" cx="137.49" cy="195.37" r="3.82"/><circle class="cls-10" cx="176.14" cy="189" r="4.04"/><path class="cls-13" d="M64.05-36.07V19S61.64,32.78,58.2,37.94s-10,14.46-11,17.22-5.5,11-5.85,22.37,0,34.82,0,34.82S40.64,143.8,72,148.27c0,0,2.75-2.06,0-3.78,0,0-10-.55-17.37-7.84a17.32,17.32,0,0,1-5-12.22l-.27-43.65A54,54,0,0,1,52,63c1.11-3.25,2.53-6.41,4.28-8.22,4.94-5.13,16.18-16.18,16.18-16.18s5-5.33,5.33-17.73l3.27-57Z" transform="translate(15.23 36.47)"/><circle class="cls-14" cx="163.99" cy="190.39" r="4.04"/><circle class="cls-10" cx="163.9" cy="209.13" r="4.04"/><circle class="cls-14" cx="167.59" cy="201.78" r="5.02"/><circle class="cls-12" cx="162.61" cy="196.51" r="4.04"/><circle class="cls-12" cx="169.37" cy="193.9" r="4.04"/><path class="cls-15" d="M82,107.71c2.33-.61,4.44,1.08,6.42,2.05a9.84,9.84,0,0,0,3.25,1,38.46,38.46,0,0,0,4.16.14c5.75.16,11.35,1.59,16.89,3l8.37,2.15a27.47,27.47,0,0,0,4,.84,13,13,0,0,0,3.83-.22c2.7-.51,5.27-1.45,8-1.71,2.55-.24,5.17-.22,7.6-1.1a42.34,42.34,0,0,0,6.49-3.51c2.09-1.21,4.41-2.24,6.88-1.73.47.1.67-.62.2-.72-4.41-.91-8,2.35-11.67,4.28a14.11,14.11,0,0,1-3.2,1.29,23,23,0,0,1-4.14.57c-1.32.1-2.64.18-3.95.39s-2.6.58-3.89.92a23.12,23.12,0,0,1-4.12.82,13.56,13.56,0,0,1-4.25-.44c-2.86-.68-5.7-1.45-8.54-2.18-5.51-1.41-11-2.91-16.73-3.32-1.57-.11-3.13-.06-4.7-.13A10.11,10.11,0,0,1,88.57,109c-2.12-1.08-4.31-2.7-6.82-2a.37.37,0,0,0,.2.72Z" transform="translate(15.23 36.47)"/><path class="cls-15" d="M105.39,106.17c1.09-.29,2,1,2.68,1.58a4.21,4.21,0,0,0,1.28.81,7.52,7.52,0,0,0,2.32.14c3.39.14,5,3.82,6,6.51.17.44.9.25.72-.2-1.11-2.87-2.63-6.39-6-7a20.93,20.93,0,0,1-2.64-.14,4.42,4.42,0,0,1-1.65-1.19c-.8-.75-1.67-1.55-2.85-1.24a.37.37,0,0,0,.2.72Z" transform="translate(15.23 36.47)"/><path class="cls-15" d="M131.69,106.94c-2.36,1.27-5.2,1.29-7.45,2.81a8.73,8.73,0,0,0-3.7,5.75c-.08.47.65.67.72.2a8,8,0,0,1,3.77-5.57c2.18-1.28,4.82-1.35,7-2.54.43-.23.05-.88-.38-.65Z" transform="translate(15.23 36.47)"/></g></g></g></svg>