<svg xmlns="http://www.w3.org/2000/svg" xmlns:xlink="http://www.w3.org/1999/xlink" viewBox="0 0 206.62 188.46"><defs><style>.cls-1{stroke:#424944;fill:url(#무제_그라디언트_8);}.cls-1,.cls-10,.cls-2,.cls-6,.cls-9{stroke-miterlimit:10;}.cls-2{fill:#ebb9bd;}.cls-2,.cls-6{stroke:#715e54;}.cls-10,.cls-2,.cls-6{stroke-width:1.29px;}.cls-3{fill:#f6e5e6;}.cls-4{fill:#e09ea8;}.cls-5{opacity:0.44;}.cls-6{fill:none;}.cls-7{opacity:0.69;}.cls-8{fill:#e4b4ab;}.cls-9{fill:#e9a69b;stroke:#6d523e;stroke-width:1.2px;}.cls-10{fill:#ebecef;stroke:#939496;}.cls-11{fill:#d2d5da;}.cls-12{fill:#939496;}.cls-13{opacity:0.54;}</style><linearGradient id="무제_그라디언트_8" x1="225.69" y1="155.19" x2="431.17" y2="155.19" gradientTransform="translate(-225.19 -11.11)" gradientUnits="userSpaceOnUse"><stop offset="0.06" stop-color="#d9c3b3"/><stop offset="0.38" stop-color="#efdec7"/><stop offset="0.64" stop-color="#f4e9d9"/><stop offset="0.9" stop-color="#f7f3eb"/></linearGradient></defs><g id="레이어_2" data-name="레이어 2"><g id="레이어_1-2" data-name="레이어 1"><path class="cls-1" d="M183.36,131.68c-18,5.43-32.05,18.88-37.06,24.17a14,14,0,0,1-7.37,4.13,31.33,31.33,0,0,1-8.08.43,41.39,41.39,0,0,1-16.24-4.51C97.28,147,72.76,143.27,67.43,142.55c-.65-.09-1.31-.13-2-.18-17.33-1.18-45.26-21.27-45.26-21.27-15-7-16.6-17.4-17.74-19.52A3,3,0,0,0,1,100.19a5.52,5.52,0,0,0-.46,2.17v40.83a6.23,6.23,0,0,0,3.79,5.72c98,41.52,128.72,39,128.72,39,38.18-5.81,64.19-35.88,71.12-44.76a8.73,8.73,0,0,0,1.85-5.39V103.7C204.51,127.45,183.36,131.68,183.36,131.68Z"/><path class="cls-2" d="M205.43,96.27a29.88,29.88,0,0,0-5.75-8.75,9.87,9.87,0,0,1-2.51-5.84l-.83-11.25c-.86-10.74-5.82-16.52-5.82-16.52-17.9-21.15-61.17-35.79-61.17-35.79C105.6,8,93.23,12.26,89.33,16.17c-3.5,3.49-.74,22.35-.12,26.29a7.22,7.22,0,0,1,.09,1.47C88.55,63,83.71,61.53,77,71.48s-21.8,12-21.8,12L39.55,77.67c-14-5.86-22.46-2.61-22.46-2.61S9,77,6,88.08c-1.76,6.66-3.41,9.67-4.44,11A5.29,5.29,0,0,0,1,100.19a3,3,0,0,1,1.49,1.39c1.14,2.12,2.77,12.53,17.74,19.52,0,0,27.93,20.09,45.26,21.27.67,0,1.33.09,2,.18,5.33.72,29.85,4.43,47.18,13.35a41.39,41.39,0,0,0,16.24,4.51,31.33,31.33,0,0,0,8.08-.43,14,14,0,0,0,7.37-4.13c5-5.29,19.08-18.74,37.06-24.17,0,0,21.15-4.23,22.62-28V99.46A9.35,9.35,0,0,0,205.43,96.27Z"/><path class="cls-3" d="M98,28.24c8.93,2.59,17.79,5.48,26.48,8.81,2.11.8,4.2,1.63,6.29,2.49.55.23,1.1.49,1.66.69-.16-.06-1.35-.57-.29-.12l.62.26c1.1.48,2.21,1,3.3,1.45q6.38,2.84,12.58,6.06t12,6.74q3,1.82,5.88,3.75c.88.58,1.76,1.18,2.63,1.78l1.37,1,.5.38c.65.46-1.05-.85-.14-.11a41.6,41.6,0,0,1,4.64,4.46c.57.63-.72-1-.24-.32l.37.51c.31.45.6.91.88,1.38s.44.8.64,1.21c.12.23.45,1,.08.11s.06.18.11.31a20.67,20.67,0,0,1,.8,2.79,7.38,7.38,0,0,0,.25,1.34c0-.11-.16-1.65-.09-.56,0,.33.06.65.08,1a24,24,0,0,1,0,2.94c0,.46-.08.92-.11,1.38-.05.72.11-.78.1-.73-.09.37-.12.78-.2,1.17a25.29,25.29,0,0,1-.66,2.7c-.15.5-.31,1-.49,1.51-.09.25-.18.49-.28.74a4.45,4.45,0,1,0,.2-.44,60.65,60.65,0,0,1-3,5.31c-.92,1.28.64-.75-.07.11-.34.41-.67.82-1,1.21-.69.79-1.42,1.55-2.18,2.27s-1.45,1.34-2.21,2l-.46.37c-.83.69.26-.21.37-.27-.5.32-1,.71-1.44,1a65.43,65.43,0,0,1-10.62,5.79c1.66-.75-.12,0-.56.21s-1,.39-1.53.57c-1.16.43-2.34.84-3.53,1.21-2.3.72-4.64,1.34-7,1.84-1.14.25-2.29.47-3.44.66l-1.61.26c-1.17.18.16,0,.33,0a11.47,11.47,0,0,1-1.16.14c-2.39.28-4.8.44-7.21.49a144.22,144.22,0,0,1-15.26-.74c-5-.43-10-.86-14.93-1.46a6.8,6.8,0,0,0-1.71-.22c.16-.16,1.23.17.26,0l-1-.14c-1.27-.18-2.54-.38-3.8-.59-2.45-.42-4.89-.88-7.32-1.4A195.86,195.86,0,0,1,59,93.23c-2.28-.85-4.55-1.74-6.8-2.65q-1.64-.66-3.27-1.35c-.34-.14-1-.57.24.1-.2-.11-.44-.18-.65-.27l-2-.84c-4.48-1.94-8.91-4-13.33-6q-3.2-1.5-6.39-3c-3-1.45-7.09-.94-8.81,2.31-1.52,2.88-.93,7.26,2.31,8.81,18.53,8.87,37.46,17.4,57.46,22.36a212.39,212.39,0,0,0,32.11,5c5.24.48,10.5,1,15.76,1.18a90.32,90.32,0,0,0,16.35-1,78.23,78.23,0,0,0,27.84-9.6c8.47-5,15.46-12,19.15-21.15,3.57-8.88,3.19-20.18-2.64-28.06a46.38,46.38,0,0,0-11.61-10.6q-6-4.09-12.3-7.69c-17-9.76-35.42-17.07-54.13-22.87q-3.44-1.06-6.89-2.06a6.51,6.51,0,0,0-7.92,4.49A6.58,6.58,0,0,0,98,28.24Z"/><path class="cls-4" d="M89,54.24c-1.88,9.28-6,10.05-11.32,17.89-6.84,10.09-21.8,12-21.8,12S130,111,164.2,87.65C164.2,87.65,163.7,70.86,89,54.24Z"/><g class="cls-5"><path class="cls-3" d="M23.62,116,42.9,127.92c6.25,3.85,12.36,7.87,19.56,9.73s14.72,2.57,22.06,3.55l2.62.35,1.2.16c-1.39-.19.21,0,.41,0q2.86.39,5.72.82c3.49.52,7,1.1,10.44,1.79,7.27,1.45,14.36,3.75,21.72,4.74a41.44,41.44,0,0,0,12.08,0,37.35,37.35,0,0,0,9.21-2.89c5.25-2.28,9.94-5.58,14.64-8.79,2.43-1.67,4.88-3.32,7.43-4.82,1.09-.64,2.21-1.26,3.35-1.83.68-.34,1.37-.66,2.06-1,1.23-.57-1.32.48.13-.05.42-.16.85-.34,1.28-.49,3.76-1.39,7.67-2.56,11.13-4.63a32,32,0,0,0,8-6.7,34.31,34.31,0,0,0,8.2-20.05,5.66,5.66,0,0,0-5.64-5.63,5.75,5.75,0,0,0-5.63,5.63c0,.37-.07.73-.09,1.1-.1,1.3.25-1.32,0,0-.11.6-.22,1.2-.36,1.8a28.61,28.61,0,0,1-1.2,3.85c-.46,1.21.56-1.15,0,0-.14.27-.26.55-.4.83-.3.6-.62,1.2-1,1.78s-.65,1-1,1.55l-.53.75c-.85,1.15.61-.68-.13.17a36.86,36.86,0,0,1-2.65,2.8c-.26.23-1.21,1.33-1.54,1.31.19,0,.93-.67.27-.21-.41.28-.8.57-1.21.83a32,32,0,0,1-3.3,1.81c-1.37.67,1.08-.39-.34.15l-1.28.49-2.59.91a71.39,71.39,0,0,0-16.1,8.19c-4.66,3.11-9.18,6.47-14.16,9.07q-.83.44-1.68.84l-1,.46c-1.15.53.91-.35.14-.06a38.62,38.62,0,0,1-4.06,1.35q-.91.24-1.83.42a6.1,6.1,0,0,1-1.12.19c1.16,0,.37,0,.09,0a39,39,0,0,1-5.62.06,20,20,0,0,1-2.33-.22c1.24.23.18,0-.14,0l-1.17-.2c-1.8-.32-3.58-.71-5.36-1.14-3.33-.8-6.64-1.7-10-2.44-6.89-1.54-13.89-2.55-20.89-3.5l-6-.8-1.2-.16c-.2,0-1.8-.24-.41-.06-1-.12-1.91-.26-2.86-.39-3.45-.48-6.89-1-10.31-1.61-1.8-.35-3.6-.75-5.37-1.26-.88-.26-1.75-.54-2.61-.86-.2-.08-1.66-.56-.36-.12a11.55,11.55,0,0,1-1.24-.57c-3.5-1.7-6.77-3.87-10.08-5.91L29.31,106.31A5.64,5.64,0,1,0,23.62,116Z"/></g><path class="cls-6" d="M53.88,82.88s102.81,39.69,121.69-10.74"/><line class="cls-6" x1="130.85" y1="160.41" x2="130.85" y2="187.93"/><g class="cls-7"><path class="cls-8" d="M55.09,113.48a17,17,0,0,1-13.45,16.66c-2,.4-1.17,3.5.85,3.11a20.2,20.2,0,0,0,15.82-19.77c-.05-2.07-3.27-2.07-3.22,0Z"/></g><g class="cls-7"><path class="cls-8" d="M134.15,129.94c.89,4.7,1.9,9.71.71,14.45-.9,3.57-3.13,7.1-6.73,8.4-1.93.7-1.1,3.82.86,3.11a14.68,14.68,0,0,0,8.78-10c1.64-5.5.53-11.37-.51-16.87-.39-2-3.5-1.17-3.11.86Z"/></g><g class="cls-7"><path class="cls-8" d="M185.09,107.65a12.73,12.73,0,0,0,8.3,13.06,1.62,1.62,0,0,0,2-1.12,1.65,1.65,0,0,0-1.13-2,10.63,10.63,0,0,1-2.49-1.44,9.52,9.52,0,0,1-2.1-2.44,8.75,8.75,0,0,1-1.19-2.89c-.07-.29-.12-.58-.17-.88,0,.18,0,.05,0,0s0-.32,0-.48a10.56,10.56,0,0,1,.06-1.78A1.62,1.62,0,0,0,186.7,106a1.65,1.65,0,0,0-1.61,1.61Z"/></g><path class="cls-9" d="M16.48,71.48S3.55,73.43,3.55,91s13.91,28.31,38.07,30.75c0,0,36.6,1.71,43.44,7.56,0,0,53.44,20.5,88.09-2.44,0,0,24.65-11.71,28.31-32.94l-2-24.65-1.95-2.68L179.5,36.09,105.8,9s-6.1.25-7.32,10S93.6,40.24,115.32,49.76c0,0,48.07,12.69,53.2,25.62S160,96.12,160,96.12L53.82,87.34Z"/><path class="cls-10" d="M36.5,61.6a4.35,4.35,0,0,0,4,1.81,14.46,14.46,0,0,0,2.81-.66,10.1,10.1,0,0,1,6.18-.21,3.46,3.46,0,0,1,1.75,1.2c2.71,3.56,2.07,6.33,2.07,6.33L49.92,89.23,42.5,94.38a4.23,4.23,0,0,1-2.52.83H36a3.4,3.4,0,0,1-1.81-.52L30,92.07a3.46,3.46,0,0,0-1.82-.52H24.62a4.85,4.85,0,0,1-2.38-.61,12.72,12.72,0,0,1-5-5.25c-2.44-4.64-1.71-19-1.71-19,2-8.78,8-7.56,8-7.56l7.4,0a6.61,6.61,0,0,1,4.2,1.47Z"/><path class="cls-10" d="M63.7,68.49h-6a4.84,4.84,0,0,0-1.92.38c-2.21.93-7.23,3.62-7,8.77l.61,13.42s.48,6.22,2.07,7.81c1.43,1.42,2.06,2.75,6.16,3.53a4.75,4.75,0,0,1,2,1c.61.49,2,1,5.13,1.12,5.61.12,9.52-6,9.52-6l3.78-4,5.86-16a9.08,9.08,0,0,0-3-4.09,3.44,3.44,0,0,0-2.16-.81l-2.94-.06a4.07,4.07,0,0,1-3-1.45,13.6,13.6,0,0,0-3.69-3.24,3.44,3.44,0,0,0-1.58-.35Z"/><path class="cls-10" d="M76.39,94.35c-.06-.49,0-3.48,0-5.38a9.61,9.61,0,0,1,1-4.11A14,14,0,0,1,84.61,78a5.41,5.41,0,0,1,2-.38h7.27a5.75,5.75,0,0,1,3.46,1.15l3.77,2.85a5.35,5.35,0,0,1,2.14,4.29V97.12A3,3,0,0,1,102.6,99c-1.84,2.36-7.43,9.11-13,11.87a6,6,0,0,1-6.32-.59C80.77,108.32,77.73,104,76.39,94.35Z"/><path class="cls-10" d="M104.52,86.72,108,83.34a6,6,0,0,1,3.81-1.7l6.44-.4a8.29,8.29,0,0,1,2.22.16C123.42,82,131,84,131.24,88c.12,1.89,0,9.72,0,11.77a2.94,2.94,0,0,1-.14.88c-.7,2.38-4.3,13.31-11,15-4.77,1.24-7.51.15-8.87-.8a4.14,4.14,0,0,1-1.4-1.73l-6.32-14.7a4.52,4.52,0,0,1-.36-1.74V89.83A4.35,4.35,0,0,1,104.52,86.72Z"/><path class="cls-10" d="M132.37,87,139,81a4.19,4.19,0,0,1,2.6-1.08l9.64-.51a2.85,2.85,0,0,1,1.16.18,25.19,25.19,0,0,1,4.38,2,4.47,4.47,0,0,1,2.12,3.81V99.21a8.35,8.35,0,0,1-.26,2.05c-1,3.92-5,17.44-11.82,17.86,0,0-4.83.48-9.09-10.92a3.08,3.08,0,0,0-.16-.38c-.47-.88-2.49-4.59-4.86-6.34a3.8,3.8,0,0,1-1.55-3.12l.09-8.83A3.5,3.5,0,0,1,132.37,87Z"/><path class="cls-10" d="M114.65,25.07a2.53,2.53,0,0,1,1.72.66c1.11,1,3.38,2.73,5.66,2.73,3.17,0,5.61-3.39,5.61-3.39l6.86-13.2s.58-4-2.1-5.74a6.72,6.72,0,0,0-4.15-.93,4.5,4.5,0,0,1-3.34-1.12L122.57,2A5.35,5.35,0,0,0,119,.64h-4.87a5.81,5.81,0,0,0-2.5.55c-1.62.76-4.26,2.36-5.24,5.07-1.23,3.37-.4,9.39-.1,11.26a5.41,5.41,0,0,0,.32,1.11,22.78,22.78,0,0,0,2.87,5.08,3.81,3.81,0,0,0,2.92,1.36Z"/><path class="cls-11" d="M115.79,18.72c-.1,0-.66-.33-.24-.08s0-.06-.1-.13.26.48,0,0l-.24-.44c.33.56,0,.12,0-.09s-.14-.48-.19-.73-.08-.4-.11-.6c.08.47,0,0,0-.22a46.13,46.13,0,0,1-.18-5.76c0-.2,0-.39,0-.58,0-.62-.08.22,0-.14a11,11,0,0,1,.32-1.22c-.09.26-.19.37,0,.07,0,0,.45-.66.16-.28s.21-.2.23-.22c.34-.38,0,.1-.12.05s.43-.28.49-.32l.19-.1c.22-.11.14-.08-.25.09,0-.06.35-.11.42-.13l.3-.08h-.1a8,8,0,0,1,1.38,0c-.35-.05-.18,0,.06,0l.91.22a3.27,3.27,0,0,0,4-2.25,3.26,3.26,0,0,0-2.25-4c-2.69-.71-5.75-.85-8.17.76a9.16,9.16,0,0,0-4,7.15,33.93,33.93,0,0,0,.22,7.4c.34,2.71,1.29,5.86,4,7.11a3.29,3.29,0,0,0,4.4-1.16c.75-1.42.48-3.64-1.15-4.4Z"/><path class="cls-11" d="M124.87,9.49a1.06,1.06,0,0,1,.2.12l-.33-.25a1.7,1.7,0,0,1,.19.19l-.25-.32c.21.28.33.61.54.9A2.7,2.7,0,0,0,127,11.38a3.8,3.8,0,0,0,2-.18,3.88,3.88,0,0,0,1.66-1.13,1.72,1.72,0,0,0,.47-1.14,1.65,1.65,0,0,0-.47-1.14,1.63,1.63,0,0,0-1.14-.47,1.61,1.61,0,0,0-1.14.47,2.09,2.09,0,0,1-.42.42l.32-.25a2.43,2.43,0,0,1-.52.3l.39-.16a2.88,2.88,0,0,1-.64.17l.43-.06a2,2,0,0,1-.54,0l.42.06-.36-.09.39.16a1,1,0,0,1-.24-.15l.32.26a1.8,1.8,0,0,1-.19-.2l.25.32a7.37,7.37,0,0,1-.45-.77,2.77,2.77,0,0,0-1.1-1.1,1.73,1.73,0,0,0-1.24-.16,1.64,1.64,0,0,0-1,.74,1.67,1.67,0,0,0-.16,1.24,1.59,1.59,0,0,0,.74,1Z"/><path class="cls-11" d="M142.44,81.1a19.64,19.64,0,0,0-7.34,7.36A14.94,14.94,0,0,0,133.46,94c-.19,2,.09,3.92,0,5.88a3.24,3.24,0,0,0,3.22,3.22,3.3,3.3,0,0,0,3.22-3.22c.12-1.71-.08-3.42,0-5.13,0-.25,0-.5.05-.75,0-.51-.11.46,0,0s.12-.63.21-.93c0-.05.32-1,.33-1s-.28.6,0,.11c.09-.18.17-.36.26-.53A7.08,7.08,0,0,1,141.75,90c-.16.16-.3.37-.05.08l.31-.37c.25-.28.5-.54.76-.8s.47-.45.71-.66l.47-.4c.29-.25.08-.13-.08,0a8.65,8.65,0,0,1,1.82-1.22,3.22,3.22,0,1,0-3.25-5.56Z"/><path class="cls-11" d="M31.13,61.72c-3.49.44-7.11-.79-10.34,1.17-3.61,2.19-4.43,6.52-4,10.42.43,3.72,1,7.66,3.05,10.89a12,12,0,0,0,8.84,5.74c1.73.22,3.22-1.63,3.22-3.22,0-1.92-1.48-3-3.22-3.22.64.08-.33-.12-.37-.13-.53-.12,0,.06-.25-.07a7.17,7.17,0,0,1-.82-.45c-.15-.09-.59-.42-.25-.15a9.08,9.08,0,0,1-1.24-1.24c-.14-.17-.14-.16,0,0l-.18-.26c-.17-.27-.35-.54-.5-.82A12.74,12.74,0,0,1,23.89,77c-.16-.67-.28-1.35-.39-2s-.19-1.15-.24-1.63a17.17,17.17,0,0,1-.15-2,8.3,8.3,0,0,1,.05-1.22c-.07.41.16-.51.16-.49l.1-.3v0a3.91,3.91,0,0,1,.4-.68c-.39.51.44-.38,0,0,.09-.07.89-.47.4-.27a4.28,4.28,0,0,1,.78-.21c.31-.07-.26,0,.3,0s1.25,0,1.89,0a22.27,22.27,0,0,0,4,0,3.34,3.34,0,0,0,3.22-3.22c0-1.57-1.49-3.45-3.22-3.22Z"/><path class="cls-11" d="M62.11,70A10.3,10.3,0,0,0,54,74.2c-2,2.72-2,6-2,9.2,0,3.47-.11,7,0,10.43.16,3.91,2.83,5.87,6.29,7a3.22,3.22,0,1,0,1.71-6.21l-.66-.21c-.07,0-.5-.2-.2-.07A5.07,5.07,0,0,1,58.6,94c-.15-.08-.35-.32-.14-.09s-.09,0-.07-.13c0,0,.12,0,.12.06,0-.63,0-1.26,0-1.89l0-8c0-1.24,0-2.49,0-3.72a4.16,4.16,0,0,1,.57-2,3.68,3.68,0,0,1,3-1.72c4.14-.08,4.15-6.52,0-6.44Z"/><path class="cls-11" d="M99.69,83.75c-2.8-2.84-6.6-5.34-10.75-5.14-4,.19-7.86,2.56-9,6.52-.64,2.23-.36,4.75-.36,7s0,4.5,0,6.75c.11,4.15,1.32,9,5.52,10.82a3.33,3.33,0,0,0,4.41-1.16c.8-1.36.45-3.7-1.16-4.4a3,3,0,0,1-1.79-1.75,11.6,11.6,0,0,1-.55-4.19c0-3.47-.1-7,0-10.42a4.65,4.65,0,0,1,.07-.75c0-.14.3-.78.1-.38,0,0,.54-.77.24-.42,0-.06.6-.58.4-.41a4.41,4.41,0,0,1,2.1-.81c2.39,0,4.41,1.44,6.19,3.25,2.91,3,7.46-1.59,4.56-4.55Z"/><path class="cls-11" d="M110.66,83.21a15.35,15.35,0,0,0-3.15,2.87A9.2,9.2,0,0,0,106,90.29a55.31,55.31,0,0,0-.83,10,1.61,1.61,0,0,0,3.22,0,50.26,50.26,0,0,1,.61-8.58,9,9,0,0,1,1-3.55A9.33,9.33,0,0,1,112.29,86a1.66,1.66,0,0,0,.58-2.2,1.63,1.63,0,0,0-2.21-.58Z"/><path class="cls-10" d="M128.38,30.73a4.14,4.14,0,0,0,2.25,1.82c9.1,3.06,6.54,3.89,9.58,4.94s4.8,0,4.8,0l9.11-6.1,3.29-7.73a12.32,12.32,0,0,0-1.81-7.35,4.07,4.07,0,0,0-3.4-1.91l-3.45-.06a4.36,4.36,0,0,1-3.26-1.56c-1.09-1.29-2.76-3-4.3-3.35s-3,.59-4,1.41a4.15,4.15,0,0,1-2.7,1h-1.39A3.67,3.67,0,0,0,130,13.52s-4.11,3.84-4,9A15.94,15.94,0,0,0,128.38,30.73Z"/><path class="cls-11" d="M137.47,14a3.44,3.44,0,0,0,3.15,2.5c.61.08,1.19.09,1.71.2a8.08,8.08,0,0,1,1,.24l.47.16s.42.18.2.08l.29.14s.34.23.24.15.16.21,0,0a2.64,2.64,0,0,1,.2.37,3,3,0,0,0,1.33,1.49,6.13,6.13,0,0,0,4.48-.05,1.61,1.61,0,0,0-.86-3.11,4.6,4.6,0,0,1-1.36.31h-.41l-.35,0c.15,0-.17-.1-.06,0l.16.1a3.52,3.52,0,0,0-.23-.5,3.35,3.35,0,0,0-.52-.73,3.84,3.84,0,0,0-1.31-.95,11,11,0,0,0-3.42-1c-.51-.07-1-.07-1.36-.16,0,0-.35-.12-.22-.06s-.16-.16,0,0l0,0c-.06-.07-.07-.08,0,0s.14.45.06,0a1.63,1.63,0,0,0-2-1.13,1.67,1.67,0,0,0-1.13,2Z"/><path class="cls-11" d="M128.07,21.5c-.38,3.54-.25,8.76,3.45,10.55a12.09,12.09,0,0,0,3.35.72c-.6-.11.9.41.34.12a5.23,5.23,0,0,1,.84.54c-.34-.27.41.39.49.46.28.26.55.53.84.77A5.45,5.45,0,0,0,140.75,36c7.61.47,15.13-5.34,15.4-13.15a3.22,3.22,0,0,0-6.44,0,6,6,0,0,1-.69,2.51c-.17.3-.35.6-.54.88l-.2.28c.1-.15.08-.14-.05,0s-.4.43-.62.64c0,0-.73.64-.43.4a8.65,8.65,0,0,1-3.05,1.55,14,14,0,0,1-1.71.39,6.76,6.76,0,0,0-1.67,0l.8.2q.28.23,0,0a3.56,3.56,0,0,0-.6-.56A17,17,0,0,0,139,27.68a9.75,9.75,0,0,0-4.52-1.38c-.41-.06-.26-.16-.11,0s.27.27.4.42c-.35-.41,0,.25-.11-.28,0-.25-.12-.49-.16-.75a16.81,16.81,0,0,1,0-4.2c.18-1.73-1.61-3.22-3.22-3.22a3.28,3.28,0,0,0-3.22,3.22Z"/><path class="cls-10" d="M165.34,42.13l-7.92.59A3.77,3.77,0,0,1,154,41a16,16,0,0,1-2.41-7.33V27.83a6.28,6.28,0,0,1,3.13-5.51,13.63,13.63,0,0,1,4-1.38,3.14,3.14,0,0,0,1.55-.78c.78-.72,2.52-1.82,5.93-2.07,5.12-.36,7.17,8.52,7.17,8.52Z"/><path class="cls-11" d="M153.41,32.94c.11.39.18.8.31,1.19a8.41,8.41,0,0,0,.72,1.62,8.2,8.2,0,0,0,2.39,2.48,7.43,7.43,0,0,0,3.46,1.16,4.67,4.67,0,0,0,1.12,0,7.1,7.1,0,0,0,1.94-.38,3.44,3.44,0,0,0,1.93-1.48,3.31,3.31,0,0,0,.32-2.48,3.21,3.21,0,0,0-1.48-1.92,3.13,3.13,0,0,0-2.48-.33,4.72,4.72,0,0,1-1,.26l.85-.12a4.53,4.53,0,0,1-1.22,0l.86.12a5.1,5.1,0,0,1-1.08-.3l.77.32a4.71,4.71,0,0,1-.94-.55l.66.5a4.9,4.9,0,0,1-.76-.75l.51.65a4.39,4.39,0,0,1-.59-1l.32.77c-.19-.48-.28-1-.42-1.48a3.41,3.41,0,0,0-1.48-1.93,3.31,3.31,0,0,0-2.48-.32,3.26,3.26,0,0,0-1.93,1.48,3.31,3.31,0,0,0-.32,2.48Z"/><path class="cls-10" d="M179.25,46.64a13.58,13.58,0,0,1-10.92,4.52s-2.51,1.11-4.08-9.88c-.13-.86-2.44-13.18,7.5-13.3,0,0,3.11-3.54,7.5-2.81s7.69,6.83,8.18,12.32Z"/><path class="cls-11" d="M167.94,34.93a27.36,27.36,0,0,0,.63,5.78c.46,2.13,1.11,4.35,3.07,5.57a3.22,3.22,0,1,0,3.25-5.56l-.21-.14.65.5-.26-.26.51.65a3.69,3.69,0,0,1-.39-.66l.33.77a18.16,18.16,0,0,1-1.06-4.42l.12.85a24.39,24.39,0,0,1-.21-3.08,3.22,3.22,0,1,0-6.43,0Z"/><path class="cls-10" d="M190.27,58.24,179.5,61.65a4.56,4.56,0,0,1-3.66-.85c-1.71-1.34,0-7.32,0-7.32s3.29-13.06,11.83-17.33,8.06,8.18,8.3,11.47Z"/><path class="cls-11" d="M184.88,42.36c.09.16.17.32.25.48.19.35-.23-.73,0-.06.09.31.16.63.25.94s-.05-.81,0-.1c0,.15,0,.29,0,.44a4.67,4.67,0,0,1,0,1.08s.14-.81,0-.1c0,.14-.06.28-.1.42s-.12.5-.17.51.32-.68,0-.07a8.37,8.37,0,0,1-.48.82c-.31.49.33-.37.07-.08l-.33.39a26.2,26.2,0,0,1-2.85,2.52,18.75,18.75,0,0,0-3.21,3.33,3.22,3.22,0,0,0,1.16,4.4,3.32,3.32,0,0,0,4.4-1.15c-.57.77.19-.19.36-.37s.48-.48.74-.71c.54-.49,1.1-.94,1.67-1.4A18.69,18.69,0,0,0,190,50.14a10.56,10.56,0,0,0,.44-11A3.25,3.25,0,0,0,186,38a3.3,3.3,0,0,0-1.16,4.41Z"/><path class="cls-10" d="M184.87,66.41v-2a3.61,3.61,0,0,1,.77-2.23c2-2.54,7.29-9.52,8.87-14,0,0,.24-2.08,2.07-2.08a2.41,2.41,0,0,1,2.13,1.75,2.77,2.77,0,0,1,.2,1c0,2,.09,10.37-1.84,12.52Z"/><path class="cls-11" d="M192.9,53.34a7.94,7.94,0,0,1,0,1.29c0,.25.05-.22,0,0s0,.2-.06.3a5.33,5.33,0,0,1-.17.66c-.07.19-.13.39-.21.57.06-.15,0-.06,0,0s-.11.23-.17.34a7.91,7.91,0,0,1-.69,1.11l-.18.25,0,0c-.14.15-.27.31-.41.47-.3.33-.61.65-.93,1-.66.64-1.37,1.23-2.07,1.82a1.63,1.63,0,0,0,0,2.28,1.66,1.66,0,0,0,2.28,0c3-2.54,6.37-5.82,5.89-10.15a1.61,1.61,0,0,0-3.22,0Z"/><path class="cls-10" d="M187.06,65.68s6-9.27,9-10.49c0,0,1.83-.25,2.08,2,0,0-.86,19.76-3,25s-3.54,5.25-3.54,5.25-1.47,1.46-3.54-5.49S187.06,65.68,187.06,65.68Z"/><path class="cls-10" d="M174.5,73.61s.12-2.56,3.29-4.51l8-4.49a1.76,1.76,0,0,1,2.27.45c1.86,2.48,4.73,10-2.23,30.63,0,0-1.43,3.06-3.46,0,0,0-5.57-7.93-6.3-8Z"/><path class="cls-11" d="M185.69,65.84q-2.53,1.56-4.94,3.31c-1.49,1.08-3.06,2.14-3.75,3.93a18.52,18.52,0,0,0-.63,5.85,59.6,59.6,0,0,0,.2,6.41c.16,2,3.38,2.07,3.22,0q-.24-2.85-.21-5.7a22.17,22.17,0,0,1,.33-5.09c.35-1.36,1.81-2.15,2.88-2.92q2.21-1.59,4.52-3c1.76-1.09.15-3.88-1.62-2.78Z"/><path class="cls-10" d="M158.88,94.84a10.5,10.5,0,0,1,5.12,6.35c3.78,9.88,7.2,8.54,7.2,8.54,3.65-1,6-18.44,6.48-22.65a12.9,12.9,0,0,0,.11-1.76V76.53a3.72,3.72,0,0,0-.37-1.61l-.74-1.53a1.76,1.76,0,0,0-1.58-1h-1.17a3.4,3.4,0,0,0-1.68.44L160,79.8a2.24,2.24,0,0,0-1.13,2Z"/><path class="cls-11" d="M173.18,74.41A63.51,63.51,0,0,0,165,79.74a9.8,9.8,0,0,0-2.66,2.71,10.26,10.26,0,0,0-1.09,4.32c-.28,2.87-.45,5.88.79,8.56a21.36,21.36,0,0,0,2.24,3.28,9.43,9.43,0,0,1,1.66,4.14,1.67,1.67,0,0,0,1.61,1.61,1.63,1.63,0,0,0,1.61-1.61,13.76,13.76,0,0,0-3-6.88,8.26,8.26,0,0,1-1.74-3.36,14.3,14.3,0,0,1-.14-4,14,14,0,0,1,.53-3.82,6.46,6.46,0,0,1,2.5-2.71,62.78,62.78,0,0,1,7.43-4.75c1.82-1,.2-3.78-1.63-2.79Z"/><path class="cls-12" d="M20.54,64.43l.08-.13,0,0c-.06,0,0,0,0,0l.2-.21a2.09,2.09,0,0,1,.22-.2s0,0,0,0l.06,0,.13-.09.25-.14.12-.06h0l.07,0a4,4,0,0,1,.57-.15.39.39,0,0,0,.28-.49.4.4,0,0,0-.49-.28A3.31,3.31,0,0,0,19.84,64a.41.41,0,0,0,.7.41Z"/><path class="cls-12" d="M21.07,66.55a9.56,9.56,0,0,1,4.5,2.11c1.08.92,1.87,2.17,3.08,2.93,2.13,1.33,4.76.85,7.13.81a6.68,6.68,0,0,1,4.11.93c1,.73,1.77,1.65,3.13,1.48,2.48-.3,4.73-2.4,6-4.44A.4.4,0,0,0,48.3,70a9.14,9.14,0,0,1-3,3.1,7.49,7.49,0,0,1-2,.88c-1.09.27-1.78-.37-2.56-1-1.75-1.39-3.86-1.41-6-1.31a18.14,18.14,0,0,1-3.61,0,5.9,5.9,0,0,1-3.58-2.11,11.09,11.09,0,0,0-6.24-3.72c-.51-.1-.73.68-.22.77Z"/><path class="cls-12" d="M26.75,65a11.84,11.84,0,0,0,3.18,2.43A10.55,10.55,0,0,0,33.71,69c2.58.41,6.16-1.09,8.11,1.29.33.4.89-.17.57-.57-1.77-2.15-4.72-1.49-7.13-1.43a8.21,8.21,0,0,1-4.36-1.22,12.32,12.32,0,0,1-3.58-2.64c-.33-.4-.9.17-.57.57Z"/><path class="cls-12" d="M34.52,68.63l2.92-2.28a.4.4,0,0,0-.56-.57L34,68.06a.41.41,0,0,0,0,.57.42.42,0,0,0,.57,0Z"/><path class="cls-12" d="M54.46,72.11a1.75,1.75,0,0,0,.4,3.44.4.4,0,1,0,0-.8h-.11c.09,0,0,0,0,0l-.1,0,0,0a1,1,0,0,1-.18-.09l-.07,0s0,0,0,0a.75.75,0,0,1-.15-.16c0,.06,0,0,0,0L54,74.21s0-.12,0,0l0-.09L54,74a.43.43,0,0,1,0,0s0,0,0,0v-.21c0-.11,0,.07,0,0a.52.52,0,0,1,0-.11.42.42,0,0,1,0-.1c0-.08,0,0,0,0l.11-.18s0-.06,0,0l.08-.08a.3.3,0,0,1,.08-.08s.09-.07,0,0a1.18,1.18,0,0,1,.19-.11c.06,0,0,0,0,0l.13,0a.41.41,0,0,0,.28-.5.42.42,0,0,0-.5-.28Z"/><path class="cls-12" d="M58.06,76.83c.91.41,1.38,1.26,2.08,1.93a3.44,3.44,0,0,0,2.18,1A32.17,32.17,0,0,1,66,80a10.86,10.86,0,0,1,3.52,1.4A8.69,8.69,0,0,0,72,82.77a6.21,6.21,0,0,0,2.93-.26c1.62-.44,3.21-1.33,3.68-3.05a.4.4,0,0,0-.77-.21c-.52,1.84-2.66,2.5-4.36,2.73-2.08.29-3.64-1.5-5.49-2.22A16.88,16.88,0,0,0,62.63,79a3.35,3.35,0,0,1-2.54-1.46,4.79,4.79,0,0,0-1.62-1.38c-.47-.21-.88.48-.41.7Z"/><path class="cls-12" d="M61.42,73A1.4,1.4,0,0,1,61,74.58a.41.41,0,0,0,0,.69q2.22,1.11,4.51,2a.4.4,0,1,0,.22-.77q-2.2-.88-4.32-1.94v.69a2.21,2.21,0,0,0,.79-2.49.39.39,0,0,0-.49-.28.39.39,0,0,0-.28.49Z"/><path class="cls-12" d="M71.62,74.9c0,.09,0-.05,0-.07l.09-.15a.21.21,0,0,1,0-.06s.06-.08,0,0,0,0,0,0l.06-.07a2.09,2.09,0,0,1,.22-.2c.06,0,0,0,0,0l.07,0,.14-.09.14-.07.07,0c-.09,0,0,0,0,0a1.58,1.58,0,0,1,.31-.09l.07,0c.09,0,0,0,0,0a.76.76,0,0,0,.15,0,1.9,1.9,0,0,1,.34,0,.39.39,0,0,0,.4-.4.41.41,0,0,0-.4-.4,2.42,2.42,0,0,0-1.51.33,2.5,2.5,0,0,0-1.05,1.22.4.4,0,1,0,.77.22Z"/><path class="cls-12" d="M82.16,83.24c1.39-1.75,4.09-1.7,6.12-1.55,2.57.19,4,2.1,5.16,4.19.88,1.58,1.93,2.92,3.93,2.67a5.19,5.19,0,0,0,2.29-.94,22.66,22.66,0,0,1,2.55-2.15c.46-.24.05-.93-.41-.69-1.86,1-3.16,3.69-5.67,2.9-1.25-.39-1.75-1.81-2.36-2.84A11.44,11.44,0,0,0,92,82.51c-1.55-1.5-3.42-1.69-5.49-1.65-1.8,0-3.74.31-4.93,1.81-.32.4.25,1,.57.57Z"/><path class="cls-12" d="M92.83,84l3.9,1.3c.5.17.71-.61.22-.77L93,83.2c-.49-.16-.7.62-.21.78Z"/><path class="cls-12" d="M94.8,83.49h0l0,.1a.67.67,0,0,1,0-.2l0,.11a1.42,1.42,0,0,1,.07-.22l0,.1a.78.78,0,0,1,.11-.2l-.06.08a.91.91,0,0,1,.17-.17l-.08.06a1.22,1.22,0,0,1,.19-.12l-.09,0a.6.6,0,0,1,.19-.06l-.11,0h.07a.45.45,0,0,0,.29-.12.37.37,0,0,0,.11-.28.38.38,0,0,0-.4-.4,1.19,1.19,0,0,0-.53.14,1.18,1.18,0,0,0-.36.3,1.35,1.35,0,0,0-.27.48,1.37,1.37,0,0,0,0,.28,1.27,1.27,0,0,0,0,.28.37.37,0,0,0,.18.24.38.38,0,0,0,.31,0,.42.42,0,0,0,.25-.18l0-.1a.74.74,0,0,0,0-.21Z"/><path class="cls-12" d="M162.63,80.62a54.89,54.89,0,0,0,12-6c.43-.28,0-1-.41-.69a54.26,54.26,0,0,1-11.81,5.88c-.49.17-.28.94.21.77Z"/><path class="cls-12" d="M163.54,81.82a22.85,22.85,0,0,0,0,4.75c.23,1.71,1.08,3,1.61,4.58.59,1.76.41,3.85.48,5.68l.21,5.81c0,.51.83.52.81,0l-.22-5.81a32.09,32.09,0,0,0-.31-5.19c-.33-1.62-1.38-3-1.69-4.59a19.9,19.9,0,0,1-.07-5.23c0-.52-.77-.51-.8,0Z"/><path class="cls-12" d="M187.21,66.76c-.85,1.72-2.62,2.49-4.18,3.43A8.33,8.33,0,0,0,179.45,74a12.71,12.71,0,0,0-.84,6c.16,2.62.57,5.23.89,7.83.06.51.86.52.8,0-.29-2.41-.65-4.82-.85-7.24a12.29,12.29,0,0,1,1-6.75c1.68-3.16,5.91-3.48,7.49-6.66.23-.46-.47-.87-.7-.41Z"/><path class="cls-12" d="M195.86,50.24a1.57,1.57,0,0,1,.64,1.5,4.61,4.61,0,0,0,.29,2.41c.25.45,1,0,.69-.41-.38-.71-.13-1.57-.19-2.33a2.17,2.17,0,0,0-1-1.87c-.46-.22-.87.47-.41.7Z"/><path class="cls-12" d="M190.78,38.53c.69.23.95,1,1.11,1.68.25,1,.39,2.09.58,3.14.1.51.87.29.78-.21l-.35-1.91a13.49,13.49,0,0,0-.31-1.51,2.63,2.63,0,0,0-1.6-2c-.49-.16-.7.61-.21.77Z"/><path class="cls-12" d="M192,47.88A7.87,7.87,0,0,1,187.58,53a.4.4,0,1,0,.4.7,8.6,8.6,0,0,0,4.81-5.6.4.4,0,0,0-.77-.21Z"/><path class="cls-12" d="M173.08,29.82a14.19,14.19,0,0,1,2.82,5.43.4.4,0,0,0,.78-.21,15.19,15.19,0,0,0-3-5.79c-.33-.4-.9.17-.57.57Z"/><path class="cls-12" d="M175.58,32.77a22.85,22.85,0,0,1,4.29.42c.51.1.73-.67.22-.77a22.84,22.84,0,0,0-4.51-.45.4.4,0,0,0,0,.8Z"/><path class="cls-12" d="M178,27.75c1.78,1.05,3.73,2.19,4.6,4.16.31.72.69,1.95-.15,2.43a15.19,15.19,0,0,0-2.13,1c-.4.33.17.9.57.57.69-.55,1.69-.52,2.35-1.14s.54-2,.19-2.91c-.88-2.28-3-3.6-5-4.78a.4.4,0,0,0-.4.69Z"/><path class="cls-12" d="M160.68,23.75a6.1,6.1,0,0,1,4.62,4c.16.49.94.28.78-.21a6.93,6.93,0,0,0-5.19-4.6c-.51-.09-.72.68-.21.78Z"/><path class="cls-12" d="M163.87,25.41a25.14,25.14,0,0,0,5.81-.27.41.41,0,0,0,.28-.49.43.43,0,0,0-.5-.29,24.35,24.35,0,0,1-5.59.25c-.52,0-.52.76,0,.8Z"/><path class="cls-12" d="M168.47,23.2l1.21,3.56a.42.42,0,0,0,.5.28.41.41,0,0,0,.28-.5L169.25,23a.4.4,0,0,0-.78.21Z"/><path class="cls-12" d="M136.3,14.39a8.7,8.7,0,0,0,2.12,2,4.86,4.86,0,0,0,2.68.55,4,4,0,0,1,2.92,1c.68.59,1.24,1.29,1.92,1.87a5.29,5.29,0,0,0,5,1,3.36,3.36,0,0,0,2.61-3.89c-.12-.5-.9-.29-.78.21.55,2.29-2.24,3.29-4,3.07s-2.67-1.46-3.82-2.57a4.77,4.77,0,0,0-3.39-1.48,5,5,0,0,1-2.81-.51,8.5,8.5,0,0,1-1.85-1.84c-.33-.4-.9.17-.57.57Z"/><path class="cls-12" d="M143.66,17l2.1-.86a.41.41,0,0,0,.28-.49.4.4,0,0,0-.5-.28l-2.1.85a.41.41,0,0,0,.22.78Z"/><path class="cls-12" d="M116.15,6.36l3.73,2.46a.4.4,0,1,0,.4-.7l-3.73-2.45a.4.4,0,1,0-.4.69Z"/><path class="cls-12" d="M117.5,10.28a8.83,8.83,0,0,0,2.37-.63c.83-.37,1.49-1,2.27-1.39,2-1.18,2.84,1.68,3.78,2.9,1.84,2.41,6.32,1.15,7.07-1.65a.4.4,0,0,0-.78-.21c-.42,1.59-2.28,2.41-3.83,2.32-1.93-.11-2.25-2-3.26-3.27a2.47,2.47,0,0,0-3-1,23.14,23.14,0,0,0-2,1.26,7.52,7.52,0,0,1-2.64.86c-.51.06-.52.87,0,.8Z"/><path class="cls-12" d="M123.79,7.69a5.05,5.05,0,0,0,1.56-.53.4.4,0,0,0,.14-.55.42.42,0,0,0-.55-.15l-.17.09-.09,0s-.08,0-.09,0h0l-.1,0-.17.06a5,5,0,0,1-.74.18.42.42,0,0,0-.25.18.4.4,0,0,0,.15.55.48.48,0,0,0,.31.05Z"/><path class="cls-12" d="M113.38,4.76c0-.09,0,.08,0,0a.2.2,0,0,1,0-.08l.07-.13h0l.06-.06.1-.11.06-.05c.08-.07-.07,0,0,0l.12-.08.15-.09h0c-.06,0,0,0,0,0s.21,0,.32-.08-.09,0,0,0h.33a.37.37,0,0,1,.15,0l.16,0c-.1,0,0,0,0,0l.08,0a.4.4,0,1,0,.4-.7,2.05,2.05,0,0,0-1.68-.12,2.08,2.08,0,0,0-1.25,1.21.4.4,0,0,0,.28.5.41.41,0,0,0,.49-.28Z"/><g class="cls-13"><path class="cls-3" d="M10.94,98.51c6.64,10.3,18,16.1,29.62,18.78a125,125,0,0,0,19.93,2.5c3.66.24,7.32.43,11,.72,1.58.13,3.17.27,4.75.45l1.42.16c.06,0,1.62.22.61.07.94.14,1.88.28,2.82.44,13.26,2.28,25.32,8.87,38.64,10.91a82.16,82.16,0,0,0,35.75-2.37,80.81,80.81,0,0,0,34.29-20.25,4.83,4.83,0,0,0-6.83-6.83,72.72,72.72,0,0,1-6.28,5.63c-.14.11-1.17.89-.23.18l-.61.47c-.51.38-1,.75-1.55,1.12-1.25.88-2.53,1.73-3.84,2.53a76.4,76.4,0,0,1-7,3.85c-.64.31-1.28.6-1.92.89l-.87.39c-1.19.52.94-.37-.26.1s-2.62,1-3.95,1.49a77.86,77.86,0,0,1-7.92,2.29c-1.31.31-2.62.58-3.94.82-.63.11-1.26.22-1.89.31-.38.06-.76.13-1.14.17,1.27-.12-.05,0-.24,0a75.09,75.09,0,0,1-16.62.15l-1-.1c-.21,0-1.51-.18-.23,0-.64-.08-1.27-.18-1.9-.28-1.38-.23-2.76-.5-4.13-.81a99.1,99.1,0,0,1-9.55-2.75c-6.34-2.12-12.58-4.59-19.09-6.18a122.7,122.7,0,0,0-21.09-2.79c-3.5-.23-7-.42-10.51-.68-1.59-.12-3.17-.26-4.76-.42-.87-.09-1.74-.21-2.61-.3s1.14.17-.37-.05l-1.29-.19a71.08,71.08,0,0,1-9-2c-1.45-.43-2.88-.91-4.29-1.45l-.87-.35c-1.18-.47.49.24-.4-.17-.68-.31-1.36-.62-2-1a39.54,39.54,0,0,1-3.86-2.19c-.62-.39-1.23-.8-1.82-1.23-.25-.18-1.2-.62-.2-.13a6.11,6.11,0,0,1-.85-.69,32.06,32.06,0,0,1-3.15-3c-.25-.27-.49-.54-.73-.82-.08-.1-1-1.21-.54-.65s-.26-.37-.28-.4l-.82-1.23c-1.37-2.12-4.35-3.19-6.61-1.74s-3.2,4.34-1.73,6.61Z"/></g></g></g></svg>