<svg xmlns="http://www.w3.org/2000/svg" xmlns:xlink="http://www.w3.org/1999/xlink" viewBox="0 0 206.76 245.84"><defs><style>.cls-1{fill:#ebb9bd;}.cls-1,.cls-5{stroke:#715e54;}.cls-1,.cls-12,.cls-13,.cls-17,.cls-5,.cls-7,.cls-8{stroke-miterlimit:10;}.cls-1,.cls-5,.cls-7,.cls-8{stroke-width:1.29px;}.cls-2{fill:#f6e5e6;}.cls-3,.cls-7{fill:#e4b4ab;}.cls-4{opacity:0.44;}.cls-5{fill:none;}.cls-6{opacity:0.69;}.cls-17,.cls-7{stroke:#6d523e;}.cls-12,.cls-8{fill:#ebecef;stroke:#939496;}.cls-9{fill:#d2d5da;}.cls-10{fill:#939496;}.cls-11{opacity:0.54;}.cls-12{stroke-width:0.64px;}.cls-13{stroke:#424944;fill:url(#무제_그라디언트_8);}.cls-14{opacity:0.76;}.cls-15{fill:#f4e8eb;}.cls-16{fill:#e09ea8;}.cls-17{fill:#e9a69b;stroke-width:1.2px;}</style><linearGradient id="무제_그라디언트_8" x1="225.84" y1="212.43" x2="431.31" y2="212.43" gradientTransform="translate(-225.19 -11.11)" gradientUnits="userSpaceOnUse"><stop offset="0.06" stop-color="#d9c3b3"/><stop offset="0.38" stop-color="#efdec7"/><stop offset="0.64" stop-color="#f4e9d9"/><stop offset="0.9" stop-color="#f7f3eb"/></linearGradient></defs><g id="레이어_2" data-name="레이어 2"><g id="레이어_1-2" data-name="레이어 1"><path class="cls-1" d="M183.51,188.92c-18,5.43-32,18.88-37.07,24.17a13.92,13.92,0,0,1-7.37,4.13,31.27,31.27,0,0,1-8.07.43,41.35,41.35,0,0,1-16.24-4.51c-17.34-8.92-41.86-12.63-47.18-13.35-.66-.09-1.32-.14-2-.18-17.34-1.18-45.27-21.27-45.27-21.27-15-7-16.59-17.4-17.73-19.52a3.11,3.11,0,0,0-1.49-1.39,5.36,5.36,0,0,0-.47,2.17v40.83a6.22,6.22,0,0,0,3.8,5.72c98,41.52,128.71,39,128.71,39,38.18-5.81,64.19-35.88,71.12-44.76a8.75,8.75,0,0,0,1.85-5.39V160.94C204.66,184.69,183.51,188.92,183.51,188.92Z"/><path class="cls-1" d="M205.58,153.51c-1.19-3.27-3.84-6.61-5.76-8.75a9.86,9.86,0,0,1-2.5-5.84l-.84-11.25c-.85-10.74-5.82-16.52-5.82-16.52C172.77,90,129.49,75.36,129.49,75.36c-23.75-10.09-36.11-5.86-40-2C86,76.9,88.74,95.76,89.36,99.7a8,8,0,0,1,.08,1.47c-.74,19-5.59,17.6-12.33,27.55s-21.8,12-21.8,12L39.69,134.9c-14-5.85-22.45-2.6-22.45-2.6s-8.14,1.95-11.06,13c-1.77,6.66-3.42,9.67-4.45,11a4.85,4.85,0,0,0-.62,1.11,3.11,3.11,0,0,1,1.49,1.39c1.14,2.12,2.76,12.53,17.73,19.52,0,0,27.93,20.09,45.27,21.27.66,0,1.32.09,2,.18,5.32.72,29.84,4.43,47.18,13.35A41.35,41.35,0,0,0,131,217.65a31.27,31.27,0,0,0,8.07-.43,13.92,13.92,0,0,0,7.37-4.13c5-5.29,19.09-18.74,37.07-24.17,0,0,21.15-4.23,22.61-28V156.7A9.34,9.34,0,0,0,205.58,153.51Z"/><path class="cls-2" d="M98.17,85.48c8.94,2.59,17.79,5.48,26.48,8.81,2.11.8,4.2,1.63,6.29,2.49.55.23,1.1.49,1.67.69-.16-.06-1.35-.57-.3-.12l.62.26,3.31,1.45q6.38,2.84,12.57,6t11.95,6.75c2,1.21,4,2.46,5.88,3.75.89.58,1.77,1.17,2.64,1.78.46.32.91.65,1.36,1l.51.38c.64.46-1.06-.85-.15-.11a40.75,40.75,0,0,1,4.64,4.46c.57.63-.72-1-.23-.32.11.17.24.33.36.51.31.45.61.91.88,1.38s.45.8.65,1.21c.11.23.44,1,.08.11s.06.18.11.31a22.24,22.24,0,0,1,.8,2.79,6.6,6.6,0,0,0,.24,1.34c-.05-.11-.16-1.65-.08-.56,0,.33.06.65.08,1a28.83,28.83,0,0,1,0,2.94c0,.46-.09.92-.12,1.38,0,.72.12-.78.11-.73-.1.37-.13.78-.2,1.17q-.27,1.36-.66,2.7c-.15.5-.32,1-.49,1.51-.09.25-.19.49-.28.74-.3.81.05-.19.19-.44a58.2,58.2,0,0,1-3,5.31c-.92,1.28.64-.76-.07.11-.33.41-.67.82-1,1.21-.7.79-1.43,1.55-2.19,2.27s-1.45,1.34-2.21,2l-.46.37c-.83.69.27-.21.37-.27-.49.32-1,.71-1.44,1a65.36,65.36,0,0,1-10.62,5.79c1.66-.75-.12,0-.55.21s-1,.39-1.53.57c-1.17.43-2.35.83-3.54,1.21-2.3.72-4.63,1.34-7,1.84-1.14.25-2.28.47-3.43.66l-1.62.26c-1.17.18.16,0,.33,0a11.13,11.13,0,0,1-1.16.14q-3.58.42-7.2.49a144,144,0,0,1-15.26-.74c-5-.43-10-.86-14.94-1.46a6.8,6.8,0,0,0-1.71-.22c.17-.16,1.23.17.26,0l-.95-.13c-1.27-.18-2.53-.38-3.8-.6q-3.67-.62-7.32-1.39a195.86,195.86,0,0,1-27.86-8.28c-2.28-.85-4.54-1.74-6.8-2.65-1.09-.44-2.18-.9-3.26-1.35-.35-.14-1-.57.23.1-.2-.11-.44-.18-.65-.27l-1.95-.84q-6.7-2.91-13.32-6-3.21-1.5-6.39-3c-3-1.45-7.1-.94-8.81,2.31-1.52,2.88-.94,7.26,2.31,8.81C39,156.39,58,164.92,78,169.88a212.39,212.39,0,0,0,32.11,5c5.25.48,10.5,1,15.77,1.18a90.37,90.37,0,0,0,16.35-1,78.36,78.36,0,0,0,27.84-9.6c8.46-5,15.45-12,19.14-21.15,3.57-8.88,3.19-20.18-2.63-28.06a46.72,46.72,0,0,0-11.61-10.6q-6-4.09-12.31-7.69c-17-9.76-35.42-17.07-54.13-22.87q-3.44-1.07-6.88-2.06a6.51,6.51,0,0,0-7.93,4.49,6.58,6.58,0,0,0,4.5,7.93Z"/><path class="cls-3" d="M89.14,111.48c-1.88,9.28-6,10-11.32,17.89-6.83,10.09-21.8,12-21.8,12s74.09,26.8,108.32,3.48C164.34,144.89,163.85,128.1,89.14,111.48Z"/><g class="cls-4"><path class="cls-2" d="M23.77,173.28,43,185.16C49.3,189,55.4,193,62.61,194.89s14.71,2.57,22,3.55l2.63.35,1.19.16c-1.39-.19.21,0,.42.05q2.85.39,5.72.82c3.49.52,7,1.1,10.43,1.79,7.27,1.45,14.36,3.75,21.72,4.74a41.44,41.44,0,0,0,12.08,0,37.42,37.42,0,0,0,9.22-2.89c5.24-2.28,9.93-5.58,14.63-8.79,2.44-1.67,4.89-3.32,7.43-4.82,1.1-.64,2.21-1.26,3.35-1.83.68-.34,1.37-.66,2.06-1,1.23-.56-1.31.49.13-.05.43-.16.85-.33,1.28-.48,3.77-1.39,7.67-2.56,11.14-4.63a31.94,31.94,0,0,0,7.95-6.7,34.25,34.25,0,0,0,8.2-20,5.66,5.66,0,0,0-5.63-5.63,5.76,5.76,0,0,0-5.64,5.63c0,.37-.06.73-.09,1.1-.09,1.3.25-1.32,0,0-.11.6-.21,1.2-.35,1.8a30.17,30.17,0,0,1-1.21,3.85c-.46,1.21.57-1.15,0,0-.13.27-.26.55-.4.83-.3.6-.62,1.19-1,1.78s-.64,1-1,1.55l-.53.75c-.84,1.15.61-.68-.13.17a36.86,36.86,0,0,1-2.65,2.8c-.25.23-1.2,1.33-1.53,1.31.19,0,.92-.67.26-.21-.4.28-.8.57-1.21.83a32,32,0,0,1-3.3,1.81c-1.36.67,1.09-.39-.33.15l-1.28.48c-.86.32-1.73.62-2.59.92a71.67,71.67,0,0,0-16.11,8.19c-4.66,3.11-9.18,6.47-14.16,9.07-.55.29-1.11.57-1.67.84l-1,.46c-1.14.53.92-.35.15-.06a39.58,39.58,0,0,1-4.07,1.35q-.9.24-1.83.42a7.08,7.08,0,0,1-1.12.19c1.17,0,.38-.05.1,0a39.07,39.07,0,0,1-5.62.06,18.36,18.36,0,0,1-2.34-.23c1.24.24.18,0-.14,0l-1.17-.2c-1.79-.32-3.58-.71-5.35-1.14-3.34-.8-6.64-1.7-10-2.44-6.89-1.54-13.89-2.55-20.88-3.5l-6-.8L83.23,187c-.2,0-1.81-.24-.42-.06L80,186.53c-3.44-.48-6.89-1-10.3-1.61-1.81-.35-3.61-.75-5.38-1.26-.88-.26-1.75-.54-2.61-.86-.2-.08-1.65-.56-.35-.12a10.72,10.72,0,0,1-1.24-.57A115.45,115.45,0,0,1,50,176.2L29.46,163.55a5.64,5.64,0,0,0-5.69,9.73Z"/></g><path class="cls-5" d="M54,140.12s102.82,39.69,121.69-10.74"/><g class="cls-6"><path class="cls-3" d="M55.23,170.72a17,17,0,0,1-13.45,16.66c-2,.4-1.17,3.5.86,3.1a20.18,20.18,0,0,0,15.81-19.76c0-2.07-3.26-2.08-3.22,0Z"/></g><g class="cls-6"><path class="cls-3" d="M134.29,187.18c.9,4.7,1.9,9.71.71,14.45-.89,3.57-3.12,7.1-6.72,8.4-1.94.7-1.1,3.82.85,3.11,4.46-1.61,7.45-5.49,8.78-9.95,1.64-5.5.54-11.37-.51-16.87-.39-2-3.49-1.17-3.11.86Z"/></g><g class="cls-6"><path class="cls-3" d="M185.24,164.89A12.71,12.71,0,0,0,193.53,178a1.61,1.61,0,0,0,.86-3.1,10.63,10.63,0,0,1-2.49-1.44,9.14,9.14,0,0,1-2.1-2.44,8.31,8.31,0,0,1-1.19-2.9,7.88,7.88,0,0,1-.17-.87c0,.18,0,.05,0,0s0-.32,0-.48a9.61,9.61,0,0,1,.06-1.78,1.61,1.61,0,0,0-3.22,0Z"/></g><path class="cls-7" d="M15.86,71.48S2.92,73.43,2.92,91,16.83,119.31,41,121.75c0,0,36.61,1.71,43.44,7.56,0,0,53.44,20.5,88.1-2.44,0,0,24.65-11.71,28.31-32.94l-2-24.65-1.95-2.68L178.87,36.09,105.17,9s-6.1.25-7.32,10S93,40.24,114.69,49.76c0,0,48.08,12.69,53.2,25.62s-8.54,20.74-8.54,20.74L53.2,87.34Z"/><path class="cls-8" d="M35.87,61.6a4.36,4.36,0,0,0,4,1.81,14.46,14.46,0,0,0,2.81-.66,10.13,10.13,0,0,1,6.19-.21,3.51,3.51,0,0,1,1.75,1.2c2.71,3.56,2.07,6.33,2.07,6.33L49.29,89.23l-7.42,5.15a4.22,4.22,0,0,1-2.51.83h-4a3.43,3.43,0,0,1-1.81-.52l-4.19-2.62a3.41,3.41,0,0,0-1.82-.52H24a4.86,4.86,0,0,1-2.39-.61,12.78,12.78,0,0,1-5-5.25c-2.44-4.64-1.71-19-1.71-19,1.95-8.78,8.06-7.56,8.06-7.56l7.39,0a6.64,6.64,0,0,1,4.21,1.47Z"/><path class="cls-8" d="M63.08,68.49H57a4.87,4.87,0,0,0-1.92.38c-2.21.93-7.23,3.62-7,8.77l.61,13.42s.49,6.22,2.08,7.81c1.42,1.42,2.06,2.75,6.15,3.53a4.75,4.75,0,0,1,2,1c.61.49,2,1,5.13,1.12,5.62.12,9.52-6,9.52-6l3.78-4,5.86-16a9.1,9.1,0,0,0-3-4.09,3.44,3.44,0,0,0-2.16-.81l-2.94-.06a4.1,4.1,0,0,1-3-1.45,13.6,13.6,0,0,0-3.69-3.24,3.4,3.4,0,0,0-1.57-.35Z"/><path class="cls-8" d="M75.77,94.35c-.07-.49,0-3.48,0-5.38a9.46,9.46,0,0,1,1-4.11A13.88,13.88,0,0,1,84,78a5.36,5.36,0,0,1,2-.38h7.28a5.72,5.72,0,0,1,3.45,1.15l3.77,2.85a5.35,5.35,0,0,1,2.14,4.29V97.12A3,3,0,0,1,102,99c-1.85,2.36-7.44,9.11-13,11.87a6,6,0,0,1-6.32-.59C80.14,108.32,77.1,104,75.77,94.35Z"/><path class="cls-8" d="M103.89,86.72l3.46-3.38a6.05,6.05,0,0,1,3.82-1.7l6.43-.4a8.33,8.33,0,0,1,2.23.16c3,.62,10.55,2.61,10.79,6.61.11,1.89,0,9.72,0,11.77a3.29,3.29,0,0,1-.13.88c-.71,2.38-4.3,13.31-11,15-4.77,1.24-7.51.15-8.87-.8a4,4,0,0,1-1.4-1.73l-6.32-14.7a4.34,4.34,0,0,1-.36-1.74V89.83A4.34,4.34,0,0,1,103.89,86.72Z"/><path class="cls-8" d="M131.75,87l6.61-6A4.16,4.16,0,0,1,141,79.88l9.65-.51a2.88,2.88,0,0,1,1.16.18,25.53,25.53,0,0,1,4.38,2,4.46,4.46,0,0,1,2.11,3.81V99.21a7.89,7.89,0,0,1-.26,2.05c-1,3.92-5,17.44-11.82,17.86,0,0-4.83.48-9.08-10.92a3.17,3.17,0,0,0-.17-.38c-.46-.88-2.49-4.59-4.86-6.34a3.83,3.83,0,0,1-1.55-3.12l.09-8.83A3.51,3.51,0,0,1,131.75,87Z"/><path class="cls-8" d="M114,25.07a2.58,2.58,0,0,1,1.73.66c1.1,1,3.38,2.73,5.65,2.73,3.18,0,5.62-3.39,5.62-3.39l6.85-13.2s.59-4-2.1-5.74a6.72,6.72,0,0,0-4.15-.93,4.46,4.46,0,0,1-3.33-1.12L122,2A5.38,5.38,0,0,0,118.39.64h-4.87a5.8,5.8,0,0,0-2.49.55c-1.63.76-4.26,2.36-5.25,5.07-1.22,3.37-.39,9.39-.09,11.26a4.85,4.85,0,0,0,.32,1.11,22,22,0,0,0,2.87,5.08,3.8,3.8,0,0,0,2.91,1.36Z"/><path class="cls-9" d="M115.16,18.72c-.09,0-.66-.33-.24-.08s0-.06-.09-.13c-.25-.21.26.48,0,0a3.75,3.75,0,0,0-.24-.44c.34.56.06.12,0-.09s-.14-.48-.2-.73-.08-.4-.11-.6c.08.47,0,0,0-.22a46.14,46.14,0,0,1-.19-5.76c0-.2,0-.39,0-.58,0-.62-.08.22,0-.14s.19-.81.32-1.22c-.08.26-.18.37,0,.07,0,0,.44-.66.16-.28s.2-.2.22-.22c.35-.38,0,.1-.11.05l.48-.32.2-.1c.22-.11.13-.08-.26.09,0-.06.35-.11.42-.13l.3-.08h-.1a7.93,7.93,0,0,1,1.38,0c-.34-.05-.17,0,.07,0l.91.22a3.27,3.27,0,0,0,4-2.25,3.28,3.28,0,0,0-2.25-4c-2.7-.71-5.75-.85-8.17.76a9.11,9.11,0,0,0-4,7.15,34.56,34.56,0,0,0,.21,7.4c.34,2.71,1.3,5.86,4,7.11a3.29,3.29,0,0,0,4.4-1.16c.76-1.42.48-3.64-1.15-4.4Z"/><path class="cls-9" d="M124.24,9.49a.82.82,0,0,1,.2.12l-.33-.25a1.7,1.7,0,0,1,.19.19l-.25-.32c.21.28.34.61.54.9a2.75,2.75,0,0,0,1.81,1.25,4,4,0,0,0,3.69-1.31,1.73,1.73,0,0,0,.48-1.14,1.66,1.66,0,0,0-.48-1.14,1.61,1.61,0,0,0-2.27,0,2.44,2.44,0,0,1-.43.42l.33-.25a3,3,0,0,1-.52.3l.38-.16a2.66,2.66,0,0,1-.63.17l.43-.06a2,2,0,0,1-.55,0l.43.06a2.11,2.11,0,0,1-.36-.09l.38.16A1.58,1.58,0,0,1,127,8.2l.33.26a1.89,1.89,0,0,1-.2-.2l.26.32c-.18-.24-.3-.51-.46-.77a2.77,2.77,0,0,0-1.1-1.1,1.73,1.73,0,0,0-1.24-.16,1.61,1.61,0,0,0-.39,2.94Z"/><path class="cls-9" d="M141.82,81.1a19.57,19.57,0,0,0-7.34,7.36A14.75,14.75,0,0,0,132.84,94c-.2,2,.09,3.92,0,5.88a3.24,3.24,0,0,0,3.22,3.22,3.3,3.3,0,0,0,3.22-3.22c.11-1.71-.09-3.42,0-5.13,0-.25,0-.5.05-.75,0-.51-.1.46,0,0s.13-.63.21-.93c0-.05.33-1,.34-1s-.29.6,0,.11l.27-.53A6.79,6.79,0,0,1,141.13,90c-.17.16-.31.37-.06.08l.32-.37c.24-.28.49-.54.75-.8s.47-.45.72-.66l.46-.4c.29-.25.08-.13-.07,0a8.16,8.16,0,0,1,1.82-1.22,3.22,3.22,0,0,0-3.25-5.56Z"/><path class="cls-9" d="M30.5,61.72c-3.49.44-7.1-.79-10.33,1.17-3.62,2.19-4.44,6.52-4,10.42.44,3.72,1,7.66,3,10.89a12,12,0,0,0,8.85,5.74c1.73.22,3.22-1.63,3.22-3.22,0-1.92-1.49-3-3.22-3.22.63.08-.33-.12-.38-.13-.53-.12,0,.06-.25-.07a8.13,8.13,0,0,1-.82-.45c-.14-.09-.58-.42-.25-.15a9.68,9.68,0,0,1-1.24-1.24c-.14-.17-.14-.16,0,0L25,81.22c-.17-.27-.34-.54-.5-.82A12.73,12.73,0,0,1,23.27,77c-.16-.67-.29-1.35-.4-2s-.18-1.15-.24-1.63a19.59,19.59,0,0,1-.15-2,7.13,7.13,0,0,1,.06-1.22c-.07.41.15-.51.15-.49l.1-.3v0a4.66,4.66,0,0,1,.4-.68c-.39.51.44-.38,0,0,.09-.07.89-.47.39-.27a4.62,4.62,0,0,1,.79-.21c.31-.07-.26,0,.29,0s1.26,0,1.89,0a22.27,22.27,0,0,0,4,0,3.34,3.34,0,0,0,3.22-3.22c0-1.57-1.48-3.45-3.22-3.22Z"/><path class="cls-9" d="M61.48,70a10.33,10.33,0,0,0-8.11,4.22c-2,2.72-2,6-1.95,9.2,0,3.47-.12,7,0,10.43.16,3.91,2.83,5.87,6.29,7a3.22,3.22,0,1,0,1.71-6.21l-.65-.21c-.08,0-.5-.2-.21-.07A5,5,0,0,1,58,94c-.15-.08-.36-.32-.15-.09s-.08,0-.07-.13c0,0,.12,0,.12.06,0-.63,0-1.26,0-1.89l0-8c0-1.24,0-2.49,0-3.72a4.27,4.27,0,0,1,.57-2,3.68,3.68,0,0,1,3-1.72c4.14-.08,4.16-6.52,0-6.44Z"/><path class="cls-9" d="M99.06,83.75c-2.79-2.84-6.6-5.34-10.75-5.14-4,.19-7.85,2.56-9,6.52-.64,2.23-.36,4.75-.35,7s0,4.5,0,6.75c.1,4.15,1.32,9,5.52,10.82a3.32,3.32,0,0,0,4.4-1.16c.8-1.36.45-3.7-1.15-4.4A3,3,0,0,1,86,102.43a11.18,11.18,0,0,1-.55-4.19c0-3.47-.11-7,0-10.42a3.74,3.74,0,0,1,.07-.75c0-.14.29-.78.09-.38,0,0,.54-.77.24-.42,0-.06.61-.58.4-.41a4.49,4.49,0,0,1,2.1-.81c2.39,0,4.41,1.44,6.2,3.25,2.9,3,7.46-1.59,4.55-4.55Z"/><path class="cls-9" d="M110,83.21a15.1,15.1,0,0,0-3.15,2.87,9.32,9.32,0,0,0-1.56,4.21,55.31,55.31,0,0,0-.83,10,1.61,1.61,0,0,0,3.22,0,51.3,51.3,0,0,1,.61-8.58,9.39,9.39,0,0,1,1-3.55A9.33,9.33,0,0,1,111.66,86a1.65,1.65,0,0,0,.58-2.2,1.62,1.62,0,0,0-2.2-.58Z"/><path class="cls-8" d="M127.75,30.73A4.16,4.16,0,0,0,130,32.55c9.09,3.06,6.54,3.89,9.57,4.94s4.8,0,4.8,0l9.11-6.1,3.3-7.73A12.38,12.38,0,0,0,155,16.31a4.07,4.07,0,0,0-3.39-1.91l-3.45-.06a4.32,4.32,0,0,1-3.26-1.56c-1.09-1.29-2.77-3-4.31-3.35s-3,.59-4,1.41a4.17,4.17,0,0,1-2.71,1h-1.39a3.66,3.66,0,0,0-3.06,1.65s-4.11,3.84-4,9A15.94,15.94,0,0,0,127.75,30.73Z"/><path class="cls-9" d="M136.85,14A3.44,3.44,0,0,0,140,16.5c.61.08,1.18.09,1.71.2a7.92,7.92,0,0,1,1,.24l.48.16.19.08.29.14s.34.23.24.15.16.21,0,0a2.58,2.58,0,0,1,.19.37,3,3,0,0,0,1.34,1.49,6.11,6.11,0,0,0,4.47-.05,1.61,1.61,0,0,0-.86-3.11,4.6,4.6,0,0,1-1.36.31h-.41l-.35,0c.15,0-.16-.1,0,0l.15.1a4.57,4.57,0,0,0-.22-.5,3.73,3.73,0,0,0-.52-.73A3.84,3.84,0,0,0,145,14.4a11,11,0,0,0-3.42-1c-.52-.07-1-.07-1.37-.16,0,0-.35-.12-.22-.06s-.16-.16,0,0,.06,0,0,0-.07-.08,0,0,.15.45.06,0A1.63,1.63,0,0,0,138,12a1.65,1.65,0,0,0-1.12,2Z"/><path class="cls-9" d="M127.44,21.5c-.37,3.54-.25,8.76,3.46,10.55a11.94,11.94,0,0,0,3.34.72c-.59-.11.91.41.35.12a5.71,5.71,0,0,1,.84.54c-.35-.27.41.39.49.46.28.26.55.53.84.77A5.42,5.42,0,0,0,140.12,36c7.62.47,15.13-5.34,15.4-13.15a3.22,3.22,0,0,0-6.44,0,5.86,5.86,0,0,1-.69,2.51,8,8,0,0,1-.54.88l-.2.28c.1-.15.09-.14-.05,0s-.4.43-.61.64c0,0-.74.64-.43.4a8.69,8.69,0,0,1-3.06,1.55,13.62,13.62,0,0,1-1.71.39,6.77,6.77,0,0,0-1.67,0l.8.2c.19.15.21.15,0,0a3.62,3.62,0,0,0-.61-.56,16.89,16.89,0,0,0-1.94-1.55,9.75,9.75,0,0,0-4.52-1.38c-.42-.06-.27-.16-.12,0s.27.27.4.42c-.34-.41,0,.25-.11-.28,0-.25-.11-.49-.16-.75a17.3,17.3,0,0,1,0-4.2c.18-1.73-1.61-3.22-3.22-3.22a3.29,3.29,0,0,0-3.22,3.22Z"/><path class="cls-8" d="M164.72,42.13l-7.93.59A3.75,3.75,0,0,1,153.35,41a16,16,0,0,1-2.42-7.33V27.83a6.28,6.28,0,0,1,3.13-5.51,13.6,13.6,0,0,1,4-1.38,3.18,3.18,0,0,0,1.55-.78c.78-.72,2.51-1.82,5.92-2.07,5.13-.36,7.17,8.52,7.17,8.52Z"/><path class="cls-9" d="M152.78,32.94c.12.39.19.8.32,1.19a7.34,7.34,0,0,0,.72,1.62,8.08,8.08,0,0,0,2.39,2.48,7.35,7.35,0,0,0,3.46,1.16,4.66,4.66,0,0,0,1.12,0,7.18,7.18,0,0,0,1.94-.38,3.45,3.45,0,0,0,1.92-1.48,3.2,3.2,0,0,0-1.15-4.4,3.14,3.14,0,0,0-2.48-.33,4.81,4.81,0,0,1-1,.26l.86-.12a4.53,4.53,0,0,1-1.22,0l.85.12a5,5,0,0,1-1.07-.3l.77.32a4.21,4.21,0,0,1-.94-.55l.65.5a4.44,4.44,0,0,1-.75-.75l.5.65a4.78,4.78,0,0,1-.59-1l.33.77c-.2-.48-.28-1-.43-1.48A3.21,3.21,0,0,0,155,29a3.21,3.21,0,0,0-1.92,1.48,3.31,3.31,0,0,0-.33,2.48Z"/><path class="cls-8" d="M178.63,46.64a13.58,13.58,0,0,1-10.92,4.52s-2.52,1.11-4.09-9.88c-.12-.86-2.44-13.18,7.5-13.3,0,0,3.12-3.54,7.51-2.81s7.69,6.83,8.17,12.32Z"/><path class="cls-9" d="M167.31,34.93a27.37,27.37,0,0,0,.64,5.78c.46,2.13,1.1,4.35,3.06,5.57a3.26,3.26,0,0,0,4.41-1.15,3.3,3.3,0,0,0-1.16-4.41l-.2-.14.65.5a2.13,2.13,0,0,1-.26-.26l.5.65a3.13,3.13,0,0,1-.38-.66l.32.77a18.61,18.61,0,0,1-1-4.42L174,38a24.38,24.38,0,0,1-.2-3.08,3.22,3.22,0,1,0-6.44,0Z"/><path class="cls-8" d="M189.64,58.24l-10.77,3.41a4.56,4.56,0,0,1-3.66-.85c-1.71-1.34,0-7.32,0-7.32s3.3-13.06,11.84-17.33,8,8.18,8.29,11.47Z"/><path class="cls-9" d="M184.26,42.36c.08.16.16.32.25.48.18.35-.24-.73,0-.06.09.31.16.63.25.94s-.05-.81,0-.1l0,.44a5.25,5.25,0,0,1,0,1.08s.15-.81,0-.1c0,.14-.07.28-.11.42s-.11.5-.17.51.33-.68,0-.07a8.37,8.37,0,0,1-.48.82c-.31.49.33-.37.08-.08l-.34.39a25.29,25.29,0,0,1-2.85,2.52,18.35,18.35,0,0,0-3.2,3.33,3.21,3.21,0,0,0-.33,2.48,3.25,3.25,0,0,0,1.48,1.92,3.33,3.33,0,0,0,4.41-1.15c-.58.77.18-.19.35-.37s.49-.48.74-.71c.54-.49,1.11-.94,1.67-1.4a18.39,18.39,0,0,0,3.43-3.51,10.58,10.58,0,0,0,.45-11,3.22,3.22,0,1,0-5.56,3.25Z"/><path class="cls-8" d="M184.24,66.41v-2a3.61,3.61,0,0,1,.77-2.23c2-2.54,7.3-9.52,8.87-14,0,0,.24-2.08,2.07-2.08a2.43,2.43,0,0,1,2.14,1.75,2.57,2.57,0,0,1,.19,1c0,2,.1,10.37-1.84,12.52Z"/><path class="cls-9" d="M192.28,53.34a7.94,7.94,0,0,1,0,1.29c0,.25.05-.22,0,0s0,.2-.06.3-.11.44-.18.66a5.54,5.54,0,0,1-.21.57c.07-.15,0-.06,0,0l-.18.34a8.9,8.9,0,0,1-.68,1.11c-.06.09-.13.17-.19.25l0,0-.41.47c-.29.33-.61.65-.93,1-.66.64-1.36,1.23-2.06,1.82a1.61,1.61,0,0,0,0,2.28,1.65,1.65,0,0,0,2.27,0c3-2.54,6.37-5.82,5.9-10.15a1.66,1.66,0,0,0-1.61-1.61c-.79,0-1.71.72-1.61,1.61Z"/><path class="cls-8" d="M186.44,65.68s6-9.27,9-10.49c0,0,1.83-.25,2.07,2,0,0-.85,19.76-3,25S191,87.4,191,87.4s-1.46,1.46-3.54-5.49S186.44,65.68,186.44,65.68Z"/><path class="cls-8" d="M173.87,73.61s.12-2.56,3.29-4.51l8-4.49a1.75,1.75,0,0,1,2.26.45c1.87,2.48,4.74,10-2.22,30.63,0,0-1.43,3.06-3.46,0,0,0-5.57-7.93-6.3-8Z"/><path class="cls-9" d="M185.06,65.84q-2.52,1.56-4.94,3.31c-1.49,1.08-3.06,2.14-3.74,3.93a18,18,0,0,0-.63,5.85,62.29,62.29,0,0,0,.19,6.41c.16,2,3.39,2.07,3.22,0-.15-1.9-.23-3.8-.2-5.7a21.11,21.11,0,0,1,.33-5.09c.35-1.36,1.8-2.15,2.87-2.92q2.22-1.59,4.53-3c1.76-1.09.14-3.88-1.63-2.78Z"/><path class="cls-8" d="M158.25,94.84a10.49,10.49,0,0,1,5.13,6.35c3.78,9.88,7.2,8.54,7.2,8.54,3.64-1,6-18.44,6.48-22.65a14.72,14.72,0,0,0,.1-1.76V76.53a3.71,3.71,0,0,0-.36-1.61l-.74-1.53a1.76,1.76,0,0,0-1.59-1H173.3a3.45,3.45,0,0,0-1.68.44l-12.23,7a2.25,2.25,0,0,0-1.14,2Z"/><path class="cls-9" d="M172.56,74.41a62.94,62.94,0,0,0-8.17,5.33,9.8,9.8,0,0,0-2.66,2.71,10.57,10.57,0,0,0-1.09,4.32c-.27,2.87-.45,5.88.79,8.56a22.89,22.89,0,0,0,2.24,3.28,9.2,9.2,0,0,1,1.66,4.14,1.68,1.68,0,0,0,1.61,1.61c.79,0,1.73-.75,1.61-1.61a13.83,13.83,0,0,0-2.94-6.88,8.4,8.4,0,0,1-1.75-3.36,14.3,14.3,0,0,1-.14-4,14,14,0,0,1,.53-3.82A6.49,6.49,0,0,1,166.76,82a61.86,61.86,0,0,1,7.42-4.75c1.82-1,.2-3.78-1.62-2.79Z"/><path class="cls-10" d="M19.91,64.43,20,64.3l0,0c-.05,0,0,0,0,0l.19-.21.23-.2s0,0,0,0,0,0,.06,0l.12-.09.25-.14.12-.06c.05,0,.05,0,0,0l.07,0a3.4,3.4,0,0,1,.57-.15.4.4,0,0,0,.28-.49.41.41,0,0,0-.5-.28A3.29,3.29,0,0,0,19.22,64a.4.4,0,1,0,.69.41Z"/><path class="cls-10" d="M20.45,66.55A9.6,9.6,0,0,1,25,68.66c1.07.92,1.86,2.17,3.08,2.93,2.12,1.33,4.76.85,7.12.81a6.68,6.68,0,0,1,4.11.93c1,.73,1.77,1.65,3.14,1.48,2.48-.3,4.73-2.4,6-4.44a.4.4,0,0,0-.69-.41,9.14,9.14,0,0,1-3.05,3.1,7.49,7.49,0,0,1-2,.88c-1.09.27-1.77-.37-2.56-1-1.74-1.39-3.85-1.41-6-1.31a18.14,18.14,0,0,1-3.61,0A6,6,0,0,1,26.9,69.5a11.06,11.06,0,0,0-6.24-3.72c-.5-.1-.72.68-.21.77Z"/><path class="cls-10" d="M26.12,65a12,12,0,0,0,3.18,2.43A10.52,10.52,0,0,0,33.09,69c2.58.41,6.15-1.09,8.1,1.29.33.4.9-.17.57-.57-1.76-2.15-4.71-1.49-7.12-1.43a8.22,8.22,0,0,1-4.37-1.22,12.45,12.45,0,0,1-3.58-2.64c-.33-.4-.89.17-.57.57Z"/><path class="cls-10" d="M33.89,68.63l2.93-2.28a.4.4,0,0,0-.57-.57l-2.93,2.28a.41.41,0,0,0,0,.57.42.42,0,0,0,.57,0Z"/><path class="cls-10" d="M53.84,72.11a1.75,1.75,0,0,0,.4,3.44.4.4,0,1,0,0-.8h-.11c.09,0,0,0,0,0l-.11,0,0,0-.18-.09-.06,0-.05,0-.15-.16c0,.06,0,0,0,0l-.06-.09s-.05-.12,0,0l0-.09a.35.35,0,0,1,0-.11.07.07,0,0,1,0,0v0a.74.74,0,0,1,0-.21c0-.11,0,.07,0,0l0-.11,0-.1c0-.08,0,0,0,0a1.62,1.62,0,0,1,.1-.18l0,0a.27.27,0,0,1,.07-.08.6.6,0,0,1,.08-.08s.1-.07,0,0l.19-.11c.07,0,0,0,0,0l.12,0a.4.4,0,0,0-.21-.78Z"/><path class="cls-10" d="M57.44,76.83c.91.41,1.38,1.26,2.07,1.93a3.47,3.47,0,0,0,2.18,1,32.17,32.17,0,0,1,3.67.26,11,11,0,0,1,3.53,1.4,8.64,8.64,0,0,0,2.49,1.36,6.21,6.21,0,0,0,2.93-.26c1.63-.44,3.21-1.33,3.69-3.05a.4.4,0,0,0-.78-.21c-.51,1.84-2.65,2.5-4.35,2.73-2.09.29-3.65-1.5-5.5-2.22A16.82,16.82,0,0,0,62,79a3.33,3.33,0,0,1-2.54-1.46,4.93,4.93,0,0,0-1.63-1.38c-.46-.21-.87.48-.4.7Z"/><path class="cls-10" d="M60.79,73a1.41,1.41,0,0,1-.42,1.59.4.4,0,0,0,0,.69c1.47.74,3,1.41,4.51,2a.4.4,0,0,0,.49-.28.39.39,0,0,0-.28-.49q-2.19-.88-4.32-1.94v.69a2.21,2.21,0,0,0,.8-2.49.41.41,0,0,0-.5-.28.4.4,0,0,0-.28.49Z"/><path class="cls-10" d="M71,74.9c0,.09,0-.05,0-.07a1.09,1.09,0,0,1,.08-.15l0-.06,0,0s0,0,0,0l.06-.07.22-.2c.06,0,0,0,0,0l.06,0,.14-.09.14-.07.07,0c-.08,0,0,0,0,0a1.81,1.81,0,0,1,.31-.09l.08,0c.08,0,0,0,0,0a.92.92,0,0,0,.16,0,1.82,1.82,0,0,1,.33,0,.41.41,0,0,0,.41-.4.42.42,0,0,0-.41-.4,2.42,2.42,0,0,0-1.51.33,2.5,2.5,0,0,0-1,1.22.41.41,0,0,0,.28.5.42.42,0,0,0,.5-.28Z"/><path class="cls-10" d="M81.53,83.24c1.39-1.75,4.09-1.7,6.13-1.55,2.57.19,4,2.1,5.15,4.19.89,1.58,1.93,2.92,3.93,2.67A5.14,5.14,0,0,0,99,87.61a22.66,22.66,0,0,1,2.55-2.15c.46-.24.06-.93-.4-.69-1.87,1-3.17,3.69-5.68,2.9-1.25-.39-1.75-1.81-2.36-2.84a11.09,11.09,0,0,0-1.76-2.32C89.83,81,88,80.82,85.9,80.86c-1.8,0-3.75.31-4.94,1.81-.31.4.25,1,.57.57Z"/><path class="cls-10" d="M92.2,84l3.91,1.3c.49.17.7-.61.21-.77l-3.9-1.31c-.5-.16-.71.62-.22.78Z"/><path class="cls-10" d="M94.17,83.49h0v.1a.67.67,0,0,1,0-.2v.11a.79.79,0,0,1,.06-.22l0,.1a.82.82,0,0,1,.12-.2l-.07.08a1.37,1.37,0,0,1,.17-.17l-.08.06a1.32,1.32,0,0,1,.2-.12l-.1,0a.66.66,0,0,1,.2-.06l-.11,0h.07a.44.44,0,0,0,.28-.12.42.42,0,0,0,.12-.28.45.45,0,0,0-.12-.29.38.38,0,0,0-.28-.11,1.24,1.24,0,0,0-.54.14,1.31,1.31,0,0,0-.36.3,1.52,1.52,0,0,0-.27.48,1.37,1.37,0,0,0,0,.28,2.46,2.46,0,0,0,0,.28.39.39,0,0,0,.19.24.37.37,0,0,0,.31,0,.4.4,0,0,0,.24-.18l0-.1a.38.38,0,0,0,0-.21Z"/><path class="cls-10" d="M162,80.62a54.82,54.82,0,0,0,12-6c.43-.28,0-1-.41-.69a54,54,0,0,1-11.81,5.88c-.48.17-.27.94.22.77Z"/><path class="cls-10" d="M162.91,81.82a22.85,22.85,0,0,0,0,4.75c.22,1.71,1.08,3,1.61,4.58.59,1.76.41,3.85.47,5.68l.22,5.81c0,.51.82.52.8,0l-.21-5.81a32.09,32.09,0,0,0-.32-5.19c-.33-1.62-1.37-3-1.69-4.59a20.34,20.34,0,0,1-.07-5.23c0-.52-.76-.51-.8,0Z"/><path class="cls-10" d="M186.59,66.76c-.85,1.72-2.62,2.49-4.18,3.43A8.35,8.35,0,0,0,178.82,74a12.84,12.84,0,0,0-.84,6c.16,2.62.58,5.23.89,7.83.06.51.87.52.81,0-.3-2.41-.66-4.82-.85-7.24a12.11,12.11,0,0,1,1-6.75c1.67-3.16,5.91-3.48,7.48-6.66.23-.46-.46-.87-.69-.41Z"/><path class="cls-10" d="M195.24,50.24a1.57,1.57,0,0,1,.63,1.5,4.82,4.82,0,0,0,.29,2.41c.25.45,1,0,.7-.41-.39-.71-.13-1.57-.2-2.33a2.14,2.14,0,0,0-1-1.87c-.47-.22-.88.47-.41.7Z"/><path class="cls-10" d="M190.15,38.53c.7.23,1,1,1.11,1.68.25,1,.4,2.09.59,3.14.09.51.87.29.77-.21l-.34-1.91c-.09-.5-.17-1-.31-1.51a2.67,2.67,0,0,0-1.6-2c-.5-.16-.71.61-.22.77Z"/><path class="cls-10" d="M191.39,47.88A7.87,7.87,0,0,1,187,53a.4.4,0,0,0-.14.55.42.42,0,0,0,.55.15,8.65,8.65,0,0,0,4.81-5.6.4.4,0,0,0-.78-.21Z"/><path class="cls-10" d="M172.45,29.82a14.05,14.05,0,0,1,2.82,5.43.4.4,0,0,0,.78-.21,15.05,15.05,0,0,0-3-5.79c-.33-.4-.9.17-.57.57Z"/><path class="cls-10" d="M175,32.77a23,23,0,0,1,4.3.42c.5.1.72-.67.21-.77A22.69,22.69,0,0,0,175,32a.4.4,0,0,0,0,.8Z"/><path class="cls-10" d="M177.39,27.75c1.79,1.05,3.73,2.19,4.6,4.16.32.72.7,1.95-.15,2.43a14.57,14.57,0,0,0-2.12,1c-.41.33.17.9.57.57.68-.55,1.68-.52,2.34-1.14s.55-2,.2-2.91c-.89-2.28-3-3.6-5-4.78a.4.4,0,0,0-.41.69Z"/><path class="cls-10" d="M160.05,23.75a6.13,6.13,0,0,1,4.63,4c.16.49.94.28.77-.21a6.93,6.93,0,0,0-5.19-4.6c-.5-.09-.72.68-.21.78Z"/><path class="cls-10" d="M163.24,25.41a25.12,25.12,0,0,0,5.81-.27.4.4,0,0,0,.28-.49.42.42,0,0,0-.49-.29,24.41,24.41,0,0,1-5.6.25c-.51,0-.51.76,0,.8Z"/><path class="cls-10" d="M167.85,23.2l1.21,3.56a.4.4,0,1,0,.77-.22L168.62,23a.4.4,0,1,0-.77.21Z"/><path class="cls-10" d="M135.67,14.39a8.7,8.7,0,0,0,2.12,2,4.88,4.88,0,0,0,2.68.55,4.07,4.07,0,0,1,2.93,1c.67.59,1.23,1.29,1.91,1.87a5.3,5.3,0,0,0,5,1,3.36,3.36,0,0,0,2.6-3.89c-.12-.5-.9-.29-.78.21.55,2.29-2.24,3.29-4,3.07s-2.66-1.46-3.82-2.57a4.73,4.73,0,0,0-3.39-1.48,5,5,0,0,1-2.81-.51,8.72,8.72,0,0,1-1.85-1.84c-.33-.4-.89.17-.57.57Z"/><path class="cls-10" d="M143,17l2.1-.86a.41.41,0,0,0,.28-.49.39.39,0,0,0-.49-.28l-2.1.85a.4.4,0,0,0-.28.5A.41.41,0,0,0,143,17Z"/><path class="cls-10" d="M115.52,6.36l3.73,2.46a.41.41,0,0,0,.41-.7l-3.73-2.45a.4.4,0,0,0-.41.69Z"/><path class="cls-10" d="M116.87,10.28a8.83,8.83,0,0,0,2.37-.63,26,26,0,0,0,2.27-1.39c2.06-1.18,2.85,1.68,3.78,2.9,1.85,2.41,6.32,1.15,7.08-1.65a.4.4,0,0,0-.78-.21c-.43,1.59-2.29,2.41-3.83,2.32-1.94-.11-2.26-2-3.26-3.27a2.48,2.48,0,0,0-3-1,23.14,23.14,0,0,0-2,1.26,7.39,7.39,0,0,1-2.64.86c-.51.06-.51.87,0,.8Z"/><path class="cls-10" d="M123.16,7.69a5,5,0,0,0,1.56-.53.41.41,0,0,0,.15-.55.42.42,0,0,0-.55-.15l-.18.09-.08,0s-.09,0-.1,0h0l-.1,0-.17.06a4.7,4.7,0,0,1-.74.18.4.4,0,0,0-.24.18.43.43,0,0,0,0,.31.37.37,0,0,0,.18.24.49.49,0,0,0,.31.05Z"/><path class="cls-10" d="M112.76,4.76c0-.09,0,.08,0,0a.59.59,0,0,1,0-.08l.08-.13s.07-.08,0,0l.06-.06.1-.11.07-.05c.07-.07-.07,0,0,0l.12-.08.16-.09h0l0,0c.1,0,.21,0,.31-.08s-.08,0,0,0h.33a.45.45,0,0,1,.16,0l.15,0c-.09,0,0,0,0,0l.08,0a.41.41,0,0,0,.55-.15.41.41,0,0,0-.14-.55,2.06,2.06,0,0,0-1.68-.12A2.09,2.09,0,0,0,112,4.54a.4.4,0,0,0,.28.5.42.42,0,0,0,.5-.28Z"/><g class="cls-11"><path class="cls-2" d="M10.31,98.51c6.64,10.3,18,16.1,29.63,18.78a124.69,124.69,0,0,0,19.93,2.5c3.66.24,7.32.43,11,.72,1.59.13,3.17.27,4.75.45l1.42.16c.07,0,1.62.22.61.07.94.14,1.88.28,2.82.44,13.27,2.28,25.33,8.87,38.65,10.91a82.12,82.12,0,0,0,35.74-2.37,80.69,80.69,0,0,0,34.29-20.25,4.83,4.83,0,0,0-6.83-6.83,69.87,69.87,0,0,1-6.28,5.63c-.14.11-1.17.89-.23.18l-.61.47c-.51.38-1,.75-1.55,1.12-1.25.88-2.53,1.73-3.83,2.53a75.29,75.29,0,0,1-7.06,3.85c-.63.31-1.27.6-1.91.89l-.88.39c-1.18.52.94-.37-.26.1s-2.62,1-4,1.49a77.68,77.68,0,0,1-7.91,2.29c-1.31.31-2.63.58-3.95.82-.63.11-1.26.22-1.89.31-.38.06-.76.13-1.14.17,1.27-.12,0,0-.23,0a75.19,75.19,0,0,1-16.63.15l-1-.1c-.22,0-1.51-.18-.24,0-.63-.08-1.26-.18-1.89-.28q-2.09-.35-4.14-.81a98.91,98.91,0,0,1-9.54-2.75c-6.34-2.12-12.59-4.59-19.09-6.18A122.82,122.82,0,0,0,67,110.58c-3.5-.23-7-.42-10.5-.68-1.59-.12-3.18-.26-4.76-.42-.88-.09-1.74-.21-2.62-.3s1.14.17-.37-.05l-1.29-.19a71.47,71.47,0,0,1-9-2c-1.44-.43-2.87-.91-4.28-1.45l-.88-.35c-1.17-.47.49.24-.39-.17-.68-.31-1.36-.62-2-1A42,42,0,0,1,27,101.81c-.62-.39-1.23-.8-1.82-1.23C25,100.4,24,100,25,100.45a5.58,5.58,0,0,1-.85-.69,31.08,31.08,0,0,1-3.16-3c-.24-.27-.49-.54-.72-.82-.09-.1-.95-1.21-.54-.65s-.26-.37-.28-.4c-.29-.41-.56-.82-.83-1.23C17.28,91.52,14.3,90.45,12,91.9a4.91,4.91,0,0,0-1.73,6.61Z"/></g><ellipse class="cls-12" cx="122.98" cy="163.24" rx="7.48" ry="3.66"/><ellipse class="cls-10" cx="122.98" cy="160.88" rx="5.53" ry="2.36"/><ellipse class="cls-12" cx="122.98" cy="159.17" rx="3.74" ry="2.03"/><ellipse class="cls-10" cx="123.01" cy="158.47" rx="1.8" ry="0.96"/><rect class="cls-10" x="121.19" y="153.65" width="3.62" height="4.82"/><circle class="cls-12" cx="122.98" cy="153.1" r="2.8"/><ellipse class="cls-12" cx="167.07" cy="153.03" rx="7.48" ry="3.66"/><ellipse class="cls-10" cx="167.07" cy="150.67" rx="5.53" ry="2.36"/><ellipse class="cls-12" cx="167.07" cy="148.96" rx="3.74" ry="2.03"/><ellipse class="cls-10" cx="167.1" cy="148.26" rx="1.8" ry="0.96"/><rect class="cls-10" x="165.27" y="143.44" width="3.62" height="4.82"/><circle class="cls-12" cx="167.07" cy="142.89" r="2.8"/><ellipse class="cls-12" cx="186.59" cy="131.36" rx="6.01" ry="2.94"/><ellipse class="cls-10" cx="186.59" cy="129.46" rx="4.44" ry="1.89"/><ellipse class="cls-12" cx="186.59" cy="128.08" rx="3" ry="1.63"/><ellipse class="cls-10" cx="186.61" cy="127.52" rx="1.45" ry="0.77"/><rect class="cls-10" x="185.15" y="123.65" width="2.9" height="3.87"/><circle class="cls-12" cx="186.59" cy="123.21" r="2.24"/><path class="cls-13" d="M183.51,188.92c-18,5.43-32,18.88-37.07,24.17a13.92,13.92,0,0,1-7.37,4.13,31.27,31.27,0,0,1-8.07.43,41.35,41.35,0,0,1-16.24-4.51c-17.34-8.92-41.86-12.63-47.18-13.35-.66-.09-1.32-.14-2-.18-17.34-1.18-45.27-21.27-45.27-21.27-15-7-16.59-17.4-17.73-19.52a3.11,3.11,0,0,0-1.49-1.39,5.36,5.36,0,0,0-.47,2.17v40.83a6.22,6.22,0,0,0,3.8,5.72c98,41.52,128.71,39,128.71,39,38.18-5.81,64.19-35.88,71.12-44.76a8.75,8.75,0,0,0,1.85-5.39V160.94C204.66,184.69,183.51,188.92,183.51,188.92Z"/><path class="cls-1" d="M205.58,153.51c-1.19-3.27-3.84-6.61-5.76-8.75a9.86,9.86,0,0,1-2.5-5.84l-.84-11.25c-.85-10.74-5.82-16.52-5.82-16.52C172.77,90,129.49,75.36,129.49,75.36c-23.75-10.09-36.11-5.86-40-2C86,76.9,88.74,95.76,89.36,99.7a8,8,0,0,1,.08,1.47c-.74,19-5.59,17.6-12.33,27.55s-21.8,12-21.8,12L39.69,134.9c-14-5.85-22.45-2.6-22.45-2.6s-8.14,1.95-11.06,13c-1.77,6.66-3.42,9.67-4.45,11a4.85,4.85,0,0,0-.62,1.11,3.11,3.11,0,0,1,1.49,1.39c1.14,2.12,2.76,12.53,17.73,19.52,0,0,27.93,20.09,45.27,21.27.66,0,1.32.09,2,.18,5.32.72,29.84,4.43,47.18,13.35A41.35,41.35,0,0,0,131,217.65a31.27,31.27,0,0,0,8.07-.43,13.92,13.92,0,0,0,7.37-4.13c5-5.29,19.09-18.74,37.07-24.17,0,0,21.15-4.23,22.61-28V156.7A9.34,9.34,0,0,0,205.58,153.51Z"/><g class="cls-14"><path class="cls-15" d="M98.17,85.48c8.94,2.59,17.79,5.48,26.48,8.81,2.11.8,4.2,1.63,6.29,2.49.55.23,1.1.49,1.67.69-.16-.06-1.35-.57-.3-.12l.62.26,3.31,1.45q6.38,2.84,12.57,6t11.95,6.75c2,1.21,4,2.46,5.88,3.75.89.58,1.77,1.17,2.64,1.78.46.32.91.65,1.36,1l.51.38c.64.46-1.06-.85-.15-.11a40.75,40.75,0,0,1,4.64,4.46c.57.63-.72-1-.23-.32.11.17.24.33.36.51.31.45.61.91.88,1.38s.45.8.65,1.21c.11.23.44,1,.08.11s.06.18.11.31a22.24,22.24,0,0,1,.8,2.79,6.6,6.6,0,0,0,.24,1.34c-.05-.11-.16-1.65-.08-.56,0,.33.06.65.08,1a28.83,28.83,0,0,1,0,2.94c0,.46-.09.92-.12,1.38,0,.72.12-.78.11-.73-.1.37-.13.78-.2,1.17q-.27,1.36-.66,2.7c-.15.5-.32,1-.49,1.51-.09.25-.19.49-.28.74-.3.81.05-.19.19-.44a58.2,58.2,0,0,1-3,5.31c-.92,1.28.64-.76-.07.11-.33.41-.67.82-1,1.21-.7.79-1.43,1.55-2.19,2.27s-1.45,1.34-2.21,2l-.46.37c-.83.69.27-.21.37-.27-.49.32-1,.71-1.44,1a65.36,65.36,0,0,1-10.62,5.79c1.66-.75-.12,0-.55.21s-1,.39-1.53.57c-1.17.43-2.35.83-3.54,1.21-2.3.72-4.63,1.34-7,1.84-1.14.25-2.28.47-3.43.66l-1.62.26c-1.17.18.16,0,.33,0a11.13,11.13,0,0,1-1.16.14q-3.58.42-7.2.49a144,144,0,0,1-15.26-.74c-5-.43-10-.86-14.94-1.46a6.8,6.8,0,0,0-1.71-.22c.17-.16,1.23.17.26,0l-.95-.13c-1.27-.18-2.53-.38-3.8-.6q-3.67-.62-7.32-1.39a195.86,195.86,0,0,1-27.86-8.28c-2.28-.85-4.54-1.74-6.8-2.65-1.09-.44-2.18-.9-3.26-1.35-.35-.14-1-.57.23.1-.2-.11-.44-.18-.65-.27l-1.95-.84q-6.7-2.91-13.32-6-3.21-1.5-6.39-3c-3-1.45-7.1-.94-8.81,2.31-1.52,2.88-.94,7.26,2.31,8.81C39,156.39,58,164.92,78,169.88a212.39,212.39,0,0,0,32.11,5c5.25.48,10.5,1,15.77,1.18a90.37,90.37,0,0,0,16.35-1,78.36,78.36,0,0,0,27.84-9.6c8.46-5,15.45-12,19.14-21.15,3.57-8.88,3.19-20.18-2.63-28.06a46.72,46.72,0,0,0-11.61-10.6q-6-4.09-12.31-7.69c-17-9.76-35.42-17.07-54.13-22.87q-3.44-1.07-6.88-2.06a6.51,6.51,0,0,0-7.93,4.49,6.58,6.58,0,0,0,4.5,7.93Z"/></g><path class="cls-16" d="M89.14,111.48c-1.88,9.28-6,10-11.32,17.89-6.83,10.09-21.8,12-21.8,12s74.09,26.8,108.32,3.48C164.34,144.89,163.85,128.1,89.14,111.48Z"/><g class="cls-4"><path class="cls-2" d="M23.77,173.28,43,185.16C49.3,189,55.4,193,62.61,194.89s14.71,2.57,22,3.55l2.63.35,1.19.16c-1.39-.19.21,0,.42.05q2.85.39,5.72.82c3.49.52,7,1.1,10.43,1.79,7.27,1.45,14.36,3.75,21.72,4.74a41.44,41.44,0,0,0,12.08,0,37.42,37.42,0,0,0,9.22-2.89c5.24-2.28,9.93-5.58,14.63-8.79,2.44-1.67,4.89-3.32,7.43-4.82,1.1-.64,2.21-1.26,3.35-1.83.68-.34,1.37-.66,2.06-1,1.23-.56-1.31.49.13-.05.43-.16.85-.33,1.28-.48,3.77-1.39,7.67-2.56,11.14-4.63a31.94,31.94,0,0,0,7.95-6.7,34.25,34.25,0,0,0,8.2-20,5.66,5.66,0,0,0-5.63-5.63,5.76,5.76,0,0,0-5.64,5.63c0,.37-.06.73-.09,1.1-.09,1.3.25-1.32,0,0-.11.6-.21,1.2-.35,1.8a30.17,30.17,0,0,1-1.21,3.85c-.46,1.21.57-1.15,0,0-.13.27-.26.55-.4.83-.3.6-.62,1.19-1,1.78s-.64,1-1,1.55l-.53.75c-.84,1.15.61-.68-.13.17a36.86,36.86,0,0,1-2.65,2.8c-.25.23-1.2,1.33-1.53,1.31.19,0,.92-.67.26-.21-.4.28-.8.57-1.21.83a32,32,0,0,1-3.3,1.81c-1.36.67,1.09-.39-.33.15l-1.28.48c-.86.32-1.73.62-2.59.92a71.67,71.67,0,0,0-16.11,8.19c-4.66,3.11-9.18,6.47-14.16,9.07-.55.29-1.11.57-1.67.84l-1,.46c-1.14.53.92-.35.15-.06a39.58,39.58,0,0,1-4.07,1.35q-.9.24-1.83.42a7.08,7.08,0,0,1-1.12.19c1.17,0,.38-.05.1,0a39.07,39.07,0,0,1-5.62.06,18.36,18.36,0,0,1-2.34-.23c1.24.24.18,0-.14,0l-1.17-.2c-1.79-.32-3.58-.71-5.35-1.14-3.34-.8-6.64-1.7-10-2.44-6.89-1.54-13.89-2.55-20.88-3.5l-6-.8L83.23,187c-.2,0-1.81-.24-.42-.06L80,186.53c-3.44-.48-6.89-1-10.3-1.61-1.81-.35-3.61-.75-5.38-1.26-.88-.26-1.75-.54-2.61-.86-.2-.08-1.65-.56-.35-.12a10.72,10.72,0,0,1-1.24-.57A115.45,115.45,0,0,1,50,176.2L29.46,163.55a5.64,5.64,0,0,0-5.69,9.73Z"/></g><path class="cls-5" d="M54,140.12s102.82,39.69,121.69-10.74"/><g class="cls-6"><path class="cls-3" d="M55.23,170.72a17,17,0,0,1-13.45,16.66c-2,.4-1.17,3.5.86,3.1a20.18,20.18,0,0,0,15.81-19.76c0-2.07-3.26-2.08-3.22,0Z"/></g><g class="cls-6"><path class="cls-3" d="M134.29,187.18c.9,4.7,1.9,9.71.71,14.45-.89,3.57-3.12,7.1-6.72,8.4-1.94.7-1.1,3.82.85,3.11,4.46-1.61,7.45-5.49,8.78-9.95,1.64-5.5.54-11.37-.51-16.87-.39-2-3.49-1.17-3.11.86Z"/></g><g class="cls-6"><path class="cls-3" d="M185.24,164.89A12.71,12.71,0,0,0,193.53,178a1.61,1.61,0,0,0,.86-3.1,10.63,10.63,0,0,1-2.49-1.44,9.14,9.14,0,0,1-2.1-2.44,8.31,8.31,0,0,1-1.19-2.9,7.88,7.88,0,0,1-.17-.87c0,.18,0,.05,0,0s0-.32,0-.48a9.61,9.61,0,0,1,.06-1.78,1.61,1.61,0,0,0-3.22,0Z"/></g><path class="cls-17" d="M15.86,71.48S2.92,73.43,2.92,91,16.83,119.31,41,121.75c0,0,36.61,1.71,43.44,7.56,0,0,53.44,20.5,88.1-2.44,0,0,24.65-11.71,28.31-32.94l-2-24.65-1.95-2.68L178.87,36.09,105.17,9s-6.1.25-7.32,10S93,40.24,114.69,49.76c0,0,48.08,12.69,53.2,25.62s-8.54,20.74-8.54,20.74L53.2,87.34Z"/><path class="cls-8" d="M35.87,61.6a4.36,4.36,0,0,0,4,1.81,14.46,14.46,0,0,0,2.81-.66,10.13,10.13,0,0,1,6.19-.21,3.51,3.51,0,0,1,1.75,1.2c2.71,3.56,2.07,6.33,2.07,6.33L49.29,89.23l-7.42,5.15a4.22,4.22,0,0,1-2.51.83h-4a3.43,3.43,0,0,1-1.81-.52l-4.19-2.62a3.41,3.41,0,0,0-1.82-.52H24a4.86,4.86,0,0,1-2.39-.61,12.78,12.78,0,0,1-5-5.25c-2.44-4.64-1.71-19-1.71-19,1.95-8.78,8.06-7.56,8.06-7.56l7.39,0a6.64,6.64,0,0,1,4.21,1.47Z"/><path class="cls-8" d="M63.08,68.49H57a4.87,4.87,0,0,0-1.92.38c-2.21.93-7.23,3.62-7,8.77l.61,13.42s.49,6.22,2.08,7.81c1.42,1.42,2.06,2.75,6.15,3.53a4.75,4.75,0,0,1,2,1c.61.49,2,1,5.13,1.12,5.62.12,9.52-6,9.52-6l3.78-4,5.86-16a9.1,9.1,0,0,0-3-4.09,3.44,3.44,0,0,0-2.16-.81l-2.94-.06a4.1,4.1,0,0,1-3-1.45,13.6,13.6,0,0,0-3.69-3.24,3.4,3.4,0,0,0-1.57-.35Z"/><path class="cls-8" d="M75.77,94.35c-.07-.49,0-3.48,0-5.38a9.46,9.46,0,0,1,1-4.11A13.88,13.88,0,0,1,84,78a5.36,5.36,0,0,1,2-.38h7.28a5.72,5.72,0,0,1,3.45,1.15l3.77,2.85a5.35,5.35,0,0,1,2.14,4.29V97.12A3,3,0,0,1,102,99c-1.85,2.36-7.44,9.11-13,11.87a6,6,0,0,1-6.32-.59C80.14,108.32,77.1,104,75.77,94.35Z"/><path class="cls-8" d="M103.89,86.72l3.46-3.38a6.05,6.05,0,0,1,3.82-1.7l6.43-.4a8.33,8.33,0,0,1,2.23.16c3,.62,10.55,2.61,10.79,6.61.11,1.89,0,9.72,0,11.77a3.29,3.29,0,0,1-.13.88c-.71,2.38-4.3,13.31-11,15-4.77,1.24-7.51.15-8.87-.8a4,4,0,0,1-1.4-1.73l-6.32-14.7a4.34,4.34,0,0,1-.36-1.74V89.83A4.34,4.34,0,0,1,103.89,86.72Z"/><path class="cls-8" d="M131.75,87l6.61-6A4.16,4.16,0,0,1,141,79.88l9.65-.51a2.88,2.88,0,0,1,1.16.18,25.53,25.53,0,0,1,4.38,2,4.46,4.46,0,0,1,2.11,3.81V99.21a7.89,7.89,0,0,1-.26,2.05c-1,3.92-5,17.44-11.82,17.86,0,0-4.83.48-9.08-10.92a3.17,3.17,0,0,0-.17-.38c-.46-.88-2.49-4.59-4.86-6.34a3.83,3.83,0,0,1-1.55-3.12l.09-8.83A3.51,3.51,0,0,1,131.75,87Z"/><path class="cls-8" d="M114,25.07a2.58,2.58,0,0,1,1.73.66c1.1,1,3.38,2.73,5.65,2.73,3.18,0,5.62-3.39,5.62-3.39l6.85-13.2s.59-4-2.1-5.74a6.72,6.72,0,0,0-4.15-.93,4.46,4.46,0,0,1-3.33-1.12L122,2A5.38,5.38,0,0,0,118.39.64h-4.87a5.8,5.8,0,0,0-2.49.55c-1.63.76-4.26,2.36-5.25,5.07-1.22,3.37-.39,9.39-.09,11.26a4.85,4.85,0,0,0,.32,1.11,22,22,0,0,0,2.87,5.08,3.8,3.8,0,0,0,2.91,1.36Z"/><path class="cls-9" d="M115.16,18.72c-.09,0-.66-.33-.24-.08s0-.06-.09-.13c-.25-.21.26.48,0,0a3.75,3.75,0,0,0-.24-.44c.34.56.06.12,0-.09s-.14-.48-.2-.73-.08-.4-.11-.6c.08.47,0,0,0-.22a46.14,46.14,0,0,1-.19-5.76c0-.2,0-.39,0-.58,0-.62-.08.22,0-.14s.19-.81.32-1.22c-.08.26-.18.37,0,.07,0,0,.44-.66.16-.28s.2-.2.22-.22c.35-.38,0,.1-.11.05l.48-.32.2-.1c.22-.11.13-.08-.26.09,0-.06.35-.11.42-.13l.3-.08h-.1a7.93,7.93,0,0,1,1.38,0c-.34-.05-.17,0,.07,0l.91.22a3.27,3.27,0,0,0,4-2.25,3.28,3.28,0,0,0-2.25-4c-2.7-.71-5.75-.85-8.17.76a9.11,9.11,0,0,0-4,7.15,34.56,34.56,0,0,0,.21,7.4c.34,2.71,1.3,5.86,4,7.11a3.29,3.29,0,0,0,4.4-1.16c.76-1.42.48-3.64-1.15-4.4Z"/><path class="cls-9" d="M124.24,9.49a.82.82,0,0,1,.2.12l-.33-.25a1.7,1.7,0,0,1,.19.19l-.25-.32c.21.28.34.61.54.9a2.75,2.75,0,0,0,1.81,1.25,4,4,0,0,0,3.69-1.31,1.73,1.73,0,0,0,.48-1.14,1.66,1.66,0,0,0-.48-1.14,1.61,1.61,0,0,0-2.27,0,2.44,2.44,0,0,1-.43.42l.33-.25a3,3,0,0,1-.52.3l.38-.16a2.66,2.66,0,0,1-.63.17l.43-.06a2,2,0,0,1-.55,0l.43.06a2.11,2.11,0,0,1-.36-.09l.38.16A1.58,1.58,0,0,1,127,8.2l.33.26a1.89,1.89,0,0,1-.2-.2l.26.32c-.18-.24-.3-.51-.46-.77a2.77,2.77,0,0,0-1.1-1.1,1.73,1.73,0,0,0-1.24-.16,1.61,1.61,0,0,0-.39,2.94Z"/><path class="cls-9" d="M141.82,81.1a19.57,19.57,0,0,0-7.34,7.36A14.75,14.75,0,0,0,132.84,94c-.2,2,.09,3.92,0,5.88a3.24,3.24,0,0,0,3.22,3.22,3.3,3.3,0,0,0,3.22-3.22c.11-1.71-.09-3.42,0-5.13,0-.25,0-.5.05-.75,0-.51-.1.46,0,0s.13-.63.21-.93c0-.05.33-1,.34-1s-.29.6,0,.11l.27-.53A6.79,6.79,0,0,1,141.13,90c-.17.16-.31.37-.06.08l.32-.37c.24-.28.49-.54.75-.8s.47-.45.72-.66l.46-.4c.29-.25.08-.13-.07,0a8.16,8.16,0,0,1,1.82-1.22,3.22,3.22,0,0,0-3.25-5.56Z"/><path class="cls-9" d="M30.5,61.72c-3.49.44-7.1-.79-10.33,1.17-3.62,2.19-4.44,6.52-4,10.42.44,3.72,1,7.66,3,10.89a12,12,0,0,0,8.85,5.74c1.73.22,3.22-1.63,3.22-3.22,0-1.92-1.49-3-3.22-3.22.63.08-.33-.12-.38-.13-.53-.12,0,.06-.25-.07a8.13,8.13,0,0,1-.82-.45c-.14-.09-.58-.42-.25-.15a9.68,9.68,0,0,1-1.24-1.24c-.14-.17-.14-.16,0,0L25,81.22c-.17-.27-.34-.54-.5-.82A12.73,12.73,0,0,1,23.27,77c-.16-.67-.29-1.35-.4-2s-.18-1.15-.24-1.63a19.59,19.59,0,0,1-.15-2,7.13,7.13,0,0,1,.06-1.22c-.07.41.15-.51.15-.49l.1-.3v0a4.66,4.66,0,0,1,.4-.68c-.39.51.44-.38,0,0,.09-.07.89-.47.39-.27a4.62,4.62,0,0,1,.79-.21c.31-.07-.26,0,.29,0s1.26,0,1.89,0a22.27,22.27,0,0,0,4,0,3.34,3.34,0,0,0,3.22-3.22c0-1.57-1.48-3.45-3.22-3.22Z"/><path class="cls-9" d="M61.48,70a10.33,10.33,0,0,0-8.11,4.22c-2,2.72-2,6-1.95,9.2,0,3.47-.12,7,0,10.43.16,3.91,2.83,5.87,6.29,7a3.22,3.22,0,1,0,1.71-6.21l-.65-.21c-.08,0-.5-.2-.21-.07A5,5,0,0,1,58,94c-.15-.08-.36-.32-.15-.09s-.08,0-.07-.13c0,0,.12,0,.12.06,0-.63,0-1.26,0-1.89l0-8c0-1.24,0-2.49,0-3.72a4.27,4.27,0,0,1,.57-2,3.68,3.68,0,0,1,3-1.72c4.14-.08,4.16-6.52,0-6.44Z"/><path class="cls-9" d="M99.06,83.75c-2.79-2.84-6.6-5.34-10.75-5.14-4,.19-7.85,2.56-9,6.52-.64,2.23-.36,4.75-.35,7s0,4.5,0,6.75c.1,4.15,1.32,9,5.52,10.82a3.32,3.32,0,0,0,4.4-1.16c.8-1.36.45-3.7-1.15-4.4A3,3,0,0,1,86,102.43a11.18,11.18,0,0,1-.55-4.19c0-3.47-.11-7,0-10.42a3.74,3.74,0,0,1,.07-.75c0-.14.29-.78.09-.38,0,0,.54-.77.24-.42,0-.06.61-.58.4-.41a4.49,4.49,0,0,1,2.1-.81c2.39,0,4.41,1.44,6.2,3.25,2.9,3,7.46-1.59,4.55-4.55Z"/><path class="cls-9" d="M110,83.21a15.1,15.1,0,0,0-3.15,2.87,9.32,9.32,0,0,0-1.56,4.21,55.31,55.31,0,0,0-.83,10,1.61,1.61,0,0,0,3.22,0,51.3,51.3,0,0,1,.61-8.58,9.39,9.39,0,0,1,1-3.55A9.33,9.33,0,0,1,111.66,86a1.65,1.65,0,0,0,.58-2.2,1.62,1.62,0,0,0-2.2-.58Z"/><path class="cls-8" d="M127.75,30.73A4.16,4.16,0,0,0,130,32.55c9.09,3.06,6.54,3.89,9.57,4.94s4.8,0,4.8,0l9.11-6.1,3.3-7.73A12.38,12.38,0,0,0,155,16.31a4.07,4.07,0,0,0-3.39-1.91l-3.45-.06a4.32,4.32,0,0,1-3.26-1.56c-1.09-1.29-2.77-3-4.31-3.35s-3,.59-4,1.41a4.17,4.17,0,0,1-2.71,1h-1.39a3.66,3.66,0,0,0-3.06,1.65s-4.11,3.84-4,9A15.94,15.94,0,0,0,127.75,30.73Z"/><path class="cls-9" d="M136.85,14A3.44,3.44,0,0,0,140,16.5c.61.08,1.18.09,1.71.2a7.92,7.92,0,0,1,1,.24l.48.16.19.08.29.14s.34.23.24.15.16.21,0,0a2.58,2.58,0,0,1,.19.37,3,3,0,0,0,1.34,1.49,6.11,6.11,0,0,0,4.47-.05,1.61,1.61,0,0,0-.86-3.11,4.6,4.6,0,0,1-1.36.31h-.41l-.35,0c.15,0-.16-.1,0,0l.15.1a4.57,4.57,0,0,0-.22-.5,3.73,3.73,0,0,0-.52-.73A3.84,3.84,0,0,0,145,14.4a11,11,0,0,0-3.42-1c-.52-.07-1-.07-1.37-.16,0,0-.35-.12-.22-.06s-.16-.16,0,0,.06,0,0,0-.07-.08,0,0,.15.45.06,0A1.63,1.63,0,0,0,138,12a1.65,1.65,0,0,0-1.12,2Z"/><path class="cls-9" d="M127.44,21.5c-.37,3.54-.25,8.76,3.46,10.55a11.94,11.94,0,0,0,3.34.72c-.59-.11.91.41.35.12a5.71,5.71,0,0,1,.84.54c-.35-.27.41.39.49.46.28.26.55.53.84.77A5.42,5.42,0,0,0,140.12,36c7.62.47,15.13-5.34,15.4-13.15a3.22,3.22,0,0,0-6.44,0,5.86,5.86,0,0,1-.69,2.51,8,8,0,0,1-.54.88l-.2.28c.1-.15.09-.14-.05,0s-.4.43-.61.64c0,0-.74.64-.43.4a8.69,8.69,0,0,1-3.06,1.55,13.62,13.62,0,0,1-1.71.39,6.77,6.77,0,0,0-1.67,0l.8.2c.19.15.21.15,0,0a3.62,3.62,0,0,0-.61-.56,16.89,16.89,0,0,0-1.94-1.55,9.75,9.75,0,0,0-4.52-1.38c-.42-.06-.27-.16-.12,0s.27.27.4.42c-.34-.41,0,.25-.11-.28,0-.25-.11-.49-.16-.75a17.3,17.3,0,0,1,0-4.2c.18-1.73-1.61-3.22-3.22-3.22a3.29,3.29,0,0,0-3.22,3.22Z"/><path class="cls-8" d="M164.72,42.13l-7.93.59A3.75,3.75,0,0,1,153.35,41a16,16,0,0,1-2.42-7.33V27.83a6.28,6.28,0,0,1,3.13-5.51,13.6,13.6,0,0,1,4-1.38,3.18,3.18,0,0,0,1.55-.78c.78-.72,2.51-1.82,5.92-2.07,5.13-.36,7.17,8.52,7.17,8.52Z"/><path class="cls-9" d="M152.78,32.94c.12.39.19.8.32,1.19a7.34,7.34,0,0,0,.72,1.62,8.08,8.08,0,0,0,2.39,2.48,7.35,7.35,0,0,0,3.46,1.16,4.66,4.66,0,0,0,1.12,0,7.18,7.18,0,0,0,1.94-.38,3.45,3.45,0,0,0,1.92-1.48,3.2,3.2,0,0,0-1.15-4.4,3.14,3.14,0,0,0-2.48-.33,4.81,4.81,0,0,1-1,.26l.86-.12a4.53,4.53,0,0,1-1.22,0l.85.12a5,5,0,0,1-1.07-.3l.77.32a4.21,4.21,0,0,1-.94-.55l.65.5a4.44,4.44,0,0,1-.75-.75l.5.65a4.78,4.78,0,0,1-.59-1l.33.77c-.2-.48-.28-1-.43-1.48A3.21,3.21,0,0,0,155,29a3.21,3.21,0,0,0-1.92,1.48,3.31,3.31,0,0,0-.33,2.48Z"/><path class="cls-8" d="M178.63,46.64a13.58,13.58,0,0,1-10.92,4.52s-2.52,1.11-4.09-9.88c-.12-.86-2.44-13.18,7.5-13.3,0,0,3.12-3.54,7.51-2.81s7.69,6.83,8.17,12.32Z"/><path class="cls-9" d="M167.31,34.93a27.37,27.37,0,0,0,.64,5.78c.46,2.13,1.1,4.35,3.06,5.57a3.26,3.26,0,0,0,4.41-1.15,3.3,3.3,0,0,0-1.16-4.41l-.2-.14.65.5a2.13,2.13,0,0,1-.26-.26l.5.65a3.13,3.13,0,0,1-.38-.66l.32.77a18.61,18.61,0,0,1-1-4.42L174,38a24.38,24.38,0,0,1-.2-3.08,3.22,3.22,0,1,0-6.44,0Z"/><path class="cls-8" d="M189.64,58.24l-10.77,3.41a4.56,4.56,0,0,1-3.66-.85c-1.71-1.34,0-7.32,0-7.32s3.3-13.06,11.84-17.33,8,8.18,8.29,11.47Z"/><path class="cls-9" d="M184.26,42.36c.08.16.16.32.25.48.18.35-.24-.73,0-.06.09.31.16.63.25.94s-.05-.81,0-.1l0,.44a5.25,5.25,0,0,1,0,1.08s.15-.81,0-.1c0,.14-.07.28-.11.42s-.11.5-.17.51.33-.68,0-.07a8.37,8.37,0,0,1-.48.82c-.31.49.33-.37.08-.08l-.34.39a25.29,25.29,0,0,1-2.85,2.52,18.35,18.35,0,0,0-3.2,3.33,3.21,3.21,0,0,0-.33,2.48,3.25,3.25,0,0,0,1.48,1.92,3.33,3.33,0,0,0,4.41-1.15c-.58.77.18-.19.35-.37s.49-.48.74-.71c.54-.49,1.11-.94,1.67-1.4a18.39,18.39,0,0,0,3.43-3.51,10.58,10.58,0,0,0,.45-11,3.22,3.22,0,1,0-5.56,3.25Z"/><path class="cls-8" d="M184.24,66.41v-2a3.61,3.61,0,0,1,.77-2.23c2-2.54,7.3-9.52,8.87-14,0,0,.24-2.08,2.07-2.08a2.43,2.43,0,0,1,2.14,1.75,2.57,2.57,0,0,1,.19,1c0,2,.1,10.37-1.84,12.52Z"/><path class="cls-9" d="M192.28,53.34a7.94,7.94,0,0,1,0,1.29c0,.25.05-.22,0,0s0,.2-.06.3-.11.44-.18.66a5.54,5.54,0,0,1-.21.57c.07-.15,0-.06,0,0l-.18.34a8.9,8.9,0,0,1-.68,1.11c-.06.09-.13.17-.19.25l0,0-.41.47c-.29.33-.61.65-.93,1-.66.64-1.36,1.23-2.06,1.82a1.61,1.61,0,0,0,0,2.28,1.65,1.65,0,0,0,2.27,0c3-2.54,6.37-5.82,5.9-10.15a1.66,1.66,0,0,0-1.61-1.61c-.79,0-1.71.72-1.61,1.61Z"/><path class="cls-8" d="M186.44,65.68s6-9.27,9-10.49c0,0,1.83-.25,2.07,2,0,0-.85,19.76-3,25S191,87.4,191,87.4s-1.46,1.46-3.54-5.49S186.44,65.68,186.44,65.68Z"/><path class="cls-8" d="M173.87,73.61s.12-2.56,3.29-4.51l8-4.49a1.75,1.75,0,0,1,2.26.45c1.87,2.48,4.74,10-2.22,30.63,0,0-1.43,3.06-3.46,0,0,0-5.57-7.93-6.3-8Z"/><path class="cls-9" d="M185.06,65.84q-2.52,1.56-4.94,3.31c-1.49,1.08-3.06,2.14-3.74,3.93a18,18,0,0,0-.63,5.85,62.29,62.29,0,0,0,.19,6.41c.16,2,3.39,2.07,3.22,0-.15-1.9-.23-3.8-.2-5.7a21.11,21.11,0,0,1,.33-5.09c.35-1.36,1.8-2.15,2.87-2.92q2.22-1.59,4.53-3c1.76-1.09.14-3.88-1.63-2.78Z"/><path class="cls-8" d="M158.25,94.84a10.49,10.49,0,0,1,5.13,6.35c3.78,9.88,7.2,8.54,7.2,8.54,3.64-1,6-18.44,6.48-22.65a14.72,14.72,0,0,0,.1-1.76V76.53a3.71,3.71,0,0,0-.36-1.61l-.74-1.53a1.76,1.76,0,0,0-1.59-1H173.3a3.45,3.45,0,0,0-1.68.44l-12.23,7a2.25,2.25,0,0,0-1.14,2Z"/><path class="cls-9" d="M172.56,74.41a62.94,62.94,0,0,0-8.17,5.33,9.8,9.8,0,0,0-2.66,2.71,10.57,10.57,0,0,0-1.09,4.32c-.27,2.87-.45,5.88.79,8.56a22.89,22.89,0,0,0,2.24,3.28,9.2,9.2,0,0,1,1.66,4.14,1.68,1.68,0,0,0,1.61,1.61c.79,0,1.73-.75,1.61-1.61a13.83,13.83,0,0,0-2.94-6.88,8.4,8.4,0,0,1-1.75-3.36,14.3,14.3,0,0,1-.14-4,14,14,0,0,1,.53-3.82A6.49,6.49,0,0,1,166.76,82a61.86,61.86,0,0,1,7.42-4.75c1.82-1,.2-3.78-1.62-2.79Z"/><path class="cls-10" d="M19.91,64.43,20,64.3l0,0c-.05,0,0,0,0,0l.19-.21.23-.2s0,0,0,0,0,0,.06,0l.12-.09.25-.14.12-.06c.05,0,.05,0,0,0l.07,0a3.4,3.4,0,0,1,.57-.15.4.4,0,0,0,.28-.49.41.41,0,0,0-.5-.28A3.29,3.29,0,0,0,19.22,64a.4.4,0,1,0,.69.41Z"/><path class="cls-10" d="M20.45,66.55A9.6,9.6,0,0,1,25,68.66c1.07.92,1.86,2.17,3.08,2.93,2.12,1.33,4.76.85,7.12.81a6.68,6.68,0,0,1,4.11.93c1,.73,1.77,1.65,3.14,1.48,2.48-.3,4.73-2.4,6-4.44a.4.4,0,0,0-.69-.41,9.14,9.14,0,0,1-3.05,3.1,7.49,7.49,0,0,1-2,.88c-1.09.27-1.77-.37-2.56-1-1.74-1.39-3.85-1.41-6-1.31a18.14,18.14,0,0,1-3.61,0A6,6,0,0,1,26.9,69.5a11.06,11.06,0,0,0-6.24-3.72c-.5-.1-.72.68-.21.77Z"/><path class="cls-10" d="M26.12,65a12,12,0,0,0,3.18,2.43A10.52,10.52,0,0,0,33.09,69c2.58.41,6.15-1.09,8.1,1.29.33.4.9-.17.57-.57-1.76-2.15-4.71-1.49-7.12-1.43a8.22,8.22,0,0,1-4.37-1.22,12.45,12.45,0,0,1-3.58-2.64c-.33-.4-.89.17-.57.57Z"/><path class="cls-10" d="M33.89,68.63l2.93-2.28a.4.4,0,0,0-.57-.57l-2.93,2.28a.41.41,0,0,0,0,.57.42.42,0,0,0,.57,0Z"/><path class="cls-10" d="M53.84,72.11a1.75,1.75,0,0,0,.4,3.44.4.4,0,1,0,0-.8h-.11c.09,0,0,0,0,0l-.11,0,0,0-.18-.09-.06,0-.05,0-.15-.16c0,.06,0,0,0,0l-.06-.09s-.05-.12,0,0l0-.09a.35.35,0,0,1,0-.11.07.07,0,0,1,0,0v0a.74.74,0,0,1,0-.21c0-.11,0,.07,0,0l0-.11,0-.1c0-.08,0,0,0,0a1.62,1.62,0,0,1,.1-.18l0,0a.27.27,0,0,1,.07-.08.6.6,0,0,1,.08-.08s.1-.07,0,0l.19-.11c.07,0,0,0,0,0l.12,0a.4.4,0,0,0-.21-.78Z"/><path class="cls-10" d="M57.44,76.83c.91.41,1.38,1.26,2.07,1.93a3.47,3.47,0,0,0,2.18,1,32.17,32.17,0,0,1,3.67.26,11,11,0,0,1,3.53,1.4,8.64,8.64,0,0,0,2.49,1.36,6.21,6.21,0,0,0,2.93-.26c1.63-.44,3.21-1.33,3.69-3.05a.4.4,0,0,0-.78-.21c-.51,1.84-2.65,2.5-4.35,2.73-2.09.29-3.65-1.5-5.5-2.22A16.82,16.82,0,0,0,62,79a3.33,3.33,0,0,1-2.54-1.46,4.93,4.93,0,0,0-1.63-1.38c-.46-.21-.87.48-.4.7Z"/><path class="cls-10" d="M60.79,73a1.41,1.41,0,0,1-.42,1.59.4.4,0,0,0,0,.69c1.47.74,3,1.41,4.51,2a.4.4,0,0,0,.49-.28.39.39,0,0,0-.28-.49q-2.19-.88-4.32-1.94v.69a2.21,2.21,0,0,0,.8-2.49.41.41,0,0,0-.5-.28.4.4,0,0,0-.28.49Z"/><path class="cls-10" d="M71,74.9c0,.09,0-.05,0-.07a1.09,1.09,0,0,1,.08-.15l0-.06,0,0s0,0,0,0l.06-.07.22-.2c.06,0,0,0,0,0l.06,0,.14-.09.14-.07.07,0c-.08,0,0,0,0,0a1.81,1.81,0,0,1,.31-.09l.08,0c.08,0,0,0,0,0a.92.92,0,0,0,.16,0,1.82,1.82,0,0,1,.33,0,.41.41,0,0,0,.41-.4.42.42,0,0,0-.41-.4,2.42,2.42,0,0,0-1.51.33,2.5,2.5,0,0,0-1,1.22.41.41,0,0,0,.28.5.42.42,0,0,0,.5-.28Z"/><path class="cls-10" d="M81.53,83.24c1.39-1.75,4.09-1.7,6.13-1.55,2.57.19,4,2.1,5.15,4.19.89,1.58,1.93,2.92,3.93,2.67A5.14,5.14,0,0,0,99,87.61a22.66,22.66,0,0,1,2.55-2.15c.46-.24.06-.93-.4-.69-1.87,1-3.17,3.69-5.68,2.9-1.25-.39-1.75-1.81-2.36-2.84a11.09,11.09,0,0,0-1.76-2.32C89.83,81,88,80.82,85.9,80.86c-1.8,0-3.75.31-4.94,1.81-.31.4.25,1,.57.57Z"/><path class="cls-10" d="M92.2,84l3.91,1.3c.49.17.7-.61.21-.77l-3.9-1.31c-.5-.16-.71.62-.22.78Z"/><path class="cls-10" d="M94.17,83.49h0v.1a.67.67,0,0,1,0-.2v.11a.79.79,0,0,1,.06-.22l0,.1a.82.82,0,0,1,.12-.2l-.07.08a1.37,1.37,0,0,1,.17-.17l-.08.06a1.32,1.32,0,0,1,.2-.12l-.1,0a.66.66,0,0,1,.2-.06l-.11,0h.07a.44.44,0,0,0,.28-.12.42.42,0,0,0,.12-.28.45.45,0,0,0-.12-.29.38.38,0,0,0-.28-.11,1.24,1.24,0,0,0-.54.14,1.31,1.31,0,0,0-.36.3,1.52,1.52,0,0,0-.27.48,1.37,1.37,0,0,0,0,.28,2.46,2.46,0,0,0,0,.28.39.39,0,0,0,.19.24.37.37,0,0,0,.31,0,.4.4,0,0,0,.24-.18l0-.1a.38.38,0,0,0,0-.21Z"/><path class="cls-10" d="M162,80.62a54.82,54.82,0,0,0,12-6c.43-.28,0-1-.41-.69a54,54,0,0,1-11.81,5.88c-.48.17-.27.94.22.77Z"/><path class="cls-10" d="M162.91,81.82a22.85,22.85,0,0,0,0,4.75c.22,1.71,1.08,3,1.61,4.58.59,1.76.41,3.85.47,5.68l.22,5.81c0,.51.82.52.8,0l-.21-5.81a32.09,32.09,0,0,0-.32-5.19c-.33-1.62-1.37-3-1.69-4.59a20.34,20.34,0,0,1-.07-5.23c0-.52-.76-.51-.8,0Z"/><path class="cls-10" d="M186.59,66.76c-.85,1.72-2.62,2.49-4.18,3.43A8.35,8.35,0,0,0,178.82,74a12.84,12.84,0,0,0-.84,6c.16,2.62.58,5.23.89,7.83.06.51.87.52.81,0-.3-2.41-.66-4.82-.85-7.24a12.11,12.11,0,0,1,1-6.75c1.67-3.16,5.91-3.48,7.48-6.66.23-.46-.46-.87-.69-.41Z"/><path class="cls-10" d="M195.24,50.24a1.57,1.57,0,0,1,.63,1.5,4.82,4.82,0,0,0,.29,2.41c.25.45,1,0,.7-.41-.39-.71-.13-1.57-.2-2.33a2.14,2.14,0,0,0-1-1.87c-.47-.22-.88.47-.41.7Z"/><path class="cls-10" d="M190.15,38.53c.7.23,1,1,1.11,1.68.25,1,.4,2.09.59,3.14.09.51.87.29.77-.21l-.34-1.91c-.09-.5-.17-1-.31-1.51a2.67,2.67,0,0,0-1.6-2c-.5-.16-.71.61-.22.77Z"/><path class="cls-10" d="M191.39,47.88A7.87,7.87,0,0,1,187,53a.4.4,0,0,0-.14.55.42.42,0,0,0,.55.15,8.65,8.65,0,0,0,4.81-5.6.4.4,0,0,0-.78-.21Z"/><path class="cls-10" d="M172.45,29.82a14.05,14.05,0,0,1,2.82,5.43.4.4,0,0,0,.78-.21,15.05,15.05,0,0,0-3-5.79c-.33-.4-.9.17-.57.57Z"/><path class="cls-10" d="M175,32.77a23,23,0,0,1,4.3.42c.5.1.72-.67.21-.77A22.69,22.69,0,0,0,175,32a.4.4,0,0,0,0,.8Z"/><path class="cls-10" d="M177.39,27.75c1.79,1.05,3.73,2.19,4.6,4.16.32.72.7,1.95-.15,2.43a14.57,14.57,0,0,0-2.12,1c-.41.33.17.9.57.57.68-.55,1.68-.52,2.34-1.14s.55-2,.2-2.91c-.89-2.28-3-3.6-5-4.78a.4.4,0,0,0-.41.69Z"/><path class="cls-10" d="M160.05,23.75a6.13,6.13,0,0,1,4.63,4c.16.49.94.28.77-.21a6.93,6.93,0,0,0-5.19-4.6c-.5-.09-.72.68-.21.78Z"/><path class="cls-10" d="M163.24,25.41a25.12,25.12,0,0,0,5.81-.27.4.4,0,0,0,.28-.49.42.42,0,0,0-.49-.29,24.41,24.41,0,0,1-5.6.25c-.51,0-.51.76,0,.8Z"/><path class="cls-10" d="M167.85,23.2l1.21,3.56a.4.4,0,1,0,.77-.22L168.62,23a.4.4,0,1,0-.77.21Z"/><path class="cls-10" d="M135.67,14.39a8.7,8.7,0,0,0,2.12,2,4.88,4.88,0,0,0,2.68.55,4.07,4.07,0,0,1,2.93,1c.67.59,1.23,1.29,1.91,1.87a5.3,5.3,0,0,0,5,1,3.36,3.36,0,0,0,2.6-3.89c-.12-.5-.9-.29-.78.21.55,2.29-2.24,3.29-4,3.07s-2.66-1.46-3.82-2.57a4.73,4.73,0,0,0-3.39-1.48,5,5,0,0,1-2.81-.51,8.72,8.72,0,0,1-1.85-1.84c-.33-.4-.89.17-.57.57Z"/><path class="cls-10" d="M143,17l2.1-.86a.41.41,0,0,0,.28-.49.39.39,0,0,0-.49-.28l-2.1.85a.4.4,0,0,0-.28.5A.41.41,0,0,0,143,17Z"/><path class="cls-10" d="M115.52,6.36l3.73,2.46a.41.41,0,0,0,.41-.7l-3.73-2.45a.4.4,0,0,0-.41.69Z"/><path class="cls-10" d="M116.87,10.28a8.83,8.83,0,0,0,2.37-.63,26,26,0,0,0,2.27-1.39c2.06-1.18,2.85,1.68,3.78,2.9,1.85,2.41,6.32,1.15,7.08-1.65a.4.4,0,0,0-.78-.21c-.43,1.59-2.29,2.41-3.83,2.32-1.94-.11-2.26-2-3.26-3.27a2.48,2.48,0,0,0-3-1,23.14,23.14,0,0,0-2,1.26,7.39,7.39,0,0,1-2.64.86c-.51.06-.51.87,0,.8Z"/><path class="cls-10" d="M123.16,7.69a5,5,0,0,0,1.56-.53.41.41,0,0,0,.15-.55.42.42,0,0,0-.55-.15l-.18.09-.08,0s-.09,0-.1,0h0l-.1,0-.17.06a4.7,4.7,0,0,1-.74.18.4.4,0,0,0-.24.18.43.43,0,0,0,0,.31.37.37,0,0,0,.18.24.49.49,0,0,0,.31.05Z"/><path class="cls-10" d="M112.76,4.76c0-.09,0,.08,0,0a.59.59,0,0,1,0-.08l.08-.13s.07-.08,0,0l.06-.06.1-.11.07-.05c.07-.07-.07,0,0,0l.12-.08.16-.09h0l0,0c.1,0,.21,0,.31-.08s-.08,0,0,0h.33a.45.45,0,0,1,.16,0l.15,0c-.09,0,0,0,0,0l.08,0a.41.41,0,0,0,.55-.15.41.41,0,0,0-.14-.55,2.06,2.06,0,0,0-1.68-.12A2.09,2.09,0,0,0,112,4.54a.4.4,0,0,0,.28.5.42.42,0,0,0,.5-.28Z"/><g class="cls-11"><path class="cls-2" d="M10.31,98.51c6.64,10.3,18,16.1,29.63,18.78a124.69,124.69,0,0,0,19.93,2.5c3.66.24,7.32.43,11,.72,1.59.13,3.17.27,4.75.45l1.42.16c.07,0,1.62.22.61.07.94.14,1.88.28,2.82.44,13.27,2.28,25.33,8.87,38.65,10.91a82.12,82.12,0,0,0,35.74-2.37,80.69,80.69,0,0,0,34.29-20.25,4.83,4.83,0,0,0-6.83-6.83,69.87,69.87,0,0,1-6.28,5.63c-.14.11-1.17.89-.23.18l-.61.47c-.51.38-1,.75-1.55,1.12-1.25.88-2.53,1.73-3.83,2.53a75.29,75.29,0,0,1-7.06,3.85c-.63.31-1.27.6-1.91.89l-.88.39c-1.18.52.94-.37-.26.1s-2.62,1-4,1.49a77.68,77.68,0,0,1-7.91,2.29c-1.31.31-2.63.58-3.95.82-.63.11-1.26.22-1.89.31-.38.06-.76.13-1.14.17,1.27-.12,0,0-.23,0a75.19,75.19,0,0,1-16.63.15l-1-.1c-.22,0-1.51-.18-.24,0-.63-.08-1.26-.18-1.89-.28q-2.09-.35-4.14-.81a98.91,98.91,0,0,1-9.54-2.75c-6.34-2.12-12.59-4.59-19.09-6.18A122.82,122.82,0,0,0,67,110.58c-3.5-.23-7-.42-10.5-.68-1.59-.12-3.18-.26-4.76-.42-.88-.09-1.74-.21-2.62-.3s1.14.17-.37-.05l-1.29-.19a71.47,71.47,0,0,1-9-2c-1.44-.43-2.87-.91-4.28-1.45l-.88-.35c-1.17-.47.49.24-.39-.17-.68-.31-1.36-.62-2-1A42,42,0,0,1,27,101.81c-.62-.39-1.23-.8-1.82-1.23C25,100.4,24,100,25,100.45a5.58,5.58,0,0,1-.85-.69,31.08,31.08,0,0,1-3.16-3c-.24-.27-.49-.54-.72-.82-.09-.1-.95-1.21-.54-.65s-.26-.37-.28-.4c-.29-.41-.56-.82-.83-1.23C17.28,91.52,14.3,90.45,12,91.9a4.91,4.91,0,0,0-1.73,6.61Z"/></g><ellipse class="cls-12" cx="122.98" cy="163.24" rx="7.48" ry="3.66"/><ellipse class="cls-10" cx="122.98" cy="160.88" rx="5.53" ry="2.36"/><ellipse class="cls-12" cx="122.98" cy="159.17" rx="3.74" ry="2.03"/><ellipse class="cls-10" cx="123.01" cy="158.47" rx="1.8" ry="0.96"/><rect class="cls-10" x="121.19" y="153.65" width="3.62" height="4.82"/><circle class="cls-12" cx="122.98" cy="153.1" r="2.8"/><ellipse class="cls-12" cx="167.07" cy="153.03" rx="7.48" ry="3.66"/><ellipse class="cls-10" cx="167.07" cy="150.67" rx="5.53" ry="2.36"/><ellipse class="cls-12" cx="167.07" cy="148.96" rx="3.74" ry="2.03"/><ellipse class="cls-10" cx="167.1" cy="148.26" rx="1.8" ry="0.96"/><rect class="cls-10" x="165.27" y="143.44" width="3.62" height="4.82"/><circle class="cls-12" cx="167.07" cy="142.89" r="2.8"/><ellipse class="cls-12" cx="186.59" cy="131.36" rx="6.01" ry="2.94"/><ellipse class="cls-10" cx="186.59" cy="129.46" rx="4.44" ry="1.89"/><ellipse class="cls-12" cx="186.59" cy="128.08" rx="3" ry="1.63"/><ellipse class="cls-10" cx="186.61" cy="127.52" rx="1.45" ry="0.77"/><rect class="cls-10" x="185.15" y="123.65" width="2.9" height="3.87"/><circle class="cls-12" cx="186.59" cy="123.21" r="2.24"/></g></g></svg>