<svg xmlns="http://www.w3.org/2000/svg" xmlns:xlink="http://www.w3.org/1999/xlink" viewBox="0 0 206.62 232.32"><defs><style>.cls-1,.cls-16{stroke:#424944;}.cls-1,.cls-10,.cls-12,.cls-13,.cls-15,.cls-16,.cls-17,.cls-2,.cls-21,.cls-22,.cls-23,.cls-24,.cls-6,.cls-8{stroke-miterlimit:10;}.cls-1{stroke-width:0.64px;fill:url(#무제_그라디언트_2);}.cls-2{fill:#eeccc9;}.cls-17,.cls-2,.cls-6{stroke:#715e54;stroke-width:1.29px;}.cls-3{fill:#f6e5e6;}.cls-12,.cls-4{fill:#e4b4ab;}.cls-5{opacity:0.44;}.cls-6{fill:none;}.cls-7{opacity:0.69;}.cls-10,.cls-13,.cls-8{fill:#ebecef;stroke:#939496;}.cls-12,.cls-21,.cls-8{stroke-width:1.2px;}.cls-9{fill:#d2d5da;}.cls-10{stroke-width:1.14px;}.cls-11{fill:#939496;}.cls-12,.cls-21{stroke:#6d523e;}.cls-13{stroke-width:1.05px;}.cls-14{opacity:0.54;}.cls-15,.cls-22,.cls-23,.cls-24{stroke:#231815;}.cls-15{stroke-width:0.76px;}.cls-15,.cls-22{fill:url(#무제_그라디언트_10);}.cls-16{fill:url(#무제_그라디언트_8);}.cls-17{fill:#ebb9bd;}.cls-18{opacity:0.76;}.cls-19{fill:#f4e8eb;}.cls-20{fill:#e09ea8;}.cls-21{fill:#e9a69b;}.cls-22{stroke-width:0.5px;}.cls-23{stroke-width:1.2px;fill:url(#무제_그라디언트_4);}.cls-24{stroke-width:0.95px;fill:url(#무제_그라디언트_6);}.cls-25{fill:url(#무제_그라디언트_4-2);}.cls-26{fill:#282221;}.cls-27{fill:url(#무제_그라디언트_6-2);}</style><linearGradient id="무제_그라디언트_2" x1="225.69" y1="199.05" x2="431.17" y2="199.05" gradientTransform="translate(-225.19 -11.11)" gradientUnits="userSpaceOnUse"><stop offset="0.26" stop-color="#ebe3d9"/><stop offset="0.53" stop-color="#f2eadd"/><stop offset="0.77" stop-color="#f5f2f0"/></linearGradient><linearGradient id="무제_그라디언트_10" x1="81.5" y1="63" x2="171.28" y2="63" gradientUnits="userSpaceOnUse"><stop offset="0" stop-color="#8b9195"/><stop offset="0.24" stop-color="#ced0d6"/><stop offset="0.57" stop-color="#fff"/><stop offset="0.63" stop-color="#e4e5e6"/><stop offset="0.8" stop-color="#a7aaae"/><stop offset="0.87" stop-color="#8f9398"/></linearGradient><linearGradient id="무제_그라디언트_8" x1="225.69" y1="199.05" x2="431.17" y2="199.05" gradientTransform="translate(-225.19 -11.11)" gradientUnits="userSpaceOnUse"><stop offset="0.06" stop-color="#d9c3b3"/><stop offset="0.38" stop-color="#efdec7"/><stop offset="0.64" stop-color="#f4e9d9"/><stop offset="0.9" stop-color="#f7f3eb"/></linearGradient><linearGradient id="무제_그라디언트_4" x1="77.09" y1="86.53" x2="103.46" y2="86.53" gradientUnits="userSpaceOnUse"><stop offset="0" stop-color="#ced0d6"/><stop offset="0.61" stop-color="#fff"/><stop offset="0.81" stop-color="#c9ccd0"/><stop offset="0.92" stop-color="#b1b6bb"/></linearGradient><linearGradient id="무제_그라디언트_6" x1="384.94" y1="898.56" x2="401.94" y2="898.56" gradientTransform="matrix(-0.34, -1.3, 0.87, -0.23, -481.67, 753.61)" gradientUnits="userSpaceOnUse"><stop offset="0" stop-color="#ced0d6"/><stop offset="0.54" stop-color="#fff"/><stop offset="0.79" stop-color="#c9ccd0"/><stop offset="0.92" stop-color="#b1b6bb"/></linearGradient><linearGradient id="무제_그라디언트_4-2" x1="76.83" y1="86.53" x2="103.72" y2="86.53" xlink:href="#무제_그라디언트_4"/><linearGradient id="무제_그라디언트_6-2" x1="384.75" y1="898.56" x2="402.12" y2="898.56" xlink:href="#무제_그라디언트_6"/></defs><g id="레이어_2" data-name="레이어 2"><g id="레이어_1-2" data-name="레이어 1"><path class="cls-1" d="M183.36,175.54c-18,5.43-32.05,18.89-37.06,24.17a14,14,0,0,1-7.37,4.14,31.77,31.77,0,0,1-8.08.42,41.39,41.39,0,0,1-16.24-4.51c-17.33-8.92-41.85-12.62-47.18-13.35-.65-.08-1.31-.13-2-.18C48.12,185.05,20.19,165,20.19,165c-15-7-16.6-17.41-17.74-19.53A3,3,0,0,0,1,144.05a5.56,5.56,0,0,0-.46,2.17v40.83a6.21,6.21,0,0,0,3.79,5.72c98,41.52,128.72,39,128.72,39C171.19,226,197.2,195.91,204.13,187a8.77,8.77,0,0,0,1.85-5.39V147.56C204.51,171.31,183.36,175.54,183.36,175.54Z"/><path class="cls-2" d="M205.43,140.13c-1.19-3.27-3.83-6.6-5.75-8.75a9.87,9.87,0,0,1-2.51-5.84l-.83-11.25c-.86-10.74-5.82-16.51-5.82-16.51C172.62,76.63,129.35,62,129.35,62,105.6,51.9,93.23,56.13,89.33,60c-3.5,3.5-.74,22.36-.12,26.29a7.32,7.32,0,0,1,.09,1.48c-.75,19-5.59,17.59-12.34,27.55s-21.8,12-21.8,12l-15.61-5.86c-14-5.86-22.46-2.6-22.46-2.6S9,120.88,6,131.94c-1.76,6.67-3.41,9.67-4.44,11A5.29,5.29,0,0,0,1,144.05a3,3,0,0,1,1.49,1.39C3.59,147.56,5.22,158,20.19,165c0,0,27.93,20.08,45.26,21.26.67.05,1.33.1,2,.18,5.33.73,29.85,4.43,47.18,13.35a41.39,41.39,0,0,0,16.24,4.51,31.77,31.77,0,0,0,8.08-.42,14,14,0,0,0,7.37-4.14c5-5.28,19.08-18.74,37.06-24.17,0,0,21.15-4.23,22.62-28v-4.24A9.35,9.35,0,0,0,205.43,140.13Z"/><path class="cls-3" d="M98,72.1c8.93,2.59,17.79,5.48,26.48,8.81,2.11.8,4.2,1.64,6.29,2.49.55.23,1.1.49,1.66.69-.16,0-1.35-.57-.29-.12l.62.27c1.1.47,2.21,1,3.3,1.44q6.38,2.83,12.58,6.06t12,6.74q3,1.81,5.88,3.75c.88.59,1.76,1.18,2.63,1.79.46.32.92.64,1.37,1l.5.38c.65.47-1.05-.85-.14-.11a40.81,40.81,0,0,1,4.64,4.47c.57.63-.72-1-.24-.33l.37.51c.31.45.6.91.88,1.38s.44.8.64,1.21c.12.23.45,1,.08.11s.06.18.11.31a21.1,21.1,0,0,1,.8,2.79,7.22,7.22,0,0,0,.25,1.34c0-.11-.16-1.65-.09-.55,0,.32.06.64.08,1a24,24,0,0,1,0,2.94c0,.46-.08.91-.11,1.37-.05.72.11-.78.1-.73-.09.38-.12.79-.2,1.17a25.29,25.29,0,0,1-.66,2.7c-.15.51-.31,1-.49,1.51-.09.25-.18.5-.28.74-.3.82.06-.19.2-.43a60.48,60.48,0,0,1-3,5.3c-.92,1.28.64-.75-.07.12-.34.4-.67.81-1,1.2-.69.79-1.42,1.55-2.18,2.28s-1.45,1.33-2.21,2L168,138c-.83.68.26-.21.37-.28-.5.32-1,.71-1.44,1.05a65.43,65.43,0,0,1-10.62,5.79c1.66-.75-.12,0-.56.21s-1,.39-1.53.58c-1.16.43-2.34.83-3.53,1.2-2.3.72-4.64,1.34-7,1.85-1.14.24-2.29.46-3.44.66l-1.61.25c-1.17.19.16,0,.33,0-.38.08-.78.09-1.16.14-2.39.27-4.8.43-7.21.49a144.24,144.24,0,0,1-15.26-.75c-5-.43-10-.85-14.93-1.46a7.29,7.29,0,0,0-1.71-.22c.16-.15,1.23.18.26,0l-1-.14c-1.27-.18-2.54-.38-3.8-.59-2.45-.41-4.89-.88-7.32-1.39A194.61,194.61,0,0,1,59,137.09q-3.42-1.28-6.8-2.65l-3.27-1.34c-.34-.15-1-.57.24.1-.2-.11-.44-.19-.65-.28l-2-.84c-4.48-1.93-8.91-4-13.33-6l-6.39-3c-3-1.45-7.09-.93-8.81,2.32-1.52,2.87-.93,7.25,2.31,8.81,18.53,8.86,37.46,17.4,57.46,22.35a213.68,213.68,0,0,0,32.11,5.05c5.24.47,10.5,1,15.76,1.18a89.43,89.43,0,0,0,16.35-1,78.21,78.21,0,0,0,27.84-9.59c8.47-5,15.46-12,19.15-21.15,3.57-8.89,3.19-20.19-2.64-28.07a46.38,46.38,0,0,0-11.61-10.6c-4-2.73-8.1-5.28-12.3-7.69-17-9.76-35.42-17.07-54.13-22.87-2.29-.71-4.59-1.39-6.89-2.06A6.44,6.44,0,0,0,98,72.1Z"/><path class="cls-4" d="M89,98.1c-1.88,9.28-6,10.05-11.32,17.89-6.84,10.09-21.8,12-21.8,12s74.09,26.8,108.32,3.48C164.2,131.51,163.7,114.73,89,98.1Z"/><g class="cls-5"><path class="cls-3" d="M23.62,159.91,42.9,171.78c6.25,3.86,12.36,7.87,19.56,9.73s14.72,2.58,22.06,3.55l2.62.35,1.2.16c-1.39-.19.21,0,.41.06q2.86.39,5.72.81c3.49.52,7,1.1,10.44,1.79,7.27,1.45,14.36,3.76,21.72,4.75a41.79,41.79,0,0,0,12.08,0,37.32,37.32,0,0,0,9.21-2.88c5.25-2.28,9.94-5.59,14.64-8.8,2.43-1.66,4.88-3.32,7.43-4.81,1.09-.65,2.21-1.26,3.35-1.84.68-.34,1.37-.65,2.06-1,1.23-.57-1.32.49.13,0l1.28-.49c3.76-1.39,7.67-2.55,11.13-4.63a32,32,0,0,0,8-6.7,34.31,34.31,0,0,0,8.2-20,5.67,5.67,0,0,0-5.64-5.63,5.76,5.76,0,0,0-5.63,5.63c0,.37-.07.74-.09,1.1-.1,1.31.25-1.32,0,0-.11.61-.22,1.21-.36,1.81a29.07,29.07,0,0,1-1.2,3.85c-.46,1.21.56-1.16,0,0-.14.28-.26.56-.4.83-.3.61-.62,1.2-1,1.78s-.65,1-1,1.55l-.53.75c-.85,1.16.61-.68-.13.17a35.07,35.07,0,0,1-2.65,2.8c-.26.24-1.21,1.34-1.54,1.32.19,0,.93-.67.27-.22-.41.28-.8.57-1.21.83a30.22,30.22,0,0,1-3.3,1.81c-1.37.67,1.08-.39-.34.15l-1.28.49c-.86.32-1.72.61-2.59.92a71,71,0,0,0-16.1,8.18c-4.66,3.11-9.18,6.48-14.16,9.08-.55.29-1.11.56-1.68.83l-1,.47c-1.15.53.91-.35.14-.06a41.08,41.08,0,0,1-4.06,1.35c-.61.15-1.22.29-1.83.41a6.1,6.1,0,0,1-1.12.19c1.16,0,.37,0,.09,0a40.53,40.53,0,0,1-5.62.06,22.41,22.41,0,0,1-2.33-.23c1.24.24.18,0-.14,0l-1.17-.2c-1.8-.31-3.58-.71-5.36-1.13-3.33-.8-6.64-1.7-10-2.45-6.89-1.53-13.89-2.55-20.89-3.49l-6-.81-1.2-.16c-.2,0-1.8-.23-.41,0l-2.86-.4c-3.45-.48-6.89-1-10.31-1.61-1.8-.34-3.6-.74-5.37-1.26-.88-.25-1.75-.54-2.61-.86l-.36-.12a11.55,11.55,0,0,1-1.24-.57c-3.5-1.7-6.77-3.87-10.08-5.9L29.31,150.18a5.69,5.69,0,0,0-7.71,2,5.76,5.76,0,0,0,2,7.71Z"/></g><path class="cls-6" d="M53.88,126.74S156.69,166.44,175.57,116"/><line class="cls-6" x1="130.85" y1="204.27" x2="130.85" y2="231.79"/><g class="cls-7"><path class="cls-4" d="M55.09,157.34A17,17,0,0,1,41.64,174c-2,.4-1.17,3.51.85,3.11a20.2,20.2,0,0,0,15.82-19.77c-.05-2.06-3.27-2.07-3.22,0Z"/></g><g class="cls-7"><path class="cls-4" d="M134.15,173.8c.89,4.7,1.9,9.71.71,14.45-.9,3.57-3.13,7.11-6.73,8.41-1.93.7-1.1,3.81.86,3.1a14.68,14.68,0,0,0,8.78-9.95c1.64-5.5.53-11.36-.51-16.86-.39-2-3.5-1.18-3.11.85Z"/></g><g class="cls-7"><path class="cls-4" d="M185.09,151.51a12.74,12.74,0,0,0,8.3,13.07,1.63,1.63,0,0,0,2-1.13,1.66,1.66,0,0,0-1.13-2,10,10,0,0,1-2.49-1.44,9.65,9.65,0,0,1-2.1-2.43,8.8,8.8,0,0,1-1.19-2.9c-.07-.29-.12-.58-.17-.87,0,.17,0,0,0-.06s0-.32,0-.48a10.6,10.6,0,0,1,.06-1.78,1.62,1.62,0,0,0-1.61-1.61,1.66,1.66,0,0,0-1.61,1.61Z"/></g><path class="cls-8" d="M80.94,135.78c-.06-.46,0-3.23,0-5a9,9,0,0,1,.89-3.83,13,13,0,0,1,6.76-6.34,4.83,4.83,0,0,1,1.84-.36h6.75a5.31,5.31,0,0,1,3.21,1.08l3.5,2.64a5,5,0,0,1,2,4v10.39a2.79,2.79,0,0,1-.59,1.71c-1.72,2.19-6.91,8.46-12.1,11a5.51,5.51,0,0,1-5.86-.55C85,148.75,82.18,144.74,80.94,135.78Z"/><path class="cls-8" d="M107,128.69l3.21-3.14A5.65,5.65,0,0,1,113.8,124l6-.37a7.48,7.48,0,0,1,2.06.15c2.76.58,9.8,2.42,10,6.13.1,1.76,0,9,0,10.92a2.92,2.92,0,0,1-.12.83c-.66,2.2-4,12.34-10.18,14-4.42,1.15-7,.14-8.23-.74a3.85,3.85,0,0,1-1.3-1.61l-5.86-13.64a4.08,4.08,0,0,1-.34-1.61v-6.42A4.07,4.07,0,0,1,107,128.69Z"/><path class="cls-8" d="M132.9,128.94l6.13-5.59a3.93,3.93,0,0,1,2.41-1l8.95-.46a2.65,2.65,0,0,1,1.08.16,23.85,23.85,0,0,1,4.06,1.88,4.16,4.16,0,0,1,2,3.54v12.83a7.18,7.18,0,0,1-.25,1.9c-.94,3.63-4.67,16.19-11,16.58,0,0-4.48.45-8.43-10.14a2.63,2.63,0,0,0-.15-.35c-.43-.82-2.31-4.26-4.51-5.89a3.53,3.53,0,0,1-1.44-2.89l.08-8.19A3.23,3.23,0,0,1,132.9,128.94Z"/><path class="cls-9" d="M142.24,123.48a18.15,18.15,0,0,0-6.81,6.83,13.79,13.79,0,0,0-1.52,5.17c-.18,1.81.08,3.64,0,5.46a3,3,0,0,0,3,3,3.07,3.07,0,0,0,3-3c.1-1.59-.08-3.18,0-4.76,0-.24,0-.47,0-.7,0-.47-.1.43,0,.05s.12-.59.2-.87c0,0,.3-.95.31-.95s-.27.56,0,.11l.24-.5a6.41,6.41,0,0,1,1-1.59c-.15.14-.28.34,0,.07l.3-.34c.22-.26.45-.5.69-.74s.44-.42.67-.62l.43-.37c.27-.23.07-.11-.07.05a7.27,7.27,0,0,1,1.69-1.14,3,3,0,1,0-3-5.16Z"/><path class="cls-9" d="M102.56,125.94c-2.59-2.64-6.12-5-10-4.77-3.68.18-7.29,2.38-8.34,6-.6,2.07-.34,4.41-.33,6.53s0,4.18,0,6.27c.09,3.85,1.22,8.34,5.12,10A3.1,3.1,0,0,0,93.15,149c.74-1.27.41-3.44-1.07-4.09a2.76,2.76,0,0,1-1.66-1.62,10.46,10.46,0,0,1-.51-3.89c0-3.22-.1-6.46,0-9.68A3.93,3.93,0,0,1,90,129c0-.13.28-.73.09-.35,0,0,.5-.72.22-.39,0-.06.56-.54.37-.39a4.2,4.2,0,0,1,2-.74c2.22,0,4.1,1.33,5.75,3,2.7,2.75,6.93-1.47,4.23-4.22Z"/><path class="cls-9" d="M112.75,125.44a13.73,13.73,0,0,0-2.93,2.66,8.52,8.52,0,0,0-1.44,3.9,51.16,51.16,0,0,0-.77,9.33,1.5,1.5,0,0,0,3,0,46.18,46.18,0,0,1,.57-8,8.62,8.62,0,0,1,.9-3.29,8.38,8.38,0,0,1,2.19-2,1.55,1.55,0,0,0,.53-2.05,1.5,1.5,0,0,0-2-.53Z"/><path class="cls-10" d="M177.09,91.5a11.13,11.13,0,0,1-9.22,4.19s-2.12,1-3.45-9.17c-.1-.8-2.06-12.24,6.34-12.35,0,0,2.62-3.28,6.33-2.6S183.58,77.91,184,83Z"/><path class="cls-9" d="M165.9,80.63a25.38,25.38,0,0,0,.6,5.36c.42,2,1,4,2.84,5.17a3,3,0,1,0,3-5.16l-.19-.13.6.47a1.88,1.88,0,0,1-.24-.25l.46.6a3.33,3.33,0,0,1-.35-.61l.3.71a16.91,16.91,0,0,1-1-4.1l.11.8a21,21,0,0,1-.19-2.86,3,3,0,0,0-6,0Z"/><path class="cls-8" d="M186.63,102.26l-10,3.17a4.26,4.26,0,0,1-3.4-.79c-1.59-1.25,0-6.8,0-6.8s3.06-12.12,11-16.08,7.48,7.59,7.7,10.64Z"/><path class="cls-9" d="M181.63,87.52l.23.45c.18.32-.21-.68,0-.06.09.29.15.59.23.88s0-.75,0-.1c0,.14,0,.27,0,.41a5.24,5.24,0,0,1,0,1s.13-.75,0-.09c0,.13-.06.26-.1.39s-.1.47-.15.48.3-.63,0-.07a8.42,8.42,0,0,1-.45.76c-.29.45.31-.35.07-.08s-.2.25-.31.36a23.57,23.57,0,0,1-2.64,2.35,17.37,17.37,0,0,0-3,3.08,3,3,0,0,0,1.07,4.09,3.08,3.08,0,0,0,4.09-1.07c-.53.71.17-.17.33-.34s.45-.45.69-.66c.5-.45,1-.88,1.55-1.3a16.65,16.65,0,0,0,3.18-3.26,9.81,9.81,0,0,0,.41-10.24,3,3,0,0,0-4.08-1.07,3.05,3.05,0,0,0-1.08,4.09Z"/><path class="cls-8" d="M181.62,109.84V108a3.37,3.37,0,0,1,.71-2.07c1.86-2.36,6.77-8.83,8.23-13,0,0,.23-1.93,1.93-1.93a2.24,2.24,0,0,1,2,1.62,2.39,2.39,0,0,1,.18.92c0,1.84.09,9.62-1.71,11.62Z"/><path class="cls-9" d="M189.08,97.72a7.88,7.88,0,0,1,0,1.19c0,.23,0-.21,0,0a2.61,2.61,0,0,0-.06.27,6.25,6.25,0,0,1-.16.62,4.81,4.81,0,0,1-.2.53c.06-.14,0,0,0,0l-.16.31a8.42,8.42,0,0,1-.64,1l-.17.24c.1-.13,0,0,0,0l-.38.44c-.27.3-.56.6-.86.88-.62.59-1.27,1.14-1.92,1.69a1.5,1.5,0,0,0,0,2.11,1.54,1.54,0,0,0,2.12,0c2.79-2.36,5.91-5.4,5.47-9.41a1.54,1.54,0,0,0-1.5-1.5,1.51,1.51,0,0,0-1.49,1.5Z"/><path class="cls-8" d="M183.66,109.16s5.55-8.6,8.38-9.73c0,0,1.7-.23,1.92,1.81,0,0-.79,18.34-2.83,23.21s-3.28,4.87-3.28,4.87-1.36,1.36-3.29-5.09S183.66,109.16,183.66,109.16Z"/><path class="cls-8" d="M172,116.53s.12-2.38,3.06-4.19l7.44-4.17a1.63,1.63,0,0,1,2.1.42c1.73,2.3,4.39,9.31-2.07,28.43,0,0-1.32,2.84-3.21,0,0,0-5.17-7.36-5.85-7.47Z"/><path class="cls-9" d="M182.38,109.31q-2.34,1.45-4.58,3.07c-1.39,1-2.85,2-3.48,3.66a16.73,16.73,0,0,0-.59,5.42,59,59,0,0,0,.18,6c.16,1.91,3.15,1.92,3,0-.14-1.76-.21-3.52-.19-5.29a20.68,20.68,0,0,1,.31-4.72c.33-1.26,1.68-2,2.67-2.71q2.06-1.47,4.2-2.8c1.63-1,.13-3.6-1.51-2.58Z"/><path class="cls-8" d="M157.5,136.23a9.74,9.74,0,0,1,4.75,5.89c3.51,9.17,6.68,7.93,6.68,7.93,3.39-.9,5.55-17.12,6-21a12.74,12.74,0,0,0,.1-1.63v-8.16a3.46,3.46,0,0,0-.34-1.49l-.69-1.43a1.62,1.62,0,0,0-1.47-.93h-1.08a3.14,3.14,0,0,0-1.56.42l-11.36,6.46a2.08,2.08,0,0,0-1.05,1.81Z"/><path class="cls-9" d="M170.78,117.27a59.07,59.07,0,0,0-7.41,4.81,9.65,9.65,0,0,0-2.64,2.65,9.17,9.17,0,0,0-1,3.81c-.27,2.58-.47,5.32.55,7.77a17.94,17.94,0,0,0,2.21,3.39,8.66,8.66,0,0,1,1.57,3.87,1.55,1.55,0,0,0,1.49,1.49,1.5,1.5,0,0,0,1.5-1.49,13.22,13.22,0,0,0-2.83-6.51c-1.62-2.11-1.83-4.26-1.65-6.86a12.68,12.68,0,0,1,.49-3.42,5.93,5.93,0,0,1,2.36-2.53,56.56,56.56,0,0,1,6.85-4.4c1.69-.92.19-3.5-1.5-2.58Z"/><path class="cls-11" d="M86.29,125.46c1.29-1.62,3.8-1.57,5.69-1.43,2.38.17,3.7,2,4.78,3.89.82,1.46,1.79,2.7,3.65,2.47a4.71,4.71,0,0,0,2.12-.87,20.31,20.31,0,0,1,2.37-2c.43-.23,0-.87-.38-.65-1.73.9-2.94,3.43-5.26,2.7-1.16-.37-1.63-1.68-2.2-2.64a10.39,10.39,0,0,0-1.63-2.16c-1.43-1.39-3.17-1.56-5.09-1.52-1.67,0-3.48.29-4.58,1.67-.29.38.23.91.53.53Z"/><path class="cls-11" d="M96.19,126.15l3.63,1.21c.46.15.65-.57.2-.72l-3.63-1.21c-.45-.15-.65.57-.2.72Z"/><path class="cls-11" d="M98,125.7v.08a.54.54,0,0,1,0-.18v.1a.83.83,0,0,1,.06-.21l0,.09a.67.67,0,0,1,.11-.18l-.06.07a.81.81,0,0,1,.16-.16l-.08.06.18-.11-.09,0,.18,0-.1,0h.07a.43.43,0,0,0,.26-.11.41.41,0,0,0,.11-.26.38.38,0,0,0-.37-.38,1.2,1.2,0,0,0-.5.14,1,1,0,0,0-.34.28,1.31,1.31,0,0,0-.25.45,2.17,2.17,0,0,0,0,.25,1.1,1.1,0,0,0,0,.26.36.36,0,0,0,.17.23.48.48,0,0,0,.29,0A.36.36,0,0,0,98,126l0-.09a.31.31,0,0,0,0-.19Z"/><path class="cls-11" d="M161,123a50.32,50.32,0,0,0,11.14-5.53c.4-.26,0-.91-.37-.64a49.89,49.89,0,0,1-11,5.45c-.45.16-.25.88.2.72Z"/><path class="cls-11" d="M161.82,124.15a21,21,0,0,0,0,4.41c.21,1.58,1,2.77,1.49,4.25a19,19,0,0,1,.44,5.27l.2,5.39c0,.48.77.48.75,0l-.2-5.39a31,31,0,0,0-.29-4.82c-.31-1.5-1.28-2.74-1.57-4.26a18.31,18.31,0,0,1-.06-4.85c0-.48-.72-.48-.75,0Z"/><path class="cls-11" d="M183.79,110.17c-.78,1.6-2.43,2.31-3.88,3.18a7.82,7.82,0,0,0-3.32,3.55,11.79,11.79,0,0,0-.78,5.55c.15,2.43.53,4.85.82,7.27.06.47.81.48.75,0-.27-2.24-.6-4.48-.79-6.73a11.38,11.38,0,0,1,.9-6.26c1.56-2.93,5.49-3.23,6.95-6.18.21-.43-.43-.81-.65-.38Z"/><path class="cls-11" d="M191.83,94.84c.5.24.59.88.58,1.38a4.47,4.47,0,0,0,.27,2.24.38.38,0,0,0,.65-.38c-.36-.65-.12-1.45-.18-2.16a2,2,0,0,0-1-1.73c-.43-.21-.81.43-.37.65Z"/><path class="cls-11" d="M187.11,84c.64.21.88,1,1,1.55.23,1,.36,2,.54,2.92.08.47.8.27.72-.2l-.32-1.77c-.09-.46-.16-.94-.29-1.4a2.48,2.48,0,0,0-1.48-1.82c-.46-.15-.66.57-.2.72Z"/><path class="cls-11" d="M188.25,92.65a7.27,7.27,0,0,1-4.12,4.74.37.37,0,1,0,.38.64A8,8,0,0,0,189,92.84a.38.38,0,0,0-.73-.19Z"/><path class="cls-11" d="M170.68,75.88a13.3,13.3,0,0,1,2.62,5,.37.37,0,0,0,.72-.19,14.24,14.24,0,0,0-2.81-5.38c-.31-.37-.84.16-.53.53Z"/><path class="cls-11" d="M173,78.62a21.22,21.22,0,0,1,4,.39c.47.1.67-.62.2-.72a21.78,21.78,0,0,0-4.18-.41.37.37,0,0,0,0,.74Z"/><path class="cls-11" d="M175.26,74c1.66,1,3.46,2,4.27,3.85.29.67.64,1.81-.14,2.26a13,13,0,0,0-2,.91c-.37.3.16.83.53.53.64-.52,1.56-.48,2.18-1.06s.5-1.87.18-2.7c-.83-2.12-2.8-3.34-4.67-4.44a.38.38,0,0,0-.38.65Z"/><path class="cls-12" d="M56.12,81.06,21.46,66.34s-10.9-.72-10.9,15.58c0,0-5.77,26.3,61.8,33.45a5.54,5.54,0,0,0,6-6.76,40.19,40.19,0,0,1,.58-19.53,3.88,3.88,0,0,0-3.11-4.88Z"/><path class="cls-12" d="M104.36,6.36S96.82,5.9,97,15c.16,9.57-1.36,19.73,14.07,28.17a19,19,0,0,0,4.1,1.51l31.68,8.56,5.82,1.63a4,4,0,0,0,5-3.74c.08-5.2-1.28-8.45,2.88-13.44,0,0,5-8.74-.34-10.75"/><path class="cls-8" d="M40,57.17a4,4,0,0,0,3.73,1.68,12.64,12.64,0,0,0,2.61-.61,9.53,9.53,0,0,1,5.74-.2,3.29,3.29,0,0,1,1.62,1.12c2.52,3.3,1.92,5.88,1.92,5.88L52.49,82.82,45.61,87.6a3.94,3.94,0,0,1-2.34.76H39.59a3.1,3.1,0,0,1-1.68-.48L34,85.45A3.27,3.27,0,0,0,32.33,85H29a4.47,4.47,0,0,1-2.21-.57,11.79,11.79,0,0,1-4.67-4.87c-2.26-4.3-1.58-17.67-1.58-17.67,1.81-8.15,7.47-7,7.47-7l6.87,0a6.16,6.16,0,0,1,3.9,1.37Z"/><path class="cls-8" d="M65.29,63.56H59.67a4.5,4.5,0,0,0-1.74.34c-2,.85-6.75,3.35-6.57,8.16l.57,12.45s.45,5.78,1.92,7.25c1.32,1.32,1.92,2.56,5.71,3.28a4.4,4.4,0,0,1,1.87.9c.57.45,1.85,1,4.77,1,4.12.09,7.25-3.44,8.38-4.91A19.94,19.94,0,0,1,76,90.35l.11-.12a17,17,0,0,0,3.59-5.82l3.19-8.7a6,6,0,0,0-1.65-6.61l-.13-.1a3.09,3.09,0,0,0-1.93-.7l-2.76-.06a3.77,3.77,0,0,1-2.8-1.35,12.16,12.16,0,0,0-3.51-3,3.22,3.22,0,0,0-1.36-.28Z"/><path class="cls-8" d="M112.57,23.27a2.42,2.42,0,0,1,1.6.61c1,.92,3.14,2.54,5.25,2.54,3,0,5.21-3.15,5.21-3.15L131,11s.55-3.74-1.94-5.33a6.24,6.24,0,0,0-3.86-.86,4.13,4.13,0,0,1-3.09-1.05l-2.17-1.93A5,5,0,0,0,116.63.6h-4.52a5.44,5.44,0,0,0-2.32.5c-1.51.71-4,2.2-4.86,4.71-1.14,3.13-.37,8.72-.09,10.45a4.16,4.16,0,0,0,.29,1A21.06,21.06,0,0,0,107.8,22a3.5,3.5,0,0,0,2.7,1.27Z"/><path class="cls-9" d="M113.63,17.37c-.09,0-.61-.3-.22-.07s0-.05-.09-.12.24.45,0,0c-.07-.13-.14-.28-.22-.41.31.52.05.11,0-.08s-.12-.45-.17-.68-.08-.37-.11-.55c.08.43,0,0,0-.21a43.35,43.35,0,0,1-.17-5.35c0-.18,0-.36,0-.53,0-.58-.07.21,0-.13A10.39,10.39,0,0,1,113,8.08c-.08.24-.17.34,0,.06,0,0,.41-.61.15-.26s.19-.19.2-.21c.32-.35,0,.1-.1,0s.39-.26.45-.29l.18-.1q.3-.15-.24.09c0-.06.32-.1.39-.13l.28-.07c-.28,0-.31,0-.09,0a7.82,7.82,0,0,1,1.28,0c-.32,0-.17,0,.06,0l.84.21A3,3,0,0,0,120,5.4,3,3,0,0,0,118,1.72c-2.5-.65-5.34-.78-7.58.72a8.45,8.45,0,0,0-3.67,6.63,32.22,32.22,0,0,0,.2,6.87c.32,2.51,1.2,5.43,3.71,6.59a3.05,3.05,0,0,0,4.09-1.07c.7-1.32.44-3.38-1.07-4.09Z"/><path class="cls-9" d="M122.06,8.81a.67.67,0,0,1,.18.11l-.3-.24a1.54,1.54,0,0,1,.17.19l-.23-.31c.2.26.31.58.5.84a2.57,2.57,0,0,0,1.68,1.16A3.57,3.57,0,0,0,126,10.4a3.75,3.75,0,0,0,1.54-1.05,1.61,1.61,0,0,0,.44-1.06,1.56,1.56,0,0,0-.44-1.06,1.51,1.51,0,0,0-1.06-.43,1.41,1.41,0,0,0-1.05.43,2.11,2.11,0,0,1-.4.39l.3-.23a2.87,2.87,0,0,1-.48.28l.36-.16a2.48,2.48,0,0,1-.59.17l.4-.06a2.18,2.18,0,0,1-.51,0l.4,0a1.3,1.3,0,0,1-.34-.08l.36.15-.22-.13.3.23a1.07,1.07,0,0,1-.18-.19L125,8a7.49,7.49,0,0,1-.42-.72,2.57,2.57,0,0,0-1-1,1.54,1.54,0,0,0-1.15-.15,1.51,1.51,0,0,0-.9.68,1.54,1.54,0,0,0-.15,1.15,1.49,1.49,0,0,0,.69.9Z"/><path class="cls-9" d="M35.05,57.28c-3.24.42-6.59-.73-9.59,1.09-3.35,2-4.11,6.05-3.69,9.68.41,3.45.94,7.1,2.84,10.1a11.12,11.12,0,0,0,8.2,5.33c1.61.2,3-1.52,3-3a3.07,3.07,0,0,0-3-3c.59.07-.3-.11-.34-.12-.5-.11,0,.06-.24-.07a6.31,6.31,0,0,1-.76-.42c-.13-.08-.54-.39-.23-.13a9.61,9.61,0,0,1-1.15-1.15c-.13-.16-.13-.16,0,0l-.17-.24c-.16-.25-.32-.5-.46-.76a11.48,11.48,0,0,1-1.13-3.18c-.15-.62-.27-1.25-.37-1.88s-.17-1.08-.22-1.51a15,15,0,0,1-.14-1.89A7.07,7.07,0,0,1,27.66,65c-.06.38.15-.48.14-.46l.1-.28c-.1.2-.11.21,0,0a4,4,0,0,1,.37-.63c-.36.47.41-.36,0,0,.08-.07.82-.44.37-.26a4.49,4.49,0,0,1,.72-.19c.29-.06-.24,0,.28,0s1.16,0,1.75,0a20,20,0,0,0,3.71,0,3.09,3.09,0,0,0,3-3c0-1.46-1.38-3.2-3-3Z"/><path class="cls-9" d="M63.81,65a9.57,9.57,0,0,0-7.53,3.91c-1.88,2.52-1.82,5.53-1.82,8.54,0,3.22-.1,6.46,0,9.68.15,3.62,2.63,5.44,5.84,6.47a3,3,0,0,0,1.58-5.77l-.6-.2c-.08,0-.47-.18-.19-.06a6.1,6.1,0,0,1-.57-.29c-.13-.08-.32-.3-.13-.09s-.08,0-.06-.12c0,0,.11,0,.11.06,0-.59,0-1.17,0-1.76l0-7.47c0-1.15,0-2.31,0-3.45A3.72,3.72,0,0,1,61,72.53a3.42,3.42,0,0,1,2.82-1.6c3.84-.08,3.85-6.06,0-6Z"/><path class="cls-8" d="M125.32,28.52a3.85,3.85,0,0,0,2.09,1.69c8.44,2.84,6.07,3.61,8.89,4.59s4.45,0,4.45,0l8.46-5.66,3-7.18a11.47,11.47,0,0,0-1.68-6.82,3.78,3.78,0,0,0-3.15-1.77l-3.2-.06a4,4,0,0,1-3-1.45c-1-1.2-2.57-2.77-4-3.11a4.41,4.41,0,0,0-3.69,1.31A3.89,3.89,0,0,1,131,11h-1.28a3.4,3.4,0,0,0-2.85,1.53s-3.81,3.56-3.7,8.32A14.7,14.7,0,0,0,125.32,28.52Z"/><path class="cls-9" d="M133.76,13a3.17,3.17,0,0,0,2.92,2.32c.57.08,1.1.09,1.59.19.3.06.6.13.9.22l.43.15s.39.17.18.07l.28.14s.31.21.22.14.15.19,0,0a3.84,3.84,0,0,1,.18.35A2.82,2.82,0,0,0,141.72,18a5.67,5.67,0,0,0,4.15-.05,1.54,1.54,0,0,0,1-1.84,1.52,1.52,0,0,0-1.84-1,4.28,4.28,0,0,1-1.27.28h-.38s-.48,0-.32,0-.15-.1-.05,0l.14.09a3,3,0,0,0-.21-.46,3.7,3.7,0,0,0-.48-.69,3.81,3.81,0,0,0-1.22-.88,10.34,10.34,0,0,0-3.17-.89,12,12,0,0,1-1.27-.15s-.32-.11-.2-.05-.15-.15,0,0,0,0,0,0-.07-.07,0,0,.14.41.06,0a1.49,1.49,0,0,0-2.88.8Z"/><path class="cls-9" d="M125,20c-.35,3.29-.23,8.14,3.21,9.8a10.93,10.93,0,0,0,3.1.66c-.55-.1.84.39.32.12a4.92,4.92,0,0,1,.78.5c-.32-.25.38.36.45.43.26.24.52.49.79.71a5,5,0,0,0,3.12,1.27c7.06.44,14-5,14.29-12.21a3,3,0,1,0-6,0,5.35,5.35,0,0,1-.64,2.34,8.39,8.39,0,0,1-.5.81l-.19.26c.1-.14.09-.13,0,0s-.37.4-.57.59c0,0-.69.6-.4.38a8.12,8.12,0,0,1-2.84,1.44,12.65,12.65,0,0,1-1.58.35,5.87,5.87,0,0,0-1.55,0l.74.18q.27.21,0,0a3.45,3.45,0,0,0-.56-.52,15.66,15.66,0,0,0-1.81-1.44A9.12,9.12,0,0,0,131,24.41c-.38-.05-.25-.15-.11,0s.26.25.37.39c-.31-.38,0,.23-.1-.26,0-.23-.11-.46-.14-.69A15.91,15.91,0,0,1,131,20a3,3,0,0,0-3-3,3,3,0,0,0-3,3Z"/><path class="cls-13" d="M151.53,38.64a8.74,8.74,0,0,1-4.64-6.91c0-.49-.1-1-.13-1.57L147,25a5.76,5.76,0,0,1,2.53-4.71,8.86,8.86,0,0,1,3.08-1.11,2.36,2.36,0,0,0,1.27-.65,6.72,6.72,0,0,1,4.56-1.63c1.95-.07,3.22,1.86,4,3.82a15.61,15.61,0,0,1,1,7.07C163,33.15,161,43.18,151.53,38.64Z"/><path class="cls-9" d="M148.55,30.57c.11.37.17.75.29,1.11a7.17,7.17,0,0,0,.67,1.5,7.38,7.38,0,0,0,2.22,2.3,6.79,6.79,0,0,0,3.21,1.08,4,4,0,0,0,1,0,7.36,7.36,0,0,0,1.8-.35,3.27,3.27,0,0,0,1.78-1.38,3,3,0,0,0,.3-2.3,3,3,0,0,0-1.37-1.79,3,3,0,0,0-2.3-.3,4.22,4.22,0,0,1-.91.24l.79-.11a4.28,4.28,0,0,1-1.13,0l.79.1a4,4,0,0,1-1-.28l.72.31a4.26,4.26,0,0,1-.87-.52l.6.47a4.63,4.63,0,0,1-.7-.7l.47.6a4.77,4.77,0,0,1-.55-.92l.31.71a12.85,12.85,0,0,1-.4-1.38,3.13,3.13,0,0,0-1.37-1.78,3,3,0,0,0-4.39,3.37Z"/><path class="cls-11" d="M25.22,59.8l.08-.12s0,0,0,0,0,0,0,0l.18-.19.21-.19h0a.15.15,0,0,1,.06,0l.11-.07.24-.14.11,0h0l.07,0a2.94,2.94,0,0,1,.53-.14.38.38,0,0,0,.26-.46.39.39,0,0,0-.46-.26,3.06,3.06,0,0,0-2.06,1.36.37.37,0,0,0,.13.51.38.38,0,0,0,.51-.13Z"/><path class="cls-11" d="M25.72,61.77a8.82,8.82,0,0,1,4.15,1.93,26.7,26.7,0,0,0,2.89,2.74c2,1.27,4.5.78,6.72.75a6,6,0,0,1,3.94,1c.78.61,1.44,1.3,2.5,1.22,2.36-.16,4.55-2.24,5.71-4.14a.37.37,0,0,0-.64-.38,8.56,8.56,0,0,1-2.73,2.82,5.39,5.39,0,0,1-2,.9c-1.1.1-1.64-.46-2.41-1.06-1.57-1.21-3.52-1.2-5.41-1.11a15.92,15.92,0,0,1-3.45,0,5.62,5.62,0,0,1-3.27-2,10.27,10.27,0,0,0-5.76-3.42c-.47-.09-.67.63-.2.72Z"/><path class="cls-11" d="M31,60.35a11.05,11.05,0,0,0,2.95,2.25,9.6,9.6,0,0,0,3.51,1.46c2.4.38,5.71-1,7.53,1.2.3.37.83-.16.52-.53-1.63-2-4.37-1.38-6.61-1.33a7.62,7.62,0,0,1-4-1.13,11.68,11.68,0,0,1-3.32-2.45c-.31-.37-.83.16-.53.53Z"/><path class="cls-11" d="M38.2,63.7l2.72-2.12a.38.38,0,0,0,0-.53.39.39,0,0,0-.53,0l-2.72,2.12a.38.38,0,0,0,0,.53.4.4,0,0,0,.53,0Z"/><path class="cls-11" d="M56.71,66.93a1.62,1.62,0,0,0,.38,3.19.38.38,0,0,0,.37-.37.39.39,0,0,0-.37-.38H57c.08,0,0,0,0,0l-.1,0s-.11,0,0,0l-.17-.09s-.09-.07-.06,0,0,0,0,0L56.4,69c0,.06,0,0,0,0l-.06-.09s0-.1,0,0l0-.08s0-.07,0-.1a.09.09,0,0,1,0,0h0a1.2,1.2,0,0,1,0-.19c0-.1,0,.07,0,0l0-.1,0-.1c0-.07,0,0,0,0a1.4,1.4,0,0,1,.1-.16s.05-.06,0,0l.07-.08.08-.07s.09-.07,0,0l.17-.11c.06,0,0,0,0,0l.11,0a.37.37,0,1,0-.2-.72Z"/><path class="cls-11" d="M60.05,71.31c.85.38,1.29,1.17,1.93,1.79A3.29,3.29,0,0,0,64,74a29.89,29.89,0,0,1,3.4.24,10.18,10.18,0,0,1,3.27,1.3A8.05,8.05,0,0,0,73,76.82a5.86,5.86,0,0,0,2.72-.24,4.44,4.44,0,0,0,3.42-2.83.37.37,0,0,0-.72-.2c-.48,1.71-2.47,2.33-4,2.54-1.93.27-3.38-1.39-5.1-2.06a15.8,15.8,0,0,0-5-.74,3.1,3.1,0,0,1-2.36-1.35,4.65,4.65,0,0,0-1.51-1.28c-.43-.2-.81.45-.38.65Z"/><path class="cls-11" d="M63.17,67.74a1.32,1.32,0,0,1-.4,1.48.38.38,0,0,0,0,.64q2.05,1,4.19,1.88a.38.38,0,0,0,.46-.26.37.37,0,0,0-.26-.46c-1.36-.55-2.7-1.15-4-1.8v.64a2.05,2.05,0,0,0,.74-2.31.38.38,0,0,0-.46-.26.36.36,0,0,0-.26.45Z"/><path class="cls-11" d="M72.64,69.51c0,.09,0,0,0-.06l.08-.14,0-.06s.06-.07,0,0,0,0,0,0l0-.07.21-.19c.05,0,0,0,0,0l.06,0,.14-.08.12-.06.07,0c-.08,0,0,0,0,0a1.4,1.4,0,0,1,.29-.09h.06c.08,0,0,0,0,0a.66.66,0,0,0,.14,0,1.71,1.71,0,0,1,.32,0,.37.37,0,0,0,.37-.37.39.39,0,0,0-.37-.38,2.33,2.33,0,0,0-1.41.31,2.36,2.36,0,0,0-1,1.14.37.37,0,0,0,.26.45.38.38,0,0,0,.46-.26Z"/><path class="cls-11" d="M82.15,77.37a.38.38,0,0,0,0-.75.38.38,0,0,0,0,.75Z"/><path class="cls-11" d="M152.29,22a5.7,5.7,0,0,1,4.3,3.74c.15.46.87.26.72-.19a6.45,6.45,0,0,0-4.82-4.27c-.47-.09-.67.63-.2.72Z"/><path class="cls-11" d="M155.26,23.58a23.07,23.07,0,0,0,5.38-.25.38.38,0,0,0,.27-.46.39.39,0,0,0-.46-.26,22.56,22.56,0,0,1-5.19.23c-.48,0-.48.71,0,.74Z"/><path class="cls-11" d="M132.67,13.35a8,8,0,0,0,2,1.89,4.57,4.57,0,0,0,2.49.51,3.81,3.81,0,0,1,2.72.88c.62.55,1.14,1.2,1.77,1.74a4.89,4.89,0,0,0,4.66,1,3.11,3.11,0,0,0,2.41-3.61c-.11-.46-.83-.27-.72.2.51,2.12-2.08,3-3.75,2.85s-2.47-1.36-3.55-2.39A4.4,4.4,0,0,0,137.52,15a4.59,4.59,0,0,1-2.61-.47,8,8,0,0,1-1.72-1.71c-.3-.37-.83.16-.52.53Z"/><path class="cls-11" d="M139.5,15.79l1.94-.8a.37.37,0,1,0-.19-.72l-1.95.8a.37.37,0,0,0-.26.45.38.38,0,0,0,.46.27Z"/><path class="cls-11" d="M114,5.9l3.47,2.28a.38.38,0,0,0,.51-.13.39.39,0,0,0-.14-.51l-3.46-2.28a.38.38,0,0,0-.51.13.37.37,0,0,0,.13.51Z"/><path class="cls-11" d="M115.22,9.54a8.05,8.05,0,0,0,2.2-.59,21.48,21.48,0,0,0,2.1-1.29c1.91-1.09,2.64,1.57,3.51,2.7,1.71,2.23,5.87,1.07,6.57-1.53a.37.37,0,0,0-.72-.2,3.44,3.44,0,0,1-3.56,2.15c-1.79-.1-2.09-1.85-3-3a2.31,2.31,0,0,0-2.78-.92c-.67.29-1.21.82-1.85,1.17a6.84,6.84,0,0,1-2.45.79c-.47.07-.48.81,0,.75Z"/><path class="cls-11" d="M121.06,7.13a4.39,4.39,0,0,0,1.44-.49.37.37,0,0,0,.14-.51.38.38,0,0,0-.51-.13l-.17.08-.07,0-.09,0s.06,0,0,0l0,0-.09,0-.16.06a4.3,4.3,0,0,1-.69.16.44.44,0,0,0-.23.17.41.41,0,0,0,0,.29.39.39,0,0,0,.17.23.41.41,0,0,0,.29,0Z"/><path class="cls-11" d="M111.4,4.42c0-.09,0,.07,0,0s0,0,0-.08l.07-.11h0l0-.06.09-.1.06,0c.07-.06-.06,0,0,0l.12-.08.14-.07s.08,0,0,0,0,0,0,0a2.45,2.45,0,0,1,.29-.08s-.08,0,0,0h.34s0,0,0,0a.35.35,0,0,1,.14,0l.14,0c-.08,0,0,0,0,0l.08,0a.38.38,0,0,0,.51-.14.39.39,0,0,0-.14-.51,2,2,0,0,0-2.72,1,.37.37,0,0,0,.26.46.39.39,0,0,0,.46-.26Z"/><g class="cls-14"><path class="cls-3" d="M16.31,91.43c4.23,6.52,11.22,10.31,18.3,13a96.64,96.64,0,0,0,20.67,5c2.31.33,4.93-.57,5.52-3.13.48-2.12-.65-5.16-3.14-5.52A99.13,99.13,0,0,1,38,96.15c-.82-.3-1.63-.62-2.44-.94-.47-.19-.43-.18.11.05L35,95l-1.09-.5a40.14,40.14,0,0,1-4.36-2.4,11.35,11.35,0,0,1-2-1.37c.86.87-.1-.09-.31-.27s-.54-.47-.8-.72a21.52,21.52,0,0,1-1.56-1.61c-.13-.15-.26-.3-.38-.46-.3-.37-.25-.3.16.22-.1,0-.58-.85-.65-1a4.49,4.49,0,0,0-7.75,4.52Z"/></g><path class="cls-15" d="M82,82.65s1.1-6.77,6.56-2.38c0,0,14.57,13.24,33.7,10.51S159.83,75,159.83,75A28.61,28.61,0,0,0,167,69a18.9,18.9,0,0,0,2.68-19.59c-1.32-3.06-3.58-8.08-6-9.66L161,34.84S148.41,41,162.87,52.29c0,0,7.23,6,1.16,13.8S142.68,80,142.68,80l-7.51,3A39.7,39.7,0,0,1,121,86c-8.69.15-21.72-1.12-28.34-9.12a2,2,0,0,1-.43-1.06c-.13-1.07-.35-2,3.15-2.59,0,0-16.92-8.22-13.37,9.73"/><path class="cls-16" d="M183.36,175.54c-18,5.43-32.05,18.89-37.06,24.17a14,14,0,0,1-7.37,4.14,31.77,31.77,0,0,1-8.08.42,41.39,41.39,0,0,1-16.24-4.51c-17.33-8.92-41.85-12.62-47.18-13.35-.65-.08-1.31-.13-2-.18C48.12,185.05,20.19,165,20.19,165c-15-7-16.6-17.41-17.74-19.53A3,3,0,0,0,1,144.05a5.56,5.56,0,0,0-.46,2.17v40.83a6.21,6.21,0,0,0,3.79,5.72c98,41.52,128.72,39,128.72,39C171.19,226,197.2,195.91,204.13,187a8.77,8.77,0,0,0,1.85-5.39V147.56C204.51,171.31,183.36,175.54,183.36,175.54Z"/><path class="cls-17" d="M205.43,140.13c-1.19-3.27-3.83-6.6-5.75-8.75a9.87,9.87,0,0,1-2.51-5.84l-.83-11.25c-.86-10.74-5.82-16.51-5.82-16.51C172.62,76.63,129.35,62,129.35,62,105.6,51.9,93.23,56.13,89.33,60c-3.5,3.5-.74,22.36-.12,26.29a7.32,7.32,0,0,1,.09,1.48c-.75,19-5.59,17.59-12.34,27.55s-21.8,12-21.8,12l-15.61-5.86c-14-5.86-22.46-2.6-22.46-2.6S9,120.88,6,131.94c-1.76,6.67-3.41,9.67-4.44,11A5.29,5.29,0,0,0,1,144.05a3,3,0,0,1,1.49,1.39C3.59,147.56,5.22,158,20.19,165c0,0,27.93,20.08,45.26,21.26.67.05,1.33.1,2,.18,5.33.73,29.85,4.43,47.18,13.35a41.39,41.39,0,0,0,16.24,4.51,31.77,31.77,0,0,0,8.08-.42,14,14,0,0,0,7.37-4.14c5-5.28,19.08-18.74,37.06-24.17,0,0,21.15-4.23,22.62-28v-4.24A9.35,9.35,0,0,0,205.43,140.13Z"/><g class="cls-18"><path class="cls-19" d="M98,72.1c8.93,2.59,17.79,5.48,26.48,8.81,2.11.8,4.2,1.64,6.29,2.49.55.23,1.1.49,1.66.69-.16,0-1.35-.57-.29-.12l.62.27c1.1.47,2.21,1,3.3,1.44q6.38,2.83,12.58,6.06t12,6.74q3,1.81,5.88,3.75c.88.59,1.76,1.18,2.63,1.79.46.32.92.64,1.37,1l.5.38c.65.47-1.05-.85-.14-.11a40.81,40.81,0,0,1,4.64,4.47c.57.63-.72-1-.24-.33l.37.51c.31.45.6.91.88,1.38s.44.8.64,1.21c.12.23.45,1,.08.11s.06.18.11.31a21.1,21.1,0,0,1,.8,2.79,7.22,7.22,0,0,0,.25,1.34c0-.11-.16-1.65-.09-.55,0,.32.06.64.08,1a24,24,0,0,1,0,2.94c0,.46-.08.91-.11,1.37-.05.72.11-.78.1-.73-.09.38-.12.79-.2,1.17a25.29,25.29,0,0,1-.66,2.7c-.15.51-.31,1-.49,1.51-.09.25-.18.5-.28.74-.3.82.06-.19.2-.43a60.48,60.48,0,0,1-3,5.3c-.92,1.28.64-.75-.07.12-.34.4-.67.81-1,1.2-.69.79-1.42,1.55-2.18,2.28s-1.45,1.33-2.21,2L168,138c-.83.68.26-.21.37-.28-.5.32-1,.71-1.44,1.05a65.43,65.43,0,0,1-10.62,5.79c1.66-.75-.12,0-.56.21s-1,.39-1.53.58c-1.16.43-2.34.83-3.53,1.2-2.3.72-4.64,1.34-7,1.85-1.14.24-2.29.46-3.44.66l-1.61.25c-1.17.19.16,0,.33,0-.38.08-.78.09-1.16.14-2.39.27-4.8.43-7.21.49a144.24,144.24,0,0,1-15.26-.75c-5-.43-10-.85-14.93-1.46a7.29,7.29,0,0,0-1.71-.22c.16-.15,1.23.18.26,0l-1-.14c-1.27-.18-2.54-.38-3.8-.59-2.45-.41-4.89-.88-7.32-1.39A194.61,194.61,0,0,1,59,137.09q-3.42-1.28-6.8-2.65l-3.27-1.34c-.34-.15-1-.57.24.1-.2-.11-.44-.19-.65-.28l-2-.84c-4.48-1.93-8.91-4-13.33-6l-6.39-3c-3-1.45-7.09-.93-8.81,2.32-1.52,2.87-.93,7.25,2.31,8.81,18.53,8.86,37.46,17.4,57.46,22.35a213.68,213.68,0,0,0,32.11,5.05c5.24.47,10.5,1,15.76,1.18a89.43,89.43,0,0,0,16.35-1,78.21,78.21,0,0,0,27.84-9.59c8.47-5,15.46-12,19.15-21.15,3.57-8.89,3.19-20.19-2.64-28.07a46.38,46.38,0,0,0-11.61-10.6c-4-2.73-8.1-5.28-12.3-7.69-17-9.76-35.42-17.07-54.13-22.87-2.29-.71-4.59-1.39-6.89-2.06A6.44,6.44,0,0,0,98,72.1Z"/></g><path class="cls-20" d="M89,98.1c-1.88,9.28-6,10.05-11.32,17.89-6.84,10.09-21.8,12-21.8,12s74.09,26.8,108.32,3.48C164.2,131.51,163.7,114.73,89,98.1Z"/><g class="cls-5"><path class="cls-3" d="M23.62,159.91,42.9,171.78c6.25,3.86,12.36,7.87,19.56,9.73s14.72,2.58,22.06,3.55l2.62.35,1.2.16c-1.39-.19.21,0,.41.06q2.86.39,5.72.81c3.49.52,7,1.1,10.44,1.79,7.27,1.45,14.36,3.76,21.72,4.75a41.79,41.79,0,0,0,12.08,0,37.32,37.32,0,0,0,9.21-2.88c5.25-2.28,9.94-5.59,14.64-8.8,2.43-1.66,4.88-3.32,7.43-4.81,1.09-.65,2.21-1.26,3.35-1.84.68-.34,1.37-.65,2.06-1,1.23-.57-1.32.49.13,0l1.28-.49c3.76-1.39,7.67-2.55,11.13-4.63a32,32,0,0,0,8-6.7,34.31,34.31,0,0,0,8.2-20,5.67,5.67,0,0,0-5.64-5.63,5.76,5.76,0,0,0-5.63,5.63c0,.37-.07.74-.09,1.1-.1,1.31.25-1.32,0,0-.11.61-.22,1.21-.36,1.81a29.07,29.07,0,0,1-1.2,3.85c-.46,1.21.56-1.16,0,0-.14.28-.26.56-.4.83-.3.61-.62,1.2-1,1.78s-.65,1-1,1.55l-.53.75c-.85,1.16.61-.68-.13.17a35.07,35.07,0,0,1-2.65,2.8c-.26.24-1.21,1.34-1.54,1.32.19,0,.93-.67.27-.22-.41.28-.8.57-1.21.83a30.22,30.22,0,0,1-3.3,1.81c-1.37.67,1.08-.39-.34.15l-1.28.49c-.86.32-1.72.61-2.59.92a71,71,0,0,0-16.1,8.18c-4.66,3.11-9.18,6.48-14.16,9.08-.55.29-1.11.56-1.68.83l-1,.47c-1.15.53.91-.35.14-.06a41.08,41.08,0,0,1-4.06,1.35c-.61.15-1.22.29-1.83.41a6.1,6.1,0,0,1-1.12.19c1.16,0,.37,0,.09,0a40.53,40.53,0,0,1-5.62.06,22.41,22.41,0,0,1-2.33-.23c1.24.24.18,0-.14,0l-1.17-.2c-1.8-.31-3.58-.71-5.36-1.13-3.33-.8-6.64-1.7-10-2.45-6.89-1.53-13.89-2.55-20.89-3.49l-6-.81-1.2-.16c-.2,0-1.8-.23-.41,0l-2.86-.4c-3.45-.48-6.89-1-10.31-1.61-1.8-.34-3.6-.74-5.37-1.26-.88-.25-1.75-.54-2.61-.86l-.36-.12a11.55,11.55,0,0,1-1.24-.57c-3.5-1.7-6.77-3.87-10.08-5.9L29.31,150.18a5.69,5.69,0,0,0-7.71,2,5.76,5.76,0,0,0,2,7.71Z"/></g><path class="cls-6" d="M53.88,126.74S156.69,166.44,175.57,116"/><line class="cls-6" x1="130.85" y1="204.27" x2="130.85" y2="231.79"/><g class="cls-7"><path class="cls-4" d="M55.09,157.34A17,17,0,0,1,41.64,174c-2,.4-1.17,3.51.85,3.11a20.2,20.2,0,0,0,15.82-19.77c-.05-2.06-3.27-2.07-3.22,0Z"/></g><g class="cls-7"><path class="cls-4" d="M134.15,173.8c.89,4.7,1.9,9.71.71,14.45-.9,3.57-3.13,7.11-6.73,8.41-1.93.7-1.1,3.81.86,3.1a14.68,14.68,0,0,0,8.78-9.95c1.64-5.5.53-11.36-.51-16.86-.39-2-3.5-1.18-3.11.85Z"/></g><g class="cls-7"><path class="cls-4" d="M185.09,151.51a12.74,12.74,0,0,0,8.3,13.07,1.63,1.63,0,0,0,2-1.13,1.66,1.66,0,0,0-1.13-2,10,10,0,0,1-2.49-1.44,9.65,9.65,0,0,1-2.1-2.43,8.8,8.8,0,0,1-1.19-2.9c-.07-.29-.12-.58-.17-.87,0,.17,0,0,0-.06s0-.32,0-.48a10.6,10.6,0,0,1,.06-1.78,1.62,1.62,0,0,0-1.61-1.61,1.66,1.66,0,0,0-1.61,1.61Z"/></g><path class="cls-8" d="M80.94,135.78c-.06-.46,0-3.23,0-5a9,9,0,0,1,.89-3.83,13,13,0,0,1,6.76-6.34,4.83,4.83,0,0,1,1.84-.36h6.75a5.31,5.31,0,0,1,3.21,1.08l3.5,2.64a5,5,0,0,1,2,4v10.39a2.79,2.79,0,0,1-.59,1.71c-1.72,2.19-6.91,8.46-12.1,11a5.51,5.51,0,0,1-5.86-.55C85,148.75,82.18,144.74,80.94,135.78Z"/><path class="cls-8" d="M107,128.69l3.21-3.14A5.65,5.65,0,0,1,113.8,124l6-.37a7.48,7.48,0,0,1,2.06.15c2.76.58,9.8,2.42,10,6.13.1,1.76,0,9,0,10.92a2.92,2.92,0,0,1-.12.83c-.66,2.2-4,12.34-10.18,14-4.42,1.15-7,.14-8.23-.74a3.85,3.85,0,0,1-1.3-1.61l-5.86-13.64a4.08,4.08,0,0,1-.34-1.61v-6.42A4.07,4.07,0,0,1,107,128.69Z"/><path class="cls-8" d="M132.9,128.94l6.13-5.59a3.93,3.93,0,0,1,2.41-1l8.95-.46a2.65,2.65,0,0,1,1.08.16,23.85,23.85,0,0,1,4.06,1.88,4.16,4.16,0,0,1,2,3.54v12.83a7.18,7.18,0,0,1-.25,1.9c-.94,3.63-4.67,16.19-11,16.58,0,0-4.48.45-8.43-10.14a2.63,2.63,0,0,0-.15-.35c-.43-.82-2.31-4.26-4.51-5.89a3.53,3.53,0,0,1-1.44-2.89l.08-8.19A3.23,3.23,0,0,1,132.9,128.94Z"/><path class="cls-9" d="M142.24,123.48a18.15,18.15,0,0,0-6.81,6.83,13.79,13.79,0,0,0-1.52,5.17c-.18,1.81.08,3.64,0,5.46a3,3,0,0,0,3,3,3.07,3.07,0,0,0,3-3c.1-1.59-.08-3.18,0-4.76,0-.24,0-.47,0-.7,0-.47-.1.43,0,.05s.12-.59.2-.87c0,0,.3-.95.31-.95s-.27.56,0,.11l.24-.5a6.41,6.41,0,0,1,1-1.59c-.15.14-.28.34,0,.07l.3-.34c.22-.26.45-.5.69-.74s.44-.42.67-.62l.43-.37c.27-.23.07-.11-.07.05a7.27,7.27,0,0,1,1.69-1.14,3,3,0,1,0-3-5.16Z"/><path class="cls-9" d="M102.56,125.94c-2.59-2.64-6.12-5-10-4.77-3.68.18-7.29,2.38-8.34,6-.6,2.07-.34,4.41-.33,6.53s0,4.18,0,6.27c.09,3.85,1.22,8.34,5.12,10A3.1,3.1,0,0,0,93.15,149c.74-1.27.41-3.44-1.07-4.09a2.76,2.76,0,0,1-1.66-1.62,10.46,10.46,0,0,1-.51-3.89c0-3.22-.1-6.46,0-9.68A3.93,3.93,0,0,1,90,129c0-.13.28-.73.09-.35,0,0,.5-.72.22-.39,0-.06.56-.54.37-.39a4.2,4.2,0,0,1,2-.74c2.22,0,4.1,1.33,5.75,3,2.7,2.75,6.93-1.47,4.23-4.22Z"/><path class="cls-9" d="M112.75,125.44a13.73,13.73,0,0,0-2.93,2.66,8.52,8.52,0,0,0-1.44,3.9,51.16,51.16,0,0,0-.77,9.33,1.5,1.5,0,0,0,3,0,46.18,46.18,0,0,1,.57-8,8.62,8.62,0,0,1,.9-3.29,8.38,8.38,0,0,1,2.19-2,1.55,1.55,0,0,0,.53-2.05,1.5,1.5,0,0,0-2-.53Z"/><path class="cls-10" d="M177.09,91.5a11.13,11.13,0,0,1-9.22,4.19s-2.12,1-3.45-9.17c-.1-.8-2.06-12.24,6.34-12.35,0,0,2.62-3.28,6.33-2.6S183.58,77.91,184,83Z"/><path class="cls-9" d="M165.9,80.63a25.38,25.38,0,0,0,.6,5.36c.42,2,1,4,2.84,5.17a3,3,0,1,0,3-5.16l-.19-.13.6.47a1.88,1.88,0,0,1-.24-.25l.46.6a3.33,3.33,0,0,1-.35-.61l.3.71a16.91,16.91,0,0,1-1-4.1l.11.8a21,21,0,0,1-.19-2.86,3,3,0,0,0-6,0Z"/><path class="cls-8" d="M186.63,102.26l-10,3.17a4.26,4.26,0,0,1-3.4-.79c-1.59-1.25,0-6.8,0-6.8s3.06-12.12,11-16.08,7.48,7.59,7.7,10.64Z"/><path class="cls-9" d="M181.63,87.52l.23.45c.18.32-.21-.68,0-.06.09.29.15.59.23.88s0-.75,0-.1c0,.14,0,.27,0,.41a5.24,5.24,0,0,1,0,1s.13-.75,0-.09c0,.13-.06.26-.1.39s-.1.47-.15.48.3-.63,0-.07a8.42,8.42,0,0,1-.45.76c-.29.45.31-.35.07-.08s-.2.25-.31.36a23.57,23.57,0,0,1-2.64,2.35,17.37,17.37,0,0,0-3,3.08,3,3,0,0,0,1.07,4.09,3.08,3.08,0,0,0,4.09-1.07c-.53.71.17-.17.33-.34s.45-.45.69-.66c.5-.45,1-.88,1.55-1.3a16.65,16.65,0,0,0,3.18-3.26,9.81,9.81,0,0,0,.41-10.24,3,3,0,0,0-4.08-1.07,3.05,3.05,0,0,0-1.08,4.09Z"/><path class="cls-8" d="M181.62,109.84V108a3.37,3.37,0,0,1,.71-2.07c1.86-2.36,6.77-8.83,8.23-13,0,0,.23-1.93,1.93-1.93a2.24,2.24,0,0,1,2,1.62,2.39,2.39,0,0,1,.18.92c0,1.84.09,9.62-1.71,11.62Z"/><path class="cls-9" d="M189.08,97.72a7.88,7.88,0,0,1,0,1.19c0,.23,0-.21,0,0a2.61,2.61,0,0,0-.06.27,6.25,6.25,0,0,1-.16.62,4.81,4.81,0,0,1-.2.53c.06-.14,0,0,0,0l-.16.31a8.42,8.42,0,0,1-.64,1l-.17.24c.1-.13,0,0,0,0l-.38.44c-.27.3-.56.6-.86.88-.62.59-1.27,1.14-1.92,1.69a1.5,1.5,0,0,0,0,2.11,1.54,1.54,0,0,0,2.12,0c2.79-2.36,5.91-5.4,5.47-9.41a1.54,1.54,0,0,0-1.5-1.5,1.51,1.51,0,0,0-1.49,1.5Z"/><path class="cls-8" d="M183.66,109.16s5.55-8.6,8.38-9.73c0,0,1.7-.23,1.92,1.81,0,0-.79,18.34-2.83,23.21s-3.28,4.87-3.28,4.87-1.36,1.36-3.29-5.09S183.66,109.16,183.66,109.16Z"/><path class="cls-8" d="M172,116.53s.12-2.38,3.06-4.19l7.44-4.17a1.63,1.63,0,0,1,2.1.42c1.73,2.3,4.39,9.31-2.07,28.43,0,0-1.32,2.84-3.21,0,0,0-5.17-7.36-5.85-7.47Z"/><path class="cls-9" d="M182.38,109.31q-2.34,1.45-4.58,3.07c-1.39,1-2.85,2-3.48,3.66a16.73,16.73,0,0,0-.59,5.42,59,59,0,0,0,.18,6c.16,1.91,3.15,1.92,3,0-.14-1.76-.21-3.52-.19-5.29a20.68,20.68,0,0,1,.31-4.72c.33-1.26,1.68-2,2.67-2.71q2.06-1.47,4.2-2.8c1.63-1,.13-3.6-1.51-2.58Z"/><path class="cls-8" d="M157.5,136.23a9.74,9.74,0,0,1,4.75,5.89c3.51,9.17,6.68,7.93,6.68,7.93,3.39-.9,5.55-17.12,6-21a12.74,12.74,0,0,0,.1-1.63v-8.16a3.46,3.46,0,0,0-.34-1.49l-.69-1.43a1.62,1.62,0,0,0-1.47-.93h-1.08a3.14,3.14,0,0,0-1.56.42l-11.36,6.46a2.08,2.08,0,0,0-1.05,1.81Z"/><path class="cls-9" d="M170.78,117.27a59.07,59.07,0,0,0-7.41,4.81,9.65,9.65,0,0,0-2.64,2.65,9.17,9.17,0,0,0-1,3.81c-.27,2.58-.47,5.32.55,7.77a17.94,17.94,0,0,0,2.21,3.39,8.66,8.66,0,0,1,1.57,3.87,1.55,1.55,0,0,0,1.49,1.49,1.5,1.5,0,0,0,1.5-1.49,13.22,13.22,0,0,0-2.83-6.51c-1.62-2.11-1.83-4.26-1.65-6.86a12.68,12.68,0,0,1,.49-3.42,5.93,5.93,0,0,1,2.36-2.53,56.56,56.56,0,0,1,6.85-4.4c1.69-.92.19-3.5-1.5-2.58Z"/><path class="cls-11" d="M86.29,125.46c1.29-1.62,3.8-1.57,5.69-1.43,2.38.17,3.7,2,4.78,3.89.82,1.46,1.79,2.7,3.65,2.47a4.71,4.71,0,0,0,2.12-.87,20.31,20.31,0,0,1,2.37-2c.43-.23,0-.87-.38-.65-1.73.9-2.94,3.43-5.26,2.7-1.16-.37-1.63-1.68-2.2-2.64a10.39,10.39,0,0,0-1.63-2.16c-1.43-1.39-3.17-1.56-5.09-1.52-1.67,0-3.48.29-4.58,1.67-.29.38.23.91.53.53Z"/><path class="cls-11" d="M96.19,126.15l3.63,1.21c.46.15.65-.57.2-.72l-3.63-1.21c-.45-.15-.65.57-.2.72Z"/><path class="cls-11" d="M98,125.7v.08a.54.54,0,0,1,0-.18v.1a.83.83,0,0,1,.06-.21l0,.09a.67.67,0,0,1,.11-.18l-.06.07a.81.81,0,0,1,.16-.16l-.08.06.18-.11-.09,0,.18,0-.1,0h.07a.43.43,0,0,0,.26-.11.41.41,0,0,0,.11-.26.38.38,0,0,0-.37-.38,1.2,1.2,0,0,0-.5.14,1,1,0,0,0-.34.28,1.31,1.31,0,0,0-.25.45,2.17,2.17,0,0,0,0,.25,1.1,1.1,0,0,0,0,.26.36.36,0,0,0,.17.23.48.48,0,0,0,.29,0A.36.36,0,0,0,98,126l0-.09a.31.31,0,0,0,0-.19Z"/><path class="cls-11" d="M161,123a50.32,50.32,0,0,0,11.14-5.53c.4-.26,0-.91-.37-.64a49.89,49.89,0,0,1-11,5.45c-.45.16-.25.88.2.72Z"/><path class="cls-11" d="M161.82,124.15a21,21,0,0,0,0,4.41c.21,1.58,1,2.77,1.49,4.25a19,19,0,0,1,.44,5.27l.2,5.39c0,.48.77.48.75,0l-.2-5.39a31,31,0,0,0-.29-4.82c-.31-1.5-1.28-2.74-1.57-4.26a18.31,18.31,0,0,1-.06-4.85c0-.48-.72-.48-.75,0Z"/><path class="cls-11" d="M183.79,110.17c-.78,1.6-2.43,2.31-3.88,3.18a7.82,7.82,0,0,0-3.32,3.55,11.79,11.79,0,0,0-.78,5.55c.15,2.43.53,4.85.82,7.27.06.47.81.48.75,0-.27-2.24-.6-4.48-.79-6.73a11.38,11.38,0,0,1,.9-6.26c1.56-2.93,5.49-3.23,6.95-6.18.21-.43-.43-.81-.65-.38Z"/><path class="cls-11" d="M191.83,94.84c.5.24.59.88.58,1.38a4.47,4.47,0,0,0,.27,2.24.38.38,0,0,0,.65-.38c-.36-.65-.12-1.45-.18-2.16a2,2,0,0,0-1-1.73c-.43-.21-.81.43-.37.65Z"/><path class="cls-11" d="M187.11,84c.64.21.88,1,1,1.55.23,1,.36,2,.54,2.92.08.47.8.27.72-.2l-.32-1.77c-.09-.46-.16-.94-.29-1.4a2.48,2.48,0,0,0-1.48-1.82c-.46-.15-.66.57-.2.72Z"/><path class="cls-11" d="M188.25,92.65a7.27,7.27,0,0,1-4.12,4.74.37.37,0,1,0,.38.64A8,8,0,0,0,189,92.84a.38.38,0,0,0-.73-.19Z"/><path class="cls-11" d="M170.68,75.88a13.3,13.3,0,0,1,2.62,5,.37.37,0,0,0,.72-.19,14.24,14.24,0,0,0-2.81-5.38c-.31-.37-.84.16-.53.53Z"/><path class="cls-11" d="M173,78.62a21.22,21.22,0,0,1,4,.39c.47.1.67-.62.2-.72a21.78,21.78,0,0,0-4.18-.41.37.37,0,0,0,0,.74Z"/><path class="cls-11" d="M175.26,74c1.66,1,3.46,2,4.27,3.85.29.67.64,1.81-.14,2.26a13,13,0,0,0-2,.91c-.37.3.16.83.53.53.64-.52,1.56-.48,2.18-1.06s.5-1.87.18-2.7c-.83-2.12-2.8-3.34-4.67-4.44a.38.38,0,0,0-.38.65Z"/><path class="cls-21" d="M56.12,81.06,21.46,66.34s-10.9-.72-10.9,15.58c0,0-5.77,26.3,61.8,33.45a5.54,5.54,0,0,0,6-6.76,40.19,40.19,0,0,1,.58-19.53,3.88,3.88,0,0,0-3.11-4.88Z"/><path class="cls-21" d="M104.36,6.36S96.82,5.9,97,15c.16,9.57-1.36,19.73,14.07,28.17a19,19,0,0,0,4.1,1.51l31.68,8.56,5.82,1.63a4,4,0,0,0,5-3.74c.08-5.2-1.28-8.45,2.88-13.44,0,0,5-8.74-.34-10.75"/><path class="cls-8" d="M40,57.17a4,4,0,0,0,3.73,1.68,12.64,12.64,0,0,0,2.61-.61,9.53,9.53,0,0,1,5.74-.2,3.29,3.29,0,0,1,1.62,1.12c2.52,3.3,1.92,5.88,1.92,5.88L52.49,82.82,45.61,87.6a3.94,3.94,0,0,1-2.34.76H39.59a3.1,3.1,0,0,1-1.68-.48L34,85.45A3.27,3.27,0,0,0,32.33,85H29a4.47,4.47,0,0,1-2.21-.57,11.79,11.79,0,0,1-4.67-4.87c-2.26-4.3-1.58-17.67-1.58-17.67,1.81-8.15,7.47-7,7.47-7l6.87,0a6.16,6.16,0,0,1,3.9,1.37Z"/><path class="cls-8" d="M65.29,63.56H59.67a4.5,4.5,0,0,0-1.74.34c-2,.85-6.75,3.35-6.57,8.16l.57,12.45s.45,5.78,1.92,7.25c1.32,1.32,1.92,2.56,5.71,3.28a4.4,4.4,0,0,1,1.87.9c.57.45,1.85,1,4.77,1,4.12.09,7.25-3.44,8.38-4.91A19.94,19.94,0,0,1,76,90.35l.11-.12a17,17,0,0,0,3.59-5.82l3.19-8.7a6,6,0,0,0-1.65-6.61l-.13-.1a3.09,3.09,0,0,0-1.93-.7l-2.76-.06a3.77,3.77,0,0,1-2.8-1.35,12.16,12.16,0,0,0-3.51-3,3.22,3.22,0,0,0-1.36-.28Z"/><path class="cls-8" d="M112.57,23.27a2.42,2.42,0,0,1,1.6.61c1,.92,3.14,2.54,5.25,2.54,3,0,5.21-3.15,5.21-3.15L131,11s.55-3.74-1.94-5.33a6.24,6.24,0,0,0-3.86-.86,4.13,4.13,0,0,1-3.09-1.05l-2.17-1.93A5,5,0,0,0,116.63.6h-4.52a5.44,5.44,0,0,0-2.32.5c-1.51.71-4,2.2-4.86,4.71-1.14,3.13-.37,8.72-.09,10.45a4.16,4.16,0,0,0,.29,1A21.06,21.06,0,0,0,107.8,22a3.5,3.5,0,0,0,2.7,1.27Z"/><path class="cls-9" d="M113.63,17.37c-.09,0-.61-.3-.22-.07s0-.05-.09-.12.24.45,0,0c-.07-.13-.14-.28-.22-.41.31.52.05.11,0-.08s-.12-.45-.17-.68-.08-.37-.11-.55c.08.43,0,0,0-.21a43.35,43.35,0,0,1-.17-5.35c0-.18,0-.36,0-.53,0-.58-.07.21,0-.13A10.39,10.39,0,0,1,113,8.08c-.08.24-.17.34,0,.06,0,0,.41-.61.15-.26s.19-.19.2-.21c.32-.35,0,.1-.1,0s.39-.26.45-.29l.18-.1q.3-.15-.24.09c0-.06.32-.1.39-.13l.28-.07c-.28,0-.31,0-.09,0a7.82,7.82,0,0,1,1.28,0c-.32,0-.17,0,.06,0l.84.21A3,3,0,0,0,120,5.4,3,3,0,0,0,118,1.72c-2.5-.65-5.34-.78-7.58.72a8.45,8.45,0,0,0-3.67,6.63,32.22,32.22,0,0,0,.2,6.87c.32,2.51,1.2,5.43,3.71,6.59a3.05,3.05,0,0,0,4.09-1.07c.7-1.32.44-3.38-1.07-4.09Z"/><path class="cls-9" d="M122.06,8.81a.67.67,0,0,1,.18.11l-.3-.24a1.54,1.54,0,0,1,.17.19l-.23-.31c.2.26.31.58.5.84a2.57,2.57,0,0,0,1.68,1.16A3.57,3.57,0,0,0,126,10.4a3.75,3.75,0,0,0,1.54-1.05,1.61,1.61,0,0,0,.44-1.06,1.56,1.56,0,0,0-.44-1.06,1.51,1.51,0,0,0-1.06-.43,1.41,1.41,0,0,0-1.05.43,2.11,2.11,0,0,1-.4.39l.3-.23a2.87,2.87,0,0,1-.48.28l.36-.16a2.48,2.48,0,0,1-.59.17l.4-.06a2.18,2.18,0,0,1-.51,0l.4,0a1.3,1.3,0,0,1-.34-.08l.36.15-.22-.13.3.23a1.07,1.07,0,0,1-.18-.19L125,8a7.49,7.49,0,0,1-.42-.72,2.57,2.57,0,0,0-1-1,1.54,1.54,0,0,0-1.15-.15,1.51,1.51,0,0,0-.9.68,1.54,1.54,0,0,0-.15,1.15,1.49,1.49,0,0,0,.69.9Z"/><path class="cls-9" d="M35.05,57.28c-3.24.42-6.59-.73-9.59,1.09-3.35,2-4.11,6.05-3.69,9.68.41,3.45.94,7.1,2.84,10.1a11.12,11.12,0,0,0,8.2,5.33c1.61.2,3-1.52,3-3a3.07,3.07,0,0,0-3-3c.59.07-.3-.11-.34-.12-.5-.11,0,.06-.24-.07a6.31,6.31,0,0,1-.76-.42c-.13-.08-.54-.39-.23-.13a9.61,9.61,0,0,1-1.15-1.15c-.13-.16-.13-.16,0,0l-.17-.24c-.16-.25-.32-.5-.46-.76a11.48,11.48,0,0,1-1.13-3.18c-.15-.62-.27-1.25-.37-1.88s-.17-1.08-.22-1.51a15,15,0,0,1-.14-1.89A7.07,7.07,0,0,1,27.66,65c-.06.38.15-.48.14-.46l.1-.28c-.1.2-.11.21,0,0a4,4,0,0,1,.37-.63c-.36.47.41-.36,0,0,.08-.07.82-.44.37-.26a4.49,4.49,0,0,1,.72-.19c.29-.06-.24,0,.28,0s1.16,0,1.75,0a20,20,0,0,0,3.71,0,3.09,3.09,0,0,0,3-3c0-1.46-1.38-3.2-3-3Z"/><path class="cls-9" d="M63.81,65a9.57,9.57,0,0,0-7.53,3.91c-1.88,2.52-1.82,5.53-1.82,8.54,0,3.22-.1,6.46,0,9.68.15,3.62,2.63,5.44,5.84,6.47a3,3,0,0,0,1.58-5.77l-.6-.2c-.08,0-.47-.18-.19-.06a6.1,6.1,0,0,1-.57-.29c-.13-.08-.32-.3-.13-.09s-.08,0-.06-.12c0,0,.11,0,.11.06,0-.59,0-1.17,0-1.76l0-7.47c0-1.15,0-2.31,0-3.45A3.72,3.72,0,0,1,61,72.53a3.42,3.42,0,0,1,2.82-1.6c3.84-.08,3.85-6.06,0-6Z"/><path class="cls-8" d="M125.32,28.52a3.85,3.85,0,0,0,2.09,1.69c8.44,2.84,6.07,3.61,8.89,4.59s4.45,0,4.45,0l8.46-5.66,3-7.18a11.47,11.47,0,0,0-1.68-6.82,3.78,3.78,0,0,0-3.15-1.77l-3.2-.06a4,4,0,0,1-3-1.45c-1-1.2-2.57-2.77-4-3.11a4.41,4.41,0,0,0-3.69,1.31A3.89,3.89,0,0,1,131,11h-1.28a3.4,3.4,0,0,0-2.85,1.53s-3.81,3.56-3.7,8.32A14.7,14.7,0,0,0,125.32,28.52Z"/><path class="cls-9" d="M133.76,13a3.17,3.17,0,0,0,2.92,2.32c.57.08,1.1.09,1.59.19.3.06.6.13.9.22l.43.15s.39.17.18.07l.28.14s.31.21.22.14.15.19,0,0a3.84,3.84,0,0,1,.18.35A2.82,2.82,0,0,0,141.72,18a5.67,5.67,0,0,0,4.15-.05,1.54,1.54,0,0,0,1-1.84,1.52,1.52,0,0,0-1.84-1,4.28,4.28,0,0,1-1.27.28h-.38s-.48,0-.32,0-.15-.1-.05,0l.14.09a3,3,0,0,0-.21-.46,3.7,3.7,0,0,0-.48-.69,3.81,3.81,0,0,0-1.22-.88,10.34,10.34,0,0,0-3.17-.89,12,12,0,0,1-1.27-.15s-.32-.11-.2-.05-.15-.15,0,0,0,0,0,0-.07-.07,0,0,.14.41.06,0a1.49,1.49,0,0,0-2.88.8Z"/><path class="cls-9" d="M125,20c-.35,3.29-.23,8.14,3.21,9.8a10.93,10.93,0,0,0,3.1.66c-.55-.1.84.39.32.12a4.92,4.92,0,0,1,.78.5c-.32-.25.38.36.45.43.26.24.52.49.79.71a5,5,0,0,0,3.12,1.27c7.06.44,14-5,14.29-12.21a3,3,0,1,0-6,0,5.35,5.35,0,0,1-.64,2.34,8.39,8.39,0,0,1-.5.81l-.19.26c.1-.14.09-.13,0,0s-.37.4-.57.59c0,0-.69.6-.4.38a8.12,8.12,0,0,1-2.84,1.44,12.65,12.65,0,0,1-1.58.35,5.87,5.87,0,0,0-1.55,0l.74.18q.27.21,0,0a3.45,3.45,0,0,0-.56-.52,15.66,15.66,0,0,0-1.81-1.44A9.12,9.12,0,0,0,131,24.41c-.38-.05-.25-.15-.11,0s.26.25.37.39c-.31-.38,0,.23-.1-.26,0-.23-.11-.46-.14-.69A15.91,15.91,0,0,1,131,20a3,3,0,0,0-3-3,3,3,0,0,0-3,3Z"/><path class="cls-13" d="M151.53,38.64a8.74,8.74,0,0,1-4.64-6.91c0-.49-.1-1-.13-1.57L147,25a5.76,5.76,0,0,1,2.53-4.71,8.86,8.86,0,0,1,3.08-1.11,2.36,2.36,0,0,0,1.27-.65,6.72,6.72,0,0,1,4.56-1.63c1.95-.07,3.22,1.86,4,3.82a15.61,15.61,0,0,1,1,7.07C163,33.15,161,43.18,151.53,38.64Z"/><path class="cls-9" d="M148.55,30.57c.11.37.17.75.29,1.11a7.17,7.17,0,0,0,.67,1.5,7.38,7.38,0,0,0,2.22,2.3,6.79,6.79,0,0,0,3.21,1.08,4,4,0,0,0,1,0,7.36,7.36,0,0,0,1.8-.35,3.27,3.27,0,0,0,1.78-1.38,3,3,0,0,0,.3-2.3,3,3,0,0,0-1.37-1.79,3,3,0,0,0-2.3-.3,4.22,4.22,0,0,1-.91.24l.79-.11a4.28,4.28,0,0,1-1.13,0l.79.1a4,4,0,0,1-1-.28l.72.31a4.26,4.26,0,0,1-.87-.52l.6.47a4.63,4.63,0,0,1-.7-.7l.47.6a4.77,4.77,0,0,1-.55-.92l.31.71a12.85,12.85,0,0,1-.4-1.38,3.13,3.13,0,0,0-1.37-1.78,3,3,0,0,0-4.39,3.37Z"/><path class="cls-11" d="M25.22,59.8l.08-.12s0,0,0,0,0,0,0,0l.18-.19.21-.19h0a.15.15,0,0,1,.06,0l.11-.07.24-.14.11,0h0l.07,0a2.94,2.94,0,0,1,.53-.14.38.38,0,0,0,.26-.46.39.39,0,0,0-.46-.26,3.06,3.06,0,0,0-2.06,1.36.37.37,0,0,0,.13.51.38.38,0,0,0,.51-.13Z"/><path class="cls-11" d="M25.72,61.77a8.82,8.82,0,0,1,4.15,1.93,26.7,26.7,0,0,0,2.89,2.74c2,1.27,4.5.78,6.72.75a6,6,0,0,1,3.94,1c.78.61,1.44,1.3,2.5,1.22,2.36-.16,4.55-2.24,5.71-4.14a.37.37,0,0,0-.64-.38,8.56,8.56,0,0,1-2.73,2.82,5.39,5.39,0,0,1-2,.9c-1.1.1-1.64-.46-2.41-1.06-1.57-1.21-3.52-1.2-5.41-1.11a15.92,15.92,0,0,1-3.45,0,5.62,5.62,0,0,1-3.27-2,10.27,10.27,0,0,0-5.76-3.42c-.47-.09-.67.63-.2.72Z"/><path class="cls-11" d="M31,60.35a11.05,11.05,0,0,0,2.95,2.25,9.6,9.6,0,0,0,3.51,1.46c2.4.38,5.71-1,7.53,1.2.3.37.83-.16.52-.53-1.63-2-4.37-1.38-6.61-1.33a7.62,7.62,0,0,1-4-1.13,11.68,11.68,0,0,1-3.32-2.45c-.31-.37-.83.16-.53.53Z"/><path class="cls-11" d="M38.2,63.7l2.72-2.12a.38.38,0,0,0,0-.53.39.39,0,0,0-.53,0l-2.72,2.12a.38.38,0,0,0,0,.53.4.4,0,0,0,.53,0Z"/><path class="cls-11" d="M56.71,66.93a1.62,1.62,0,0,0,.38,3.19.38.38,0,0,0,.37-.37.39.39,0,0,0-.37-.38H57c.08,0,0,0,0,0l-.1,0s-.11,0,0,0l-.17-.09s-.09-.07-.06,0,0,0,0,0L56.4,69c0,.06,0,0,0,0l-.06-.09s0-.1,0,0l0-.08s0-.07,0-.1a.09.09,0,0,1,0,0h0a1.2,1.2,0,0,1,0-.19c0-.1,0,.07,0,0l0-.1,0-.1c0-.07,0,0,0,0a1.4,1.4,0,0,1,.1-.16s.05-.06,0,0l.07-.08.08-.07s.09-.07,0,0l.17-.11c.06,0,0,0,0,0l.11,0a.37.37,0,1,0-.2-.72Z"/><path class="cls-11" d="M60.05,71.31c.85.38,1.29,1.17,1.93,1.79A3.29,3.29,0,0,0,64,74a29.89,29.89,0,0,1,3.4.24,10.18,10.18,0,0,1,3.27,1.3A8.05,8.05,0,0,0,73,76.82a5.86,5.86,0,0,0,2.72-.24,4.44,4.44,0,0,0,3.42-2.83.37.37,0,0,0-.72-.2c-.48,1.71-2.47,2.33-4,2.54-1.93.27-3.38-1.39-5.1-2.06a15.8,15.8,0,0,0-5-.74,3.1,3.1,0,0,1-2.36-1.35,4.65,4.65,0,0,0-1.51-1.28c-.43-.2-.81.45-.38.65Z"/><path class="cls-11" d="M63.17,67.74a1.32,1.32,0,0,1-.4,1.48.38.38,0,0,0,0,.64q2.05,1,4.19,1.88a.38.38,0,0,0,.46-.26.37.37,0,0,0-.26-.46c-1.36-.55-2.7-1.15-4-1.8v.64a2.05,2.05,0,0,0,.74-2.31.38.38,0,0,0-.46-.26.36.36,0,0,0-.26.45Z"/><path class="cls-11" d="M72.64,69.51c0,.09,0,0,0-.06l.08-.14,0-.06s.06-.07,0,0,0,0,0,0l0-.07.21-.19c.05,0,0,0,0,0l.06,0,.14-.08.12-.06.07,0c-.08,0,0,0,0,0a1.4,1.4,0,0,1,.29-.09h.06c.08,0,0,0,0,0a.66.66,0,0,0,.14,0,1.71,1.71,0,0,1,.32,0,.37.37,0,0,0,.37-.37.39.39,0,0,0-.37-.38,2.33,2.33,0,0,0-1.41.31,2.36,2.36,0,0,0-1,1.14.37.37,0,0,0,.26.45.38.38,0,0,0,.46-.26Z"/><path class="cls-11" d="M82.15,77.37a.38.38,0,0,0,0-.75.38.38,0,0,0,0,.75Z"/><path class="cls-11" d="M152.29,22a5.7,5.7,0,0,1,4.3,3.74c.15.46.87.26.72-.19a6.45,6.45,0,0,0-4.82-4.27c-.47-.09-.67.63-.2.72Z"/><path class="cls-11" d="M155.26,23.58a23.07,23.07,0,0,0,5.38-.25.38.38,0,0,0,.27-.46.39.39,0,0,0-.46-.26,22.56,22.56,0,0,1-5.19.23c-.48,0-.48.71,0,.74Z"/><path class="cls-11" d="M132.67,13.35a8,8,0,0,0,2,1.89,4.57,4.57,0,0,0,2.49.51,3.81,3.81,0,0,1,2.72.88c.62.55,1.14,1.2,1.77,1.74a4.89,4.89,0,0,0,4.66,1,3.11,3.11,0,0,0,2.41-3.61c-.11-.46-.83-.27-.72.2.51,2.12-2.08,3-3.75,2.85s-2.47-1.36-3.55-2.39A4.4,4.4,0,0,0,137.52,15a4.59,4.59,0,0,1-2.61-.47,8,8,0,0,1-1.72-1.71c-.3-.37-.83.16-.52.53Z"/><path class="cls-11" d="M139.5,15.79l1.94-.8a.37.37,0,1,0-.19-.72l-1.95.8a.37.37,0,0,0-.26.45.38.38,0,0,0,.46.27Z"/><path class="cls-11" d="M114,5.9l3.47,2.28a.38.38,0,0,0,.51-.13.39.39,0,0,0-.14-.51l-3.46-2.28a.38.38,0,0,0-.51.13.37.37,0,0,0,.13.51Z"/><path class="cls-11" d="M115.22,9.54a8.05,8.05,0,0,0,2.2-.59,21.48,21.48,0,0,0,2.1-1.29c1.91-1.09,2.64,1.57,3.51,2.7,1.71,2.23,5.87,1.07,6.57-1.53a.37.37,0,0,0-.72-.2,3.44,3.44,0,0,1-3.56,2.15c-1.79-.1-2.09-1.85-3-3a2.31,2.31,0,0,0-2.78-.92c-.67.29-1.21.82-1.85,1.17a6.84,6.84,0,0,1-2.45.79c-.47.07-.48.81,0,.75Z"/><path class="cls-11" d="M121.06,7.13a4.39,4.39,0,0,0,1.44-.49.37.37,0,0,0,.14-.51.38.38,0,0,0-.51-.13l-.17.08-.07,0-.09,0s.06,0,0,0l0,0-.09,0-.16.06a4.3,4.3,0,0,1-.69.16.44.44,0,0,0-.23.17.41.41,0,0,0,0,.29.39.39,0,0,0,.17.23.41.41,0,0,0,.29,0Z"/><path class="cls-11" d="M111.4,4.42c0-.09,0,.07,0,0s0,0,0-.08l.07-.11h0l0-.06.09-.1.06,0c.07-.06-.06,0,0,0l.12-.08.14-.07s.08,0,0,0,0,0,0,0a2.45,2.45,0,0,1,.29-.08s-.08,0,0,0h.34s0,0,0,0a.35.35,0,0,1,.14,0l.14,0c-.08,0,0,0,0,0l.08,0a.38.38,0,0,0,.51-.14.39.39,0,0,0-.14-.51,2,2,0,0,0-2.72,1,.37.37,0,0,0,.26.46.39.39,0,0,0,.46-.26Z"/><g class="cls-14"><path class="cls-3" d="M16.31,91.43c4.23,6.52,11.22,10.31,18.3,13a96.64,96.64,0,0,0,20.67,5c2.31.33,4.93-.57,5.52-3.13.48-2.12-.65-5.16-3.14-5.52A99.13,99.13,0,0,1,38,96.15c-.82-.3-1.63-.62-2.44-.94-.47-.19-.43-.18.11.05L35,95l-1.09-.5a40.14,40.14,0,0,1-4.36-2.4,11.35,11.35,0,0,1-2-1.37c.86.87-.1-.09-.31-.27s-.54-.47-.8-.72a21.52,21.52,0,0,1-1.56-1.61c-.13-.15-.26-.3-.38-.46-.3-.37-.25-.3.16.22-.1,0-.58-.85-.65-1a4.49,4.49,0,0,0-7.75,4.52Z"/></g><path class="cls-22" d="M82,82.65s1.1-6.77,6.56-2.38c0,0,14.57,13.24,33.7,10.51S159.83,75,159.83,75A28.61,28.61,0,0,0,167,69a18.9,18.9,0,0,0,2.68-19.59c-1.32-3.06-3.58-8.08-6-9.66L161,34.84S148.41,41,162.87,52.29c0,0,7.23,6,1.16,13.8S142.68,80,142.68,80l-7.51,3A39.7,39.7,0,0,1,121,86c-8.69.15-21.72-1.12-28.34-9.12a2,2,0,0,1-.43-1.06c-.13-1.07-.35-2,3.15-2.59,0,0-16.92-8.22-13.37,9.73"/><path class="cls-23" d="M89.73,97.08,86.88,96a5.16,5.16,0,0,1-2.77-3.21L82,87a8.76,8.76,0,0,1-.47-3.62c.26-3.25,1.52-8.68,7.25-5.68,0,0,4.26-10.1,11.31,3.06.6,1.11,1.68,1.4,2.49.62h0a3.47,3.47,0,0,0,.51-3.78c-1.72-3.5-6.28-9.4-17.17-7.75,0,0-14.91,4.59-6.06,27.6a8.12,8.12,0,0,0,4.44,5c2.12.76,4.88,1.47,6.23.68a2.64,2.64,0,0,0,1.19-2.47A3.8,3.8,0,0,0,89.73,97.08Z"/><path class="cls-24" d="M167.42,24.52s-5.94.11-7.84,5.65a18.69,18.69,0,0,0-.45,8.37c.56,3.85,2.69,7.39,5.61,8.74a5,5,0,0,0,3.32.51c6.45-1.37,7.79-6,8.06-8a1.86,1.86,0,0,0-.33-1.58c-.57-.5-1.71.74-1.71.74-2.06,2-6,5.13-7.89,3s.23-5.67.23-5.67a2,2,0,0,1-2.84-.34,3.61,3.61,0,0,1-1-3.2c.74-3.51,5.67-7.24,5.67-7.24S168.66,24.51,167.42,24.52Z"/><path class="cls-25" d="M89,103.72a14.85,14.85,0,0,1-4.71-1,8.36,8.36,0,0,1-4.6-5.12c-3.34-8.69-3.72-15.79-1.14-21.09a13.31,13.31,0,0,1,7.37-6.84,24,24,0,0,1,3.68-.29c8.5,0,12.29,5.12,13.79,8.17a3.72,3.72,0,0,1-.57,4.07,1.71,1.71,0,0,1-1.18.51,2,2,0,0,1-1.7-1.19c-2.35-4.4-4.62-6.63-6.73-6.63-2.6,0-4.12,3.52-4.13,3.55L88.7,78a6.4,6.4,0,0,0-2.87-.85c-3,0-3.83,4-4,6.32a8.42,8.42,0,0,0,.45,3.51l2.08,5.77A4.92,4.92,0,0,0,87,95.76l2.85,1.09A4,4,0,0,1,92,100.66a2.83,2.83,0,0,1-1.31,2.68,3.44,3.44,0,0,1-1.73.38Z"/><path class="cls-26" d="M89.57,69.59c8.32,0,12.05,5,13.56,8a3.47,3.47,0,0,1-.51,3.78h0a1.44,1.44,0,0,1-1,.44,1.76,1.76,0,0,1-1.48-1.06C97.35,75.59,95,74,93.18,74c-2.8,0-4.36,3.7-4.36,3.7a6.59,6.59,0,0,0-3-.87c-3.22,0-4.06,4-4.26,6.55A8.76,8.76,0,0,0,82,87l2.07,5.76A5.16,5.16,0,0,0,86.88,96l2.85,1.09a3.8,3.8,0,0,1,2,3.58,2.64,2.64,0,0,1-1.19,2.47,3.24,3.24,0,0,1-1.6.34,15.29,15.29,0,0,1-4.63-1,8.12,8.12,0,0,1-4.44-5c-8.85-23,6.06-27.6,6.06-27.6a24.79,24.79,0,0,1,3.61-.28m0-.5a25.28,25.28,0,0,0-3.69.29l-.07,0a13.54,13.54,0,0,0-7.52,7c-2.61,5.37-2.23,12.53,1.14,21.29a8.65,8.65,0,0,0,4.74,5.27,15.08,15.08,0,0,0,4.8,1,3.7,3.7,0,0,0,1.85-.41,3.11,3.11,0,0,0,1.44-2.9,4.26,4.26,0,0,0-2.35-4l-2.86-1.1a4.66,4.66,0,0,1-2.47-2.9l-2.07-5.77a8.13,8.13,0,0,1-.44-3.41c.18-2.27.91-6.09,3.76-6.09a6,6,0,0,1,2.75.82l.7-.25s1.47-3.4,3.9-3.4c2,0,4.23,2.25,6.51,6.5a2.28,2.28,0,0,0,1.92,1.32,1.92,1.92,0,0,0,1.35-.58,4,4,0,0,0,.62-4.36c-1.52-3.1-5.37-8.31-14-8.31Z"/><path class="cls-27" d="M167.24,48.14a6.18,6.18,0,0,1-2.61-.63c-2.9-1.35-5.16-4.86-5.74-8.93a18.29,18.29,0,0,1,.46-8.49c1.93-5.64,8-5.82,8.07-5.82h0a1.1,1.1,0,0,1,1,.4,1.15,1.15,0,0,1,.06,1l-.09.1s-4.86,3.71-5.58,7.09a3.36,3.36,0,0,0,1,3,2.17,2.17,0,0,0,1.47.73,1.62,1.62,0,0,0,1-.4l.37.33s-2,3.39-.25,5.36a1.82,1.82,0,0,0,1.43.61c2,0,4.67-2.28,6.09-3.65.08-.08.88-.92,1.56-.92a.71.71,0,0,1,.49.19,2.12,2.12,0,0,1,.42,1.79c-.28,2-1.64,6.77-8.26,8.18h0A3.2,3.2,0,0,1,167.24,48.14Z"/><path class="cls-26" d="M167.44,24.52c1.22,0,.79,1,.79,1s-4.93,3.73-5.67,7.24a3.61,3.61,0,0,0,1,3.2,2.5,2.5,0,0,0,1.65.8,1.87,1.87,0,0,0,1.19-.46s-2.17,3.54-.23,5.67a2.11,2.11,0,0,0,1.62.69c2,0,4.69-2.21,6.27-3.71,0,0,.79-.86,1.38-.86a.52.52,0,0,1,.33.12,1.86,1.86,0,0,1,.33,1.58c-.27,2-1.61,6.59-8.06,8a2.84,2.84,0,0,1-.82.1,5.89,5.89,0,0,1-2.5-.61c-2.92-1.35-5.05-4.89-5.61-8.74a18.69,18.69,0,0,1,.45-8.37c1.9-5.54,7.84-5.65,7.84-5.65h0m0-.5h0c-.07,0-6.32.19-8.31,6a18.53,18.53,0,0,0-.47,8.61c.6,4.15,2.91,7.73,5.89,9.12a6.52,6.52,0,0,0,2.71.65,3.3,3.3,0,0,0,1-.12c6.74-1.43,8.13-6.34,8.42-8.38a2.38,2.38,0,0,0-.5-2,1,1,0,0,0-.66-.25,3,3,0,0,0-1.75,1c-2.4,2.28-4.5,3.55-5.9,3.55a1.6,1.6,0,0,1-1.25-.53c-1.67-1.83.26-5,.28-5.06L166.1,36a1.39,1.39,0,0,1-.87.34,2,2,0,0,1-1.3-.66,3.1,3.1,0,0,1-.88-2.74c.69-3.29,5.44-6.9,5.49-6.94l.16-.21a1.38,1.38,0,0,0-.08-1.22,1.32,1.32,0,0,0-1.18-.51Z"/></g></g></svg>