<svg xmlns="http://www.w3.org/2000/svg" xmlns:xlink="http://www.w3.org/1999/xlink" viewBox="0 0 241.65 287.95"><defs><style>.cls-1,.cls-14,.cls-3,.cls-7{fill:none;}.cls-2{clip-path:url(#clip-path);}.cls-3,.cls-8{stroke:#231815;}.cls-10,.cls-14,.cls-3,.cls-4,.cls-7,.cls-8,.cls-9{stroke-miterlimit:10;}.cls-10,.cls-14,.cls-3,.cls-4,.cls-7,.cls-8{stroke-width:0.86px;}.cls-4{fill:#f6e5e6;stroke:#bdab91;}.cls-5{fill:#e3a7a1;}.cls-6{fill:#eeccc9;}.cls-10,.cls-7{stroke:#424944;}.cls-8{fill:#fff;}.cls-9{fill:#f4efc3;stroke:#eecbb2;stroke-width:1.72px;}.cls-10{fill:url(#무제_그라디언트_2);}.cls-11{fill:#424944;}.cls-12{clip-path:url(#clip-path-2);}.cls-13{fill:#e7dcd2;}.cls-14{stroke:#786823;}.cls-15{fill:#e4b4ab;}.cls-16{fill:#b59e79;}.cls-17{fill:#786823;}.cls-18{fill:#3a4241;}</style><clipPath id="clip-path" transform="translate(25.38 -30.63)"><rect id="SVGID" class="cls-1" width="139.34" height="253.6"/></clipPath><linearGradient id="무제_그라디언트_2" x1="67.99" y1="51.55" x2="67.99" y2="205.66" gradientTransform="translate(1.95 55.69)" gradientUnits="userSpaceOnUse"><stop offset="0.26" stop-color="#ebe3d9"/><stop offset="0.53" stop-color="#f2eadd"/><stop offset="0.77" stop-color="#f5f2f0"/></linearGradient><clipPath id="clip-path-2" transform="translate(25.38 -30.63)"><path id="SVGID-2" data-name="SVGID" class="cls-1" d="M-1.89,204.8l1.24-2.19A36.6,36.6,0,0,0,4,187.72l.38-4.19a21.18,21.18,0,0,0,0-4.36L3.32,170s-2-53.73,8.46-60.57a4.73,4.73,0,0,1,3.84-1.57,4.6,4.6,0,0,1,3.92,3.63c.93,4,2.49,14.77,1.35,39a31.85,31.85,0,0,0,1.48,11.27c2.45,7.62,6.59,21.41,7,28.84a32.53,32.53,0,0,0,4.32,15.05c2.58,4.34,6.37,8.45,11.67,9.31,0,0,15.74,1.54,16.88-28.1a23.66,23.66,0,0,0-.27-4.45c-1.33-8.57-5.63-42.82,9.45-49.28,0,0,15.08-3.76,7.33,51.95q-.13.94-.3,1.89c-.63,3.7-2.65,21.78,16.41,28,2,.64,28.66-1.31,26.7-63.18,0,0-1.78-29,2.4-39a4.23,4.23,0,0,1,6.82-1.41c2.32,2.27,5,7.22,4.79,17.94,0,0-2.61,48.52,5.53,60.57v66.75H-1.89Z"/></clipPath></defs><g id="레이어_2" data-name="레이어 2"><g id="충치진행과정"><g class="cls-2"><path class="cls-3" d="M112,112.2l6.3-2.87a6.94,6.94,0,0,0,2.13-1.51l7.48-7.9a6.4,6.4,0,0,0,.77-1,2.77,2.77,0,0,1,2.23-1.43c1.63,0,8.14,4.08,15.3,14.66" transform="translate(25.38 -30.63)"/><path class="cls-4" d="M130.86,97.83a2.74,2.74,0,0,0-2.23,1.42,7,7,0,0,1-.77,1l-7.48,7.89a6.78,6.78,0,0,1-2.13,1.51l-3.38,1.54c.51,15.51,1.39,70.2-10.58,86.07,0,0-6.51,8.14-11.4,7.49-2-.27-3.5-2.24-4.53-4.44A18.66,18.66,0,0,1,86.9,190C89,174.25,95.79,113.28,74,111.58c0,0-15-2.28-19.51,31.26,0,0-2,21,1.33,39.59a23.09,23.09,0,0,1-.56,11c-1.26,4.07-3.87,8.3-9.24,9,0,0-7.06,1.18-7.48-15.21a25.72,25.72,0,0,0-.83-5.85l-8.3-32s-3-8.69.38-37.67l1.61-.29S21.77,97.71,15.91,97.55,6,105,6,105l-9.22,12.63,1.32-.24-6.75,168H143.4V108.66C137.38,100.91,132.28,97.83,130.86,97.83Z" transform="translate(25.38 -30.63)"/><path class="cls-5" d="M133.79,79.44a5.56,5.56,0,0,0-2,.46,70.43,70.43,0,0,1-2.37,8c2.85-.18,4.37,2.89,4.37,2.89l9.47,14V91.49S138.71,79.44,133.79,79.44Z" transform="translate(25.38 -30.63)"/><path class="cls-5" d="M18.34,88.05a51.82,51.82,0,0,1-2.47-7.11,13,13,0,0,0-3.84.13C2.59,82.7-1.64,108.42-1.64,108.42l-.22,5.5L9.75,91.81S11.38,86.71,18.34,88.05Z" transform="translate(25.38 -30.63)"/><path class="cls-6" d="M133.92,90.26s-1.52-3.06-4.36-2.88a62,62,0,0,1-14.82,23.4s0,.35.05,1l3.46-1.58a6.94,6.94,0,0,0,2.13-1.51l7.48-7.9a6.4,6.4,0,0,0,.77-1,2.77,2.77,0,0,1,2.23-1.43c1.42,0,6.52,3.09,12.54,10.84v-5Z" transform="translate(25.38 -30.63)"/><path class="cls-6" d="M15.91,98.41c4.71.13,11.83,9,14.45,12.45.11-.89.23-1.78.35-2.69.16-1.18.27-2.37.33-3.55l-.31,0S23.4,98.92,18.47,87.48c-7-1.34-8.58,3.76-8.58,3.76l-11.62,22.1-.13,3.3L6,105.9S10.05,98.24,15.91,98.41Z" transform="translate(25.38 -30.63)"/><path class="cls-7" d="M-1.51,108.13S2.72,82.41,12.17,80.78s12,6.51,12,6.51l94.11,3.26s10.68-11.4,15.6-11.4,9.48,12,9.48,12V286.25H-8.67Z" transform="translate(25.38 -30.63)"/><path class="cls-8" d="M114.74,109.92c20-19.71,19.69-46.39,18.93-55.45a23.92,23.92,0,0,0-1.36-6.25c-6.11-16.74-18.84-15-25.06-13A10.65,10.65,0,0,1,100.4,35,9.93,9.93,0,0,0,95,34.51a10.41,10.41,0,0,1-5.14-.25,15.27,15.27,0,0,0-4.67-.49,12.24,12.24,0,0,1-5.44-1.05,17.85,17.85,0,0,0-7-1.66,23.67,23.67,0,0,0-8.38,1.8,10.83,10.83,0,0,1-6,.55l-12-2.29c-16.61-1-21.82,10.42-21.82,10.42C14.12,51.63,14.12,63.35,14.12,63.35c-.65,27,16.61,40.38,16.61,40.38Z" transform="translate(25.38 -30.63)"/><path class="cls-9" d="M45.83,56.72c8.62,4.22,29.75,11.39,61,1.37a6.39,6.39,0,0,1,6.48,1.55h0a5.59,5.59,0,0,1,1.52,2.76c1.18,5.26,4.24,22.7-.08,47.52,0,0,3.58,71.64-10.42,90.2,0,0-6.51,8.14-11.4,7.49-2-.27-3.5-2.24-4.52-4.44a18.49,18.49,0,0,1-1.46-10.3c2.11-15.72,8.88-76.69-12.93-78.39,0,0-15-2.28-19.51,31.26,0,0-2,21,1.34,39.59a23.22,23.22,0,0,1-.57,11c-1.26,4.07-3.86,8.3-9.24,9,0,0-7.06,1.18-7.48-15.21a26.28,26.28,0,0,0-.82-5.85l-8.31-32S26,142.16,30.71,107.31a43.29,43.29,0,0,0-.12-12.4c-1.23-8.22-2-23.94,7-36.17A6.65,6.65,0,0,1,45.83,56.72Z" transform="translate(25.38 -30.63)"/><path class="cls-10" d="M-1.54,205.25l1.25-2.18A36.8,36.8,0,0,0,4.4,188.18L4.78,184a21.91,21.91,0,0,0,0-4.36l-1.06-9.22s-1.95-53.73,8.47-60.57A4.69,4.69,0,0,1,16,108.27a4.59,4.59,0,0,1,3.93,3.63c.92,4,2.48,14.77,1.35,39a31.68,31.68,0,0,0,1.48,11.27c2.45,7.61,6.59,21.41,7,28.84A32.45,32.45,0,0,0,34,206c2.58,4.33,6.37,8.45,11.67,9.31,0,0,15.73,1.54,16.87-28.11a22.78,22.78,0,0,0-.26-4.44C61,174.23,56.66,140,71.73,133.52c0,0,15.08-3.76,7.34,51.95-.09.63-.2,1.26-.3,1.89-.63,3.7-2.65,21.78,16.41,28,1.95.64,28.65-1.32,26.7-63.19,0,0-1.79-29,2.4-39a4.23,4.23,0,0,1,6.82-1.42c2.32,2.28,5,7.23,4.78,18,0,0-2.61,48.51,5.54,60.56V257h-143Z" transform="translate(25.38 -30.63)"/><path class="cls-11" d="M36.25,36.55c2.46-.69,4.69,1.16,6.73,2.25A10.09,10.09,0,0,0,46.52,40a37.92,37.92,0,0,0,4.13.16c6.12.13,12.08,1.73,17.95,3.33L77.72,46A27.78,27.78,0,0,0,82,46.9a13.28,13.28,0,0,0,4.12-.27C88.94,46,91.66,45,94.6,44.71c2.77-.26,5.59-.27,8.2-1.34a51.88,51.88,0,0,0,6.72-3.92c2.17-1.32,4.58-2.42,7.17-1.85.41.09.58-.53.17-.62-4.57-1-8.38,2.53-12,4.66a15.5,15.5,0,0,1-3.29,1.5,21,21,0,0,1-4.52.73c-1.44.12-2.88.2-4.31.44a37.49,37.49,0,0,0-4.18,1,24.42,24.42,0,0,1-4.3.93,13.34,13.34,0,0,1-4.49-.44c-3.11-.77-6.19-1.68-9.29-2.52C64.61,41.72,58.73,40,52.67,39.6c-1.65-.12-3.3-.06-5-.14a10.36,10.36,0,0,1-4.49-1.26c-2.19-1.19-4.51-3-7.14-2.27a.32.32,0,0,0,.17.62Z" transform="translate(25.38 -30.63)"/><path class="cls-11" d="M63.28,36c1.15-.31,2,1,2.79,1.61a4.16,4.16,0,0,0,1.27.81,6.75,6.75,0,0,0,2.24.15c3.54.06,5.17,3.86,6.26,6.66.15.38.77.21.62-.17-1.13-2.93-2.71-6.54-6.21-7.08a17.29,17.29,0,0,1-2.6-.13A4.42,4.42,0,0,1,66,36.67c-.81-.76-1.7-1.62-2.9-1.3a.32.32,0,0,0,.17.62Z" transform="translate(25.38 -30.63)"/><path class="cls-11" d="M90.08,36.88c-2.4,1.28-5.29,1.31-7.58,2.85a8.85,8.85,0,0,0-3.73,5.82c-.07.4.55.58.62.17A8.19,8.19,0,0,1,83.25,40c2.21-1.3,4.9-1.38,7.16-2.58.36-.2,0-.76-.33-.56Z" transform="translate(25.38 -30.63)"/><g class="cls-12"><path class="cls-13" d="M39.55,210.77c1.55.95,3.49.91,5.3.84.56,0,1.22-.1,1.49-.6s0-1,0-1.46a2.14,2.14,0,0,1,2-2.21,3.54,3.54,0,0,0,1.08,0c.76-.26.86-1.29.73-2.09a2.81,2.81,0,0,0-.81-1.78,3.39,3.39,0,0,0-2.2-.53h-3a1.63,1.63,0,0,0-1,.21,1.67,1.67,0,0,0-.44.66,5.55,5.55,0,0,0-.67,2.65,8.28,8.28,0,0,1,.17,1.63c-.08.55-.6,1.09-1.12.9-.21-.08-.38-.28-.6-.33s-.65.22-.81.53a3.56,3.56,0,0,1-.49.9" transform="translate(25.38 -30.63)"/><path class="cls-13" d="M39.55,192.79a1.09,1.09,0,0,0-1.37.63,3.17,3.17,0,0,0-.11,1.65,1.48,1.48,0,0,0,.18.69,1.52,1.52,0,0,0,.51.43,27.36,27.36,0,0,0,3.12,1.66,3.33,3.33,0,0,0,2.58.34c.87-.36,1.28-1.33,1.75-2.15a8.46,8.46,0,0,1,2-2.38c.23-.19.5-.41.5-.71s-.36-.55-.67-.66a4,4,0,0,0-3,.14,12,12,0,0,1-2.31,1.19c-1.22.27-2.43-.44-3.49-1.12" transform="translate(25.38 -30.63)"/><path class="cls-13" d="M59.89,215.66c-.13,1.29.81,2.4,1.55,3.46a14.31,14.31,0,0,1,2.38,6.08c.31.12.53-.32.57-.66a13.09,13.09,0,0,0-.21-4.14,2.82,2.82,0,0,1,0-1.9c.41-.77,1.46-.9,2.1-1.48a3.81,3.81,0,0,0,.83-2.93,3.9,3.9,0,0,0-.65-2.61c-.83-.94-2.31-.84-3.54-.58a1.73,1.73,0,0,0-1.32.76,5,5,0,0,0-.18,1c-.23,1.06-1.62,1.74-1.45,2.81" transform="translate(25.38 -30.63)"/><path class="cls-13" d="M55.7,205.66A5.61,5.61,0,0,0,57.11,208c.38.37.94.71,1.41.46a1.33,1.33,0,0,0,.51-1.15c0-1-.08-1.92,0-2.87a3.07,3.07,0,0,1,1.37-2.4,2.44,2.44,0,0,0,.87-.55c.35-.49,0-1.18-.42-1.6A4.55,4.55,0,0,0,57,198.64a1.19,1.19,0,0,0-.6.22,1.07,1.07,0,0,0-.33.65,8.06,8.06,0,0,0,.49,3.07c.2,1-.06,2.34-1.06,2.65" transform="translate(25.38 -30.63)"/><path class="cls-13" d="M42.64,218a5.89,5.89,0,0,0,1.16,6,3.45,3.45,0,0,1,.66.82,8,8,0,0,1,.25.87,2.08,2.08,0,0,0,3.23.83c.25-.24.44-.55.7-.78a3,3,0,0,1,2.35-.56c.72.08,1.61.21,2-.38a1.19,1.19,0,0,0-.05-1.27,3.05,3.05,0,0,0-1-.88,15.28,15.28,0,0,0-3.33-1.55,5.81,5.81,0,0,1-3-1.52,10.37,10.37,0,0,1-.78-1.43,1.85,1.85,0,0,0-1.19-1c-.53-.09-1.15.35-1.06.88" transform="translate(25.38 -30.63)"/><path class="cls-13" d="M36.19,180.31a5.87,5.87,0,0,0,1.16,6,3.45,3.45,0,0,1,.66.82c.12.27.15.59.25.87a2.07,2.07,0,0,0,3.22.83c.26-.24.45-.54.7-.78a3,3,0,0,1,2.36-.56c.72.08,1.61.21,2-.38a1.17,1.17,0,0,0-.05-1.27,2.92,2.92,0,0,0-1-.88,15.5,15.5,0,0,0-3.33-1.55,5.76,5.76,0,0,1-3-1.52,10.32,10.32,0,0,1-.77-1.43,1.88,1.88,0,0,0-1.19-1c-.53-.09-1.16.35-1.06.88" transform="translate(25.38 -30.63)"/><path class="cls-13" d="M51.68,153.39a2.66,2.66,0,0,1,2.78.9,5.78,5.78,0,0,1,1.19,2.83,6,6,0,0,0,1.13,3.18A5.08,5.08,0,0,0,60,161.45l1.68.2a.91.91,0,0,0,.69-.09.83.83,0,0,0,.27-.51A4.38,4.38,0,0,0,61.34,157c-.77-.72-1.82-1.17-2.34-2.08-.29-.51-.39-1.12-.68-1.63-.79-1.38-2.65-1.61-4.23-1.68l-1.71-.07a2.18,2.18,0,0,0-1.59.34c-.41.36-.34,1.23.21,1.3" transform="translate(25.38 -30.63)"/><path class="cls-13" d="M58.72,146a6.15,6.15,0,0,1,.7,2.27,4.66,4.66,0,0,0,2.37,3c.89.47,2.18.53,2.72-.32a2.66,2.66,0,0,0-.18-2.41,5.78,5.78,0,0,0-.71-1.32,5.34,5.34,0,0,0-.95-.89L61,144.88a2.54,2.54,0,0,0-1.63-.75c-.62,0-1.15.83-.74,1.29" transform="translate(25.38 -30.63)"/><path class="cls-13" d="M33.19,161.67c.21.21.06.59-.16.8-.93.94-2.71.79-3.39,1.92a3,3,0,0,0-.32,1.11q-.54,3.5-1,7c-.09.77,0,1.79.72,2,.58.17,1.14-.32,1.54-.77a46.57,46.57,0,0,0,4.07-5.22,5.24,5.24,0,0,1,1-1.24,8.38,8.38,0,0,0,1.42-1.07,2.18,2.18,0,0,0,.2-2,3.58,3.58,0,0,0-4.12-2.28" transform="translate(25.38 -30.63)"/><path class="cls-13" d="M29.66,153.75l.73,1.52a3.14,3.14,0,0,0,.72,1.09,1.07,1.07,0,0,0,1.23.15,1.36,1.36,0,0,0,.46-.9A4.31,4.31,0,0,0,31,151.44a1.76,1.76,0,0,0-1.35-.37,1.38,1.38,0,0,0-1,1.44,2.4,2.4,0,0,0,.92,1.59" transform="translate(25.38 -30.63)"/><path class="cls-13" d="M38.08,153a4.67,4.67,0,0,0-.28,3.44,3.09,3.09,0,0,0,2.57,2.12,3.25,3.25,0,0,1,1.29.15c.83.42.77,1.76,1.58,2.22a1.42,1.42,0,0,0,1.87-.95,3.89,3.89,0,0,0-.21-2.35c-.28-.88-.58-1.76-.9-2.62a6,6,0,0,0-1-1.92,6.28,6.28,0,0,0-3.42-1.5,2.6,2.6,0,0,0-1.61,0c-.5.22-.81.93-.44,1.33" transform="translate(25.38 -30.63)"/><path class="cls-13" d="M52.09,184.52c.76.54.73,1.67.66,2.6s0,2.11.92,2.47a1.74,1.74,0,0,0,1.15,0,3,3,0,0,0,1.73-1.36c.25-.41.42-.9.84-1.14s1.29,0,1.84-.34.58-1.52,0-2.06A3.89,3.89,0,0,0,57,184a3.73,3.73,0,0,1-2.24-.75,6.54,6.54,0,0,1-1.12-2.31c-.35-.78-1.2-1.54-2-1.19s-.82,1.46-.58,2.3a8,8,0,0,0,1.27,2.57" transform="translate(25.38 -30.63)"/><path class="cls-13" d="M43.81,173.3c0,.59-.07,1.18,0,1.76a1.8,1.8,0,0,0,.85,1.47,1,1,0,0,0,1.41-.55c0-.21,0-.43,0-.65.08-.6.72-.94,1.31-1.08a3.72,3.72,0,0,0,1.68-.59,1.63,1.63,0,0,0,.05-2.22,2.52,2.52,0,0,0-2.24-.75,2.91,2.91,0,0,0-2.57,3.1" transform="translate(25.38 -30.63)"/><path class="cls-13" d="M50.47,161.43a2.08,2.08,0,0,0,.49,2.12,2.24,2.24,0,0,0,.46.35.77.77,0,0,1,.34.3c.16.36.07.78.24,1.13a1.14,1.14,0,0,0,.93.71c.47,0,.74-.37.88-.78a2.84,2.84,0,0,0-.32-2.42,2.88,2.88,0,0,0-2.32-1.26.43.43,0,0,0,0,.86,2,2,0,0,1,1.9,2.22,2.18,2.18,0,0,1-.11.44s0,0,0,.06,0,0,0,0h0s0,0,0,0l-.05,0a.43.43,0,0,1-.09-.1.71.71,0,0,1-.1-.33,2.51,2.51,0,0,0-.22-1,2.24,2.24,0,0,0-.77-.66,1.21,1.21,0,0,1-.42-1.41.43.43,0,0,0-.83-.23Z" transform="translate(25.38 -30.63)"/><path class="cls-13" d="M55.6,170.85a25.54,25.54,0,0,0,.87,7.76,2.83,2.83,0,0,0,.93,1.86,2.79,2.79,0,0,0,1.37.35,5.75,5.75,0,0,0,3-.31,1.94,1.94,0,0,0,1-2.56,4.71,4.71,0,0,0-.63-.71c-1.37-1.51-.92-4-2-5.71a3.72,3.72,0,0,0-4.6-1.32" transform="translate(25.38 -30.63)"/><path class="cls-13" d="M63.06,165.45a10.46,10.46,0,0,0,.71,3.36,1.33,1.33,0,0,1,.15.7c-.1.62-1,.9-1,1.52s.77.7,1.33.7c.8,0,1.75-.11,2.15-.81a1.68,1.68,0,0,0,.18-.83,6.63,6.63,0,0,0-1.14-3.22,3.6,3.6,0,0,0-.93-1.21,1.27,1.27,0,0,0-1.44-.1" transform="translate(25.38 -30.63)"/><path class="cls-13" d="M59.69,191.33a.79.79,0,0,0,.1,1.16,2.29,2.29,0,0,0,1.24.41l2.25.26a1.11,1.11,0,0,0,.7-.06,1,1,0,0,0,.42-.59c.59-1.69-.07-3.56-.88-5.16a.62.62,0,0,0-.25-.3c-.26-.13-.54.15-.68.41a3.57,3.57,0,0,0-.41,1.42,1.93,1.93,0,0,1-.25,1.07,1.78,1.78,0,0,1-1.24.46c-.45.06-1,.27-1,.72" transform="translate(25.38 -30.63)"/><path class="cls-13" d="M57.88,132.55c.33.43.09,1,.1,1.58,0,.93.81,1.63,1.24,2.44s.53,1.63.92,2.39a1.88,1.88,0,0,0,2.06,1.12c.92-.33,1.08-1.54,1.08-2.52v-4a2.68,2.68,0,0,0-.35-1.61,2.62,2.62,0,0,0-2-.78,6.25,6.25,0,0,0-1.93,0,2.15,2.15,0,0,0-1.52,1.1" transform="translate(25.38 -30.63)"/><path class="cls-13" d="M72.8,140.05A1.46,1.46,0,0,0,71,140a3,3,0,0,0-1,1.63,6.61,6.61,0,0,0,2.18,6.87,1.28,1.28,0,0,0,1.31.34,1.27,1.27,0,0,0,.48-1.24c-.08-2.21-1.28-4.37-.8-6.52" transform="translate(25.38 -30.63)"/><path class="cls-13" d="M66.23,155.3c-.5.81,0,1.84.48,2.65l1.16,2c.3.5.81,1.07,1.35.86s.53-.76.55-1.24l.13-4.36a1.73,1.73,0,0,0-.17-1c-.42-.68-1.44-.48-2.19-.21s-1.33.54-1.54,1.17" transform="translate(25.38 -30.63)"/><path class="cls-13" d="M71.78,181.87a1.4,1.4,0,0,0-2-.51,2.3,2.3,0,0,0-1,2,6.78,6.78,0,0,0,.53,2.24l.55,1.52c.28.78.69,1.68,1.51,1.84s1.63-.64,2-1.45a5.15,5.15,0,0,0-1-5.46" transform="translate(25.38 -30.63)"/><path class="cls-13" d="M73.4,173.58a5.84,5.84,0,0,1-2.32-.08,2,2,0,0,1-1.45-1.65,2.7,2.7,0,0,1,.29-1.17c.37-.9.77-1.79,1.21-2.67.34-.71,1-1.53,1.72-1.36s1,1.2,1,2l.09,4.8" transform="translate(25.38 -30.63)"/><path class="cls-13" d="M4.52,126.87a2.67,2.67,0,0,1,2.79.89A6,6,0,0,1,8.5,130.6a5.94,5.94,0,0,0,1.12,3.17,5,5,0,0,0,3.17,1.16l1.68.2a1,1,0,0,0,.7-.09.87.87,0,0,0,.26-.51,4.36,4.36,0,0,0-1.25-4.09c-.77-.72-1.81-1.17-2.33-2.08-.3-.51-.39-1.12-.69-1.63-.78-1.38-2.64-1.61-4.22-1.68L5.23,125a2.22,2.22,0,0,0-1.59.33c-.42.37-.34,1.24.21,1.31" transform="translate(25.38 -30.63)"/><path class="cls-13" d="M11.56,119.44a5.91,5.91,0,0,1,.7,2.27,4.69,4.69,0,0,0,2.37,3c.9.46,2.19.52,2.73-.33a2.64,2.64,0,0,0-.19-2.4,5.64,5.64,0,0,0-.7-1.33,5.67,5.67,0,0,0-.95-.88l-1.69-1.37a2.57,2.57,0,0,0-1.64-.75c-.61,0-1.15.83-.74,1.28" transform="translate(25.38 -30.63)"/><path class="cls-13" d="M4.93,158c.77.54.73,1.67.66,2.6s0,2.11.92,2.47a1.77,1.77,0,0,0,1.16,0,3.08,3.08,0,0,0,1.73-1.36c.25-.41.42-.9.84-1.14s1.28,0,1.83-.34.58-1.52,0-2.06a3.91,3.91,0,0,0-2.25-.72,3.77,3.77,0,0,1-2.24-.75,6.54,6.54,0,0,1-1.12-2.31c-.35-.79-1.21-1.54-2-1.19s-.81,1.46-.58,2.29a8.28,8.28,0,0,0,1.27,2.58" transform="translate(25.38 -30.63)"/><path class="cls-13" d="M-3.34,146.78c0,.59-.07,1.18,0,1.76A1.85,1.85,0,0,0-2.5,150a1,1,0,0,0,1.42-.55c0-.21,0-.44,0-.65.08-.6.73-.94,1.31-1.08a3.72,3.72,0,0,0,1.69-.59A1.65,1.65,0,0,0,2,144.92a2.53,2.53,0,0,0-2.24-.75,2.92,2.92,0,0,0-2.58,3.1" transform="translate(25.38 -30.63)"/><path class="cls-13" d="M3.32,134.91A2.07,2.07,0,0,0,3.8,137a3.38,3.38,0,0,0,.47.35.89.89,0,0,1,.34.3c.16.36.07.77.23,1.13a1.13,1.13,0,0,0,.93.7c.48,0,.75-.36.88-.77a2.83,2.83,0,0,0-.31-2.42A2.9,2.9,0,0,0,4,135.06a.43.43,0,0,0,0,.86,2,2,0,0,1,1.91,2.22,1.69,1.69,0,0,1-.12.44l0,.06c0,.09,0,0,0,0h0s0,0,0,0,0,0,0,0a.41.41,0,0,1-.09-.1.75.75,0,0,1-.1-.34,2.51,2.51,0,0,0-.23-1,2.3,2.3,0,0,0-.76-.66,1.21,1.21,0,0,1-.42-1.42.42.42,0,0,0-.3-.52.44.44,0,0,0-.53.3Z" transform="translate(25.38 -30.63)"/><path class="cls-13" d="M8.45,144.33a25.88,25.88,0,0,0,.86,7.76,2.84,2.84,0,0,0,.94,1.86,2.86,2.86,0,0,0,1.36.35,5.74,5.74,0,0,0,3-.31,2,2,0,0,0,1-2.56,5.41,5.41,0,0,0-.64-.72c-1.37-1.5-.91-4-2-5.7a3.71,3.71,0,0,0-4.59-1.32" transform="translate(25.38 -30.63)"/><path class="cls-13" d="M15.9,138.93a10.47,10.47,0,0,0,.72,3.36,1.33,1.33,0,0,1,.15.7c-.1.61-1,.9-1,1.52s.78.7,1.33.7c.81,0,1.76-.11,2.15-.81a1.61,1.61,0,0,0,.19-.83,6.59,6.59,0,0,0-1.14-3.22,3.62,3.62,0,0,0-.94-1.21,1.24,1.24,0,0,0-1.44-.1" transform="translate(25.38 -30.63)"/><path class="cls-13" d="M12.54,164.81a.79.79,0,0,0,.09,1.16,2.26,2.26,0,0,0,1.25.4l2.25.27a1.18,1.18,0,0,0,.7-.06,1.06,1.06,0,0,0,.42-.59c.59-1.69-.08-3.56-.89-5.16a.6.6,0,0,0-.24-.3c-.27-.13-.55.15-.69.41a3.74,3.74,0,0,0-.41,1.42,1.92,1.92,0,0,1-.24,1.07c-.28.36-.8.39-1.24.46s-1,.27-1,.72" transform="translate(25.38 -30.63)"/><path class="cls-13" d="M10.72,106c.33.43.09,1,.11,1.58,0,.92.8,1.63,1.24,2.44s.52,1.63.92,2.39a1.84,1.84,0,0,0,2.06,1.11c.92-.32,1.07-1.53,1.07-2.51v-4a2.66,2.66,0,0,0-.34-1.61,2.68,2.68,0,0,0-2-.79,6.57,6.57,0,0,0-1.93,0,2.11,2.11,0,0,0-1.52,1.1" transform="translate(25.38 -30.63)"/><path class="cls-13" d="M25.64,113.53a1.45,1.45,0,0,0-1.8,0,3,3,0,0,0-1,1.63A6.59,6.59,0,0,0,25,122c.37.29.89.56,1.31.33a1.27,1.27,0,0,0,.48-1.23c-.09-2.21-1.28-4.37-.81-6.52" transform="translate(25.38 -30.63)"/><path class="cls-13" d="M19.07,128.78c-.49.81,0,1.84.48,2.65l1.17,1.95c.3.5.8,1.07,1.34.86s.54-.76.55-1.25l.14-4.35a1.81,1.81,0,0,0-.17-1c-.43-.68-1.45-.48-2.2-.21s-1.32.54-1.53,1.17" transform="translate(25.38 -30.63)"/><path class="cls-13" d="M31.6,138.08a2.66,2.66,0,0,1,2.78.9,5.78,5.78,0,0,1,1.19,2.83A6,6,0,0,0,36.7,145a5.08,5.08,0,0,0,3.17,1.15l1.68.21a1,1,0,0,0,.69-.1.83.83,0,0,0,.27-.51,4.38,4.38,0,0,0-1.25-4.09c-.77-.72-1.82-1.17-2.34-2.08-.29-.51-.39-1.12-.68-1.63-.79-1.38-2.64-1.6-4.23-1.68l-1.71-.07a2.15,2.15,0,0,0-1.58.34c-.42.36-.35,1.23.2,1.3" transform="translate(25.38 -30.63)"/><path class="cls-13" d="M38.64,130.65a6.15,6.15,0,0,1,.7,2.27,4.71,4.71,0,0,0,2.37,3c.89.46,2.18.52,2.73-.33a2.69,2.69,0,0,0-.19-2.41,4.33,4.33,0,0,0-1.66-2.21l-1.69-1.37a2.54,2.54,0,0,0-1.63-.75c-.61,0-1.15.83-.74,1.29" transform="translate(25.38 -30.63)"/><path class="cls-13" d="M37.8,117.25c.33.42.09,1,.1,1.57,0,.93.81,1.63,1.24,2.44s.53,1.63.92,2.39a1.88,1.88,0,0,0,2.06,1.12c.92-.33,1.08-1.54,1.08-2.52v-4a2.61,2.61,0,0,0-.35-1.61,2.66,2.66,0,0,0-2-.78,6,6,0,0,0-1.93,0,2.07,2.07,0,0,0-1.51,1.09" transform="translate(25.38 -30.63)"/><path class="cls-13" d="M52.72,124.74a1.46,1.46,0,0,0-1.8,0,3,3,0,0,0-1,1.63,6.58,6.58,0,0,0,2.17,6.87,1.28,1.28,0,0,0,1.31.34,1.27,1.27,0,0,0,.48-1.24c-.08-2.2-1.28-4.36-.8-6.52" transform="translate(25.38 -30.63)"/><path class="cls-13" d="M-5.11,192.16c.33.42.09,1,.11,1.57,0,.93.8,1.63,1.24,2.45s.52,1.63.91,2.38a1.86,1.86,0,0,0,2.06,1.12c.92-.33,1.08-1.54,1.08-2.52v-4a2.61,2.61,0,0,0-.35-1.61A2.68,2.68,0,0,0-2,190.74a6,6,0,0,0-1.94,0,2.07,2.07,0,0,0-1.51,1.09" transform="translate(25.38 -30.63)"/><path class="cls-13" d="M-7.88,180.09a1.45,1.45,0,0,0-1.8-.05,3,3,0,0,0-1,1.63,6.57,6.57,0,0,0,2.18,6.87,1.27,1.27,0,0,0,1.31.33c.41-.21.49-.77.48-1.23-.09-2.21-1.29-4.37-.81-6.52" transform="translate(25.38 -30.63)"/><path class="cls-13" d="M46.15,140c-.5.81,0,1.84.48,2.65l1.16,2c.3.5.81,1.08,1.35.86s.53-.76.55-1.24l.13-4.36a1.73,1.73,0,0,0-.17-1c-.42-.68-1.44-.48-2.19-.21s-1.33.54-1.54,1.17" transform="translate(25.38 -30.63)"/><path class="cls-13" d="M24.63,155.35a1.41,1.41,0,0,0-2-.51,2.27,2.27,0,0,0-1,2,6.66,6.66,0,0,0,.52,2.23l.56,1.53c.28.78.69,1.68,1.5,1.84s1.63-.64,2-1.45a5.15,5.15,0,0,0-1-5.46" transform="translate(25.38 -30.63)"/><path class="cls-13" d="M26.25,147.06a5.83,5.83,0,0,1-2.32-.08,2,2,0,0,1-1.46-1.65,3,3,0,0,1,.29-1.17c.38-.9.78-1.79,1.21-2.67.35-.71,1-1.54,1.73-1.36s1,1.2,1,2l.1,4.8" transform="translate(25.38 -30.63)"/><path class="cls-13" d="M74.07,202.24l-4.42,0a1.52,1.52,0,0,0-.71.12,1.43,1.43,0,0,0-.54.67,7,7,0,0,0-.52,1.54.7.7,0,0,0,0,.55.72.72,0,0,0,.4.26,12,12,0,0,0,3.91.53,2.89,2.89,0,0,0,2.31-.63c.71-.81.29-2.11-.44-2.89" transform="translate(25.38 -30.63)"/><path class="cls-13" d="M12.09,173.13c.1,1.47,1.09,2.71,1.91,3.94a20.4,20.4,0,0,1,2.53,5.36c.38,1.25.79,2.72,2,3.2a1.23,1.23,0,0,0,1.06,0,1.32,1.32,0,0,0,.47-.62,6.59,6.59,0,0,0,.38-2.79l0-5c0-2-.2-4.35-1.85-5.5a6.42,6.42,0,0,0-3.6-.77,4.93,4.93,0,0,0-2.17.29,1.69,1.69,0,0,0-1,1.77" transform="translate(25.38 -30.63)"/><path class="cls-13" d="M-7.65,172.87c.76.54.73,1.67.66,2.6s0,2.11.92,2.47a1.74,1.74,0,0,0,1.15,0,3.1,3.1,0,0,0,1.74-1.36,2.83,2.83,0,0,1,.83-1.14c.55-.31,1.29,0,1.84-.34a1.34,1.34,0,0,0,0-2.06,3.87,3.87,0,0,0-2.25-.72A3.75,3.75,0,0,1-5,171.57a6.54,6.54,0,0,1-1.12-2.31c-.35-.78-1.2-1.54-2-1.19s-.82,1.46-.58,2.3a8.23,8.23,0,0,0,1.27,2.57" transform="translate(25.38 -30.63)"/><path class="cls-13" d="M-4.14,159.2A25.85,25.85,0,0,0-3.27,167a2.83,2.83,0,0,0,.93,1.86,2.79,2.79,0,0,0,1.37.35,5.75,5.75,0,0,0,3-.31,2,2,0,0,0,1-2.56,5.4,5.4,0,0,0-.64-.71c-1.37-1.51-.91-4-2-5.71a3.72,3.72,0,0,0-4.6-1.32" transform="translate(25.38 -30.63)"/><path class="cls-13" d="M5,174.57c-1,1.13-1.07,2.71-1.32,4.17a20.21,20.21,0,0,1-1.84,5.63c-.58,1.17-1.29,2.52-.74,3.71a1.21,1.21,0,0,0,.8.7,1.33,1.33,0,0,0,.76-.12,6.59,6.59,0,0,0,2.19-1.78l3.4-3.66c1.37-1.48,2.85-3.3,2.43-5.27a6.36,6.36,0,0,0-2.09-3,4.77,4.77,0,0,0-1.78-1.28,1.68,1.68,0,0,0-2,.57" transform="translate(25.38 -30.63)"/><path class="cls-13" d="M21.78,191a14.4,14.4,0,0,1,9.15-.2c.56.18,1.3.34,1.65-.13a.94.94,0,0,0,.18-.48,2.61,2.61,0,0,0-.94-2.2,7.67,7.67,0,0,0-2.14-1.22c-1.1-.49-2.38-1-3.45-.42s-1.43,1.85-2.34,2.6-2,.86-2.66,1.73" transform="translate(25.38 -30.63)"/><path class="cls-13" d="M12.19,212.15a5.89,5.89,0,0,0,1.16,6A3.45,3.45,0,0,1,14,219a8.84,8.84,0,0,1,.25.88,2.08,2.08,0,0,0,3.23.82c.25-.24.44-.54.7-.78a3,3,0,0,1,2.35-.56c.72.08,1.61.22,2-.38a1.17,1.17,0,0,0-.06-1.27,3,3,0,0,0-1-.88,15.28,15.28,0,0,0-3.33-1.55,5.73,5.73,0,0,1-2.95-1.52,10.87,10.87,0,0,1-.78-1.42,1.83,1.83,0,0,0-1.19-1c-.53-.1-1.15.35-1.06.88" transform="translate(25.38 -30.63)"/><path class="cls-13" d="M9.19,193.51c.22.22.06.59-.15.81-.94.93-2.72.78-3.4,1.92a3.18,3.18,0,0,0-.32,1.1q-.54,3.49-1,7c-.1.77,0,1.78.71,2,.59.17,1.14-.32,1.55-.78a47.68,47.68,0,0,0,4.06-5.22,5.39,5.39,0,0,1,1-1.23A8.05,8.05,0,0,0,13.11,198a2.21,2.21,0,0,0,.21-2,3.61,3.61,0,0,0-4.13-2.28" transform="translate(25.38 -30.63)"/><path class="cls-13" d="M28.09,216.36c.77.55.73,1.67.66,2.61s.05,2.1.92,2.46a1.63,1.63,0,0,0,1.15,0,3.13,3.13,0,0,0,1.74-1.35c.24-.41.42-.91.83-1.14s1.29,0,1.84-.35.58-1.52,0-2.05a3.88,3.88,0,0,0-2.25-.73,3.75,3.75,0,0,1-2.23-.74,6.64,6.64,0,0,1-1.13-2.31c-.35-.79-1.2-1.55-2-1.2s-.82,1.47-.58,2.3a8.23,8.23,0,0,0,1.27,2.57" transform="translate(25.38 -30.63)"/><path class="cls-13" d="M19.82,205.14a17.42,17.42,0,0,0,0,1.77,1.85,1.85,0,0,0,.85,1.46,1,1,0,0,0,1.41-.55c0-.21,0-.43,0-.65.08-.59.72-.94,1.31-1.08a3.63,3.63,0,0,0,1.69-.58,1.67,1.67,0,0,0,.05-2.23,2.54,2.54,0,0,0-2.25-.74,2.91,2.91,0,0,0-2.57,3.09" transform="translate(25.38 -30.63)"/><path class="cls-13" d="M-11.46,196.66a.77.77,0,0,0,.1,1.15,2.22,2.22,0,0,0,1.24.41l2.25.27a1.27,1.27,0,0,0,.7-.06,1,1,0,0,0,.42-.6c.59-1.69-.08-3.55-.88-5.16a.67.67,0,0,0-.25-.3c-.26-.13-.55.15-.68.41A3.59,3.59,0,0,0-9,194.21a1.94,1.94,0,0,1-.24,1.07,1.81,1.81,0,0,1-1.24.45c-.45.07-1,.27-1,.72" transform="translate(25.38 -30.63)"/><path class="cls-13" d="M-11.9,205c.09,1.48,1.08,2.72,1.9,3.95a20.49,20.49,0,0,1,2.53,5.35c.38,1.25.79,2.72,2,3.2a1.16,1.16,0,0,0,1.06,0,1.34,1.34,0,0,0,.48-.62A6.7,6.7,0,0,0-3.56,214l0-5c0-2-.2-4.35-1.85-5.49a6.31,6.31,0,0,0-3.6-.78,4.82,4.82,0,0,0-2.17.3,1.68,1.68,0,0,0-1,1.76" transform="translate(25.38 -30.63)"/><path class="cls-13" d="M-2.21,222.81a14.3,14.3,0,0,1,9.14-.21c.57.18,1.3.35,1.66-.13a1,1,0,0,0,.17-.48,2.6,2.6,0,0,0-.93-2.19,7.65,7.65,0,0,0-2.15-1.23c-1.09-.48-2.38-1-3.44-.41S.8,220-.11,220.75s-2,.87-2.66,1.74" transform="translate(25.38 -30.63)"/><path class="cls-13" d="M30.84,201.5a1.11,1.11,0,0,0-1.53.65,2.87,2.87,0,0,0,.12,1.87,19.87,19.87,0,0,0,.88,2.33c.25.54.82,1.16,1.3.82s.28-.79.22-1.22a4,4,0,0,1,1.5-3.59,2.08,2.08,0,0,0,.76-.74,1.7,1.7,0,0,0-.22-1.39,7.3,7.3,0,0,0-1.22-2,2.56,2.56,0,0,0-2.09-.9.94.94,0,0,0-.61.28,1.29,1.29,0,0,0-.18.67c-.05,1.11-.06,2.22,0,3.32" transform="translate(25.38 -30.63)"/><path class="cls-13" d="M128.31,208.29c1.55,1,3.48.91,5.3.84.56,0,1.22-.1,1.49-.6s0-1,0-1.46a2.15,2.15,0,0,1,2-2.21,3.54,3.54,0,0,0,1.08,0c.76-.26.86-1.29.73-2.09a2.83,2.83,0,0,0-.81-1.78,3.32,3.32,0,0,0-2.2-.52h-3.06a1.6,1.6,0,0,0-1,.21,1.67,1.67,0,0,0-.44.66,5.59,5.59,0,0,0-.67,2.66,8.1,8.1,0,0,1,.17,1.62c-.08.55-.61,1.09-1.12.9-.21-.08-.38-.28-.6-.33s-.65.22-.81.53a3.3,3.3,0,0,1-.5.9" transform="translate(25.38 -30.63)"/><path class="cls-13" d="M128.3,190.31a1.08,1.08,0,0,0-1.36.63,3.17,3.17,0,0,0-.12,1.65,1.62,1.62,0,0,0,.19.69,1.52,1.52,0,0,0,.51.43,25.86,25.86,0,0,0,3.12,1.66,3.31,3.31,0,0,0,2.57.35c.88-.37,1.28-1.34,1.76-2.16a8.46,8.46,0,0,1,2-2.38c.23-.19.5-.41.49-.71s-.35-.55-.66-.66a4,4,0,0,0-3,.14,12,12,0,0,1-2.31,1.19c-1.23.27-2.43-.44-3.49-1.12" transform="translate(25.38 -30.63)"/><path class="cls-13" d="M148.65,213.18c-.13,1.29.81,2.4,1.55,3.47a14.07,14.07,0,0,1,2.37,6.07c.32.12.54-.32.57-.66a12.74,12.74,0,0,0-.2-4.13,2.78,2.78,0,0,1,0-1.91c.41-.77,1.46-.9,2.1-1.48a3.81,3.81,0,0,0,.83-2.93,3.91,3.91,0,0,0-.65-2.61c-.83-.94-2.31-.84-3.54-.58a1.74,1.74,0,0,0-1.32.77,4.86,4.86,0,0,0-.18,1c-.24,1.06-1.62,1.75-1.45,2.81" transform="translate(25.38 -30.63)"/><path class="cls-13" d="M144.46,203.18a5.55,5.55,0,0,0,1.41,2.35c.37.38.94.71,1.41.46a1.33,1.33,0,0,0,.51-1.15c.05-1-.08-1.92,0-2.87a3.07,3.07,0,0,1,1.37-2.4,2.44,2.44,0,0,0,.87-.55c.35-.49,0-1.18-.42-1.6a4.55,4.55,0,0,0-3.84-1.26,1.19,1.19,0,0,0-.6.22,1.13,1.13,0,0,0-.33.65,8.22,8.22,0,0,0,.48,3.07c.21,1,0,2.35-1,2.65" transform="translate(25.38 -30.63)"/><path class="cls-13" d="M131.4,215.49a5.89,5.89,0,0,0,1.16,6,3.45,3.45,0,0,1,.66.82,8.65,8.65,0,0,1,.25.87,2.08,2.08,0,0,0,3.23.83c.25-.24.44-.54.7-.78a3,3,0,0,1,2.35-.56c.72.08,1.61.21,2-.38a1.17,1.17,0,0,0-.06-1.27,2.92,2.92,0,0,0-1-.88,15.28,15.28,0,0,0-3.33-1.55,5.8,5.8,0,0,1-3-1.52,10.81,10.81,0,0,1-.77-1.42,1.84,1.84,0,0,0-1.19-1c-.53-.09-1.15.35-1.06.88" transform="translate(25.38 -30.63)"/><path class="cls-13" d="M125,177.83a5.84,5.84,0,0,0,1.16,6,3.45,3.45,0,0,1,.66.82c.12.28.15.59.25.88a2.07,2.07,0,0,0,3.22.82c.26-.24.44-.54.7-.78a3,3,0,0,1,2.36-.56c.72.08,1.61.21,2-.38a1.17,1.17,0,0,0,0-1.27,3,3,0,0,0-1-.88,15.35,15.35,0,0,0-3.34-1.55,5.73,5.73,0,0,1-3-1.52,10.81,10.81,0,0,1-.77-1.42,1.82,1.82,0,0,0-1.19-1c-.53-.1-1.16.34-1.06.88" transform="translate(25.38 -30.63)"/><path class="cls-13" d="M140.44,150.91a2.66,2.66,0,0,1,2.78.9,5.87,5.87,0,0,1,1.19,2.83,6.09,6.09,0,0,0,1.12,3.18,5.11,5.11,0,0,0,3.18,1.15l1.67.21a.93.93,0,0,0,.7-.1.88.88,0,0,0,.27-.51,4.38,4.38,0,0,0-1.25-4.09c-.77-.71-1.82-1.17-2.34-2.08-.29-.51-.39-1.12-.68-1.63-.79-1.38-2.65-1.6-4.23-1.67l-1.71-.08a2.23,2.23,0,0,0-1.59.34c-.41.36-.34,1.23.21,1.3" transform="translate(25.38 -30.63)"/><path class="cls-13" d="M147.48,143.48a6.21,6.21,0,0,1,.7,2.27,4.71,4.71,0,0,0,2.37,3c.89.46,2.18.52,2.72-.33a2.66,2.66,0,0,0-.19-2.41,5.39,5.39,0,0,0-.7-1.32,5.73,5.73,0,0,0-.95-.89l-1.69-1.36a2.51,2.51,0,0,0-1.63-.76c-.62,0-1.15.83-.74,1.29" transform="translate(25.38 -30.63)"/><path class="cls-13" d="M122,159.19c.21.21.06.59-.16.81-.93.93-2.71.78-3.39,1.91a3.08,3.08,0,0,0-.32,1.11c-.36,2.33-.68,4.66-1,7-.09.76,0,1.78.72,2,.58.17,1.14-.31,1.54-.77a45.35,45.35,0,0,0,4.06-5.22,5.22,5.22,0,0,1,1-1.23,8.44,8.44,0,0,0,1.42-1.08,2.18,2.18,0,0,0,.2-2,3.58,3.58,0,0,0-4.12-2.28" transform="translate(25.38 -30.63)"/><path class="cls-13" d="M118.42,151.27l.73,1.52a3,3,0,0,0,.72,1.09,1.07,1.07,0,0,0,1.23.15,1.36,1.36,0,0,0,.46-.9A4.31,4.31,0,0,0,119.8,149a1.76,1.76,0,0,0-1.35-.37,1.39,1.39,0,0,0-1,1.45,2.4,2.4,0,0,0,.92,1.58" transform="translate(25.38 -30.63)"/><path class="cls-13" d="M126.84,150.54a4.67,4.67,0,0,0-.28,3.44,3.09,3.09,0,0,0,2.57,2.12,3.44,3.44,0,0,1,1.29.15c.83.43.77,1.76,1.58,2.22a1.42,1.42,0,0,0,1.87-.95,3.89,3.89,0,0,0-.21-2.35c-.28-.88-.58-1.75-.91-2.62a5.6,5.6,0,0,0-1-1.92,6.14,6.14,0,0,0-3.41-1.49,2.6,2.6,0,0,0-1.61,0c-.5.22-.81.93-.44,1.33" transform="translate(25.38 -30.63)"/><path class="cls-13" d="M140.85,182c.76.54.72,1.67.66,2.61s.05,2.1.91,2.46a1.71,1.71,0,0,0,1.16,0,3,3,0,0,0,1.73-1.36c.25-.41.42-.9.84-1.14s1.29,0,1.83-.34c.7-.39.59-1.52,0-2.06a4,4,0,0,0-2.25-.72,3.73,3.73,0,0,1-2.24-.75,6.49,6.49,0,0,1-1.12-2.3c-.35-.79-1.2-1.55-2-1.2s-.81,1.47-.57,2.3a8,8,0,0,0,1.26,2.57" transform="translate(25.38 -30.63)"/><path class="cls-13" d="M132.57,170.82c0,.59-.07,1.18,0,1.77a1.81,1.81,0,0,0,.84,1.46,1,1,0,0,0,1.42-.55c0-.21,0-.43,0-.65.08-.6.72-.94,1.31-1.08a3.72,3.72,0,0,0,1.68-.59,1.63,1.63,0,0,0,0-2.22,2.55,2.55,0,0,0-2.24-.75,2.9,2.9,0,0,0-2.57,3.1" transform="translate(25.38 -30.63)"/><path class="cls-13" d="M139.23,159a2.08,2.08,0,0,0,.49,2.12,2.24,2.24,0,0,0,.46.35.73.73,0,0,1,.34.31c.16.35.07.77.24,1.13a1.14,1.14,0,0,0,.93.7c.47,0,.74-.37.88-.78a2.81,2.81,0,0,0-2.64-3.68.43.43,0,0,0,0,.86,2,2,0,0,1,1.9,2.22,2,2,0,0,1-.11.44s0,0,0,.06-.05,0,0,0h0s0,0,0,0l-.05,0-.09-.09a.79.79,0,0,1-.1-.34,2.3,2.3,0,0,0-.23-1,2.14,2.14,0,0,0-.76-.67,1.21,1.21,0,0,1-.42-1.41.43.43,0,1,0-.83-.23Z" transform="translate(25.38 -30.63)"/><path class="cls-13" d="M144.36,168.37a25.85,25.85,0,0,0,.86,7.76,2.84,2.84,0,0,0,.94,1.86,2.79,2.79,0,0,0,1.37.35,5.61,5.61,0,0,0,3-.31,1.94,1.94,0,0,0,1-2.56,4.71,4.71,0,0,0-.63-.71c-1.37-1.51-.92-4-2-5.71a3.74,3.74,0,0,0-4.6-1.32" transform="translate(25.38 -30.63)"/><path class="cls-13" d="M151.81,163a10.74,10.74,0,0,0,.72,3.36,1.35,1.35,0,0,1,.15.7c-.1.62-1,.9-1,1.52s.78.71,1.34.7c.8,0,1.75-.11,2.15-.8a1.74,1.74,0,0,0,.18-.84,6.66,6.66,0,0,0-1.14-3.22,3.6,3.6,0,0,0-.94-1.21,1.24,1.24,0,0,0-1.43-.09" transform="translate(25.38 -30.63)"/><path class="cls-13" d="M148.45,188.86a.77.77,0,0,0,.1,1.15,2.29,2.29,0,0,0,1.24.41l2.25.26a1.11,1.11,0,0,0,.7-.06,1,1,0,0,0,.42-.59c.59-1.69-.08-3.56-.88-5.16a.62.62,0,0,0-.25-.3c-.26-.13-.55.15-.68.41a3.76,3.76,0,0,0-.42,1.42,1.88,1.88,0,0,1-.24,1.08,1.81,1.81,0,0,1-1.24.45c-.45.06-1,.27-1,.72" transform="translate(25.38 -30.63)"/><path class="cls-13" d="M146.64,130.08c.33.42.09,1,.1,1.57,0,.93.81,1.63,1.24,2.45s.53,1.62.92,2.38A1.88,1.88,0,0,0,151,137.6c.92-.33,1.08-1.54,1.08-2.52v-4a2,2,0,0,0-2.31-2.39,6,6,0,0,0-1.93,0,2.11,2.11,0,0,0-1.52,1.09" transform="translate(25.38 -30.63)"/><path class="cls-13" d="M161.56,137.57a1.46,1.46,0,0,0-1.8,0,3,3,0,0,0-1,1.63,6.61,6.61,0,0,0,2.18,6.87,1.28,1.28,0,0,0,1.31.34,1.27,1.27,0,0,0,.48-1.24c-.08-2.2-1.28-4.36-.81-6.52" transform="translate(25.38 -30.63)"/><path class="cls-13" d="M155,152.82c-.5.81,0,1.84.48,2.65l1.16,1.95c.3.5.8,1.08,1.35.86s.53-.76.55-1.24l.13-4.36a1.74,1.74,0,0,0-.17-1c-.42-.68-1.44-.48-2.19-.21s-1.33.54-1.54,1.17" transform="translate(25.38 -30.63)"/><path class="cls-13" d="M160.54,179.39a1.4,1.4,0,0,0-2-.51,2.3,2.3,0,0,0-1,2,6.78,6.78,0,0,0,.53,2.24l.55,1.53c.28.78.69,1.67,1.51,1.83s1.63-.64,2-1.45a5.15,5.15,0,0,0-1-5.46" transform="translate(25.38 -30.63)"/><path class="cls-13" d="M162.16,171.1a5.66,5.66,0,0,1-2.32-.08,2,2,0,0,1-1.45-1.65,2.73,2.73,0,0,1,.29-1.17q.56-1.35,1.2-2.67c.35-.71,1-1.53,1.73-1.36s1,1.2,1,2l.09,4.8" transform="translate(25.38 -30.63)"/><path class="cls-13" d="M93.28,124.39a2.67,2.67,0,0,1,2.79.9,6,6,0,0,1,1.19,2.83,6,6,0,0,0,1.12,3.18,5.08,5.08,0,0,0,3.17,1.15l1.68.21a1,1,0,0,0,.7-.1.87.87,0,0,0,.26-.51,4.36,4.36,0,0,0-1.25-4.09c-.77-.72-1.81-1.17-2.34-2.08-.29-.51-.38-1.12-.68-1.63-.78-1.38-2.64-1.6-4.22-1.68L94,122.5a2.17,2.17,0,0,0-1.59.34c-.42.36-.34,1.23.21,1.3" transform="translate(25.38 -30.63)"/><path class="cls-13" d="M100.32,117a6.15,6.15,0,0,1,.7,2.27,4.69,4.69,0,0,0,2.37,3c.9.47,2.19.53,2.73-.32a2.66,2.66,0,0,0-.19-2.41,6.17,6.17,0,0,0-.7-1.32,5.34,5.34,0,0,0-1-.89l-1.7-1.37a2.52,2.52,0,0,0-1.63-.75c-.61,0-1.15.83-.74,1.29" transform="translate(25.38 -30.63)"/><path class="cls-13" d="M93.69,155.52c.77.54.73,1.67.66,2.61s.05,2.1.92,2.46a1.77,1.77,0,0,0,1.16,0,3.11,3.11,0,0,0,1.73-1.36,2.83,2.83,0,0,1,.83-1.14c.55-.31,1.29,0,1.84-.34.7-.39.58-1.52,0-2.06a3.91,3.91,0,0,0-2.25-.72,3.7,3.7,0,0,1-2.24-.75,6.77,6.77,0,0,1-1.13-2.3c-.35-.79-1.2-1.55-2-1.2s-.81,1.46-.58,2.3a8.23,8.23,0,0,0,1.27,2.57" transform="translate(25.38 -30.63)"/><path class="cls-13" d="M85.42,144.3c0,.59-.07,1.18,0,1.76a1.85,1.85,0,0,0,.85,1.47,1,1,0,0,0,1.42-.55c0-.21,0-.43,0-.65.08-.6.72-.94,1.31-1.08a3.72,3.72,0,0,0,1.69-.59,1.65,1.65,0,0,0,0-2.22,2.53,2.53,0,0,0-2.24-.75,2.92,2.92,0,0,0-2.58,3.1" transform="translate(25.38 -30.63)"/><path class="cls-13" d="M92.08,132.43a2.07,2.07,0,0,0,.48,2.12,2.54,2.54,0,0,0,.46.35.85.85,0,0,1,.35.3c.16.36.07.78.23,1.13a1.14,1.14,0,0,0,.93.71c.48,0,.75-.37.88-.78a2.84,2.84,0,0,0-.31-2.42,2.9,2.9,0,0,0-2.33-1.26.43.43,0,0,0,0,.86,2,2,0,0,1,1.91,2.22,1.69,1.69,0,0,1-.12.44l0,.06c0,.09,0,0,0,0h0s0,0,0,0,0,0,0,0a.22.22,0,0,1-.09-.1.71.71,0,0,1-.1-.33,2.51,2.51,0,0,0-.23-1,2.3,2.3,0,0,0-.76-.66,1.2,1.2,0,0,1-.42-1.41.43.43,0,1,0-.83-.23Z" transform="translate(25.38 -30.63)"/><path class="cls-13" d="M97.21,141.85a25.85,25.85,0,0,0,.86,7.76,2.84,2.84,0,0,0,.94,1.86,2.75,2.75,0,0,0,1.36.35,5.64,5.64,0,0,0,3-.31,2,2,0,0,0,1-2.56,4.78,4.78,0,0,0-.64-.71c-1.37-1.51-.91-4-2-5.71a3.71,3.71,0,0,0-4.59-1.32" transform="translate(25.38 -30.63)"/><path class="cls-13" d="M104.66,136.45a10.47,10.47,0,0,0,.72,3.36,1.33,1.33,0,0,1,.15.7c-.1.62-1,.9-1,1.52s.78.7,1.33.7c.81,0,1.76-.11,2.15-.81a1.69,1.69,0,0,0,.19-.83,6.73,6.73,0,0,0-1.14-3.22,3.62,3.62,0,0,0-.94-1.21,1.27,1.27,0,0,0-1.44-.1" transform="translate(25.38 -30.63)"/><path class="cls-13" d="M101.29,162.34a.79.79,0,0,0,.1,1.15,2.36,2.36,0,0,0,1.25.41l2.25.26a1.12,1.12,0,0,0,.7-.06,1,1,0,0,0,.41-.59c.6-1.69-.07-3.56-.88-5.16a.6.6,0,0,0-.24-.3c-.27-.13-.55.15-.69.41a3.74,3.74,0,0,0-.41,1.42,2,2,0,0,1-.24,1.08,1.83,1.83,0,0,1-1.24.45c-.45.06-1,.27-1,.72" transform="translate(25.38 -30.63)"/><path class="cls-13" d="M99.48,103.56c.33.42.09,1,.11,1.57,0,.93.8,1.63,1.24,2.44s.52,1.63.92,2.39a1.86,1.86,0,0,0,2.06,1.12c.91-.33,1.07-1.54,1.07-2.52v-4a2,2,0,0,0-2.3-2.39,6.31,6.31,0,0,0-1.94,0,2.11,2.11,0,0,0-1.51,1.1" transform="translate(25.38 -30.63)"/><path class="cls-13" d="M114.4,111.05a1.45,1.45,0,0,0-1.8,0,3,3,0,0,0-1,1.63,6.57,6.57,0,0,0,2.18,6.87,1.27,1.27,0,0,0,1.31.34,1.29,1.29,0,0,0,.48-1.24c-.09-2.2-1.28-4.37-.81-6.52" transform="translate(25.38 -30.63)"/><path class="cls-13" d="M107.83,126.3c-.49.81,0,1.84.48,2.65l1.17,2c.3.5.8,1.08,1.34.86s.54-.76.55-1.24l.14-4.36a1.81,1.81,0,0,0-.17-1c-.43-.68-1.45-.48-2.2-.21s-1.32.54-1.53,1.17" transform="translate(25.38 -30.63)"/><path class="cls-13" d="M120.36,135.6a2.66,2.66,0,0,1,2.78.9,5.78,5.78,0,0,1,1.19,2.83,6,6,0,0,0,1.13,3.18,5,5,0,0,0,3.17,1.15l1.68.21a.92.92,0,0,0,.69-.1.83.83,0,0,0,.27-.51,4.39,4.39,0,0,0-1.25-4.09c-.77-.71-1.82-1.17-2.34-2.08-.29-.51-.39-1.12-.68-1.63-.79-1.38-2.64-1.6-4.23-1.67l-1.71-.08a2.23,2.23,0,0,0-1.59.34c-.41.36-.34,1.23.21,1.3" transform="translate(25.38 -30.63)"/><path class="cls-13" d="M127.4,128.17a6.21,6.21,0,0,1,.7,2.27,4.71,4.71,0,0,0,2.37,3c.89.46,2.18.52,2.72-.33a2.66,2.66,0,0,0-.18-2.41,4.33,4.33,0,0,0-1.66-2.21l-1.69-1.36a2.45,2.45,0,0,0-1.63-.75c-.62,0-1.15.82-.74,1.28" transform="translate(25.38 -30.63)"/><path class="cls-13" d="M126.56,114.77c.33.42.09,1,.1,1.57,0,.93.81,1.63,1.24,2.45s.53,1.62.92,2.38a1.88,1.88,0,0,0,2.06,1.12c.92-.33,1.08-1.54,1.08-2.52v-4a2.61,2.61,0,0,0-.35-1.61,2.66,2.66,0,0,0-2-.78,6,6,0,0,0-1.93,0,2.07,2.07,0,0,0-1.51,1.09" transform="translate(25.38 -30.63)"/><path class="cls-13" d="M141.48,122.26a1.44,1.44,0,0,0-1.8,0,2.91,2.91,0,0,0-1,1.62,6.6,6.6,0,0,0,2.18,6.87,1.28,1.28,0,0,0,1.31.34,1.27,1.27,0,0,0,.48-1.24c-.08-2.2-1.28-4.36-.8-6.52" transform="translate(25.38 -30.63)"/><path class="cls-13" d="M83.65,189.68c.33.43.09,1,.1,1.58,0,.92.81,1.62,1.25,2.44s.52,1.63.91,2.38A1.85,1.85,0,0,0,88,197.2c.92-.33,1.08-1.54,1.08-2.51v-4A2.61,2.61,0,0,0,88.7,189a2.7,2.7,0,0,0-2-.78,6.25,6.25,0,0,0-1.93,0,2.06,2.06,0,0,0-1.51,1.1" transform="translate(25.38 -30.63)"/><path class="cls-13" d="M80.88,177.61a1.46,1.46,0,0,0-1.8-.05,3,3,0,0,0-1,1.63,6.58,6.58,0,0,0,2.17,6.87,1.28,1.28,0,0,0,1.31.34,1.27,1.27,0,0,0,.48-1.24c-.08-2.2-1.28-4.37-.8-6.52" transform="translate(25.38 -30.63)"/><path class="cls-13" d="M134.91,137.51c-.5.81,0,1.84.48,2.65l1.16,2c.3.5.81,1.08,1.35.86s.53-.76.55-1.24l.13-4.36a1.74,1.74,0,0,0-.17-1c-.42-.68-1.44-.48-2.19-.2s-1.33.53-1.54,1.16" transform="translate(25.38 -30.63)"/><path class="cls-13" d="M113.39,152.87a1.41,1.41,0,0,0-2-.51,2.3,2.3,0,0,0-1,2,7,7,0,0,0,.53,2.24l.56,1.52c.28.78.69,1.68,1.5,1.84s1.63-.64,2-1.45a5.15,5.15,0,0,0-1-5.46" transform="translate(25.38 -30.63)"/><path class="cls-13" d="M115,144.58a5.83,5.83,0,0,1-2.32-.08,2,2,0,0,1-1.46-1.65,3,3,0,0,1,.29-1.17c.38-.9.78-1.79,1.21-2.67.35-.71,1-1.53,1.73-1.36s1,1.2,1,2l.1,4.8" transform="translate(25.38 -30.63)"/><path class="cls-13" d="M162.83,199.76l-4.43,0a1.64,1.64,0,0,0-.7.12,1.43,1.43,0,0,0-.54.67,7,7,0,0,0-.52,1.54.7.7,0,0,0,0,.55.8.8,0,0,0,.4.27,12.23,12.23,0,0,0,3.91.52,2.89,2.89,0,0,0,2.31-.63c.71-.81.29-2.11-.44-2.89" transform="translate(25.38 -30.63)"/><path class="cls-13" d="M100.85,170.65c.1,1.48,1.09,2.71,1.91,3.94a20.4,20.4,0,0,1,2.53,5.36c.37,1.25.79,2.72,2,3.2a1.16,1.16,0,0,0,1.06,0,1.32,1.32,0,0,0,.47-.62,6.55,6.55,0,0,0,.38-2.79l0-5c0-2-.2-4.35-1.85-5.5a6.42,6.42,0,0,0-3.6-.77,4.93,4.93,0,0,0-2.17.29,1.69,1.69,0,0,0-1,1.77" transform="translate(25.38 -30.63)"/><path class="cls-13" d="M81.11,170.39c.76.54.73,1.67.66,2.61s0,2.1.92,2.46a1.68,1.68,0,0,0,1.15,0,3.1,3.1,0,0,0,1.74-1.36c.24-.41.41-.9.83-1.14s1.29,0,1.84-.34.58-1.52,0-2.06a4,4,0,0,0-2.25-.72,3.73,3.73,0,0,1-2.24-.75,6.49,6.49,0,0,1-1.12-2.3c-.35-.79-1.2-1.55-2-1.2s-.82,1.47-.58,2.3a8.23,8.23,0,0,0,1.27,2.57" transform="translate(25.38 -30.63)"/><path class="cls-13" d="M84.62,156.72a25.85,25.85,0,0,0,.87,7.76,2.83,2.83,0,0,0,.93,1.86,2.79,2.79,0,0,0,1.37.35,5.65,5.65,0,0,0,3-.31,1.94,1.94,0,0,0,1-2.56,4.71,4.71,0,0,0-.63-.71c-1.37-1.51-.92-4-2-5.71a3.73,3.73,0,0,0-4.6-1.32" transform="translate(25.38 -30.63)"/><path class="cls-13" d="M93.79,172.09c-1,1.14-1.07,2.72-1.32,4.17a20.54,20.54,0,0,1-1.84,5.63c-.58,1.17-1.29,2.53-.74,3.71a1.21,1.21,0,0,0,.8.7,1.35,1.35,0,0,0,.76-.12,6.59,6.59,0,0,0,2.19-1.78l3.4-3.66c1.37-1.48,2.84-3.3,2.43-5.27a6.36,6.36,0,0,0-2.09-3,4.85,4.85,0,0,0-1.78-1.28,1.68,1.68,0,0,0-2,.57" transform="translate(25.38 -30.63)"/><path class="cls-13" d="M110.54,188.48a14.4,14.4,0,0,1,9.15-.2c.56.18,1.29.34,1.65-.13a.94.94,0,0,0,.18-.48,2.61,2.61,0,0,0-.94-2.19,7.46,7.46,0,0,0-2.14-1.23c-1.1-.48-2.38-1-3.45-.42s-1.43,1.85-2.34,2.6-2,.87-2.66,1.73" transform="translate(25.38 -30.63)"/><path class="cls-13" d="M101,209.68a5.87,5.87,0,0,0,1.16,6,3.4,3.4,0,0,1,.66.81,8.84,8.84,0,0,1,.25.88,2.07,2.07,0,0,0,3.23.82c.25-.24.44-.54.69-.78a3,3,0,0,1,2.36-.56c.72.09,1.61.22,2-.38a1.17,1.17,0,0,0-.06-1.27,3,3,0,0,0-1-.88,16.52,16.52,0,0,0-3.33-1.55,5.73,5.73,0,0,1-3-1.52,10.2,10.2,0,0,1-.77-1.42,1.85,1.85,0,0,0-1.19-1c-.53-.1-1.15.35-1.06.88" transform="translate(25.38 -30.63)"/><path class="cls-13" d="M98,191c.22.22.06.59-.16.81-.93.93-2.71.78-3.39,1.92a3.18,3.18,0,0,0-.32,1.1q-.54,3.49-1,7c-.1.77,0,1.78.71,2,.59.17,1.14-.32,1.55-.77a47.8,47.8,0,0,0,4.06-5.23,5.39,5.39,0,0,1,1-1.23,7.6,7.6,0,0,0,1.42-1.08,2.21,2.21,0,0,0,.21-2A3.61,3.61,0,0,0,98,191.29" transform="translate(25.38 -30.63)"/><path class="cls-13" d="M116.85,213.88c.77.55.73,1.67.66,2.61s0,2.1.92,2.47a1.68,1.68,0,0,0,1.15,0,3.08,3.08,0,0,0,1.74-1.35c.24-.41.42-.91.83-1.14s1.29,0,1.84-.34a1.34,1.34,0,0,0,0-2.06,3.8,3.8,0,0,0-2.25-.72,3.82,3.82,0,0,1-2.24-.75,6.71,6.71,0,0,1-1.12-2.31c-.35-.79-1.2-1.54-2-1.2s-.82,1.47-.58,2.3a8.28,8.28,0,0,0,1.27,2.58" transform="translate(25.38 -30.63)"/><path class="cls-13" d="M108.58,202.67a17.2,17.2,0,0,0,0,1.76,1.86,1.86,0,0,0,.85,1.47,1,1,0,0,0,1.41-.55c0-.22,0-.44,0-.65.08-.6.72-.95,1.31-1.08a3.76,3.76,0,0,0,1.69-.59,1.66,1.66,0,0,0,0-2.23,2.51,2.51,0,0,0-2.24-.74,2.92,2.92,0,0,0-2.57,3.09" transform="translate(25.38 -30.63)"/><path class="cls-13" d="M77.3,194.18a.79.79,0,0,0,.09,1.16,2.35,2.35,0,0,0,1.25.4l2.25.27a1.18,1.18,0,0,0,.7-.06,1,1,0,0,0,.42-.59c.59-1.7-.08-3.56-.89-5.17a.59.59,0,0,0-.24-.3c-.26-.13-.55.15-.69.41a3.74,3.74,0,0,0-.41,1.43,1.92,1.92,0,0,1-.24,1.07,1.77,1.77,0,0,1-1.24.45c-.45.07-1,.28-1,.72" transform="translate(25.38 -30.63)"/><path class="cls-13" d="M76.86,202.49c.09,1.48,1.08,2.72,1.9,3.95a20.49,20.49,0,0,1,2.53,5.35c.38,1.25.79,2.73,2,3.21a1.19,1.19,0,0,0,1.06,0,1.32,1.32,0,0,0,.48-.61,6.77,6.77,0,0,0,.37-2.8l0-5c0-2-.2-4.35-1.85-5.5a6.41,6.41,0,0,0-3.6-.78,5,5,0,0,0-2.17.3,1.68,1.68,0,0,0-1,1.76" transform="translate(25.38 -30.63)"/><path class="cls-13" d="M86.55,220.33a14.3,14.3,0,0,1,9.14-.21c.57.18,1.3.35,1.65-.12a1,1,0,0,0,.18-.49,2.59,2.59,0,0,0-.94-2.19,7.46,7.46,0,0,0-2.14-1.23c-1.1-.48-2.38-1-3.45-.41s-1.43,1.85-2.34,2.59-2,.87-2.66,1.74" transform="translate(25.38 -30.63)"/><path class="cls-13" d="M119.59,199a1.11,1.11,0,0,0-1.52.65,2.87,2.87,0,0,0,.12,1.87,18.61,18.61,0,0,0,.88,2.33c.25.54.82,1.16,1.3.82s.27-.78.22-1.22a4,4,0,0,1,1.5-3.59,2.05,2.05,0,0,0,.76-.73,1.72,1.72,0,0,0-.22-1.4,7.55,7.55,0,0,0-1.22-2,2.56,2.56,0,0,0-2.09-.9.94.94,0,0,0-.61.28,1.3,1.3,0,0,0-.18.68c0,1.1-.06,2.21,0,3.32" transform="translate(25.38 -30.63)"/><path class="cls-13" d="M-5.57,285.1c-.65,1.7-.24,3.6.18,5.36.13.55.34,1.18.87,1.35s1-.16,1.43-.29a2.15,2.15,0,0,1,2.56,1.57,3.66,3.66,0,0,0,.25,1.05c.4.7,1.43.61,2.19.33a2.91,2.91,0,0,0,1.59-1.15,3.36,3.36,0,0,0,.1-2.26l-.58-3a1.55,1.55,0,0,0-.4-.92,1.58,1.58,0,0,0-.73-.3,5.64,5.64,0,0,0-2.73-.16,7.47,7.47,0,0,1-1.57.48c-.55,0-1.18-.38-1.09-.92,0-.23.2-.43.2-.66s-.34-.59-.67-.69a3.62,3.62,0,0,1-1-.31" transform="translate(25.38 -30.63)"/><path class="cls-13" d="M12.07,281.66a1.08,1.08,0,0,0-.88-1.22,3.1,3.1,0,0,0-1.64.2,1.59,1.59,0,0,0-.64.31,1.46,1.46,0,0,0-.33.58,26.85,26.85,0,0,0-1,3.38,3.33,3.33,0,0,0,.15,2.6,4.51,4.51,0,0,0,2.45,1.31,8.4,8.4,0,0,1,2.73,1.55c.23.19.5.41.79.35s.47-.45.52-.79a4,4,0,0,0-.71-2.89,11.5,11.5,0,0,1-1.6-2c-.5-1.15,0-2.47.42-3.63" transform="translate(25.38 -30.63)"/><path class="cls-13" d="M-6.49,306c-1.29.12-2.2,1.25-3.1,2.18a14.18,14.18,0,0,1-5.51,3.5c-.06.33.42.46.75.43a13,13,0,0,0,4-1,2.83,2.83,0,0,1,1.88-.37c.83.26,1.16,1.26,1.85,1.79a3.81,3.81,0,0,0,3,.25,3.88,3.88,0,0,0,2.44-1.14c.76-1,.39-2.43-.11-3.59-.2-.49-.49-1-1-1.15a5.07,5.07,0,0,0-1,0c-1.08,0-2-1.25-3-.88" transform="translate(25.38 -30.63)"/><path class="cls-13" d="M2.53,300a5.44,5.44,0,0,0-2,1.83c-.3.44-.52,1.06-.18,1.47a1.31,1.31,0,0,0,1.22.28c1-.13,1.87-.44,2.83-.52a3.08,3.08,0,0,1,2.61.88c.23.27.4.61.71.76.55.25,1.16-.22,1.49-.72a4.59,4.59,0,0,0,.51-4,1.31,1.31,0,0,0-.34-.55,1.07,1.07,0,0,0-.7-.2,8.31,8.31,0,0,0-2.92,1.06c-1,.4-2.31.4-2.8-.52" transform="translate(25.38 -30.63)"/><path class="cls-13" d="M-12,289.51a5.87,5.87,0,0,0-5.66,2.28,3.57,3.57,0,0,1-.68.81,8.79,8.79,0,0,1-.81.41,2.07,2.07,0,0,0-.19,3.33c.28.2.61.33.9.53a3,3,0,0,1,1,2.21c0,.72.09,1.62.76,1.91a1.14,1.14,0,0,0,1.23-.29,3,3,0,0,0,.68-1.16,15.46,15.46,0,0,0,.88-3.56,5.77,5.77,0,0,1,.93-3.19,9.65,9.65,0,0,1,1.25-1A1.86,1.86,0,0,0-11,290.4c0-.54-.56-1.07-1.07-.88" transform="translate(25.38 -30.63)"/><path class="cls-13" d="M23.68,276A5.85,5.85,0,0,0,18,278.26a3.74,3.74,0,0,1-.68.8,6.84,6.84,0,0,1-.81.41,2.07,2.07,0,0,0-.19,3.33c.28.2.61.33.89.54a3,3,0,0,1,1,2.2c.05.73.09,1.62.76,1.92a1.17,1.17,0,0,0,1.23-.3,3,3,0,0,0,.68-1.15,15.67,15.67,0,0,0,.88-3.57,5.77,5.77,0,0,1,.93-3.19,10.54,10.54,0,0,1,1.25-1,1.84,1.84,0,0,0,.77-1.36c0-.54-.56-1.07-1.07-.88" transform="translate(25.38 -30.63)"/><path class="cls-13" d="M53.06,286a2.65,2.65,0,0,1-.35,2.9,5.82,5.82,0,0,1-2.55,1.71,6,6,0,0,0-2.9,1.71,5.07,5.07,0,0,0-.53,3.34l.12,1.68a1,1,0,0,0,.23.67.8.8,0,0,0,.55.16,4.35,4.35,0,0,0,3.77-2c.56-.89.81-2,1.6-2.69.45-.38,1-.59,1.47-1,1.2-1,1.07-2.9.83-4.47l-.25-1.69a2.21,2.21,0,0,0-.63-1.5c-.44-.33-1.28-.1-1.24.46" transform="translate(25.38 -30.63)"/><path class="cls-13" d="M61.7,291.52a6.28,6.28,0,0,1-2.09,1.12,4.68,4.68,0,0,0-2.46,2.89c-.28,1-.09,2.25.84,2.62a2.7,2.7,0,0,0,2.33-.65,5.62,5.62,0,0,0,1.16-.94,5.49,5.49,0,0,0,.69-1.1l1-1.93a2.46,2.46,0,0,0,.42-1.74c-.15-.6-1-1-1.4-.48" transform="translate(25.38 -30.63)"/><path class="cls-13" d="M41.4,269.46c-.17.26-.57.18-.82,0-1.1-.74-1.29-2.52-2.53-3a3.17,3.17,0,0,0-1.15-.1c-2.36.09-4.71.23-7.06.4-.77.06-1.75.32-1.82,1.09-.06.6.53,1.05,1.05,1.37a46.58,46.58,0,0,0,5.9,3,5.55,5.55,0,0,1,1.4.75c.47.38.8.92,1.33,1.19a2.2,2.2,0,0,0,2-.18,3.61,3.61,0,0,0,1.46-4.49" transform="translate(25.38 -30.63)"/><path class="cls-13" d="M48.5,264.49l-1.36,1a3.14,3.14,0,0,0-.93.92,1.06,1.06,0,0,0,.09,1.23,1.32,1.32,0,0,0,1,.28A4.3,4.3,0,0,0,51,265.4a1.78,1.78,0,0,0,.11-1.39,1.39,1.39,0,0,0-1.61-.66,2.44,2.44,0,0,0-1.38,1.21" transform="translate(25.38 -30.63)"/><path class="cls-13" d="M50.83,272.62a4.71,4.71,0,0,0-3.44.37,3.12,3.12,0,0,0-1.59,2.94,3.16,3.16,0,0,1,.1,1.29c-.26.89-1.58,1.09-1.87,2s.5,1.55,1.29,1.66a3.89,3.89,0,0,0,2.26-.66c.82-.44,1.62-.9,2.4-1.39a5.82,5.82,0,0,0,1.69-1.39,6.23,6.23,0,0,0,.81-3.63,2.57,2.57,0,0,0-.31-1.58c-.31-.45-1.07-.62-1.39-.18" transform="translate(25.38 -30.63)"/><path class="cls-13" d="M22.58,292.38c-.38.86-1.49,1-2.43,1.15s-2,.45-2.24,1.37a1.76,1.76,0,0,0,.22,1.14,3.09,3.09,0,0,0,1.66,1.44,2.81,2.81,0,0,1,1.28.6c.41.48.28,1.26.69,1.74s1.61.28,2-.41a3.9,3.9,0,0,0,.28-2.35,3.8,3.8,0,0,1,.3-2.34c.46-.73,1.34-1,2.05-1.54s1.29-1.48.8-2.19-1.6-.52-2.37-.12a8.43,8.43,0,0,0-2.29,1.73" transform="translate(25.38 -30.63)"/><path class="cls-13" d="M32,282.12c-.57.13-1.17.15-1.73.33A1.86,1.86,0,0,0,29,283.56a1,1,0,0,0,.81,1.29c.22,0,.43-.1.65-.11.6,0,1.06.53,1.31,1.08a3.61,3.61,0,0,0,.9,1.54,1.64,1.64,0,0,0,2.19-.38,2.52,2.52,0,0,0,.3-2.34,2.91,2.91,0,0,0-3.53-1.93" transform="translate(25.38 -30.63)"/><path class="cls-13" d="M45,286.4a2.1,2.1,0,0,0-2.1.91c-.17.27-.23.72-.47.88s-.7.2-1,.4a1.19,1.19,0,0,0-.56,1,.79.79,0,0,0,.25.56,1.21,1.21,0,0,0,.7.26,2.79,2.79,0,0,0,3.09-3.33.44.44,0,0,0-.53-.3.44.44,0,0,0-.3.53,1.93,1.93,0,0,1-1.89,2.26,1.24,1.24,0,0,1-.39,0l-.12,0h0l0,.06v0c0,.05,0,.05,0,0s-.06.1,0,0,0-.08,0,0l.06-.09.06-.07c.1-.09,0,0,0,0a.42.42,0,0,1,.13-.07,3.67,3.67,0,0,0,.92-.36,1.82,1.82,0,0,0,.58-.88,1.14,1.14,0,0,1,.51-.61,1.09,1.09,0,0,1,.4-.16,1.39,1.39,0,0,1,.35,0,.45.45,0,0,0,.53-.3.43.43,0,0,0-.3-.53Z" transform="translate(25.38 -30.63)"/><path class="cls-13" d="M36.67,293.22a25.71,25.71,0,0,0-7.45,2.33,2.12,2.12,0,0,0-1.73,2.68,5.64,5.64,0,0,0,.89,2.92,1.94,1.94,0,0,0,2.7.48,6.1,6.1,0,0,0,.58-.76c1.22-1.64,3.73-1.66,5.21-3.06a3.72,3.72,0,0,0,.42-4.76" transform="translate(25.38 -30.63)"/><path class="cls-13" d="M43.4,299.5a10.66,10.66,0,0,0-3.16,1.35,1.29,1.29,0,0,1-.66.28c-.62,0-1.08-.84-1.68-.68s-.54.9-.43,1.45c.16.78.44,1.7,1.2,2a1.67,1.67,0,0,0,.86,0,6.57,6.57,0,0,0,2.93-1.73,3.85,3.85,0,0,0,1-1.15,1.25,1.25,0,0,0-.19-1.43" transform="translate(25.38 -30.63)"/><path class="cls-13" d="M17.35,301.15a.79.79,0,0,0-1.12.32,2.28,2.28,0,0,0-.16,1.3l.17,2.26a1.17,1.17,0,0,0,.19.67,1.07,1.07,0,0,0,.67.3c1.77.26,3.47-.75,4.89-1.85a.56.56,0,0,0,.25-.3c.08-.29-.25-.51-.53-.6a3.91,3.91,0,0,0-1.48-.13,2,2,0,0,1-1.1,0c-.4-.21-.53-.71-.68-1.13s-.46-.91-.91-.89" transform="translate(25.38 -30.63)"/><path class="cls-13" d="M74.7,288.13c-.36.4-1,.29-1.53.4-.9.21-1.44,1.1-2.16,1.69s-1.5.82-2.16,1.36a1.85,1.85,0,0,0-.71,2.23c.5.84,1.72.76,2.68.58l4-.77a2.72,2.72,0,0,0,1.52-.65,2.68,2.68,0,0,0,.39-2.07,5.78,5.78,0,0,0-.37-1.9A2.09,2.09,0,0,0,75,287.72" transform="translate(25.38 -30.63)"/><path class="cls-13" d="M70.19,304.21a1.45,1.45,0,0,0-.29-1.78,3,3,0,0,0-1.79-.69,6.57,6.57,0,0,0-6.33,3.45A1,1,0,0,0,63,306.78c2.15-.51,4-2.1,6.25-2" transform="translate(25.38 -30.63)"/><path class="cls-13" d="M54,300.67c-.89-.33-1.81.35-2.51,1l-1.69,1.52c-.43.39-.9,1-.59,1.49s.85.37,1.33.3l4.3-.71a1.81,1.81,0,0,0,1-.35c.58-.55.2-1.52-.22-2.2s-.78-1.2-1.44-1.28" transform="translate(25.38 -30.63)"/><path class="cls-13" d="M29,311.21a1.41,1.41,0,0,0,.12-2,2.28,2.28,0,0,0-2.13-.57,6.86,6.86,0,0,0-2.1.95l-1.39.84c-.71.42-1.51,1-1.51,1.82s.93,1.48,1.8,1.66a5.14,5.14,0,0,0,5.16-2.05" transform="translate(25.38 -30.63)"/><path class="cls-13" d="M37.4,311.22a5.88,5.88,0,0,1-.37-2.3,2,2,0,0,1,1.34-1.74,2.75,2.75,0,0,1,1.21.06c1,.19,1.91.42,2.85.67.77.21,1.69.64,1.67,1.44s-1,1.18-1.79,1.35l-4.69,1" transform="translate(25.38 -30.63)"/><path class="cls-13" d="M70.08,234.67a2.7,2.7,0,0,1-.35,2.91,5.94,5.94,0,0,1-2.56,1.71,6,6,0,0,0-2.9,1.71,5,5,0,0,0-.53,3.33l.12,1.69a1,1,0,0,0,.23.66.9.9,0,0,0,.55.17,4.38,4.38,0,0,0,3.78-2c.55-.89.8-2,1.59-2.7.45-.38,1-.59,1.47-1,1.2-1,1.07-2.9.84-4.47L72.06,235a2.19,2.19,0,0,0-.63-1.49c-.44-.34-1.28-.1-1.24.45" transform="translate(25.38 -30.63)"/><path class="cls-13" d="M78.71,240.16a5.94,5.94,0,0,1-2.09,1.12,4.71,4.71,0,0,0-2.46,2.89c-.28,1-.09,2.25.85,2.62a2.64,2.64,0,0,0,2.32-.65,5.61,5.61,0,0,0,1.17-.94,6.56,6.56,0,0,0,.69-1.1l1-1.92a2.56,2.56,0,0,0,.43-1.75c-.16-.59-1-1-1.4-.48" transform="translate(25.38 -30.63)"/><path class="cls-13" d="M39.6,241c-.39.85-1.5,1-2.43,1.14s-2.06.46-2.25,1.38a1.73,1.73,0,0,0,.22,1.13,3.07,3.07,0,0,0,1.67,1.44,2.79,2.79,0,0,1,1.27.61c.41.47.28,1.25.69,1.73s1.61.28,2-.41a3.86,3.86,0,0,0,.28-2.34,3.79,3.79,0,0,1,.3-2.34c.46-.73,1.35-1.05,2.05-1.55s1.29-1.47.8-2.18-1.6-.52-2.37-.13a8.22,8.22,0,0,0-2.28,1.74" transform="translate(25.38 -30.63)"/><path class="cls-13" d="M49,230.76c-.58.13-1.17.16-1.74.33A1.84,1.84,0,0,0,46,232.21a1,1,0,0,0,.81,1.28c.21,0,.42-.09.64-.11.6,0,1.06.53,1.31,1.08a3.66,3.66,0,0,0,.9,1.54,1.65,1.65,0,0,0,2.19-.37,2.54,2.54,0,0,0,.3-2.35,2.91,2.91,0,0,0-3.53-1.93" transform="translate(25.38 -30.63)"/><path class="cls-13" d="M62,235a2.12,2.12,0,0,0-2.11.91c-.17.27-.23.73-.47.88s-.7.2-1,.41a1.2,1.2,0,0,0-.57,1,.78.78,0,0,0,.26.57,1.21,1.21,0,0,0,.69.25,2.8,2.8,0,0,0,2.26-.73,2.88,2.88,0,0,0,.83-2.59.43.43,0,0,0-.83.22,2,2,0,0,1-.4,1.55,2,2,0,0,1-1.49.72,2.47,2.47,0,0,1-.39,0l-.12,0h0l0,.06v0c0,.05,0,.05,0,0s0,.11,0,0,0-.08,0,0,.08-.13.05-.09l.06-.07c.1-.09,0,0,0,0l.13-.07a3.69,3.69,0,0,0,.92-.37,1.71,1.71,0,0,0,.58-.88,1.23,1.23,0,0,1,.51-.61,1.07,1.07,0,0,1,.4-.15,1.48,1.48,0,0,1,.36,0A.43.43,0,0,0,62,235Z" transform="translate(25.38 -30.63)"/><path class="cls-13" d="M53.69,241.86a26.2,26.2,0,0,0-7.46,2.34,2.79,2.79,0,0,0-1.64,1.27,2.69,2.69,0,0,0-.08,1.41,5.62,5.62,0,0,0,.88,2.91,1.94,1.94,0,0,0,2.7.48,5.27,5.27,0,0,0,.58-.76c1.22-1.63,3.73-1.66,5.22-3a3.73,3.73,0,0,0,.42-4.77" transform="translate(25.38 -30.63)"/><path class="cls-13" d="M60.41,248.15a10.51,10.51,0,0,0-3.16,1.35,1.38,1.38,0,0,1-.66.28c-.62,0-1.07-.84-1.68-.68s-.54.89-.43,1.44c.17.78.44,1.7,1.2,2a1.67,1.67,0,0,0,.86,0,6.78,6.78,0,0,0,2.94-1.74,3.59,3.59,0,0,0,1-1.15,1.25,1.25,0,0,0-.18-1.43" transform="translate(25.38 -30.63)"/><path class="cls-13" d="M34.36,249.79a.8.8,0,0,0-1.12.32,2.29,2.29,0,0,0-.15,1.3l.16,2.26a1.23,1.23,0,0,0,.2.68,1,1,0,0,0,.66.29c1.77.26,3.48-.75,4.89-1.85a.56.56,0,0,0,.25-.3c.08-.28-.25-.51-.53-.59a3.53,3.53,0,0,0-1.48-.13,2,2,0,0,1-1.1,0c-.4-.2-.53-.7-.68-1.13s-.45-.9-.91-.88" transform="translate(25.38 -30.63)"/><path class="cls-13" d="M91.71,236.77c-.36.41-1,.29-1.53.41-.9.2-1.44,1.1-2.16,1.68s-1.5.83-2.16,1.36a1.85,1.85,0,0,0-.71,2.23c.5.84,1.72.77,2.68.58l4-.77a2.69,2.69,0,0,0,1.51-.65,2.63,2.63,0,0,0,.39-2.07,6.15,6.15,0,0,0-.36-1.9A2.15,2.15,0,0,0,92,236.36" transform="translate(25.38 -30.63)"/><path class="cls-13" d="M87.2,252.85a1.43,1.43,0,0,0-.29-1.77,2.89,2.89,0,0,0-1.79-.7,6.61,6.61,0,0,0-6.33,3.45A1,1,0,0,0,80,255.42c2.14-.5,4-2.09,6.24-2" transform="translate(25.38 -30.63)"/><path class="cls-13" d="M71,249.32c-.89-.33-1.8.35-2.51,1l-1.69,1.51c-.43.39-.9,1-.59,1.49s.85.38,1.33.3l4.3-.7a1.79,1.79,0,0,0,1-.36c.58-.55.2-1.51-.22-2.2s-.78-1.19-1.44-1.28" transform="translate(25.38 -30.63)"/><path class="cls-13" d="M64.25,263.39a2.67,2.67,0,0,1-.35,2.91A6,6,0,0,1,61.35,268a6.08,6.08,0,0,0-2.91,1.71,5,5,0,0,0-.52,3.33l.12,1.69a.9.9,0,0,0,.22.66.85.85,0,0,0,.56.17,4.37,4.37,0,0,0,3.77-2c.56-.89.8-2,1.6-2.69.44-.39,1-.6,1.47-1,1.2-1,1.06-2.9.83-4.47l-.25-1.69a2.2,2.2,0,0,0-.64-1.49c-.44-.34-1.28-.1-1.24.45" transform="translate(25.38 -30.63)"/><path class="cls-13" d="M72.89,268.88a6.07,6.07,0,0,1-2.1,1.12,4.7,4.7,0,0,0-2.45,2.89c-.29,1-.1,2.25.84,2.62a2.66,2.66,0,0,0,2.33-.65,5.83,5.83,0,0,0,1.16-.94,6,6,0,0,0,.69-1.1l1-1.92a2.55,2.55,0,0,0,.42-1.75c-.16-.59-1-1-1.4-.48" transform="translate(25.38 -30.63)"/><path class="cls-13" d="M85.88,265.49c-.35.41-1,.29-1.52.41-.91.2-1.45,1.1-2.16,1.68s-1.5.83-2.17,1.36a1.86,1.86,0,0,0-.7,2.24c.49.83,1.71.76,2.67.57l4-.77a2.65,2.65,0,0,0,1.52-.65,2.72,2.72,0,0,0,.39-2.07,6.47,6.47,0,0,0-.37-1.9,2.09,2.09,0,0,0-1.37-1.27" transform="translate(25.38 -30.63)"/><path class="cls-13" d="M81.38,281.57a1.43,1.43,0,0,0-.3-1.77,2.89,2.89,0,0,0-1.79-.7A6.61,6.61,0,0,0,73,282.55a1.32,1.32,0,0,0-.08,1.36,1.3,1.3,0,0,0,1.31.23c2.15-.5,4-2.09,6.24-2" transform="translate(25.38 -30.63)"/><path class="cls-13" d="M4.15,237.7c-.36.41-1,.29-1.53.41-.9.2-1.44,1.1-2.16,1.68s-1.5.83-2.16,1.36a1.86,1.86,0,0,0-.71,2.24c.5.84,1.72.76,2.68.57l4-.77a2.59,2.59,0,0,0,1.52-.65,2.67,2.67,0,0,0,.39-2.07,6.16,6.16,0,0,0-.37-1.9A2.07,2.07,0,0,0,4.4,237.3" transform="translate(25.38 -30.63)"/><path class="cls-13" d="M15.46,232.68a1.46,1.46,0,0,0-.29-1.78,3,3,0,0,0-1.8-.69,6.56,6.56,0,0,0-6.32,3.45A1.28,1.28,0,0,0,7,235a1.28,1.28,0,0,0,1.3.24c2.15-.51,4-2.1,6.25-2" transform="translate(25.38 -30.63)"/><path class="cls-13" d="M65.15,278c-.88-.33-1.8.35-2.5,1L61,280.53c-.44.39-.91,1-.59,1.49s.85.38,1.32.3l4.31-.7a1.76,1.76,0,0,0,1-.36c.59-.55.2-1.51-.21-2.2s-.78-1.19-1.44-1.28" transform="translate(25.38 -30.63)"/><path class="cls-13" d="M46,259.85a1.41,1.41,0,0,0,.12-2,2.3,2.3,0,0,0-2.14-.57,6.68,6.68,0,0,0-2.09.95l-1.4.83c-.71.43-1.51,1-1.51,1.83s.93,1.48,1.8,1.66a5.16,5.16,0,0,0,5.16-2.06" transform="translate(25.38 -30.63)"/><path class="cls-13" d="M54.41,259.86a5.69,5.69,0,0,1-.36-2.3,2,2,0,0,1,1.34-1.74,2.87,2.87,0,0,1,1.2.06c1,.2,1.91.42,2.85.68.77.2,1.69.64,1.67,1.43s-1,1.18-1.78,1.35l-4.7,1" transform="translate(25.38 -30.63)"/><path class="cls-13" d="M9.4,317.35,8.53,313a1.6,1.6,0,0,0-.25-.67,1.37,1.37,0,0,0-.77-.4,7.8,7.8,0,0,0-1.6-.22.77.77,0,0,0-.54.13.7.7,0,0,0-.18.44,12.16,12.16,0,0,0,.23,3.94,2.93,2.93,0,0,0,1.06,2.15c.93.54,2.12-.12,2.75-1" transform="translate(25.38 -30.63)"/><path class="cls-13" d="M26.12,251c-1.44.38-2.46,1.58-3.51,2.62a20.26,20.26,0,0,1-4.77,3.51c-1.16.61-2.53,1.3-2.76,2.58a1.2,1.2,0,0,0,.23,1,1.36,1.36,0,0,0,.7.34,6.7,6.7,0,0,0,2.81-.17l4.9-1c2-.4,4.23-1,5-2.87a6.39,6.39,0,0,0,.07-3.68,5,5,0,0,0-.7-2.08,1.69,1.69,0,0,0-1.93-.68" transform="translate(25.38 -30.63)"/><path class="cls-13" d="M22.59,231.52c-.38.86-1.49,1-2.43,1.15s-2.05.45-2.24,1.37a1.72,1.72,0,0,0,.22,1.13,3.11,3.11,0,0,0,1.66,1.45,2.81,2.81,0,0,1,1.28.6c.41.48.28,1.26.69,1.73s1.61.29,2-.4a3.9,3.9,0,0,0,.27-2.35,3.8,3.8,0,0,1,.31-2.34,6.47,6.47,0,0,1,2.05-1.54c.71-.5,1.29-1.48.79-2.19s-1.59-.52-2.36-.13a8.13,8.13,0,0,0-2.29,1.74" transform="translate(25.38 -30.63)"/><path class="cls-13" d="M36.68,232.36a25.71,25.71,0,0,0-7.45,2.33A2.88,2.88,0,0,0,27.58,236a2.92,2.92,0,0,0-.08,1.41,5.63,5.63,0,0,0,.89,2.91,1.94,1.94,0,0,0,2.7.48,4.91,4.91,0,0,0,.58-.76c1.21-1.63,3.73-1.66,5.21-3.05a3.72,3.72,0,0,0,.42-4.76" transform="translate(25.38 -30.63)"/><path class="cls-13" d="M23.35,244.29c-1.29-.71-2.87-.53-4.35-.5a20.13,20.13,0,0,1-5.88-.72c-1.26-.35-2.72-.79-3.77,0a1.2,1.2,0,0,0-.54.92,1.34,1.34,0,0,0,.27.73,6.65,6.65,0,0,0,2.16,1.8l4.24,2.64c1.71,1.06,3.78,2.16,5.64,1.38a6.47,6.47,0,0,0,2.58-2.63,4.91,4.91,0,0,0,.91-2,1.67,1.67,0,0,0-.94-1.81" transform="translate(25.38 -30.63)"/><path class="cls-13" d="M10.47,263.87a14.36,14.36,0,0,1,1.94,8.94c-.06.59-.09,1.34.45,1.6a1,1,0,0,0,.51.08,2.62,2.62,0,0,0,2-1.34,7.89,7.89,0,0,0,.79-2.34c.26-1.17.49-2.52-.25-3.46s-2.09-1.05-3-1.8-1.24-1.83-2.21-2.28" transform="translate(25.38 -30.63)"/><path class="cls-13" d="M-12.17,258.51a5.88,5.88,0,0,0-5.66,2.28,3.33,3.33,0,0,1-.68.81,6.82,6.82,0,0,1-.81.41,2.08,2.08,0,0,0-.19,3.33c.28.2.62.33.9.53a3,3,0,0,1,1,2.21c.06.72.1,1.62.76,1.91a1.18,1.18,0,0,0,1.24-.29,3.13,3.13,0,0,0,.67-1.16,15.46,15.46,0,0,0,.88-3.56,5.77,5.77,0,0,1,.93-3.19,11.21,11.21,0,0,1,1.25-1,1.86,1.86,0,0,0,.77-1.36c0-.54-.56-1.07-1.06-.88" transform="translate(25.38 -30.63)"/><path class="cls-13" d="M5.55,252c-.17.25-.56.17-.82,0-1.09-.74-1.28-2.51-2.53-3a3,3,0,0,0-1.15-.1c-2.35.09-4.71.22-7.06.4-.77,0-1.75.31-1.82,1.08,0,.61.53,1.06,1,1.37a48.14,48.14,0,0,0,5.91,3,5.52,5.52,0,0,1,1.4.74c.46.38.79.93,1.33,1.19a2.2,2.2,0,0,0,2-.17,3.6,3.6,0,0,0,1.45-4.49" transform="translate(25.38 -30.63)"/><path class="cls-13" d="M-13.26,274.92c-.39.86-1.5,1-2.43,1.15s-2.06.45-2.25,1.37a1.72,1.72,0,0,0,.22,1.13A3.13,3.13,0,0,0-16,280a2.71,2.71,0,0,1,1.28.6c.4.48.27,1.26.68,1.73s1.61.29,2-.4a3.9,3.9,0,0,0,.28-2.35,3.73,3.73,0,0,1,.31-2.34,6.47,6.47,0,0,1,2.05-1.54c.7-.5,1.28-1.48.79-2.19s-1.6-.52-2.37-.13a8.22,8.22,0,0,0-2.28,1.74" transform="translate(25.38 -30.63)"/><path class="cls-13" d="M-3.83,264.65c-.58.13-1.17.16-1.73.34a1.8,1.8,0,0,0-1.28,1.11A1,1,0,0,0-6,267.38c.22,0,.42-.09.64-.11.6,0,1.06.53,1.31,1.08a3.75,3.75,0,0,0,.9,1.55A1.65,1.65,0,0,0-1,269.52a2.55,2.55,0,0,0,.31-2.34,2.92,2.92,0,0,0-3.54-1.94" transform="translate(25.38 -30.63)"/><path class="cls-13" d="M-1.48,232.33a.79.79,0,0,0-1.12.32,2.28,2.28,0,0,0-.16,1.3l.17,2.26a1.19,1.19,0,0,0,.19.67,1.06,1.06,0,0,0,.66.3c1.78.26,3.48-.76,4.9-1.86a.7.7,0,0,0,.25-.29c.08-.29-.25-.51-.54-.6a3.65,3.65,0,0,0-1.47-.13,2,2,0,0,1-1.1,0c-.41-.21-.54-.71-.68-1.13s-.46-.91-.91-.89" transform="translate(25.38 -30.63)"/><path class="cls-13" d="M-9.73,233.49c-1.43.37-2.46,1.58-3.51,2.62A20.55,20.55,0,0,1-18,239.62c-1.16.61-2.52,1.29-2.76,2.58a1.17,1.17,0,0,0,.23,1,1.37,1.37,0,0,0,.7.35,6.69,6.69,0,0,0,2.81-.17l4.9-1c2-.4,4.23-1,5-2.86A6.31,6.31,0,0,0-7,235.87a4.86,4.86,0,0,0-.71-2.08,1.67,1.67,0,0,0-1.93-.68" transform="translate(25.38 -30.63)"/><path class="cls-13" d="M-25.38,246.41a14.35,14.35,0,0,1,1.95,8.94c-.07.59-.09,1.33.44,1.6a1.12,1.12,0,0,0,.51.08,2.62,2.62,0,0,0,2-1.34,7.63,7.63,0,0,0,.8-2.34c.26-1.17.48-2.52-.26-3.46s-2.09-1.06-3-1.81-1.24-1.83-2.21-2.27" transform="translate(25.38 -30.63)"/><path class="cls-13" d="M1.85,274.77c.25-.58-.3-1.26-.93-1.37a2.89,2.89,0,0,0-1.81.47A22.05,22.05,0,0,0-3,275.19c-.48.34-1,1-.56,1.43s.83.12,1.24,0a4,4,0,0,1,3.82.79,2.23,2.23,0,0,0,.86.61,1.72,1.72,0,0,0,1.33-.49,7.46,7.46,0,0,0,1.73-1.58,2.56,2.56,0,0,0,.48-2.22.87.87,0,0,0-.39-.54,1.08,1.08,0,0,0-.69-.05q-1.65.22-3.27.6" transform="translate(25.38 -30.63)"/><path class="cls-13" d="M117,285.1c-.64,1.7-.23,3.6.19,5.36.13.55.33,1.18.87,1.35s1-.16,1.43-.29a2.15,2.15,0,0,1,2.56,1.57,3.36,3.36,0,0,0,.25,1.05c.4.7,1.43.61,2.19.33a2.91,2.91,0,0,0,1.59-1.15,3.3,3.3,0,0,0,.09-2.26l-.57-3a1.61,1.61,0,0,0-.4-.92,1.58,1.58,0,0,0-.73-.3,5.64,5.64,0,0,0-2.73-.16,7.47,7.47,0,0,1-1.57.48c-.55,0-1.18-.38-1.09-.92,0-.23.2-.43.2-.66s-.34-.59-.67-.69a3.62,3.62,0,0,1-1-.31" transform="translate(25.38 -30.63)"/><path class="cls-13" d="M134.61,281.66a1.09,1.09,0,0,0-.88-1.22,3.1,3.1,0,0,0-1.64.2,1.7,1.7,0,0,0-.65.31,1.57,1.57,0,0,0-.32.58,26.85,26.85,0,0,0-1,3.38,3.29,3.29,0,0,0,.15,2.6,4.51,4.51,0,0,0,2.45,1.31,8.51,8.51,0,0,1,2.73,1.55c.23.19.5.41.79.35s.47-.45.52-.79A4,4,0,0,0,136,287a11.5,11.5,0,0,1-1.6-2c-.51-1.15,0-2.47.42-3.63" transform="translate(25.38 -30.63)"/><path class="cls-13" d="M116.05,306c-1.29.12-2.2,1.25-3.1,2.18a14.18,14.18,0,0,1-5.51,3.5c-.06.33.42.46.75.43a13,13,0,0,0,4-1,2.82,2.82,0,0,1,1.88-.37c.83.26,1.16,1.26,1.85,1.79a3.81,3.81,0,0,0,3,.25,3.88,3.88,0,0,0,2.44-1.14c.76-1,.39-2.43-.11-3.59-.2-.49-.49-1-1-1.15a5.07,5.07,0,0,0-1,0c-1.09,0-2-1.25-3-.88" transform="translate(25.38 -30.63)"/><path class="cls-13" d="M125.06,300a5.49,5.49,0,0,0-2,1.83c-.3.44-.52,1.06-.19,1.47a1.33,1.33,0,0,0,1.23.28c1-.13,1.87-.44,2.83-.52a3.08,3.08,0,0,1,2.61.88c.23.27.4.61.71.76.55.25,1.16-.22,1.49-.72a4.56,4.56,0,0,0,.5-4,1.2,1.2,0,0,0-.33-.55,1.07,1.07,0,0,0-.7-.2,8.24,8.24,0,0,0-2.92,1.06c-1,.4-2.31.4-2.8-.52" transform="translate(25.38 -30.63)"/><path class="cls-13" d="M110.48,289.51a5.86,5.86,0,0,0-5.65,2.28,3.57,3.57,0,0,1-.68.81,8.79,8.79,0,0,1-.81.41,2.07,2.07,0,0,0-.19,3.33c.28.2.61.33.89.53a3,3,0,0,1,1,2.21c0,.72.09,1.62.76,1.91a1.14,1.14,0,0,0,1.23-.29,2.88,2.88,0,0,0,.67-1.16,15,15,0,0,0,.89-3.56,5.77,5.77,0,0,1,.93-3.19,10.27,10.27,0,0,1,1.24-1,1.84,1.84,0,0,0,.78-1.36c0-.54-.56-1.07-1.07-.88" transform="translate(25.38 -30.63)"/><path class="cls-13" d="M146.21,276a5.84,5.84,0,0,0-5.65,2.28,3.74,3.74,0,0,1-.68.8,6.84,6.84,0,0,1-.81.41,2.07,2.07,0,0,0-.19,3.33c.28.2.61.33.89.54a2.93,2.93,0,0,1,1,2.2c.06.73.1,1.62.77,1.92a1.17,1.17,0,0,0,1.23-.3,2.84,2.84,0,0,0,.67-1.15,15.18,15.18,0,0,0,.89-3.57,5.77,5.77,0,0,1,.93-3.19,11.29,11.29,0,0,1,1.24-1,1.82,1.82,0,0,0,.78-1.36c0-.54-.56-1.07-1.07-.88" transform="translate(25.38 -30.63)"/><path class="cls-13" d="M175.6,286a2.65,2.65,0,0,1-.35,2.9,5.82,5.82,0,0,1-2.55,1.71,6,6,0,0,0-2.9,1.71,5.07,5.07,0,0,0-.53,3.34l.12,1.68a1,1,0,0,0,.22.67.84.84,0,0,0,.56.16,4.35,4.35,0,0,0,3.77-2c.56-.89.8-2,1.6-2.69.44-.38,1-.59,1.47-1,1.2-1,1.07-2.9.83-4.47l-.25-1.69a2.21,2.21,0,0,0-.63-1.5c-.44-.33-1.28-.1-1.24.46" transform="translate(25.38 -30.63)"/><path class="cls-13" d="M184.24,291.52a6.28,6.28,0,0,1-2.09,1.12,4.68,4.68,0,0,0-2.46,2.89c-.28,1-.1,2.25.84,2.62a2.7,2.7,0,0,0,2.33-.65,6.2,6.2,0,0,0,1.16-.94,5.49,5.49,0,0,0,.69-1.1l1-1.93a2.51,2.51,0,0,0,.42-1.74c-.16-.6-1-1-1.4-.48" transform="translate(25.38 -30.63)"/><path class="cls-13" d="M163.94,269.46c-.17.26-.57.18-.82,0-1.1-.74-1.29-2.52-2.53-3a3.19,3.19,0,0,0-1.15-.1c-2.36.09-4.71.23-7.06.4-.77.06-1.76.32-1.82,1.09-.06.6.53,1.05,1.05,1.37a46.58,46.58,0,0,0,5.9,3,5.55,5.55,0,0,1,1.4.75,8.28,8.28,0,0,0,1.33,1.19,2.2,2.2,0,0,0,2-.18,3.61,3.61,0,0,0,1.46-4.49" transform="translate(25.38 -30.63)"/><path class="cls-13" d="M171,264.49l-1.36,1a3.14,3.14,0,0,0-.93.92,1,1,0,0,0,.09,1.23,1.32,1.32,0,0,0,1,.28,4.27,4.27,0,0,0,3.75-2.52,1.7,1.7,0,0,0,.11-1.39,1.37,1.37,0,0,0-1.6-.66,2.44,2.44,0,0,0-1.38,1.21" transform="translate(25.38 -30.63)"/><path class="cls-13" d="M173.37,272.62a4.7,4.7,0,0,0-3.44.37,3.12,3.12,0,0,0-1.59,2.94,3.16,3.16,0,0,1,.1,1.29c-.26.89-1.58,1.09-1.87,2s.49,1.55,1.29,1.66a3.89,3.89,0,0,0,2.26-.66c.81-.44,1.61-.9,2.4-1.39a5.65,5.65,0,0,0,1.68-1.39,6.16,6.16,0,0,0,.82-3.63,2.64,2.64,0,0,0-.31-1.58c-.31-.45-1.07-.62-1.39-.18" transform="translate(25.38 -30.63)"/><path class="cls-13" d="M145.12,292.38c-.38.86-1.49,1-2.43,1.15s-2.05.45-2.24,1.37a1.76,1.76,0,0,0,.22,1.14,3.09,3.09,0,0,0,1.66,1.44,2.81,2.81,0,0,1,1.28.6c.41.48.28,1.26.69,1.74s1.61.28,2-.41a3.9,3.9,0,0,0,.27-2.35,3.74,3.74,0,0,1,.31-2.34c.46-.73,1.34-1,2-1.54s1.29-1.48.79-2.19-1.59-.52-2.36-.12a8.28,8.28,0,0,0-2.29,1.73" transform="translate(25.38 -30.63)"/><path class="cls-13" d="M154.55,282.12c-.57.13-1.17.15-1.73.33a1.86,1.86,0,0,0-1.28,1.11,1,1,0,0,0,.81,1.29c.22,0,.43-.1.64-.11.61,0,1.07.53,1.32,1.08a3.7,3.7,0,0,0,.89,1.54,1.65,1.65,0,0,0,2.2-.38,2.52,2.52,0,0,0,.3-2.34,2.91,2.91,0,0,0-3.53-1.93" transform="translate(25.38 -30.63)"/><path class="cls-13" d="M167.56,286.4a2.1,2.1,0,0,0-2.1.91c-.17.27-.23.72-.47.88s-.7.2-1,.4a1.19,1.19,0,0,0-.56,1,.75.75,0,0,0,.25.56,1.21,1.21,0,0,0,.7.26,2.79,2.79,0,0,0,3.09-3.33.44.44,0,0,0-.53-.3.44.44,0,0,0-.3.53,1.95,1.95,0,0,1-1.89,2.26,1.21,1.21,0,0,1-.39,0l-.12,0h0l0,.06v0c0,.05,0,.05,0,0s-.06.1,0,0,0-.08,0,0l.06-.09.06-.07c.1-.09,0,0,0,0l.14-.07a3.82,3.82,0,0,0,.92-.36,1.82,1.82,0,0,0,.58-.88,1.14,1.14,0,0,1,.51-.61,1.09,1.09,0,0,1,.4-.16,1.39,1.39,0,0,1,.35,0,.45.45,0,0,0,.53-.3.43.43,0,0,0-.3-.53Z" transform="translate(25.38 -30.63)"/><path class="cls-13" d="M159.21,293.22a25.71,25.71,0,0,0-7.45,2.33,2.12,2.12,0,0,0-1.73,2.68,5.64,5.64,0,0,0,.89,2.92,1.94,1.94,0,0,0,2.7.48,7.25,7.25,0,0,0,.58-.76c1.21-1.64,3.73-1.66,5.21-3.06a3.72,3.72,0,0,0,.42-4.76" transform="translate(25.38 -30.63)"/><path class="cls-13" d="M165.94,299.5a10.66,10.66,0,0,0-3.16,1.35,1.33,1.33,0,0,1-.66.28c-.62,0-1.08-.84-1.68-.68s-.54.9-.43,1.45c.16.78.44,1.7,1.2,2a1.67,1.67,0,0,0,.86,0,6.57,6.57,0,0,0,2.93-1.73,3.68,3.68,0,0,0,1-1.15,1.25,1.25,0,0,0-.18-1.43" transform="translate(25.38 -30.63)"/><path class="cls-13" d="M139.89,301.15a.79.79,0,0,0-1.12.32,2.28,2.28,0,0,0-.16,1.3l.17,2.26a1.17,1.17,0,0,0,.19.67,1.06,1.06,0,0,0,.66.3c1.78.26,3.48-.75,4.9-1.85a.67.67,0,0,0,.25-.3c.08-.29-.25-.51-.53-.6a3.91,3.91,0,0,0-1.48-.13,2,2,0,0,1-1.1,0c-.4-.21-.53-.71-.68-1.13s-.46-.91-.91-.89" transform="translate(25.38 -30.63)"/><path class="cls-13" d="M197.24,288.13c-.36.4-1,.29-1.53.4-.9.21-1.44,1.1-2.16,1.69s-1.5.82-2.17,1.36a1.86,1.86,0,0,0-.7,2.23c.5.84,1.72.76,2.67.58l4-.77a2.72,2.72,0,0,0,1.52-.65,2.68,2.68,0,0,0,.39-2.07,6.35,6.35,0,0,0-.37-1.9,2.09,2.09,0,0,0-1.36-1.28" transform="translate(25.38 -30.63)"/><path class="cls-13" d="M192.73,304.21a1.45,1.45,0,0,0-.3-1.78,2.94,2.94,0,0,0-1.79-.69,6.55,6.55,0,0,0-6.32,3.45,1,1,0,0,0,1.22,1.59c2.15-.51,4-2.1,6.24-2" transform="translate(25.38 -30.63)"/><path class="cls-13" d="M176.51,300.67c-.89-.33-1.81.35-2.51,1l-1.69,1.52c-.43.39-.9,1-.59,1.49s.85.37,1.33.3l4.3-.71a1.81,1.81,0,0,0,1-.35c.58-.55.19-1.52-.22-2.2s-.78-1.2-1.44-1.28" transform="translate(25.38 -30.63)"/><path class="cls-13" d="M151.49,311.21a1.41,1.41,0,0,0,.12-2,2.28,2.28,0,0,0-2.13-.57,6.86,6.86,0,0,0-2.1.95l-1.39.84c-.71.42-1.51,1-1.52,1.82s.94,1.48,1.81,1.66a5.14,5.14,0,0,0,5.16-2.05" transform="translate(25.38 -30.63)"/><path class="cls-13" d="M159.94,311.22a5.7,5.7,0,0,1-.37-2.3,2,2,0,0,1,1.34-1.74,2.75,2.75,0,0,1,1.21.06c.95.19,1.91.42,2.85.67.77.21,1.69.64,1.67,1.44s-1,1.18-1.79,1.35l-4.7,1" transform="translate(25.38 -30.63)"/><path class="cls-13" d="M192.61,234.67a2.68,2.68,0,0,1-.34,2.91,5.94,5.94,0,0,1-2.56,1.71,6,6,0,0,0-2.9,1.71,5,5,0,0,0-.53,3.33l.12,1.69a1,1,0,0,0,.23.66.88.88,0,0,0,.55.17,4.4,4.4,0,0,0,3.78-2c.55-.89.8-2,1.59-2.7.45-.38,1-.59,1.47-1,1.2-1,1.07-2.9.84-4.47L194.6,235a2.19,2.19,0,0,0-.63-1.49c-.44-.34-1.28-.1-1.24.45" transform="translate(25.38 -30.63)"/><path class="cls-13" d="M201.25,240.16a5.94,5.94,0,0,1-2.09,1.12,4.71,4.71,0,0,0-2.46,2.89c-.28,1-.09,2.25.84,2.62a2.66,2.66,0,0,0,2.33-.65,5.31,5.31,0,0,0,1.16-.94,6,6,0,0,0,.7-1.1l1-1.92a2.5,2.5,0,0,0,.42-1.75c-.15-.59-1-1-1.4-.48" transform="translate(25.38 -30.63)"/><path class="cls-13" d="M162.14,241c-.39.85-1.5,1-2.44,1.14s-2,.46-2.24,1.38a1.73,1.73,0,0,0,.22,1.13,3,3,0,0,0,1.66,1.44,2.83,2.83,0,0,1,1.28.61c.41.47.28,1.25.69,1.73s1.61.28,2-.41a3.86,3.86,0,0,0,.28-2.34,3.79,3.79,0,0,1,.3-2.34c.46-.73,1.35-1.05,2.05-1.55s1.29-1.47.8-2.18-1.6-.52-2.37-.13a8.08,8.08,0,0,0-2.28,1.74" transform="translate(25.38 -30.63)"/><path class="cls-13" d="M171.56,230.76c-.57.13-1.17.16-1.73.33a1.82,1.82,0,0,0-1.27,1.12,1,1,0,0,0,.81,1.28c.21,0,.42-.09.64-.11.6,0,1.06.53,1.31,1.08a3.66,3.66,0,0,0,.9,1.54,1.65,1.65,0,0,0,2.19-.37,2.54,2.54,0,0,0,.3-2.35,2.91,2.91,0,0,0-3.53-1.93" transform="translate(25.38 -30.63)"/><path class="cls-13" d="M184.57,235a2.1,2.1,0,0,0-2.1.91c-.17.27-.23.73-.47.88s-.7.2-1,.41a1.18,1.18,0,0,0-.57,1,.78.78,0,0,0,.26.57,1.21,1.21,0,0,0,.69.25,2.81,2.81,0,0,0,2.26-.73,2.88,2.88,0,0,0,.83-2.59.43.43,0,0,0-.83.22,2,2,0,0,1-.4,1.55,2,2,0,0,1-1.49.72,2.38,2.38,0,0,1-.39,0l-.12,0h0l0,.06v0c0,.05,0,.05,0,0s-.06.11,0,0,0-.08,0,0,.08-.13,0-.09l.06-.07c.1-.09,0,0,0,0a.42.42,0,0,1,.13-.07,3.69,3.69,0,0,0,.92-.37,1.77,1.77,0,0,0,.58-.88,1.18,1.18,0,0,1,.51-.61,1.07,1.07,0,0,1,.4-.15,1.48,1.48,0,0,1,.36,0,.43.43,0,0,0,.22-.83Z" transform="translate(25.38 -30.63)"/><path class="cls-13" d="M176.22,241.86a26.14,26.14,0,0,0-7.45,2.34,2.13,2.13,0,0,0-1.73,2.68,5.72,5.72,0,0,0,.89,2.91,1.94,1.94,0,0,0,2.7.48,5.27,5.27,0,0,0,.58-.76c1.22-1.63,3.73-1.66,5.22-3a3.74,3.74,0,0,0,.42-4.77" transform="translate(25.38 -30.63)"/><path class="cls-13" d="M183,248.15a10.51,10.51,0,0,0-3.16,1.35,1.38,1.38,0,0,1-.66.28c-.62,0-1.08-.84-1.68-.68s-.54.89-.43,1.44c.17.78.44,1.7,1.2,2a1.67,1.67,0,0,0,.86,0,6.78,6.78,0,0,0,2.94-1.74,3.59,3.59,0,0,0,1-1.15,1.25,1.25,0,0,0-.19-1.43" transform="translate(25.38 -30.63)"/><path class="cls-13" d="M156.9,249.79a.8.8,0,0,0-1.12.32,2.29,2.29,0,0,0-.15,1.3l.16,2.26a1.16,1.16,0,0,0,.2.68,1,1,0,0,0,.66.29c1.77.26,3.47-.75,4.89-1.85a.56.56,0,0,0,.25-.3c.08-.28-.25-.51-.53-.59a3.53,3.53,0,0,0-1.48-.13,2,2,0,0,1-1.1,0c-.4-.2-.53-.7-.68-1.13s-.45-.9-.91-.88" transform="translate(25.38 -30.63)"/><path class="cls-13" d="M214.25,236.77c-.36.41-1,.29-1.53.41-.9.2-1.44,1.1-2.16,1.68s-1.5.83-2.16,1.36a1.85,1.85,0,0,0-.71,2.23c.5.84,1.72.77,2.68.58l3.95-.77a2.72,2.72,0,0,0,1.52-.65,2.63,2.63,0,0,0,.39-2.07,5.88,5.88,0,0,0-.37-1.9,2.11,2.11,0,0,0-1.36-1.28" transform="translate(25.38 -30.63)"/><path class="cls-13" d="M209.74,252.85a1.43,1.43,0,0,0-.29-1.77,2.89,2.89,0,0,0-1.79-.7,6.61,6.61,0,0,0-6.33,3.45,1,1,0,0,0,1.23,1.59c2.14-.5,4-2.09,6.24-2" transform="translate(25.38 -30.63)"/><path class="cls-13" d="M193.52,249.32c-.89-.33-1.8.35-2.51,1l-1.69,1.51c-.43.39-.9,1-.59,1.49s.85.38,1.33.3l4.3-.7a1.79,1.79,0,0,0,1-.36c.58-.55.2-1.51-.22-2.2s-.78-1.19-1.44-1.28" transform="translate(25.38 -30.63)"/><path class="cls-13" d="M186.79,263.39a2.69,2.69,0,0,1-.35,2.91,6,6,0,0,1-2.55,1.71,6,6,0,0,0-2.91,1.71,5.09,5.09,0,0,0-.53,3.33l.13,1.69a.9.9,0,0,0,.22.66.85.85,0,0,0,.56.17,4.37,4.37,0,0,0,3.77-2c.56-.89.8-2,1.59-2.69.45-.39,1-.6,1.48-1,1.2-1,1.06-2.9.83-4.47l-.25-1.69a2.2,2.2,0,0,0-.64-1.49c-.44-.34-1.28-.1-1.24.45" transform="translate(25.38 -30.63)"/><path class="cls-13" d="M195.43,268.88a6.07,6.07,0,0,1-2.1,1.12,4.74,4.74,0,0,0-2.46,2.89c-.28,1-.09,2.25.85,2.62a2.66,2.66,0,0,0,2.33-.65,5.83,5.83,0,0,0,1.16-.94,6,6,0,0,0,.69-1.1l1-1.92a2.51,2.51,0,0,0,.43-1.75c-.16-.59-1-1-1.4-.48" transform="translate(25.38 -30.63)"/><path class="cls-13" d="M208.42,265.49c-.35.41-1,.29-1.52.41-.91.2-1.45,1.1-2.17,1.68s-1.49.83-2.16,1.36a1.86,1.86,0,0,0-.7,2.24c.49.83,1.71.76,2.67.57l4-.77a2.65,2.65,0,0,0,1.52-.65,2.72,2.72,0,0,0,.39-2.07,6.47,6.47,0,0,0-.37-1.9,2.09,2.09,0,0,0-1.37-1.27" transform="translate(25.38 -30.63)"/><path class="cls-13" d="M203.92,281.57a1.43,1.43,0,0,0-.3-1.77,2.89,2.89,0,0,0-1.79-.7,6.61,6.61,0,0,0-6.33,3.45,1,1,0,0,0,1.23,1.59c2.15-.5,4-2.09,6.24-2" transform="translate(25.38 -30.63)"/><path class="cls-13" d="M126.69,237.7c-.36.41-1,.29-1.53.41-.9.2-1.44,1.1-2.16,1.68s-1.5.83-2.17,1.36a1.87,1.87,0,0,0-.7,2.24c.5.84,1.72.76,2.67.57l4-.77a2.59,2.59,0,0,0,1.52-.65,2.67,2.67,0,0,0,.39-2.07,6.47,6.47,0,0,0-.37-1.9,2.07,2.07,0,0,0-1.36-1.27" transform="translate(25.38 -30.63)"/><path class="cls-13" d="M138,232.68a1.45,1.45,0,0,0-.3-1.78,2.94,2.94,0,0,0-1.79-.69,6.55,6.55,0,0,0-6.32,3.45,1,1,0,0,0,1.22,1.59c2.15-.51,4-2.1,6.24-2" transform="translate(25.38 -30.63)"/><path class="cls-13" d="M187.69,278c-.88-.33-1.8.35-2.51,1l-1.68,1.51c-.44.39-.91,1-.6,1.49s.86.38,1.33.3l4.31-.7a1.76,1.76,0,0,0,1-.36c.59-.55.2-1.51-.21-2.2s-.78-1.19-1.44-1.28" transform="translate(25.38 -30.63)"/><path class="cls-13" d="M168.5,259.85a1.41,1.41,0,0,0,.13-2,2.3,2.3,0,0,0-2.14-.57,6.73,6.73,0,0,0-2.1.95L163,259c-.71.43-1.51,1-1.51,1.83s.93,1.48,1.8,1.66a5.16,5.16,0,0,0,5.16-2.06" transform="translate(25.38 -30.63)"/><path class="cls-13" d="M177,259.86a5.69,5.69,0,0,1-.36-2.3,2,2,0,0,1,1.34-1.74,2.87,2.87,0,0,1,1.2.06c1,.2,1.91.42,2.85.68.77.2,1.69.64,1.67,1.43s-1,1.18-1.78,1.35l-4.7,1" transform="translate(25.38 -30.63)"/><path class="cls-13" d="M131.94,317.35l-.87-4.34a1.49,1.49,0,0,0-.26-.67,1.31,1.31,0,0,0-.76-.4,7.81,7.81,0,0,0-1.61-.22.76.76,0,0,0-.53.13.77.77,0,0,0-.19.44,12.16,12.16,0,0,0,.24,3.94,2.93,2.93,0,0,0,1.06,2.15c.92.54,2.12-.12,2.75-1" transform="translate(25.38 -30.63)"/><path class="cls-13" d="M148.65,251c-1.43.38-2.45,1.58-3.5,2.62a20.32,20.32,0,0,1-4.78,3.51c-1.15.61-2.52,1.3-2.75,2.58a1.2,1.2,0,0,0,.23,1,1.36,1.36,0,0,0,.7.34,6.7,6.7,0,0,0,2.81-.17l4.9-1c2-.4,4.23-1,5-2.87a6.39,6.39,0,0,0,.07-3.68,5,5,0,0,0-.7-2.08,1.69,1.69,0,0,0-1.93-.68" transform="translate(25.38 -30.63)"/><path class="cls-13" d="M145.13,231.52c-.38.86-1.5,1-2.43,1.15s-2,.45-2.24,1.37a1.66,1.66,0,0,0,.22,1.13,3.11,3.11,0,0,0,1.66,1.45,2.81,2.81,0,0,1,1.28.6c.41.48.28,1.26.69,1.73s1.6.29,2-.4a3.9,3.9,0,0,0,.28-2.35,3.73,3.73,0,0,1,.31-2.34,6.47,6.47,0,0,1,2.05-1.54c.71-.5,1.29-1.48.79-2.19s-1.59-.52-2.36-.13a8.13,8.13,0,0,0-2.29,1.74" transform="translate(25.38 -30.63)"/><path class="cls-13" d="M159.22,232.36a25.71,25.71,0,0,0-7.45,2.33,2.85,2.85,0,0,0-1.65,1.27,2.92,2.92,0,0,0-.08,1.41,5.63,5.63,0,0,0,.89,2.91,1.94,1.94,0,0,0,2.7.48,5.63,5.63,0,0,0,.58-.76c1.21-1.63,3.73-1.66,5.21-3.05a3.72,3.72,0,0,0,.42-4.76" transform="translate(25.38 -30.63)"/><path class="cls-13" d="M145.89,244.29c-1.3-.71-2.87-.53-4.35-.5a20.13,20.13,0,0,1-5.88-.72c-1.26-.35-2.72-.79-3.78,0a1.21,1.21,0,0,0-.53.92,1.26,1.26,0,0,0,.27.73,6.65,6.65,0,0,0,2.16,1.8l4.24,2.64c1.71,1.06,3.78,2.16,5.64,1.38a6.47,6.47,0,0,0,2.58-2.63,5,5,0,0,0,.91-2,1.67,1.67,0,0,0-.94-1.81" transform="translate(25.38 -30.63)"/><path class="cls-13" d="M133,263.87a14.3,14.3,0,0,1,1.95,8.94c-.06.59-.09,1.34.44,1.6a1,1,0,0,0,.51.08,2.62,2.62,0,0,0,2-1.34,7.89,7.89,0,0,0,.79-2.34c.26-1.17.49-2.52-.25-3.46s-2.09-1.05-3-1.8-1.24-1.83-2.21-2.28" transform="translate(25.38 -30.63)"/><path class="cls-13" d="M110.37,258.51a5.88,5.88,0,0,0-5.66,2.28,3.33,3.33,0,0,1-.68.81,6.82,6.82,0,0,1-.81.41,2.08,2.08,0,0,0-.19,3.33c.28.2.62.33.9.53a3,3,0,0,1,1,2.21c.06.72.1,1.62.76,1.91a1.18,1.18,0,0,0,1.24-.29,3.13,3.13,0,0,0,.67-1.16,15.46,15.46,0,0,0,.88-3.56,5.77,5.77,0,0,1,.93-3.19,10.37,10.37,0,0,1,1.25-1,1.86,1.86,0,0,0,.77-1.36c0-.54-.56-1.07-1.06-.88" transform="translate(25.38 -30.63)"/><path class="cls-13" d="M128.09,252c-.17.25-.57.17-.82,0-1.09-.74-1.29-2.51-2.53-3a3,3,0,0,0-1.15-.1c-2.35.09-4.71.22-7.06.4-.77,0-1.75.31-1.82,1.08-.06.61.53,1.06,1.05,1.37a48.14,48.14,0,0,0,5.91,3,5.52,5.52,0,0,1,1.4.74c.46.38.79.93,1.33,1.19a2.2,2.2,0,0,0,2-.17,3.61,3.61,0,0,0,1.45-4.49" transform="translate(25.38 -30.63)"/><path class="cls-13" d="M109.28,274.92c-.39.86-1.5,1-2.43,1.15s-2.06.45-2.25,1.37a1.72,1.72,0,0,0,.22,1.13,3.13,3.13,0,0,0,1.67,1.45,2.68,2.68,0,0,1,1.27.6c.41.48.28,1.26.69,1.73s1.61.29,2-.4a3.9,3.9,0,0,0,.28-2.35,3.73,3.73,0,0,1,.31-2.34c.45-.73,1.34-1.05,2-1.54s1.29-1.48.8-2.19-1.6-.52-2.37-.13a8.22,8.22,0,0,0-2.28,1.74" transform="translate(25.38 -30.63)"/><path class="cls-13" d="M118.71,264.65c-.58.13-1.17.16-1.74.34a1.8,1.8,0,0,0-1.27,1.11,1,1,0,0,0,.81,1.28c.21,0,.42-.09.64-.11.6,0,1.06.53,1.31,1.08a3.75,3.75,0,0,0,.9,1.55,1.65,1.65,0,0,0,2.19-.38,2.55,2.55,0,0,0,.31-2.34,2.92,2.92,0,0,0-3.54-1.94" transform="translate(25.38 -30.63)"/><path class="cls-13" d="M121.05,232.33a.78.78,0,0,0-1.11.32,2.28,2.28,0,0,0-.16,1.3l.17,2.26a1.12,1.12,0,0,0,.19.67,1.06,1.06,0,0,0,.66.3c1.78.26,3.48-.76,4.9-1.86A.7.7,0,0,0,126,235c.08-.29-.25-.51-.54-.6a3.65,3.65,0,0,0-1.47-.13,2,2,0,0,1-1.1,0c-.41-.21-.54-.71-.69-1.13s-.45-.91-.9-.89" transform="translate(25.38 -30.63)"/><path class="cls-13" d="M112.81,233.49c-1.43.37-2.46,1.58-3.51,2.62a20.55,20.55,0,0,1-4.77,3.51c-1.16.61-2.52,1.29-2.76,2.58a1.17,1.17,0,0,0,.23,1,1.37,1.37,0,0,0,.7.35,6.7,6.7,0,0,0,2.81-.17l4.9-1c2-.4,4.23-1,5-2.86a6.39,6.39,0,0,0,.08-3.68,5,5,0,0,0-.71-2.08,1.68,1.68,0,0,0-1.93-.68" transform="translate(25.38 -30.63)"/><path class="cls-13" d="M97.16,246.41a14.35,14.35,0,0,1,2,8.94c-.07.59-.09,1.33.44,1.6a1.08,1.08,0,0,0,.51.08,2.62,2.62,0,0,0,2-1.34,7.91,7.91,0,0,0,.8-2.34c.26-1.17.48-2.52-.26-3.46s-2.09-1.06-3-1.81-1.24-1.83-2.21-2.27" transform="translate(25.38 -30.63)"/><path class="cls-13" d="M124.39,274.77c.25-.58-.31-1.26-.93-1.37a2.89,2.89,0,0,0-1.81.47,22.05,22.05,0,0,0-2.12,1.32c-.48.34-1,1-.56,1.43s.83.12,1.24,0a3.94,3.94,0,0,1,3.81.79,2.26,2.26,0,0,0,.87.61,1.72,1.72,0,0,0,1.33-.49,7.66,7.66,0,0,0,1.73-1.58,2.56,2.56,0,0,0,.48-2.22.87.87,0,0,0-.39-.54,1.11,1.11,0,0,0-.7-.05c-1.09.15-2.18.35-3.26.6" transform="translate(25.38 -30.63)"/></g><path class="cls-14" d="M-1.64,205.46l1.24-2.19a36.87,36.87,0,0,0,4.68-14.92l.38-4.2a22,22,0,0,0,0-4.37l-1.05-9.24S1.61,116.7,12,109.85a4.68,4.68,0,0,1,3.83-1.58,4.57,4.57,0,0,1,3.91,3.64c.93,4,2.49,14.8,1.35,39.06a32,32,0,0,0,1.48,11.29c2.45,7.64,6.58,21.46,7,28.91a32.67,32.67,0,0,0,4.31,15.08c2.58,4.34,6.36,8.47,11.65,9.33,0,0,15.71,1.54,16.84-28.17a22.84,22.84,0,0,0-.26-4.45c-1.33-8.59-5.62-42.92,9.43-49.39,0,0,15-3.76,7.32,52.06-.09.63-.19,1.27-.3,1.9-.63,3.71-2.64,21.83,16.38,28.06,1.95.64,28.61-1.32,26.66-63.32,0,0-1.78-29.07,2.39-39.08a4.21,4.21,0,0,1,6.81-1.42c2.32,2.28,5,7.24,4.77,18,0,0-2.6,48.63,5.53,60.7v66.9H-1.64Z" transform="translate(25.38 -30.63)"/><path class="cls-15" d="M107.58,225.52c-14,.33-10.42-19.54-10.42-19.54s13.35-72,5.26-89.34-1.36-34.07-1.36-34.07c4.82-14.19-4.44-9.67-7.89-7.62a14.13,14.13,0,0,1-3,1.33L84.26,78.1a29.28,29.28,0,0,1-17.79-.16l-5.72-1.88a27.6,27.6,0,0,1-5.25-2.39C43.94,67,44.57,75.47,45.32,79.23a40,40,0,0,1,.7,5,79.41,79.41,0,0,1-1.62,22.13C32.36,140.2,41.15,162,41.15,162c2.93,11.4,3.25,45.63,3.25,45.63-1.3,14.36-7.81,16.24-7.81,16.24-28.66-2.6-40.05,6.19-40.05,6.19V240c6.3-7.64,51.45-6.45,67.21-5.79a62.55,62.55,0,0,1,9.35,1.07,162.4,162.4,0,0,0,28.31,3,59.65,59.65,0,0,0,7.07-.33c31.35-3.3,37.68,2.89,37.68,2.89v-15ZM93.14,185.14C90.37,199,92.06,208.8,92.06,208.8c1.08,18.24-4.78,16.29-4.78,16.29-13.89-4.56-29.31-2.6-29.31-2.6-10.64,4.36-8.9-19.76-8.9-19.76.65-13.68,1.52-26-1.52-50.8s7.17-42,7.17-42S61.23,97.54,74,97.54s17.18,21.4,17.18,21.4C99.65,132.85,93.36,184.06,93.14,185.14Z" transform="translate(25.38 -30.63)"/><path class="cls-16" d="M73.09,66.58" transform="translate(25.38 -30.63)"/><path class="cls-17" d="M73.09,66.79a.22.22,0,0,0,0-.43.22.22,0,0,0,0,.43Z" transform="translate(25.38 -30.63)"/><path class="cls-18" d="M74.71,44.94a14.33,14.33,0,0,1-.62,13.65,1.76,1.76,0,0,0,1.63,2.66,8.84,8.84,0,0,0,3.79-1.37c1.57-.94.86-3.52,1.8-5.08l4.61-7.7a.94.94,0,0,0,.18-.47.71.71,0,0,0-.54-.63c-1-.28-2,.93-3,.65-.61-.17-.93-.8-1.35-1.27A4.23,4.23,0,0,0,78,44.15a12.5,12.5,0,0,0-3.42.62" transform="translate(25.38 -30.63)"/><path class="cls-17" d="M74.53,45.05A14.13,14.13,0,0,1,75,56.2c-.33.88-.84,1.65-1.22,2.5a1.89,1.89,0,0,0,0,1.56c.54,1.27,1.87,1.31,3,1a10.18,10.18,0,0,0,2.3-.93,2.82,2.82,0,0,0,1.38-1.3c.58-1.29.28-2.82,1-4.08,1.07-2,2.33-3.9,3.5-5.84l.83-1.39a2.64,2.64,0,0,0,.52-1.08c0-.58-.57-.91-1.07-.91-.89,0-1.63.84-2.51.71-.54-.08-.85-.57-1.17-1a3.93,3.93,0,0,0-1-.91c-1.85-1.12-4.07-.57-6,0a.22.22,0,0,0,.11.42c1.82-.51,3.94-1.08,5.67,0,1.07.66,1.54,2.29,3,1.86.62-.17,1.19-.66,1.85-.64.45,0,.61.42.5.81a3.54,3.54,0,0,1-.39.64l-.89,1.5-3.08,5.13A5.25,5.25,0,0,0,80.66,56c-.13.62-.17,1.25-.28,1.87a2.63,2.63,0,0,1-.85,1.71,8.14,8.14,0,0,1-2.28,1.1,4.17,4.17,0,0,1-1.94.3,1.57,1.57,0,0,1-1.26-1.55c0-.75.67-1.5,1-2.17a15,15,0,0,0,.78-2.12,14.5,14.5,0,0,0-.91-10.34c-.13-.25-.5,0-.37.22Z" transform="translate(25.38 -30.63)"/></g></g></g></svg>