<svg xmlns="http://www.w3.org/2000/svg" xmlns:xlink="http://www.w3.org/1999/xlink" viewBox="0 0 206.5 232.14"><defs><style>.cls-1{stroke:#424944;stroke-width:0.64px;fill:url(#무제_그라디언트_2);}.cls-1,.cls-10,.cls-12,.cls-13,.cls-15,.cls-16,.cls-17,.cls-18,.cls-2,.cls-6,.cls-8{stroke-miterlimit:10;}.cls-2{fill:#eeccc9;}.cls-2,.cls-6{stroke:#715e54;stroke-width:1.29px;}.cls-3{fill:#f6e5e6;}.cls-12,.cls-4{fill:#e4b4ab;}.cls-5{opacity:0.44;}.cls-6{fill:none;}.cls-7{opacity:0.69;}.cls-10,.cls-13,.cls-8{fill:#ebecef;stroke:#939496;}.cls-12,.cls-8{stroke-width:1.2px;}.cls-9{fill:#d2d5da;}.cls-10{stroke-width:1.14px;}.cls-11{fill:#939496;}.cls-12{stroke:#6d523e;}.cls-13{stroke-width:1.05px;}.cls-14{opacity:0.54;}.cls-15,.cls-16,.cls-17,.cls-18{stroke:#231815;}.cls-15{stroke-width:0.76px;}.cls-15,.cls-16{fill:url(#무제_그라디언트_10);}.cls-16{stroke-width:0.5px;}.cls-17{stroke-width:1.2px;fill:url(#무제_그라디언트_4);}.cls-18{stroke-width:0.95px;fill:url(#무제_그라디언트_6);}.cls-19{fill:url(#무제_그라디언트_4-2);}.cls-20{fill:#282221;}.cls-21{fill:url(#무제_그라디언트_6-2);}</style><linearGradient id="무제_그라디언트_2" x1="225.58" y1="199.05" x2="431.05" y2="199.05" gradientTransform="translate(-225.19 -11.11)" gradientUnits="userSpaceOnUse"><stop offset="0.26" stop-color="#ebe3d9"/><stop offset="0.53" stop-color="#f2eadd"/><stop offset="0.77" stop-color="#f5f2f0"/></linearGradient><linearGradient id="무제_그라디언트_10" x1="81.39" y1="63" x2="171.16" y2="63" gradientUnits="userSpaceOnUse"><stop offset="0" stop-color="#8b9195"/><stop offset="0.24" stop-color="#ced0d6"/><stop offset="0.57" stop-color="#fff"/><stop offset="0.63" stop-color="#e4e5e6"/><stop offset="0.8" stop-color="#a7aaae"/><stop offset="0.87" stop-color="#8f9398"/></linearGradient><linearGradient id="무제_그라디언트_4" x1="76.98" y1="86.53" x2="103.35" y2="86.53" gradientUnits="userSpaceOnUse"><stop offset="0" stop-color="#ced0d6"/><stop offset="0.61" stop-color="#fff"/><stop offset="0.81" stop-color="#c9ccd0"/><stop offset="0.92" stop-color="#b1b6bb"/></linearGradient><linearGradient id="무제_그라디언트_6" x1="285.46" y1="716.47" x2="302.46" y2="716.47" gradientTransform="matrix(-0.34, -1.3, 0.87, -0.23, -357.09, 582.54)" gradientUnits="userSpaceOnUse"><stop offset="0" stop-color="#ced0d6"/><stop offset="0.54" stop-color="#fff"/><stop offset="0.79" stop-color="#c9ccd0"/><stop offset="0.92" stop-color="#b1b6bb"/></linearGradient><linearGradient id="무제_그라디언트_4-2" x1="76.72" y1="86.53" x2="103.6" y2="86.53" xlink:href="#무제_그라디언트_4"/><linearGradient id="무제_그라디언트_6-2" x1="285.27" y1="716.47" x2="302.64" y2="716.47" xlink:href="#무제_그라디언트_6"/></defs><g id="레이어_2" data-name="레이어 2"><g id="레이어_1-2" data-name="레이어 1"><path class="cls-1" d="M183.25,175.54c-18,5.43-32.05,18.89-37.07,24.17a13.94,13.94,0,0,1-7.37,4.14,31.72,31.72,0,0,1-8.07.42,41.35,41.35,0,0,1-16.24-4.51c-17.34-8.92-41.86-12.62-47.18-13.35-.66-.08-1.32-.13-2-.18C48,185.05,20.07,165,20.07,165c-15-7-16.6-17.41-17.73-19.53a3.09,3.09,0,0,0-1.5-1.39,5.56,5.56,0,0,0-.46,2.17v40.83a6.21,6.21,0,0,0,3.8,5.72c98,41.52,128.71,39,128.71,39C171.07,226,197.08,195.91,204,187a8.77,8.77,0,0,0,1.85-5.39V147.56C204.4,171.31,183.25,175.54,183.25,175.54Z"/><path class="cls-2" d="M205.32,140.13c-1.19-3.27-3.84-6.6-5.76-8.75a9.86,9.86,0,0,1-2.5-5.84l-.84-11.25c-.85-10.74-5.82-16.51-5.82-16.51C172.51,76.63,129.23,62,129.23,62c-23.75-10.08-36.11-5.85-40-1.95-3.49,3.5-.73,22.36-.12,26.29a7.32,7.32,0,0,1,.09,1.48c-.75,19-5.59,17.59-12.33,27.55s-21.8,12-21.8,12l-15.62-5.86c-14-5.86-22.45-2.6-22.45-2.6s-8.14,1.95-11.07,13c-1.76,6.67-3.41,9.67-4.44,11a5.29,5.29,0,0,0-.63,1.11,3.09,3.09,0,0,1,1.5,1.39C3.47,147.56,5.1,158,20.07,165c0,0,27.93,20.08,45.27,21.26.66.05,1.32.1,2,.18,5.32.73,29.84,4.43,47.18,13.35a41.35,41.35,0,0,0,16.24,4.51,31.72,31.72,0,0,0,8.07-.42,13.94,13.94,0,0,0,7.37-4.14c5-5.28,19.09-18.74,37.07-24.17,0,0,21.15-4.23,22.61-28v-4.24A9.34,9.34,0,0,0,205.32,140.13Z"/><path class="cls-3" d="M97.91,72.1c8.94,2.59,17.79,5.48,26.48,8.81,2.11.8,4.2,1.64,6.29,2.49.55.23,1.1.49,1.66.69-.16,0-1.34-.57-.29-.12l.62.27c1.11.47,2.21,1,3.31,1.44q6.38,2.83,12.57,6.06t11.95,6.74c2,1.21,3.95,2.46,5.88,3.75.89.59,1.77,1.18,2.64,1.79l1.36,1,.51.38c.64.47-1.06-.85-.15-.11a40,40,0,0,1,4.64,4.47c.57.63-.72-1-.24-.33l.37.51c.31.45.61.91.88,1.38s.45.8.65,1.21c.11.23.44,1,.08.11s.06.18.1.31a19.68,19.68,0,0,1,.8,2.79,7.22,7.22,0,0,0,.25,1.34c-.05-.11-.16-1.65-.08-.55,0,.32.05.64.07,1a26.21,26.21,0,0,1,0,2.94c0,.46-.09.91-.12,1.37-.05.72.12-.78.1-.73-.09.38-.12.79-.19,1.17q-.27,1.36-.66,2.7c-.15.51-.32,1-.5,1.51-.08.25-.18.5-.27.74-.3.82.05-.19.19-.43a58,58,0,0,1-3,5.3c-.92,1.28.64-.75-.07.12-.33.4-.67.81-1,1.2q-1,1.19-2.19,2.28c-.71.68-1.45,1.33-2.21,2l-.46.38c-.83.68.27-.21.37-.28-.49.32-1,.71-1.44,1.05a64.6,64.6,0,0,1-10.62,5.79c1.66-.75-.12,0-.55.21l-1.53.58q-1.75.64-3.54,1.2-3.45,1.08-7,1.85c-1.14.24-2.28.46-3.43.66l-1.62.25c-1.17.19.16,0,.33,0-.37.08-.78.09-1.16.14-2.39.27-4.8.43-7.2.49a144.29,144.29,0,0,1-15.27-.75c-5-.43-10-.85-14.93-1.46a7.29,7.29,0,0,0-1.71-.22c.17-.15,1.23.18.26,0l-1-.14c-1.27-.18-2.53-.38-3.8-.59-2.45-.41-4.89-.88-7.32-1.39a194.61,194.61,0,0,1-27.86-8.29c-2.28-.85-4.54-1.73-6.8-2.65l-3.26-1.34c-.35-.15-1-.57.23.1-.2-.11-.44-.19-.65-.28l-1.95-.84c-4.47-1.93-8.91-4-13.32-6q-3.21-1.52-6.39-3c-3-1.45-7.1-.93-8.82,2.32-1.51,2.87-.93,7.25,2.31,8.81,18.53,8.86,37.46,17.4,57.46,22.35a213.68,213.68,0,0,0,32.11,5.05c5.25.47,10.5,1,15.77,1.18a89.54,89.54,0,0,0,16.35-1,78.34,78.34,0,0,0,27.84-9.59c8.46-5,15.45-12,19.14-21.15,3.57-8.89,3.19-20.19-2.63-28.07a46.72,46.72,0,0,0-11.61-10.6c-4-2.73-8.11-5.28-12.31-7.69-17-9.76-35.42-17.07-54.13-22.87-2.29-.71-4.58-1.39-6.88-2.06A6.44,6.44,0,1,0,97.91,72.1Z"/><path class="cls-4" d="M88.88,98.1c-1.88,9.28-6,10.05-11.32,17.89-6.83,10.09-21.8,12-21.8,12s74.09,26.8,108.32,3.48C164.08,131.51,163.59,114.73,88.88,98.1Z"/><g class="cls-5"><path class="cls-3" d="M23.51,159.91l19.27,11.87c6.26,3.86,12.36,7.87,19.57,9.73s14.71,2.58,22.05,3.55l2.63.35,1.19.16c-1.39-.19.21,0,.41.06q2.87.39,5.73.81c3.49.52,7,1.1,10.43,1.79,7.27,1.45,14.36,3.76,21.72,4.75a41.79,41.79,0,0,0,12.08,0,37.4,37.4,0,0,0,9.22-2.88c5.24-2.28,9.93-5.59,14.63-8.8,2.44-1.66,4.89-3.32,7.43-4.81,1.1-.65,2.21-1.26,3.35-1.84.68-.34,1.37-.65,2.06-1,1.23-.57-1.32.49.13,0l1.28-.49c3.77-1.39,7.67-2.55,11.14-4.63a31.94,31.94,0,0,0,7.95-6.7,34.25,34.25,0,0,0,8.2-20,5.67,5.67,0,0,0-5.64-5.63,5.77,5.77,0,0,0-5.63,5.63c0,.37-.06.74-.09,1.1-.09,1.31.25-1.32,0,0-.11.61-.21,1.21-.35,1.81a30.68,30.68,0,0,1-1.21,3.85c-.46,1.21.57-1.16,0,0-.13.28-.26.56-.4.83-.3.61-.62,1.2-1,1.78s-.64,1-1,1.55l-.53.75c-.84,1.16.61-.68-.13.17a35.07,35.07,0,0,1-2.65,2.8c-.25.24-1.21,1.34-1.53,1.32.19,0,.92-.67.26-.22-.4.28-.8.57-1.21.83a30.22,30.22,0,0,1-3.3,1.81c-1.36.67,1.09-.39-.33.15l-1.29.49c-.85.32-1.72.61-2.58.92a71,71,0,0,0-16.11,8.18c-4.66,3.11-9.18,6.48-14.16,9.08-.55.29-1.11.56-1.67.83l-1,.47c-1.15.53.91-.35.14-.06a41.08,41.08,0,0,1-4.06,1.35c-.6.15-1.21.29-1.83.41a6.1,6.1,0,0,1-1.12.19c1.16,0,.38,0,.1,0a40.56,40.56,0,0,1-5.62.06,22.61,22.61,0,0,1-2.34-.23c1.24.24.18,0-.14,0l-1.17-.2c-1.8-.31-3.58-.71-5.36-1.13-3.33-.8-6.63-1.7-10-2.45-6.89-1.53-13.89-2.55-20.88-3.49-2-.28-4-.54-6-.81L83,173.6c-.2,0-1.81-.23-.42,0l-2.86-.4c-3.44-.48-6.89-1-10.3-1.61A55.23,55.23,0,0,1,64,170.28c-.88-.25-1.75-.54-2.61-.86l-.35-.12a10.72,10.72,0,0,1-1.24-.57,116.41,116.41,0,0,1-10.08-5.9L29.19,150.18a5.67,5.67,0,0,0-7.7,2,5.74,5.74,0,0,0,2,7.71Z"/></g><path class="cls-6" d="M53.76,126.74S156.58,166.44,175.45,116"/><line class="cls-6" x1="130.74" y1="204.27" x2="130.74" y2="231.79"/><g class="cls-7"><path class="cls-4" d="M55,157.34A17,17,0,0,1,41.52,174c-2,.4-1.17,3.51.86,3.11a20.2,20.2,0,0,0,15.81-19.77c0-2.06-3.27-2.07-3.22,0Z"/></g><g class="cls-7"><path class="cls-4" d="M134,173.8c.9,4.7,1.9,9.71.71,14.45-.9,3.57-3.13,7.11-6.72,8.41-1.94.7-1.1,3.81.85,3.1,4.46-1.61,7.45-5.49,8.78-9.95,1.64-5.5.53-11.36-.51-16.86-.39-2-3.49-1.18-3.11.85Z"/></g><g class="cls-7"><path class="cls-4" d="M185,151.51a12.72,12.72,0,0,0,8.29,13.07,1.61,1.61,0,0,0,.86-3.11,10,10,0,0,1-2.49-1.44,9.26,9.26,0,0,1-2.1-2.43,8.61,8.61,0,0,1-1.2-2.9c-.06-.29-.12-.58-.16-.87,0,.17,0,0,0-.06s0-.32,0-.48a10.6,10.6,0,0,1,.07-1.78,1.63,1.63,0,0,0-1.61-1.61,1.65,1.65,0,0,0-1.61,1.61Z"/></g><path class="cls-8" d="M80.82,135.78c-.06-.46,0-3.23,0-5a9,9,0,0,1,.89-3.83,13,13,0,0,1,6.76-6.34,4.88,4.88,0,0,1,1.85-.36h6.75a5.35,5.35,0,0,1,3.21,1.08l3.49,2.64a5,5,0,0,1,2,4v10.39a2.79,2.79,0,0,1-.59,1.71c-1.71,2.19-6.9,8.46-12.09,11a5.53,5.53,0,0,1-5.87-.55C84.88,148.75,82.06,144.74,80.82,135.78Z"/><path class="cls-8" d="M106.93,128.69l3.21-3.14a5.6,5.6,0,0,1,3.54-1.57l6-.37a7.58,7.58,0,0,1,2.07.15c2.75.58,9.79,2.42,10,6.13.11,1.76,0,9,0,10.92a3.34,3.34,0,0,1-.13.83c-.66,2.2-4,12.34-10.17,14-4.43,1.15-7,.14-8.23-.74a3.8,3.8,0,0,1-1.31-1.61L106,139.61a4.07,4.07,0,0,1-.33-1.61v-6.42A4.07,4.07,0,0,1,106.93,128.69Z"/><path class="cls-8" d="M132.78,128.94l6.13-5.59a4,4,0,0,1,2.41-1l9-.46a2.63,2.63,0,0,1,1.08.16,23.89,23.89,0,0,1,4.07,1.88,4.17,4.17,0,0,1,2,3.54v12.83a7.61,7.61,0,0,1-.24,1.9c-.95,3.63-4.68,16.19-11,16.58,0,0-4.48.45-8.43-10.14-.05-.12-.1-.23-.16-.35-.43-.82-2.31-4.26-4.51-5.89a3.53,3.53,0,0,1-1.44-2.89l.09-8.19A3.22,3.22,0,0,1,132.78,128.94Z"/><path class="cls-9" d="M142.13,123.48a18.25,18.25,0,0,0-6.82,6.83,13.79,13.79,0,0,0-1.52,5.17c-.18,1.81.09,3.64,0,5.46a3,3,0,0,0,3,3,3.07,3.07,0,0,0,3-3c.11-1.59-.08-3.18,0-4.76,0-.24,0-.47.05-.7,0-.47-.1.43,0,.05s.12-.59.2-.87c0,0,.3-.95.31-.95s-.26.56,0,.11l.25-.5a6.41,6.41,0,0,1,1-1.59c-.16.14-.29.34-.05.07l.29-.34c.22-.26.46-.5.7-.74s.43-.42.66-.62l.43-.37c.27-.23.08-.11-.07.05a7.72,7.72,0,0,1,1.69-1.14,3,3,0,0,0-3-5.16Z"/><path class="cls-9" d="M102.44,125.94c-2.59-2.64-6.12-5-10-4.77-3.68.18-7.28,2.38-8.34,6-.59,2.07-.33,4.41-.33,6.53s0,4.18,0,6.27c.1,3.85,1.23,8.34,5.12,10A3.1,3.1,0,0,0,93,149c.74-1.27.42-3.44-1.07-4.09a2.82,2.82,0,0,1-1.66-1.62,10.46,10.46,0,0,1-.51-3.89c0-3.22-.1-6.46,0-9.68a3.17,3.17,0,0,1,.07-.69c0-.13.27-.73.08-.35,0,0,.5-.72.23-.39,0-.06.56-.54.37-.39a4.12,4.12,0,0,1,1.94-.74c2.22,0,4.1,1.33,5.76,3,2.69,2.75,6.92-1.47,4.22-4.22Z"/><path class="cls-9" d="M112.63,125.44a13.68,13.68,0,0,0-2.92,2.66,8.53,8.53,0,0,0-1.45,3.9,52.07,52.07,0,0,0-.77,9.33,1.5,1.5,0,0,0,3,0,47.2,47.2,0,0,1,.57-8,8.46,8.46,0,0,1,.91-3.29,8.34,8.34,0,0,1,2.18-2,1.54,1.54,0,0,0,.54-2.05,1.51,1.51,0,0,0-2.05-.53Z"/><path class="cls-10" d="M177,91.5a11.14,11.14,0,0,1-9.23,4.19s-2.12,1-3.45-9.17c-.1-.8-2.06-12.24,6.34-12.35,0,0,2.63-3.28,6.34-2.6s6.49,6.34,6.9,11.43Z"/><path class="cls-9" d="M165.79,80.63a25.37,25.37,0,0,0,.59,5.36c.43,2,1,4,2.85,5.17a3,3,0,0,0,4.08-1.07A3,3,0,0,0,172.24,86l-.19-.13.6.47a2.83,2.83,0,0,1-.24-.25l.47.6a2.88,2.88,0,0,1-.36-.61l.31.71a16.93,16.93,0,0,1-1-4.1l.11.8a22.77,22.77,0,0,1-.19-2.86,3,3,0,1,0-6,0Z"/><path class="cls-8" d="M186.52,102.26l-10,3.17a4.26,4.26,0,0,1-3.4-.79c-1.58-1.25,0-6.8,0-6.8s3.06-12.12,11-16.08,7.47,7.59,7.7,10.64Z"/><path class="cls-9" d="M181.52,87.52l.23.45c.17.32-.22-.68,0-.06.08.29.14.59.23.88s-.05-.75,0-.1c0,.14,0,.27,0,.41a4.53,4.53,0,0,1,0,1s.13-.75,0-.09c0,.13-.06.26-.1.39s-.11.47-.16.48.3-.63,0-.07a8.42,8.42,0,0,1-.45.76c-.28.45.31-.35.07-.08s-.2.25-.31.36a23.57,23.57,0,0,1-2.64,2.35,17.73,17.73,0,0,0-3,3.08,3,3,0,1,0,5.16,3c-.53.71.17-.17.33-.34s.45-.45.69-.66c.5-.45,1-.88,1.55-1.3a16.65,16.65,0,0,0,3.18-3.26,9.81,9.81,0,0,0,.42-10.24,3,3,0,1,0-5.16,3Z"/><path class="cls-8" d="M181.5,109.84V108a3.32,3.32,0,0,1,.72-2.07c1.85-2.36,6.77-8.83,8.23-13,0,0,.22-1.93,1.92-1.93a2.24,2.24,0,0,1,2,1.62,2.39,2.39,0,0,1,.18.92c0,1.84.09,9.62-1.7,11.62Z"/><path class="cls-9" d="M189,97.72a6.76,6.76,0,0,1,0,1.19c0,.23.05-.21,0,0l-.06.27a6.25,6.25,0,0,1-.16.62,4.81,4.81,0,0,1-.2.53l0,0c-.05.1-.1.21-.16.31a8.42,8.42,0,0,1-.64,1l-.17.24,0,0c-.13.14-.25.29-.38.44-.28.3-.57.6-.87.88-.61.59-1.26,1.14-1.91,1.69a1.5,1.5,0,0,0,0,2.11,1.53,1.53,0,0,0,2.11,0c2.79-2.36,5.91-5.4,5.47-9.41a1.53,1.53,0,0,0-1.49-1.5,1.51,1.51,0,0,0-1.5,1.5Z"/><path class="cls-8" d="M183.54,109.16s5.55-8.6,8.38-9.73c0,0,1.7-.23,1.93,1.81,0,0-.8,18.34-2.84,23.21s-3.28,4.87-3.28,4.87-1.36,1.36-3.28-5.09S183.54,109.16,183.54,109.16Z"/><path class="cls-8" d="M171.88,116.53s.11-2.38,3.05-4.19l7.44-4.17a1.62,1.62,0,0,1,2.1.42c1.73,2.3,4.4,9.31-2.06,28.43,0,0-1.33,2.84-3.21,0,0,0-5.17-7.36-5.85-7.47Z"/><path class="cls-9" d="M182.26,109.31q-2.34,1.45-4.58,3.07c-1.39,1-2.84,2-3.48,3.66a16.72,16.72,0,0,0-.58,5.42,56.23,56.23,0,0,0,.18,6c.15,1.91,3.14,1.92,3,0-.15-1.76-.21-3.52-.19-5.29a20.12,20.12,0,0,1,.3-4.72c.33-1.26,1.68-2,2.67-2.71q2.06-1.47,4.2-2.8c1.63-1,.14-3.6-1.51-2.58Z"/><path class="cls-8" d="M157.38,136.23a9.73,9.73,0,0,1,4.76,5.89c3.51,9.17,6.68,7.93,6.68,7.93,3.38-.9,5.54-17.12,6-21a14.84,14.84,0,0,0,.09-1.63v-8.16a3.32,3.32,0,0,0-.34-1.49l-.68-1.43a1.65,1.65,0,0,0-1.48-.93h-1.08a3.17,3.17,0,0,0-1.56.42l-11.36,6.46a2.08,2.08,0,0,0-1.05,1.81Z"/><path class="cls-9" d="M170.66,117.27a58.24,58.24,0,0,0-7.4,4.81,9.55,9.55,0,0,0-2.65,2.65,9.32,9.32,0,0,0-1,3.81c-.27,2.58-.47,5.32.55,7.77a18.5,18.5,0,0,0,2.22,3.39,8.76,8.76,0,0,1,1.56,3.87,1.55,1.55,0,0,0,1.5,1.49,1.49,1.49,0,0,0,1.49-1.49,13.22,13.22,0,0,0-2.83-6.51c-1.61-2.11-1.83-4.26-1.65-6.86a12.68,12.68,0,0,1,.49-3.42,6,6,0,0,1,2.36-2.53,55.91,55.91,0,0,1,6.86-4.4c1.68-.92.18-3.5-1.51-2.58Z"/><path class="cls-11" d="M86.18,125.46c1.28-1.62,3.79-1.57,5.68-1.43,2.38.17,3.7,2,4.78,3.89.82,1.46,1.8,2.7,3.65,2.47a4.8,4.8,0,0,0,2.13-.87,19.42,19.42,0,0,1,2.36-2c.43-.23,0-.87-.37-.65-1.73.9-2.94,3.43-5.27,2.7-1.16-.37-1.62-1.68-2.19-2.64a10.8,10.8,0,0,0-1.64-2.16c-1.43-1.39-3.17-1.56-5.09-1.52-1.66,0-3.47.29-4.57,1.67-.3.38.23.91.53.53Z"/><path class="cls-11" d="M96.08,126.15l3.62,1.21c.46.15.65-.57.2-.72l-3.62-1.21c-.46-.15-.66.57-.2.72Z"/><path class="cls-11" d="M97.9,125.7v.08a1.09,1.09,0,0,1,0-.18l0,.1a.83.83,0,0,1,.06-.21l0,.09a1.08,1.08,0,0,1,.11-.18l-.06.07a1.21,1.21,0,0,1,.16-.16l-.08.06a1.18,1.18,0,0,1,.19-.11l-.09,0,.18,0-.1,0h.06a.41.41,0,0,0,.26-.11.33.33,0,0,0,.11-.26.35.35,0,0,0-.11-.27.41.41,0,0,0-.26-.11,1.25,1.25,0,0,0-.5.14,1.1,1.1,0,0,0-.33.28,1.17,1.17,0,0,0-.25.45,1.11,1.11,0,0,0,0,.25,2.11,2.11,0,0,0,0,.26.36.36,0,0,0,.17.23.48.48,0,0,0,.29,0,.41.41,0,0,0,.23-.18l0-.09a.31.31,0,0,0,0-.19Z"/><path class="cls-11" d="M160.87,123A50.76,50.76,0,0,0,172,117.5c.4-.26,0-.91-.38-.64a50,50,0,0,1-11,5.45c-.45.16-.26.88.2.72Z"/><path class="cls-11" d="M161.7,124.15a22.41,22.41,0,0,0,0,4.41c.21,1.58,1,2.77,1.5,4.25a19.34,19.34,0,0,1,.44,5.27l.2,5.39c0,.48.76.48.74,0l-.19-5.39a29.79,29.79,0,0,0-.3-4.82c-.3-1.5-1.28-2.74-1.57-4.26a18.75,18.75,0,0,1-.06-4.85c0-.48-.71-.48-.75,0Z"/><path class="cls-11" d="M183.68,110.17c-.79,1.6-2.43,2.31-3.88,3.18a7.78,7.78,0,0,0-3.33,3.55,11.92,11.92,0,0,0-.78,5.55c.15,2.43.53,4.85.83,7.27,0,.47.8.48.74,0-.27-2.24-.6-4.48-.78-6.73a11.2,11.2,0,0,1,.9-6.26c1.55-2.93,5.48-3.23,6.94-6.18.21-.43-.43-.81-.64-.38Z"/><path class="cls-11" d="M191.71,94.84c.5.24.59.88.59,1.38a4.26,4.26,0,0,0,.27,2.24c.23.42.87.05.64-.38-.36-.65-.12-1.45-.18-2.16a2,2,0,0,0-.94-1.73c-.43-.21-.81.43-.38.65Z"/><path class="cls-11" d="M187,84c.64.21.88,1,1,1.55.23,1,.37,2,.54,2.92.09.47.81.27.72-.2L189,86.47a13.93,13.93,0,0,0-.29-1.4,2.46,2.46,0,0,0-1.48-1.82c-.46-.15-.66.57-.2.72Z"/><path class="cls-11" d="M188.14,92.65A7.33,7.33,0,0,1,184,97.39a.37.37,0,0,0-.14.51.39.39,0,0,0,.52.13,8,8,0,0,0,4.46-5.19.37.37,0,0,0-.72-.19Z"/><path class="cls-11" d="M170.56,75.88a13.3,13.3,0,0,1,2.62,5,.37.37,0,0,0,.72-.19,14.1,14.1,0,0,0-2.81-5.38c-.31-.37-.84.16-.53.53Z"/><path class="cls-11" d="M172.88,78.62a21.41,21.41,0,0,1,4,.39c.47.1.67-.62.19-.72a21.62,21.62,0,0,0-4.18-.41.37.37,0,0,0,0,.74Z"/><path class="cls-11" d="M175.14,74c1.66,1,3.47,2,4.27,3.85.3.67.65,1.81-.14,2.26a13,13,0,0,0-2,.91c-.37.3.16.83.53.53.64-.52,1.57-.48,2.18-1.06s.5-1.87.18-2.7c-.82-2.12-2.79-3.34-4.67-4.44a.38.38,0,0,0-.38.65Z"/><path class="cls-12" d="M56,81.06,21.35,66.34s-10.91-.72-10.91,15.58c0,0-5.77,26.3,61.8,33.45a5.53,5.53,0,0,0,6-6.76,40.21,40.21,0,0,1,.59-19.53,3.89,3.89,0,0,0-3.11-4.88Z"/><path class="cls-12" d="M104.24,6.36S96.7,5.9,96.86,15C97,24.6,95.5,34.76,110.94,43.2A18.93,18.93,0,0,0,115,44.71l31.68,8.56,5.82,1.63a4,4,0,0,0,5-3.74c.07-5.2-1.29-8.45,2.87-13.44,0,0,5-8.74-.34-10.75"/><path class="cls-8" d="M39.92,57.17a4,4,0,0,0,3.73,1.68,12.64,12.64,0,0,0,2.61-.61A9.53,9.53,0,0,1,52,58a3.2,3.2,0,0,1,1.62,1.12c2.52,3.3,1.93,5.88,1.93,5.88L52.38,82.82,45.49,87.6a3.91,3.91,0,0,1-2.33.76H39.47a3.1,3.1,0,0,1-1.68-.48L33.9,85.45A3.25,3.25,0,0,0,32.21,85H28.9a4.49,4.49,0,0,1-2.21-.57A11.78,11.78,0,0,1,22,79.53c-2.27-4.3-1.59-17.67-1.59-17.67,1.81-8.15,7.47-7,7.47-7l6.87,0a6.14,6.14,0,0,1,3.9,1.37Z"/><path class="cls-8" d="M65.17,63.56H59.55a4.5,4.5,0,0,0-1.74.34c-2,.85-6.74,3.35-6.57,8.16l.57,12.45s.45,5.78,1.92,7.25c1.33,1.32,1.92,2.56,5.72,3.28a4.4,4.4,0,0,1,1.87.9c.56.45,1.85,1,4.76,1,4.12.09,7.25-3.44,8.38-4.91a19.94,19.94,0,0,1,1.46-1.71l.12-.12a17.16,17.16,0,0,0,3.58-5.82l3.19-8.7a6,6,0,0,0-1.65-6.61L81,69a3.14,3.14,0,0,0-1.94-.7l-2.75-.06a3.75,3.75,0,0,1-2.8-1.35,12.2,12.2,0,0,0-3.52-3,3.16,3.16,0,0,0-1.36-.28Z"/><path class="cls-8" d="M112.45,23.27a2.44,2.44,0,0,1,1.61.61c1,.92,3.13,2.54,5.25,2.54,2.94,0,5.2-3.15,5.2-3.15L130.88,11s.54-3.74-1.95-5.33a6.21,6.21,0,0,0-3.85-.86A4.16,4.16,0,0,1,122,3.78l-2.17-1.93A5,5,0,0,0,116.51.6H112a5.47,5.47,0,0,0-2.32.5c-1.5.71-4,2.2-4.86,4.71-1.14,3.13-.37,8.72-.09,10.45a4.67,4.67,0,0,0,.3,1A20.57,20.57,0,0,0,107.68,22a3.5,3.5,0,0,0,2.71,1.27Z"/><path class="cls-9" d="M113.51,17.37c-.08,0-.61-.3-.22-.07s0-.05-.09-.12.25.45,0,0l-.22-.41c.3.52.05.11,0-.08s-.13-.45-.18-.68-.07-.37-.1-.55c.07.43,0,0,0-.21a43.35,43.35,0,0,1-.17-5.35l0-.53c0-.58-.08.21,0-.13a10.41,10.41,0,0,1,.3-1.13c-.08.24-.17.34,0,.06,0,0,.41-.61.15-.26s.19-.19.21-.21c.32-.35,0,.1-.11,0s.39-.26.45-.29l.18-.1q.32-.15-.24.09c0-.06.33-.1.39-.13l.28-.07c-.28,0-.31,0-.09,0a7.8,7.8,0,0,1,1.28,0c-.32,0-.16,0,.06,0s.57.13.85.21a3,3,0,0,0,3.67-2.09,3,3,0,0,0-2.08-3.68c-2.51-.65-5.34-.78-7.59.72a8.48,8.48,0,0,0-3.67,6.63,32.22,32.22,0,0,0,.2,6.87c.32,2.51,1.21,5.43,3.71,6.59a3.05,3.05,0,0,0,4.09-1.07c.7-1.32.45-3.38-1.07-4.09Z"/><path class="cls-9" d="M121.94,8.81a.54.54,0,0,1,.18.11l-.3-.24a1.62,1.62,0,0,1,.18.19l-.24-.31c.2.26.32.58.5.84A2.57,2.57,0,0,0,124,10.56a3.59,3.59,0,0,0,1.89-.16,3.78,3.78,0,0,0,1.53-1.05,1.61,1.61,0,0,0,.44-1.06,1.52,1.52,0,0,0-.44-1.06,1.48,1.48,0,0,0-1.05-.43,1.42,1.42,0,0,0-1.06.43,2.11,2.11,0,0,1-.4.39l.3-.23a2.52,2.52,0,0,1-.48.28l.36-.16a2.36,2.36,0,0,1-.59.17l.4-.06a2.18,2.18,0,0,1-.51,0l.4,0a1.14,1.14,0,0,1-.33-.08l.35.15-.22-.13.3.23-.18-.19.24.31a7.49,7.49,0,0,1-.42-.72,2.59,2.59,0,0,0-1-1,1.54,1.54,0,0,0-1.15-.15,1.49,1.49,0,0,0-.89.68,1.46,1.46,0,0,0-.15,1.15,1.48,1.48,0,0,0,.68.9Z"/><path class="cls-9" d="M34.93,57.28c-3.23.42-6.59-.73-9.59,1.09-3.35,2-4.11,6.05-3.68,9.68.4,3.45.93,7.1,2.83,10.1a11.14,11.14,0,0,0,8.21,5.33c1.6.2,3-1.52,3-3a3.06,3.06,0,0,0-3-3c.58.07-.31-.11-.35-.12-.49-.11,0,.06-.23-.07a5.75,5.75,0,0,1-.77-.42c-.13-.08-.54-.39-.22-.13A9,9,0,0,1,30,75.61c-.13-.16-.13-.16,0,0l-.17-.24c-.16-.25-.32-.5-.46-.76a11.81,11.81,0,0,1-1.13-3.18c-.14-.62-.26-1.25-.37-1.88s-.17-1.08-.22-1.51c-.07-.63-.13-1.26-.14-1.89A6.07,6.07,0,0,1,27.55,65c-.07.38.14-.48.14-.46l.09-.28c-.1.2-.1.21,0,0a4.06,4.06,0,0,1,.38-.63c-.37.47.4-.36,0,0,.09-.07.83-.44.37-.26a4.34,4.34,0,0,1,.73-.19c.28-.06-.25,0,.27,0s1.17,0,1.75,0a20,20,0,0,0,3.71,0,3.09,3.09,0,0,0,3-3c0-1.46-1.37-3.2-3-3Z"/><path class="cls-9" d="M63.69,65a9.57,9.57,0,0,0-7.53,3.91c-1.88,2.52-1.82,5.53-1.81,8.54,0,3.22-.11,6.46,0,9.68.15,3.62,2.63,5.44,5.84,6.47a3,3,0,0,0,1.59-5.77l-.61-.2c-.07,0-.46-.18-.19-.06a5.93,5.93,0,0,1-.56-.29c-.14-.08-.33-.3-.13-.09s-.09,0-.07-.12c0,0,.11,0,.11.06,0-.59,0-1.17,0-1.76V77.86c0-1.15,0-2.31,0-3.45a3.83,3.83,0,0,1,.53-1.88,3.43,3.43,0,0,1,2.82-1.6c3.84-.08,3.86-6.06,0-6Z"/><path class="cls-8" d="M125.2,28.52a3.88,3.88,0,0,0,2.09,1.69c8.44,2.84,6.07,3.61,8.89,4.59s4.45,0,4.45,0l8.46-5.66L152.15,22a11.47,11.47,0,0,0-1.69-6.82,3.76,3.76,0,0,0-3.15-1.77l-3.2-.06a4.06,4.06,0,0,1-3-1.45c-1-1.2-2.56-2.77-4-3.11a4.43,4.43,0,0,0-3.7,1.31,3.89,3.89,0,0,1-2.51,1h-1.29a3.4,3.4,0,0,0-2.85,1.53s-3.81,3.56-3.7,8.32A14.82,14.82,0,0,0,125.2,28.52Z"/><path class="cls-9" d="M133.64,13a3.17,3.17,0,0,0,2.93,2.32c.56.08,1.09.09,1.58.19.3.06.6.13.9.22l.44.15s.38.17.18.07l.27.14.22.14c-.11-.09.15.19,0,0a1.66,1.66,0,0,1,.18.35A2.82,2.82,0,0,0,141.6,18a5.67,5.67,0,0,0,4.15-.05,1.53,1.53,0,0,0,1.05-1.84A1.51,1.51,0,0,0,145,15a4.28,4.28,0,0,1-1.27.28h-.37s-.48,0-.33,0-.15-.1-.05,0l.14.09a4,4,0,0,0-.2-.46,3.33,3.33,0,0,0-.49-.69,3.77,3.77,0,0,0-1.21-.88,10.32,10.32,0,0,0-3.18-.89,12.38,12.38,0,0,1-1.27-.15s-.32-.11-.2-.05-.15-.15,0,0,0,0,0,0h0s.13.41.05,0a1.5,1.5,0,0,0-1.84-1,1.53,1.53,0,0,0-1,1.84Z"/><path class="cls-9" d="M124.91,20c-.35,3.29-.23,8.14,3.21,9.8a11.08,11.08,0,0,0,3.1.66c-.55-.1.84.39.32.12a4.92,4.92,0,0,1,.78.5c-.32-.25.38.36.46.43.26.24.51.49.78.71a5,5,0,0,0,3.12,1.27c7.07.44,14-5,14.29-12.21a3,3,0,1,0-6,0,5.64,5.64,0,0,1-.64,2.34q-.24.42-.51.81l-.18.26c.09-.14.08-.13,0,0s-.37.4-.57.59c0,0-.68.6-.4.38a8.08,8.08,0,0,1-2.83,1.44,13.16,13.16,0,0,1-1.59.35,5.88,5.88,0,0,0-1.55,0l.74.18q.27.21,0,0a2.79,2.79,0,0,0-.56-.52,16.46,16.46,0,0,0-1.8-1.44,9.13,9.13,0,0,0-4.2-1.28c-.38-.05-.24-.15-.1,0s.25.25.36.39c-.31-.38,0,.23-.1-.26,0-.23-.1-.46-.14-.69a15.45,15.45,0,0,1,0-3.91,3,3,0,0,0-3-3,3,3,0,0,0-3,3Z"/><path class="cls-13" d="M151.41,38.64a8.73,8.73,0,0,1-4.63-6.91c-.06-.49-.11-1-.13-1.57l.22-5.19a5.76,5.76,0,0,1,2.53-4.71,8.93,8.93,0,0,1,3.08-1.11,2.32,2.32,0,0,0,1.27-.65,6.72,6.72,0,0,1,4.56-1.63c1.95-.07,3.22,1.86,4,3.82a15.74,15.74,0,0,1,1,7.07C162.88,33.15,160.84,43.18,151.41,38.64Z"/><path class="cls-9" d="M148.43,30.57c.11.37.17.75.29,1.11a7.73,7.73,0,0,0,.67,1.5,7.5,7.5,0,0,0,2.22,2.3,6.82,6.82,0,0,0,3.21,1.08,4,4,0,0,0,1,0,7.36,7.36,0,0,0,1.8-.35,3.29,3.29,0,0,0,1.79-1.38,3,3,0,0,0-1.08-4.09,3,3,0,0,0-2.3-.3,4.22,4.22,0,0,1-.91.24l.79-.11a4.28,4.28,0,0,1-1.13,0l.8.1a3.81,3.81,0,0,1-1-.28l.71.31a4.26,4.26,0,0,1-.87-.52l.6.47a4.63,4.63,0,0,1-.7-.7l.47.6a4.27,4.27,0,0,1-.54-.92l.3.71c-.18-.44-.26-.92-.4-1.38a3.13,3.13,0,0,0-1.37-1.78,3,3,0,0,0-4.09,1.07,3.08,3.08,0,0,0-.3,2.3Z"/><path class="cls-11" d="M25.11,59.8l.08-.12s0,0,0,0,0,0,0,0l.18-.19.21-.19h0s0,0,.06,0l.12-.07L26,59l.11,0h0l.07,0a3.18,3.18,0,0,1,.53-.14.37.37,0,0,0,.26-.46.39.39,0,0,0-.46-.26,3.06,3.06,0,0,0-2.06,1.36.38.38,0,0,0,.14.51.39.39,0,0,0,.51-.13Z"/><path class="cls-11" d="M25.61,61.77a8.79,8.79,0,0,1,4.14,1.93,26.7,26.7,0,0,0,2.89,2.74c2,1.27,4.5.78,6.72.75a6,6,0,0,1,3.94,1c.78.61,1.44,1.3,2.51,1.22,2.35-.16,4.55-2.24,5.71-4.14.25-.41-.4-.79-.65-.38a8.37,8.37,0,0,1-2.73,2.82,5.32,5.32,0,0,1-2,.9c-1.1.1-1.63-.46-2.41-1.06-1.57-1.21-3.51-1.2-5.41-1.11a15.92,15.92,0,0,1-3.45,0,5.62,5.62,0,0,1-3.27-2,10.27,10.27,0,0,0-5.76-3.42c-.47-.09-.67.63-.19.72Z"/><path class="cls-11" d="M30.87,60.35a11.38,11.38,0,0,0,2.95,2.25,9.72,9.72,0,0,0,3.52,1.46c2.39.38,5.71-1,7.52,1.2.3.37.83-.16.53-.53-1.64-2-4.38-1.38-6.61-1.33a7.66,7.66,0,0,1-4.06-1.13,11.82,11.82,0,0,1-3.32-2.45c-.3-.37-.83.16-.53.53Z"/><path class="cls-11" d="M38.08,63.7l2.72-2.12a.38.38,0,0,0,0-.53.39.39,0,0,0-.53,0l-2.71,2.12a.38.38,0,0,0,0,.53.38.38,0,0,0,.52,0Z"/><path class="cls-11" d="M56.6,66.93A1.62,1.62,0,0,0,57,70.12a.38.38,0,0,0,.37-.37.38.38,0,0,0-.37-.38h-.1c.08,0,0,0,0,0l-.1,0s-.11,0,0,0l-.16-.09s-.09-.07-.06,0l0,0L56.28,69c0,.06,0,0,0,0a.41.41,0,0,1,0-.09s-.05-.1,0,0l0-.08,0-.1s0,0,0,0,0,0,0,0v-.19c0-.1,0,.07,0,0a.3.3,0,0,1,0-.1l0-.1c0-.07,0,0,0,0l.09-.16s.05-.06,0,0a.27.27,0,0,1,.07-.08.23.23,0,0,1,.07-.07s.09-.07,0,0l.18-.11c.06,0,0,0,0,0l.11,0a.37.37,0,1,0-.19-.72Z"/><path class="cls-11" d="M59.94,71.31c.84.38,1.28,1.17,1.92,1.79a3.29,3.29,0,0,0,2,.92,29.89,29.89,0,0,1,3.4.24,10.09,10.09,0,0,1,3.27,1.3,8.05,8.05,0,0,0,2.32,1.26,5.86,5.86,0,0,0,2.72-.24A4.43,4.43,0,0,0,79,73.75a.37.37,0,0,0-.72-.2c-.48,1.71-2.46,2.33-4,2.54-1.94.27-3.39-1.39-5.1-2.06a15.91,15.91,0,0,0-5-.74,3.1,3.1,0,0,1-2.36-1.35,4.55,4.55,0,0,0-1.51-1.28c-.43-.2-.81.45-.37.65Z"/><path class="cls-11" d="M63.05,67.74a1.32,1.32,0,0,1-.39,1.48.37.37,0,0,0,0,.64q2.06,1,4.18,1.88a.38.38,0,0,0,.46-.26A.37.37,0,0,0,67,71c-1.36-.55-2.69-1.15-4-1.8v.64a2,2,0,0,0,.74-2.31.38.38,0,0,0-.46-.26.37.37,0,0,0-.26.45Z"/><path class="cls-11" d="M72.52,69.51c0,.09,0,0,0-.06a1,1,0,0,1,.08-.14.21.21,0,0,1,0-.06l0,0s0,0,0,0l.06-.07a1.8,1.8,0,0,1,.2-.19c.06,0,0,0,0,0l.06,0,.13-.08.12-.06.07,0c-.08,0,0,0,0,0a1.61,1.61,0,0,1,.29-.09h.07c.08,0,0,0,0,0h.14a1.61,1.61,0,0,1,.31,0,.37.37,0,0,0,.37-.37.38.38,0,0,0-.37-.38,2.28,2.28,0,0,0-1.4.31,2.32,2.32,0,0,0-1,1.14.37.37,0,0,0,.26.45.38.38,0,0,0,.46-.26Z"/><path class="cls-11" d="M82,77.37a.38.38,0,0,0,0-.75.38.38,0,0,0,0,.75Z"/><path class="cls-11" d="M152.18,22a5.69,5.69,0,0,1,4.29,3.74c.15.46.87.26.72-.19a6.44,6.44,0,0,0-4.82-4.27c-.47-.09-.67.63-.19.72Z"/><path class="cls-11" d="M155.14,23.58a23.18,23.18,0,0,0,5.39-.25.37.37,0,0,0,.26-.46.39.39,0,0,0-.46-.26,22.56,22.56,0,0,1-5.19.23c-.48,0-.48.71,0,.74Z"/><path class="cls-11" d="M132.55,13.35a8,8,0,0,0,2,1.89,4.54,4.54,0,0,0,2.49.51,3.78,3.78,0,0,1,2.71.88c.63.55,1.15,1.2,1.78,1.74a4.88,4.88,0,0,0,4.65,1,3.11,3.11,0,0,0,2.42-3.61c-.11-.46-.84-.27-.72.2.5,2.12-2.08,3-3.76,2.85s-2.47-1.36-3.54-2.39A4.43,4.43,0,0,0,137.4,15a4.56,4.56,0,0,1-2.6-.47,7.75,7.75,0,0,1-1.72-1.71c-.31-.37-.83.16-.53.53Z"/><path class="cls-11" d="M139.38,15.79l2-.8a.38.38,0,0,0,.26-.46.38.38,0,0,0-.46-.26l-1.95.8a.37.37,0,0,0-.26.45.39.39,0,0,0,.46.27Z"/><path class="cls-11" d="M113.85,5.9l3.46,2.28a.37.37,0,0,0,.38-.64l-3.47-2.28a.37.37,0,1,0-.37.64Z"/><path class="cls-11" d="M115.1,9.54A8,8,0,0,0,117.3,9a22.89,22.89,0,0,0,2.11-1.29c1.9-1.09,2.64,1.57,3.51,2.7,1.71,2.23,5.86,1.07,6.56-1.53a.37.37,0,0,0-.72-.2,3.43,3.43,0,0,1-3.56,2.15c-1.79-.1-2.09-1.85-3-3a2.31,2.31,0,0,0-2.78-.92c-.67.29-1.21.82-1.85,1.17a6.84,6.84,0,0,1-2.45.79c-.47.07-.48.81,0,.75Z"/><path class="cls-11" d="M120.94,7.13a4.37,4.37,0,0,0,1.45-.49.37.37,0,0,0,.13-.51A.38.38,0,0,0,122,6l-.16.08-.08,0-.09,0s.06,0,0,0l0,0-.09,0-.16.06a4.3,4.3,0,0,1-.69.16.38.38,0,0,0-.22.17.37.37,0,0,0,0,.29.44.44,0,0,0,.17.23.41.41,0,0,0,.29,0Z"/><path class="cls-11" d="M111.28,4.42c0-.09,0,.07,0,0l0-.08.07-.11s.07-.08,0,0l0-.06.1-.1.06,0c.07-.06-.07,0,0,0l.11-.08.14-.07,0,0h0a2.45,2.45,0,0,1,.29-.08s-.08,0,0,0h.34s0,0,0,0a.35.35,0,0,1,.14,0l.15,0c-.09,0,0,0,0,0l.07,0a.38.38,0,0,0,.51-.14.38.38,0,0,0-.13-.51,1.89,1.89,0,0,0-1.56-.1,1.93,1.93,0,0,0-1.17,1.12.38.38,0,0,0,.26.46.39.39,0,0,0,.46-.26Z"/><g class="cls-14"><path class="cls-3" d="M16.2,91.43c4.22,6.52,11.21,10.31,18.29,13a96.64,96.64,0,0,0,20.67,5c2.32.33,4.93-.57,5.52-3.13.48-2.12-.65-5.16-3.13-5.52a99.23,99.23,0,0,1-19.69-4.62c-.82-.3-1.63-.62-2.44-.94-.47-.19-.43-.18.11.05L34.9,95l-1.08-.5a40.28,40.28,0,0,1-4.37-2.4,11.75,11.75,0,0,1-2-1.37c.86.87-.1-.09-.3-.27s-.54-.47-.8-.72a21.66,21.66,0,0,1-1.57-1.61l-.38-.46c-.3-.37-.24-.3.17.22-.11,0-.59-.85-.66-1a4.48,4.48,0,1,0-7.74,4.52Z"/></g><path class="cls-15" d="M81.88,82.65s1.1-6.77,6.56-2.38c0,0,14.56,13.24,33.7,10.51S159.71,75,159.71,75a28.61,28.61,0,0,0,7.18-6,18.92,18.92,0,0,0,2.69-19.59c-1.33-3.06-3.59-8.08-6-9.66l-2.69-4.88S148.29,41,162.75,52.29c0,0,7.23,6,1.17,13.8S142.56,80,142.56,80l-7.5,3A39.75,39.75,0,0,1,120.86,86c-8.68.15-21.72-1.12-28.33-9.12a2,2,0,0,1-.44-1.06c-.13-1.07-.35-2,3.15-2.59,0,0-16.92-8.22-13.36,9.73"/><path class="cls-1" d="M183.25,175.54c-18,5.43-32.05,18.89-37.07,24.17a13.94,13.94,0,0,1-7.37,4.14,31.72,31.72,0,0,1-8.07.42,41.35,41.35,0,0,1-16.24-4.51c-17.34-8.92-41.86-12.62-47.18-13.35-.66-.08-1.32-.13-2-.18C48,185.05,20.07,165,20.07,165c-15-7-16.6-17.41-17.73-19.53a3.09,3.09,0,0,0-1.5-1.39,5.56,5.56,0,0,0-.46,2.17v40.83a6.21,6.21,0,0,0,3.8,5.72c98,41.52,128.71,39,128.71,39C171.07,226,197.08,195.91,204,187a8.77,8.77,0,0,0,1.85-5.39V147.56C204.4,171.31,183.25,175.54,183.25,175.54Z"/><path class="cls-2" d="M205.32,140.13c-1.19-3.27-3.84-6.6-5.76-8.75a9.86,9.86,0,0,1-2.5-5.84l-.84-11.25c-.85-10.74-5.82-16.51-5.82-16.51C172.51,76.63,129.23,62,129.23,62c-23.75-10.08-36.11-5.85-40-1.95-3.49,3.5-.73,22.36-.12,26.29a7.32,7.32,0,0,1,.09,1.48c-.75,19-5.59,17.59-12.33,27.55s-21.8,12-21.8,12l-15.62-5.86c-14-5.86-22.45-2.6-22.45-2.6s-8.14,1.95-11.07,13c-1.76,6.67-3.41,9.67-4.44,11a5.29,5.29,0,0,0-.63,1.11,3.09,3.09,0,0,1,1.5,1.39C3.47,147.56,5.1,158,20.07,165c0,0,27.93,20.08,45.27,21.26.66.05,1.32.1,2,.18,5.32.73,29.84,4.43,47.18,13.35a41.35,41.35,0,0,0,16.24,4.51,31.72,31.72,0,0,0,8.07-.42,13.94,13.94,0,0,0,7.37-4.14c5-5.28,19.09-18.74,37.07-24.17,0,0,21.15-4.23,22.61-28v-4.24A9.34,9.34,0,0,0,205.32,140.13Z"/><path class="cls-3" d="M97.91,72.1c8.94,2.59,17.79,5.48,26.48,8.81,2.11.8,4.2,1.64,6.29,2.49.55.23,1.1.49,1.66.69-.16,0-1.34-.57-.29-.12l.62.27c1.11.47,2.21,1,3.31,1.44q6.38,2.83,12.57,6.06t11.95,6.74c2,1.21,3.95,2.46,5.88,3.75.89.59,1.77,1.18,2.64,1.79l1.36,1,.51.38c.64.47-1.06-.85-.15-.11a40,40,0,0,1,4.64,4.47c.57.63-.72-1-.24-.33l.37.51c.31.45.61.91.88,1.38s.45.8.65,1.21c.11.23.44,1,.08.11s.06.18.1.31a19.68,19.68,0,0,1,.8,2.79,7.22,7.22,0,0,0,.25,1.34c-.05-.11-.16-1.65-.08-.55,0,.32.05.64.07,1a26.21,26.21,0,0,1,0,2.94c0,.46-.09.91-.12,1.37-.05.72.12-.78.1-.73-.09.38-.12.79-.19,1.17q-.27,1.36-.66,2.7c-.15.51-.32,1-.5,1.51-.08.25-.18.5-.27.74-.3.82.05-.19.19-.43a58,58,0,0,1-3,5.3c-.92,1.28.64-.75-.07.12-.33.4-.67.81-1,1.2q-1,1.19-2.19,2.28c-.71.68-1.45,1.33-2.21,2l-.46.38c-.83.68.27-.21.37-.28-.49.32-1,.71-1.44,1.05a64.6,64.6,0,0,1-10.62,5.79c1.66-.75-.12,0-.55.21l-1.53.58q-1.75.64-3.54,1.2-3.45,1.08-7,1.85c-1.14.24-2.28.46-3.43.66l-1.62.25c-1.17.19.16,0,.33,0-.37.08-.78.09-1.16.14-2.39.27-4.8.43-7.2.49a144.29,144.29,0,0,1-15.27-.75c-5-.43-10-.85-14.93-1.46a7.29,7.29,0,0,0-1.71-.22c.17-.15,1.23.18.26,0l-1-.14c-1.27-.18-2.53-.38-3.8-.59-2.45-.41-4.89-.88-7.32-1.39a194.61,194.61,0,0,1-27.86-8.29c-2.28-.85-4.54-1.73-6.8-2.65l-3.26-1.34c-.35-.15-1-.57.23.1-.2-.11-.44-.19-.65-.28l-1.95-.84c-4.47-1.93-8.91-4-13.32-6q-3.21-1.52-6.39-3c-3-1.45-7.1-.93-8.82,2.32-1.51,2.87-.93,7.25,2.31,8.81,18.53,8.86,37.46,17.4,57.46,22.35a213.68,213.68,0,0,0,32.11,5.05c5.25.47,10.5,1,15.77,1.18a89.54,89.54,0,0,0,16.35-1,78.34,78.34,0,0,0,27.84-9.59c8.46-5,15.45-12,19.14-21.15,3.57-8.89,3.19-20.19-2.63-28.07a46.72,46.72,0,0,0-11.61-10.6c-4-2.73-8.11-5.28-12.31-7.69-17-9.76-35.42-17.07-54.13-22.87-2.29-.71-4.58-1.39-6.88-2.06A6.44,6.44,0,1,0,97.91,72.1Z"/><path class="cls-4" d="M88.88,98.1c-1.88,9.28-6,10.05-11.32,17.89-6.83,10.09-21.8,12-21.8,12s74.09,26.8,108.32,3.48C164.08,131.51,163.59,114.73,88.88,98.1Z"/><g class="cls-5"><path class="cls-3" d="M23.51,159.91l19.27,11.87c6.26,3.86,12.36,7.87,19.57,9.73s14.71,2.58,22.05,3.55l2.63.35,1.19.16c-1.39-.19.21,0,.41.06q2.87.39,5.73.81c3.49.52,7,1.1,10.43,1.79,7.27,1.45,14.36,3.76,21.72,4.75a41.79,41.79,0,0,0,12.08,0,37.4,37.4,0,0,0,9.22-2.88c5.24-2.28,9.93-5.59,14.63-8.8,2.44-1.66,4.89-3.32,7.43-4.81,1.1-.65,2.21-1.26,3.35-1.84.68-.34,1.37-.65,2.06-1,1.23-.57-1.32.49.13,0l1.28-.49c3.77-1.39,7.67-2.55,11.14-4.63a31.94,31.94,0,0,0,7.95-6.7,34.25,34.25,0,0,0,8.2-20,5.67,5.67,0,0,0-5.64-5.63,5.77,5.77,0,0,0-5.63,5.63c0,.37-.06.74-.09,1.1-.09,1.31.25-1.32,0,0-.11.61-.21,1.21-.35,1.81a30.68,30.68,0,0,1-1.21,3.85c-.46,1.21.57-1.16,0,0-.13.28-.26.56-.4.83-.3.61-.62,1.2-1,1.78s-.64,1-1,1.55l-.53.75c-.84,1.16.61-.68-.13.17a35.07,35.07,0,0,1-2.65,2.8c-.25.24-1.21,1.34-1.53,1.32.19,0,.92-.67.26-.22-.4.28-.8.57-1.21.83a30.22,30.22,0,0,1-3.3,1.81c-1.36.67,1.09-.39-.33.15l-1.29.49c-.85.32-1.72.61-2.58.92a71,71,0,0,0-16.11,8.18c-4.66,3.11-9.18,6.48-14.16,9.08-.55.29-1.11.56-1.67.83l-1,.47c-1.15.53.91-.35.14-.06a41.08,41.08,0,0,1-4.06,1.35c-.6.15-1.21.29-1.83.41a6.1,6.1,0,0,1-1.12.19c1.16,0,.38,0,.1,0a40.56,40.56,0,0,1-5.62.06,22.61,22.61,0,0,1-2.34-.23c1.24.24.18,0-.14,0l-1.17-.2c-1.8-.31-3.58-.71-5.36-1.13-3.33-.8-6.63-1.7-10-2.45-6.89-1.53-13.89-2.55-20.88-3.49-2-.28-4-.54-6-.81L83,173.6c-.2,0-1.81-.23-.42,0l-2.86-.4c-3.44-.48-6.89-1-10.3-1.61A55.23,55.23,0,0,1,64,170.28c-.88-.25-1.75-.54-2.61-.86l-.35-.12a10.72,10.72,0,0,1-1.24-.57,116.41,116.41,0,0,1-10.08-5.9L29.19,150.18a5.67,5.67,0,0,0-7.7,2,5.74,5.74,0,0,0,2,7.71Z"/></g><path class="cls-6" d="M53.76,126.74S156.58,166.44,175.45,116"/><line class="cls-6" x1="130.74" y1="204.27" x2="130.74" y2="231.79"/><g class="cls-7"><path class="cls-4" d="M55,157.34A17,17,0,0,1,41.52,174c-2,.4-1.17,3.51.86,3.11a20.2,20.2,0,0,0,15.81-19.77c0-2.06-3.27-2.07-3.22,0Z"/></g><g class="cls-7"><path class="cls-4" d="M134,173.8c.9,4.7,1.9,9.71.71,14.45-.9,3.57-3.13,7.11-6.72,8.41-1.94.7-1.1,3.81.85,3.1,4.46-1.61,7.45-5.49,8.78-9.95,1.64-5.5.53-11.36-.51-16.86-.39-2-3.49-1.18-3.11.85Z"/></g><g class="cls-7"><path class="cls-4" d="M185,151.51a12.72,12.72,0,0,0,8.29,13.07,1.61,1.61,0,0,0,.86-3.11,10,10,0,0,1-2.49-1.44,9.26,9.26,0,0,1-2.1-2.43,8.61,8.61,0,0,1-1.2-2.9c-.06-.29-.12-.58-.16-.87,0,.17,0,0,0-.06s0-.32,0-.48a10.6,10.6,0,0,1,.07-1.78,1.63,1.63,0,0,0-1.61-1.61,1.65,1.65,0,0,0-1.61,1.61Z"/></g><path class="cls-8" d="M80.82,135.78c-.06-.46,0-3.23,0-5a9,9,0,0,1,.89-3.83,13,13,0,0,1,6.76-6.34,4.88,4.88,0,0,1,1.85-.36h6.75a5.35,5.35,0,0,1,3.21,1.08l3.49,2.64a5,5,0,0,1,2,4v10.39a2.79,2.79,0,0,1-.59,1.71c-1.71,2.19-6.9,8.46-12.09,11a5.53,5.53,0,0,1-5.87-.55C84.88,148.75,82.06,144.74,80.82,135.78Z"/><path class="cls-8" d="M106.93,128.69l3.21-3.14a5.6,5.6,0,0,1,3.54-1.57l6-.37a7.58,7.58,0,0,1,2.07.15c2.75.58,9.79,2.42,10,6.13.11,1.76,0,9,0,10.92a3.34,3.34,0,0,1-.13.83c-.66,2.2-4,12.34-10.17,14-4.43,1.15-7,.14-8.23-.74a3.8,3.8,0,0,1-1.31-1.61L106,139.61a4.07,4.07,0,0,1-.33-1.61v-6.42A4.07,4.07,0,0,1,106.93,128.69Z"/><path class="cls-8" d="M132.78,128.94l6.13-5.59a4,4,0,0,1,2.41-1l9-.46a2.63,2.63,0,0,1,1.08.16,23.89,23.89,0,0,1,4.07,1.88,4.17,4.17,0,0,1,2,3.54v12.83a7.61,7.61,0,0,1-.24,1.9c-.95,3.63-4.68,16.19-11,16.58,0,0-4.48.45-8.43-10.14-.05-.12-.1-.23-.16-.35-.43-.82-2.31-4.26-4.51-5.89a3.53,3.53,0,0,1-1.44-2.89l.09-8.19A3.22,3.22,0,0,1,132.78,128.94Z"/><path class="cls-9" d="M142.13,123.48a18.25,18.25,0,0,0-6.82,6.83,13.79,13.79,0,0,0-1.52,5.17c-.18,1.81.09,3.64,0,5.46a3,3,0,0,0,3,3,3.07,3.07,0,0,0,3-3c.11-1.59-.08-3.18,0-4.76,0-.24,0-.47.05-.7,0-.47-.1.43,0,.05s.12-.59.2-.87c0,0,.3-.95.31-.95s-.26.56,0,.11l.25-.5a6.41,6.41,0,0,1,1-1.59c-.16.14-.29.34-.05.07l.29-.34c.22-.26.46-.5.7-.74s.43-.42.66-.62l.43-.37c.27-.23.08-.11-.07.05a7.72,7.72,0,0,1,1.69-1.14,3,3,0,0,0-3-5.16Z"/><path class="cls-9" d="M102.44,125.94c-2.59-2.64-6.12-5-10-4.77-3.68.18-7.28,2.38-8.34,6-.59,2.07-.33,4.41-.33,6.53s0,4.18,0,6.27c.1,3.85,1.23,8.34,5.12,10A3.1,3.1,0,0,0,93,149c.74-1.27.42-3.44-1.07-4.09a2.82,2.82,0,0,1-1.66-1.62,10.46,10.46,0,0,1-.51-3.89c0-3.22-.1-6.46,0-9.68a3.17,3.17,0,0,1,.07-.69c0-.13.27-.73.08-.35,0,0,.5-.72.23-.39,0-.06.56-.54.37-.39a4.12,4.12,0,0,1,1.94-.74c2.22,0,4.1,1.33,5.76,3,2.69,2.75,6.92-1.47,4.22-4.22Z"/><path class="cls-9" d="M112.63,125.44a13.68,13.68,0,0,0-2.92,2.66,8.53,8.53,0,0,0-1.45,3.9,52.07,52.07,0,0,0-.77,9.33,1.5,1.5,0,0,0,3,0,47.2,47.2,0,0,1,.57-8,8.46,8.46,0,0,1,.91-3.29,8.34,8.34,0,0,1,2.18-2,1.54,1.54,0,0,0,.54-2.05,1.51,1.51,0,0,0-2.05-.53Z"/><path class="cls-10" d="M177,91.5a11.14,11.14,0,0,1-9.23,4.19s-2.12,1-3.45-9.17c-.1-.8-2.06-12.24,6.34-12.35,0,0,2.63-3.28,6.34-2.6s6.49,6.34,6.9,11.43Z"/><path class="cls-9" d="M165.79,80.63a25.37,25.37,0,0,0,.59,5.36c.43,2,1,4,2.85,5.17a3,3,0,0,0,4.08-1.07A3,3,0,0,0,172.24,86l-.19-.13.6.47a2.83,2.83,0,0,1-.24-.25l.47.6a2.88,2.88,0,0,1-.36-.61l.31.71a16.93,16.93,0,0,1-1-4.1l.11.8a22.77,22.77,0,0,1-.19-2.86,3,3,0,1,0-6,0Z"/><path class="cls-8" d="M186.52,102.26l-10,3.17a4.26,4.26,0,0,1-3.4-.79c-1.58-1.25,0-6.8,0-6.8s3.06-12.12,11-16.08,7.47,7.59,7.7,10.64Z"/><path class="cls-9" d="M181.52,87.52l.23.45c.17.32-.22-.68,0-.06.08.29.14.59.23.88s-.05-.75,0-.1c0,.14,0,.27,0,.41a4.53,4.53,0,0,1,0,1s.13-.75,0-.09c0,.13-.06.26-.1.39s-.11.47-.16.48.3-.63,0-.07a8.42,8.42,0,0,1-.45.76c-.28.45.31-.35.07-.08s-.2.25-.31.36a23.57,23.57,0,0,1-2.64,2.35,17.73,17.73,0,0,0-3,3.08,3,3,0,1,0,5.16,3c-.53.71.17-.17.33-.34s.45-.45.69-.66c.5-.45,1-.88,1.55-1.3a16.65,16.65,0,0,0,3.18-3.26,9.81,9.81,0,0,0,.42-10.24,3,3,0,1,0-5.16,3Z"/><path class="cls-8" d="M181.5,109.84V108a3.32,3.32,0,0,1,.72-2.07c1.85-2.36,6.77-8.83,8.23-13,0,0,.22-1.93,1.92-1.93a2.24,2.24,0,0,1,2,1.62,2.39,2.39,0,0,1,.18.92c0,1.84.09,9.62-1.7,11.62Z"/><path class="cls-9" d="M189,97.72a6.76,6.76,0,0,1,0,1.19c0,.23.05-.21,0,0l-.06.27a6.25,6.25,0,0,1-.16.62,4.81,4.81,0,0,1-.2.53l0,0c-.05.1-.1.21-.16.31a8.42,8.42,0,0,1-.64,1l-.17.24,0,0c-.13.14-.25.29-.38.44-.28.3-.57.6-.87.88-.61.59-1.26,1.14-1.91,1.69a1.5,1.5,0,0,0,0,2.11,1.53,1.53,0,0,0,2.11,0c2.79-2.36,5.91-5.4,5.47-9.41a1.53,1.53,0,0,0-1.49-1.5,1.51,1.51,0,0,0-1.5,1.5Z"/><path class="cls-8" d="M183.54,109.16s5.55-8.6,8.38-9.73c0,0,1.7-.23,1.93,1.81,0,0-.8,18.34-2.84,23.21s-3.28,4.87-3.28,4.87-1.36,1.36-3.28-5.09S183.54,109.16,183.54,109.16Z"/><path class="cls-8" d="M171.88,116.53s.11-2.38,3.05-4.19l7.44-4.17a1.62,1.62,0,0,1,2.1.42c1.73,2.3,4.4,9.31-2.06,28.43,0,0-1.33,2.84-3.21,0,0,0-5.17-7.36-5.85-7.47Z"/><path class="cls-9" d="M182.26,109.31q-2.34,1.45-4.58,3.07c-1.39,1-2.84,2-3.48,3.66a16.72,16.72,0,0,0-.58,5.42,56.23,56.23,0,0,0,.18,6c.15,1.91,3.14,1.92,3,0-.15-1.76-.21-3.52-.19-5.29a20.12,20.12,0,0,1,.3-4.72c.33-1.26,1.68-2,2.67-2.71q2.06-1.47,4.2-2.8c1.63-1,.14-3.6-1.51-2.58Z"/><path class="cls-8" d="M157.38,136.23a9.73,9.73,0,0,1,4.76,5.89c3.51,9.17,6.68,7.93,6.68,7.93,3.38-.9,5.54-17.12,6-21a14.84,14.84,0,0,0,.09-1.63v-8.16a3.32,3.32,0,0,0-.34-1.49l-.68-1.43a1.65,1.65,0,0,0-1.48-.93h-1.08a3.17,3.17,0,0,0-1.56.42l-11.36,6.46a2.08,2.08,0,0,0-1.05,1.81Z"/><path class="cls-9" d="M170.66,117.27a58.24,58.24,0,0,0-7.4,4.81,9.55,9.55,0,0,0-2.65,2.65,9.32,9.32,0,0,0-1,3.81c-.27,2.58-.47,5.32.55,7.77a18.5,18.5,0,0,0,2.22,3.39,8.76,8.76,0,0,1,1.56,3.87,1.55,1.55,0,0,0,1.5,1.49,1.49,1.49,0,0,0,1.49-1.49,13.22,13.22,0,0,0-2.83-6.51c-1.61-2.11-1.83-4.26-1.65-6.86a12.68,12.68,0,0,1,.49-3.42,6,6,0,0,1,2.36-2.53,55.91,55.91,0,0,1,6.86-4.4c1.68-.92.18-3.5-1.51-2.58Z"/><path class="cls-11" d="M86.18,125.46c1.28-1.62,3.79-1.57,5.68-1.43,2.38.17,3.7,2,4.78,3.89.82,1.46,1.8,2.7,3.65,2.47a4.8,4.8,0,0,0,2.13-.87,19.42,19.42,0,0,1,2.36-2c.43-.23,0-.87-.37-.65-1.73.9-2.94,3.43-5.27,2.7-1.16-.37-1.62-1.68-2.19-2.64a10.8,10.8,0,0,0-1.64-2.16c-1.43-1.39-3.17-1.56-5.09-1.52-1.66,0-3.47.29-4.57,1.67-.3.38.23.91.53.53Z"/><path class="cls-11" d="M96.08,126.15l3.62,1.21c.46.15.65-.57.2-.72l-3.62-1.21c-.46-.15-.66.57-.2.72Z"/><path class="cls-11" d="M97.9,125.7v.08a1.09,1.09,0,0,1,0-.18l0,.1a.83.83,0,0,1,.06-.21l0,.09a1.08,1.08,0,0,1,.11-.18l-.06.07a1.21,1.21,0,0,1,.16-.16l-.08.06a1.18,1.18,0,0,1,.19-.11l-.09,0,.18,0-.1,0h.06a.41.41,0,0,0,.26-.11.33.33,0,0,0,.11-.26.35.35,0,0,0-.11-.27.41.41,0,0,0-.26-.11,1.25,1.25,0,0,0-.5.14,1.1,1.1,0,0,0-.33.28,1.17,1.17,0,0,0-.25.45,1.11,1.11,0,0,0,0,.25,2.11,2.11,0,0,0,0,.26.36.36,0,0,0,.17.23.48.48,0,0,0,.29,0,.41.41,0,0,0,.23-.18l0-.09a.31.31,0,0,0,0-.19Z"/><path class="cls-11" d="M160.87,123A50.76,50.76,0,0,0,172,117.5c.4-.26,0-.91-.38-.64a50,50,0,0,1-11,5.45c-.45.16-.26.88.2.72Z"/><path class="cls-11" d="M161.7,124.15a22.41,22.41,0,0,0,0,4.41c.21,1.58,1,2.77,1.5,4.25a19.34,19.34,0,0,1,.44,5.27l.2,5.39c0,.48.76.48.74,0l-.19-5.39a29.79,29.79,0,0,0-.3-4.82c-.3-1.5-1.28-2.74-1.57-4.26a18.75,18.75,0,0,1-.06-4.85c0-.48-.71-.48-.75,0Z"/><path class="cls-11" d="M183.68,110.17c-.79,1.6-2.43,2.31-3.88,3.18a7.78,7.78,0,0,0-3.33,3.55,11.92,11.92,0,0,0-.78,5.55c.15,2.43.53,4.85.83,7.27,0,.47.8.48.74,0-.27-2.24-.6-4.48-.78-6.73a11.2,11.2,0,0,1,.9-6.26c1.55-2.93,5.48-3.23,6.94-6.18.21-.43-.43-.81-.64-.38Z"/><path class="cls-11" d="M191.71,94.84c.5.24.59.88.59,1.38a4.26,4.26,0,0,0,.27,2.24c.23.42.87.05.64-.38-.36-.65-.12-1.45-.18-2.16a2,2,0,0,0-.94-1.73c-.43-.21-.81.43-.38.65Z"/><path class="cls-11" d="M187,84c.64.21.88,1,1,1.55.23,1,.37,2,.54,2.92.09.47.81.27.72-.2L189,86.47a13.93,13.93,0,0,0-.29-1.4,2.46,2.46,0,0,0-1.48-1.82c-.46-.15-.66.57-.2.72Z"/><path class="cls-11" d="M188.14,92.65A7.33,7.33,0,0,1,184,97.39a.37.37,0,0,0-.14.51.39.39,0,0,0,.52.13,8,8,0,0,0,4.46-5.19.37.37,0,0,0-.72-.19Z"/><path class="cls-11" d="M170.56,75.88a13.3,13.3,0,0,1,2.62,5,.37.37,0,0,0,.72-.19,14.1,14.1,0,0,0-2.81-5.38c-.31-.37-.84.16-.53.53Z"/><path class="cls-11" d="M172.88,78.62a21.41,21.41,0,0,1,4,.39c.47.1.67-.62.19-.72a21.62,21.62,0,0,0-4.18-.41.37.37,0,0,0,0,.74Z"/><path class="cls-11" d="M175.14,74c1.66,1,3.47,2,4.27,3.85.3.67.65,1.81-.14,2.26a13,13,0,0,0-2,.91c-.37.3.16.83.53.53.64-.52,1.57-.48,2.18-1.06s.5-1.87.18-2.7c-.82-2.12-2.79-3.34-4.67-4.44a.38.38,0,0,0-.38.65Z"/><path class="cls-12" d="M56,81.06,21.35,66.34s-10.91-.72-10.91,15.58c0,0-5.77,26.3,61.8,33.45a5.53,5.53,0,0,0,6-6.76,40.21,40.21,0,0,1,.59-19.53,3.89,3.89,0,0,0-3.11-4.88Z"/><path class="cls-12" d="M104.24,6.36S96.7,5.9,96.86,15C97,24.6,95.5,34.76,110.94,43.2A18.93,18.93,0,0,0,115,44.71l31.68,8.56,5.82,1.63a4,4,0,0,0,5-3.74c.07-5.2-1.29-8.45,2.87-13.44,0,0,5-8.74-.34-10.75"/><path class="cls-8" d="M39.92,57.17a4,4,0,0,0,3.73,1.68,12.64,12.64,0,0,0,2.61-.61A9.53,9.53,0,0,1,52,58a3.2,3.2,0,0,1,1.62,1.12c2.52,3.3,1.93,5.88,1.93,5.88L52.38,82.82,45.49,87.6a3.91,3.91,0,0,1-2.33.76H39.47a3.1,3.1,0,0,1-1.68-.48L33.9,85.45A3.25,3.25,0,0,0,32.21,85H28.9a4.49,4.49,0,0,1-2.21-.57A11.78,11.78,0,0,1,22,79.53c-2.27-4.3-1.59-17.67-1.59-17.67,1.81-8.15,7.47-7,7.47-7l6.87,0a6.14,6.14,0,0,1,3.9,1.37Z"/><path class="cls-8" d="M65.17,63.56H59.55a4.5,4.5,0,0,0-1.74.34c-2,.85-6.74,3.35-6.57,8.16l.57,12.45s.45,5.78,1.92,7.25c1.33,1.32,1.92,2.56,5.72,3.28a4.4,4.4,0,0,1,1.87.9c.56.45,1.85,1,4.76,1,4.12.09,7.25-3.44,8.38-4.91a19.94,19.94,0,0,1,1.46-1.71l.12-.12a17.16,17.16,0,0,0,3.58-5.82l3.19-8.7a6,6,0,0,0-1.65-6.61L81,69a3.14,3.14,0,0,0-1.94-.7l-2.75-.06a3.75,3.75,0,0,1-2.8-1.35,12.2,12.2,0,0,0-3.52-3,3.16,3.16,0,0,0-1.36-.28Z"/><path class="cls-8" d="M112.45,23.27a2.44,2.44,0,0,1,1.61.61c1,.92,3.13,2.54,5.25,2.54,2.94,0,5.2-3.15,5.2-3.15L130.88,11s.54-3.74-1.95-5.33a6.21,6.21,0,0,0-3.85-.86A4.16,4.16,0,0,1,122,3.78l-2.17-1.93A5,5,0,0,0,116.51.6H112a5.47,5.47,0,0,0-2.32.5c-1.5.71-4,2.2-4.86,4.71-1.14,3.13-.37,8.72-.09,10.45a4.67,4.67,0,0,0,.3,1A20.57,20.57,0,0,0,107.68,22a3.5,3.5,0,0,0,2.71,1.27Z"/><path class="cls-9" d="M113.51,17.37c-.08,0-.61-.3-.22-.07s0-.05-.09-.12.25.45,0,0l-.22-.41c.3.52.05.11,0-.08s-.13-.45-.18-.68-.07-.37-.1-.55c.07.43,0,0,0-.21a43.35,43.35,0,0,1-.17-5.35l0-.53c0-.58-.08.21,0-.13a10.41,10.41,0,0,1,.3-1.13c-.08.24-.17.34,0,.06,0,0,.41-.61.15-.26s.19-.19.21-.21c.32-.35,0,.1-.11,0s.39-.26.45-.29l.18-.1q.32-.15-.24.09c0-.06.33-.1.39-.13l.28-.07c-.28,0-.31,0-.09,0a7.8,7.8,0,0,1,1.28,0c-.32,0-.16,0,.06,0s.57.13.85.21a3,3,0,0,0,3.67-2.09,3,3,0,0,0-2.08-3.68c-2.51-.65-5.34-.78-7.59.72a8.48,8.48,0,0,0-3.67,6.63,32.22,32.22,0,0,0,.2,6.87c.32,2.51,1.21,5.43,3.71,6.59a3.05,3.05,0,0,0,4.09-1.07c.7-1.32.45-3.38-1.07-4.09Z"/><path class="cls-9" d="M121.94,8.81a.54.54,0,0,1,.18.11l-.3-.24a1.62,1.62,0,0,1,.18.19l-.24-.31c.2.26.32.58.5.84A2.57,2.57,0,0,0,124,10.56a3.59,3.59,0,0,0,1.89-.16,3.78,3.78,0,0,0,1.53-1.05,1.61,1.61,0,0,0,.44-1.06,1.52,1.52,0,0,0-.44-1.06,1.48,1.48,0,0,0-1.05-.43,1.42,1.42,0,0,0-1.06.43,2.11,2.11,0,0,1-.4.39l.3-.23a2.52,2.52,0,0,1-.48.28l.36-.16a2.36,2.36,0,0,1-.59.17l.4-.06a2.18,2.18,0,0,1-.51,0l.4,0a1.14,1.14,0,0,1-.33-.08l.35.15-.22-.13.3.23-.18-.19.24.31a7.49,7.49,0,0,1-.42-.72,2.59,2.59,0,0,0-1-1,1.54,1.54,0,0,0-1.15-.15,1.49,1.49,0,0,0-.89.68,1.46,1.46,0,0,0-.15,1.15,1.48,1.48,0,0,0,.68.9Z"/><path class="cls-9" d="M34.93,57.28c-3.23.42-6.59-.73-9.59,1.09-3.35,2-4.11,6.05-3.68,9.68.4,3.45.93,7.1,2.83,10.1a11.14,11.14,0,0,0,8.21,5.33c1.6.2,3-1.52,3-3a3.06,3.06,0,0,0-3-3c.58.07-.31-.11-.35-.12-.49-.11,0,.06-.23-.07a5.75,5.75,0,0,1-.77-.42c-.13-.08-.54-.39-.22-.13A9,9,0,0,1,30,75.61c-.13-.16-.13-.16,0,0l-.17-.24c-.16-.25-.32-.5-.46-.76a11.81,11.81,0,0,1-1.13-3.18c-.14-.62-.26-1.25-.37-1.88s-.17-1.08-.22-1.51c-.07-.63-.13-1.26-.14-1.89A6.07,6.07,0,0,1,27.55,65c-.07.38.14-.48.14-.46l.09-.28c-.1.2-.1.21,0,0a4.06,4.06,0,0,1,.38-.63c-.37.47.4-.36,0,0,.09-.07.83-.44.37-.26a4.34,4.34,0,0,1,.73-.19c.28-.06-.25,0,.27,0s1.17,0,1.75,0a20,20,0,0,0,3.71,0,3.09,3.09,0,0,0,3-3c0-1.46-1.37-3.2-3-3Z"/><path class="cls-9" d="M63.69,65a9.57,9.57,0,0,0-7.53,3.91c-1.88,2.52-1.82,5.53-1.81,8.54,0,3.22-.11,6.46,0,9.68.15,3.62,2.63,5.44,5.84,6.47a3,3,0,0,0,1.59-5.77l-.61-.2c-.07,0-.46-.18-.19-.06a5.93,5.93,0,0,1-.56-.29c-.14-.08-.33-.3-.13-.09s-.09,0-.07-.12c0,0,.11,0,.11.06,0-.59,0-1.17,0-1.76V77.86c0-1.15,0-2.31,0-3.45a3.83,3.83,0,0,1,.53-1.88,3.43,3.43,0,0,1,2.82-1.6c3.84-.08,3.86-6.06,0-6Z"/><path class="cls-8" d="M125.2,28.52a3.88,3.88,0,0,0,2.09,1.69c8.44,2.84,6.07,3.61,8.89,4.59s4.45,0,4.45,0l8.46-5.66L152.15,22a11.47,11.47,0,0,0-1.69-6.82,3.76,3.76,0,0,0-3.15-1.77l-3.2-.06a4.06,4.06,0,0,1-3-1.45c-1-1.2-2.56-2.77-4-3.11a4.43,4.43,0,0,0-3.7,1.31,3.89,3.89,0,0,1-2.51,1h-1.29a3.4,3.4,0,0,0-2.85,1.53s-3.81,3.56-3.7,8.32A14.82,14.82,0,0,0,125.2,28.52Z"/><path class="cls-9" d="M133.64,13a3.17,3.17,0,0,0,2.93,2.32c.56.08,1.09.09,1.58.19.3.06.6.13.9.22l.44.15s.38.17.18.07l.27.14.22.14c-.11-.09.15.19,0,0a1.66,1.66,0,0,1,.18.35A2.82,2.82,0,0,0,141.6,18a5.67,5.67,0,0,0,4.15-.05,1.53,1.53,0,0,0,1.05-1.84A1.51,1.51,0,0,0,145,15a4.28,4.28,0,0,1-1.27.28h-.37s-.48,0-.33,0-.15-.1-.05,0l.14.09a4,4,0,0,0-.2-.46,3.33,3.33,0,0,0-.49-.69,3.77,3.77,0,0,0-1.21-.88,10.32,10.32,0,0,0-3.18-.89,12.38,12.38,0,0,1-1.27-.15s-.32-.11-.2-.05-.15-.15,0,0,0,0,0,0h0s.13.41.05,0a1.5,1.5,0,0,0-1.84-1,1.53,1.53,0,0,0-1,1.84Z"/><path class="cls-9" d="M124.91,20c-.35,3.29-.23,8.14,3.21,9.8a11.08,11.08,0,0,0,3.1.66c-.55-.1.84.39.32.12a4.92,4.92,0,0,1,.78.5c-.32-.25.38.36.46.43.26.24.51.49.78.71a5,5,0,0,0,3.12,1.27c7.07.44,14-5,14.29-12.21a3,3,0,1,0-6,0,5.64,5.64,0,0,1-.64,2.34q-.24.42-.51.81l-.18.26c.09-.14.08-.13,0,0s-.37.4-.57.59c0,0-.68.6-.4.38a8.08,8.08,0,0,1-2.83,1.44,13.16,13.16,0,0,1-1.59.35,5.88,5.88,0,0,0-1.55,0l.74.18q.27.21,0,0a2.79,2.79,0,0,0-.56-.52,16.46,16.46,0,0,0-1.8-1.44,9.13,9.13,0,0,0-4.2-1.28c-.38-.05-.24-.15-.1,0s.25.25.36.39c-.31-.38,0,.23-.1-.26,0-.23-.1-.46-.14-.69a15.45,15.45,0,0,1,0-3.91,3,3,0,0,0-3-3,3,3,0,0,0-3,3Z"/><path class="cls-13" d="M151.41,38.64a8.73,8.73,0,0,1-4.63-6.91c-.06-.49-.11-1-.13-1.57l.22-5.19a5.76,5.76,0,0,1,2.53-4.71,8.93,8.93,0,0,1,3.08-1.11,2.32,2.32,0,0,0,1.27-.65,6.72,6.72,0,0,1,4.56-1.63c1.95-.07,3.22,1.86,4,3.82a15.74,15.74,0,0,1,1,7.07C162.88,33.15,160.84,43.18,151.41,38.64Z"/><path class="cls-9" d="M148.43,30.57c.11.37.17.75.29,1.11a7.73,7.73,0,0,0,.67,1.5,7.5,7.5,0,0,0,2.22,2.3,6.82,6.82,0,0,0,3.21,1.08,4,4,0,0,0,1,0,7.36,7.36,0,0,0,1.8-.35,3.29,3.29,0,0,0,1.79-1.38,3,3,0,0,0-1.08-4.09,3,3,0,0,0-2.3-.3,4.22,4.22,0,0,1-.91.24l.79-.11a4.28,4.28,0,0,1-1.13,0l.8.1a3.81,3.81,0,0,1-1-.28l.71.31a4.26,4.26,0,0,1-.87-.52l.6.47a4.63,4.63,0,0,1-.7-.7l.47.6a4.27,4.27,0,0,1-.54-.92l.3.71c-.18-.44-.26-.92-.4-1.38a3.13,3.13,0,0,0-1.37-1.78,3,3,0,0,0-4.09,1.07,3.08,3.08,0,0,0-.3,2.3Z"/><path class="cls-11" d="M25.11,59.8l.08-.12s0,0,0,0,0,0,0,0l.18-.19.21-.19h0s0,0,.06,0l.12-.07L26,59l.11,0h0l.07,0a3.18,3.18,0,0,1,.53-.14.37.37,0,0,0,.26-.46.39.39,0,0,0-.46-.26,3.06,3.06,0,0,0-2.06,1.36.38.38,0,0,0,.14.51.39.39,0,0,0,.51-.13Z"/><path class="cls-11" d="M25.61,61.77a8.79,8.79,0,0,1,4.14,1.93,26.7,26.7,0,0,0,2.89,2.74c2,1.27,4.5.78,6.72.75a6,6,0,0,1,3.94,1c.78.61,1.44,1.3,2.51,1.22,2.35-.16,4.55-2.24,5.71-4.14.25-.41-.4-.79-.65-.38a8.37,8.37,0,0,1-2.73,2.82,5.32,5.32,0,0,1-2,.9c-1.1.1-1.63-.46-2.41-1.06-1.57-1.21-3.51-1.2-5.41-1.11a15.92,15.92,0,0,1-3.45,0,5.62,5.62,0,0,1-3.27-2,10.27,10.27,0,0,0-5.76-3.42c-.47-.09-.67.63-.19.72Z"/><path class="cls-11" d="M30.87,60.35a11.38,11.38,0,0,0,2.95,2.25,9.72,9.72,0,0,0,3.52,1.46c2.39.38,5.71-1,7.52,1.2.3.37.83-.16.53-.53-1.64-2-4.38-1.38-6.61-1.33a7.66,7.66,0,0,1-4.06-1.13,11.82,11.82,0,0,1-3.32-2.45c-.3-.37-.83.16-.53.53Z"/><path class="cls-11" d="M38.08,63.7l2.72-2.12a.38.38,0,0,0,0-.53.39.39,0,0,0-.53,0l-2.71,2.12a.38.38,0,0,0,0,.53.38.38,0,0,0,.52,0Z"/><path class="cls-11" d="M56.6,66.93A1.62,1.62,0,0,0,57,70.12a.38.38,0,0,0,.37-.37.38.38,0,0,0-.37-.38h-.1c.08,0,0,0,0,0l-.1,0s-.11,0,0,0l-.16-.09s-.09-.07-.06,0l0,0L56.28,69c0,.06,0,0,0,0a.41.41,0,0,1,0-.09s-.05-.1,0,0l0-.08,0-.1s0,0,0,0,0,0,0,0v-.19c0-.1,0,.07,0,0a.3.3,0,0,1,0-.1l0-.1c0-.07,0,0,0,0l.09-.16s.05-.06,0,0a.27.27,0,0,1,.07-.08.23.23,0,0,1,.07-.07s.09-.07,0,0l.18-.11c.06,0,0,0,0,0l.11,0a.37.37,0,1,0-.19-.72Z"/><path class="cls-11" d="M59.94,71.31c.84.38,1.28,1.17,1.92,1.79a3.29,3.29,0,0,0,2,.92,29.89,29.89,0,0,1,3.4.24,10.09,10.09,0,0,1,3.27,1.3,8.05,8.05,0,0,0,2.32,1.26,5.86,5.86,0,0,0,2.72-.24A4.43,4.43,0,0,0,79,73.75a.37.37,0,0,0-.72-.2c-.48,1.71-2.46,2.33-4,2.54-1.94.27-3.39-1.39-5.1-2.06a15.91,15.91,0,0,0-5-.74,3.1,3.1,0,0,1-2.36-1.35,4.55,4.55,0,0,0-1.51-1.28c-.43-.2-.81.45-.37.65Z"/><path class="cls-11" d="M63.05,67.74a1.32,1.32,0,0,1-.39,1.48.37.37,0,0,0,0,.64q2.06,1,4.18,1.88a.38.38,0,0,0,.46-.26A.37.37,0,0,0,67,71c-1.36-.55-2.69-1.15-4-1.8v.64a2,2,0,0,0,.74-2.31.38.38,0,0,0-.46-.26.37.37,0,0,0-.26.45Z"/><path class="cls-11" d="M72.52,69.51c0,.09,0,0,0-.06a1,1,0,0,1,.08-.14.21.21,0,0,1,0-.06l0,0s0,0,0,0l.06-.07a1.8,1.8,0,0,1,.2-.19c.06,0,0,0,0,0l.06,0,.13-.08.12-.06.07,0c-.08,0,0,0,0,0a1.61,1.61,0,0,1,.29-.09h.07c.08,0,0,0,0,0h.14a1.61,1.61,0,0,1,.31,0,.37.37,0,0,0,.37-.37.38.38,0,0,0-.37-.38,2.28,2.28,0,0,0-1.4.31,2.32,2.32,0,0,0-1,1.14.37.37,0,0,0,.26.45.38.38,0,0,0,.46-.26Z"/><path class="cls-11" d="M82,77.37a.38.38,0,0,0,0-.75.38.38,0,0,0,0,.75Z"/><path class="cls-11" d="M152.18,22a5.69,5.69,0,0,1,4.29,3.74c.15.46.87.26.72-.19a6.44,6.44,0,0,0-4.82-4.27c-.47-.09-.67.63-.19.72Z"/><path class="cls-11" d="M155.14,23.58a23.18,23.18,0,0,0,5.39-.25.37.37,0,0,0,.26-.46.39.39,0,0,0-.46-.26,22.56,22.56,0,0,1-5.19.23c-.48,0-.48.71,0,.74Z"/><path class="cls-11" d="M132.55,13.35a8,8,0,0,0,2,1.89,4.54,4.54,0,0,0,2.49.51,3.78,3.78,0,0,1,2.71.88c.63.55,1.15,1.2,1.78,1.74a4.88,4.88,0,0,0,4.65,1,3.11,3.11,0,0,0,2.42-3.61c-.11-.46-.84-.27-.72.2.5,2.12-2.08,3-3.76,2.85s-2.47-1.36-3.54-2.39A4.43,4.43,0,0,0,137.4,15a4.56,4.56,0,0,1-2.6-.47,7.75,7.75,0,0,1-1.72-1.71c-.31-.37-.83.16-.53.53Z"/><path class="cls-11" d="M139.38,15.79l2-.8a.38.38,0,0,0,.26-.46.38.38,0,0,0-.46-.26l-1.95.8a.37.37,0,0,0-.26.45.39.39,0,0,0,.46.27Z"/><path class="cls-11" d="M113.85,5.9l3.46,2.28a.37.37,0,0,0,.38-.64l-3.47-2.28a.37.37,0,1,0-.37.64Z"/><path class="cls-11" d="M115.1,9.54A8,8,0,0,0,117.3,9a22.89,22.89,0,0,0,2.11-1.29c1.9-1.09,2.64,1.57,3.51,2.7,1.71,2.23,5.86,1.07,6.56-1.53a.37.37,0,0,0-.72-.2,3.43,3.43,0,0,1-3.56,2.15c-1.79-.1-2.09-1.85-3-3a2.31,2.31,0,0,0-2.78-.92c-.67.29-1.21.82-1.85,1.17a6.84,6.84,0,0,1-2.45.79c-.47.07-.48.81,0,.75Z"/><path class="cls-11" d="M120.94,7.13a4.37,4.37,0,0,0,1.45-.49.37.37,0,0,0,.13-.51A.38.38,0,0,0,122,6l-.16.08-.08,0-.09,0s.06,0,0,0l0,0-.09,0-.16.06a4.3,4.3,0,0,1-.69.16.38.38,0,0,0-.22.17.37.37,0,0,0,0,.29.44.44,0,0,0,.17.23.41.41,0,0,0,.29,0Z"/><path class="cls-11" d="M111.28,4.42c0-.09,0,.07,0,0l0-.08.07-.11s.07-.08,0,0l0-.06.1-.1.06,0c.07-.06-.07,0,0,0l.11-.08.14-.07,0,0h0a2.45,2.45,0,0,1,.29-.08s-.08,0,0,0h.34s0,0,0,0a.35.35,0,0,1,.14,0l.15,0c-.09,0,0,0,0,0l.07,0a.38.38,0,0,0,.51-.14.38.38,0,0,0-.13-.51,1.89,1.89,0,0,0-1.56-.1,1.93,1.93,0,0,0-1.17,1.12.38.38,0,0,0,.26.46.39.39,0,0,0,.46-.26Z"/><g class="cls-14"><path class="cls-3" d="M16.2,91.43c4.22,6.52,11.21,10.31,18.29,13a96.64,96.64,0,0,0,20.67,5c2.32.33,4.93-.57,5.52-3.13.48-2.12-.65-5.16-3.13-5.52a99.23,99.23,0,0,1-19.69-4.62c-.82-.3-1.63-.62-2.44-.94-.47-.19-.43-.18.11.05L34.9,95l-1.08-.5a40.28,40.28,0,0,1-4.37-2.4,11.75,11.75,0,0,1-2-1.37c.86.87-.1-.09-.3-.27s-.54-.47-.8-.72a21.66,21.66,0,0,1-1.57-1.61l-.38-.46c-.3-.37-.24-.3.17.22-.11,0-.59-.85-.66-1a4.48,4.48,0,1,0-7.74,4.52Z"/></g><path class="cls-16" d="M81.88,82.65s1.1-6.77,6.56-2.38c0,0,14.56,13.24,33.7,10.51S159.71,75,159.71,75a28.61,28.61,0,0,0,7.18-6,18.92,18.92,0,0,0,2.69-19.59c-1.33-3.06-3.59-8.08-6-9.66l-2.69-4.88S148.29,41,162.75,52.29c0,0,7.23,6,1.17,13.8S142.56,80,142.56,80l-7.5,3A39.75,39.75,0,0,1,120.86,86c-8.68.15-21.72-1.12-28.33-9.12a2,2,0,0,1-.44-1.06c-.13-1.07-.35-2,3.15-2.59,0,0-16.92-8.22-13.36,9.73"/><path class="cls-17" d="M89.61,97.08,86.76,96A5.19,5.19,0,0,1,84,92.78L81.92,87a8.76,8.76,0,0,1-.47-3.62c.26-3.25,1.52-8.68,7.25-5.68,0,0,4.26-10.1,11.32,3.06.59,1.11,1.67,1.4,2.48.62h0a3.47,3.47,0,0,0,.51-3.78c-1.71-3.5-6.28-9.4-17.17-7.75,0,0-14.91,4.59-6.06,27.6a8.12,8.12,0,0,0,4.44,5c2.13.76,4.88,1.47,6.23.68a2.62,2.62,0,0,0,1.19-2.47A3.78,3.78,0,0,0,89.61,97.08Z"/><path class="cls-18" d="M167.31,24.52s-5.94.11-7.84,5.65a18.41,18.41,0,0,0-.45,8.37c.55,3.85,2.69,7.39,5.6,8.74a5,5,0,0,0,3.32.51c6.45-1.37,7.79-6,8.07-8a1.9,1.9,0,0,0-.34-1.58c-.57-.5-1.71.74-1.71.74-2.05,2-6,5.13-7.89,3s.23-5.67.23-5.67a2,2,0,0,1-2.83-.34,3.62,3.62,0,0,1-1-3.2c.75-3.51,5.68-7.24,5.68-7.24S168.54,24.51,167.31,24.52Z"/><path class="cls-19" d="M88.86,103.72a14.9,14.9,0,0,1-4.72-1,8.35,8.35,0,0,1-4.59-5.12c-3.34-8.69-3.73-15.79-1.15-21.09a13.37,13.37,0,0,1,7.37-6.84,24.12,24.12,0,0,1,3.68-.29c8.51,0,12.29,5.12,13.79,8.17a3.7,3.7,0,0,1-.57,4.07,1.68,1.68,0,0,1-1.17.51,2,2,0,0,1-1.7-1.19c-2.36-4.4-4.63-6.63-6.74-6.63-2.6,0-4.12,3.52-4.13,3.55l-.35.13a6.24,6.24,0,0,0-2.86-.85c-3.06,0-3.83,4-4,6.32a8.42,8.42,0,0,0,.45,3.51l2.08,5.77a4.92,4.92,0,0,0,2.62,3.06l2.85,1.09a4,4,0,0,1,2.19,3.81,2.83,2.83,0,0,1-1.31,2.68,3.42,3.42,0,0,1-1.72.38Z"/><path class="cls-20" d="M89.46,69.59c8.31,0,12,5,13.55,8a3.47,3.47,0,0,1-.51,3.78,1.44,1.44,0,0,1-1,.44A1.74,1.74,0,0,1,100,80.78c-2.79-5.19-5.13-6.76-7-6.76-2.8,0-4.36,3.7-4.36,3.7a6.59,6.59,0,0,0-3-.87c-3.22,0-4.06,4-4.27,6.55A8.76,8.76,0,0,0,81.92,87L84,92.78A5.19,5.19,0,0,0,86.76,96l2.85,1.09a3.78,3.78,0,0,1,2,3.58,2.62,2.62,0,0,1-1.19,2.47,3.2,3.2,0,0,1-1.59.34,15.35,15.35,0,0,1-4.64-1,8.12,8.12,0,0,1-4.44-5c-8.85-23,6.06-27.6,6.06-27.6a24.92,24.92,0,0,1,3.62-.28m0-.5a25.06,25.06,0,0,0-3.69.29l-.07,0a13.54,13.54,0,0,0-7.52,7C75.56,81.73,76,88.89,79.31,97.65a8.66,8.66,0,0,0,4.75,5.27,15,15,0,0,0,4.8,1,3.73,3.73,0,0,0,1.85-.41,3.11,3.11,0,0,0,1.43-2.9,4.26,4.26,0,0,0-2.35-4l-2.85-1.1a4.66,4.66,0,0,1-2.47-2.9l-2.08-5.77A8.3,8.3,0,0,1,82,83.44c.18-2.27.91-6.09,3.77-6.09a6,6,0,0,1,2.75.82l.69-.25s1.47-3.4,3.9-3.4c2,0,4.24,2.25,6.52,6.5a2.26,2.26,0,0,0,1.92,1.32,1.94,1.94,0,0,0,1.35-.58,4,4,0,0,0,.61-4.36c-1.52-3.1-5.37-8.31-14-8.31Z"/><path class="cls-21" d="M167.12,48.14a6.11,6.11,0,0,1-2.6-.63c-2.91-1.35-5.17-4.86-5.75-8.93a18.29,18.29,0,0,1,.46-8.49c1.94-5.64,8-5.82,8.07-5.82h0a1.09,1.09,0,0,1,1,.4,1.15,1.15,0,0,1,.06,1l-.08.1c-.05,0-4.87,3.72-5.59,7.09a3.36,3.36,0,0,0,1,3,2.18,2.18,0,0,0,1.48.74,1.63,1.63,0,0,0,1-.41l.37.33s-2,3.4-.25,5.36a1.86,1.86,0,0,0,1.44.61c2,0,4.66-2.28,6.09-3.64.08-.09.87-.93,1.55-.93a.76.76,0,0,1,.5.19,2.11,2.11,0,0,1,.41,1.79c-.27,2-1.64,6.77-8.26,8.18h0A3.11,3.11,0,0,1,167.12,48.14Z"/><path class="cls-20" d="M167.32,24.52c1.22,0,.8,1,.8,1s-4.93,3.73-5.68,7.24a3.62,3.62,0,0,0,1,3.2,2.48,2.48,0,0,0,1.65.8,1.87,1.87,0,0,0,1.18-.46s-2.17,3.54-.23,5.67a2.11,2.11,0,0,0,1.63.69c2,0,4.69-2.21,6.26-3.71,0,0,.79-.86,1.38-.86a.5.5,0,0,1,.33.12,1.9,1.9,0,0,1,.34,1.58c-.28,2-1.62,6.59-8.07,8a2.84,2.84,0,0,1-.82.1,5.89,5.89,0,0,1-2.5-.61c-2.91-1.35-5.05-4.89-5.6-8.74a18.41,18.41,0,0,1,.45-8.37c1.9-5.54,7.84-5.65,7.84-5.65h0m0-.5h0c-.07,0-6.32.19-8.31,6a18.66,18.66,0,0,0-.47,8.61c.6,4.15,2.91,7.73,5.89,9.12a6.56,6.56,0,0,0,2.71.65,3.49,3.49,0,0,0,1-.12c6.73-1.43,8.13-6.34,8.41-8.38a2.34,2.34,0,0,0-.5-2,1,1,0,0,0-.66-.25,3,3,0,0,0-1.75,1c-2.39,2.28-4.5,3.55-5.89,3.55a1.61,1.61,0,0,1-1.26-.53c-1.66-1.82.27-5,.29-5.06L166,36a1.41,1.41,0,0,1-.87.34,2,2,0,0,1-1.3-.66,3.11,3.11,0,0,1-.89-2.74c.7-3.28,5.44-6.9,5.49-6.94l.16-.21a1.38,1.38,0,0,0-.08-1.22,1.32,1.32,0,0,0-1.18-.51Z"/></g></g></svg>