<svg xmlns="http://www.w3.org/2000/svg" xmlns:xlink="http://www.w3.org/1999/xlink" viewBox="0 0 282.67 306.15"><defs><style>.cls-1,.cls-12{fill:none;}.cls-2{clip-path:url(#clip-path);}.cls-11,.cls-3,.cls-5{stroke:#676d66;}.cls-11,.cls-12,.cls-15,.cls-16,.cls-3,.cls-5,.cls-8{stroke-miterlimit:10;}.cls-16,.cls-3,.cls-5{stroke-width:0.79px;}.cls-3{fill:url(#무제_그라디언트_4);}.cls-4{fill:#e6dcd2;}.cls-5{fill:#f1e4e3;}.cls-6,.cls-8{fill:#e3a7a1;}.cls-7{fill:#edccc9;}.cls-8{stroke:#4a5151;}.cls-11,.cls-12,.cls-8{stroke-width:0.95px;}.cls-9{fill:#eeccc9;}.cls-10{fill:#f6e5e3;}.cls-11{fill:url(#무제_그라디언트_72);}.cls-12{stroke:#656c6e;}.cls-13{clip-path:url(#clip-path-2);}.cls-14{fill:#e7dcd2;}.cls-15,.cls-16{stroke:#231815;}.cls-15{fill:url(#무제_그라디언트_16);}.cls-16{fill:url(#무제_그라디언트_43);}.cls-17{fill:#424944;}</style><clipPath id="clip-path" transform="translate(14.05 20.69)"><rect id="SVGID" class="cls-1" width="244.96" height="257.95"/></clipPath><linearGradient id="무제_그라디언트_4" x1="67.04" y1="142.64" x2="67.04" y2="272.09" gradientUnits="userSpaceOnUse"><stop offset="0.48" stop-color="#ebe3d9"/><stop offset="0.61" stop-color="#f1eadd"/><stop offset="0.77" stop-color="#f3f1f0"/></linearGradient><linearGradient id="무제_그라디언트_72" x1="228.3" y1="158.36" x2="197.76" y2="273.28" gradientUnits="userSpaceOnUse"><stop offset="0.18" stop-color="#ebe3d9"/><stop offset="0.37" stop-color="#f2eadd"/><stop offset="0.62" stop-color="#f5f2f0"/></linearGradient><clipPath id="clip-path-2" transform="translate(14.05 20.69)"><path id="SVGID-2" data-name="SVGID" class="cls-1" d="M208.15,169.35c-14-13.17-20.13,3.2-20.13,3.2-.26.57-.54,1.15-.83,1.75-.09.19-.19.4-.29.59-.2.41-.39.81-.6,1.23l-.36.71c-.2.39-.4.78-.61,1.17s-.26.51-.4.76l-.62,1.18-.42.79-.67,1.22-.42.77c-.24.44-.49.88-.75,1.33-.12.23-.25.46-.38.69l-.95,1.67-.22.37-1.21,2.09-.28.48-.95,1.6c-.15.25-.3.5-.44.75l-.8,1.32-.5.83-.78,1.29-.5.81c-.26.43-.53.86-.8,1.29-.16.27-.32.53-.49.79l-.81,1.32c-.16.24-.31.49-.46.73l-.95,1.51c-.1.17-.21.34-.32.51l-1.26,2-.18.27-1.08,1.7-.34.52-.87,1.35-.45.69-.75,1.15c-.15.23-.3.46-.44.69l-.75,1.13c-.13.21-.27.41-.4.61-.24.38-.48.74-.72,1.1l-.39.59-.79,1.2c-.08.12-.17.24-.24.36l-2,2.94-.19.29c-.23.33-.44.66-.65,1l-.33.49-.48.71-.26.38c-.18.26-.34.51-.51.75l-.17.26c-.16.22-.3.44-.44.64l-.2.29-.38.55-.11.17-.05.08a20.22,20.22,0,0,1-2.11,2.5l-.38.43-.82.93c-.3.35-.6.7-.88,1.06s-.49.65-.73,1-.52.74-.76,1.11-.44.67-.64,1-.46.76-.67,1.14-.38.69-.55,1-.4.78-.58,1.17l-.48,1c-.17.39-.33.78-.48,1.18s-.28.69-.4,1-.28.79-.41,1.19-.23.69-.34,1-.23.79-.33,1.19-.19.67-.27,1-.19.79-.28,1.18l-.21,1c-.08.39-.14.77-.21,1.16s-.11.63-.16,1-.11.76-.16,1.13-.09.61-.12.9-.08.74-.11,1.1-.06.56-.08.84-.05.7-.07,1,0,.52-.05.77,0,.69,0,1,0,.44,0,.65,0,.69,0,1v.52c0,.48,0,.94,0,1.36H261.41V206C240.87,202.44,208.15,169.35,208.15,169.35Z"/></clipPath><radialGradient id="무제_그라디언트_16" cx="143.23" cy="200.53" r="41.74" gradientTransform="translate(31.91 339.87) rotate(-87.95) scale(1 0.53)" gradientUnits="userSpaceOnUse"><stop offset="0.25" stop-color="#e2d5c3"/><stop offset="1" stop-color="#fff"/></radialGradient><linearGradient id="무제_그라디언트_43" x1="-335.84" y1="92.88" x2="-300.03" y2="92.88" gradientTransform="matrix(-1, 0, 0, 1, -173.06, 0)" gradientUnits="userSpaceOnUse"><stop offset="0.48" stop-color="#ced0d6"/><stop offset="0.61" stop-color="#fff"/><stop offset="0.71" stop-color="#c9ccd0"/><stop offset="0.77" stop-color="#b1b6bb"/></linearGradient></defs><g id="레이어_2" data-name="레이어 2"><g id="레이어_1-2" data-name="레이어 1"><g class="cls-2"><path class="cls-3" d="M139.4,250.94c.19-11.81,1.51-23.46,2.54-35.21,1.06-12.13.39-24.08.2-36.22,0-1.93,0-3.85,0-5.78H-8.45v85.7H139.34C139.35,256.6,139.36,253.77,139.4,250.94Z" transform="translate(14.05 20.69)"/><path class="cls-4" d="M121.15,270.46a8.54,8.54,0,0,0,4.86.86c.52,0,1.13-.08,1.38-.53s0-.89,0-1.34a2,2,0,0,1,1.9-2,3.35,3.35,0,0,0,1,0c.7-.23.82-1.18.71-1.91a2.68,2.68,0,0,0-.72-1.66,3.12,3.12,0,0,0-2-.51l-2.81-.06a1.53,1.53,0,0,0-.9.18,1.47,1.47,0,0,0-.41.6,5.19,5.19,0,0,0-.67,2.43,7.76,7.76,0,0,1,.14,1.5c-.08.5-.57,1-1,.81-.2-.08-.35-.26-.56-.31s-.59.19-.75.47a3.34,3.34,0,0,1-.46.83" transform="translate(14.05 20.69)"/><path class="cls-4" d="M121.42,253.92a1,1,0,0,0-1.26.56A2.88,2.88,0,0,0,120,256a1.34,1.34,0,0,0,.16.63,1.27,1.27,0,0,0,.45.41,26.35,26.35,0,0,0,2.85,1.57,3,3,0,0,0,2.37.36c.8-.32,1.19-1.21,1.64-2a7.77,7.77,0,0,1,1.92-2.16c.21-.17.47-.37.46-.65s-.31-.51-.6-.62a3.71,3.71,0,0,0-2.74.09,11.25,11.25,0,0,1-2.15,1,4.44,4.44,0,0,1-3.18-1.08" transform="translate(14.05 20.69)"/><path class="cls-4" d="M139.35,264.26c0-1.49,0-3,0-4.48a4.14,4.14,0,0,0-1.91-.21,1.12,1.12,0,0,0-.56.2,1,1,0,0,0-.31.59,7.31,7.31,0,0,0,.4,2.83c.17.95-.09,2.16-1,2.42l.14.4a5.08,5.08,0,0,0,1.26,2.19c.34.35.85.66,1.28.44a1.18,1.18,0,0,0,.49-1.05c.07-.88,0-1.77.08-2.64A4.26,4.26,0,0,1,139.35,264.26Z" transform="translate(14.05 20.69)"/><path class="cls-4" d="M123.88,277.14a5.4,5.4,0,0,0,1,5.52,3.2,3.2,0,0,1,.6.77,6.86,6.86,0,0,1,.21.81,1.91,1.91,0,0,0,3,.8c.24-.21.41-.49.65-.7a2.74,2.74,0,0,1,2.18-.48c.66.09,1.48.22,1.87-.32a1.08,1.08,0,0,0,0-1.17,2.66,2.66,0,0,0-.91-.82,13.79,13.79,0,0,0-3-1.48,5.28,5.28,0,0,1-2.69-1.45,8.7,8.7,0,0,1-.69-1.32,1.69,1.69,0,0,0-1.08-.95c-.49-.1-1.07.3-1,.79" transform="translate(14.05 20.69)"/><path class="cls-4" d="M118.53,242.39a5.42,5.42,0,0,0,1,5.53,3.05,3.05,0,0,1,.59.76,5.7,5.7,0,0,1,.22.81,1.91,1.91,0,0,0,3,.81c.23-.22.41-.49.65-.71a2.74,2.74,0,0,1,2.18-.48c.66.09,1.48.23,1.87-.32a1.06,1.06,0,0,0,0-1.16,2.68,2.68,0,0,0-.91-.83,14.25,14.25,0,0,0-3-1.48,5.26,5.26,0,0,1-2.7-1.44,10.27,10.27,0,0,1-.68-1.32,1.73,1.73,0,0,0-1.08-1c-.49-.1-1.07.3-1,.79" transform="translate(14.05 20.69)"/><path class="cls-4" d="M141.05,225.46c.14-1.54.29-3.08.43-4.62a5.21,5.21,0,0,1-1.57-1.49c-.26-.48-.34-1-.6-1.51-.71-1.28-2.41-1.52-3.87-1.61l-1.57-.1a2,2,0,0,0-1.46.29c-.39.33-.34,1.13.17,1.2l.61.24a2.46,2.46,0,0,1,2.55.87,5.39,5.39,0,0,1,1,2.62,5.62,5.62,0,0,0,1,3,4.72,4.72,0,0,0,2.9,1.11Z" transform="translate(14.05 20.69)"/><path class="cls-4" d="M139.79,211.14a5.62,5.62,0,0,1,.6,2.09A4.34,4.34,0,0,0,142,215.6c.15-1.7.25-3.39.34-5.08l-.41-.34a2.28,2.28,0,0,0-1.49-.71c-.56,0-1.07.74-.7,1.16Z" transform="translate(14.05 20.69)"/><path class="cls-4" d="M116.06,225.19c.19.2,0,.55-.16.74-.88.84-2.51.68-3.15,1.71a2.81,2.81,0,0,0-.31,1c-.37,2.13-.7,4.28-1,6.43-.1.7,0,1.64.63,1.84s1-.27,1.43-.68a44.49,44.49,0,0,0,3.82-4.74,4.63,4.63,0,0,1,.94-1.12,7.13,7.13,0,0,0,1.32-1,2,2,0,0,0,.22-1.83,3.32,3.32,0,0,0-3.76-2.16" transform="translate(14.05 20.69)"/><path class="cls-4" d="M112.93,217.85l.65,1.41a2.87,2.87,0,0,0,.65,1,1,1,0,0,0,1.12.15,1.18,1.18,0,0,0,.44-.82,4,4,0,0,0-1.55-3.86,1.57,1.57,0,0,0-1.23-.36,1.26,1.26,0,0,0-.9,1.31,2.22,2.22,0,0,0,.82,1.48" transform="translate(14.05 20.69)"/><path class="cls-4" d="M120.7,217.31a4.3,4.3,0,0,0-.32,3.16,2.83,2.83,0,0,0,2.34,2,3.1,3.1,0,0,1,1.18.16c.75.4.68,1.63,1.42,2.06a1.3,1.3,0,0,0,1.73-.84,3.57,3.57,0,0,0-.16-2.16c-.24-.82-.5-1.63-.79-2.43a5.41,5.41,0,0,0-.93-1.78,5.67,5.67,0,0,0-3.11-1.43,2.42,2.42,0,0,0-1.48,0c-.47.2-.76.84-.43,1.22" transform="translate(14.05 20.69)"/><path class="cls-4" d="M139.52,246.69a3.93,3.93,0,0,0-1.94-.61,3.43,3.43,0,0,1-2.05-.73,6,6,0,0,1-1-2.13c-.31-.74-1.09-1.44-1.82-1.14s-.77,1.34-.57,2.11a7.71,7.71,0,0,0,1.13,2.39l-.19-.07c.7.51.64,1.54.57,2.41s0,1.93.8,2.28a1.63,1.63,0,0,0,1.07,0,2.81,2.81,0,0,0,1.61-1.22c.23-.37.4-.82.79-1s1-.08,1.53-.24C139.48,248,139.49,247.37,139.52,246.69Z" transform="translate(14.05 20.69)"/><path class="cls-4" d="M125.65,236.06c0,.54-.08,1.08,0,1.62a1.68,1.68,0,0,0,.76,1.36.91.91,0,0,0,1.31-.48c0-.2,0-.4,0-.6.08-.55.68-.85,1.22-1a3.4,3.4,0,0,0,1.56-.52,1.51,1.51,0,0,0,.08-2,2.29,2.29,0,0,0-2-.72,2.67,2.67,0,0,0-2.41,2.81" transform="translate(14.05 20.69)"/><path class="cls-4" d="M131.58,225.14a2.3,2.3,0,0,0,.52,2.34,2.11,2.11,0,0,0,.5.39l.09.07c.16.09-.07-.09,0,0s.09.06.1.1l-.06-.07c0,.08,0,.07,0,0s.06.19.06.22,0-.13,0,0,0,.09,0,.14a2.48,2.48,0,0,0,.12.67,1.48,1.48,0,0,0,1.25,1,1.3,1.3,0,0,0,1.21-1,3,3,0,0,0-.3-2.54,3.09,3.09,0,0,0-2.47-1.39.8.8,0,0,0,0,1.59h.11s.12,0,0,0,.08,0,.11,0l.22.06.08,0c.09,0-.17-.09,0,0a1.27,1.27,0,0,1,.34.2s-.14-.12,0,0l.06.06a1.21,1.21,0,0,1,.16.16c.13.15,0-.08,0,0l.12.2,0,.08c.05.09,0-.14,0,0l.07.22a.71.71,0,0,1,0,.2s0-.19,0,0a.28.28,0,0,1,0,.09v.2s0,.12,0,.12,0-.16,0,0l-.06.23s-.09.23,0,.13,0,0,0,0a.64.64,0,0,1,.15-.13.48.48,0,0,1,.17,0c.05,0,.27,0,.15,0s.18.09.07,0,.12.11.07,0-.09-.11,0,0h0l0-.05,0,.1s0-.06,0-.07,0-.07,0-.11,0,.2,0,0a2.53,2.53,0,0,0-.25-1.09,2.15,2.15,0,0,0-.84-.77c-.07,0,.05,0,.05.05s-.07-.07-.09-.09l-.05-.06c-.12-.11.05.1,0,0l-.12-.2s-.05-.1,0,0,0,0,0-.06,0-.13,0-.2,0,.2,0,.06v-.1s0-.1,0-.1,0,.2,0,0a1.87,1.87,0,0,1,.07-.22.79.79,0,1,0-1.53-.42Z" transform="translate(14.05 20.69)"/><path class="cls-4" d="M140.29,234.16a3.43,3.43,0,0,0-3.79-.76l0,.59a23.71,23.71,0,0,0,.68,7.15,2.63,2.63,0,0,0,.83,1.73,2.57,2.57,0,0,0,1.25.34l.39,0C139.84,240.21,140.05,237.18,140.29,234.16Z" transform="translate(14.05 20.69)"/><path class="cls-4" d="M140.4,202.51c.36.7.45,1.51.81,2.21a2.08,2.08,0,0,0,1.25,1.08q.09-4.11,0-8.2l-.42-.07a5.9,5.9,0,0,0-1.78,0,2,2,0,0,0-1.41,1l.32.3c.3.4.07,1,.07,1.45C139.3,201.09,140,201.75,140.4,202.51Z" transform="translate(14.05 20.69)"/><path class="cls-4" d="M90.22,192.73a2.46,2.46,0,0,1,2.55.87,5.35,5.35,0,0,1,1,2.62,5.56,5.56,0,0,0,1,2.94,4.67,4.67,0,0,0,2.9,1.12l1.54.21a.83.83,0,0,0,.64-.08.73.73,0,0,0,.25-.46,4,4,0,0,0-1.08-3.78c-.7-.67-1.65-1.11-2.12-1.95-.26-.48-.34-1-.6-1.51-.71-1.28-2.41-1.52-3.87-1.61L90.9,191a2,2,0,0,0-1.46.29c-.39.33-.34,1.13.17,1.2" transform="translate(14.05 20.69)"/><path class="cls-4" d="M96.82,186a5.62,5.62,0,0,1,.6,2.09,4.37,4.37,0,0,0,2.14,2.77,2,2,0,0,0,2.51-.26,2.44,2.44,0,0,0-.13-2.22,5.49,5.49,0,0,0-.63-1.23,5.64,5.64,0,0,0-.86-.83l-1.53-1.28a2.32,2.32,0,0,0-1.5-.71c-.56,0-1.07.74-.69,1.16" transform="translate(14.05 20.69)"/><path class="cls-4" d="M90.12,221.38c.7.51.64,1.54.57,2.4s0,1.94.8,2.29a1.63,1.63,0,0,0,1.07,0,2.81,2.81,0,0,0,1.61-1.22c.23-.37.4-.82.79-1s1.18,0,1.69-.29.56-1.39,0-1.89a3.59,3.59,0,0,0-2.06-.7,3.43,3.43,0,0,1-2-.73,6,6,0,0,1-1-2.13c-.31-.74-1.09-1.44-1.82-1.14s-.77,1.34-.57,2.11a7.71,7.71,0,0,0,1.13,2.39" transform="translate(14.05 20.69)"/><path class="cls-4" d="M82.68,210.93c0,.54-.08,1.08,0,1.62a1.68,1.68,0,0,0,.76,1.36.91.91,0,0,0,1.31-.48c0-.2,0-.4,0-.6.08-.55.68-.85,1.22-1a3.4,3.4,0,0,0,1.56-.52,1.51,1.51,0,0,0,.08-2,2.29,2.29,0,0,0-2-.72,2.67,2.67,0,0,0-2.41,2.81" transform="translate(14.05 20.69)"/><path class="cls-4" d="M88.61,200a2.3,2.3,0,0,0,.52,2.34,2.11,2.11,0,0,0,.5.39l.09.07c.16.09-.07-.09,0,0s.09.06.1.1l-.06-.07c0,.08,0,.07,0,0a.6.6,0,0,1,.06.22c0-.08,0-.13,0,0s0,.09,0,.14a2.48,2.48,0,0,0,.12.67,1.48,1.48,0,0,0,1.25,1,1.3,1.3,0,0,0,1.21-1,3,3,0,0,0-.3-2.54,3.09,3.09,0,0,0-2.47-1.39.8.8,0,0,0-.79.79.81.81,0,0,0,.79.8h.11s.12,0,0,0,.08,0,.11,0l.22.06.08,0c.09,0-.17-.09,0,0a1.27,1.27,0,0,1,.34.2s-.14-.12,0,0l.06.06a1.21,1.21,0,0,1,.16.16c.13.15,0-.08,0,0l.12.2a.25.25,0,0,0,0,.07c.05.1,0-.13,0,0l.07.22c0,.05.06.15,0,.2s0-.19,0,0a.28.28,0,0,1,0,.09v.2s0,.12,0,.12,0-.16,0,0l-.06.23s-.09.22,0,.13,0,0,0,0a.47.47,0,0,1,.15-.13.48.48,0,0,1,.17,0s.27,0,.15,0,.18.09.07,0,.12.11.07.05-.09-.11,0,0h0l0-.05,0,.1s0-.06,0-.07,0-.07,0-.11,0,.2,0,0a2.46,2.46,0,0,0-.25-1.1,2.2,2.2,0,0,0-.84-.76c-.07,0,0,0,0,.05s-.07-.07-.09-.09l0-.06c-.12-.11,0,.1,0,0l-.12-.2h0c.06.12,0,0,0,0s0-.13,0-.2,0,.2,0,.06v-.1s0-.1,0-.1,0,.2,0,0a1.87,1.87,0,0,1,.07-.22.79.79,0,1,0-1.53-.42Z" transform="translate(14.05 20.69)"/><path class="cls-4" d="M93.56,208.86a23.71,23.71,0,0,0,.68,7.15,2.63,2.63,0,0,0,.83,1.73,2.69,2.69,0,0,0,1.25.34,5.26,5.26,0,0,0,2.79-.24,1.79,1.79,0,0,0,1-2.34,5.18,5.18,0,0,0-.57-.67c-1.24-1.41-.78-3.67-1.75-5.28a3.43,3.43,0,0,0-4.21-1.28" transform="translate(14.05 20.69)"/><path class="cls-4" d="M100.51,204a9.64,9.64,0,0,0,.6,3.1,1.28,1.28,0,0,1,.13.66c-.1.56-1,.8-.93,1.37s.7.67,1.21.67c.74,0,1.62-.07,2-.71a1.57,1.57,0,0,0,.19-.77,6.26,6.26,0,0,0-1-3,3.3,3.3,0,0,0-.85-1.13,1.13,1.13,0,0,0-1.32-.11" transform="translate(14.05 20.69)"/><path class="cls-4" d="M97,227.77a.71.71,0,0,0,.07,1.06,2,2,0,0,0,1.14.39l2.07.28a1.07,1.07,0,0,0,.64,0,1,1,0,0,0,.39-.54c.57-1.55,0-3.27-.73-4.76a.52.52,0,0,0-.22-.28c-.24-.13-.51.13-.64.37a3.46,3.46,0,0,0-.4,1.3,1.72,1.72,0,0,1-.24,1,1.66,1.66,0,0,1-1.15.4c-.41,0-.9.24-1,.65" transform="translate(14.05 20.69)"/><path class="cls-4" d="M96.25,173.66c.3.4.07,1,.07,1.45,0,.85.72,1.51,1.11,2.27s.45,1.51.81,2.21a1.7,1.7,0,0,0,1.87,1.06c.85-.29,1-1.4,1-2.3l.07-3.71a2.53,2.53,0,0,0-.3-1.49,2.47,2.47,0,0,0-1.79-.75,5.9,5.9,0,0,0-1.78,0,2,2,0,0,0-1.41,1" transform="translate(14.05 20.69)"/><path class="cls-4" d="M109.86,180.79a1.32,1.32,0,0,0-1.65-.07,2.65,2.65,0,0,0-1,1.48,6,6,0,0,0,1.9,6.35.93.93,0,0,0,1.66-.8c0-2-1.11-4-.64-6" transform="translate(14.05 20.69)"/><path class="cls-4" d="M103.58,194.72c-.47.73,0,1.69.4,2.44l1,1.81c.27.47.73,1,1.23.82s.5-.7.52-1.14l.19-4a1.56,1.56,0,0,0-.14-.93c-.38-.63-1.32-.47-2-.22s-1.23.47-1.43,1" transform="translate(14.05 20.69)"/><path class="cls-4" d="M115,203.46a2.49,2.49,0,0,1,2.55.87,5.48,5.48,0,0,1,1,2.63,5.58,5.58,0,0,0,1,2.94,4.62,4.62,0,0,0,2.9,1.11l1.54.22a.9.9,0,0,0,.65-.08.8.8,0,0,0,.25-.47,4,4,0,0,0-1.09-3.78c-.69-.67-1.65-1.1-2.12-2-.26-.47-.34-1-.6-1.51-.7-1.28-2.4-1.52-3.86-1.61l-1.57-.09a2.05,2.05,0,0,0-1.47.28c-.39.33-.33,1.14.17,1.21" transform="translate(14.05 20.69)"/><path class="cls-4" d="M121.55,196.74a5.45,5.45,0,0,1,.61,2.1,4.33,4.33,0,0,0,2.13,2.76c.82.44,2,.52,2.52-.26a2.42,2.42,0,0,0-.14-2.21,5.46,5.46,0,0,0-.62-1.23,5.61,5.61,0,0,0-.86-.83l-1.54-1.28a2.27,2.27,0,0,0-1.49-.72c-.56,0-1.07.74-.7,1.17" transform="translate(14.05 20.69)"/><path class="cls-4" d="M121,184.4c.29.39.07.95.07,1.45,0,.85.71,1.51,1.1,2.26s.46,1.51.81,2.21a1.71,1.71,0,0,0,1.88,1.06c.85-.28,1-1.4,1-2.29l.06-3.71a1.84,1.84,0,0,0-2.08-2.24,5.6,5.6,0,0,0-1.78,0,1.9,1.9,0,0,0-1.41,1" transform="translate(14.05 20.69)"/><path class="cls-4" d="M134.6,191.52a1.35,1.35,0,0,0-1.66-.07,2.76,2.76,0,0,0-1,1.48,6.07,6.07,0,0,0,1.89,6.36,1.21,1.21,0,0,0,1.2.33,1.19,1.19,0,0,0,.46-1.14c0-2-1.11-4-.64-6" transform="translate(14.05 20.69)"/><path class="cls-4" d="M80.35,252.65c.3.4.07.95.07,1.45,0,.85.72,1.51,1.11,2.27s.45,1.5.8,2.2a1.72,1.72,0,0,0,1.88,1.06c.85-.28,1-1.39,1-2.29l.06-3.71a2.43,2.43,0,0,0-.29-1.49,2.47,2.47,0,0,0-1.79-.75,5.9,5.9,0,0,0-1.78,0,1.94,1.94,0,0,0-1.41,1" transform="translate(14.05 20.69)"/><path class="cls-4" d="M78,241.5a1.34,1.34,0,0,0-1.66-.07,2.76,2.76,0,0,0-1,1.48,6.07,6.07,0,0,0,1.89,6.36,1.19,1.19,0,0,0,1.2.32c.39-.19.47-.7.47-1.13-.05-2-1.12-4-.65-6" transform="translate(14.05 20.69)"/><path class="cls-4" d="M128.32,205.45c-.47.74,0,1.69.4,2.45l1,1.81c.27.46.72,1,1.22.81s.51-.69.53-1.14l.19-4a1.71,1.71,0,0,0-.14-.93c-.38-.63-1.32-.47-2-.23s-1.23.47-1.43,1.05" transform="translate(14.05 20.69)"/><path class="cls-4" d="M108.28,219.24a1.3,1.3,0,0,0-1.81-.49,2.1,2.1,0,0,0-.92,1.81,6.2,6.2,0,0,0,.45,2.07l.49,1.41c.24.72.61,1.55,1.35,1.71s1.51-.56,1.84-1.3a4.75,4.75,0,0,0-.86-5" transform="translate(14.05 20.69)"/><path class="cls-4" d="M109.9,211.65a5.3,5.3,0,0,1-2.14-.12,1.81,1.81,0,0,1-1.31-1.54,2.55,2.55,0,0,1,.29-1.07c.36-.82.74-1.64,1.15-2.44.33-.65.9-1.39,1.61-1.22s.87,1.12.87,1.86l0,4.42" transform="translate(14.05 20.69)"/><path class="cls-4" d="M96.47,235.41c.07,1.36,1,2.51,1.69,3.66a18.51,18.51,0,0,1,2.25,5c.33,1.16.68,2.52,1.79,3a1.12,1.12,0,0,0,1,0,1.31,1.31,0,0,0,.44-.57,6.14,6.14,0,0,0,.39-2.56l0-4.6c0-1.85-.11-4-1.62-5.08a5.81,5.81,0,0,0-3.3-.77,4.49,4.49,0,0,0-2,.24,1.54,1.54,0,0,0-1,1.6" transform="translate(14.05 20.69)"/><path class="cls-4" d="M78.31,234.86c.7.51.64,1.55.57,2.41s0,1.94.8,2.28a1.57,1.57,0,0,0,1.07,0,2.81,2.81,0,0,0,1.61-1.22c.24-.37.4-.83.79-1s1.19,0,1.69-.28a1.23,1.23,0,0,0,0-1.9,3.57,3.57,0,0,0-2.06-.7,3.46,3.46,0,0,1-2-.72,6,6,0,0,1-1-2.14c-.31-.73-1.09-1.44-1.82-1.13s-.77,1.34-.56,2.1a7.48,7.48,0,0,0,1.12,2.39" transform="translate(14.05 20.69)"/><path class="cls-4" d="M81.76,222.34a23.35,23.35,0,0,0,.67,7.15,2.64,2.64,0,0,0,.83,1.73,2.57,2.57,0,0,0,1.25.34,5.07,5.07,0,0,0,2.79-.24,1.78,1.78,0,0,0,1-2.34,5.09,5.09,0,0,0-.57-.66c-1.24-1.41-.78-3.68-1.75-5.28a3.43,3.43,0,0,0-4.21-1.29" transform="translate(14.05 20.69)"/><path class="cls-4" d="M90,236.62c-.89,1-1,2.49-1.28,3.82a18.72,18.72,0,0,1-1.78,5.15c-.55,1.07-1.22,2.3-.73,3.4a1.1,1.1,0,0,0,.72.66,1.22,1.22,0,0,0,.7-.1,6.2,6.2,0,0,0,2-1.6l3.19-3.32c1.28-1.34,2.67-3,2.31-4.81A5.81,5.81,0,0,0,93.25,237a4.51,4.51,0,0,0-1.62-1.2,1.53,1.53,0,0,0-1.81.49" transform="translate(14.05 20.69)"/><path class="cls-4" d="M105.11,252a13.26,13.26,0,0,1,8.42,0c.51.17,1.18.34,1.52-.09a.92.92,0,0,0,.17-.45,2.37,2.37,0,0,0-.83-2,7.09,7.09,0,0,0-2-1.16c-1-.46-2.17-.92-3.16-.43s-1.35,1.67-2.2,2.35-1.89.76-2.47,1.55" transform="translate(14.05 20.69)"/><path class="cls-4" d="M96,271.31a5.39,5.39,0,0,0,1,5.53,3.05,3.05,0,0,1,.59.76,6.09,6.09,0,0,1,.22.81,1.91,1.91,0,0,0,3,.81c.23-.21.41-.49.65-.7a2.74,2.74,0,0,1,2.18-.48c.66.08,1.48.22,1.87-.32a1.1,1.1,0,0,0,0-1.17,3,3,0,0,0-.91-.83,14.45,14.45,0,0,0-3-1.47,5.35,5.35,0,0,1-2.7-1.45,9.14,9.14,0,0,1-.68-1.32,1.76,1.76,0,0,0-1.08-1c-.49-.09-1.07.31-1,.8" transform="translate(14.05 20.69)"/><path class="cls-4" d="M93.49,254.11c.19.21,0,.55-.16.74-.88.85-2.51.68-3.15,1.72a2.7,2.7,0,0,0-.31,1q-.56,3.21-1,6.43c-.1.7,0,1.64.63,1.85.53.16,1-.28,1.43-.69a43.51,43.51,0,0,0,3.82-4.74,5,5,0,0,1,.94-1.12,7.13,7.13,0,0,0,1.32-1,2,2,0,0,0,.22-1.82,3.31,3.31,0,0,0-3.76-2.17" transform="translate(14.05 20.69)"/><path class="cls-4" d="M110.52,275.43c.69.51.64,1.55.56,2.41s0,1.94.81,2.28a1.54,1.54,0,0,0,1.06,0,2.85,2.85,0,0,0,1.62-1.22c.23-.38.4-.83.79-1s1.18,0,1.69-.28a1.23,1.23,0,0,0,0-1.9A3.59,3.59,0,0,0,115,275a3.49,3.49,0,0,1-2.05-.72,5.84,5.84,0,0,1-1-2.14c-.31-.73-1.09-1.44-1.82-1.13s-.77,1.33-.57,2.1a7.5,7.5,0,0,0,1.13,2.39" transform="translate(14.05 20.69)"/><path class="cls-4" d="M103.08,265c0,.54-.08,1.09,0,1.62a1.71,1.71,0,0,0,.75,1.37.91.91,0,0,0,1.31-.49c0-.19,0-.4,0-.59.08-.55.68-.86,1.22-1a3.43,3.43,0,0,0,1.56-.51,1.52,1.52,0,0,0,.08-2,2.34,2.34,0,0,0-2-.72,2.68,2.68,0,0,0-2.41,2.81" transform="translate(14.05 20.69)"/><path class="cls-4" d="M74.44,256.69a.71.71,0,0,0,.07,1.06,2.12,2.12,0,0,0,1.14.4l2.06.28a1.1,1.1,0,0,0,.65-.05.91.91,0,0,0,.39-.54c.57-1.55,0-3.27-.73-4.76a.56.56,0,0,0-.22-.28c-.24-.12-.51.13-.64.37a3.34,3.34,0,0,0-.4,1.3,1.7,1.7,0,0,1-.24,1,1.63,1.63,0,0,1-1.15.4c-.41.05-.9.24-1,.65" transform="translate(14.05 20.69)"/><path class="cls-4" d="M73.9,264.33c.06,1.36,1,2.51,1.69,3.66a18.4,18.4,0,0,1,2.24,5c.33,1.15.69,2.51,1.8,3a1.09,1.09,0,0,0,1,0,1.28,1.28,0,0,0,.44-.56,6.14,6.14,0,0,0,.39-2.56l0-4.6c0-1.86-.12-4-1.62-5.09a5.89,5.89,0,0,0-3.3-.77,4.49,4.49,0,0,0-2,.24,1.55,1.55,0,0,0-1,1.61" transform="translate(14.05 20.69)"/><path class="cls-4" d="M82.54,280.89a13.26,13.26,0,0,1,8.42-.05c.51.18,1.18.34,1.52-.09a.85.85,0,0,0,.17-.44,2.37,2.37,0,0,0-.83-2,7.12,7.12,0,0,0-1.95-1.17c-1-.46-2.18-.92-3.17-.43s-1.35,1.68-2.19,2.35-1.89.77-2.47,1.56" transform="translate(14.05 20.69)"/><path class="cls-4" d="M113.27,261.8a1,1,0,0,0-1.41.58,2.65,2.65,0,0,0,.08,1.71,17,17,0,0,0,.78,2.17c.21.49.73,1.07,1.18.77s.26-.72.22-1.12a3.65,3.65,0,0,1,1.44-3.28,2,2,0,0,0,.71-.67,1.59,1.59,0,0,0-.18-1.28,7.05,7.05,0,0,0-1.09-1.86,2.37,2.37,0,0,0-1.91-.86.86.86,0,0,0-.57.25,1.09,1.09,0,0,0-.17.62c-.07,1-.1,2-.08,3.05" transform="translate(14.05 20.69)"/><path class="cls-4" d="M.84,229a8.48,8.48,0,0,0-.78,4.87c0,.52.09,1.13.55,1.37s.89,0,1.34,0a2,2,0,0,1,2,1.87,3.71,3.71,0,0,0,0,1c.24.7,1.19.79,1.93.67A2.61,2.61,0,0,0,7.58,238a3,3,0,0,0,.49-2v-2.81a1.46,1.46,0,0,0-.2-.9,1.41,1.41,0,0,0-.61-.4,5.14,5.14,0,0,0-2.44-.62,7.63,7.63,0,0,1-1.5.15c-.5-.07-1-.55-.82-1,.07-.2.25-.35.3-.56a.76.76,0,0,0-.48-.74,3.11,3.11,0,0,1-.84-.46" transform="translate(14.05 20.69)"/><path class="cls-4" d="M17.38,229a1,1,0,0,0-.58-1.25,2.9,2.9,0,0,0-1.52-.11,1.42,1.42,0,0,0-.64.17,1.38,1.38,0,0,0-.39.47,25.42,25.42,0,0,0-1.53,2.87,3.07,3.07,0,0,0-.32,2.37c.34.8,1.23,1.18,2,1.61A8.22,8.22,0,0,1,16.58,237c.17.22.37.46.65.46s.51-.33.61-.62a3.66,3.66,0,0,0-.14-2.74A11.14,11.14,0,0,1,16.62,232a4.47,4.47,0,0,1,1-3.21" transform="translate(14.05 20.69)"/><path class="cls-4" d="M-3.66,247.68c-1.19-.12-2.21.74-3.19,1.43a13.06,13.06,0,0,1-5.6,2.18c-.1.29.3.49.61.53A11.89,11.89,0,0,0-8,251.63a2.57,2.57,0,0,1,1.75,0c.71.38.83,1.34,1.36,1.94a3.5,3.5,0,0,0,2.7.75,3.54,3.54,0,0,0,2.4-.59C1,253,1,251.6.71,250.47a1.62,1.62,0,0,0-.7-1.22,4.86,4.86,0,0,0-.94-.16c-1-.22-1.6-1.49-2.58-1.33" transform="translate(14.05 20.69)"/><path class="cls-4" d="M5.53,243.83a5.14,5.14,0,0,0-2.16,1.29c-.34.35-.65.87-.42,1.3a1.19,1.19,0,0,0,1.06.47c.88.05,1.76-.07,2.64,0a2.8,2.8,0,0,1,2.21,1.26,2.15,2.15,0,0,0,.51.8c.44.32,1.08,0,1.47-.39A4.22,4.22,0,0,0,12,245.06a1.09,1.09,0,0,0-.21-.55,1,1,0,0,0-.6-.31,7.51,7.51,0,0,0-2.82.45c-.94.19-2.16-.05-2.44-1" transform="translate(14.05 20.69)"/><path class="cls-4" d="M-5.79,231.81a5.4,5.4,0,0,0-5.51,1.07,2.92,2.92,0,0,1-.76.6,5.61,5.61,0,0,1-.8.23,1.91,1.91,0,0,0-.76,3c.22.24.5.41.72.65a2.74,2.74,0,0,1,.51,2.17c-.07.66-.19,1.48.35,1.86a1.1,1.1,0,0,0,1.17-.05,2.7,2.7,0,0,0,.81-.93,14,14,0,0,0,1.43-3.06,5.27,5.27,0,0,1,1.4-2.72,9.68,9.68,0,0,1,1.31-.71A1.68,1.68,0,0,0-5,232.8c.09-.49-.32-1.07-.8-1" transform="translate(14.05 20.69)"/><path class="cls-4" d="M28.86,225.88a5.37,5.37,0,0,0-5.51,1.06,3.19,3.19,0,0,1-.76.61c-.25.11-.54.14-.8.23a1.91,1.91,0,0,0-.76,3c.22.23.5.4.72.64a2.76,2.76,0,0,1,.51,2.17c-.07.66-.19,1.48.35,1.86a1.08,1.08,0,0,0,1.17,0,2.76,2.76,0,0,0,.81-.92A13.84,13.84,0,0,0,26,231.38a5.24,5.24,0,0,1,1.4-2.71,8.68,8.68,0,0,1,1.31-.71,1.76,1.76,0,0,0,.94-1.1c.08-.49-.32-1.06-.81-1" transform="translate(14.05 20.69)"/><path class="cls-4" d="M53.63,240.12a2.47,2.47,0,0,1-.83,2.57,5.39,5.39,0,0,1-2.6,1.09,5.6,5.6,0,0,0-2.93,1,4.67,4.67,0,0,0-1.06,2.91L46,249.28a.93.93,0,0,0,.09.64.9.9,0,0,0,.47.25A4,4,0,0,0,50.34,249c.66-.7,1.08-1.67,1.92-2.15.47-.27,1-.35,1.5-.62,1.27-.73,1.47-2.44,1.54-3.89l.07-1.58a2,2,0,0,0-.31-1.46c-.34-.38-1.14-.31-1.2.19" transform="translate(14.05 20.69)"/><path class="cls-4" d="M60.47,246.6a5.68,5.68,0,0,1-2.09.65,4.33,4.33,0,0,0-2.73,2.18,2,2,0,0,0,.3,2.51,2.48,2.48,0,0,0,2.22-.18,5,5,0,0,0,1.21-.65,4.83,4.83,0,0,0,.82-.87l1.26-1.56a2.35,2.35,0,0,0,.69-1.5c0-.56-.76-1.06-1.18-.68" transform="translate(14.05 20.69)"/><path class="cls-4" d="M46,223.11c-.2.2-.54.06-.74-.14-.86-.86-.72-2.5-1.76-3.12a3,3,0,0,0-1-.3c-2.15-.33-4.29-.62-6.45-.88-.71-.08-1.64,0-1.84.66s.3,1,.71,1.42a42.42,42.42,0,0,0,4.81,3.74,4.8,4.8,0,0,1,1.13.92,6.87,6.87,0,0,0,1,1.31,2,2,0,0,0,1.82.19,3.33,3.33,0,0,0,2.11-3.8" transform="translate(14.05 20.69)"/><path class="cls-4" d="M53.3,219.87l-1.4.66a2.93,2.93,0,0,0-1,.67,1,1,0,0,0-.13,1.13,1.2,1.2,0,0,0,.82.42,4,4,0,0,0,3.84-1.61,1.63,1.63,0,0,0,.35-1.24,1.27,1.27,0,0,0-1.34-.88,2.23,2.23,0,0,0-1.45.85" transform="translate(14.05 20.69)"/><path class="cls-4" d="M54,227.62a4.34,4.34,0,0,0-3.16-.27,2.87,2.87,0,0,0-2,2.37,3,3,0,0,1-.14,1.19c-.39.76-1.62.71-2,1.45a1.31,1.31,0,0,0,.88,1.72,3.58,3.58,0,0,0,2.16-.19c.81-.25,1.61-.53,2.41-.83a5.2,5.2,0,0,0,1.76-1A5.67,5.67,0,0,0,55.26,229a2.34,2.34,0,0,0,0-1.48c-.21-.46-.86-.75-1.23-.41" transform="translate(14.05 20.69)"/><path class="cls-4" d="M25,240.5c-.5.71-1.54.67-2.4.61s-1.94,0-2.27.84a1.64,1.64,0,0,0,0,1.07,2.83,2.83,0,0,0,1.25,1.59c.38.23.83.39,1.05.77s0,1.19.31,1.69a1.23,1.23,0,0,0,1.9,0,3.62,3.62,0,0,0,.66-2.07,3.49,3.49,0,0,1,.69-2.06,6.17,6.17,0,0,1,2.12-1c.73-.32,1.42-1.1,1.1-1.83s-1.35-.75-2.11-.53a7.47,7.47,0,0,0-2.37,1.16" transform="translate(14.05 20.69)"/><path class="cls-4" d="M35.31,232.89c-.54,0-1.09-.07-1.62,0a1.69,1.69,0,0,0-1.35.78.92.92,0,0,0,.5,1.31c.2,0,.4,0,.6,0,.55.07.87.67,1,1.21a3.43,3.43,0,0,0,.55,1.55,1.51,1.51,0,0,0,2,0,2.33,2.33,0,0,0,.69-2.06,2.69,2.69,0,0,0-2.85-2.37" transform="translate(14.05 20.69)"/><path class="cls-4" d="M46.34,238.63a2.32,2.32,0,0,0-2.34.55,3.27,3.27,0,0,0-.39.51l-.06.09s-.12.14,0,.06-.06,0-.06,0l.07,0c-.07,0-.06,0,0,0s-.17.05-.22.06h0a.68.68,0,0,1-.14,0,2.45,2.45,0,0,0-.81.18,1.45,1.45,0,0,0-.85,1.2,1.3,1.3,0,0,0,1,1.2,3,3,0,0,0,2.53-.33,3.07,3.07,0,0,0,1.36-2.48.8.8,0,0,0-.79-.8.82.82,0,0,0-.8.8,1.21,1.21,0,0,1,0,.19c0,.11,0-.15,0,0s0,.05,0,.08l-.06.21,0,.08c0,.1.09-.17,0,0a3.79,3.79,0,0,1-.2.34c-.06.09,0,0,0,0s0,.06,0,.06a1.21,1.21,0,0,1-.16.16l-.08.08c-.07.05,0-.05.05,0s-.18.11-.2.12l-.12.06c.09,0,0,0,0,0l-.14.05-.21,0c-.11,0,0,0,0,0s-.08,0-.09,0h-.32c-.13,0,0,0,0,0a1.32,1.32,0,0,0-.23-.05s-.22-.08-.12,0,0,0,0,0h0q-.13-.09.15.15a.41.41,0,0,1,.05.18c0,.05,0,.27,0,.15s-.09.17,0,.07-.12.12,0,.06l.07-.06c0-.06-.06,0-.06,0l.08,0s-.15,0-.07,0l.11,0c.1,0-.2,0,0,0a2.58,2.58,0,0,0,1.09-.27,2.33,2.33,0,0,0,.75-.84l0-.07c0,.12-.07.08,0,0l0,0c.11-.12-.1.06,0,0l.2-.12s.1,0,0,0l.05,0a1.18,1.18,0,0,0,.2,0s-.19,0-.06,0h.21c.14,0-.13,0,0,0l.22.06a.78.78,0,0,0,1-.55.81.81,0,0,0-.55-1Z" transform="translate(14.05 20.69)"/><path class="cls-4" d="M37.56,243.74a23.39,23.39,0,0,0-7.14.79,2.64,2.64,0,0,0-1.71.86,2.71,2.71,0,0,0-.32,1.26,5.13,5.13,0,0,0,.29,2.78,1.78,1.78,0,0,0,2.35.91,4.5,4.5,0,0,0,.66-.58c1.39-1.26,3.66-.84,5.25-1.84a3.42,3.42,0,0,0,1.21-4.23" transform="translate(14.05 20.69)"/><path class="cls-4" d="M42.53,250.59a9.72,9.72,0,0,0-3.09.67,1.25,1.25,0,0,1-.65.13c-.56-.09-.82-.94-1.39-.91s-.65.72-.64,1.23c0,.74.09,1.61.74,2a1.55,1.55,0,0,0,.77.17,6.12,6.12,0,0,0,2.95-1.05,3.42,3.42,0,0,0,1.12-.86,1.17,1.17,0,0,0,.09-1.33" transform="translate(14.05 20.69)"/><path class="cls-4" d="M18.71,247.5a.72.72,0,0,0-1.06.09,2.15,2.15,0,0,0-.37,1.14L17,250.8a1.11,1.11,0,0,0,.06.65.92.92,0,0,0,.54.38c1.56.55,3.28-.07,4.75-.81a.63.63,0,0,0,.28-.23c.12-.24-.14-.5-.38-.63a3.48,3.48,0,0,0-1.31-.38,1.75,1.75,0,0,1-1-.22,1.66,1.66,0,0,1-.41-1.14c-.06-.41-.25-.9-.67-1" transform="translate(14.05 20.69)"/><path class="cls-4" d="M72.8,245.83c-.39.3-1,.08-1.45.1-.85,0-1.5.74-2.25,1.14s-1.5.48-2.19.84a1.71,1.71,0,0,0-1,1.9c.3.84,1.41,1,2.31,1H71.9a2.45,2.45,0,0,0,1.49-.32,2.48,2.48,0,0,0,.71-1.8,5.6,5.6,0,0,0,0-1.78,2,2,0,0,0-1-1.39" transform="translate(14.05 20.69)"/><path class="cls-4" d="M65.9,259.56a1.34,1.34,0,0,0,0-1.66,2.73,2.73,0,0,0-1.5-.94,6.05,6.05,0,0,0-6.32,2c-.27.35-.52.82-.31,1.21a1.18,1.18,0,0,0,1.14.44c2-.08,4-1.18,6-.74" transform="translate(14.05 20.69)"/><path class="cls-4" d="M51.87,253.51c-.74-.45-1.69,0-2.44.45L47.64,255c-.46.27-1,.74-.79,1.23s.7.49,1.14.51l4,.12a1.63,1.63,0,0,0,.93-.15c.62-.39.44-1.33.19-2s-.49-1.22-1.07-1.41" transform="translate(14.05 20.69)"/><path class="cls-4" d="M27.42,258.62a1.28,1.28,0,0,0,.47-1.81,2.08,2.08,0,0,0-1.83-.89,6.24,6.24,0,0,0-2.06.48l-1.4.51c-.72.26-1.54.64-1.69,1.39s.59,1.5,1.34,1.81a4.74,4.74,0,0,0,5-.95" transform="translate(14.05 20.69)"/><path class="cls-4" d="M35.05,260.12a5.3,5.3,0,0,1,.08-2.14,1.8,1.8,0,0,1,1.51-1.34,2.69,2.69,0,0,1,1.08.27q1.24.51,2.46,1.11c.65.32,1.41.88,1.25,1.59s-1.11.89-1.85.9l-4.42.09" transform="translate(14.05 20.69)"/><path class="cls-4" d="M78,196.74a2.46,2.46,0,0,1-.82,2.56,5.33,5.33,0,0,1-2.61,1.09,5.54,5.54,0,0,0-2.92,1,4.67,4.67,0,0,0-1.07,2.92l-.18,1.54a.88.88,0,0,0,.08.64.78.78,0,0,0,.48.25,4.05,4.05,0,0,0,3.76-1.15c.66-.71,1.07-1.67,1.91-2.15.47-.27,1-.36,1.5-.63,1.27-.73,1.48-2.43,1.54-3.89l.07-1.58a2,2,0,0,0-.31-1.46c-.34-.38-1.14-.31-1.2.2" transform="translate(14.05 20.69)"/><path class="cls-4" d="M84.87,203.22a5.86,5.86,0,0,1-2.09.64A4.33,4.33,0,0,0,80.05,206a2,2,0,0,0,.3,2.51,2.48,2.48,0,0,0,2.22-.17,5.72,5.72,0,0,0,1.22-.65,5.23,5.23,0,0,0,.81-.88l1.26-1.55a2.32,2.32,0,0,0,.69-1.51c0-.56-.76-1-1.18-.68" transform="translate(14.05 20.69)"/><path class="cls-4" d="M49.39,197.11c-.5.71-1.54.67-2.4.61s-1.93.05-2.27.85a1.61,1.61,0,0,0,0,1.06,2.89,2.89,0,0,0,1.25,1.6A2.55,2.55,0,0,1,47,202c.28.51,0,1.19.31,1.69a1.23,1.23,0,0,0,1.9,0,3.54,3.54,0,0,0,.66-2.07,3.52,3.52,0,0,1,.69-2.06,6.07,6.07,0,0,1,2.12-1c.73-.33,1.43-1.11,1.11-1.84s-1.35-.75-2.12-.53a7.6,7.6,0,0,0-2.37,1.17" transform="translate(14.05 20.69)"/><path class="cls-4" d="M59.71,189.5c-.54,0-1.08-.06-1.62,0a1.69,1.69,0,0,0-1.35.78.91.91,0,0,0,.51,1.3,5.81,5.81,0,0,0,.59,0c.55.08.87.67,1,1.21a3.27,3.27,0,0,0,.54,1.55,1.51,1.51,0,0,0,2,.05,2.32,2.32,0,0,0,.69-2.07A2.67,2.67,0,0,0,59.26,190" transform="translate(14.05 20.69)"/><path class="cls-4" d="M70.74,195.25a2.3,2.3,0,0,0-2.34.54,2.71,2.71,0,0,0-.38.51l-.06.1s-.13.13,0,0-.06.05,0,.05l.07-.06c-.08,0-.07,0,0,0s-.18,0-.22.06,0,0,0,0-.1,0-.14,0a2.46,2.46,0,0,0-.81.19,1.41,1.41,0,0,0-.84,1.2,1.26,1.26,0,0,0,1,1.19,3,3,0,0,0,2.53-.33,3,3,0,0,0,1.36-2.48.79.79,0,1,0-1.58,0c0,.06,0,.13,0,.19s0-.15,0,0,0,.05,0,.08a.83.83,0,0,1-.06.21s0,.06,0,.08.08-.17,0,0a3.79,3.79,0,0,1-.2.34c-.06.1,0,0,0,0s0,.06,0,.07l-.16.15-.08.08,0,0a1.51,1.51,0,0,0-.2.12s-.22.12-.12.06,0,0,0,0l-.14,0-.2,0c-.12,0,0,0,0,0h-.41c-.13,0,0,0,0,0a.86.86,0,0,0-.23,0s-.23-.09-.13,0,0,0,0,0h0c-.1-.06,0,0,.14.16a.35.35,0,0,1,.06.17s0,.27,0,.15-.09.18,0,.07-.11.12,0,.07l.07-.07c.06-.06,0,0-.06,0l.09,0s-.16,0-.08,0l.11,0c.1,0-.2,0,0,0a2.69,2.69,0,0,0,1.09-.26,2.48,2.48,0,0,0,.76-.85l0-.07c0,.13-.07.09,0,0l0-.05c.12-.12-.1.06,0,0l.2-.12h0c-.12,0,0,0,.05,0a1.46,1.46,0,0,0,.2,0s-.2,0-.06,0h.2c.15,0-.13,0,0,0l.22.07a.8.8,0,0,0,1-.56.81.81,0,0,0-.56-1Z" transform="translate(14.05 20.69)"/><path class="cls-4" d="M62,200.35a24,24,0,0,0-7.14.79,2.61,2.61,0,0,0-1.72.87,2.64,2.64,0,0,0-.32,1.25,5.27,5.27,0,0,0,.29,2.79,1.79,1.79,0,0,0,2.35.91,5.25,5.25,0,0,0,.66-.59c1.39-1.26,3.66-.84,5.25-1.84a3.43,3.43,0,0,0,1.22-4.23" transform="translate(14.05 20.69)"/><path class="cls-4" d="M66.94,207.21a9.71,9.71,0,0,0-3.1.66,1.3,1.3,0,0,1-.64.14c-.57-.1-.83-.95-1.4-.91s-.65.71-.64,1.22c0,.74.09,1.62.74,2a1.55,1.55,0,0,0,.77.17,6.16,6.16,0,0,0,3-1.05,3.35,3.35,0,0,0,1.11-.86,1.15,1.15,0,0,0,.09-1.32" transform="translate(14.05 20.69)"/><path class="cls-4" d="M43.12,204.11a.73.73,0,0,0-1.07.09,2.15,2.15,0,0,0-.37,1.14l-.24,2.08a1.07,1.07,0,0,0,.05.64.91.91,0,0,0,.55.38c1.55.55,3.27-.06,4.74-.81a.52.52,0,0,0,.28-.22c.12-.25-.14-.51-.38-.63a3.15,3.15,0,0,0-1.31-.38,1.72,1.72,0,0,1-1-.23c-.33-.25-.36-.73-.42-1.14s-.25-.89-.66-1" transform="translate(14.05 20.69)"/><path class="cls-4" d="M97.2,202.44c-.39.3-1,.09-1.45.1-.85,0-1.5.74-2.25,1.14s-1.49.48-2.19.85a1.71,1.71,0,0,0-1,1.89c.3.85,1.42,1,2.32,1h3.71a2.42,2.42,0,0,0,1.48-.32,2.49,2.49,0,0,0,.72-1.8,5.9,5.9,0,0,0,0-1.78,1.92,1.92,0,0,0-1-1.39" transform="translate(14.05 20.69)"/><path class="cls-4" d="M90.3,216.17a1.33,1.33,0,0,0,0-1.66,2.73,2.73,0,0,0-1.5-.94,6,6,0,0,0-6.32,2,.93.93,0,0,0,.83,1.64c2-.07,4-1.17,6-.74" transform="translate(14.05 20.69)"/><path class="cls-4" d="M76.27,210.12c-.74-.45-1.69,0-2.44.45L72,211.64c-.46.27-1,.74-.79,1.24s.7.49,1.14.5l4,.13a1.72,1.72,0,0,0,.93-.16c.62-.39.45-1.33.19-2s-.49-1.22-1.07-1.41" transform="translate(14.05 20.69)"/><path class="cls-4" d="M67.72,221.65a2.45,2.45,0,0,1-.83,2.56,5.44,5.44,0,0,1-2.61,1.1,5.53,5.53,0,0,0-2.92,1,4.66,4.66,0,0,0-1.06,2.92l-.19,1.54a.83.83,0,0,0,.09.64.75.75,0,0,0,.47.25,4,4,0,0,0,3.76-1.15c.66-.71,1.08-1.67,1.91-2.15.48-.27,1-.36,1.51-.63,1.26-.72,1.47-2.43,1.54-3.89l.07-1.57a2.08,2.08,0,0,0-.31-1.46c-.34-.39-1.14-.32-1.2.19" transform="translate(14.05 20.69)"/><path class="cls-4" d="M74.55,228.13a5.56,5.56,0,0,1-2.08.64A4.33,4.33,0,0,0,69.74,231a2,2,0,0,0,.3,2.51,2.43,2.43,0,0,0,2.21-.17,5.28,5.28,0,0,0,1.22-.65,5.63,5.63,0,0,0,.82-.87l1.25-1.56a2.27,2.27,0,0,0,.69-1.5c0-.57-.76-1.06-1.18-.68" transform="translate(14.05 20.69)"/><path class="cls-4" d="M86.89,227.35c-.4.31-1,.09-1.45.1-.86,0-1.5.74-2.25,1.14s-1.5.48-2.2.85a1.69,1.69,0,0,0-1,1.89c.3.85,1.41,1,2.31,1H86a1.84,1.84,0,0,0,2.2-2.12,5.59,5.59,0,0,0,0-1.78,1.9,1.9,0,0,0-1-1.39" transform="translate(14.05 20.69)"/><path class="cls-4" d="M80,241.08a1.32,1.32,0,0,0,0-1.65,2.7,2.7,0,0,0-1.49-.94,6.08,6.08,0,0,0-6.33,2,.93.93,0,0,0,.83,1.65c2-.08,4-1.18,6-.75" transform="translate(14.05 20.69)"/><path class="cls-4" d="M18,187.87c-.39.31-1,.09-1.45.1-.85,0-1.5.74-2.25,1.14s-1.5.48-2.19.85a1.69,1.69,0,0,0-1,1.89c.3.85,1.41,1,2.31,1h3.71a2.4,2.4,0,0,0,1.48-.32,2.42,2.42,0,0,0,.72-1.8,5.32,5.32,0,0,0,0-1.78,1.91,1.91,0,0,0-1-1.39" transform="translate(14.05 20.69)"/><path class="cls-4" d="M29.06,185.33a1.34,1.34,0,0,0,.05-1.66,2.73,2.73,0,0,0-1.5-.94,6.05,6.05,0,0,0-6.32,2c-.27.35-.52.82-.31,1.21a1.18,1.18,0,0,0,1.14.44c2-.08,4-1.18,6-.74" transform="translate(14.05 20.69)"/><path class="cls-4" d="M66,235c-.75-.46-1.69,0-2.44.44l-1.79,1.07c-.46.28-1,.74-.8,1.24s.7.49,1.15.5l4,.13a1.58,1.58,0,0,0,.92-.16c.63-.39.45-1.33.2-2s-.5-1.22-1.08-1.41" transform="translate(14.05 20.69)"/><path class="cls-4" d="M51.83,215.24a1.31,1.31,0,0,0,.47-1.82,2.11,2.11,0,0,0-1.83-.89,6.14,6.14,0,0,0-2.06.49l-1.41.5c-.72.26-1.54.64-1.69,1.39s.59,1.5,1.34,1.82a4.74,4.74,0,0,0,5-.95" transform="translate(14.05 20.69)"/><path class="cls-4" d="M59.45,216.73a5.31,5.31,0,0,1,.08-2.14,1.83,1.83,0,0,1,1.52-1.34,2.69,2.69,0,0,1,1.07.27q1.25.53,2.46,1.11c.65.32,1.41.88,1.25,1.59s-1.1.89-1.85.91l-4.42.08" transform="translate(14.05 20.69)"/><path class="cls-4" d="M8.68,260.73l0-4.07a1.3,1.3,0,0,0-.11-.65,1.24,1.24,0,0,0-.62-.5A6.9,6.9,0,0,0,6.52,255a.69.69,0,0,0-.51,0,.73.73,0,0,0-.24.37A11.12,11.12,0,0,0,5.29,259a2.69,2.69,0,0,0,.58,2.14,2.09,2.09,0,0,0,2.65-.41" transform="translate(14.05 20.69)"/><path class="cls-4" d="M35.47,203.7a7.84,7.84,0,0,0-3.63,1.76,18.84,18.84,0,0,1-4.93,2.32c-1.15.35-2.5.73-2.95,1.85a1.1,1.1,0,0,0,0,1,1.24,1.24,0,0,0,.57.44,6.19,6.19,0,0,0,2.57.34l4.6,0c1.85,0,4-.18,5.06-1.7a5.91,5.91,0,0,0,.71-3.31,4.5,4.5,0,0,0-.27-2,1.55,1.55,0,0,0-1.62-1" transform="translate(14.05 20.69)"/><path class="cls-4" d="M35.71,185.53c-.5.71-1.54.68-2.4.61s-1.94.05-2.27.85a1.54,1.54,0,0,0,0,1.06,2.89,2.89,0,0,0,1.25,1.6,2.55,2.55,0,0,1,1.05.76c.28.51,0,1.19.31,1.69a1.23,1.23,0,0,0,1.9,0,3.62,3.62,0,0,0,.66-2.07A3.45,3.45,0,0,1,36.9,188a6,6,0,0,1,2.12-1c.73-.32,1.42-1.11,1.1-1.84s-1.35-.75-2.11-.53a7.5,7.5,0,0,0-2.37,1.17" transform="translate(14.05 20.69)"/><path class="cls-4" d="M48.28,188.77a24,24,0,0,0-7.14.79,2.61,2.61,0,0,0-1.71.87,2.55,2.55,0,0,0-.32,1.25,5.17,5.17,0,0,0,.29,2.79,1.79,1.79,0,0,0,2.35.91,5.25,5.25,0,0,0,.66-.59c1.38-1.26,3.66-.84,5.25-1.84a3.42,3.42,0,0,0,1.21-4.23" transform="translate(14.05 20.69)"/><path class="cls-4" d="M34.14,197.2c-1-.87-2.5-1-3.84-1.21a18.84,18.84,0,0,1-5.18-1.69c-1.08-.54-2.32-1.19-3.41-.68a1.12,1.12,0,0,0-.65.73,1.36,1.36,0,0,0,.12.71,6.18,6.18,0,0,0,1.63,2l3.37,3.13c1.36,1.26,3,2.61,4.85,2.23a5.92,5.92,0,0,0,2.79-1.92A4.65,4.65,0,0,0,35,198.87a1.55,1.55,0,0,0-.53-1.81" transform="translate(14.05 20.69)"/><path class="cls-4" d="M19.06,212.62a13.23,13.23,0,0,1,.19,8.41c-.17.52-.32,1.2.11,1.53a1,1,0,0,0,.45.16,2.43,2.43,0,0,0,2-.86,7.42,7.42,0,0,0,1.13-2c.44-1,.88-2.2.38-3.18s-1.7-1.32-2.39-2.15-.8-1.88-1.6-2.45" transform="translate(14.05 20.69)"/><path class="cls-4" d="M-.44,203.8a5.37,5.37,0,0,0-5.51,1.06,3.19,3.19,0,0,1-.76.61c-.25.11-.54.14-.8.23a1.9,1.9,0,0,0-.76,3c.22.24.5.41.72.65A2.75,2.75,0,0,1-7,211.48c-.07.66-.19,1.48.35,1.86a1.08,1.08,0,0,0,1.17-.05,2.76,2.76,0,0,0,.81-.92,13.84,13.84,0,0,0,1.43-3.07,5.31,5.31,0,0,1,1.4-2.72,10.93,10.93,0,0,1,1.31-.71,1.72,1.72,0,0,0,.94-1.09c.08-.49-.33-1.07-.81-1" transform="translate(14.05 20.69)"/><path class="cls-4" d="M16.71,201c-.2.2-.54.06-.74-.14-.86-.86-.72-2.5-1.76-3.12a3,3,0,0,0-1-.3c-2.15-.33-4.29-.62-6.45-.88-.71-.08-1.64,0-1.84.66s.3,1.05.71,1.42a42.42,42.42,0,0,0,4.81,3.74,4.8,4.8,0,0,1,1.13.92,7.2,7.2,0,0,0,1,1.31,2,2,0,0,0,1.82.19,3.33,3.33,0,0,0,2.11-3.8" transform="translate(14.05 20.69)"/><path class="cls-4" d="M-4.31,218.42c-.5.71-1.54.67-2.4.61s-1.94.05-2.27.84a1.64,1.64,0,0,0,0,1.07,2.83,2.83,0,0,0,1.25,1.59c.38.23.83.39,1.05.77s0,1.19.31,1.69a1.23,1.23,0,0,0,1.9,0,3.62,3.62,0,0,0,.66-2.07,3.47,3.47,0,0,1,.69-2.06,6.17,6.17,0,0,1,2.12-1c.73-.32,1.42-1.1,1.1-1.83s-1.35-.75-2.11-.53a7.47,7.47,0,0,0-2.37,1.16" transform="translate(14.05 20.69)"/><path class="cls-4" d="M6,210.81c-.54,0-1.09-.07-1.62,0a1.69,1.69,0,0,0-1.35.78.92.92,0,0,0,.5,1.31c.2,0,.4,0,.6,0,.55.07.87.67,1,1.21a3.43,3.43,0,0,0,.55,1.55,1.52,1.52,0,0,0,2,0,2.33,2.33,0,0,0,.69-2.06,2.69,2.69,0,0,0-2.85-2.37" transform="translate(14.05 20.69)"/><path class="cls-4" d="M13.82,182a.73.73,0,0,0-1.07.09,2.15,2.15,0,0,0-.37,1.14l-.24,2.08a1.07,1.07,0,0,0,0,.64.91.91,0,0,0,.55.38c1.55.55,3.27-.07,4.74-.81a.57.57,0,0,0,.28-.22c.12-.25-.14-.51-.38-.63a3.15,3.15,0,0,0-1.31-.38,1.8,1.8,0,0,1-1-.23c-.33-.25-.36-.73-.42-1.14s-.25-.9-.66-1" transform="translate(14.05 20.69)"/><path class="cls-4" d="M6.17,181.62a7.84,7.84,0,0,0-3.63,1.76,18.84,18.84,0,0,1-4.93,2.32c-1.15.35-2.5.73-2.95,1.85a1.1,1.1,0,0,0,0,1,1.24,1.24,0,0,0,.57.44,6.19,6.19,0,0,0,2.57.34l4.6,0c1.85,0,4-.18,5.06-1.7a5.91,5.91,0,0,0,.71-3.31,4.5,4.5,0,0,0-.27-2,1.55,1.55,0,0,0-1.62-.95" transform="translate(14.05 20.69)"/><path class="cls-4" d="M-10.24,190.54A13.23,13.23,0,0,1-10,199c-.17.52-.32,1.2.11,1.53a1,1,0,0,0,.45.16,2.43,2.43,0,0,0,2-.86,7.42,7.42,0,0,0,1.13-2c.44-1,.88-2.2.38-3.18s-1.7-1.32-2.39-2.15-.8-1.88-1.6-2.45" transform="translate(14.05 20.69)"/><path class="cls-4" d="M9.36,221a1,1,0,0,0-.6-1.4,2.65,2.65,0,0,0-1.71.1,17.34,17.34,0,0,0-2.15.82c-.5.22-1.06.75-.76,1.2s.73.24,1.13.19a3.65,3.65,0,0,1,3.3,1.38,2,2,0,0,0,.68.71,1.56,1.56,0,0,0,1.28-.21,7.25,7.25,0,0,0,1.85-1.12,2.38,2.38,0,0,0,.82-1.92.87.87,0,0,0-.26-.56,1,1,0,0,0-.62-.17c-1-.05-2-.06-3.05,0" transform="translate(14.05 20.69)"/><path class="cls-5" d="M139.4,250.94c.19-11.81,1.51-23.46,2.54-35.21.88-10,.57-19.94.33-29.93A75.3,75.3,0,0,0,141,197.12s-4.82,28.1-6,31.51-3.82,9.43-3.82,9.43l-1.6,10.64,1-54.42-8.27-16.9H105.81l-12.37,4L73.33,212.57V171C73.72,156,59,145.35,59,145.35c.21,2.84-41.9,20.76-51.42,24.85a10.29,10.29,0,0,1-4,.83H-8.57V191.9s39.37-3.75,55.92-8.74a19.65,19.65,0,0,0,5.13-2.33c2.1-1.36,6.15-3.44,9.8-2.18,5.22,1.81,3.61,8.43,3.61,9,0,0-3.57,21.9,4.2,39.35S77.44,254,77.44,254s.34,5.58,8.62,5.58a13.26,13.26,0,0,0,5.41-1.14A13.1,13.1,0,0,0,99,247.56,86.58,86.58,0,0,0,98.26,228c-2.22-16.11,4.23-39.57,8.58-40.35s10.24,1.52,9.67,40.35l-1.32,16.77s-1.52,14.57,8.71,16,12.37-2,12.37-2a12.49,12.49,0,0,0,3.1-3.32C139.38,253.92,139.38,252.43,139.4,250.94Z" transform="translate(14.05 20.69)"/><path class="cls-6" d="M20,170c17.4-7.23,30.05-21.88,51.85-7.07-3.57-10.5-12.49-16.58-12.49-16.58.21,2.84-41.42,20.07-51.08,24.16a10.63,10.63,0,0,1-4.09.82H-8.13L-8.25,176S2.59,177.24,20,170Z" transform="translate(14.05 20.69)"/><path class="cls-7" d="M73,210l.18-38.32a26.16,26.16,0,0,0-1.28-8.72c-21.48-14.81-35.23.09-52.38,7.32S-8.25,176-8.25,176v10.25s11,1.1,43.08-11.75c1.5-.61,33.71-13.87,35.22,3" transform="translate(14.05 20.69)"/><path class="cls-7" d="M142.52,199.67c-1.08,6.17-4.76,27-5.76,29.82-1.17,3.37-3.58,8.77-3.58,8.77l-1.82,11.22,4.78,0,5.82-34C142.41,210.15,142.53,204.91,142.52,199.67Z" transform="translate(14.05 20.69)"/><path class="cls-8" d="M188.63,154.38s3.7-23.36,22.91,0c0,0,33.09,39.78,52.3,36.49v-6.56l-3.55.36c-15.66,2.56-59.42-45.62-59.42-45.62-13.17-12.4-15.3,0-15.3,0-13.52,49.64-43.49,69.34-43.49,69.34l-.05,14S177.11,193.06,188.63,154.38Z" transform="translate(14.05 20.69)"/><path class="cls-9" d="M211.54,152.09c-19.21-23.36-22.91,0-22.91,0-11.52,38.68-46.6,68-46.6,68l-.93,4.33L263.84,190.6v-2C244.63,191.87,211.54,152.09,211.54,152.09Z" transform="translate(14.05 20.69)"/><path class="cls-10" d="M209.53,157.67a24.63,24.63,0,0,0-4.39-4.95c-3.95-3.27-9.87-1.63-12,3.07l-51.72,69.47-7.12,33.13H144.3c0-.43,0-.9,0-1.39v-.53c0-.34,0-.68,0-1s0-.45,0-.68,0-.69,0-1.05,0-.52,0-.79.05-.71.08-1.08,0-.57.08-.86.07-.74.11-1.13l.12-.92c0-.38.1-.77.17-1.16s.11-.65.16-1,.14-.79.22-1.19.14-.68.22-1,.18-.81.28-1.21.18-.7.27-1,.23-.81.35-1.22.22-.71.34-1.06.27-.82.42-1.22.27-.72.41-1.07.33-.81.5-1.21.32-.71.49-1.07.38-.8.59-1.2.37-.7.56-1,.45-.78.69-1.17l.65-1,.79-1.13c.24-.33.49-.67.75-1s.59-.73.9-1.09.55-.64.84-1c.51-.54,1-1.09,1.58-1.61l1-1.39h0l.05-.08.12-.16.38-.57.21-.3.45-.66.18-.26.51-.77q.13-.18.27-.39l.5-.73.33-.49c.21-.32.44-.65.66-1l.2-.3c.63-.93,1.31-1.94,2-3l.24-.38.82-1.22.39-.61.75-1.12c.13-.21.27-.42.41-.63l.76-1.16c.15-.24.3-.47.46-.7l.77-1.19.45-.7.89-1.38.35-.54c.37-.58.74-1.16,1.12-1.74a2.61,2.61,0,0,1,.17-.28c.43-.67.86-1.36,1.3-2l.33-.53,1-1.54c.15-.25.31-.5.47-.75.27-.45.55-.9.83-1.35l.51-.81.81-1.33.51-.83c.27-.43.53-.87.8-1.31.17-.29.34-.57.52-.85l.81-1.37.46-.76,1-1.64c.09-.17.19-.33.29-.49l1.24-2.14.22-.39,1-1.7.4-.71c.26-.46.51-.92.77-1.37l.43-.79.68-1.24.44-.82.63-1.2c.14-.26.28-.52.41-.78l.62-1.21.37-.72c.21-.43.42-.84.62-1.26l.3-.61c.29-.61.58-1.2.84-1.79,0,0,6.25-16.79,20.63-3.28,0,0,33.54,33.92,54.58,37.61V191.43C234.42,192.13,209.53,157.67,209.53,157.67Z" transform="translate(14.05 20.69)"/><path class="cls-11" d="M208.27,167.89c-14.37-13.51-20.62,3.28-20.62,3.28-.27.59-.55,1.18-.85,1.79-.09.2-.2.41-.3.61-.2.42-.4.83-.62,1.26-.12.24-.24.48-.37.72-.2.4-.4.8-.62,1.21l-.4.78c-.21.4-.42.8-.64,1.2l-.44.82-.68,1.24c-.14.27-.28.53-.43.79l-.77,1.37-.39.71-1,1.7-.23.39c-.4.71-.82,1.42-1.24,2.14l-.29.49-1,1.64-.45.76-.82,1.37-.52.85c-.26.44-.53.88-.8,1.31-.16.28-.33.56-.5.83-.27.45-.55.89-.82,1.33l-.5.81-.84,1.35-.47.75c-.32.52-.65,1-1,1.54l-.33.53c-.43.68-.86,1.37-1.29,2l-.18.28-1.12,1.74-.34.54c-.3.46-.6.92-.89,1.38l-.46.7-.77,1.19-.46.7c-.25.39-.5.78-.76,1.16-.13.21-.27.42-.41.63l-.74,1.12c-.13.21-.27.41-.4.61l-.81,1.22-.25.38c-.71,1.07-1.38,2.08-2,3l-.2.3-.67,1-.33.49-.5.73c-.09.14-.17.27-.26.39l-.52.77-.18.26-.45.66-.2.3-.39.57-.11.16-.06.09a20.32,20.32,0,0,1-2.16,2.56c-.13.15-.25.3-.39.44q-.44.48-.84,1c-.31.36-.61.72-.9,1.09s-.5.66-.74,1-.54.75-.79,1.13-.45.69-.66,1-.46.78-.68,1.17-.39.7-.57,1-.4.8-.59,1.2-.33.71-.49,1.07-.33.8-.49,1.21-.29.71-.42,1.07l-.42,1.22c-.11.35-.23.7-.34,1.06s-.23.81-.34,1.22-.19.69-.28,1-.19.8-.28,1.21-.15.67-.22,1-.14.79-.21,1.19-.12.65-.17,1-.11.78-.16,1.16-.09.62-.12.92-.08.76-.12,1.13-.06.58-.08.86,0,.73-.07,1.08,0,.54,0,.79,0,.71,0,1.05,0,.46,0,.68v1c0,.18,0,.36,0,.53,0,.49,0,1,0,1.39H262.86V205.5C241.81,201.81,208.27,167.89,208.27,167.89Z" transform="translate(14.05 20.69)"/><path class="cls-12" d="M144.47,222.74c1.06-1.46,37.24-37.81,44.71-65.19,0,0,3.91-26.27,23.84-1.82s39.85,36.49,48.39,36.13" transform="translate(14.05 20.69)"/><g class="cls-13"><path class="cls-14" d="M242.14,198.84c.43-1.92-.28-3.9-1-5.73-.21-.57-.53-1.22-1.11-1.32s-1,.32-1.46.53a2.27,2.27,0,0,1-2.92-1.3,3.73,3.73,0,0,0-.41-1.1c-.52-.68-1.59-.43-2.34,0a3,3,0,0,0-1.5,1.47,3.7,3.7,0,0,0,.23,2.44l1,3.14a1.7,1.7,0,0,0,.55.92,1.72,1.72,0,0,0,.81.22,5.88,5.88,0,0,0,2.89-.25,8.06,8.06,0,0,1,1.57-.75c.57-.12,1.3.23,1.28.83a4.63,4.63,0,0,0-.12.73c0,.38.45.59.81.65a3.48,3.48,0,0,1,1.07.18" transform="translate(14.05 20.69)"/><path class="cls-14" d="M224.16,205.22a1.16,1.16,0,0,0,1.1,1.17,3.24,3.24,0,0,0,1.69-.46,1.75,1.75,0,0,0,.63-.44,1.69,1.69,0,0,0,.25-.67,28.43,28.43,0,0,0,.58-3.79,3.66,3.66,0,0,0-.54-2.77,4.62,4.62,0,0,0-2.76-1A9,9,0,0,1,222,196c-.26-.17-.58-.37-.88-.25s-.43.56-.43.92a4.37,4.37,0,0,0,1.17,3,13.05,13.05,0,0,1,2,2c.7,1.16.41,2.65.09,4" transform="translate(14.05 20.69)"/><path class="cls-14" d="M240,176.24c1.33-.33,2.12-1.68,2.93-2.81a15,15,0,0,1,5.26-4.6c0-.36-.51-.43-.85-.35a13.32,13.32,0,0,0-4.07,1.68,3,3,0,0,1-1.91.68c-.91-.16-1.41-1.18-2.21-1.64a3.9,3.9,0,0,0-3.21.19,4.09,4.09,0,0,0-2.39,1.59c-.66,1.18,0,2.67.64,3.84.29.49.66,1,1.22,1.08a4.44,4.44,0,0,0,1.08-.18c1.14-.13,2.3,1.05,3.31.5" transform="translate(14.05 20.69)"/><path class="cls-14" d="M231.46,184.08a6.19,6.19,0,0,0,1.87-2.28c.24-.52.38-1.21,0-1.6a1.36,1.36,0,0,0-1.33-.13c-1,.29-1.89.77-2.88,1a3.2,3.2,0,0,1-2.88-.55,2.46,2.46,0,0,0-.85-.7c-.61-.19-1.18.41-1.46,1a5.08,5.08,0,0,0,.07,4.39,1.32,1.32,0,0,0,.42.54,1.14,1.14,0,0,0,.77.11c1.1-.16,2-1,2.91-1.59s2.36-.77,3,.15" transform="translate(14.05 20.69)"/><path class="cls-14" d="M248.29,193.12a6.18,6.18,0,0,0,5.59-3.31,3.59,3.59,0,0,1,.59-1,8.79,8.79,0,0,1,.79-.57,2.28,2.28,0,0,0-.29-3.6c-.33-.18-.69-.26-1-.45a3.22,3.22,0,0,1-1.37-2.22c-.17-.76-.35-1.72-1.08-1.94a1.24,1.24,0,0,0-1.26.51,3.28,3.28,0,0,0-.53,1.34,17,17,0,0,0-.4,4,6.36,6.36,0,0,1-.5,3.56,12,12,0,0,1-1.16,1.3,2,2,0,0,0-.61,1.58c.09.58.75,1.07,1.25.78" transform="translate(14.05 20.69)"/><path class="cls-14" d="M212.83,213.07a6.18,6.18,0,0,0,5.59-3.3,4.12,4.12,0,0,1,.59-1,8.14,8.14,0,0,1,.79-.56,2.29,2.29,0,0,0-.29-3.61c-.32-.17-.69-.26-1-.44a3.24,3.24,0,0,1-1.37-2.22c-.17-.77-.34-1.73-1.08-1.94a1.23,1.23,0,0,0-1.26.5,3.49,3.49,0,0,0-.53,1.34,17.1,17.1,0,0,0-.4,4,6.39,6.39,0,0,1-.5,3.57,11.85,11.85,0,0,1-1.16,1.3,2,2,0,0,0-.61,1.58c.09.58.75,1.06,1.25.78" transform="translate(14.05 20.69)"/><path class="cls-14" d="M180.54,206.72a3,3,0,0,1-.06-3.18,6.24,6.24,0,0,1,2.42-2.22,6.47,6.47,0,0,0,2.79-2.28,5.59,5.59,0,0,0,.06-3.66l-.37-1.8a1.11,1.11,0,0,0-.34-.68.83.83,0,0,0-.6-.09,4.63,4.63,0,0,0-3.66,2.73c-.45,1-.55,2.28-1.28,3.13-.41.49-1,.8-1.39,1.28-1.11,1.3-.7,3.28-.22,4.93l.51,1.78a2.43,2.43,0,0,0,.89,1.51c.51.3,1.36-.08,1.23-.67" transform="translate(14.05 20.69)"/><path class="cls-14" d="M170.67,202.12a6.56,6.56,0,0,1,2-1.52,5.13,5.13,0,0,0,2.15-3.48c.16-1.08-.23-2.43-1.27-2.68-.86-.22-1.68.43-2.34,1a6.39,6.39,0,0,0-1.08,1.19,6.14,6.14,0,0,0-.56,1.29l-.78,2.22a2.8,2.8,0,0,0-.19,1.94c.25.62,1.22.89,1.54.31" transform="translate(14.05 20.69)"/><path class="cls-14" d="M195.21,222.76c.14-.3.57-.27.86-.13,1.26.63,1.72,2.51,3.09,2.8a3,3,0,0,0,1.22-.06q3.68-.68,7.34-1.5c.8-.18,1.79-.6,1.75-1.44,0-.66-.71-1.06-1.31-1.31a49,49,0,0,0-6.62-2.32,5.78,5.78,0,0,1-1.58-.59,8.6,8.6,0,0,0-1.57-1.08,2.3,2.3,0,0,0-2.06.49,4,4,0,0,0-.86,5" transform="translate(14.05 20.69)"/><path class="cls-14" d="M188.5,229.18l1.27-1.28a3.22,3.22,0,0,0,.84-1.14,1.15,1.15,0,0,0-.27-1.3,1.34,1.34,0,0,0-1.06-.16,4.6,4.6,0,0,0-3.56,3.28,2,2,0,0,0,.09,1.52,1.42,1.42,0,0,0,1.77.46,2.59,2.59,0,0,0,1.27-1.51" transform="translate(14.05 20.69)"/><path class="cls-14" d="M184.86,220.8a4.9,4.9,0,0,0,3.54-.93,3.4,3.4,0,0,0,1.24-3.39,3.56,3.56,0,0,1-.29-1.38c.13-1,1.49-1.41,1.67-2.4s-.75-1.59-1.6-1.58a4.11,4.11,0,0,0-2.28,1q-1.17.9-2.31,1.86a6.46,6.46,0,0,0-1.56,1.74,7,7,0,0,0-.32,4,3,3,0,0,0,.56,1.65,1,1,0,0,0,1.49,0" transform="translate(14.05 20.69)"/><path class="cls-14" d="M211.55,195.27c.28-1,1.42-1.33,2.38-1.6s2.09-.79,2.15-1.81a1.92,1.92,0,0,0-.4-1.19,3.29,3.29,0,0,0-2-1.3,2.84,2.84,0,0,1-1.42-.45c-.5-.45-.48-1.31-1-1.76s-1.73-.06-2.06.74a4.42,4.42,0,0,0,.06,2.57,4.15,4.15,0,0,1,0,2.56c-.37.85-1.25,1.33-1.92,2s-1.13,1.78-.51,2.47,1.75.31,2.5-.22a8.86,8.86,0,0,0,2.14-2.22" transform="translate(14.05 20.69)"/><path class="cls-14" d="M203.18,207.74c.58-.23,1.21-.35,1.77-.62a2,2,0,0,0,1.17-1.39c.1-.63-.42-1.35-1-1.26-.22,0-.43.17-.65.21-.63.13-1.2-.4-1.54-1a4,4,0,0,0-1.17-1.52,1.72,1.72,0,0,0-2.24.74,2.79,2.79,0,0,0,0,2.56,3.05,3.05,0,0,0,4,1.55" transform="translate(14.05 20.69)"/><path class="cls-14" d="M189,205.57a2.68,2.68,0,0,0,2.45-1.63,3.6,3.6,0,0,0,.2-.66.83.83,0,0,0,0-.15c.05-.19-.08.12,0,0l0,0c.05-.09,0-.07,0,0l.12-.11c-.15.16-.1.07,0,0l.09-.05.25-.12a2.29,2.29,0,0,0,.64-.42,1.75,1.75,0,0,0,.54-1.48,1.4,1.4,0,0,0-1.52-1.14,3.39,3.39,0,0,0-2.59,1.19,3.61,3.61,0,0,0-.69,3.37.93.93,0,0,0,1.79-.49,2,2,0,0,1-.07-.23.5.5,0,0,1,0-.12c0-.16,0,0,0,.06s0-.55,0-.55,0,.21,0,.07a.5.5,0,0,1,0-.12l.06-.24s0-.07,0-.11,0,0,0,.05.08-.19.13-.27.12-.21.14-.2-.13.15,0,.05l.08-.09.17-.16.09-.08-.07.06.08-.05a.82.82,0,0,1,.2-.12l.1,0c.14-.08,0,0-.06,0a2,2,0,0,0,.22-.08,2.3,2.3,0,0,0,.28-.06s-.23,0-.07,0h.35c.17,0,0,0,0,0a.45.45,0,0,1-.22-.13c-.15-.15-.12-.16-.08-.09a.48.48,0,0,1-.07-.23c0-.1,0-.11,0,0s.05-.25,0,0,.1-.21,0,0,.14-.18,0,0,.06-.05.08-.06a.67.67,0,0,0-.14.09,4.6,4.6,0,0,0-.93.56,2.13,2.13,0,0,0-.61,1.2c0,.09-.05.18-.08.27s.08-.15,0,0l-.06.12-.06.09c-.1.16.14-.14,0,0l-.18.17c-.09.08.15-.1.05,0l-.11.07-.1.06c-.15.09.19-.06,0,0s-.19,0-.26.07.24,0,.08,0H189a.93.93,0,1,0,0,1.86Z" transform="translate(14.05 20.69)"/><path class="cls-14" d="M196.66,196.51a27.23,27.23,0,0,0,7.47-3.64,2.32,2.32,0,0,0,1.41-3.14,6.16,6.16,0,0,0-1.36-3,2,2,0,0,0-2.9-.11,6.12,6.12,0,0,0-.49.91c-1,1.94-3.67,2.35-5,4.07a4.13,4.13,0,0,0,.26,5.18" transform="translate(14.05 20.69)"/><path class="cls-14" d="M188.68,190.77a10.8,10.8,0,0,0,3.11-1.93,1.42,1.42,0,0,1,.66-.4c.64-.11,1.25.74,1.85.48s.44-1,.24-1.62c-.28-.82-.71-1.76-1.54-1.92a1.74,1.74,0,0,0-.9.11,7.07,7.07,0,0,0-2.83,2.31,3.94,3.94,0,0,0-.89,1.39,1.38,1.38,0,0,0,.4,1.51" transform="translate(14.05 20.69)"/><path class="cls-14" d="M215.75,185.06c.39.26.95-.06,1.12-.51a2.55,2.55,0,0,0,0-1.42l-.51-2.41a1.21,1.21,0,0,0-.3-.69,1,1,0,0,0-.73-.22c-1.9,0-3.54,1.33-4.86,2.73a.68.68,0,0,0-.22.36c0,.32.34.51.65.56a3.91,3.91,0,0,0,1.56-.08,1.89,1.89,0,0,1,1.16-.13c.45.16.67.67.88,1.11s.61.9,1.08.81" transform="translate(14.05 20.69)"/><path class="cls-14" d="M157.55,207.73c.31-.49,1-.46,1.54-.67.92-.35,1.35-1.4,2-2.13s1.45-1.12,2.06-1.79a2,2,0,0,0,.41-2.51c-.64-.83-1.91-.56-2.88-.21l-4,1.42a2.8,2.8,0,0,0-1.49.93,3,3,0,0,0-.11,2.29,6.53,6.53,0,0,0,.67,2,2.21,2.21,0,0,0,1.62,1.17" transform="translate(14.05 20.69)"/><path class="cls-14" d="M159.9,189.77a1.58,1.58,0,0,0,.57,1.86,3.11,3.11,0,0,0,2,.48,7,7,0,0,0,6.13-4.67,1.44,1.44,0,0,0-.12-1.47,1.3,1.3,0,0,0-1.4-.05c-2.18.86-3.93,2.86-6.25,3.13" transform="translate(14.05 20.69)"/><path class="cls-14" d="M177.43,191.11c1,.22,1.84-.65,2.48-1.43l1.55-1.89c.4-.48.8-1.2.4-1.68s-1-.28-1.43-.12l-4.41,1.4a1.87,1.87,0,0,0-1,.53c-.53.67,0,1.65.55,2.33s1,1.17,1.7,1.16" transform="translate(14.05 20.69)"/><path class="cls-14" d="M202.1,176a1.55,1.55,0,0,0,.17,2.21,2.4,2.4,0,0,0,2.32.29,7.09,7.09,0,0,0,2.06-1.34l1.34-1.11c.68-.56,1.44-1.3,1.32-2.19s-1.2-1.45-2.14-1.51a5.45,5.45,0,0,0-5.11,3" transform="translate(14.05 20.69)"/><path class="cls-14" d="M193.25,177.27a6.5,6.5,0,0,1,.71,2.41,2.16,2.16,0,0,1-1.14,2.08,3.06,3.06,0,0,1-1.28.12c-1-.07-2.06-.17-3.08-.3-.84-.1-1.87-.43-2-1.29s.86-1.42,1.67-1.72l4.77-1.8" transform="translate(14.05 20.69)"/><path class="cls-14" d="M170.28,264.5a3,3,0,0,1-.06-3.18,6.16,6.16,0,0,1,2.42-2.22,6.42,6.42,0,0,0,2.79-2.28,5.59,5.59,0,0,0,.06-3.66l-.37-1.8a1,1,0,0,0-.34-.68.82.82,0,0,0-.6-.09,4.63,4.63,0,0,0-3.66,2.73c-.45,1-.54,2.27-1.28,3.13-.41.49-1,.8-1.39,1.28-1.11,1.3-.69,3.28-.22,4.93l.52,1.78A2.38,2.38,0,0,0,169,266c.51.3,1.36-.08,1.24-.67" transform="translate(14.05 20.69)"/><path class="cls-14" d="M160.41,259.9a6.68,6.68,0,0,1,2-1.52,5.1,5.1,0,0,0,2.15-3.48c.16-1.08-.23-2.43-1.27-2.68-.86-.22-1.68.43-2.34,1a6.76,6.76,0,0,0-1.08,1.19,6.14,6.14,0,0,0-.56,1.29l-.78,2.22a2.8,2.8,0,0,0-.19,1.94c.25.62,1.22.89,1.54.31" transform="translate(14.05 20.69)"/><path class="cls-14" d="M201.29,253.05c.28-1,1.42-1.34,2.38-1.6s2.09-.79,2.15-1.81a1.86,1.86,0,0,0-.4-1.19,3.27,3.27,0,0,0-1.95-1.3,2.88,2.88,0,0,1-1.43-.45c-.5-.45-.48-1.31-1-1.76s-1.73-.06-2.05.74a4.31,4.31,0,0,0,.05,2.56,4.18,4.18,0,0,1,0,2.57c-.37.85-1.25,1.33-1.92,2s-1.13,1.78-.51,2.47,1.75.31,2.5-.23a8.65,8.65,0,0,0,2.14-2.21" transform="translate(14.05 20.69)"/><path class="cls-14" d="M192.92,265.51c.59-.22,1.21-.34,1.77-.61a2,2,0,0,0,1.17-1.39c.1-.63-.42-1.35-1-1.26-.22,0-.43.17-.65.21-.63.13-1.19-.41-1.53-1a4.05,4.05,0,0,0-1.17-1.52,1.74,1.74,0,0,0-2.25.73,2.81,2.81,0,0,0,0,2.57,3,3,0,0,0,4,1.54" transform="translate(14.05 20.69)"/><path class="cls-14" d="M178.71,263.34a2.64,2.64,0,0,0,2.45-1.62,3.13,3.13,0,0,0,.2-.66c0-.05,0-.1,0-.15s-.08.12,0,0l0,0c.05-.09,0-.08,0,0l.12-.11c-.15.16-.1.07,0,0l.09-.05.26-.12a2.39,2.39,0,0,0,.63-.42,1.75,1.75,0,0,0,.54-1.48,1.41,1.41,0,0,0-1.51-1.15,3.44,3.44,0,0,0-2.6,1.2,3.64,3.64,0,0,0-.69,3.37.93.93,0,0,0,1.79-.49c0-.08,0-.16-.07-.23s0-.08,0-.12,0,0,0,.06v-.55s0,.21,0,.07,0-.08,0-.12l.06-.24a.76.76,0,0,0,0-.11c.05-.15,0,0,0,0s.09-.19.14-.27a1.16,1.16,0,0,1,.13-.2s-.13.15,0,.05l.08-.09.16-.17.09-.07-.07.06.08,0a.82.82,0,0,1,.2-.12l.1-.06-.06,0,.22-.08c.09,0,.2,0,.29-.06h.27c.17,0,0,0-.05,0a.5.5,0,0,1-.22-.13c-.14-.15-.11-.16-.07-.09a.4.4,0,0,1-.08-.23c0-.1,0-.11,0,0s.05-.26,0,0,.1-.21,0,0,.15-.17,0,0,0,0,.07-.06l-.14.09a4.89,4.89,0,0,0-.93.56,2.13,2.13,0,0,0-.61,1.2c0,.09,0,.18-.07.27s.07-.15,0,0l-.06.13-.06.09c-.1.16.14-.14,0,0l-.18.17c-.09.08.16-.11.06,0l-.12.07-.1.06c-.15.09.19-.06,0,0a2.5,2.5,0,0,0-.26.07s.24,0,.09,0h-.17a.93.93,0,0,0,0,1.85Z" transform="translate(14.05 20.69)"/><path class="cls-14" d="M186.4,254.29a27.23,27.23,0,0,0,7.47-3.64,3.08,3.08,0,0,0,1.54-1.62,3.16,3.16,0,0,0-.13-1.52,6.24,6.24,0,0,0-1.35-3,2,2,0,0,0-2.91-.11,5.66,5.66,0,0,0-.49.91c-1,1.94-3.67,2.34-5,4.07a4.13,4.13,0,0,0,.26,5.18" transform="translate(14.05 20.69)"/><path class="cls-14" d="M178.42,248.55a11,11,0,0,0,3.11-1.93,1.42,1.42,0,0,1,.66-.4c.65-.11,1.25.74,1.85.48s.44-1,.24-1.62c-.28-.82-.7-1.76-1.54-1.92a1.74,1.74,0,0,0-.9.11,7.07,7.07,0,0,0-2.83,2.31,3.85,3.85,0,0,0-.89,1.39,1.37,1.37,0,0,0,.41,1.51" transform="translate(14.05 20.69)"/><path class="cls-14" d="M205.49,242.84c.39.26.95-.07,1.12-.51a2.54,2.54,0,0,0,0-1.42l-.51-2.41a1.29,1.29,0,0,0-.31-.69,1,1,0,0,0-.73-.22c-1.9,0-3.54,1.33-4.86,2.73a.68.68,0,0,0-.22.36c0,.32.34.51.65.56a3.78,3.78,0,0,0,1.57-.09,2,2,0,0,1,1.15-.13c.46.16.67.68.89,1.12s.61.9,1.08.81" transform="translate(14.05 20.69)"/><path class="cls-14" d="M147.29,265.51c.31-.49,1-.46,1.54-.67.92-.35,1.35-1.4,2-2.13s1.45-1.12,2.07-1.79a2,2,0,0,0,.4-2.51c-.64-.83-1.91-.56-2.88-.21l-4,1.42a2.8,2.8,0,0,0-1.49.93,3,3,0,0,0-.11,2.29,7.12,7.12,0,0,0,.67,2,2.25,2.25,0,0,0,1.62,1.17" transform="translate(14.05 20.69)"/><path class="cls-14" d="M149.64,247.54a1.62,1.62,0,0,0,.57,1.87,3,3,0,0,0,2,.47,7,7,0,0,0,6.13-4.66,1.42,1.42,0,0,0-.12-1.47,1.3,1.3,0,0,0-1.4-.05c-2.18.86-3.93,2.86-6.24,3.13" transform="translate(14.05 20.69)"/><path class="cls-14" d="M167.17,248.89c1,.22,1.84-.65,2.49-1.43l1.54-1.89c.4-.48.8-1.2.4-1.68s-.95-.28-1.43-.13l-4.41,1.41a1.87,1.87,0,0,0-.95.53c-.53.67,0,1.65.55,2.33s1,1.17,1.7,1.16" transform="translate(14.05 20.69)"/><path class="cls-14" d="M172.15,232.74a3,3,0,0,1-.06-3.18,6.31,6.31,0,0,1,2.42-2.22,6.35,6.35,0,0,0,2.79-2.28,5.65,5.65,0,0,0,.07-3.66l-.38-1.79a1,1,0,0,0-.34-.69.94.94,0,0,0-.6-.09,4.63,4.63,0,0,0-3.66,2.73c-.45,1.05-.54,2.28-1.28,3.14-.41.48-1,.79-1.39,1.28-1.11,1.29-.69,3.28-.22,4.93l.52,1.78a2.38,2.38,0,0,0,.88,1.51c.51.3,1.36-.09,1.24-.68" transform="translate(14.05 20.69)"/><path class="cls-14" d="M162.28,228.15a6.68,6.68,0,0,1,2-1.52,5.14,5.14,0,0,0,2.16-3.49c.15-1.08-.24-2.42-1.27-2.68-.87-.21-1.69.44-2.35,1a6.12,6.12,0,0,0-1.08,1.19,5.72,5.72,0,0,0-.56,1.29l-.78,2.22a2.79,2.79,0,0,0-.19,1.94c.25.61,1.22.88,1.54.3" transform="translate(14.05 20.69)"/><path class="cls-14" d="M149.16,233.76c.32-.49,1-.46,1.54-.67.92-.35,1.35-1.4,2-2.14s1.45-1.11,2.07-1.79a2,2,0,0,0,.41-2.5c-.65-.83-1.92-.56-2.89-.22l-4,1.43a2.74,2.74,0,0,0-1.49.93,3,3,0,0,0-.11,2.28,7.19,7.19,0,0,0,.67,2,2.21,2.21,0,0,0,1.62,1.16" transform="translate(14.05 20.69)"/><path class="cls-14" d="M151.51,215.79a1.59,1.59,0,0,0,.58,1.86,3,3,0,0,0,2,.48,7,7,0,0,0,6.13-4.67,1.4,1.4,0,0,0-.12-1.46,1.32,1.32,0,0,0-1.4-.06c-2.18.87-3.93,2.86-6.24,3.14" transform="translate(14.05 20.69)"/><path class="cls-14" d="M239,251.26c.31-.49,1-.46,1.54-.66.91-.36,1.35-1.4,2-2.14s1.45-1.11,2.07-1.79a2.05,2.05,0,0,0,.41-2.51c-.65-.82-1.91-.56-2.89-.21l-4,1.43a2.76,2.76,0,0,0-1.5.92,3,3,0,0,0-.1,2.29,6.79,6.79,0,0,0,.66,2,2.2,2.2,0,0,0,1.62,1.17" transform="translate(14.05 20.69)"/><path class="cls-14" d="M227.83,258.38a1.58,1.58,0,0,0,.57,1.86,3,3,0,0,0,2,.48,7,7,0,0,0,6.12-4.67,1.44,1.44,0,0,0-.11-1.47,1.36,1.36,0,0,0-1.41-.05c-2.17.87-3.92,2.86-6.24,3.14" transform="translate(14.05 20.69)"/><path class="cls-14" d="M169,217.14c1,.22,1.84-.65,2.49-1.44l1.54-1.88c.4-.49.8-1.21.4-1.69s-.94-.28-1.43-.12l-4.41,1.4a1.94,1.94,0,0,0-.95.53c-.53.68,0,1.66.55,2.33s1,1.17,1.7,1.16" transform="translate(14.05 20.69)"/><path class="cls-14" d="M191.84,233.78A1.55,1.55,0,0,0,192,236a2.41,2.41,0,0,0,2.33.29,7,7,0,0,0,2-1.34l1.34-1.11c.68-.56,1.44-1.3,1.32-2.19s-1.2-1.45-2.14-1.51a5.42,5.42,0,0,0-5.1,3" transform="translate(14.05 20.69)"/><path class="cls-14" d="M183,235.05a6.71,6.71,0,0,1,.72,2.41,2.15,2.15,0,0,1-1.15,2.08,2.87,2.87,0,0,1-1.27.11c-1-.06-2.07-.16-3.09-.29-.84-.11-1.87-.43-2-1.29s.87-1.42,1.67-1.72l4.77-1.8" transform="translate(14.05 20.69)"/><path class="cls-14" d="M221.69,166.44l1.55,4.53a1.71,1.71,0,0,0,.37.69,1.43,1.43,0,0,0,.85.31,8.24,8.24,0,0,0,1.72,0,.79.79,0,0,0,.54-.23.77.77,0,0,0,.13-.5,13.44,13.44,0,0,0-.82-4.19,3.15,3.15,0,0,0-1.44-2.16c-1-.44-2.2.45-2.73,1.48" transform="translate(14.05 20.69)"/><path class="cls-14" d="M214,240.35c1.45-.62,2.34-2.08,3.29-3.35a21.72,21.72,0,0,1,4.49-4.49c1.12-.84,2.45-1.78,2.51-3.2a1.3,1.3,0,0,0-.4-1.07,1.36,1.36,0,0,0-.78-.27,6.78,6.78,0,0,0-2.92.61l-5,1.81c-2,.73-4.29,1.74-4.87,3.84a7.18,7.18,0,0,0,.47,4,5.35,5.35,0,0,0,1.05,2.12,1.73,1.73,0,0,0,2.12.44" transform="translate(14.05 20.69)"/><path class="cls-14" d="M220.52,260.7c.28-1,1.42-1.34,2.38-1.6s2.09-.8,2.15-1.82a1.89,1.89,0,0,0-.4-1.18,3.29,3.29,0,0,0-2-1.3,3,3,0,0,1-1.43-.45c-.49-.46-.47-1.31-1-1.76s-1.73-.06-2.06.74a4.31,4.31,0,0,0,.06,2.56,4.15,4.15,0,0,1,0,2.56c-.37.86-1.25,1.34-1.92,2s-1.13,1.79-.51,2.48,1.75.31,2.5-.23a8.82,8.82,0,0,0,2.14-2.21" transform="translate(14.05 20.69)"/><path class="cls-14" d="M205.63,261.93a26.86,26.86,0,0,0,7.46-3.63,3,3,0,0,0,1.54-1.62,3,3,0,0,0-.12-1.52,6.08,6.08,0,0,0-1.36-3,2,2,0,0,0-2.9-.11,5.66,5.66,0,0,0-.49.91c-1,1.94-3.67,2.34-5,4.07a4.1,4.1,0,0,0,.26,5.18" transform="translate(14.05 20.69)"/><path class="cls-14" d="M217.84,247.09c1.46.56,3.09.13,4.63-.13a21.26,21.26,0,0,1,6.27-.11c1.37.19,3,.44,4-.55a1.35,1.35,0,0,0,.43-1.06,1.55,1.55,0,0,0-.39-.75,7.1,7.1,0,0,0-2.54-1.61l-4.84-2.19c-2-.89-4.28-1.75-6.11-.63a6.89,6.89,0,0,0-2.31,3.21,5.49,5.49,0,0,0-.66,2.28,1.82,1.82,0,0,0,1.25,1.82" transform="translate(14.05 20.69)"/><path class="cls-14" d="M228.46,224.09a15.85,15.85,0,0,1-3.36-9.31c0-.65-.1-1.46-.7-1.66a1.13,1.13,0,0,0-.55,0,2.8,2.8,0,0,0-1.86,1.74,8.39,8.39,0,0,0-.49,2.63c-.11,1.3-.14,2.79.77,3.69s2.35.82,3.41,1.48,1.57,1.79,2.65,2.12" transform="translate(14.05 20.69)"/><path class="cls-14" d="M253,226.42a6.18,6.18,0,0,0,5.6-3.3,3.55,3.55,0,0,1,.59-1,7.48,7.48,0,0,1,.79-.56,2.3,2.3,0,0,0-.29-3.61c-.33-.17-.7-.26-1-.44a3.22,3.22,0,0,1-1.38-2.22c-.17-.77-.34-1.73-1.08-1.94a1.23,1.23,0,0,0-1.25.5,3.35,3.35,0,0,0-.54,1.34,17.09,17.09,0,0,0-.39,4,6.4,6.4,0,0,1-.51,3.57,11.75,11.75,0,0,1-1.15,1.3,2,2,0,0,0-.62,1.58c.09.58.75,1.06,1.25.78" transform="translate(14.05 20.69)"/><path class="cls-14" d="M235.36,236.11c.14-.3.57-.27.86-.13,1.26.63,1.72,2.51,3.09,2.8a3,3,0,0,0,1.22-.06c2.46-.45,4.9-.95,7.34-1.5.8-.18,1.79-.6,1.75-1.44,0-.66-.71-1.06-1.3-1.31a49.15,49.15,0,0,0-6.63-2.32,5.78,5.78,0,0,1-1.58-.59,8.6,8.6,0,0,0-1.57-1.08,2.27,2.27,0,0,0-2.06.5,4,4,0,0,0-.86,5" transform="translate(14.05 20.69)"/><path class="cls-14" d="M251.7,208.63c.28-1,1.42-1.34,2.38-1.61s2.09-.79,2.15-1.81a1.86,1.86,0,0,0-.4-1.19,3.24,3.24,0,0,0-2-1.3,2.88,2.88,0,0,1-1.43-.45c-.5-.45-.48-1.31-1-1.76s-1.72-.06-2.05.74a4.34,4.34,0,0,0,.05,2.57,4.15,4.15,0,0,1,0,2.56c-.37.85-1.25,1.33-1.92,2s-1.13,1.78-.51,2.47,1.75.32,2.5-.22a8.81,8.81,0,0,0,2.14-2.21" transform="translate(14.05 20.69)"/><path class="cls-14" d="M243.33,221.09c.59-.23,1.21-.35,1.77-.62a2,2,0,0,0,1.18-1.39c.09-.63-.43-1.35-1-1.26-.23,0-.43.17-.66.21-.63.13-1.19-.4-1.53-1a4.05,4.05,0,0,0-1.17-1.52,1.73,1.73,0,0,0-2.25.74,2.79,2.79,0,0,0,0,2.56,3.06,3.06,0,0,0,4,1.55" transform="translate(14.05 20.69)"/><path class="cls-14" d="M245.64,256.19a.82.82,0,0,0,1.12-.51,2.46,2.46,0,0,0,0-1.42l-.51-2.41a1.28,1.28,0,0,0-.3-.69,1.07,1.07,0,0,0-.74-.22c-1.9,0-3.53,1.33-4.86,2.73a.68.68,0,0,0-.22.36c0,.32.34.51.65.56a4,4,0,0,0,1.57-.08,2,2,0,0,1,1.16-.14c.45.17.66.68.88,1.12s.61.9,1.08.81" transform="translate(14.05 20.69)"/><path class="cls-14" d="M254.11,253.7c1.45-.62,2.35-2.08,3.29-3.35a21.72,21.72,0,0,1,4.49-4.49c1.12-.84,2.45-1.78,2.51-3.2a1.28,1.28,0,0,0-.4-1.07,1.41,1.41,0,0,0-.78-.27,6.93,6.93,0,0,0-2.92.61l-5,1.81c-2,.73-4.28,1.74-4.86,3.84a7,7,0,0,0,.47,4,5.44,5.44,0,0,0,1,2.13,1.74,1.74,0,0,0,2.12.43" transform="translate(14.05 20.69)"/><path class="cls-14" d="M268.61,237.44a15.85,15.85,0,0,1-3.36-9.31c0-.65-.1-1.46-.7-1.66a1.23,1.23,0,0,0-.54,0,2.8,2.8,0,0,0-1.87,1.74,8.39,8.39,0,0,0-.49,2.63c-.1,1.3-.14,2.79.78,3.69s2.34.82,3.4,1.48,1.57,1.79,2.66,2.12" transform="translate(14.05 20.69)"/><path class="cls-14" d="M235.88,211.07c-.17.66.51,1.31,1.18,1.33a3.06,3.06,0,0,0,1.83-.78,20.84,20.84,0,0,0,2-1.73c.45-.44.87-1.25.37-1.63s-.88,0-1.3.21a4.07,4.07,0,0,1-4.11-.27,2.35,2.35,0,0,0-1-.52,1.81,1.81,0,0,0-1.32.72,8.25,8.25,0,0,0-1.58,2,2.88,2.88,0,0,0-.18,2.46,1,1,0,0,0,.49.53,1.18,1.18,0,0,0,.74,0c1.13-.34,2.24-.72,3.33-1.15" transform="translate(14.05 20.69)"/></g><rect id="SVGID-3" data-name="SVGID" class="cls-1" x="8.04" y="16.59" width="239.01" height="250.96"/><path class="cls-15" d="M161.45,127.18a20.55,20.55,0,0,0-1.15-5.32C155.09,107.6,144.25,109,139,110.76a9.1,9.1,0,0,1-5.83-.14,8.44,8.44,0,0,0-4.6-.44,8.9,8.9,0,0,1-4.38-.21,12.69,12.69,0,0,0-4-.42,10.39,10.39,0,0,1-4.64-.89,15.14,15.14,0,0,0-6-1.42,20.46,20.46,0,0,0-7.15,1.54,9.39,9.39,0,0,1-5.11.47l-10.21-2c-14.14-.83-18.58,8.88-18.58,8.88-8.87,8.59-8.87,18.58-8.87,18.58-.56,23,14.41,34.41,14.41,34.41-.06,1-.14,2-.28,3-4,29.68-1.1,38.28-1.1,38.28l7.07,27.27a22.66,22.66,0,0,1,.71,5c.35,14,6.37,13,6.37,13,4.57-.56,6.79-4.16,7.87-7.63a19.85,19.85,0,0,0,.48-9.41C92.28,222.83,94,204.91,94,204.91c3.88-28.56,16.61-26.62,16.61-26.62,18.58,1.45,12.81,53.37,11,66.76a15.8,15.8,0,0,0,1.25,8.77c.87,1.88,2.4,2.18,4.13,2.41,4.16.56,9.43-5,9.43-5,11.92-15.81,8.87-76.82,8.87-76.82C162.35,157.62,162.1,134.9,161.45,127.18Z" transform="translate(14.05 20.69)"/><path class="cls-16" d="M147-20.29V69.26A65.12,65.12,0,0,0,150,89.35a27.6,27.6,0,0,0,2.78,6.37c3.45,5.16,10,14.46,11,17.21s5.51,11,5.85,22.38,0,34.81,0,34.81.69,31.45-30.64,35.93c0,0-2.75-2.07,0-3.79a29.57,29.57,0,0,0,17.16-7.62,17.36,17.36,0,0,0,5.25-12.4l.27-43.8a53.52,53.52,0,0,0-3-18.28c-1.07-3-2.43-5.89-4.05-7.57-4.95-5.13-16.18-16.18-16.18-16.18s-5-5.34-5.34-17.73l-3.27-99Z" transform="translate(14.05 20.69)"/><path class="cls-17" d="M76.15,115.85c2.33-.62,4.44,1.07,6.42,2.05a10,10,0,0,0,3.25,1,41.2,41.2,0,0,0,4.16.14c5.75.16,11.35,1.59,16.89,3l8.37,2.15a28.72,28.72,0,0,0,4,.84,13.38,13.38,0,0,0,3.84-.22c2.7-.51,5.27-1.45,8-1.71,2.55-.24,5.17-.22,7.6-1.1a41,41,0,0,0,6.48-3.52c2.1-1.21,4.42-2.23,6.89-1.72.47.1.67-.62.19-.72-4.4-.92-8,2.35-11.66,4.28a14.79,14.79,0,0,1-3.2,1.29,23,23,0,0,1-4.14.57c-1.32.1-2.64.18-3.95.39s-2.6.57-3.89.91a22.27,22.27,0,0,1-4.12.82,13.55,13.55,0,0,1-4.25-.43c-2.86-.68-5.7-1.45-8.54-2.18-5.51-1.41-11-2.92-16.73-3.32-1.57-.11-3.14-.06-4.7-.13a10.26,10.26,0,0,1-4.31-1.09c-2.12-1.08-4.31-2.71-6.82-2a.38.38,0,0,0,.2.73Z" transform="translate(14.05 20.69)"/><path class="cls-17" d="M99.59,114.31c1.09-.29,2,1,2.68,1.57a4.21,4.21,0,0,0,1.28.81,7.53,7.53,0,0,0,2.32.15c3.39.14,4.95,3.81,6,6.5.17.45.9.25.72-.2-1.11-2.86-2.64-6.38-6-7a20.93,20.93,0,0,1-2.64-.14,4.54,4.54,0,0,1-1.65-1.19c-.8-.75-1.68-1.56-2.85-1.24a.37.37,0,0,0,.2.72Z" transform="translate(14.05 20.69)"/><path class="cls-17" d="M125.89,115.08c-2.36,1.26-5.2,1.29-7.45,2.81a8.68,8.68,0,0,0-3.7,5.74c-.08.48.64.68.72.2a8,8,0,0,1,3.77-5.56c2.17-1.28,4.82-1.35,7-2.54.42-.23,0-.88-.38-.65Z" transform="translate(14.05 20.69)"/></g></g></g></svg>