<svg xmlns="http://www.w3.org/2000/svg" xmlns:xlink="http://www.w3.org/1999/xlink" viewBox="0 0 268.38 375.76"><defs><style>.cls-1,.cls-10{fill:none;}.cls-2{clip-path:url(#clip-path);}.cls-10,.cls-11,.cls-3,.cls-7{stroke:#676d66;}.cls-10,.cls-11,.cls-14,.cls-15,.cls-16,.cls-17,.cls-19,.cls-3,.cls-5,.cls-7{stroke-miterlimit:10;}.cls-10,.cls-11,.cls-19,.cls-3,.cls-7{stroke-width:0.79px;}.cls-3{fill:url(#무제_그라디언트_71);}.cls-4{fill:#e7dcd2;}.cls-15,.cls-16,.cls-17,.cls-19,.cls-5{stroke:#231815;}.cls-14,.cls-15,.cls-16,.cls-17,.cls-5{stroke-width:0.4px;}.cls-5{fill:url(#무제_그라디언트_20);}.cls-6{fill:#e5e5e0;}.cls-7,.cls-9{fill:#fff;}.cls-8{fill:#ebecf0;}.cls-11{fill:#f6e5e3;}.cls-12{fill:#e3a7a1;}.cls-13{fill:#eeccc9;}.cls-14,.cls-15{fill:#f3f1c1;}.cls-14{stroke:#3e584c;}.cls-16{fill:#fcee70;}.cls-17{fill:#f9f4c6;}.cls-18{fill:#bdab91;}.cls-19{fill:url(#무제_그라디언트_43);}</style><clipPath id="clip-path" transform="translate(7.08 100.54)"><rect id="SVGID" class="cls-1" width="239.01" height="250.96"/></clipPath><linearGradient id="무제_그라디언트_71" x1="127.93" y1="246.79" x2="127.93" y2="376.25" gradientUnits="userSpaceOnUse"><stop offset="0.48" stop-color="#ebe3d9"/><stop offset="0.61" stop-color="#f2eadd"/><stop offset="0.77" stop-color="#f5f2f0"/></linearGradient><radialGradient id="무제_그라디언트_20" cx="140.43" cy="198.15" r="36.88" gradientTransform="matrix(1.03, -0.16, 0.21, 1.47, -32.79, -68.61)" gradientUnits="userSpaceOnUse"><stop offset="0.43" stop-color="#ddcbb4"/><stop offset="0.73" stop-color="#ebe4d8"/><stop offset="0.96" stop-color="#f5f4f0"/></radialGradient><linearGradient id="무제_그라디언트_43" x1="55.02" y1="80.26" x2="86.33" y2="80.26" gradientUnits="userSpaceOnUse"><stop offset="0.48" stop-color="#ced0d6"/><stop offset="0.61" stop-color="#fff"/><stop offset="0.71" stop-color="#c9ccd0"/><stop offset="0.77" stop-color="#b1b6bb"/></linearGradient></defs><g id="레이어_2" data-name="레이어 2"><g id="레이어_1-2" data-name="레이어 1"><g class="cls-2"><rect class="cls-3" x="5.6" y="277.89" width="244.66" height="85.7"/><path class="cls-4" d="M163.55,232.59c-.88,1.42-.84,3.2-.77,4.87,0,.51.09,1.12.55,1.37s.89,0,1.34,0a2,2,0,0,1,2,1.87,3,3,0,0,0,0,1c.24.7,1.19.8,1.92.68a2.69,2.69,0,0,0,1.64-.75,3.15,3.15,0,0,0,.49-2v-2.81a1.46,1.46,0,0,0-.19-.9,1.51,1.51,0,0,0-.61-.4,5.17,5.17,0,0,0-2.44-.62,7.65,7.65,0,0,1-1.5.16c-.5-.07-1-.56-.82-1,.07-.2.25-.35.3-.55a.78.78,0,0,0-.49-.75,3.5,3.5,0,0,1-.83-.45" transform="translate(7.08 100.54)"/><path class="cls-4" d="M180.09,232.58a1,1,0,0,0-.57-1.26,2.89,2.89,0,0,0-1.52-.1,1.42,1.42,0,0,0-.64.17,1.33,1.33,0,0,0-.39.46,22.56,22.56,0,0,0-1.53,2.87,3,3,0,0,0-.32,2.37c.34.81,1.23,1.18,2,1.62a7.6,7.6,0,0,1,2.19,1.88c.17.21.38.46.66.45s.5-.32.61-.61a3.66,3.66,0,0,0-.14-2.74,11.58,11.58,0,0,1-1.09-2.13,4.43,4.43,0,0,1,1-3.2" transform="translate(7.08 100.54)"/><path class="cls-4" d="M159.05,251.3c-1.18-.12-2.21.74-3.19,1.42a13,13,0,0,1-5.59,2.19c-.11.29.3.49.61.52a11.82,11.82,0,0,0,3.8-.18,2.6,2.6,0,0,1,1.76,0c.7.38.83,1.34,1.36,1.94a3.49,3.49,0,0,0,2.69.76,3.58,3.58,0,0,0,2.4-.6c.87-.76.78-2.13.54-3.26a1.6,1.6,0,0,0-.7-1.21,4.21,4.21,0,0,0-.94-.17c-1-.21-1.6-1.48-2.59-1.33" transform="translate(7.08 100.54)"/><path class="cls-4" d="M168.25,247.44a5.27,5.27,0,0,0-2.16,1.3c-.35.34-.65.86-.42,1.29a1.19,1.19,0,0,0,1.05.48c.88,0,1.77-.08,2.65,0a2.81,2.81,0,0,1,2.2,1.26c.16.28.25.62.51.8.45.33,1.08,0,1.47-.38a4.19,4.19,0,0,0,1.16-3.53,1.12,1.12,0,0,0-.2-.56,1,1,0,0,0-.6-.3,7.49,7.49,0,0,0-2.82.44c-1,.19-2.16,0-2.44-1" transform="translate(7.08 100.54)"/><path class="cls-4" d="M156.93,235.43a5.39,5.39,0,0,0-5.52,1.06,3.14,3.14,0,0,1-.75.61,7.32,7.32,0,0,1-.8.23,1.9,1.9,0,0,0-.76,3c.22.23.5.4.71.64a2.72,2.72,0,0,1,.52,2.17c-.08.66-.2,1.48.35,1.86a1.06,1.06,0,0,0,1.17-.05,2.76,2.76,0,0,0,.81-.92,14.27,14.27,0,0,0,1.42-3.07,5.31,5.31,0,0,1,1.4-2.71,9.77,9.77,0,0,1,1.31-.71,1.71,1.71,0,0,0,.94-1.1c.09-.49-.32-1.06-.81-1" transform="translate(7.08 100.54)"/><path class="cls-4" d="M191.58,229.49a5.44,5.44,0,0,0-5.52,1.06,2.91,2.91,0,0,1-.75.61,7.32,7.32,0,0,1-.8.23,1.9,1.9,0,0,0-.76,3c.22.23.5.41.71.64a2.72,2.72,0,0,1,.52,2.17c-.08.67-.2,1.48.35,1.87a1.1,1.1,0,0,0,1.17,0,2.8,2.8,0,0,0,.81-.93,14.42,14.42,0,0,0,1.42-3.06,5.42,5.42,0,0,1,1.4-2.72,9.77,9.77,0,0,1,1.31-.71,1.69,1.69,0,0,0,.94-1.09c.09-.49-.32-1.07-.81-1" transform="translate(7.08 100.54)"/><path class="cls-4" d="M216.35,243.74a2.45,2.45,0,0,1-.83,2.56,5.44,5.44,0,0,1-2.61,1.1,5.53,5.53,0,0,0-2.92,1,4.72,4.72,0,0,0-1.06,2.92l-.19,1.54a.83.83,0,0,0,.09.64.75.75,0,0,0,.47.25,4,4,0,0,0,3.76-1.15c.66-.71,1.08-1.67,1.92-2.15.47-.27,1-.36,1.5-.63,1.26-.72,1.47-2.43,1.54-3.89l.07-1.57a2.08,2.08,0,0,0-.31-1.46c-.34-.39-1.14-.32-1.2.19" transform="translate(7.08 100.54)"/><path class="cls-4" d="M223.18,250.22a5.56,5.56,0,0,1-2.08.64,4.3,4.3,0,0,0-2.73,2.18,2,2,0,0,0,.3,2.51,2.43,2.43,0,0,0,2.21-.17,5.28,5.28,0,0,0,1.22-.65,5.63,5.63,0,0,0,.82-.87l1.25-1.56a2.27,2.27,0,0,0,.69-1.5c0-.57-.76-1.06-1.18-.68" transform="translate(7.08 100.54)"/><path class="cls-4" d="M208.73,226.73c-.2.2-.54.05-.74-.15-.86-.86-.72-2.49-1.77-3.12a2.68,2.68,0,0,0-1-.29c-2.14-.33-4.29-.63-6.44-.88-.71-.09-1.64,0-1.84.66s.29,1,.71,1.42a42.34,42.34,0,0,0,4.81,3.73,5.34,5.34,0,0,1,1.13.93,7.55,7.55,0,0,0,1,1.3,2,2,0,0,0,1.83.19,3.3,3.3,0,0,0,2.1-3.79" transform="translate(7.08 100.54)"/><path class="cls-4" d="M216,223.48l-1.39.67a2.79,2.79,0,0,0-1,.67,1,1,0,0,0-.13,1.12,1.17,1.17,0,0,0,.82.43,4,4,0,0,0,3.84-1.62,1.61,1.61,0,0,0,.34-1.24,1.26,1.26,0,0,0-1.33-.87,2.18,2.18,0,0,0-1.46.85" transform="translate(7.08 100.54)"/><path class="cls-4" d="M216.69,231.23a4.31,4.31,0,0,0-3.17-.26,2.86,2.86,0,0,0-2,2.37,3.07,3.07,0,0,1-.14,1.18c-.39.76-1.62.71-2,1.46a1.31,1.31,0,0,0,.88,1.72,3.6,3.6,0,0,0,2.16-.2c.81-.25,1.61-.53,2.41-.83a5.2,5.2,0,0,0,1.76-1,5.64,5.64,0,0,0,1.38-3.14,2.49,2.49,0,0,0,0-1.48c-.21-.46-.86-.74-1.23-.4" transform="translate(7.08 100.54)"/><path class="cls-4" d="M187.7,244.12c-.5.7-1.53.67-2.39.6s-1.94.05-2.27.85a1.54,1.54,0,0,0,0,1.06,2.84,2.84,0,0,0,1.25,1.6c.37.22.83.38,1,.77s0,1.18.32,1.68c.36.65,1.4.54,1.89,0a3.6,3.6,0,0,0,.67-2.07,3.45,3.45,0,0,1,.69-2.06,5.9,5.9,0,0,1,2.12-1c.73-.32,1.42-1.11,1.1-1.84s-1.35-.75-2.11-.53a7.5,7.5,0,0,0-2.37,1.17" transform="translate(7.08 100.54)"/><path class="cls-4" d="M198,236.5c-.55,0-1.09-.06-1.63,0a1.72,1.72,0,0,0-1.35.78.91.91,0,0,0,.51,1.3c.2,0,.4,0,.6,0,.55.07.86.66,1,1.2a3.38,3.38,0,0,0,.54,1.55,1.52,1.52,0,0,0,2.05.05,2.35,2.35,0,0,0,.69-2.06,2.69,2.69,0,0,0-2.85-2.37" transform="translate(7.08 100.54)"/><path class="cls-4" d="M209.06,242.25a2.32,2.32,0,0,0-2.34.54,2.76,2.76,0,0,0-.39.51l-.06.1s-.12.13,0,.06,0,0,0,0l.07-.06c-.08,0-.06,0,0,0s-.17,0-.22.06,0,0,0,0H206a2.52,2.52,0,0,0-.81.19,1.43,1.43,0,0,0-.84,1.2,1.25,1.25,0,0,0,1,1.19,3,3,0,0,0,2.53-.33,3.05,3.05,0,0,0,1.36-2.48.79.79,0,0,0-.8-.79.8.8,0,0,0-.79.79c0,.07,0,.13,0,.2s0-.16,0-.05,0,.05,0,.08l-.06.22,0,.08c0,.09.09-.17,0,0s-.12.22-.19.33,0,0,0,0l-.06.06-.15.16-.09.07c-.06.06.05,0,.05,0l-.19.12-.12.07c.09,0,0,0,0,0l-.14,0-.2,0c-.11,0,0,0,0,0h-.41c-.13,0,0,0,0,0a1.32,1.32,0,0,0-.23,0s-.23-.09-.13,0,0,0,0,0h0c-.09-.06,0,0,.15.16a.53.53,0,0,1,0,.18s0,.27,0,.15-.1.17,0,.06l-.06.07.07-.07c.06-.06,0,0-.06,0l.09,0s-.15,0-.08,0a.35.35,0,0,0,.11,0c.11,0-.2,0,0,0a2.77,2.77,0,0,0,1.1-.26,2.45,2.45,0,0,0,.75-.85.18.18,0,0,0,.05-.07c-.05.13-.07.09,0,0l.06-.06c.11-.12-.1.06,0,0a1.18,1.18,0,0,1,.19-.11s.11-.05,0,0,0,0,0,0a1.46,1.46,0,0,0,.2,0,.55.55,0,1,0-.06,0h.21c.14,0-.13,0,0,0a1.41,1.41,0,0,1,.22.06.8.8,0,0,0,1-.56.81.81,0,0,0-.55-1Z" transform="translate(7.08 100.54)"/><path class="cls-4" d="M200.28,247.35a24,24,0,0,0-7.14.79,2.58,2.58,0,0,0-1.71.87,2.45,2.45,0,0,0-.32,1.25,5.15,5.15,0,0,0,.28,2.79,1.8,1.8,0,0,0,2.36.91,4.56,4.56,0,0,0,.65-.59c1.39-1.26,3.67-.84,5.25-1.84a3.42,3.42,0,0,0,1.22-4.22" transform="translate(7.08 100.54)"/><path class="cls-4" d="M205.25,254.21a9.6,9.6,0,0,0-3.09.66,1.36,1.36,0,0,1-.65.14c-.56-.1-.82-.95-1.39-.91s-.65.71-.65,1.23c0,.73.1,1.61.74,2a1.58,1.58,0,0,0,.77.17,6,6,0,0,0,3-1.05,3.39,3.39,0,0,0,1.12-.86,1.13,1.13,0,0,0,.08-1.32" transform="translate(7.08 100.54)"/><path class="cls-4" d="M181.43,251.11a.72.72,0,0,0-1.06.09,2,2,0,0,0-.37,1.15l-.25,2.07a1,1,0,0,0,.06.64.94.94,0,0,0,.54.39c1.56.54,3.27-.07,4.75-.82a.56.56,0,0,0,.28-.22c.12-.24-.14-.5-.38-.63a3.59,3.59,0,0,0-1.31-.38,1.83,1.83,0,0,1-1-.22,1.68,1.68,0,0,1-.42-1.15c-.05-.41-.25-.89-.66-.95" transform="translate(7.08 100.54)"/><path class="cls-4" d="M235.52,249.44c-.4.31-1,.09-1.45.1-.85,0-1.5.74-2.25,1.14s-1.5.48-2.19.85a1.69,1.69,0,0,0-1,1.89c.3.85,1.41,1,2.31,1h3.71a1.84,1.84,0,0,0,2.2-2.12,5.59,5.59,0,0,0,0-1.78,1.9,1.9,0,0,0-1-1.39" transform="translate(7.08 100.54)"/><path class="cls-4" d="M228.62,263.17a1.31,1.31,0,0,0,0-1.65,2.78,2.78,0,0,0-1.49-.95,6.08,6.08,0,0,0-6.32,2,1.15,1.15,0,0,0-.31,1.2c.2.39.71.46,1.14.45,2-.08,4-1.18,6-.75" transform="translate(7.08 100.54)"/><path class="cls-4" d="M214.59,257.13c-.75-.46-1.69,0-2.44.44l-1.79,1.07c-.46.28-1,.74-.8,1.24s.71.49,1.15.5l4,.13a1.63,1.63,0,0,0,.93-.16c.62-.39.44-1.33.19-2s-.5-1.22-1.08-1.41" transform="translate(7.08 100.54)"/><path class="cls-4" d="M190.14,262.24a1.29,1.29,0,0,0,.47-1.82,2.11,2.11,0,0,0-1.83-.89,6.2,6.2,0,0,0-2.06.49l-1.4.51c-.72.26-1.55.63-1.69,1.38s.58,1.5,1.33,1.82a4.75,4.75,0,0,0,5-1" transform="translate(7.08 100.54)"/><path class="cls-4" d="M197.77,263.73a5.5,5.5,0,0,1,.07-2.14,1.81,1.81,0,0,1,1.52-1.33,2.6,2.6,0,0,1,1.08.26c.83.35,1.65.72,2.45,1.11s1.42.88,1.26,1.59-1.11.89-1.85.91l-4.42.09" transform="translate(7.08 100.54)"/><path class="cls-4" d="M240.75,200.35a2.47,2.47,0,0,1-.83,2.57,5.49,5.49,0,0,1-2.6,1.09,5.56,5.56,0,0,0-2.93,1,4.72,4.72,0,0,0-1.06,2.92l-.19,1.55a.93.93,0,0,0,.09.64.82.82,0,0,0,.47.24,4,4,0,0,0,3.76-1.15c.66-.71,1.08-1.67,1.92-2.15.47-.27,1-.36,1.5-.63,1.26-.72,1.47-2.43,1.54-3.89l.07-1.57a2,2,0,0,0-.31-1.46c-.34-.38-1.14-.32-1.2.19" transform="translate(7.08 100.54)"/><path class="cls-4" d="M247.59,206.83a5.66,5.66,0,0,1-2.09.64,4.36,4.36,0,0,0-2.73,2.18c-.43.83-.48,2,.3,2.51a2.45,2.45,0,0,0,2.22-.17,5,5,0,0,0,1.21-.65,5.19,5.19,0,0,0,.82-.87l1.26-1.56a2.37,2.37,0,0,0,.69-1.5c0-.57-.76-1.06-1.19-.68" transform="translate(7.08 100.54)"/><path class="cls-4" d="M212.11,200.73c-.5.7-1.54.67-2.4.61s-1.94,0-2.27.84a1.57,1.57,0,0,0,0,1.07,2.83,2.83,0,0,0,1.25,1.59c.38.23.83.39,1.05.77s0,1.18.31,1.69,1.4.53,1.9,0a3.59,3.59,0,0,0,.66-2.07,3.52,3.52,0,0,1,.69-2.06,6.16,6.16,0,0,1,2.12-1c.73-.32,1.42-1.11,1.1-1.83s-1.35-.75-2.11-.53a7.47,7.47,0,0,0-2.37,1.16" transform="translate(7.08 100.54)"/><path class="cls-4" d="M222.43,193.12c-.54,0-1.09-.07-1.62,0a1.69,1.69,0,0,0-1.35.78.9.9,0,0,0,.5,1.3c.2,0,.4,0,.6,0,.55.07.87.66,1,1.2a3.59,3.59,0,0,0,.54,1.56,1.53,1.53,0,0,0,2,0,2.33,2.33,0,0,0,.69-2.06,2.69,2.69,0,0,0-2.85-2.37" transform="translate(7.08 100.54)"/><path class="cls-4" d="M233.46,198.86a2.3,2.3,0,0,0-2.34.55,3.19,3.19,0,0,0-.39.5l-.06.1s-.12.13,0,.06-.06,0-.06,0l.07-.06c-.07,0-.06,0,0,0s-.17,0-.22,0,0,0,0,0a.33.33,0,0,1-.14,0,2.74,2.74,0,0,0-.81.19,1.42,1.42,0,0,0-.85,1.2,1.3,1.3,0,0,0,1,1.2,3,3,0,0,0,2.53-.33,3.07,3.07,0,0,0,1.36-2.49.8.8,0,0,0-.79-.79.81.81,0,0,0-.8.79,1.34,1.34,0,0,1,0,.2c0,.11,0-.16,0-.05s0,.06,0,.08l-.06.22,0,.08c0,.1.09-.17,0,0a3.79,3.79,0,0,1-.2.34c-.06.09,0,0,0,0a.15.15,0,0,0-.05.06l-.16.16-.09.07c-.06.06.05,0,.05,0l-.19.13-.12.06c.09-.05,0,0,0,0l-.15,0-.2,0c-.11,0,0,0,0,0a.14.14,0,0,0-.09,0h-.32c-.13,0,0,0,0,0a1.32,1.32,0,0,0-.23-.05s-.22-.09-.12,0,0,0,0,0l0,0c-.09-.06,0,0,.15.16a.41.41,0,0,1,0,.18c0,.05,0,.27,0,.15s-.09.17,0,.07-.12.12-.05.06l.07-.07c.05-.06-.06.05-.06.05l.08-.05s-.15,0-.07,0l.11,0c.1,0-.2,0,0,0a2.74,2.74,0,0,0,1.09-.27,2.36,2.36,0,0,0,.75-.85.18.18,0,0,0,0-.07c0,.13-.07.09,0,0l.06-.05c.11-.12-.1.06,0,0l.19-.12h0l.05,0a1.17,1.17,0,0,0,.2-.05s-.19,0-.06,0h.21c.14,0-.13,0,0,0l.23.06a.79.79,0,0,0,1-.55.81.81,0,0,0-.55-1Z" transform="translate(7.08 100.54)"/><path class="cls-4" d="M224.68,204a23.71,23.71,0,0,0-7.14.8,2.64,2.64,0,0,0-1.71.86,2.55,2.55,0,0,0-.32,1.25,5.15,5.15,0,0,0,.29,2.79,1.78,1.78,0,0,0,2.35.91,4.57,4.57,0,0,0,.66-.59c1.38-1.26,3.66-.83,5.25-1.83a3.43,3.43,0,0,0,1.21-4.23" transform="translate(7.08 100.54)"/><path class="cls-4" d="M229.65,210.82a9.71,9.71,0,0,0-3.09.66,1.16,1.16,0,0,1-.65.14c-.56-.09-.82-1-1.39-.91s-.65.72-.64,1.23c0,.74.09,1.61.73,2a1.63,1.63,0,0,0,.78.18,6.23,6.23,0,0,0,3-1.05,3.32,3.32,0,0,0,1.12-.87,1.15,1.15,0,0,0,.09-1.32" transform="translate(7.08 100.54)"/><path class="cls-4" d="M205.83,207.72a.72.72,0,0,0-1.06.09,2.15,2.15,0,0,0-.37,1.15l-.25,2.07a1.07,1.07,0,0,0,.06.64,1,1,0,0,0,.54.39c1.56.54,3.28-.07,4.75-.81a.63.63,0,0,0,.28-.23c.12-.24-.14-.5-.38-.63a3.48,3.48,0,0,0-1.31-.38,1.83,1.83,0,0,1-1-.22,1.66,1.66,0,0,1-.41-1.14c-.06-.42-.25-.9-.67-1" transform="translate(7.08 100.54)"/><path class="cls-4" d="M259.92,206.06c-.39.3-.95.08-1.45.09-.85,0-1.5.74-2.25,1.15s-1.5.48-2.19.84a1.7,1.7,0,0,0-1,1.89c.3.85,1.41,1,2.31,1H259a2.52,2.52,0,0,0,1.49-.32,2.49,2.49,0,0,0,.71-1.81,5.53,5.53,0,0,0,0-1.77,2,2,0,0,0-1-1.4" transform="translate(7.08 100.54)"/><path class="cls-4" d="M253,219.79a1.34,1.34,0,0,0,0-1.66,2.73,2.73,0,0,0-1.5-.94,6.05,6.05,0,0,0-6.32,2c-.27.35-.52.82-.31,1.21a1.18,1.18,0,0,0,1.14.44c2-.08,4-1.18,6-.74" transform="translate(7.08 100.54)"/><path class="cls-4" d="M239,213.74c-.74-.46-1.69,0-2.44.44l-1.79,1.07c-.46.28-1,.74-.79,1.24s.7.49,1.14.51l4,.12a1.72,1.72,0,0,0,.93-.15c.62-.39.44-1.34.19-2s-.49-1.22-1.08-1.41" transform="translate(7.08 100.54)"/><path class="cls-4" d="M230.43,225.26a2.46,2.46,0,0,1-.82,2.57,5.43,5.43,0,0,1-2.61,1.09,5.54,5.54,0,0,0-2.92,1,4.62,4.62,0,0,0-1.07,2.91l-.18,1.55a.88.88,0,0,0,.08.64.89.89,0,0,0,.48.25,4,4,0,0,0,3.76-1.16c.66-.7,1.07-1.67,1.91-2.15.47-.27,1-.35,1.5-.62,1.27-.73,1.48-2.44,1.54-3.89l.07-1.58a2,2,0,0,0-.31-1.46c-.33-.38-1.13-.31-1.2.19" transform="translate(7.08 100.54)"/><path class="cls-4" d="M237.27,231.74a5.68,5.68,0,0,1-2.09.65,4.33,4.33,0,0,0-2.73,2.18,2,2,0,0,0,.3,2.51,2.48,2.48,0,0,0,2.22-.18,5.3,5.3,0,0,0,1.22-.65,5.16,5.16,0,0,0,.81-.87l1.26-1.56a2.3,2.3,0,0,0,.69-1.5c0-.56-.76-1.06-1.18-.68" transform="translate(7.08 100.54)"/><path class="cls-4" d="M249.6,231c-.39.3-.95.08-1.45.1-.85,0-1.49.74-2.25,1.14s-1.49.48-2.19.84a1.73,1.73,0,0,0-1,1.9c.3.84,1.42,1,2.32,1h3.71a2.42,2.42,0,0,0,1.48-.32,2.45,2.45,0,0,0,.72-1.8,5.9,5.9,0,0,0,0-1.78,1.92,1.92,0,0,0-1-1.39" transform="translate(7.08 100.54)"/><path class="cls-4" d="M242.7,244.7a1.34,1.34,0,0,0,.05-1.66,2.73,2.73,0,0,0-1.5-.94,6.06,6.06,0,0,0-6.32,2,1.2,1.2,0,0,0-.31,1.21,1.18,1.18,0,0,0,1.14.44c2-.08,4-1.18,6-.74" transform="translate(7.08 100.54)"/><path class="cls-4" d="M180.67,191.49c-.39.3-.95.08-1.45.1-.85,0-1.49.73-2.24,1.14s-1.5.48-2.2.84a1.73,1.73,0,0,0-1,1.9c.31.84,1.42,1,2.32,1h3.71a2.42,2.42,0,0,0,1.48-.32,2.45,2.45,0,0,0,.72-1.8,5.9,5.9,0,0,0,0-1.78,1.93,1.93,0,0,0-1-1.4" transform="translate(7.08 100.54)"/><path class="cls-4" d="M191.78,188.94a1.32,1.32,0,0,0,0-1.66,2.7,2.7,0,0,0-1.49-.94,6.06,6.06,0,0,0-6.33,2,.93.93,0,0,0,.83,1.64c2-.07,4-1.18,6-.74" transform="translate(7.08 100.54)"/><path class="cls-4" d="M228.67,238.65c-.74-.45-1.69,0-2.43.45l-1.8,1.07c-.46.27-1,.74-.79,1.23s.7.49,1.15.51l4,.12a1.61,1.61,0,0,0,.92-.15c.63-.39.45-1.33.19-2s-.49-1.22-1.07-1.41" transform="translate(7.08 100.54)"/><path class="cls-4" d="M214.54,218.85A1.29,1.29,0,0,0,215,217a2.12,2.12,0,0,0-1.83-.89,6.46,6.46,0,0,0-2.06.49l-1.4.51c-.72.26-1.54.63-1.69,1.38s.59,1.5,1.34,1.82a4.74,4.74,0,0,0,5-1" transform="translate(7.08 100.54)"/><path class="cls-4" d="M222.17,220.34a5.26,5.26,0,0,1,.08-2.13,1.8,1.8,0,0,1,1.51-1.34,2.43,2.43,0,0,1,1.08.27q1.24.51,2.46,1.11c.65.32,1.41.87,1.25,1.58s-1.11.9-1.85.91l-4.42.09" transform="translate(7.08 100.54)"/><path class="cls-4" d="M171.4,264.35l0-4.08a1.44,1.44,0,0,0-.11-.65,1.25,1.25,0,0,0-.62-.49,7.14,7.14,0,0,0-1.41-.49.74.74,0,0,0-.51,0,.64.64,0,0,0-.24.36,10.88,10.88,0,0,0-.48,3.6,2.63,2.63,0,0,0,.58,2.13,2.07,2.07,0,0,0,2.65-.4" transform="translate(7.08 100.54)"/><path class="cls-4" d="M198.18,207.32c-1.35.08-2.49,1-3.63,1.75a18.66,18.66,0,0,1-4.92,2.33c-1.15.35-2.51.72-2.95,1.84a1.12,1.12,0,0,0,0,1,1.29,1.29,0,0,0,.57.43,6.36,6.36,0,0,0,2.57.35l4.6,0c1.85,0,4-.18,5.06-1.7a6,6,0,0,0,.71-3.32,4.61,4.61,0,0,0-.27-2,1.55,1.55,0,0,0-1.63-1" transform="translate(7.08 100.54)"/><path class="cls-4" d="M198.42,189.15c-.5.71-1.53.67-2.39.61s-1.94,0-2.27.84a1.57,1.57,0,0,0,0,1.07,2.79,2.79,0,0,0,1.25,1.59c.37.23.83.39,1,.77s0,1.18.32,1.69,1.4.54,1.89,0a3.62,3.62,0,0,0,.67-2.07,3.4,3.4,0,0,1,.69-2.06,5.92,5.92,0,0,1,2.12-1c.72-.32,1.42-1.11,1.1-1.83s-1.35-.75-2.11-.53a7.47,7.47,0,0,0-2.37,1.16" transform="translate(7.08 100.54)"/><path class="cls-4" d="M211,192.38a23.71,23.71,0,0,0-7.14.8,2.62,2.62,0,0,0-1.71.86,2.46,2.46,0,0,0-.32,1.26,5.13,5.13,0,0,0,.28,2.78,1.79,1.79,0,0,0,2.36.91,4.49,4.49,0,0,0,.65-.58c1.39-1.26,3.67-.84,5.25-1.84a3.43,3.43,0,0,0,1.22-4.23" transform="translate(7.08 100.54)"/><path class="cls-4" d="M196.86,200.82A7.88,7.88,0,0,0,193,199.6a18.19,18.19,0,0,1-5.18-1.69c-1.08-.53-2.32-1.19-3.41-.68a1.12,1.12,0,0,0-.65.73,1.17,1.17,0,0,0,.12.71,6.05,6.05,0,0,0,1.63,2l3.37,3.13c1.36,1.26,3,2.62,4.85,2.24a5.92,5.92,0,0,0,2.79-1.92,4.58,4.58,0,0,0,1.17-1.64,1.56,1.56,0,0,0-.52-1.81" transform="translate(7.08 100.54)"/><path class="cls-4" d="M181.78,216.23a13.26,13.26,0,0,1,.18,8.42c-.16.52-.31,1.19.12,1.52a.91.91,0,0,0,.45.16,2.35,2.35,0,0,0,2-.86,6.87,6.87,0,0,0,1.13-2c.45-1,.89-2.19.38-3.17s-1.7-1.32-2.39-2.16-.79-1.87-1.59-2.44" transform="translate(7.08 100.54)"/><path class="cls-4" d="M162.28,207.41a5.44,5.44,0,0,0-5.52,1.06,2.91,2.91,0,0,1-.75.61,7.32,7.32,0,0,1-.8.23,1.9,1.9,0,0,0-.76,3c.22.23.5.41.71.64a2.72,2.72,0,0,1,.52,2.17c-.08.66-.2,1.48.35,1.86a1.08,1.08,0,0,0,1.17,0A2.9,2.9,0,0,0,158,216a14.42,14.42,0,0,0,1.42-3.06,5.42,5.42,0,0,1,1.4-2.72,9.77,9.77,0,0,1,1.31-.71,1.72,1.72,0,0,0,.94-1.09c.09-.49-.32-1.07-.81-1" transform="translate(7.08 100.54)"/><path class="cls-4" d="M179.43,204.65c-.2.2-.54,0-.74-.15-.86-.86-.72-2.49-1.77-3.12a2.68,2.68,0,0,0-1-.29c-2.14-.33-4.29-.63-6.44-.88-.71-.09-1.64,0-1.84.66-.16.53.29,1,.71,1.42a43.51,43.51,0,0,0,4.81,3.73,5.34,5.34,0,0,1,1.13.93,7.55,7.55,0,0,0,1,1.3,2,2,0,0,0,1.83.19,3.31,3.31,0,0,0,2.1-3.79" transform="translate(7.08 100.54)"/><path class="cls-4" d="M158.4,222c-.5.71-1.53.68-2.39.61s-1.94.05-2.27.85a1.54,1.54,0,0,0,0,1.06,2.84,2.84,0,0,0,1.25,1.6c.37.22.83.38,1,.77s0,1.18.32,1.68c.36.65,1.4.54,1.89,0a3.62,3.62,0,0,0,.67-2.07,3.45,3.45,0,0,1,.69-2.06,5.9,5.9,0,0,1,2.12-1c.73-.32,1.42-1.11,1.1-1.84s-1.35-.75-2.11-.53a7.5,7.5,0,0,0-2.37,1.17" transform="translate(7.08 100.54)"/><path class="cls-4" d="M168.73,214.42c-.55,0-1.09-.06-1.63,0a1.72,1.72,0,0,0-1.35.78.91.91,0,0,0,.51,1.3c.2,0,.4,0,.6,0,.55.07.86.66,1,1.2a3.38,3.38,0,0,0,.54,1.55,1.52,1.52,0,0,0,2.05,0,2.37,2.37,0,0,0,.69-2.07,2.68,2.68,0,0,0-2.85-2.36" transform="translate(7.08 100.54)"/><path class="cls-4" d="M176.53,185.64a.72.72,0,0,0-1.06.09,2.15,2.15,0,0,0-.37,1.15l-.25,2.07a1.07,1.07,0,0,0,.06.64,1,1,0,0,0,.54.39c1.56.54,3.28-.07,4.75-.81a.63.63,0,0,0,.28-.23c.12-.24-.14-.5-.38-.63a3.48,3.48,0,0,0-1.31-.38,1.83,1.83,0,0,1-1-.22,1.67,1.67,0,0,1-.41-1.15c-.06-.41-.25-.89-.67-.95" transform="translate(7.08 100.54)"/><path class="cls-4" d="M168.88,185.24c-1.35.08-2.49,1-3.63,1.75a18.66,18.66,0,0,1-4.92,2.33c-1.15.34-2.51.72-3,1.84a1.12,1.12,0,0,0,0,1,1.29,1.29,0,0,0,.57.43,6.36,6.36,0,0,0,2.57.35l4.6,0c1.85,0,4-.18,5.06-1.7a6,6,0,0,0,.71-3.32,4.61,4.61,0,0,0-.27-2,1.55,1.55,0,0,0-1.63-1" transform="translate(7.08 100.54)"/><path class="cls-4" d="M152.48,194.15a13.26,13.26,0,0,1,.18,8.42c-.16.52-.31,1.19.12,1.52a.91.91,0,0,0,.45.16,2.38,2.38,0,0,0,2-.86,6.87,6.87,0,0,0,1.13-2c.45-1,.89-2.19.38-3.17s-1.7-1.32-2.39-2.16-.79-1.87-1.59-2.44" transform="translate(7.08 100.54)"/><path class="cls-4" d="M172.08,224.56a1,1,0,0,0-.6-1.4,2.62,2.62,0,0,0-1.72.11,18.58,18.58,0,0,0-2.15.81c-.49.23-1.06.75-.75,1.2s.72.25,1.12.2a3.63,3.63,0,0,1,3.31,1.38c.2.26.37.57.68.7a1.56,1.56,0,0,0,1.28-.2,6.8,6.8,0,0,0,1.84-1.13,2.32,2.32,0,0,0,.82-1.92.83.83,0,0,0-.25-.56,1.11,1.11,0,0,0-.62-.16q-1.53-.09-3.06,0" transform="translate(7.08 100.54)"/><path class="cls-4" d="M7.81,232.59A8.48,8.48,0,0,0,7,237.46c0,.51.09,1.12.55,1.37s.89,0,1.34,0a2,2,0,0,1,2,1.87,3.64,3.64,0,0,0,0,1c.24.7,1.19.8,1.93.68a2.66,2.66,0,0,0,1.63-.75,3.09,3.09,0,0,0,.49-2v-2.81a1.46,1.46,0,0,0-.2-.9,1.51,1.51,0,0,0-.61-.4,5.14,5.14,0,0,0-2.44-.62,7.65,7.65,0,0,1-1.5.16c-.5-.07-1-.56-.82-1,.07-.2.25-.35.3-.55a.77.77,0,0,0-.48-.75,3.38,3.38,0,0,1-.84-.45" transform="translate(7.08 100.54)"/><path class="cls-4" d="M24.35,232.58a1,1,0,0,0-.58-1.26,2.89,2.89,0,0,0-1.52-.1,1.42,1.42,0,0,0-.64.17,1.45,1.45,0,0,0-.39.46,25.42,25.42,0,0,0-1.53,2.87,3.08,3.08,0,0,0-.32,2.37c.34.81,1.23,1.18,2,1.62a7.69,7.69,0,0,1,2.18,1.88c.18.21.38.46.66.45s.51-.32.61-.61a3.66,3.66,0,0,0-.14-2.74,11.53,11.53,0,0,1-1.08-2.13,4.46,4.46,0,0,1,1-3.2" transform="translate(7.08 100.54)"/><path class="cls-4" d="M3.31,251.3c-1.19-.12-2.22.74-3.19,1.42a13.08,13.08,0,0,1-5.6,2.19c-.1.29.3.49.61.52a11.89,11.89,0,0,0,3.81-.18,2.57,2.57,0,0,1,1.75,0c.71.38.83,1.34,1.36,1.94a3.51,3.51,0,0,0,2.7.76,3.6,3.6,0,0,0,2.4-.6c.86-.76.78-2.13.53-3.26a1.6,1.6,0,0,0-.7-1.21A4.21,4.21,0,0,0,6,252.7c-1-.21-1.6-1.48-2.58-1.33" transform="translate(7.08 100.54)"/><path class="cls-4" d="M12.5,247.44a5.27,5.27,0,0,0-2.16,1.3c-.34.34-.65.86-.42,1.29a1.2,1.2,0,0,0,1.06.48c.88,0,1.76-.08,2.64,0a2.85,2.85,0,0,1,2.21,1.26,2.07,2.07,0,0,0,.51.8c.44.33,1.08,0,1.47-.38A4.22,4.22,0,0,0,19,248.68a1.13,1.13,0,0,0-.21-.56,1,1,0,0,0-.6-.3,7.49,7.49,0,0,0-2.82.44c-.94.19-2.16,0-2.44-1" transform="translate(7.08 100.54)"/><path class="cls-4" d="M1.18,235.43a5.37,5.37,0,0,0-5.51,1.06,3.19,3.19,0,0,1-.76.61,7.32,7.32,0,0,1-.8.23,1.91,1.91,0,0,0-.76,3c.22.23.5.4.72.64a2.76,2.76,0,0,1,.51,2.17c-.07.66-.19,1.48.35,1.86a1.06,1.06,0,0,0,1.17-.05,2.76,2.76,0,0,0,.81-.92,13.84,13.84,0,0,0,1.43-3.07,5.24,5.24,0,0,1,1.4-2.71,8.68,8.68,0,0,1,1.31-.71,1.69,1.69,0,0,0,.93-1.1c.09-.49-.32-1.06-.81-1" transform="translate(7.08 100.54)"/><path class="cls-4" d="M35.83,229.49a5.42,5.42,0,0,0-5.51,1.06,3,3,0,0,1-.76.61,7.32,7.32,0,0,1-.8.23,1.91,1.91,0,0,0-.76,3c.22.23.5.41.72.64a2.76,2.76,0,0,1,.51,2.17c-.07.67-.19,1.48.35,1.87a1.1,1.1,0,0,0,1.17,0,2.8,2.8,0,0,0,.81-.93A14,14,0,0,0,33,235a5.27,5.27,0,0,1,1.4-2.72,8.68,8.68,0,0,1,1.31-.71,1.68,1.68,0,0,0,.93-1.09c.09-.49-.32-1.07-.8-1" transform="translate(7.08 100.54)"/><path class="cls-4" d="M60.6,243.74a2.45,2.45,0,0,1-.83,2.56,5.41,5.41,0,0,1-2.6,1.1,5.59,5.59,0,0,0-2.93,1,4.72,4.72,0,0,0-1.06,2.92L53,252.89a.92.92,0,0,0,.09.64.78.78,0,0,0,.47.25,4,4,0,0,0,3.76-1.15c.66-.71,1.08-1.67,1.92-2.15.47-.27,1-.36,1.5-.63,1.27-.72,1.47-2.43,1.54-3.89l.07-1.57a2,2,0,0,0-.31-1.46c-.34-.39-1.14-.32-1.2.19" transform="translate(7.08 100.54)"/><path class="cls-4" d="M67.44,250.22a5.66,5.66,0,0,1-2.09.64A4.33,4.33,0,0,0,62.62,253a2,2,0,0,0,.3,2.51,2.45,2.45,0,0,0,2.22-.17,5.42,5.42,0,0,0,1.21-.65,5.19,5.19,0,0,0,.82-.87l1.26-1.56a2.37,2.37,0,0,0,.69-1.5c0-.57-.76-1.06-1.18-.68" transform="translate(7.08 100.54)"/><path class="cls-4" d="M53,226.73c-.2.2-.54.05-.74-.15-.86-.86-.72-2.49-1.76-3.12a2.78,2.78,0,0,0-1-.29c-2.15-.33-4.3-.63-6.45-.88-.71-.09-1.64,0-1.84.66s.3,1,.71,1.42a42.34,42.34,0,0,0,4.81,3.73,5.1,5.1,0,0,1,1.13.93,7.13,7.13,0,0,0,1,1.3,2,2,0,0,0,1.82.19,3.3,3.3,0,0,0,2.1-3.79" transform="translate(7.08 100.54)"/><path class="cls-4" d="M60.27,223.48l-1.4.67a2.79,2.79,0,0,0-1,.67,1,1,0,0,0-.13,1.12,1.17,1.17,0,0,0,.82.43,4,4,0,0,0,3.84-1.62,1.62,1.62,0,0,0,.35-1.24,1.28,1.28,0,0,0-1.34-.87,2.2,2.2,0,0,0-1.46.85" transform="translate(7.08 100.54)"/><path class="cls-4" d="M60.94,231.23a4.29,4.29,0,0,0-3.16-.26,2.86,2.86,0,0,0-2,2.37,2.89,2.89,0,0,1-.14,1.18c-.39.76-1.62.71-2,1.46a1.31,1.31,0,0,0,.88,1.72,3.58,3.58,0,0,0,2.16-.2c.81-.25,1.61-.53,2.41-.83a5.2,5.2,0,0,0,1.76-1,5.64,5.64,0,0,0,1.38-3.14,2.34,2.34,0,0,0,0-1.48c-.21-.46-.86-.74-1.23-.4" transform="translate(7.08 100.54)"/><path class="cls-4" d="M32,244.12c-.5.7-1.54.67-2.4.6s-1.94.05-2.27.85a1.61,1.61,0,0,0,0,1.06,2.89,2.89,0,0,0,1.25,1.6,2.48,2.48,0,0,1,1.05.77c.28.5,0,1.18.31,1.68a1.23,1.23,0,0,0,1.9,0,3.59,3.59,0,0,0,.66-2.07,3.52,3.52,0,0,1,.69-2.06,6,6,0,0,1,2.12-1c.73-.32,1.42-1.11,1.1-1.84s-1.35-.75-2.11-.53a7.5,7.5,0,0,0-2.37,1.17" transform="translate(7.08 100.54)"/><path class="cls-4" d="M42.28,236.5c-.54,0-1.09-.06-1.62,0a1.69,1.69,0,0,0-1.35.78.9.9,0,0,0,.5,1.3c.2,0,.4,0,.6,0,.55.07.87.66,1,1.2a3.39,3.39,0,0,0,.55,1.55,1.51,1.51,0,0,0,2,.05,2.33,2.33,0,0,0,.69-2.06A2.69,2.69,0,0,0,41.83,237" transform="translate(7.08 100.54)"/><path class="cls-4" d="M53.31,242.25a2.32,2.32,0,0,0-2.34.54,3.27,3.27,0,0,0-.39.51l-.06.1s-.12.13,0,.06-.06,0-.06,0l.07-.06c-.07,0-.06,0,0,0s-.17,0-.22.06,0,0,0,0h-.14a2.46,2.46,0,0,0-.81.19,1.42,1.42,0,0,0-.85,1.2,1.28,1.28,0,0,0,1,1.19,3,3,0,0,0,2.53-.33,3.05,3.05,0,0,0,1.36-2.48.79.79,0,0,0-.79-.79.81.81,0,0,0-.8.79,1.34,1.34,0,0,1,0,.2c0,.11,0-.16,0-.05s0,.05,0,.08l-.06.22,0,.08c0,.09.09-.17,0,0s-.13.22-.2.33,0,0,0,0a.15.15,0,0,0-.05.06l-.16.16-.08.07.05,0a2.12,2.12,0,0,0-.2.12l-.12.07c.09,0,0,0,0,0l-.14,0-.21,0c-.11,0,0,0,0,0H50.3c-.13,0,0,0,0,0a1.32,1.32,0,0,0-.23,0s-.22-.09-.12,0,0,0,0,0h0c-.09-.06,0,0,.15.16a.37.37,0,0,1,0,.18s0,.27,0,.15-.09.17,0,.06-.12.13,0,.07a.46.46,0,0,1,.07-.07c0-.06-.06,0-.06,0l.08,0s-.15,0-.07,0l.11,0c.1,0-.2,0,0,0a2.73,2.73,0,0,0,1.09-.26A2.36,2.36,0,0,0,52,244a.18.18,0,0,0,0-.07c0,.13-.07.09,0,0l.06-.06c.11-.12-.1.06,0,0l.2-.11s.1-.05,0,0,0,0,.05,0a1.17,1.17,0,0,0,.2,0s-.19,0-.06,0h.21c.14,0-.13,0,0,0l.22.06a.79.79,0,0,0,.42-1.53Z" transform="translate(7.08 100.54)"/><path class="cls-4" d="M44.53,247.35a24,24,0,0,0-7.14.79,2.61,2.61,0,0,0-1.71.87,2.55,2.55,0,0,0-.32,1.25,5.15,5.15,0,0,0,.29,2.79A1.79,1.79,0,0,0,38,254a5.25,5.25,0,0,0,.66-.59c1.39-1.26,3.66-.84,5.25-1.84a3.41,3.41,0,0,0,1.21-4.22" transform="translate(7.08 100.54)"/><path class="cls-4" d="M49.5,254.21a9.71,9.71,0,0,0-3.09.66,1.36,1.36,0,0,1-.65.14c-.56-.1-.82-.95-1.39-.91s-.65.71-.64,1.23c0,.73.09,1.61.73,2a1.62,1.62,0,0,0,.78.17,6,6,0,0,0,2.95-1.05,3.29,3.29,0,0,0,1.12-.86,1.15,1.15,0,0,0,.09-1.32" transform="translate(7.08 100.54)"/><path class="cls-4" d="M25.68,251.11a.72.72,0,0,0-1.06.09,2.15,2.15,0,0,0-.37,1.15L24,254.42a1.07,1.07,0,0,0,.06.64,1,1,0,0,0,.54.39c1.56.54,3.28-.07,4.75-.82a.56.56,0,0,0,.28-.22c.12-.24-.14-.5-.38-.63a3.48,3.48,0,0,0-1.31-.38,1.83,1.83,0,0,1-1-.22,1.67,1.67,0,0,1-.41-1.15c-.06-.41-.25-.89-.67-.95" transform="translate(7.08 100.54)"/><path class="cls-4" d="M79.77,249.44c-.39.31-1,.09-1.45.1-.85,0-1.5.74-2.25,1.14s-1.5.48-2.19.85a1.7,1.7,0,0,0-1,1.89c.3.85,1.41,1,2.31,1h3.71a1.84,1.84,0,0,0,2.2-2.12,5.59,5.59,0,0,0,0-1.78,2,2,0,0,0-1-1.39" transform="translate(7.08 100.54)"/><path class="cls-4" d="M72.87,263.17a1.32,1.32,0,0,0,0-1.65,2.8,2.8,0,0,0-1.5-.95,6.08,6.08,0,0,0-6.32,2c-.27.34-.52.82-.31,1.2s.71.46,1.14.45c2-.08,4-1.18,6-.75" transform="translate(7.08 100.54)"/><path class="cls-4" d="M58.84,257.13c-.74-.46-1.69,0-2.44.44l-1.79,1.07c-.46.28-1,.74-.79,1.24s.7.49,1.14.5l4,.13a1.63,1.63,0,0,0,.93-.16c.62-.39.44-1.33.19-2s-.49-1.22-1.08-1.41" transform="translate(7.08 100.54)"/><path class="cls-4" d="M34.39,262.24a1.29,1.29,0,0,0,.47-1.82,2.1,2.1,0,0,0-1.83-.89A6.2,6.2,0,0,0,31,260l-1.4.51c-.72.26-1.54.63-1.69,1.38s.59,1.5,1.34,1.82a4.74,4.74,0,0,0,5-1" transform="translate(7.08 100.54)"/><path class="cls-4" d="M42,263.73a5.32,5.32,0,0,1,.08-2.14,1.8,1.8,0,0,1,1.51-1.33,2.56,2.56,0,0,1,1.08.26q1.25.53,2.46,1.11c.65.33,1.41.88,1.25,1.59s-1.11.89-1.85.91l-4.42.09" transform="translate(7.08 100.54)"/><path class="cls-4" d="M85,200.35a2.48,2.48,0,0,1-.82,2.57A5.53,5.53,0,0,1,81.57,204a5.53,5.53,0,0,0-2.92,1A4.67,4.67,0,0,0,77.58,208l-.18,1.55a.88.88,0,0,0,.08.64.82.82,0,0,0,.47.24,4,4,0,0,0,3.77-1.15c.65-.71,1.07-1.67,1.91-2.15.47-.27,1-.36,1.5-.63,1.27-.72,1.48-2.43,1.54-3.89l.07-1.57a2,2,0,0,0-.31-1.46c-.34-.38-1.14-.32-1.2.19" transform="translate(7.08 100.54)"/><path class="cls-4" d="M91.84,206.83a5.66,5.66,0,0,1-2.09.64A4.36,4.36,0,0,0,87,209.65c-.42.83-.48,2,.3,2.51a2.45,2.45,0,0,0,2.22-.17,5.3,5.3,0,0,0,1.22-.65,5.57,5.57,0,0,0,.81-.87l1.26-1.56a2.32,2.32,0,0,0,.69-1.5c0-.57-.76-1.06-1.18-.68" transform="translate(7.08 100.54)"/><path class="cls-4" d="M56.36,200.73c-.5.7-1.54.67-2.4.61s-1.93,0-2.27.84a1.64,1.64,0,0,0,0,1.07,2.83,2.83,0,0,0,1.25,1.59c.38.23.83.39,1.05.77s0,1.18.31,1.69a1.23,1.23,0,0,0,1.9,0,3.52,3.52,0,0,0,.66-2.07,3.52,3.52,0,0,1,.69-2.06,6.24,6.24,0,0,1,2.12-1c.73-.32,1.43-1.11,1.11-1.83s-1.35-.75-2.12-.53a7.58,7.58,0,0,0-2.37,1.16" transform="translate(7.08 100.54)"/><path class="cls-4" d="M66.68,193.12c-.54,0-1.08-.07-1.62,0a1.69,1.69,0,0,0-1.35.78.91.91,0,0,0,.51,1.3c.19,0,.39,0,.59,0,.55.07.87.66,1,1.2a3.35,3.35,0,0,0,.54,1.56,1.52,1.52,0,0,0,2,0,2.3,2.3,0,0,0,.69-2.06,2.68,2.68,0,0,0-2.85-2.37" transform="translate(7.08 100.54)"/><path class="cls-4" d="M77.71,198.86a2.3,2.3,0,0,0-2.34.55,2.64,2.64,0,0,0-.38.5l-.06.1s-.13.13,0,.06l0,0,.07-.06c-.08,0-.07,0,0,0s-.18,0-.22,0,0,0,0,0-.1,0-.14,0a2.74,2.74,0,0,0-.81.19,1.41,1.41,0,0,0-.84,1.2,1.28,1.28,0,0,0,1,1.2,3,3,0,0,0,2.53-.33,3,3,0,0,0,1.36-2.49.79.79,0,0,0-1.58,0c0,.07,0,.13,0,.2s0-.16,0-.05,0,.06,0,.08a.79.79,0,0,1-.06.22s0,0,0,.08.08-.17,0,0a3.79,3.79,0,0,1-.2.34c-.06.09,0,0,0,0s0,0,0,.06a1.21,1.21,0,0,1-.16.16l-.08.07,0,0-.2.13-.12.06c.09-.05,0,0,0,0l-.14,0-.2,0c-.12,0,0,0,0,0s-.07,0-.09,0H74.7c-.13,0,0,0,0,0a1.55,1.55,0,0,0-.23-.05s-.23-.09-.13,0,0,0,0,0l0,0c-.1-.06,0,0,.14.16a.43.43,0,0,1,.06.18c0,.05,0,.27,0,.15s-.09.17,0,.07-.11.12,0,.06l.07-.07-.06.05.09-.05s-.16,0-.08,0l.11,0c.1,0-.2,0,0,0a2.7,2.7,0,0,0,1.09-.27,2.48,2.48,0,0,0,.76-.85s0,0,0-.07c0,.13-.07.09,0,0s0,0,0-.05-.1.06,0,0l.2-.12h0l.05,0a1.46,1.46,0,0,0,.2-.05.55.55,0,1,0-.06,0h.2c.15,0-.13,0,0,0l.22.06a.81.81,0,0,0,1-.55.82.82,0,0,0-.56-1Z" transform="translate(7.08 100.54)"/><path class="cls-4" d="M68.94,204a23.67,23.67,0,0,0-7.14.8,2.64,2.64,0,0,0-1.72.86,2.67,2.67,0,0,0-.32,1.25,5.25,5.25,0,0,0,.29,2.79,1.78,1.78,0,0,0,2.35.91,4.57,4.57,0,0,0,.66-.59c1.39-1.26,3.66-.83,5.25-1.83a3.43,3.43,0,0,0,1.22-4.23" transform="translate(7.08 100.54)"/><path class="cls-4" d="M73.91,210.82a9.71,9.71,0,0,0-3.1.66,1.11,1.11,0,0,1-.64.14c-.57-.09-.83-1-1.4-.91s-.65.72-.64,1.23c0,.74.09,1.61.74,2a1.56,1.56,0,0,0,.77.18,6.26,6.26,0,0,0,3-1.05,3.38,3.38,0,0,0,1.11-.87,1.15,1.15,0,0,0,.09-1.32" transform="translate(7.08 100.54)"/><path class="cls-4" d="M50.09,207.72a.73.73,0,0,0-1.07.09,2.15,2.15,0,0,0-.37,1.15L48.41,211a1.07,1.07,0,0,0,.05.64,1,1,0,0,0,.55.39c1.55.54,3.27-.07,4.74-.81A.58.58,0,0,0,54,211c.12-.24-.14-.5-.38-.63a3.48,3.48,0,0,0-1.31-.38,1.8,1.8,0,0,1-1-.22,1.67,1.67,0,0,1-.42-1.14c-.06-.42-.25-.9-.66-1" transform="translate(7.08 100.54)"/><path class="cls-4" d="M104.17,206.06c-.39.3-1,.08-1.45.09-.85,0-1.5.74-2.25,1.15s-1.49.48-2.19.84a1.71,1.71,0,0,0-1,1.89c.3.85,1.42,1,2.31,1h3.71a1.85,1.85,0,0,0,2.21-2.13,5.84,5.84,0,0,0,0-1.77,1.94,1.94,0,0,0-1-1.4" transform="translate(7.08 100.54)"/><path class="cls-4" d="M97.27,219.79a1.34,1.34,0,0,0,0-1.66,2.73,2.73,0,0,0-1.5-.94,6.05,6.05,0,0,0-6.32,2,1.2,1.2,0,0,0-.31,1.21,1.18,1.18,0,0,0,1.14.44c2-.08,4-1.18,6-.74" transform="translate(7.08 100.54)"/><path class="cls-4" d="M83.24,213.74c-.74-.46-1.69,0-2.44.44L79,215.25c-.46.28-1,.74-.79,1.24s.7.49,1.14.51l4,.12a1.72,1.72,0,0,0,.93-.15c.62-.39.45-1.34.19-2s-.49-1.22-1.07-1.41" transform="translate(7.08 100.54)"/><path class="cls-4" d="M74.69,225.26a2.47,2.47,0,0,1-.83,2.57,5.43,5.43,0,0,1-2.61,1.09,5.54,5.54,0,0,0-2.92,1,4.55,4.55,0,0,0-1.06,2.91l-.19,1.55a.83.83,0,0,0,.09.64.86.86,0,0,0,.47.25,4,4,0,0,0,3.76-1.16c.66-.7,1.08-1.67,1.91-2.15.48-.27,1-.35,1.51-.62,1.26-.73,1.47-2.44,1.54-3.89l.07-1.58a2,2,0,0,0-.32-1.46c-.33-.38-1.13-.31-1.2.19" transform="translate(7.08 100.54)"/><path class="cls-4" d="M81.52,231.74a5.57,5.57,0,0,1-2.08.65,4.34,4.34,0,0,0-2.74,2.18,2,2,0,0,0,.31,2.51,2.46,2.46,0,0,0,2.21-.18,4.92,4.92,0,0,0,1.22-.65,5.21,5.21,0,0,0,.82-.87l1.25-1.56a2.25,2.25,0,0,0,.69-1.5c0-.56-.76-1.06-1.18-.68" transform="translate(7.08 100.54)"/><path class="cls-4" d="M93.86,231c-.4.3-1,.08-1.45.1-.86,0-1.5.74-2.25,1.14s-1.5.48-2.2.84a1.71,1.71,0,0,0-1,1.9c.3.84,1.41,1,2.31,1H93a2.42,2.42,0,0,0,1.48-.32,2.45,2.45,0,0,0,.72-1.8,5.59,5.59,0,0,0,0-1.78,1.9,1.9,0,0,0-1-1.39" transform="translate(7.08 100.54)"/><path class="cls-4" d="M87,244.7A1.34,1.34,0,0,0,87,243a2.7,2.7,0,0,0-1.49-.94,6.08,6.08,0,0,0-6.33,2,1.18,1.18,0,0,0-.3,1.21,1.16,1.16,0,0,0,1.13.44c2-.08,4-1.18,6-.74" transform="translate(7.08 100.54)"/><path class="cls-4" d="M24.93,191.49c-.4.3-1,.08-1.45.1-.85,0-1.5.73-2.25,1.14s-1.5.48-2.19.84a1.7,1.7,0,0,0-1,1.9c.3.84,1.41,1,2.31,1H24a2.4,2.4,0,0,0,1.48-.32,2.45,2.45,0,0,0,.72-1.8,5.32,5.32,0,0,0,0-1.78,2,2,0,0,0-1-1.4" transform="translate(7.08 100.54)"/><path class="cls-4" d="M36,188.94a1.33,1.33,0,0,0,0-1.66,2.73,2.73,0,0,0-1.5-.94,6,6,0,0,0-6.32,2c-.27.34-.52.81-.31,1.2a1.18,1.18,0,0,0,1.14.44c2-.07,4-1.18,6-.74" transform="translate(7.08 100.54)"/><path class="cls-4" d="M72.93,238.65c-.75-.45-1.69,0-2.44.45l-1.79,1.07c-.46.27-1,.74-.8,1.23s.7.49,1.15.51l4,.12a1.59,1.59,0,0,0,.92-.15c.63-.39.45-1.33.2-2s-.5-1.22-1.08-1.41" transform="translate(7.08 100.54)"/><path class="cls-4" d="M58.8,218.85a1.31,1.31,0,0,0,.47-1.82,2.13,2.13,0,0,0-1.83-.89,6.4,6.4,0,0,0-2.06.49l-1.41.51c-.72.26-1.54.63-1.69,1.38s.59,1.5,1.34,1.82a4.74,4.74,0,0,0,5-1" transform="translate(7.08 100.54)"/><path class="cls-4" d="M66.42,220.34a5.26,5.26,0,0,1,.08-2.13A1.81,1.81,0,0,1,68,216.87a2.39,2.39,0,0,1,1.07.27q1.25.51,2.46,1.11c.65.32,1.41.87,1.25,1.58s-1.1.9-1.85.91l-4.42.09" transform="translate(7.08 100.54)"/><path class="cls-4" d="M15.65,264.35l0-4.08a1.32,1.32,0,0,0-.11-.65,1.17,1.17,0,0,0-.62-.49,6.92,6.92,0,0,0-1.41-.49.74.74,0,0,0-.51,0,.7.7,0,0,0-.24.36,11.14,11.14,0,0,0-.48,3.6,2.66,2.66,0,0,0,.58,2.13,2.07,2.07,0,0,0,2.65-.4" transform="translate(7.08 100.54)"/><path class="cls-4" d="M42.44,207.32c-1.36.08-2.5,1-3.63,1.75a18.87,18.87,0,0,1-4.93,2.33c-1.15.35-2.5.72-3,1.84a1.12,1.12,0,0,0,0,1,1.29,1.29,0,0,0,.57.43,6.36,6.36,0,0,0,2.57.35l4.6,0c1.85,0,4-.18,5.06-1.7a6,6,0,0,0,.71-3.32,4.46,4.46,0,0,0-.27-2,1.55,1.55,0,0,0-1.62-1" transform="translate(7.08 100.54)"/><path class="cls-4" d="M42.68,189.15c-.5.71-1.54.67-2.4.61s-1.94,0-2.27.84a1.57,1.57,0,0,0,0,1.07,2.83,2.83,0,0,0,1.25,1.59c.38.23.83.39,1.05.77s0,1.18.31,1.69a1.23,1.23,0,0,0,1.9,0,3.62,3.62,0,0,0,.66-2.07,3.4,3.4,0,0,1,.69-2.06,6,6,0,0,1,2.12-1c.73-.32,1.42-1.11,1.1-1.83s-1.35-.75-2.11-.53a7.47,7.47,0,0,0-2.37,1.16" transform="translate(7.08 100.54)"/><path class="cls-4" d="M55.25,192.38a23.71,23.71,0,0,0-7.14.8,2.64,2.64,0,0,0-1.71.86,2.56,2.56,0,0,0-.32,1.26,5.13,5.13,0,0,0,.29,2.78,1.78,1.78,0,0,0,2.35.91,5.17,5.17,0,0,0,.66-.58c1.38-1.26,3.66-.84,5.25-1.84a3.42,3.42,0,0,0,1.21-4.23" transform="translate(7.08 100.54)"/><path class="cls-4" d="M41.11,200.82c-1-.87-2.5-1-3.84-1.22a18.19,18.19,0,0,1-5.18-1.69c-1.08-.53-2.32-1.19-3.41-.68A1.15,1.15,0,0,0,28,198a1.34,1.34,0,0,0,.12.71,6.18,6.18,0,0,0,1.63,2l3.37,3.13c1.36,1.26,3,2.62,4.85,2.24a5.92,5.92,0,0,0,2.79-1.92A4.74,4.74,0,0,0,42,202.49a1.56,1.56,0,0,0-.53-1.81" transform="translate(7.08 100.54)"/><path class="cls-4" d="M26,216.23a13.26,13.26,0,0,1,.19,8.42c-.17.52-.32,1.19.11,1.52a.91.91,0,0,0,.45.16,2.38,2.38,0,0,0,2-.86,7.12,7.12,0,0,0,1.13-2c.44-1,.88-2.19.38-3.17s-1.7-1.32-2.39-2.16-.8-1.87-1.6-2.44" transform="translate(7.08 100.54)"/><path class="cls-4" d="M6.53,207.41A5.42,5.42,0,0,0,1,208.47a3,3,0,0,1-.76.61,7.32,7.32,0,0,1-.8.23,1.91,1.91,0,0,0-.76,3c.22.23.5.41.72.64a2.76,2.76,0,0,1,.51,2.17c-.07.66-.19,1.48.35,1.86a1.08,1.08,0,0,0,1.17,0,2.9,2.9,0,0,0,.81-.93,14,14,0,0,0,1.43-3.06,5.27,5.27,0,0,1,1.4-2.72,8.68,8.68,0,0,1,1.31-.71,1.7,1.7,0,0,0,.93-1.09c.09-.49-.32-1.07-.8-1" transform="translate(7.08 100.54)"/><path class="cls-4" d="M23.68,204.65c-.2.2-.54,0-.74-.15-.86-.86-.72-2.49-1.76-3.12a2.78,2.78,0,0,0-1-.29c-2.15-.33-4.3-.63-6.45-.88-.71-.09-1.64,0-1.84.66-.15.53.3,1,.71,1.42A43.51,43.51,0,0,0,17.39,206a5.1,5.1,0,0,1,1.13.93,7.13,7.13,0,0,0,1,1.3,2,2,0,0,0,1.82.19,3.31,3.31,0,0,0,2.1-3.79" transform="translate(7.08 100.54)"/><path class="cls-4" d="M2.66,222c-.5.71-1.54.68-2.4.61s-1.94.05-2.27.85a1.61,1.61,0,0,0,0,1.06,2.89,2.89,0,0,0,1.25,1.6,2.48,2.48,0,0,1,1.05.77c.28.5,0,1.18.31,1.68a1.23,1.23,0,0,0,1.9,0,3.62,3.62,0,0,0,.66-2.07,3.52,3.52,0,0,1,.69-2.06,6,6,0,0,1,2.12-1c.73-.32,1.42-1.11,1.1-1.84s-1.35-.75-2.11-.53a7.5,7.5,0,0,0-2.37,1.17" transform="translate(7.08 100.54)"/><path class="cls-4" d="M13,214.42c-.54,0-1.09-.06-1.62,0a1.69,1.69,0,0,0-1.35.78.9.9,0,0,0,.5,1.3c.2,0,.4,0,.6,0,.55.07.87.66,1,1.2a3.39,3.39,0,0,0,.55,1.55,1.51,1.51,0,0,0,2,0,2.35,2.35,0,0,0,.69-2.07,2.68,2.68,0,0,0-2.85-2.36" transform="translate(7.08 100.54)"/><path class="cls-4" d="M20.79,185.64a.73.73,0,0,0-1.07.09,2.15,2.15,0,0,0-.37,1.15L19.11,189a1.07,1.07,0,0,0,.05.64,1,1,0,0,0,.55.39c1.55.54,3.27-.07,4.74-.81a.58.58,0,0,0,.28-.23c.12-.24-.14-.5-.38-.63a3.48,3.48,0,0,0-1.31-.38,1.8,1.8,0,0,1-1-.22,1.68,1.68,0,0,1-.42-1.15c-.06-.41-.25-.89-.66-.95" transform="translate(7.08 100.54)"/><path class="cls-4" d="M13.14,185.24c-1.36.08-2.5,1-3.63,1.75a18.87,18.87,0,0,1-4.93,2.33c-1.15.34-2.5.72-2.95,1.84a1.12,1.12,0,0,0,0,1,1.29,1.29,0,0,0,.57.43,6.36,6.36,0,0,0,2.57.35l4.6,0c1.85,0,4-.18,5.06-1.7a6,6,0,0,0,.71-3.32,4.46,4.46,0,0,0-.27-2,1.55,1.55,0,0,0-1.62-1" transform="translate(7.08 100.54)"/><path class="cls-4" d="M-3.27,194.15a13.26,13.26,0,0,1,.19,8.42c-.17.52-.32,1.19.11,1.52a.91.91,0,0,0,.45.16,2.41,2.41,0,0,0,2-.86,7.12,7.12,0,0,0,1.13-2c.44-1,.88-2.19.38-3.17s-1.7-1.32-2.39-2.16-.8-1.87-1.6-2.44" transform="translate(7.08 100.54)"/><path class="cls-4" d="M16.33,224.56a1,1,0,0,0-.6-1.4,2.62,2.62,0,0,0-1.72.11,17.77,17.77,0,0,0-2.14.81c-.5.23-1.07.75-.76,1.2s.73.25,1.13.2a3.6,3.6,0,0,1,3.3,1.38,2,2,0,0,0,.68.7,1.55,1.55,0,0,0,1.28-.2,6.8,6.8,0,0,0,1.84-1.13,2.36,2.36,0,0,0,.83-1.92.89.89,0,0,0-.26-.56,1.09,1.09,0,0,0-.62-.16c-1-.06-2-.07-3.05,0" transform="translate(7.08 100.54)"/><path class="cls-5" d="M81.75,168.69s-2,85.53,6.12,96.39l31.73,7.23,21.06-8.22,8.83-28.94,4.68-26.65,3.14-26.31,1.89-17.76Z" transform="translate(7.08 100.54)"/><path class="cls-6" d="M94.78,166.49S76.07,193.36,93,263.05H87l-7.33-49.78L82,162.7Z" transform="translate(7.08 100.54)"/><path class="cls-7" d="M86,171.43s36.43-3.91,69.24-3l3.92-3.61V131.59a62.71,62.71,0,0,0-1.77-14.89C155,106.62,149.58,89.87,139.06,78a28.75,28.75,0,0,0-5.19-4.6,14.3,14.3,0,0,0-7.29-2.5,11.41,11.41,0,0,0-5.67,1.45,49,49,0,0,0-11.37,9l-12,12.57A26.13,26.13,0,0,1,92,98.31l-6.53,3.87a32.28,32.28,0,0,1-5,2.39c-3.51,1.32-9.89,4-13.06,7-3.52,3.28-2.74,12.77-2.23,16.81.18,1.34.28,2.67.36,4C65.93,140.1,68.64,166.32,86,171.43Z" transform="translate(7.08 100.54)"/><path class="cls-8" d="M79.67,112.89s6.82,1.62,10.73,4.25a7,7,0,0,0,3.94,1.17h2.51a7.47,7.47,0,0,0,4.38-1.41,44.81,44.81,0,0,0,17.41-27.19S103.31,115,79.67,112.89Z" transform="translate(7.08 100.54)"/><path class="cls-8" d="M66.34,128.66c.16,1.32.27,2.65.34,4,.41,7.69,3,32.12,19.92,37.2,0,0,5.77-.63,14.74-1.33-3-.22-5.67.68-8.17-.4C73,160.17,66.34,128.66,66.34,128.66Z" transform="translate(7.08 100.54)"/><path class="cls-8" d="M155.85,117.11c-2.36-9.87-7.51-26.52-17.46-38.29,0,0,.07.2.16.48l.2.24c.2.57,12.63,35.77,12.53,46.13l-.79,21.49a15.62,15.62,0,0,1-3,8.7c-3.27,4.44-9.1,9.4-15.92,11,7.26-.2,14.82-.25,22.18,0l3.8-2v-33A63.91,63.91,0,0,0,155.85,117.11Z" transform="translate(7.08 100.54)"/><path class="cls-9" d="M119.12-100.3l-.2-.24.11.31Z" transform="translate(7.08 100.54)"/><path class="cls-10" d="M72.58,112a35.49,35.49,0,0,1,16.76,4.53,12.23,12.23,0,0,0,9.72,1,18.44,18.44,0,0,0,10.19-8.17s5.78-5.78,9.39-19.63c0,0,0-8.43,9-7.83" transform="translate(7.08 100.54)"/><path class="cls-11" d="M243.18,173.13,219.82,173a13.28,13.28,0,0,1-6.58-1.73c-3.81-2.22-8.07-2.93-13-3.92a25.73,25.73,0,0,1-10.84-5.62,34.46,34.46,0,0,0-18.06-8c-19.87.4-16.26,21.28-16.26,21.28-6.42,8.63-6.82,25.69-6.82,25.69s-4.82,28.1-6,31.51-3.82,9.43-3.82,9.43l-1.6,10.64s-45.56,13-49.58,10-6.61-46.16-6.61-46.16V174.53c.4-15.05-14.29-25.67-14.29-25.67.2,2.84-41.9,20.76-51.41,24.85a10.2,10.2,0,0,1-4,.82H-1.28v20.88s39.68-3.78,56.11-8.8a20.25,20.25,0,0,0,5.08-2.36c2.13-1.36,6.08-3.33,9.66-2.09,5.22,1.81,3.61,8.43,3.61,9s-1.8,83.5-1.8,83.5l77.07-22.08,7.62-56.8s1.21-12.85,9-14.05c0,0,3.39-2.21,9,3.86a17.22,17.22,0,0,0,9,5.2,139.82,139.82,0,0,0,26.51,3c17.87.2,33.52,10,33.52,10Z" transform="translate(7.08 100.54)"/><path class="cls-12" d="M27,173.62c17.4-7.23,30.05-21.89,51.85-7.07C75.25,156,66.34,150,66.34,150c.21,2.85-41.42,20.07-51.08,24.16a10.46,10.46,0,0,1-4.09.83H-1.16l-.12,4.64S9.56,180.85,27,173.62Z" transform="translate(7.08 100.54)"/><path class="cls-12" d="M219.9,174.5a13.19,13.19,0,0,1-6.55-1.64c-3.81-2.19-8.08-3.11-13-4.09a26.29,26.29,0,0,1-10.91-5.58,32.3,32.3,0,0,0-17.61-7.66c-16.19-.82-15.53,15.77-15.53,15.77l54.84,8.13,32.2,1.54v-6.32Z" transform="translate(7.08 100.54)"/><path class="cls-13" d="M41.8,178.08c1.5-.6,33.71-13.86,35.22,3v38.58s-.24,24.11,2.29,37.36l7.91,6c-3.25-2.45-6-31-7-41.66-.23-2.58-.33-5.16-.32-7.75l.18-38.31a26.12,26.12,0,0,0-1.28-8.72c-21.49-14.82-35.23.08-52.38,7.31s-27.73,5.73-27.73,5.73v10.24S9.71,190.93,41.8,178.08Z" transform="translate(7.08 100.54)"/><path class="cls-13" d="M211.28,176.2a46.73,46.73,0,0,0-16.9-4.83,11.18,11.18,0,0,1-3.35-.86l-5.34-2.31A26.41,26.41,0,0,0,175.25,166H167a11.36,11.36,0,0,0-6.17,1.83l-4.69,3.29a30.48,30.48,0,0,0,.06,5.27c-6.27,8.53-6.42,25.12-6.42,25.12s-4.88,28.18-6.06,31.55-3.58,8.78-3.58,8.78l-1.82,11.21,4.78,0,8.22-48,3.88-20.5a5.35,5.35,0,0,1,2.14-3.36l5.61-4a9.27,9.27,0,0,1,6.75-1.63l6.21.91a50.5,50.5,0,0,1,11.57,3.17c10.06,4.08,32.38,12.41,49.57,13.52h4.67V180.75l-20.23-1.46A25.46,25.46,0,0,1,211.28,176.2Z" transform="translate(7.08 100.54)"/><path class="cls-10" d="M155.34,174.41s5.42-8.43,19.47-7.43c10.53.75,16,3.76,18.06,5.22a10.28,10.28,0,0,0,2.56,1.35l21.73,7.64a14.92,14.92,0,0,0,5,.84h22.14" transform="translate(7.08 100.54)"/><circle class="cls-14" cx="64.42" cy="239.91" r="4.42"/><circle class="cls-15" cx="72.05" cy="243.12" r="3.91"/><circle class="cls-15" cx="66.48" cy="246.79" r="3.56"/><circle class="cls-15" cx="78.87" cy="247.34" r="4.82"/><circle class="cls-15" cx="79.93" cy="255.82" r="3.76"/><circle class="cls-16" cx="74.35" cy="248.57" r="3.54"/><circle class="cls-16" cx="69.64" cy="250.4" r="3.16"/><circle class="cls-16" cx="74.66" cy="254.07" r="3.24"/><circle class="cls-16" cx="87.5" cy="267.61" r="3.21"/><circle class="cls-16" cx="93.17" cy="274.08" r="3.36"/><circle class="cls-16" cx="143.08" cy="267.59" r="3.23"/><circle class="cls-16" cx="140.87" cy="274.08" r="3.23"/><circle class="cls-17" cx="136.62" cy="269.07" r="3.23"/><circle class="cls-17" cx="131.41" cy="270.85" r="3.23"/><circle class="cls-17" cx="162.52" cy="265.84" r="3.23"/><path class="cls-10" d="M-1.47,188.34s15.45-.82,28.2-8.71a57.2,57.2,0,0,1,11.13-5.26l16.67-5.85s9.86-4.93,17.35-.61a21.38,21.38,0,0,0,2,1.06l6.53,2.78" transform="translate(7.08 100.54)"/><path class="cls-18" d="M149.46,179.33c.43-.09-.12,0-.27,0s.38,0-.06,0h-.28c.22,0-.19,0-.2,0a1.76,1.76,0,0,1-.45-.12,1.64,1.64,0,0,1-.78-.76,1.5,1.5,0,0,0-1-.82c-.66-.19-1.59,0-1.38-1s1.08-1.52,1.07-2.56a.39.39,0,0,0-.31-.21,4.67,4.67,0,0,1-3.23-2.1,5.2,5.2,0,0,1-.32-.62l-.11-.27c0-.08,0-.3-.13-.22l-.57.36-1,.31-.8.06c.12,0,.05,0,.18.1s.29.26.42.4a2.77,2.77,0,0,0,.76.65,4.23,4.23,0,0,0,2.76.3c1.54-.27,4.09-1.41,3.39-3.44l-3.45.92,1.25,2.15c.5.86,3.75-.42,3.45-.93l-1.25-2.14c-.3-.52-1.43-.22-1.87-.09-.28.08-1.76.5-1.58,1a1.48,1.48,0,0,1-.24,1.46c-.22.26-.35.19.51-.08a1.46,1.46,0,0,1,.73-.2s0,0,0,0a2.25,2.25,0,0,1-.7-.33c-.5-.38-.78-.93-1.42-1.12a4.53,4.53,0,0,0-3.08.5c-.3.15-.89.46-.88.87a2.34,2.34,0,0,0,.28.79,5.45,5.45,0,0,0,1,1.41,5.36,5.36,0,0,0,3.15,1.61l-.32-.21a2.88,2.88,0,0,1-.69,1.49,2.3,2.3,0,0,0-.4,1.35,1.17,1.17,0,0,0,.91,1c.43.13,1,0,1.25.26s.45.77.78,1.06a2.8,2.8,0,0,0,1.29.55,9.92,9.92,0,0,0,3.94-.3c.35-.07,1.69-.46,1.58-1s-1.64-.14-1.88-.09Z" transform="translate(7.08 100.54)"/><path class="cls-18" d="M144.91,180.17v3.72a15.59,15.59,0,0,1,0,1.81,1,1,0,0,0,0,.16c0,.15-.08.07,0,0s0,.18,0,0,0,.05,0,0c0,.14-.32,0,.08,0a.6.6,0,0,0-.13.09c-.31.21.32-.16,0,0s.38-.1.09,0l-.13,0c-.18.07.3-.07.26,0s-.23,0-.3,0,.39,0,.19,0h-.18l-.17,0c-.15,0,.18,0,.18,0a2.45,2.45,0,0,0-.29-.08c-.06,0-.23-.12-.28-.1s.24.13.13,0l-.15-.08a2.2,2.2,0,0,1-.25-.17.5.5,0,0,1-.14-.1s.16.18.09.06-.29-.33-.41-.5.06.16,0,0-.07-.18-.1-.28a4.66,4.66,0,0,1-.12-.63c0,.25,0,0,0-.13s0-.23,0-.34a3.38,3.38,0,0,1,.08-.34c0-.05.08-.15,0,0s0,0,0,0a3,3,0,0,1,.16-.31l.09-.15c.07-.14-.18.2-.06.09a1.94,1.94,0,0,0,.23-.26c.09-.11-.14.12-.14.12a2.12,2.12,0,0,0,.21-.15c.53-.37.94-1.22.22-1.64a2.47,2.47,0,0,0-2.47.25,4.22,4.22,0,0,0-1.87,3.11,3.56,3.56,0,0,0,1.4,3.14,5,5,0,0,0,4.07.72,4.81,4.81,0,0,0,2.19-1.08,2.63,2.63,0,0,0,1-2.1c0-1.7,0-3.4,0-5.1,0-.81-.86-1.08-1.56-1a2.66,2.66,0,0,0-1.31.47c-.25.19-.62.5-.62.85Z" transform="translate(7.08 100.54)"/><path class="cls-18" d="M143.1,183.94a14.67,14.67,0,0,0-2.91-2.82,1.41,1.41,0,0,0-.9-.2,3.66,3.66,0,0,0-1.35.28,2.15,2.15,0,0,0-.95.6c-.12.17-.25.42,0,.58a15,15,0,0,1,2.91,2.82.76.76,0,0,0,.37.16,1.94,1.94,0,0,0,.54,0,3.94,3.94,0,0,0,1.35-.29,2.17,2.17,0,0,0,.94-.6l.13-.21a.31.31,0,0,0-.1-.37Z" transform="translate(7.08 100.54)"/><path class="cls-18" d="M140.07,184.44c-1.82.49-3.63,1.06-5.4,1.7-.37.13-1.08.5-1.07,1s.67.52,1,.53.76.05,1.26.12a6.57,6.57,0,0,1,1.2.29,2.91,2.91,0,0,1,1.83,1.68,1.56,1.56,0,0,0,1,1,4.76,4.76,0,0,0,2.85-.41c-.16.06.1,0,.13,0,.61-.17-.12,0,.23-.05a3.66,3.66,0,0,1,.69-.08,5.57,5.57,0,0,1,1.72.22A3.2,3.2,0,0,0,148,190c.36-.2,1.15-1,.34-1.2a10.31,10.31,0,0,0-3.41-.42,12.21,12.21,0,0,0-2,.29c-.27.06-.53.13-.79.21l-.64.22c-.31.11-.26.1.14,0h.82c.23,0,0,0,0-.12a4.73,4.73,0,0,0-.2-.47,4.08,4.08,0,0,0-.49-.8,4.15,4.15,0,0,0-1.55-1.1,11.36,11.36,0,0,0-4.2-.76l0,1.49c1.47-.53,2.94-1,4.5-1.4.46-.12,1.67-.54,1.52-1.21s-1.55-.4-1.93-.3Z" transform="translate(7.08 100.54)"/><path class="cls-18" d="M147,194.44a8,8,0,0,1-2.34-.49,9.2,9.2,0,0,1-2.33-1.3,2.23,2.23,0,0,0-2.06-.11c-.46.16-1.44.6-1.27,1.25a18,18,0,0,0,2.23,5.1l1.84-1.63a3.83,3.83,0,0,1-1.35,0,6.16,6.16,0,0,1-1.55-.45,6.6,6.6,0,0,1-2.71-2.2c-.3-.42-1.2-.31-1.6-.23a2.44,2.44,0,0,0-1.61.87,4,4,0,0,0,0,3.83,4.7,4.7,0,0,0,3.51,2.35,8.45,8.45,0,0,0,5.49-1.13,14.73,14.73,0,0,0,1.85-1.4c.14-.12.28-.24.43-.35l.19-.15c-.1.08-.08.06.07,0a4.23,4.23,0,0,1,.4-.24c-.15.08-.14.08,0,0-.21.07-.21.07,0,0l-1.95-.4a3.51,3.51,0,0,1,.23,1.76,5.54,5.54,0,0,1-.4,1.92,3.07,3.07,0,0,1-.42.66c.12-.16-.24.19,0,0,0,0-.38.2-.17.11s.09,0-.06,0l.19-.07a.86.86,0,0,1,.28,0H144c.35.13-.15-.12.06,0-.12-.07-.24-.12-.36-.2-.93-.63-4.12.75-2.74,1.67a4,4,0,0,0,3.13.33,5.24,5.24,0,0,0,2.87-1.68,4.89,4.89,0,0,0,1-2.54,5.17,5.17,0,0,0-.17-2.84c-.34-.67-1.36-.57-2-.4a10.07,10.07,0,0,0-3.8,2.25l-.32.25-.18.15c.07-.05.07-.05,0,0l-.34.21c-.31.21.12,0-.19.1,0,0-.53.17-.16.08-.09,0-.55.12-.17.06l-.41,0q-.18,0,0,0H140a2.2,2.2,0,0,1-.65-.11,3.63,3.63,0,0,1-.64-.3,3.2,3.2,0,0,1-1-1.07,3,3,0,0,1-.22-2.75l-3.21.64a8.73,8.73,0,0,0,8.33,3.2c.65-.1,2.45-.67,1.84-1.63a17,17,0,0,1-2-4.68L139.14,194a11.51,11.51,0,0,0,6.54,2.4,2.74,2.74,0,0,0,2.28-.94c.45-.7-.39-1-.94-1Z" transform="translate(7.08 100.54)"/><path class="cls-19" d="M68.84-.35V47.82s-2.11,12-5.12,16.56S55,77,54.09,79.44,49.27,89.07,49,99s0,30.45,0,30.45-.6,27.51,26.79,31.42c0,0,2.41-1.8,0-3.31a25.78,25.78,0,0,1-15.19-6.85A15.13,15.13,0,0,1,56.17,140l-.24-38.18a47.24,47.24,0,0,1,2.4-15.52c1-2.84,2.21-5.61,3.74-7.19C66.39,74.65,76.22,65,76.22,65s4.36-4.66,4.66-15.5L83.74-.35Z" transform="translate(7.08 100.54)"/><circle class="cls-17" cx="153.28" cy="269.07" r="3.23"/><circle class="cls-17" cx="156.51" cy="283.7" r="3.23"/><circle class="cls-14" cx="158.1" cy="277.31" r="4.01"/><circle class="cls-16" cx="153.28" cy="274.08" r="3.23"/><circle class="cls-16" cx="158.1" cy="270.85" r="3.23"/></g></g></g></svg>