<svg xmlns="http://www.w3.org/2000/svg" viewBox="0 0 239.9 43.26"><defs><style>.cls-1,.cls-2{fill:#707176;}.cls-1,.cls-3{fill-rule:evenodd;}.cls-3{fill:#119dad;}</style></defs><g id="레이어_2" data-name="레이어 2"><g id="_·_이_1" data-name="·¹이¾1"><path class="cls-1" d="M92,43a1.33,1.33,0,0,1-.32.12l-.42.08a3.47,3.47,0,0,1-.45.06l-.44,0a3.43,3.43,0,0,1-1.13-.19,2.64,2.64,0,0,1-.89-.56,2.6,2.6,0,0,1-.59-.91,3.5,3.5,0,0,1,0-2.36,2.63,2.63,0,0,1,.56-.91,2.48,2.48,0,0,1,.89-.59,3,3,0,0,1,1.18-.22,6,6,0,0,1,.78,0,4.54,4.54,0,0,1,.66.14s.08,0,.09,0a.13.13,0,0,1,0,.06l-.09.62a.08.08,0,0,1,0,.07s0,0-.11,0a3.42,3.42,0,0,0-.65-.16,4.65,4.65,0,0,0-.66-.05,2.07,2.07,0,0,0-.8.15,1.69,1.69,0,0,0-.62.43,2,2,0,0,0-.4.66,2.48,2.48,0,0,0-.14.85,2.83,2.83,0,0,0,.14.9A1.85,1.85,0,0,0,89,42a1.74,1.74,0,0,0,.62.4,2.22,2.22,0,0,0,.79.14,4.67,4.67,0,0,0,.57,0,1.16,1.16,0,0,0,.36-.09V40.89H90.1l-.07,0a.09.09,0,0,1,0-.06v-.59a.12.12,0,0,1,0-.08.08.08,0,0,1,.07,0H92a.22.22,0,0,1,.14,0,.28.28,0,0,1,0,.15v2.42a.26.26,0,0,1,0,.17A.28.28,0,0,1,92,43Z"/><path class="cls-1" d="M94.67,41h1.79l-.89-2.27L94.67,41Zm2.74,2.16h-.07s0,0,0-.06l-.53-1.32h-2.4l-.52,1.32s0,.06,0,.06h-.75c-.09,0-.12,0-.09-.1l2.15-5.35a.15.15,0,0,1,0-.07H96a.15.15,0,0,1,0,.07l2.15,5.35c0,.07,0,.1-.09.1Z"/><path class="cls-1" d="M102.16,43.15s-.07,0-.09,0A.25.25,0,0,1,102,43l-2.31-4v4a.14.14,0,0,1,0,.09s0,0-.1,0H99s-.07,0-.08,0,0,0,0-.09v-5.3a.14.14,0,0,1,0-.11s.05,0,.1,0h.68l.09,0s0,.05.07.1l2.31,4v-4a.14.14,0,0,1,0-.09s0,0,.1,0h.6c.05,0,.09,0,.1,0a.14.14,0,0,1,0,.09V43a.14.14,0,0,1,0,.11s0,0-.11,0Z"/><path class="cls-1" d="M108.54,43a1.27,1.27,0,0,1-.33.12l-.41.08a3.47,3.47,0,0,1-.45.06l-.44,0a3.43,3.43,0,0,1-1.13-.19,2.64,2.64,0,0,1-.89-.56,2.6,2.6,0,0,1-.59-.91,3.5,3.5,0,0,1,0-2.36,2.63,2.63,0,0,1,.56-.91,2.48,2.48,0,0,1,.89-.59,3,3,0,0,1,1.18-.22,6,6,0,0,1,.78,0,4.54,4.54,0,0,1,.66.14s.08,0,.09,0a.13.13,0,0,1,0,.06l-.09.62a.08.08,0,0,1,0,.07s0,0-.11,0a3.42,3.42,0,0,0-.65-.16,4.65,4.65,0,0,0-.66-.05,2.07,2.07,0,0,0-.8.15,1.69,1.69,0,0,0-.62.43,2,2,0,0,0-.4.66,2.48,2.48,0,0,0-.14.85,2.83,2.83,0,0,0,.14.9,1.85,1.85,0,0,0,.41.66,1.74,1.74,0,0,0,.62.4,2.22,2.22,0,0,0,.79.14,4.67,4.67,0,0,0,.57,0,1.16,1.16,0,0,0,.36-.09V40.89h-1.21l-.07,0a.09.09,0,0,1,0-.06v-.59a.12.12,0,0,1,0-.08.08.08,0,0,1,.07,0h1.88a.22.22,0,0,1,.14,0,.28.28,0,0,1,0,.15v2.42a.26.26,0,0,1,0,.17A.28.28,0,0,1,108.54,43Z"/><path class="cls-1" d="M113.35,43.15s-.07,0-.09,0a.25.25,0,0,1-.07-.09l-2.31-4v4a.14.14,0,0,1,0,.09s0,0-.1,0h-.6s-.07,0-.09,0,0,0,0-.09v-5.3a.11.11,0,0,1,.14-.14h.67l.09,0s0,.05.07.1l2.31,4v-4a.14.14,0,0,1,0-.09.13.13,0,0,1,.1,0h.61s.08,0,.09,0a.14.14,0,0,1,0,.09V43a.14.14,0,0,1,0,.11s0,0-.11,0Z"/><path class="cls-1" d="M116.54,41h1.79l-.89-2.27-.9,2.27Zm2.74,2.16h-.07s0,0,0-.06l-.52-1.32h-2.4l-.53,1.32s0,.06,0,.06h-.75c-.09,0-.12,0-.09-.1L117,37.7l0-.07s0,0,.08,0h.68s.08,0,.08,0a.14.14,0,0,1,0,.07l2.15,5.35c0,.07,0,.1-.09.1Z"/><path class="cls-1" d="M125.72,43.15h-.07a.14.14,0,0,1,0-.07v-4l-1.59,4s0,0,0,0h-.77s0,0,0,0l-1.59-4v4s0,0,0,.07h-.76c-.06,0-.09,0-.09-.07V37.77a.31.31,0,0,1,0-.13.33.33,0,0,1,.14,0h.88s0,0,.06,0a.15.15,0,0,1,0,.07L123.62,42l1.74-4.32,0-.07s0,0,.06,0h.87a.33.33,0,0,1,.14,0,.31.31,0,0,1,0,.13v5.31c0,.05,0,.07-.09.07Z"/><path class="cls-1" d="M131.05,41h1.79L132,38.72l-.9,2.27Zm2.74,2.16h-.07s0,0-.05-.06l-.52-1.32h-2.4l-.53,1.32s0,.06,0,.06h-.75c-.09,0-.12,0-.09-.1l2.14-5.35,0-.07s0,0,.08,0h.68c.05,0,.08,0,.08,0a.14.14,0,0,1,0,.07l2.15,5.35c0,.07,0,.1-.09.1Z"/><rect class="cls-2" x="135.12" y="37.62" width="0.86" height="5.54" rx="0.1"/><path class="cls-1" d="M140,39a1.84,1.84,0,0,0-1.52-.58h-.57v4h.33a2.92,2.92,0,0,0,.8-.11,1.73,1.73,0,0,0,.66-.34,1.69,1.69,0,0,0,.51-.64,2.25,2.25,0,0,0,.18-.94,3.1,3.1,0,0,0-.09-.78A1.68,1.68,0,0,0,140,39Zm.32,3.54a2,2,0,0,1-.45.28,2.77,2.77,0,0,1-.53.2,4,4,0,0,1-.6.11,4.17,4.17,0,0,1-.61,0h-.89a.32.32,0,0,1-.15,0,.24.24,0,0,1,0-.15V37.81a.29.29,0,0,1,0-.17.38.38,0,0,1,.16,0h1.25a2.67,2.67,0,0,1,2.13.81,2.31,2.31,0,0,1,.46.81,3.73,3.73,0,0,1,.15,1.13,3.08,3.08,0,0,1-.24,1.24A2.32,2.32,0,0,1,140.29,42.52Z"/><path class="cls-1" d="M142.63,43.16a.45.45,0,0,1-.17,0s0-.08,0-.19V37.82c0-.1,0-.16,0-.18a.49.49,0,0,1,.17,0h2.61a.14.14,0,0,1,.09,0,.22.22,0,0,1,0,.1v.54a.13.13,0,0,1,0,.1s0,0-.08,0h-2v1.5h1.9c.07,0,.11,0,.11.12v.55c0,.08,0,.12-.11.12h-1.9v1.68h2.08c.07,0,.11,0,.11.12V43c0,.08,0,.12-.11.12Z"/><path class="cls-1" d="M149.88,43.15s-.07,0-.09,0a.25.25,0,0,1-.07-.09l-2.31-4v4c0,.05,0,.08,0,.09s0,0-.1,0h-.6s-.07,0-.09,0,0,0,0-.09v-5.3a.11.11,0,0,1,.14-.14h.67l.09,0a.31.31,0,0,1,.08.1l2.3,4v-4a.14.14,0,0,1,0-.09.13.13,0,0,1,.1,0h.61s.08,0,.09,0a.14.14,0,0,1,0,.09V43a.14.14,0,0,1,0,.11s0,0-.11,0Z"/><path class="cls-1" d="M156.93,39a1.82,1.82,0,0,0-1.51-.58h-.58v4h.33a2.92,2.92,0,0,0,.8-.11,1.85,1.85,0,0,0,.67-.34,1.69,1.69,0,0,0,.51-.64,2.25,2.25,0,0,0,.18-.94,3.08,3.08,0,0,0-.1-.78,1.4,1.4,0,0,0-.3-.58Zm.32,3.54a2,2,0,0,1-.45.28,2.77,2.77,0,0,1-.53.2,3.75,3.75,0,0,1-.6.11,4.17,4.17,0,0,1-.61,0h-.89a.32.32,0,0,1-.15,0,.24.24,0,0,1,0-.15V37.81a.29.29,0,0,1,0-.17.38.38,0,0,1,.16,0h1.25a2.66,2.66,0,0,1,2.13.81,2.16,2.16,0,0,1,.46.81,3.73,3.73,0,0,1,.15,1.13,3.08,3.08,0,0,1-.24,1.24A2.23,2.23,0,0,1,157.25,42.52Z"/><path class="cls-1" d="M159.59,43.16a.49.49,0,0,1-.17,0s0-.08,0-.19V37.82a.53.53,0,0,1,0-.18.49.49,0,0,1,.17,0h2.61a.14.14,0,0,1,.09,0,.22.22,0,0,1,0,.1v.54a.13.13,0,0,1,0,.1s0,0-.08,0h-2v1.5h1.89c.07,0,.11,0,.11.12v.55c0,.08,0,.12-.11.12H160.2v1.68h2.07c.07,0,.11,0,.11.12V43c0,.08,0,.12-.11.12Z"/><path class="cls-1" d="M166.84,43.15s-.07,0-.09,0a.45.45,0,0,1-.07-.09l-2.31-4v4c0,.05,0,.08,0,.09s0,0-.09,0h-.61s-.07,0-.09,0,0,0,0-.09v-5.3a.14.14,0,0,1,0-.11.16.16,0,0,1,.11,0h.68l.08,0a.31.31,0,0,1,.08.1l2.3,4v-4s0-.08,0-.09,0,0,.09,0h.61q.08,0,.09,0a.14.14,0,0,1,0,.09V43a.14.14,0,0,1,0,.11s-.05,0-.1,0Z"/><path class="cls-1" d="M170.7,38.39v4.68c0,.06,0,.08-.09.08H170c-.06,0-.09,0-.09-.08V38.39h-1.43a.09.09,0,0,1-.06,0,.08.08,0,0,1,0-.07V37.7a.09.09,0,0,1,0-.06l.06,0h3.69l.06,0a.09.09,0,0,1,0,.06v.59c0,.07,0,.1-.09.1Z"/><path class="cls-1" d="M173.28,41h1.79l-.89-2.27-.9,2.27ZM176,43.15H176s0,0,0-.06l-.52-1.32H173l-.53,1.32s0,.06,0,.06h-.75c-.09,0-.12,0-.09-.1l2.14-5.35,0-.07s0,0,.08,0h.76a.14.14,0,0,1,0,.07l2.14,5.35c0,.07,0,.1-.08.1Z"/><path class="cls-1" d="M177.56,43.15a.07.07,0,0,1-.08-.08V37.7a.07.07,0,0,1,0-.06l.06,0h.66l.07,0a.14.14,0,0,1,0,.06v4.68h1.9c.06,0,.09,0,.09.1v.59a.14.14,0,0,1,0,.06.08.08,0,0,1-.07,0Z"/><path class="cls-1" d="M186.89,43.1l-.52.11a4.65,4.65,0,0,1-.69,0,3,3,0,0,1-1.14-.21,2.38,2.38,0,0,1-.87-.58,2.79,2.79,0,0,1-.56-.91,3.7,3.7,0,0,1,0-2.34,2.77,2.77,0,0,1,.55-.91,2.48,2.48,0,0,1,.88-.59,3.17,3.17,0,0,1,1.14-.2c.22,0,.43,0,.64,0a3.32,3.32,0,0,1,.58.11.17.17,0,0,1,.09.06.25.25,0,0,1,0,.1v.55c0,.07,0,.12,0,.12l-.13,0a4,4,0,0,0-1.14-.16,2,2,0,0,0-.81.15,1.78,1.78,0,0,0-.61.43,2.07,2.07,0,0,0-.37.67,2.71,2.71,0,0,0,0,1.69,1.86,1.86,0,0,0,1,1.11,1.85,1.85,0,0,0,.78.16,6,6,0,0,0,.65,0,1.85,1.85,0,0,0,.49-.12c.07,0,.11,0,.13,0s0,0,0,.07l0,.52a.41.41,0,0,1,0,.12A.21.21,0,0,1,186.89,43.1Z"/><path class="cls-1" d="M188.11,43.15a.08.08,0,0,1-.07,0,.14.14,0,0,1,0-.06V37.7a.14.14,0,0,1,0-.06l.07,0h.66l.06,0a.09.09,0,0,1,0,.06v4.68h1.9c.06,0,.09,0,.09.1v.59a.09.09,0,0,1,0,.06.07.07,0,0,1-.06,0Z"/><rect class="cls-2" x="191.45" y="37.62" width="0.86" height="5.54" rx="0.1"/><path class="cls-1" d="M196.64,43.15s-.07,0-.09,0a.25.25,0,0,1-.07-.09l-2.31-4v4c0,.05,0,.08,0,.09s-.05,0-.1,0h-.6s-.07,0-.09,0,0,0,0-.09v-5.3a.11.11,0,0,1,.14-.14h.67l.09,0s0,.05.08.1l2.3,4v-4a.14.14,0,0,1,0-.09.13.13,0,0,1,.1,0h.61s.08,0,.09,0a.14.14,0,0,1,0,.09V43a.14.14,0,0,1,0,.11s0,0-.11,0Z"/><rect class="cls-2" x="198.56" y="37.62" width="0.86" height="5.54" rx="0.1"/><path class="cls-1" d="M204.27,43.1l-.51.11a4.9,4.9,0,0,1-.7,0,3,3,0,0,1-1.14-.21,2.38,2.38,0,0,1-.87-.58,2.79,2.79,0,0,1-.56-.91,3.7,3.7,0,0,1,0-2.34,2.49,2.49,0,0,1,.56-.91,2.53,2.53,0,0,1,.87-.59,3.17,3.17,0,0,1,1.14-.2c.22,0,.43,0,.64,0a3.15,3.15,0,0,1,.58.11.17.17,0,0,1,.09.06.15.15,0,0,1,0,.1v.55c0,.07,0,.12,0,.12l-.13,0a3.93,3.93,0,0,0-1.14-.16,2,2,0,0,0-.81.15,1.78,1.78,0,0,0-.61.43,2.07,2.07,0,0,0-.37.67,2.71,2.71,0,0,0,0,1.69,2,2,0,0,0,.39.67,2,2,0,0,0,.61.44,1.77,1.77,0,0,0,.77.16,5.92,5.92,0,0,0,.65,0,2,2,0,0,0,.5-.12c.06,0,.1,0,.12,0s0,0,0,.07l0,.52a.23.23,0,0,1,0,.12A.21.21,0,0,1,204.27,43.1Z"/><path class="cls-3" d="M72.8,10.62h4.35v2.21H72.8v6.72H70.19V6.93H68.76V4.75h4v5.87ZM57.69,25.91a2.2,2.2,0,0,0,.48,1.44,3.49,3.49,0,0,0,1.36.95,8.56,8.56,0,0,0,2.08.51,21,21,0,0,0,5.26,0A9,9,0,0,0,69,28.27a3.49,3.49,0,0,0,1.36-.95,2.2,2.2,0,0,0,.48-1.44,2.16,2.16,0,0,0-.48-1.42A3.47,3.47,0,0,0,69,23.52,8.52,8.52,0,0,0,66.87,23a20.43,20.43,0,0,0-5.26,0,8.07,8.07,0,0,0-2.08.54,3.61,3.61,0,0,0-1.36,1,2.16,2.16,0,0,0-.48,1.42Zm15.71,0a4.2,4.2,0,0,1-.63,2.32A5,5,0,0,1,71,29.84a9.49,9.49,0,0,1-2.87.95,24.73,24.73,0,0,1-7.68,0,9.78,9.78,0,0,1-2.87-.93,4.79,4.79,0,0,1-1.82-1.61,4.22,4.22,0,0,1-.63-2.34,4.27,4.27,0,0,1,.63-2.34A4.79,4.79,0,0,1,57.53,22,9.78,9.78,0,0,1,60.4,21a24.73,24.73,0,0,1,7.68,0A9.49,9.49,0,0,1,71,22a4.89,4.89,0,0,1,1.82,1.62,4.17,4.17,0,0,1,.63,2.32ZM65.67,8.1c.06-1.16-.48-1.74-1.6-1.74H53.39v2.2h9.07c.25,0,.4.07.45.2a.64.64,0,0,1,0,.35,7.72,7.72,0,0,1-1.17,3.39,11.85,11.85,0,0,1-2.46,2.76,16.47,16.47,0,0,1-3.38,2.14,25.28,25.28,0,0,1-3.89,1.52l1.17,1.92a29.06,29.06,0,0,0,4.77-2,17.87,17.87,0,0,0,3.89-2.72,12.68,12.68,0,0,0,2.68-3.56A11.3,11.3,0,0,0,65.67,8.1Z"/><path class="cls-3" d="M99.7,10.62h4.35v2.21H99.7v6.72H97.1V6.93H95.67V4.75h4v5.87ZM97.1,23.16h-12v4.75a.65.65,0,0,0,.74.72H97.1V23.16ZM84.62,30.8A2.39,2.39,0,0,1,83,30.32a2.14,2.14,0,0,1-.55-1.67V21H99.7V30.8Zm-2-15.48a.7.7,0,0,0,.17.54.9.9,0,0,0,.58.14,46,46,0,0,0,5.39-.33,42.68,42.68,0,0,0,5.86-1.13l.45,2.09a41.22,41.22,0,0,1-6.61,1.25,61.61,61.61,0,0,1-6.27.33,2.42,2.42,0,0,1-1.63-.49A2.15,2.15,0,0,1,80,16.06V8.56H78.61V6.39h4Z"/><path class="cls-3" d="M132.36,30.46h-2.61V6.93h-1.14V4.75h3.75V30.46Zm-16.11-10a3.3,3.3,0,0,0,1.67-.4,3.35,3.35,0,0,0,1.16-1.12,5.12,5.12,0,0,0,.66-1.67,10.86,10.86,0,0,0,0-4.15,5.27,5.27,0,0,0-.66-1.68,3.18,3.18,0,0,0-2.83-1.51,3.25,3.25,0,0,0-1.69.4,3.38,3.38,0,0,0-1.15,1.11,5.27,5.27,0,0,0-.66,1.68,10.86,10.86,0,0,0,0,4.15,5.12,5.12,0,0,0,.66,1.67A3.41,3.41,0,0,0,114.56,20a3.25,3.25,0,0,0,1.69.4Zm11.1,7.84h-2.6v-12h-2.32a7.5,7.5,0,0,1-1.89,4.58,5.63,5.63,0,0,1-4.29,1.69,6.25,6.25,0,0,1-2.62-.53,5.24,5.24,0,0,1-1.95-1.49,7,7,0,0,1-1.22-2.32,10.15,10.15,0,0,1-.43-3,10.25,10.25,0,0,1,.43-3,7.26,7.26,0,0,1,1.22-2.33,5.16,5.16,0,0,1,1.95-1.5,6.25,6.25,0,0,1,2.62-.53,6.45,6.45,0,0,1,2.4.44,5.42,5.42,0,0,1,1.87,1.26,6.38,6.38,0,0,1,1.28,2,9.15,9.15,0,0,1,.63,2.56h2.32V7.79h-1.43V5.61h4Z"/><path class="cls-3" d="M153.44,30.46V6.93H152V4.75h4V30.46Zm-11.51-10a4.86,4.86,0,0,0,2-.4,4.27,4.27,0,0,0,1.52-1.12,5.18,5.18,0,0,0,1-1.67,6.5,6.5,0,0,0,0-4.15,5.34,5.34,0,0,0-1-1.68A4.24,4.24,0,0,0,144,10.31a4.86,4.86,0,0,0-2-.4,4.92,4.92,0,0,0-2,.4,4.21,4.21,0,0,0-1.51,1.11,5.34,5.34,0,0,0-1,1.68,6.5,6.5,0,0,0,0,4.15,5.18,5.18,0,0,0,1,1.67A4.23,4.23,0,0,0,139.91,20a4.92,4.92,0,0,0,2,.4Zm-7.35-5.27a7.88,7.88,0,0,1,.55-3A6.92,6.92,0,0,1,139,8.33a8.16,8.16,0,0,1,5.84,0,6.87,6.87,0,0,1,2.33,1.52,7.3,7.3,0,0,1,1.57,2.33,7.7,7.7,0,0,1,.57,3,7.62,7.62,0,0,1-.57,3,7.24,7.24,0,0,1-1.57,2.34,6.68,6.68,0,0,1-2.33,1.5A8.31,8.31,0,0,1,139,22a6.86,6.86,0,0,1-2.33-1.5,7,7,0,0,1-1.55-2.34A7.8,7.8,0,0,1,134.58,15.17Z"/><path class="cls-3" d="M164.64,30.8a2.39,2.39,0,0,1-1.63-.48,2.14,2.14,0,0,1-.55-1.67V23.22h2.61v4.72a.68.68,0,0,0,.17.54.88.88,0,0,0,.57.15h14.4V30.8Zm.14-15.17a2.4,2.4,0,0,1-1.63-.48,2.17,2.17,0,0,1-.54-1.67V8.05h-1.43V5.87h18.6V8.08H165.24v4.69a.68.68,0,0,0,.17.54.88.88,0,0,0,.57.15h13.94v2.17Zm18.44,5.13H159.17V18.55h24.05Z"/><path class="cls-1" d="M209.23,30.46V6.93H207.8V4.75h4V30.46ZM196.55,9.08V5.64h2.66V9.08h5.73v2.23h-5.73v1a9.85,9.85,0,0,0,1.81,6,13.11,13.11,0,0,0,5,4L204.54,24a13.8,13.8,0,0,1-2-1.13,13.65,13.65,0,0,1-1.88-1.56,13.19,13.19,0,0,1-1.6-1.95,11.32,11.32,0,0,1-1.2-2.29,12.29,12.29,0,0,1-1.23,2.36,13.15,13.15,0,0,1-1.68,2,15,15,0,0,1-2,1.63,13.72,13.72,0,0,1-2.06,1.2l-1.46-1.77a15.66,15.66,0,0,0,2.88-1.83,12.39,12.39,0,0,0,2.23-2.36A11,11,0,0,0,196,15.5a10.1,10.1,0,0,0,.51-3.22v-1h-5.72V9.08Z"/><path class="cls-1" d="M232.94,30.46V6.93h-1.43V4.75h4V14h4.36v2.23h-4.36v14.2Zm-6.33-20.09a.85.85,0,0,0-.08-.49.5.5,0,0,0-.46-.2h-9.76V7.5H227.7a1.62,1.62,0,0,1,1.26.42,1.89,1.89,0,0,1,.35,1.33c0,.74-.08,1.62-.16,2.62s-.19,2-.32,3.06-.26,2-.41,3-.32,1.77-.49,2.41l-2.55-.48c.14-.52.27-1.18.4-2s.26-1.66.38-2.55.21-1.77.28-2.65.14-1.65.17-2.31Zm5,14.28-.38-2.12c-1.54.21-3.05.39-4.52.53s-2.94.26-4.41.36V14.94h-2.63v8.62l-2.7.09-2.74.05.35,2.18c1.46,0,2.91-.06,4.32-.13s2.81-.15,4.2-.24,2.8-.22,4.2-.36S230.1,24.84,231.57,24.65Z"/><path class="cls-3" d="M31.75,41.15l-9.08-9.08,3.47-3.46L40.83,13.92,31.75,41.15Zm-20.24,0L2.43,13.92,20.58,32.07l-9.07,9.08ZM11.38,1.58l7.91,2.64L3.47,9.49l7.91-7.91Zm20.49,0,7.91,7.91L24,4.22l7.91-2.64ZM5.29,10.45H38L21.63,5,5.29,10.45ZM31.55,21.11,34.7,18l6-6H2.52l9.19,9.19L21.63,31l9.92-9.92Zm11.71-9.93a.43.43,0,0,1,0,0v0a.2.2,0,0,1,0-.07v0a.08.08,0,0,1,0,0l0-.07a.14.14,0,0,0,0-.06h0a.35.35,0,0,0-.05-.08l0,0,0,0h0L32.6.22A.74.74,0,0,0,31.84,0L21.63,3.44,11.42,0a.74.74,0,0,0-.76.18L.22,10.66a.1.1,0,0,0,0,.05l0,0,0,0s0,0,0,0l0,.1v0A.29.29,0,0,0,0,11H0s0,.08,0,.12v0H0s0,.07,0,.1v0H0a.29.29,0,0,1,0,.09s0,0,0,0L10.48,42.75a.75.75,0,0,0,.53.49l.17,0a.75.75,0,0,0,.53-.22l9.92-9.92L31.55,43a.74.74,0,0,0,.52.22l.17,0a.73.73,0,0,0,.53-.49L43.22,11.42v0a.3.3,0,0,0,0-.1.17.17,0,0,0,0-.07A.43.43,0,0,0,43.26,11.18Z"/></g></g></svg>