<svg xmlns="http://www.w3.org/2000/svg" viewBox="0 0 715.49 107.92"><defs><style>.cls-1{fill:#00acaa;}.cls-1,.cls-2{fill-rule:evenodd;}.cls-2{fill:#717275;}</style></defs><g id="레이어_2" data-name="레이어 2"><g id="레이어_1-2" data-name="레이어 1"><path class="cls-1" d="M194.54,30.16h13.57V37H194.54V58h-8.12V18.65H182V11.86h12.58v18.3ZM147.43,77.81a6.82,6.82,0,0,0,1.51,4.5,10.68,10.68,0,0,0,4.24,3,26.36,26.36,0,0,0,6.47,1.61,64.83,64.83,0,0,0,8.21.48,57.9,57.9,0,0,0,8.21-.53,27.57,27.57,0,0,0,6.47-1.65,10.76,10.76,0,0,0,4.24-2.94,6.87,6.87,0,0,0,1.52-4.51,6.7,6.7,0,0,0-1.52-4.42,10.68,10.68,0,0,0-4.24-3,28.07,28.07,0,0,0-6.47-1.65,63.85,63.85,0,0,0-16.42,0,26.21,26.21,0,0,0-6.47,1.7,11,11,0,0,0-4.24,3,6.7,6.7,0,0,0-1.51,4.42Zm49,0a13,13,0,0,1-2,7.23,15.11,15.11,0,0,1-5.67,5,29.48,29.48,0,0,1-9,3,76.56,76.56,0,0,1-23.92,0,30.5,30.5,0,0,1-9-2.9,14.77,14.77,0,0,1-5.66-5,14.56,14.56,0,0,1,0-14.59,14.62,14.62,0,0,1,5.66-5,31.1,31.1,0,0,1,9-2.9,77.37,77.37,0,0,1,23.92,0,30,30,0,0,1,9,2.94,15.24,15.24,0,0,1,5.67,5,13,13,0,0,1,2,7.23ZM172.32,22.3c.18-3.62-1.49-5.44-5-5.44H134v6.87h28.29c.77,0,1.23.21,1.38.62a2.17,2.17,0,0,1,.14,1.08A24.25,24.25,0,0,1,160.18,36a36.61,36.61,0,0,1-7.67,8.61A51.66,51.66,0,0,1,142,51.3,80.61,80.61,0,0,1,129.85,56l3.65,6a90.16,90.16,0,0,0,14.86-6.11,55,55,0,0,0,12.14-8.48,38.65,38.65,0,0,0,8.34-11.11A34.55,34.55,0,0,0,172.32,22.3Z"/><path class="cls-1" d="M278.42,30.16H292V37H278.42V58H270.3V18.65h-4.46V11.86h12.58v18.3ZM270.3,69.24H232.73V84.05a2,2,0,0,0,2.32,2.24H270.3V69.24ZM231.4,93.07a7.42,7.42,0,0,1-5.09-1.52c-1.14-1-1.7-2.74-1.7-5.18V62.46h53.81V93.07Zm-6.16-48.28a2.18,2.18,0,0,0,.53,1.7,2.86,2.86,0,0,0,1.79.44,144.54,144.54,0,0,0,16.82-1,134.92,134.92,0,0,0,18.25-3.53l1.42,6.51a128.44,128.44,0,0,1-20.61,3.89,194.25,194.25,0,0,1-19.54,1,7.42,7.42,0,0,1-5.09-1.51q-1.69-1.51-1.69-5.18V23.73h-4.47V17h12.59Z"/><path class="cls-1" d="M380.23,92h-8.12V18.65h-3.57V11.86h11.69V92ZM330,60.77a10.42,10.42,0,0,0,5.22-1.25A10.55,10.55,0,0,0,338.83,56a15.53,15.53,0,0,0,2.05-5.22,33.54,33.54,0,0,0,0-12.94,15.61,15.61,0,0,0-2.05-5.22A9.87,9.87,0,0,0,330,27.92a10.3,10.3,0,0,0-5.27,1.25,10.5,10.5,0,0,0-3.57,3.48,15.4,15.4,0,0,0-2.05,5.22,33.54,33.54,0,0,0,0,12.94A15.32,15.32,0,0,0,321.16,56a10.53,10.53,0,0,0,3.57,3.49A10.3,10.3,0,0,0,330,60.77Zm34.61,24.44H356.5V47.74h-7.23q-.9,9-5.89,14.27T330,67.28a19.57,19.57,0,0,1-8.17-1.65A16.78,16.78,0,0,1,315.76,61,21.61,21.61,0,0,1,312,53.76a31.3,31.3,0,0,1-1.34-9.42A31.23,31.23,0,0,1,312,34.93a22,22,0,0,1,3.79-7.27A16.59,16.59,0,0,1,321.83,23,19.42,19.42,0,0,1,330,21.32a19.7,19.7,0,0,1,7.49,1.38,17.13,17.13,0,0,1,5.85,3.93,19.9,19.9,0,0,1,4,6.16,27.63,27.63,0,0,1,2,8h7.23V21.32H352V14.54h12.57Z"/><path class="cls-1" d="M446,92V18.65h-4.46V11.86h12.58V92ZM410.08,60.77a15.35,15.35,0,0,0,6.29-1.25A13.35,13.35,0,0,0,421.1,56a16.45,16.45,0,0,0,3-5.22,20.1,20.1,0,0,0,0-12.94,16.56,16.56,0,0,0-3-5.22,13.33,13.33,0,0,0-4.73-3.48,16.45,16.45,0,0,0-12.58,0,13.24,13.24,0,0,0-4.73,3.48,16.37,16.37,0,0,0-3,5.22,20.1,20.1,0,0,0,0,12.94,16.26,16.26,0,0,0,3,5.22,13.26,13.26,0,0,0,4.73,3.49,15.35,15.35,0,0,0,6.29,1.25ZM387.14,44.34A24.36,24.36,0,0,1,388.88,35,21.42,21.42,0,0,1,401,23a25.21,25.21,0,0,1,18.2,0,21.77,21.77,0,0,1,7.27,4.73A22.07,22.07,0,0,1,431.32,35a23.82,23.82,0,0,1,1.78,9.32,23.8,23.8,0,0,1-1.78,9.33,22.07,22.07,0,0,1-4.87,7.27,21.22,21.22,0,0,1-7.27,4.69,25.92,25.92,0,0,1-18.2,0,21.36,21.36,0,0,1-7.28-4.69,21.79,21.79,0,0,1-4.82-7.27A24.34,24.34,0,0,1,387.14,44.34Z"/><path class="cls-1" d="M480.87,93.07a7.44,7.44,0,0,1-5.09-1.52q-1.69-1.51-1.69-5.18v-17h8.12V84.14a2.17,2.17,0,0,0,.53,1.7,2.81,2.81,0,0,0,1.79.45h44.88v6.78Zm.44-47.3a7.41,7.41,0,0,1-5.08-1.51c-1.13-1-1.7-2.74-1.7-5.18V22.13h-4.46V15.34h58v6.88H482.74V36.84a2.12,2.12,0,0,0,.54,1.7,2.78,2.78,0,0,0,1.78.45h43.46v6.78Zm57.47,16H463.83V54.87h74.95Z"/><path class="cls-2" d="M619.89,92V18.65h-4.46V11.86H628V92ZM580.36,25.34V14.63h8.3V25.34H606.5v7H588.66v3q0,10.89,5.62,18.56a41.1,41.1,0,0,0,15.53,12.5l-4.55,5.53a43.64,43.64,0,0,1-6.2-3.52,41.51,41.51,0,0,1-5.85-4.87,40.71,40.71,0,0,1-5-6.07,36.71,36.71,0,0,1-3.75-7.14,36.58,36.58,0,0,1-3.84,7.37A41.72,41.72,0,0,1,575.41,64a46.76,46.76,0,0,1-6.11,5.08,45.14,45.14,0,0,1-6.43,3.75l-4.55-5.53a47.35,47.35,0,0,0,9-5.71,38,38,0,0,0,7-7.36,34,34,0,0,0,4.51-8.84,31.28,31.28,0,0,0,1.6-10v-3H562.52v-7Z"/><path class="cls-2" d="M693.81,92V18.65h-4.46V11.86h12.57V40.77h13.57v7H701.92V92ZM674.09,29.36a2.59,2.59,0,0,0-.27-1.53,1.52,1.52,0,0,0-1.43-.62H642V20.43h35.51q2.78,0,3.93,1.29a5.91,5.91,0,0,1,1.08,4.15c-.06,2.32-.23,5.05-.5,8.17s-.59,6.31-1,9.55S680.18,50,679.71,53s-1,5.51-1.52,7.54L670.25,59q.62-2.41,1.25-6.2t1.16-7.94c.36-2.77.65-5.52.89-8.26s.42-5.14.54-7.22Zm15.43,44.52-1.16-6.6q-7.23,1-14.09,1.64T660.52,70V43.63h-8.21V70.49q-4.29.18-8.43.27l-8.52.17,1.07,6.79q6.87-.09,13.47-.4T663,76.56q6.53-.45,13.07-1.12T689.52,73.88Z"/><path class="cls-1" d="M79.21,102.67,56.56,80l8.66-8.65,36.64-36.65-22.65,68Zm-50.5,0L6.06,34.72,51.35,80,28.71,102.67ZM28.4,4l19.73,6.58L8.67,23.69,28.4,4ZM79.52,4,99.25,23.69,59.79,10.53,79.52,4ZM13.2,26.06H94.72L54,12.47,13.2,26.06Zm65.52,26.6,7.86-7.87,15-15H6.29L29.2,52.66,54,77.41,78.72,52.66ZM107.91,27.9s0-.09,0-.14,0-.05,0-.08a1,1,0,0,0,0-.17v0a.61.61,0,0,0-.05-.12.85.85,0,0,0-.06-.17c0-.05,0-.1-.05-.14h0a2.26,2.26,0,0,0-.13-.2,1.25,1.25,0,0,0-.09-.12l-.08-.09,0,0L81.32.54A1.83,1.83,0,0,0,79.43.1L54,8.59,28.48.1A1.84,1.84,0,0,0,26.6.54L.54,26.6l-.09.11-.07.08-.1.14,0,.07a2,2,0,0,0-.13.25s0,.05,0,.08a1.66,1.66,0,0,0-.06.21H0a2.64,2.64,0,0,0,0,.29s0,0,0,0v0a2.11,2.11,0,0,0,0,.25s0,0,0,.05,0,0,0,0,0,.14.05.21a.13.13,0,0,1,0,.06l26.06,78.17a1.86,1.86,0,0,0,1.33,1.21,2,2,0,0,0,.42,0,1.84,1.84,0,0,0,1.3-.54L54,82.63l24.76,24.75a1.82,1.82,0,0,0,1.3.54,2,2,0,0,0,.42,0,1.86,1.86,0,0,0,1.33-1.21l26.05-78.17a.08.08,0,0,0,0,0,1.84,1.84,0,0,0,0-.25l0-.18Z"/></g></g></svg>