<svg width="110" height="110" viewBox="0 0 110 110" fill="none" xmlns="http://www.w3.org/2000/svg">
<circle cx="55" cy="55" r="52.5" stroke="#B3D9DC" stroke-width="5"/>
<path d="M31.39 66H26.86V53.61C26.86 53.09 26.87 52.41 26.89 51.57C26.93 50.73 26.96 49.99 26.98 49.35C26.88 49.47 26.66 49.69 26.32 50.01C26 50.31 25.7 50.58 25.42 50.82L22.96 52.8L20.77 50.07L27.67 44.58H31.39V66ZM43.698 66.3C41.878 66.3 40.388 65.59 39.228 64.17C38.088 62.73 37.518 60.62 37.518 57.84C37.518 55.04 38.098 52.92 39.258 51.48C40.418 50.04 41.938 49.32 43.818 49.32C44.998 49.32 45.968 49.55 46.728 50.01C47.488 50.47 48.088 51.04 48.528 51.72H48.678C48.618 51.4 48.548 50.94 48.468 50.34C48.388 49.72 48.348 49.09 48.348 48.45V43.2H52.818V66H49.398L48.528 63.87H48.348C47.908 64.55 47.318 65.13 46.578 65.61C45.838 66.07 44.878 66.3 43.698 66.3ZM45.258 62.73C46.498 62.73 47.368 62.37 47.868 61.65C48.368 60.91 48.628 59.81 48.648 58.35V57.87C48.648 56.27 48.398 55.05 47.898 54.21C47.418 53.37 46.518 52.95 45.198 52.95C44.218 52.95 43.448 53.38 42.888 54.24C42.328 55.08 42.048 56.3 42.048 57.9C42.048 59.5 42.328 60.71 42.888 61.53C43.448 62.33 44.238 62.73 45.258 62.73ZM64.2123 49.29C66.4123 49.29 68.0923 49.77 69.2523 50.73C70.4323 51.67 71.0223 53.12 71.0223 55.08V66H67.9023L67.0323 63.78H66.9123C66.2123 64.66 65.4723 65.3 64.6923 65.7C63.9123 66.1 62.8423 66.3 61.4823 66.3C60.0223 66.3 58.8123 65.88 57.8523 65.04C56.8923 64.18 56.4123 62.87 56.4123 61.11C56.4123 59.37 57.0223 58.09 58.2423 57.27C59.4623 56.43 61.2923 55.97 63.7323 55.89L66.5823 55.8V55.08C66.5823 54.22 66.3523 53.59 65.8923 53.19C65.4523 52.79 64.8323 52.59 64.0323 52.59C63.2323 52.59 62.4523 52.71 61.6923 52.95C60.9323 53.17 60.1723 53.45 59.4123 53.79L57.9423 50.76C58.8223 50.3 59.7923 49.94 60.8523 49.68C61.9323 49.42 63.0523 49.29 64.2123 49.29ZM64.8423 58.47C63.4023 58.51 62.4023 58.77 61.8423 59.25C61.2823 59.73 61.0023 60.36 61.0023 61.14C61.0023 61.82 61.2023 62.31 61.6023 62.61C62.0023 62.89 62.5223 63.03 63.1623 63.03C64.1223 63.03 64.9323 62.75 65.5923 62.19C66.2523 61.61 66.5823 60.8 66.5823 59.76V58.41L64.8423 58.47ZM73.2578 49.62H78.1478L81.2378 58.83C81.3978 59.27 81.5178 59.73 81.5978 60.21C81.6778 60.67 81.7378 61.16 81.7778 61.68H81.8678C81.9278 61.16 82.0078 60.67 82.1078 60.21C82.2278 59.73 82.3578 59.27 82.4978 58.83L85.5278 49.62H90.3278L83.3978 68.1C82.7778 69.8 81.8678 71.07 80.6678 71.91C79.4878 72.77 78.1178 73.2 76.5578 73.2C76.0578 73.2 75.6178 73.17 75.2378 73.11C74.8778 73.07 74.5578 73.02 74.2778 72.96V69.42C74.4978 69.46 74.7578 69.5 75.0578 69.54C75.3778 69.58 75.7078 69.6 76.0478 69.6C76.9878 69.6 77.7278 69.31 78.2678 68.73C78.8278 68.17 79.2378 67.49 79.4978 66.69L79.7678 65.88L73.2578 49.62Z" fill="#B3D9DC"/>
</svg>
